<svg width="79" height="39" viewBox="0 0 79 39" fill="none" xmlns="http://www.w3.org/2000/svg">
<path d="M0.90625 9.45039V1.50039H14.7563V38.0004H5.85625V9.45039H0.90625Z" fill="#394253"/>
<path d="M20.6051 19.2504C20.6051 13.5171 21.7051 9.00039 23.9051 5.70039C26.1384 2.40039 29.7217 0.75039 34.6551 0.75039C39.5884 0.75039 43.1551 2.40039 45.3551 5.70039C47.5884 9.00039 48.7051 13.5171 48.7051 19.2504C48.7051 25.0504 47.5884 29.6004 45.3551 32.9004C43.1551 36.2004 39.5884 37.8504 34.6551 37.8504C29.7217 37.8504 26.1384 36.2004 23.9051 32.9004C21.7051 29.6004 20.6051 25.0504 20.6051 19.2504ZM40.3051 19.2504C40.3051 15.8837 39.9384 13.3004 39.2051 11.5004C38.4717 9.66706 36.9551 8.75039 34.6551 8.75039C32.3551 8.75039 30.8384 9.66706 30.1051 11.5004C29.3717 13.3004 29.0051 15.8837 29.0051 19.2504C29.0051 21.5171 29.1384 23.4004 29.4051 24.9004C29.6717 26.3671 30.2051 27.5671 31.0051 28.5004C31.8384 29.4004 33.0551 29.8504 34.6551 29.8504C36.2551 29.8504 37.4551 29.4004 38.2551 28.5004C39.0884 27.5671 39.6384 26.3671 39.9051 24.9004C40.1717 23.4004 40.3051 21.5171 40.3051 19.2504Z" fill="#394253"/>
<path d="M53.5223 11.8004C53.6556 8.23372 54.8223 5.48372 57.0223 3.55039C59.2223 1.61706 62.2056 0.650391 65.9723 0.650391C68.4723 0.650391 70.6056 1.08372 72.3723 1.95039C74.1723 2.81706 75.5223 4.00039 76.4223 5.50039C77.3556 7.00039 77.8223 8.68373 77.8223 10.5504C77.8223 12.7504 77.2723 14.5504 76.1723 15.9504C75.0723 17.3171 73.7889 18.2504 72.3223 18.7504V18.9504C74.2223 19.5837 75.7223 20.6337 76.8223 22.1004C77.9223 23.5671 78.4723 25.4504 78.4723 27.7504C78.4723 29.8171 77.9889 31.6504 77.0223 33.2504C76.0889 34.8171 74.7056 36.0504 72.8723 36.9504C71.0723 37.8504 68.9223 38.3004 66.4223 38.3004C62.4223 38.3004 59.2223 37.3171 56.8223 35.3504C54.4556 33.3837 53.2056 30.4171 53.0723 26.4504H61.3723C61.4056 27.9171 61.8223 29.0837 62.6223 29.9504C63.4223 30.7837 64.5889 31.2004 66.1223 31.2004C67.4223 31.2004 68.4223 30.8337 69.1223 30.1004C69.8556 29.3337 70.2223 28.3337 70.2223 27.1004C70.2223 25.5004 69.7056 24.3504 68.6723 23.6504C67.6723 22.9171 66.0556 22.5504 63.8223 22.5504H62.2223V15.6004H63.8223C65.5223 15.6004 66.8889 15.3171 67.9223 14.7504C68.9889 14.1504 69.5223 13.1004 69.5223 11.6004C69.5223 10.4004 69.1889 9.46706 68.5223 8.80039C67.8556 8.13372 66.9389 7.80039 65.7723 7.80039C64.5056 7.80039 63.5556 8.18372 62.9223 8.95039C62.3223 9.71706 61.9723 10.6671 61.8723 11.8004H53.5223Z" fill="#394253"/>
</svg>
