<svg width="171" height="45" viewBox="0 0 171 45" fill="none" xmlns="http://www.w3.org/2000/svg">
<path d="M0.951563 31.1492C2.0849 30.2492 2.60156 29.8326 2.50156 29.8992C5.76823 27.1992 8.3349 24.9826 10.2016 23.2492C12.1016 21.5159 13.7016 19.6992 15.0016 17.7992C16.3016 15.8992 16.9516 14.0492 16.9516 12.2492C16.9516 10.8826 16.6349 9.81589 16.0016 9.04922C15.3682 8.28255 14.4182 7.89922 13.1516 7.89922C11.8849 7.89922 10.8849 8.38255 10.1516 9.34922C9.45156 10.2826 9.10156 11.6159 9.10156 13.3492H0.851562C0.918229 10.5159 1.51823 8.14922 2.65156 6.24922C3.81823 4.34922 5.3349 2.94922 7.20156 2.04922C9.10156 1.14922 11.2016 0.699219 13.5016 0.699219C17.4682 0.699219 20.4516 1.71588 22.4516 3.74922C24.4849 5.78255 25.5016 8.43255 25.5016 11.6992C25.5016 15.2659 24.2849 18.5826 21.8516 21.6492C19.4182 24.6826 16.3182 27.6492 12.5516 30.5492H26.0516V37.4992H0.951563V31.1492Z" fill="#394253"/>
<path d="M30.016 31.4992V24.5992L45.816 1.99922H55.366V24.0992H59.466V31.4992H55.366V37.9992H46.816V31.4992H30.016ZM47.416 11.3992L39.016 24.0992H47.416V11.3992Z" fill="#394253"/>
<path d="M73.7039 30.0992L68.1539 44.4492H62.7039L65.6039 30.0992H73.7039Z" fill="#394253"/>
<path d="M78.0094 19.2492C78.0094 13.5159 79.1094 8.99922 81.3094 5.69922C83.5427 2.39922 87.126 0.749218 92.0594 0.749218C96.9927 0.749218 100.559 2.39922 102.759 5.69922C104.993 8.99922 106.109 13.5159 106.109 19.2492C106.109 25.0492 104.993 29.5992 102.759 32.8992C100.559 36.1992 96.9927 37.8492 92.0594 37.8492C87.126 37.8492 83.5427 36.1992 81.3094 32.8992C79.1094 29.5992 78.0094 25.0492 78.0094 19.2492ZM97.7094 19.2492C97.7094 15.8826 97.3427 13.2992 96.6094 11.4992C95.876 9.66589 94.3594 8.74922 92.0594 8.74922C89.7594 8.74922 88.2427 9.66589 87.5094 11.4992C86.776 13.2992 86.4094 15.8826 86.4094 19.2492C86.4094 21.5159 86.5427 23.3992 86.8094 24.8992C87.076 26.3659 87.6094 27.5659 88.4094 28.4992C89.2427 29.3992 90.4594 29.8492 92.0594 29.8492C93.6594 29.8492 94.8594 29.3992 95.6594 28.4992C96.4927 27.5659 97.0427 26.3659 97.3094 24.8992C97.576 23.3992 97.7094 21.5159 97.7094 19.2492Z" fill="#394253"/>
<path d="M116.627 18.3992C113.493 16.7326 111.927 14.1159 111.927 10.5492C111.927 8.74922 112.393 7.11589 113.327 5.64922C114.26 4.14922 115.677 2.96589 117.577 2.09922C119.477 1.19922 121.81 0.749218 124.577 0.749218C127.343 0.749218 129.66 1.19922 131.527 2.09922C133.427 2.96589 134.843 4.14922 135.777 5.64922C136.71 7.11589 137.177 8.74922 137.177 10.5492C137.177 12.3492 136.743 13.9159 135.877 15.2492C135.043 16.5826 133.91 17.6326 132.477 18.3992C134.277 19.2659 135.66 20.4659 136.627 21.9992C137.593 23.4992 138.077 25.2659 138.077 27.2992C138.077 29.6659 137.477 31.7159 136.277 33.4492C135.077 35.1492 133.443 36.4492 131.377 37.3492C129.343 38.2492 127.077 38.6992 124.577 38.6992C122.077 38.6992 119.793 38.2492 117.727 37.3492C115.693 36.4492 114.077 35.1492 112.877 33.4492C111.677 31.7159 111.077 29.6659 111.077 27.2992C111.077 25.2326 111.56 23.4492 112.527 21.9492C113.493 20.4159 114.86 19.2326 116.627 18.3992ZM128.877 11.8492C128.877 10.4826 128.477 9.43255 127.677 8.69922C126.91 7.93255 125.877 7.54922 124.577 7.54922C123.277 7.54922 122.227 7.93255 121.427 8.69922C120.66 9.46589 120.277 10.5326 120.277 11.8992C120.277 13.1992 120.677 14.2326 121.477 14.9992C122.277 15.7326 123.31 16.0992 124.577 16.0992C125.843 16.0992 126.877 15.7159 127.677 14.9492C128.477 14.1826 128.877 13.1492 128.877 11.8492ZM124.577 22.0992C123.01 22.0992 121.743 22.5326 120.777 23.3992C119.81 24.2326 119.327 25.3992 119.327 26.8992C119.327 28.2992 119.793 29.4492 120.727 30.3492C121.693 31.2492 122.977 31.6992 124.577 31.6992C126.177 31.6992 127.427 31.2492 128.327 30.3492C129.26 29.4492 129.727 28.2992 129.727 26.8992C129.727 25.4326 129.243 24.2659 128.277 23.3992C127.343 22.5326 126.11 22.0992 124.577 22.0992Z" fill="#394253"/>
<path d="M149.048 18.3992C145.915 16.7326 144.348 14.1159 144.348 10.5492C144.348 8.74922 144.815 7.11589 145.748 5.64922C146.682 4.14922 148.098 2.96589 149.998 2.09922C151.898 1.19922 154.232 0.749218 156.998 0.749218C159.765 0.749218 162.082 1.19922 163.948 2.09922C165.848 2.96589 167.265 4.14922 168.198 5.64922C169.132 7.11589 169.598 8.74922 169.598 10.5492C169.598 12.3492 169.165 13.9159 168.298 15.2492C167.465 16.5826 166.332 17.6326 164.898 18.3992C166.698 19.2659 168.082 20.4659 169.048 21.9992C170.015 23.4992 170.498 25.2659 170.498 27.2992C170.498 29.6659 169.898 31.7159 168.698 33.4492C167.498 35.1492 165.865 36.4492 163.798 37.3492C161.765 38.2492 159.498 38.6992 156.998 38.6992C154.498 38.6992 152.215 38.2492 150.148 37.3492C148.115 36.4492 146.498 35.1492 145.298 33.4492C144.098 31.7159 143.498 29.6659 143.498 27.2992C143.498 25.2326 143.982 23.4492 144.948 21.9492C145.915 20.4159 147.282 19.2326 149.048 18.3992ZM161.298 11.8492C161.298 10.4826 160.898 9.43255 160.098 8.69922C159.332 7.93255 158.298 7.54922 156.998 7.54922C155.698 7.54922 154.648 7.93255 153.848 8.69922C153.082 9.46589 152.698 10.5326 152.698 11.8992C152.698 13.1992 153.098 14.2326 153.898 14.9992C154.698 15.7326 155.732 16.0992 156.998 16.0992C158.265 16.0992 159.298 15.7159 160.098 14.9492C160.898 14.1826 161.298 13.1492 161.298 11.8492ZM156.998 22.0992C155.432 22.0992 154.165 22.5326 153.198 23.3992C152.232 24.2326 151.748 25.3992 151.748 26.8992C151.748 28.2992 152.215 29.4492 153.148 30.3492C154.115 31.2492 155.398 31.6992 156.998 31.6992C158.598 31.6992 159.848 31.2492 160.748 30.3492C161.682 29.4492 162.148 28.2992 162.148 26.8992C162.148 25.4326 161.665 24.2659 160.698 23.3992C159.765 22.5326 158.532 22.0992 156.998 22.0992Z" fill="#394253"/>
</svg>
