<svg width="221" height="36" viewBox="0 0 221 36" fill="none" xmlns="http://www.w3.org/2000/svg">
<path d="M28.9193 24L26.1993 19.274H24.7203V24H22.7823V12.185H26.8623C27.769 12.185 28.534 12.3437 29.1573 12.661C29.792 12.9783 30.2623 13.4033 30.5683 13.936C30.8857 14.4687 31.0443 15.0637 31.0443 15.721C31.0443 16.4917 30.8177 17.1943 30.3643 17.829C29.9223 18.4523 29.2367 18.8773 28.3073 19.104L31.2313 24H28.9193ZM24.7203 17.727H26.8623C27.5877 17.727 28.1317 17.5457 28.4943 17.183C28.8683 16.8203 29.0553 16.333 29.0553 15.721C29.0553 15.109 28.874 14.633 28.5113 14.293C28.1487 13.9417 27.599 13.766 26.8623 13.766H24.7203V17.727ZM42.1085 19.087C42.1085 19.4383 42.0859 19.7557 42.0405 20.039H34.8835C34.9402 20.787 35.2179 21.3877 35.7165 21.841C36.2152 22.2943 36.8272 22.521 37.5525 22.521C38.5952 22.521 39.3319 22.0847 39.7625 21.212H41.8535C41.5702 22.0733 41.0545 22.7817 40.3065 23.337C39.5699 23.881 38.6519 24.153 37.5525 24.153C36.6572 24.153 35.8525 23.9547 35.1385 23.558C34.4359 23.15 33.8805 22.5833 33.4725 21.858C33.0759 21.1213 32.8775 20.2713 32.8775 19.308C32.8775 18.3447 33.0702 17.5003 33.4555 16.775C33.8522 16.0383 34.4019 15.4717 35.1045 15.075C35.8185 14.6783 36.6345 14.48 37.5525 14.48C38.4365 14.48 39.2242 14.6727 39.9155 15.058C40.6069 15.4433 41.1452 15.9873 41.5305 16.69C41.9159 17.3813 42.1085 18.1803 42.1085 19.087ZM40.0855 18.475C40.0742 17.761 39.8192 17.1887 39.3205 16.758C38.8219 16.3273 38.2042 16.112 37.4675 16.112C36.7989 16.112 36.2265 16.3273 35.7505 16.758C35.2745 17.1773 34.9912 17.7497 34.9005 18.475H40.0855ZM47.6367 22.266L50.2887 14.633H52.3457L48.7757 24H46.4637L42.9107 14.633H44.9847L47.6367 22.266ZM54.7966 13.392C54.4453 13.392 54.1506 13.273 53.9126 13.035C53.6746 12.797 53.5556 12.5023 53.5556 12.151C53.5556 11.7997 53.6746 11.505 53.9126 11.267C54.1506 11.029 54.4453 10.91 54.7966 10.91C55.1366 10.91 55.4256 11.029 55.6636 11.267C55.9016 11.505 56.0206 11.7997 56.0206 12.151C56.0206 12.5023 55.9016 12.797 55.6636 13.035C55.4256 13.273 55.1366 13.392 54.7966 13.392ZM55.7486 14.633V24H53.8106V14.633H55.7486ZM66.8781 19.087C66.8781 19.4383 66.8554 19.7557 66.8101 20.039H59.6531C59.7097 20.787 59.9874 21.3877 60.4861 21.841C60.9847 22.2943 61.5967 22.521 62.3221 22.521C63.3647 22.521 64.1014 22.0847 64.5321 21.212H66.6231C66.3397 22.0733 65.8241 22.7817 65.0761 23.337C64.3394 23.881 63.4214 24.153 62.3221 24.153C61.4267 24.153 60.6221 23.9547 59.9081 23.558C59.2054 23.15 58.6501 22.5833 58.2421 21.858C57.8454 21.1213 57.6471 20.2713 57.6471 19.308C57.6471 18.3447 57.8397 17.5003 58.2251 16.775C58.6217 16.0383 59.1714 15.4717 59.8741 15.075C60.5881 14.6783 61.4041 14.48 62.3221 14.48C63.2061 14.48 63.9937 14.6727 64.6851 15.058C65.3764 15.4433 65.9147 15.9873 66.3001 16.69C66.6854 17.3813 66.8781 18.1803 66.8781 19.087ZM64.8551 18.475C64.8437 17.761 64.5887 17.1887 64.0901 16.758C63.5914 16.3273 62.9737 16.112 62.2371 16.112C61.5684 16.112 60.9961 16.3273 60.5201 16.758C60.0441 17.1773 59.7607 17.7497 59.6701 18.475H64.8551ZM81.3653 14.633L78.4583 24H76.4183L74.5313 17.081L72.6443 24H70.6043L67.6803 14.633H69.6523L71.6073 22.164L73.5963 14.633H75.6193L77.5233 22.13L79.4613 14.633H81.3653ZM92.6186 24.119C91.5193 24.119 90.5049 23.864 89.5756 23.354C88.6576 22.8327 87.9266 22.113 87.3826 21.195C86.8499 20.2657 86.5836 19.223 86.5836 18.067C86.5836 16.911 86.8499 15.874 87.3826 14.956C87.9266 14.038 88.6576 13.324 89.5756 12.814C90.5049 12.2927 91.5193 12.032 92.6186 12.032C93.7293 12.032 94.7436 12.2927 95.6616 12.814C96.5909 13.324 97.3219 14.038 97.8546 14.956C98.3873 15.874 98.6536 16.911 98.6536 18.067C98.6536 19.223 98.3873 20.2657 97.8546 21.195C97.3219 22.113 96.5909 22.8327 95.6616 23.354C94.7436 23.864 93.7293 24.119 92.6186 24.119ZM92.6186 22.436C93.4006 22.436 94.0976 22.2603 94.7096 21.909C95.3216 21.5463 95.7976 21.0363 96.1376 20.379C96.4889 19.7103 96.6646 18.9397 96.6646 18.067C96.6646 17.1943 96.4889 16.4293 96.1376 15.772C95.7976 15.1147 95.3216 14.6103 94.7096 14.259C94.0976 13.9077 93.4006 13.732 92.6186 13.732C91.8366 13.732 91.1396 13.9077 90.5276 14.259C89.9156 14.6103 89.4339 15.1147 89.0826 15.772C88.7426 16.4293 88.5726 17.1943 88.5726 18.067C88.5726 18.9397 88.7426 19.7103 89.0826 20.379C89.4339 21.0363 89.9156 21.5463 90.5276 21.909C91.1396 22.2603 91.8366 22.436 92.6186 22.436ZM102.822 16.214V21.399C102.822 21.7503 102.901 22.0053 103.06 22.164C103.23 22.3113 103.513 22.385 103.91 22.385H105.1V24H103.57C102.697 24 102.028 23.796 101.564 23.388C101.099 22.98 100.867 22.317 100.867 21.399V16.214H99.7616V14.633H100.867V12.304H102.822V14.633H105.1V16.214H102.822ZM111.731 14.48C112.445 14.48 113.08 14.633 113.635 14.939C114.202 15.245 114.644 15.6983 114.961 16.299C115.29 16.8997 115.454 17.625 115.454 18.475V24H113.533V18.764C113.533 17.9253 113.323 17.285 112.904 16.843C112.485 16.3897 111.912 16.163 111.187 16.163C110.462 16.163 109.884 16.3897 109.453 16.843C109.034 17.285 108.824 17.9253 108.824 18.764V24H106.886V11.42H108.824V15.721C109.153 15.3243 109.566 15.0183 110.065 14.803C110.575 14.5877 111.13 14.48 111.731 14.48ZM126.511 19.087C126.511 19.4383 126.488 19.7557 126.443 20.039H119.286C119.343 20.787 119.62 21.3877 120.119 21.841C120.618 22.2943 121.23 22.521 121.955 22.521C122.998 22.521 123.734 22.0847 124.165 21.212H126.256C125.973 22.0733 125.457 22.7817 124.709 23.337C123.972 23.881 123.054 24.153 121.955 24.153C121.06 24.153 120.255 23.9547 119.541 23.558C118.838 23.15 118.283 22.5833 117.875 21.858C117.478 21.1213 117.28 20.2713 117.28 19.308C117.28 18.3447 117.473 17.5003 117.858 16.775C118.255 16.0383 118.804 15.4717 119.507 15.075C120.221 14.6783 121.037 14.48 121.955 14.48C122.839 14.48 123.627 14.6727 124.318 15.058C125.009 15.4433 125.548 15.9873 125.933 16.69C126.318 17.3813 126.511 18.1803 126.511 19.087ZM124.488 18.475C124.477 17.761 124.222 17.1887 123.723 16.758C123.224 16.3273 122.607 16.112 121.87 16.112C121.201 16.112 120.629 16.3273 120.153 16.758C119.677 17.1773 119.394 17.7497 119.303 18.475H124.488ZM130.356 15.993C130.639 15.517 131.013 15.1487 131.478 14.888C131.954 14.616 132.515 14.48 133.161 14.48V16.486H132.668C131.909 16.486 131.331 16.6787 130.934 17.064C130.549 17.4493 130.356 18.118 130.356 19.07V24H128.418V14.633H130.356V15.993ZM151.802 12.185V24H149.864V15.908L146.26 24H144.917L141.296 15.908V24H139.358V12.185H141.449L145.597 21.45L149.728 12.185H151.802ZM158.413 24.153C157.529 24.153 156.73 23.9547 156.016 23.558C155.302 23.15 154.741 22.5833 154.333 21.858C153.925 21.1213 153.721 20.2713 153.721 19.308C153.721 18.356 153.93 17.5117 154.35 16.775C154.769 16.0383 155.341 15.4717 156.067 15.075C156.792 14.6783 157.602 14.48 158.498 14.48C159.393 14.48 160.203 14.6783 160.929 15.075C161.654 15.4717 162.226 16.0383 162.646 16.775C163.065 17.5117 163.275 18.356 163.275 19.308C163.275 20.26 163.059 21.1043 162.629 21.841C162.198 22.5777 161.609 23.15 160.861 23.558C160.124 23.9547 159.308 24.153 158.413 24.153ZM158.413 22.47C158.911 22.47 159.376 22.351 159.807 22.113C160.249 21.875 160.606 21.518 160.878 21.042C161.15 20.566 161.286 19.988 161.286 19.308C161.286 18.628 161.155 18.0557 160.895 17.591C160.634 17.115 160.288 16.758 159.858 16.52C159.427 16.282 158.962 16.163 158.464 16.163C157.965 16.163 157.5 16.282 157.07 16.52C156.65 16.758 156.316 17.115 156.067 17.591C155.817 18.0557 155.693 18.628 155.693 19.308C155.693 20.3167 155.948 21.0987 156.458 21.654C156.979 22.198 157.631 22.47 158.413 22.47ZM164.545 19.274C164.545 18.3333 164.737 17.5003 165.123 16.775C165.519 16.0497 166.052 15.4887 166.721 15.092C167.401 14.684 168.154 14.48 168.982 14.48C169.594 14.48 170.194 14.616 170.784 14.888C171.384 15.1487 171.86 15.5 172.212 15.942V11.42H174.167V24H172.212V22.589C171.894 23.0423 171.452 23.4163 170.886 23.711C170.33 24.0057 169.69 24.153 168.965 24.153C168.149 24.153 167.401 23.949 166.721 23.541C166.052 23.1217 165.519 22.5437 165.123 21.807C164.737 21.059 164.545 20.2147 164.545 19.274ZM172.212 19.308C172.212 18.662 172.076 18.101 171.804 17.625C171.543 17.149 171.197 16.7863 170.767 16.537C170.336 16.2877 169.871 16.163 169.373 16.163C168.874 16.163 168.409 16.2877 167.979 16.537C167.548 16.775 167.197 17.132 166.925 17.608C166.664 18.0727 166.534 18.628 166.534 19.274C166.534 19.92 166.664 20.4867 166.925 20.974C167.197 21.4613 167.548 21.8353 167.979 22.096C168.421 22.3453 168.885 22.47 169.373 22.47C169.871 22.47 170.336 22.3453 170.767 22.096C171.197 21.8467 171.543 21.484 171.804 21.008C172.076 20.5207 172.212 19.954 172.212 19.308ZM185.297 19.087C185.297 19.4383 185.274 19.7557 185.229 20.039H178.072C178.129 20.787 178.406 21.3877 178.905 21.841C179.404 22.2943 180.016 22.521 180.741 22.521C181.784 22.521 182.52 22.0847 182.951 21.212H185.042C184.759 22.0733 184.243 22.7817 183.495 23.337C182.758 23.881 181.84 24.153 180.741 24.153C179.846 24.153 179.041 23.9547 178.327 23.558C177.624 23.15 177.069 22.5833 176.661 21.858C176.264 21.1213 176.066 20.2713 176.066 19.308C176.066 18.3447 176.259 17.5003 176.644 16.775C177.041 16.0383 177.59 15.4717 178.293 15.075C179.007 14.6783 179.823 14.48 180.741 14.48C181.625 14.48 182.413 14.6727 183.104 15.058C183.795 15.4433 184.334 15.9873 184.719 16.69C185.104 17.3813 185.297 18.1803 185.297 19.087ZM183.274 18.475C183.263 17.761 183.008 17.1887 182.509 16.758C182.01 16.3273 181.393 16.112 180.656 16.112C179.987 16.112 179.415 16.3273 178.939 16.758C178.463 17.1773 178.18 17.7497 178.089 18.475H183.274ZM189.142 11.42V24H187.204V11.42H189.142ZM195.087 24.153C194.35 24.153 193.687 24.0227 193.098 23.762C192.52 23.49 192.061 23.1273 191.721 22.674C191.381 22.2093 191.199 21.6937 191.177 21.127H193.183C193.217 21.5237 193.404 21.858 193.744 22.13C194.095 22.3907 194.531 22.521 195.053 22.521C195.597 22.521 196.016 22.419 196.311 22.215C196.617 21.9997 196.77 21.7277 196.77 21.399C196.77 21.0477 196.6 20.787 196.26 20.617C195.931 20.447 195.404 20.26 194.679 20.056C193.976 19.8633 193.404 19.6763 192.962 19.495C192.52 19.3137 192.134 19.036 191.806 18.662C191.488 18.288 191.33 17.795 191.33 17.183C191.33 16.6843 191.477 16.231 191.772 15.823C192.066 15.4037 192.486 15.075 193.03 14.837C193.585 14.599 194.22 14.48 194.934 14.48C195.999 14.48 196.855 14.752 197.501 15.296C198.158 15.8287 198.509 16.5597 198.555 17.489H196.617C196.583 17.0697 196.413 16.7353 196.107 16.486C195.801 16.2367 195.387 16.112 194.866 16.112C194.356 16.112 193.965 16.2083 193.693 16.401C193.421 16.5937 193.285 16.8487 193.285 17.166C193.285 17.4153 193.375 17.625 193.557 17.795C193.738 17.965 193.959 18.101 194.22 18.203C194.48 18.2937 194.866 18.4127 195.376 18.56C196.056 18.7413 196.611 18.9283 197.042 19.121C197.484 19.3023 197.863 19.5743 198.181 19.937C198.498 20.2997 198.662 20.7813 198.674 21.382C198.674 21.9147 198.526 22.3907 198.232 22.81C197.937 23.2293 197.518 23.558 196.974 23.796C196.441 24.034 195.812 24.153 195.087 24.153Z" fill="#13115B"/>
<path d="M7.5 2H213.5V0H7.5V2ZM218.5 7V29H220.5V7H218.5ZM213.5 34H7.5V36H213.5V34ZM2.5 29V7H0.5V29H2.5ZM7.5 34C4.73857 34 2.5 31.7614 2.5 29H0.5C0.5 32.866 3.634 36 7.5 36V34ZM218.5 29C218.5 31.7614 216.261 34 213.5 34V36C217.366 36 220.5 32.866 220.5 29H218.5ZM213.5 2C216.261 2 218.5 4.23858 218.5 7H220.5C220.5 3.13401 217.366 0 213.5 0V2ZM7.5 0C3.63401 0 0.5 3.13401 0.5 7H2.5C2.5 4.23858 4.73858 2 7.5 2V0Z" fill="url(#paint0_linear_40_10734)"/>
<defs>
<linearGradient id="paint0_linear_40_10734" x1="-29.6429" y1="18" x2="250.643" y2="18" gradientUnits="userSpaceOnUse">
<stop offset="0.03125" stop-color="#52DE97"/>
<stop offset="1" stop-color="#00818A"/>
</linearGradient>
</defs>
</svg>
