<svg width="152" height="26" viewBox="0 0 152 26" fill="none" xmlns="http://www.w3.org/2000/svg">
<path d="M0 3H20V23H0V3Z" fill="#3C1EFF"/>
<path d="M42.102 7.1505L37.631 18.9995H35.846L31.375 7.1505H33.024L36.747 17.3675L40.47 7.1505H42.102Z" fill="#394253"/>
<path d="M43.2203 14.3075C43.2203 13.3555 43.4129 12.5225 43.7983 11.8085C44.1836 11.0832 44.7106 10.5222 45.3793 10.1255C46.0593 9.72883 46.8129 9.5305 47.6403 9.5305C48.4563 9.5305 49.1646 9.70617 49.7653 10.0575C50.3659 10.4088 50.8136 10.8508 51.1083 11.3835V9.6835H52.6723V18.9995H51.1083V17.2655C50.8023 17.8095 50.3433 18.2628 49.7313 18.6255C49.1306 18.9768 48.4279 19.1525 47.6233 19.1525C46.7959 19.1525 46.0479 18.9485 45.3793 18.5405C44.7106 18.1325 44.1836 17.5602 43.7983 16.8235C43.4129 16.0868 43.2203 15.2482 43.2203 14.3075ZM51.1083 14.3245C51.1083 13.6218 50.9666 13.0098 50.6833 12.4885C50.3999 11.9672 50.0146 11.5705 49.5273 11.2985C49.0513 11.0152 48.5243 10.8735 47.9463 10.8735C47.3683 10.8735 46.8413 11.0095 46.3653 11.2815C45.8893 11.5535 45.5096 11.9502 45.2263 12.4715C44.9429 12.9928 44.8013 13.6048 44.8013 14.3075C44.8013 15.0215 44.9429 15.6448 45.2263 16.1775C45.5096 16.6988 45.8893 17.1012 46.3653 17.3845C46.8413 17.6565 47.3683 17.7925 47.9463 17.7925C48.5243 17.7925 49.0513 17.6565 49.5273 17.3845C50.0146 17.1012 50.3999 16.6988 50.6833 16.1775C50.9666 15.6448 51.1083 15.0272 51.1083 14.3245Z" fill="#394253"/>
<path d="M59.8256 9.5135C60.9589 9.5135 61.8769 9.85917 62.5796 10.5505C63.2822 11.2305 63.6336 12.2165 63.6336 13.5085V18.9995H62.1036V13.7295C62.1036 12.8002 61.8712 12.0918 61.4066 11.6045C60.9419 11.1058 60.3072 10.8565 59.5026 10.8565C58.6866 10.8565 58.0349 11.1115 57.5476 11.6215C57.0716 12.1315 56.8336 12.8738 56.8336 13.8485V18.9995H55.2866V9.6835H56.8336V11.0095C57.1396 10.5335 57.5532 10.1652 58.0746 9.9045C58.6072 9.64383 59.1909 9.5135 59.8256 9.5135Z" fill="#394253"/>
<path d="M68.0476 10.9585V16.4495C68.0476 16.9028 68.1439 17.2258 68.3366 17.4185C68.5293 17.5998 68.8636 17.6905 69.3396 17.6905H70.4786V18.9995H69.0846C68.2233 18.9995 67.5773 18.8012 67.1466 18.4045C66.7159 18.0078 66.5006 17.3562 66.5006 16.4495V10.9585H65.2936V9.6835H66.5006V7.3375H68.0476V9.6835H70.4786V10.9585H68.0476Z" fill="#394253"/>
<path d="M73.152 8.1705C72.8573 8.1705 72.608 8.0685 72.404 7.8645C72.2 7.6605 72.098 7.41117 72.098 7.1165C72.098 6.82183 72.2 6.5725 72.404 6.3685C72.608 6.1645 72.8573 6.0625 73.152 6.0625C73.4353 6.0625 73.6733 6.1645 73.866 6.3685C74.07 6.5725 74.172 6.82183 74.172 7.1165C74.172 7.41117 74.07 7.6605 73.866 7.8645C73.6733 8.0685 73.4353 8.1705 73.152 8.1705ZM73.9 9.6835V18.9995H72.353V9.6835H73.9Z" fill="#394253"/>
<path d="M93.0878 7.2355V18.9995H91.5408V10.2275L87.6308 18.9995H86.5428L82.6158 10.2105V18.9995H81.0688V7.2355H82.7348L87.0868 16.9595L91.4388 7.2355H93.0878Z" fill="#394253"/>
<path d="M99.7744 19.1525C98.9017 19.1525 98.1084 18.9542 97.3944 18.5575C96.6917 18.1608 96.1364 17.5998 95.7284 16.8745C95.3317 16.1378 95.1334 15.2878 95.1334 14.3245C95.1334 13.3725 95.3374 12.5338 95.7454 11.8085C96.1647 11.0718 96.7314 10.5108 97.4454 10.1255C98.1594 9.72883 98.9584 9.5305 99.8424 9.5305C100.726 9.5305 101.525 9.72883 102.239 10.1255C102.953 10.5108 103.514 11.0662 103.922 11.7915C104.342 12.5168 104.551 13.3612 104.551 14.3245C104.551 15.2878 104.336 16.1378 103.905 16.8745C103.486 17.5998 102.914 18.1608 102.188 18.5575C101.463 18.9542 100.658 19.1525 99.7744 19.1525ZM99.7744 17.7925C100.33 17.7925 100.851 17.6622 101.338 17.4015C101.826 17.1408 102.217 16.7498 102.511 16.2285C102.817 15.7072 102.97 15.0725 102.97 14.3245C102.97 13.5765 102.823 12.9418 102.528 12.4205C102.234 11.8992 101.848 11.5138 101.372 11.2645C100.896 11.0038 100.381 10.8735 99.8254 10.8735C99.2587 10.8735 98.7374 11.0038 98.2614 11.2645C97.7967 11.5138 97.4227 11.8992 97.1394 12.4205C96.856 12.9418 96.7144 13.5765 96.7144 14.3245C96.7144 15.0838 96.8504 15.7242 97.1224 16.2455C97.4057 16.7668 97.7797 17.1578 98.2444 17.4185C98.709 17.6678 99.219 17.7925 99.7744 17.7925Z" fill="#394253"/>
<path d="M106.007 14.3075C106.007 13.3555 106.2 12.5225 106.585 11.8085C106.971 11.0832 107.498 10.5222 108.166 10.1255C108.846 9.72883 109.606 9.5305 110.444 9.5305C111.17 9.5305 111.844 9.7005 112.467 10.0405C113.091 10.3692 113.567 10.8055 113.895 11.3495V6.4195H115.459V18.9995H113.895V17.2485C113.589 17.8038 113.136 18.2628 112.535 18.6255C111.935 18.9768 111.232 19.1525 110.427 19.1525C109.6 19.1525 108.846 18.9485 108.166 18.5405C107.498 18.1325 106.971 17.5602 106.585 16.8235C106.2 16.0868 106.007 15.2482 106.007 14.3075ZM113.895 14.3245C113.895 13.6218 113.754 13.0098 113.47 12.4885C113.187 11.9672 112.802 11.5705 112.314 11.2985C111.838 11.0152 111.311 10.8735 110.733 10.8735C110.155 10.8735 109.628 11.0095 109.152 11.2815C108.676 11.5535 108.297 11.9502 108.013 12.4715C107.73 12.9928 107.588 13.6048 107.588 14.3075C107.588 15.0215 107.73 15.6448 108.013 16.1775C108.297 16.6988 108.676 17.1012 109.152 17.3845C109.628 17.6565 110.155 17.7925 110.733 17.7925C111.311 17.7925 111.838 17.6565 112.314 17.3845C112.802 17.1012 113.187 16.6988 113.47 16.1775C113.754 15.6448 113.895 15.0272 113.895 14.3245Z" fill="#394253"/>
<path d="M126.574 13.9845C126.574 14.2792 126.557 14.5908 126.523 14.9195H119.077C119.133 15.8375 119.445 16.5572 120.012 17.0785C120.59 17.5885 121.287 17.8435 122.103 17.8435C122.771 17.8435 123.327 17.6905 123.769 17.3845C124.222 17.0672 124.539 16.6478 124.721 16.1265H126.387C126.137 17.0218 125.639 17.7528 124.891 18.3195C124.143 18.8748 123.213 19.1525 122.103 19.1525C121.219 19.1525 120.425 18.9542 119.723 18.5575C119.031 18.1608 118.487 17.5998 118.091 16.8745C117.694 16.1378 117.496 15.2878 117.496 14.3245C117.496 13.3612 117.688 12.5168 118.074 11.7915C118.459 11.0662 118.997 10.5108 119.689 10.1255C120.391 9.72883 121.196 9.5305 122.103 9.5305C122.987 9.5305 123.769 9.72317 124.449 10.1085C125.129 10.4938 125.65 11.0265 126.013 11.7065C126.387 12.3752 126.574 13.1345 126.574 13.9845ZM124.976 13.6615C124.976 13.0722 124.845 12.5678 124.585 12.1485C124.324 11.7178 123.967 11.3948 123.514 11.1795C123.072 10.9528 122.579 10.8395 122.035 10.8395C121.253 10.8395 120.584 11.0888 120.029 11.5875C119.485 12.0862 119.173 12.7775 119.094 13.6615H124.976Z" fill="#394253"/>
<path d="M130.163 6.4195V18.9995H128.616V6.4195H130.163Z" fill="#394253"/>
<path d="M136.668 8.1195V6.7085H139.864V18.9995H138.3V8.1195H136.668Z" fill="#394253"/>
<path d="M142.335 17.7585C143.774 16.6025 144.902 15.6562 145.718 14.9195C146.534 14.1715 147.219 13.3952 147.775 12.5905C148.341 11.7745 148.625 10.9755 148.625 10.1935C148.625 9.45683 148.443 8.87883 148.081 8.4595C147.729 8.02883 147.157 7.8135 146.364 7.8135C145.593 7.8135 144.992 8.05717 144.562 8.5445C144.142 9.0205 143.916 9.66083 143.882 10.4655H142.386C142.431 9.19617 142.816 8.21583 143.542 7.5245C144.267 6.83317 145.202 6.4875 146.347 6.4875C147.514 6.4875 148.438 6.8105 149.118 7.4565C149.809 8.1025 150.155 8.99217 150.155 10.1255C150.155 11.0662 149.871 11.9842 149.305 12.8795C148.749 13.7635 148.115 14.5455 147.401 15.2255C146.687 15.8942 145.774 16.6762 144.664 17.5715H150.512V18.8635H142.335V17.7585Z" fill="#394253"/>
</svg>
