<svg width="84" height="20" viewBox="0 0 84 20" fill="none" xmlns="http://www.w3.org/2000/svg">
<path d="M0 0H20V20H0V0Z" fill="#FF3C78"/>
<path d="M32.547 5.41889V9.37989H36.865V10.6549H32.547V14.7349H37.375V16.0099H31V4.14389H37.375V5.41889H32.547Z" fill="#212935"/>
<path d="M41.2628 8.20689C41.5348 7.67422 41.9202 7.26056 42.4188 6.96589C42.9288 6.67122 43.5465 6.52389 44.2718 6.52389V8.12189H43.8638C42.1298 8.12189 41.2628 9.06256 41.2628 10.9439V16.0099H39.7158V6.69389H41.2628V8.20689Z" fill="#212935"/>
<path d="M47.6046 8.20689C47.8766 7.67422 48.262 7.26056 48.7606 6.96589C49.2706 6.67122 49.8883 6.52389 50.6136 6.52389V8.12189H50.2056C48.4716 8.12189 47.6046 9.06256 47.6046 10.9439V16.0099H46.0576V6.69389H47.6046V8.20689Z" fill="#212935"/>
<path d="M56.4624 16.1629C55.5897 16.1629 54.7964 15.9646 54.0824 15.5679C53.3797 15.1712 52.8244 14.6102 52.4164 13.8849C52.0197 13.1482 51.8214 12.2982 51.8214 11.3349C51.8214 10.3829 52.0254 9.54422 52.4334 8.81889C52.8527 8.08222 53.4194 7.52122 54.1334 7.13589C54.8474 6.73922 55.6464 6.54089 56.5304 6.54089C57.4144 6.54089 58.2134 6.73922 58.9274 7.13589C59.6414 7.52122 60.2024 8.07656 60.6104 8.80189C61.0297 9.52722 61.2394 10.3716 61.2394 11.3349C61.2394 12.2982 61.0241 13.1482 60.5934 13.8849C60.1741 14.6102 59.6017 15.1712 58.8764 15.5679C58.1511 15.9646 57.3464 16.1629 56.4624 16.1629ZM56.4624 14.8029C57.0177 14.8029 57.5391 14.6726 58.0264 14.4119C58.5137 14.1512 58.9047 13.7602 59.1994 13.2389C59.5054 12.7176 59.6584 12.0829 59.6584 11.3349C59.6584 10.5869 59.5111 9.95222 59.2164 9.43089C58.9217 8.90956 58.5364 8.52422 58.0604 8.27489C57.5844 8.01422 57.0687 7.88389 56.5134 7.88389C55.9467 7.88389 55.4254 8.01422 54.9494 8.27489C54.4847 8.52422 54.1107 8.90956 53.8274 9.43089C53.5441 9.95222 53.4024 10.5869 53.4024 11.3349C53.4024 12.0942 53.5384 12.7346 53.8104 13.2559C54.0937 13.7772 54.4677 14.1682 54.9324 14.4289C55.3971 14.6782 55.9071 14.8029 56.4624 14.8029Z" fill="#212935"/>
<path d="M64.8204 8.20689C65.0924 7.67422 65.4778 7.26056 65.9764 6.96589C66.4864 6.67122 67.1041 6.52389 67.8294 6.52389V8.12189H67.4214C65.6874 8.12189 64.8204 9.06256 64.8204 10.9439V16.0099H63.2734V6.69389H64.8204V8.20689Z" fill="#212935"/>
<path d="M73.5185 13.2729V12.0999L79.4855 3.83789H81.3385V11.9299H83.0385V13.2729H81.3385V16.0099H79.8085V13.2729H73.5185ZM79.8765 5.45289L75.3035 11.9299H79.8765V5.45289Z" fill="#212935"/>
</svg>
