<svg width="17" height="17" viewBox="0 0 17 17" fill="none" xmlns="http://www.w3.org/2000/svg">
<path d="M7.45217 0.800405C8.58903 0.798822 9.7008 1.13755 10.6467 1.77369C11.5926 2.40984 12.3302 3.31479 12.7659 4.37399C13.2017 5.4332 13.3162 6.59902 13.0947 7.72386C12.8733 8.84871 12.3261 9.88199 11.5222 10.6929C10.7183 11.5038 9.69397 12.0559 8.57888 12.2792C7.46379 12.5026 6.30808 12.3871 5.25806 11.9476C4.20804 11.508 3.31092 10.764 2.6803 9.80977C2.04967 8.85558 1.71389 7.73411 1.71546 6.58731C1.71965 5.05383 2.32539 3.58435 3.40033 2.50001C4.47526 1.41567 5.93199 0.80463 7.45217 0.800405ZM7.45217 4.86321e-06C6.15872 5.82404e-06 4.89433 0.387005 3.81897 1.11206C2.74361 1.83712 1.90561 2.86763 1.41099 4.07323C0.916367 5.27883 0.787358 6.60535 1.04028 7.88493C1.29319 9.16451 1.91668 10.3397 2.83184 11.2617C3.74701 12.1838 4.91273 12.8113 6.18152 13.0648C7.45031 13.3184 8.76516 13.1867 9.9597 12.6863C11.1542 12.1858 12.1748 11.3393 12.8923 10.2536C13.6097 9.16797 13.9919 7.89207 13.9903 6.58731C13.9903 5.72158 13.8211 4.86434 13.4924 4.06461C13.1638 3.26488 12.6821 2.53835 12.0748 1.92655C11.4676 1.31476 10.7468 0.829703 9.9536 0.499131C9.16041 0.16856 8.31039 -0.00104706 7.45217 4.86321e-06Z" fill="#13115B"/>
<path d="M11.625 10.7969L16.4968 15.7194" stroke="#13115B"/>
</svg>
