<svg width="146" height="58" viewBox="0 0 146 58" fill="none" xmlns="http://www.w3.org/2000/svg">
<path d="M10.335 21.696C11.7743 20.54 12.902 19.5937 13.718 18.857C14.534 18.109 15.2197 17.3327 15.775 16.528C16.3417 15.712 16.625 14.913 16.625 14.131C16.625 13.3943 16.4437 12.8163 16.081 12.397C15.7297 11.9663 15.1573 11.751 14.364 11.751C13.5933 11.751 12.9927 11.9947 12.562 12.482C12.1427 12.958 11.916 13.5983 11.882 14.403H10.386C10.4313 13.1337 10.8167 12.1533 11.542 11.462C12.2673 10.7707 13.2023 10.425 14.347 10.425C15.5143 10.425 16.438 10.748 17.118 11.394C17.8093 12.04 18.155 12.9297 18.155 14.063C18.155 15.0037 17.8717 15.9217 17.305 16.817C16.7497 17.701 16.115 18.483 15.401 19.163C14.687 19.8317 13.7747 20.6137 12.664 21.509H18.512V22.801H10.335V21.696Z" fill="#212935"/>
<path d="M19.8923 12.057V10.646H23.0883V22.937H21.5243V12.057H19.8923Z" fill="#212935"/>
<path d="M41.7359 13.451C42.4612 13.451 43.1072 13.604 43.6739 13.91C44.2405 14.2047 44.6882 14.6523 45.0169 15.253C45.3455 15.8537 45.5099 16.5847 45.5099 17.446V22.937H43.9799V17.667C43.9799 16.7377 43.7475 16.0293 43.2829 15.542C42.8295 15.0433 42.2119 14.794 41.4299 14.794C40.6252 14.794 39.9849 15.0547 39.5089 15.576C39.0329 16.086 38.7949 16.8283 38.7949 17.803V22.937H37.2649V17.667C37.2649 16.7377 37.0325 16.0293 36.5679 15.542C36.1145 15.0433 35.4969 14.794 34.7149 14.794C33.9102 14.794 33.2699 15.0547 32.7939 15.576C32.3179 16.086 32.0799 16.8283 32.0799 17.803V22.937H30.5329V13.621H32.0799V14.964C32.3859 14.4767 32.7939 14.1027 33.3039 13.842C33.8252 13.5813 34.3975 13.451 35.0209 13.451C35.8029 13.451 36.4942 13.6267 37.0949 13.978C37.6955 14.3293 38.1432 14.845 38.4379 15.525C38.6985 14.8677 39.1292 14.3577 39.7299 13.995C40.3305 13.6323 40.9992 13.451 41.7359 13.451Z" fill="#212935"/>
<path d="M48.8465 12.108C48.5518 12.108 48.3025 12.006 48.0985 11.802C47.8945 11.598 47.7925 11.3487 47.7925 11.054C47.7925 10.7593 47.8945 10.51 48.0985 10.306C48.3025 10.102 48.5518 10 48.8465 10C49.1298 10 49.3678 10.102 49.5605 10.306C49.7645 10.51 49.8665 10.7593 49.8665 11.054C49.8665 11.3487 49.7645 11.598 49.5605 11.802C49.3678 12.006 49.1298 12.108 48.8465 12.108ZM49.5945 13.621V22.937H48.0475V13.621H49.5945Z" fill="#212935"/>
<path d="M56.7701 13.451C57.9034 13.451 58.8214 13.7967 59.5241 14.488C60.2268 15.168 60.5781 16.154 60.5781 17.446V22.937H59.0481V17.667C59.0481 16.7377 58.8158 16.0293 58.3511 15.542C57.8864 15.0433 57.2518 14.794 56.4471 14.794C55.6311 14.794 54.9794 15.049 54.4921 15.559C54.0161 16.069 53.7781 16.8113 53.7781 17.786V22.937H52.2311V13.621H53.7781V14.947C54.0841 14.471 54.4978 14.1027 55.0191 13.842C55.5518 13.5813 56.1354 13.451 56.7701 13.451Z" fill="#212935"/>
<path d="M71.3671 13.621V22.937H69.8201V21.56C69.5255 22.036 69.1118 22.41 68.5791 22.682C68.0578 22.9427 67.4798 23.073 66.8451 23.073C66.1198 23.073 65.4681 22.9257 64.8901 22.631C64.3121 22.325 63.8531 21.8717 63.5131 21.271C63.1845 20.6703 63.0201 19.9393 63.0201 19.078V13.621H64.5501V18.874C64.5501 19.792 64.7825 20.5003 65.2471 20.999C65.7118 21.4863 66.3465 21.73 67.1511 21.73C67.9785 21.73 68.6301 21.475 69.1061 20.965C69.5821 20.455 69.8201 19.7127 69.8201 18.738V13.621H71.3671Z" fill="#212935"/>
<path d="M75.8661 14.896V20.387C75.8661 20.8403 75.9625 21.1633 76.1552 21.356C76.3478 21.5373 76.6822 21.628 77.1581 21.628H78.2971V22.937H76.9032C76.0418 22.937 75.3958 22.7387 74.9651 22.342C74.5345 21.9453 74.3192 21.2937 74.3192 20.387V14.896H73.1121V13.621H74.3192V11.275H75.8661V13.621H78.2971V14.896H75.8661Z" fill="#212935"/>
<path d="M88.6715 17.922C88.6715 18.2167 88.6545 18.5283 88.6205 18.857H81.1745C81.2312 19.775 81.5429 20.4947 82.1095 21.016C82.6875 21.526 83.3845 21.781 84.2005 21.781C84.8692 21.781 85.4245 21.628 85.8665 21.322C86.3199 21.0047 86.6372 20.5853 86.8185 20.064H88.4845C88.2352 20.9593 87.7365 21.6903 86.9885 22.257C86.2405 22.8123 85.3112 23.09 84.2005 23.09C83.3165 23.09 82.5232 22.8917 81.8205 22.495C81.1292 22.0983 80.5852 21.5373 80.1885 20.812C79.7919 20.0753 79.5935 19.2253 79.5935 18.262C79.5935 17.2987 79.7862 16.4543 80.1715 15.729C80.5569 15.0037 81.0952 14.4483 81.7865 14.063C82.4892 13.6663 83.2939 13.468 84.2005 13.468C85.0845 13.468 85.8665 13.6607 86.5465 14.046C87.2265 14.4313 87.7479 14.964 88.1105 15.644C88.4845 16.3127 88.6715 17.072 88.6715 17.922ZM87.0735 17.599C87.0735 17.0097 86.9432 16.5053 86.6825 16.086C86.4219 15.6553 86.0649 15.3323 85.6115 15.117C85.1695 14.8903 84.6765 14.777 84.1325 14.777C83.3505 14.777 82.6819 15.0263 82.1265 15.525C81.5825 16.0237 81.2709 16.715 81.1915 17.599H87.0735Z" fill="#212935"/>
<path d="M94.0115 23.09C93.2975 23.09 92.6572 22.971 92.0905 22.733C91.5239 22.4837 91.0762 22.1437 90.7475 21.713C90.4189 21.271 90.2375 20.7667 90.2035 20.2H91.8015C91.8469 20.6647 92.0622 21.0443 92.4475 21.339C92.8442 21.6337 93.3599 21.781 93.9945 21.781C94.5839 21.781 95.0485 21.6507 95.3885 21.39C95.7285 21.1293 95.8985 20.8007 95.8985 20.404C95.8985 19.996 95.7172 19.6957 95.3545 19.503C94.9919 19.299 94.4309 19.1007 93.6715 18.908C92.9802 18.7267 92.4135 18.5453 91.9715 18.364C91.5409 18.1713 91.1669 17.8937 90.8495 17.531C90.5435 17.157 90.3905 16.6697 90.3905 16.069C90.3905 15.593 90.5322 15.1567 90.8155 14.76C91.0989 14.3633 91.5012 14.0517 92.0225 13.825C92.5439 13.587 93.1389 13.468 93.8075 13.468C94.8389 13.468 95.6719 13.7287 96.3065 14.25C96.9412 14.7713 97.2812 15.4853 97.3265 16.392H95.7795C95.7455 15.9047 95.5472 15.5137 95.1845 15.219C94.8332 14.9243 94.3572 14.777 93.7565 14.777C93.2012 14.777 92.7592 14.896 92.4305 15.134C92.1019 15.372 91.9375 15.6837 91.9375 16.069C91.9375 16.375 92.0339 16.63 92.2265 16.834C92.4305 17.0267 92.6799 17.1853 92.9745 17.31C93.2805 17.4233 93.6999 17.5537 94.2325 17.701C94.9012 17.8823 95.4452 18.0637 95.8645 18.245C96.2839 18.415 96.6409 18.6757 96.9355 19.027C97.2415 19.3783 97.4002 19.8373 97.4115 20.404C97.4115 20.914 97.2699 21.373 96.9865 21.781C96.7032 22.189 96.3009 22.512 95.7795 22.75C95.2695 22.9767 94.6802 23.09 94.0115 23.09Z" fill="#212935"/>
<path d="M103.55 18.245C103.55 17.293 103.742 16.46 104.128 15.746C104.513 15.0207 105.04 14.4597 105.709 14.063C106.389 13.6663 107.142 13.468 107.97 13.468C108.786 13.468 109.494 13.6437 110.095 13.995C110.695 14.3463 111.143 14.7883 111.438 15.321V13.621H113.002V22.937H111.438V21.203C111.132 21.747 110.673 22.2003 110.061 22.563C109.46 22.9143 108.757 23.09 107.953 23.09C107.125 23.09 106.377 22.886 105.709 22.478C105.04 22.07 104.513 21.4977 104.128 20.761C103.742 20.0243 103.55 19.1857 103.55 18.245ZM111.438 18.262C111.438 17.5593 111.296 16.9473 111.013 16.426C110.729 15.9047 110.344 15.508 109.857 15.236C109.381 14.9527 108.854 14.811 108.276 14.811C107.698 14.811 107.171 14.947 106.695 15.219C106.219 15.491 105.839 15.8877 105.556 16.409C105.272 16.9303 105.131 17.5423 105.131 18.245C105.131 18.959 105.272 19.5823 105.556 20.115C105.839 20.6363 106.219 21.0387 106.695 21.322C107.171 21.594 107.698 21.73 108.276 21.73C108.854 21.73 109.381 21.594 109.857 21.322C110.344 21.0387 110.729 20.6363 111.013 20.115C111.296 19.5823 111.438 18.9647 111.438 18.262Z" fill="#212935"/>
<path d="M119.458 13.468C120.263 13.468 120.965 13.6437 121.566 13.995C122.178 14.3463 122.631 14.7883 122.926 15.321V13.621H124.49V23.141C124.49 23.991 124.309 24.7447 123.946 25.402C123.583 26.0707 123.062 26.592 122.382 26.966C121.713 27.34 120.931 27.527 120.036 27.527C118.812 27.527 117.792 27.238 116.976 26.66C116.16 26.082 115.678 25.2943 115.531 24.297H117.061C117.231 24.8637 117.582 25.317 118.115 25.657C118.648 26.0083 119.288 26.184 120.036 26.184C120.886 26.184 121.577 25.9177 122.11 25.385C122.654 24.8523 122.926 24.1043 122.926 23.141V21.186C122.62 21.73 122.167 22.1833 121.566 22.546C120.965 22.9087 120.263 23.09 119.458 23.09C118.631 23.09 117.877 22.886 117.197 22.478C116.528 22.07 116.001 21.4977 115.616 20.761C115.231 20.0243 115.038 19.1857 115.038 18.245C115.038 17.293 115.231 16.46 115.616 15.746C116.001 15.0207 116.528 14.4597 117.197 14.063C117.877 13.6663 118.631 13.468 119.458 13.468ZM122.926 18.262C122.926 17.5593 122.784 16.9473 122.501 16.426C122.218 15.9047 121.832 15.508 121.345 15.236C120.869 14.9527 120.342 14.811 119.764 14.811C119.186 14.811 118.659 14.947 118.183 15.219C117.707 15.491 117.327 15.8877 117.044 16.409C116.761 16.9303 116.619 17.5423 116.619 18.245C116.619 18.959 116.761 19.5823 117.044 20.115C117.327 20.6363 117.707 21.0387 118.183 21.322C118.659 21.594 119.186 21.73 119.764 21.73C120.342 21.73 120.869 21.594 121.345 21.322C121.832 21.0387 122.218 20.6363 122.501 20.115C122.784 19.5823 122.926 18.9647 122.926 18.262Z" fill="#212935"/>
<path d="M131.167 23.09C130.294 23.09 129.501 22.8917 128.787 22.495C128.084 22.0983 127.529 21.5373 127.121 20.812C126.724 20.0753 126.526 19.2253 126.526 18.262C126.526 17.31 126.73 16.4713 127.138 15.746C127.557 15.0093 128.124 14.4483 128.838 14.063C129.552 13.6663 130.351 13.468 131.235 13.468C132.119 13.468 132.918 13.6663 133.632 14.063C134.346 14.4483 134.907 15.0037 135.315 15.729C135.734 16.4543 135.944 17.2987 135.944 18.262C135.944 19.2253 135.729 20.0753 135.298 20.812C134.879 21.5373 134.306 22.0983 133.581 22.495C132.856 22.8917 132.051 23.09 131.167 23.09ZM131.167 21.73C131.722 21.73 132.244 21.5997 132.731 21.339C133.218 21.0783 133.609 20.6873 133.904 20.166C134.21 19.6447 134.363 19.01 134.363 18.262C134.363 17.514 134.216 16.8793 133.921 16.358C133.626 15.8367 133.241 15.4513 132.765 15.202C132.289 14.9413 131.773 14.811 131.218 14.811C130.651 14.811 130.13 14.9413 129.654 15.202C129.189 15.4513 128.815 15.8367 128.532 16.358C128.249 16.8793 128.107 17.514 128.107 18.262C128.107 19.0213 128.243 19.6617 128.515 20.183C128.798 20.7043 129.172 21.0953 129.637 21.356C130.102 21.6053 130.612 21.73 131.167 21.73Z" fill="#212935"/>
<path d="M10 34.977V33.815H12.632V43.937H11.344V34.977H10Z" fill="#212935"/>
<path d="M14.6664 42.915C15.8517 41.963 16.7804 41.1837 17.4524 40.577C18.1244 39.961 18.689 39.3217 19.1464 38.659C19.613 37.987 19.8464 37.329 19.8464 36.685C19.8464 36.0783 19.697 35.6023 19.3984 35.257C19.109 34.9023 18.6377 34.725 17.9844 34.725C17.3497 34.725 16.855 34.9257 16.5004 35.327C16.155 35.719 15.9684 36.2463 15.9404 36.909H14.7084C14.7457 35.8637 15.063 35.0563 15.6604 34.487C16.2577 33.9177 17.0277 33.633 17.9704 33.633C18.9317 33.633 19.6924 33.899 20.2524 34.431C20.8217 34.963 21.1064 35.6957 21.1064 36.629C21.1064 37.4037 20.873 38.1597 20.4064 38.897C19.949 39.625 19.4264 40.269 18.8384 40.829C18.2504 41.3797 17.499 42.0237 16.5844 42.761H21.4004V43.825H14.6664V42.915Z" fill="#212935"/>
<path d="M23.4891 44.021C23.2464 44.021 23.0411 43.937 22.8731 43.769C22.7051 43.601 22.6211 43.3957 22.6211 43.153C22.6211 42.9103 22.7051 42.705 22.8731 42.537C23.0411 42.369 23.2464 42.285 23.4891 42.285C23.7224 42.285 23.9184 42.369 24.0771 42.537C24.2451 42.705 24.3291 42.9103 24.3291 43.153C24.3291 43.3957 24.2451 43.601 24.0771 43.769C23.9184 43.937 23.7224 44.021 23.4891 44.021ZM23.4891 38.029C23.2464 38.029 23.0411 37.945 22.8731 37.777C22.7051 37.609 22.6211 37.4037 22.6211 37.161C22.6211 36.9183 22.7051 36.713 22.8731 36.545C23.0411 36.377 23.2464 36.293 23.4891 36.293C23.7224 36.293 23.9184 36.377 24.0771 36.545C24.2451 36.713 24.3291 36.9183 24.3291 37.161C24.3291 37.4037 24.2451 37.609 24.0771 37.777C23.9184 37.945 23.7224 38.029 23.4891 38.029Z" fill="#212935"/>
<path d="M25.5456 41.683V40.717L30.4596 33.913H31.9856V40.577H33.3856V41.683H31.9856V43.937H30.7256V41.683H25.5456ZM30.7816 35.243L27.0156 40.577H30.7816V35.243Z" fill="#212935"/>
<path d="M41.1123 34.921H36.1983V38.113C36.4129 37.8143 36.7303 37.5717 37.1503 37.385C37.5703 37.189 38.0229 37.091 38.5083 37.091C39.2829 37.091 39.9129 37.2543 40.3983 37.581C40.8836 37.8983 41.2289 38.3137 41.4343 38.827C41.6489 39.331 41.7563 39.8677 41.7563 40.437C41.7563 41.109 41.6303 41.711 41.3783 42.243C41.1263 42.775 40.7389 43.195 40.2163 43.503C39.7029 43.811 39.0636 43.965 38.2983 43.965C37.3183 43.965 36.5249 43.713 35.9183 43.209C35.3116 42.705 34.9429 42.033 34.8123 41.193H36.0583C36.1796 41.725 36.4363 42.1403 36.8283 42.439C37.2203 42.7377 37.7149 42.887 38.3123 42.887C39.0496 42.887 39.6049 42.6677 39.9783 42.229C40.3516 41.781 40.5383 41.193 40.5383 40.465C40.5383 39.737 40.3516 39.177 39.9783 38.785C39.6049 38.3837 39.0543 38.183 38.3263 38.183C37.8316 38.183 37.3976 38.3043 37.0243 38.547C36.6603 38.7803 36.3943 39.1023 36.2263 39.513H35.0223V33.801H41.1123V34.921Z" fill="#212935"/>
<path d="M48.9877 45.421H47.7137V32.807H48.9877V45.421Z" fill="#212935"/>
<path d="M54.6523 34.977V33.815H57.2843V43.937H55.9963V34.977H54.6523Z" fill="#212935"/>
<path d="M65.7027 34.809L61.8107 43.937H60.5227L64.4707 34.935H59.0667V33.843H65.7027V34.809Z" fill="#212935"/>
<path d="M71.7437 35.019C71.501 35.019 71.2957 34.935 71.1277 34.767C70.969 34.599 70.8897 34.3937 70.8897 34.151C70.8897 33.9083 70.969 33.703 71.1277 33.535C71.2957 33.367 71.501 33.283 71.7437 33.283C71.9864 33.283 72.187 33.367 72.3457 33.535C72.5137 33.703 72.5977 33.9083 72.5977 34.151C72.5977 34.3937 72.5137 34.599 72.3457 34.767C72.187 34.935 71.9864 35.019 71.7437 35.019ZM72.3737 45.603C72.3737 46.2843 72.201 46.7837 71.8557 47.101C71.5104 47.4183 71.0064 47.577 70.3437 47.577H69.6017V46.499H70.1337C70.4884 46.499 70.7357 46.429 70.8757 46.289C71.0251 46.149 71.0997 45.911 71.0997 45.575V36.265H72.3737V45.603Z" fill="#212935"/>
<path d="M81.3344 36.265V43.937H80.0604V42.803C79.8177 43.195 79.477 43.503 79.0384 43.727C78.609 43.9417 78.133 44.049 77.6104 44.049C77.013 44.049 76.4764 43.9277 76.0004 43.685C75.5244 43.433 75.1464 43.0597 74.8664 42.565C74.5957 42.0703 74.4604 41.4683 74.4604 40.759V36.265H75.7204V40.591C75.7204 41.347 75.9117 41.9303 76.2944 42.341C76.677 42.7423 77.1997 42.943 77.8624 42.943C78.5437 42.943 79.0804 42.733 79.4724 42.313C79.8644 41.893 80.0604 41.2817 80.0604 40.479V36.265H81.3344Z" fill="#212935"/>
<path d="M87.2235 36.125C88.1568 36.125 88.9128 36.4097 89.4915 36.979C90.0701 37.539 90.3595 38.351 90.3595 39.415V43.937H89.0995V39.597C89.0995 38.8317 88.9081 38.2483 88.5255 37.847C88.1428 37.4363 87.6201 37.231 86.9575 37.231C86.2855 37.231 85.7488 37.441 85.3475 37.861C84.9555 38.281 84.7595 38.8923 84.7595 39.695V43.937H83.4855V36.265H84.7595V37.357C85.0115 36.965 85.3521 36.6617 85.7815 36.447C86.2201 36.2323 86.7008 36.125 87.2235 36.125Z" fill="#212935"/>
<path d="M95.809 42.915C96.9943 41.963 97.923 41.1837 98.595 40.577C99.267 39.961 99.8316 39.3217 100.289 38.659C100.756 37.987 100.989 37.329 100.989 36.685C100.989 36.0783 100.84 35.6023 100.541 35.257C100.252 34.9023 99.7803 34.725 99.127 34.725C98.4923 34.725 97.9976 34.9257 97.643 35.327C97.2976 35.719 97.111 36.2463 97.083 36.909H95.851C95.8883 35.8637 96.2056 35.0563 96.803 34.487C97.4003 33.9177 98.1703 33.633 99.113 33.633C100.074 33.633 100.835 33.899 101.395 34.431C101.964 34.963 102.249 35.6957 102.249 36.629C102.249 37.4037 102.016 38.1597 101.549 38.897C101.092 39.625 100.569 40.269 99.981 40.829C99.393 41.3797 98.6416 42.0237 97.727 42.761H102.543V43.825H95.809V42.915Z" fill="#212935"/>
<path d="M103.68 34.977V33.815H106.312V43.937H105.024V34.977H103.68Z" fill="#212935"/>
</svg>
