<svg width="149" height="26" viewBox="0 0 149 26" fill="none" xmlns="http://www.w3.org/2000/svg">
<path d="M0 3H20V23H0V3Z" fill="#13115B"/>
<path d="M33.8595 7.1505V18.9995H32.3125V7.1505H33.8595Z" fill="#212935"/>
<path d="M41.0351 9.5135C42.1684 9.5135 43.0864 9.85917 43.7891 10.5505C44.4918 11.2305 44.8431 12.2165 44.8431 13.5085V18.9995H43.3131V13.7295C43.3131 12.8002 43.0808 12.0918 42.6161 11.6045C42.1514 11.1058 41.5168 10.8565 40.7121 10.8565C39.8961 10.8565 39.2444 11.1115 38.7571 11.6215C38.2811 12.1315 38.0431 12.8738 38.0431 13.8485V18.9995H36.4961V9.6835H38.0431V11.0095C38.3491 10.5335 38.7628 10.1652 39.2841 9.9045C39.8168 9.64383 40.4004 9.5135 41.0351 9.5135Z" fill="#212935"/>
<path d="M58.9063 16.3645H53.7383L52.7863 18.9995H51.1543L55.4383 7.2185H57.2233L61.4903 18.9995H59.8583L58.9063 16.3645ZM58.4643 15.1065L56.3223 9.1225L54.1803 15.1065H58.4643Z" fill="#212935"/>
<path d="M67.8964 9.5135C69.0298 9.5135 69.9478 9.85917 70.6504 10.5505C71.3531 11.2305 71.7044 12.2165 71.7044 13.5085V18.9995H70.1744V13.7295C70.1744 12.8002 69.9421 12.0918 69.4774 11.6045C69.0128 11.1058 68.3781 10.8565 67.5734 10.8565C66.7574 10.8565 66.1058 11.1115 65.6184 11.6215C65.1424 12.1315 64.9044 12.8738 64.9044 13.8485V18.9995H63.3574V9.6835H64.9044V11.0095C65.2104 10.5335 65.6241 10.1652 66.1454 9.9045C66.6781 9.64383 67.2618 9.5135 67.8964 9.5135Z" fill="#212935"/>
<path d="M73.6534 14.3075C73.6534 13.3555 73.8461 12.5225 74.2314 11.8085C74.6168 11.0832 75.1438 10.5222 75.8124 10.1255C76.4924 9.72883 77.2461 9.5305 78.0734 9.5305C78.8894 9.5305 79.5978 9.70617 80.1984 10.0575C80.7991 10.4088 81.2468 10.8508 81.5414 11.3835V9.6835H83.1054V18.9995H81.5414V17.2655C81.2354 17.8095 80.7764 18.2628 80.1644 18.6255C79.5638 18.9768 78.8611 19.1525 78.0564 19.1525C77.2291 19.1525 76.4811 18.9485 75.8124 18.5405C75.1438 18.1325 74.6168 17.5602 74.2314 16.8235C73.8461 16.0868 73.6534 15.2482 73.6534 14.3075ZM81.5414 14.3245C81.5414 13.6218 81.3998 13.0098 81.1164 12.4885C80.8331 11.9672 80.4478 11.5705 79.9604 11.2985C79.4844 11.0152 78.9574 10.8735 78.3794 10.8735C77.8014 10.8735 77.2744 11.0095 76.7984 11.2815C76.3224 11.5535 75.9428 11.9502 75.6594 12.4715C75.3761 12.9928 75.2344 13.6048 75.2344 14.3075C75.2344 15.0215 75.3761 15.6448 75.6594 16.1775C75.9428 16.6988 76.3224 17.1012 76.7984 17.3845C77.2744 17.6565 77.8014 17.7925 78.3794 17.7925C78.9574 17.7925 79.4844 17.6565 79.9604 17.3845C80.4478 17.1012 80.8331 16.6988 81.1164 16.1775C81.3998 15.6448 81.5414 15.0272 81.5414 14.3245Z" fill="#212935"/>
<path d="M87.2667 6.4195V18.9995H85.7197V6.4195H87.2667Z" fill="#212935"/>
<path d="M97.9273 9.6835L92.3173 23.3855H90.7193L92.5553 18.8975L88.7983 9.6835H90.5153L93.4393 17.2315L96.3293 9.6835H97.9273Z" fill="#212935"/>
<path d="M102.78 19.1525C102.066 19.1525 101.426 19.0335 100.859 18.7955C100.293 18.5462 99.8451 18.2062 99.5164 17.7755C99.1878 17.3335 99.0064 16.8292 98.9724 16.2625H100.57C100.616 16.7272 100.831 17.1068 101.216 17.4015C101.613 17.6962 102.129 17.8435 102.763 17.8435C103.353 17.8435 103.817 17.7132 104.157 17.4525C104.497 17.1918 104.667 16.8632 104.667 16.4665C104.667 16.0585 104.486 15.7582 104.123 15.5655C103.761 15.3615 103.2 15.1632 102.44 14.9705C101.749 14.7892 101.182 14.6078 100.74 14.4265C100.31 14.2338 99.9358 13.9562 99.6184 13.5935C99.3124 13.2195 99.1594 12.7322 99.1594 12.1315C99.1594 11.6555 99.3011 11.2192 99.5844 10.8225C99.8678 10.4258 100.27 10.1142 100.791 9.8875C101.313 9.6495 101.908 9.5305 102.576 9.5305C103.608 9.5305 104.441 9.79117 105.075 10.3125C105.71 10.8338 106.05 11.5478 106.095 12.4545H104.548C104.514 11.9672 104.316 11.5762 103.953 11.2815C103.602 10.9868 103.126 10.8395 102.525 10.8395C101.97 10.8395 101.528 10.9585 101.199 11.1965C100.871 11.4345 100.706 11.7462 100.706 12.1315C100.706 12.4375 100.803 12.6925 100.995 12.8965C101.199 13.0892 101.449 13.2478 101.743 13.3725C102.049 13.4858 102.469 13.6162 103.001 13.7635C103.67 13.9448 104.214 14.1262 104.633 14.3075C105.053 14.4775 105.41 14.7382 105.704 15.0895C106.01 15.4408 106.169 15.8998 106.18 16.4665C106.18 16.9765 106.039 17.4355 105.755 17.8435C105.472 18.2515 105.07 18.5745 104.548 18.8125C104.038 19.0392 103.449 19.1525 102.78 19.1525Z" fill="#212935"/>
<path d="M109.163 8.1705C108.869 8.1705 108.619 8.0685 108.415 7.8645C108.211 7.6605 108.109 7.41117 108.109 7.1165C108.109 6.82183 108.211 6.5725 108.415 6.3685C108.619 6.1645 108.869 6.0625 109.163 6.0625C109.447 6.0625 109.685 6.1645 109.877 6.3685C110.081 6.5725 110.183 6.82183 110.183 7.1165C110.183 7.41117 110.081 7.6605 109.877 7.8645C109.685 8.0685 109.447 8.1705 109.163 8.1705ZM109.911 9.6835V18.9995H108.364V9.6835H109.911Z" fill="#212935"/>
<path d="M115.846 19.1525C115.132 19.1525 114.492 19.0335 113.925 18.7955C113.358 18.5462 112.911 18.2062 112.582 17.7755C112.253 17.3335 112.072 16.8292 112.038 16.2625H113.636C113.681 16.7272 113.897 17.1068 114.282 17.4015C114.679 17.6962 115.194 17.8435 115.829 17.8435C116.418 17.8435 116.883 17.7132 117.223 17.4525C117.563 17.1918 117.733 16.8632 117.733 16.4665C117.733 16.0585 117.552 15.7582 117.189 15.5655C116.826 15.3615 116.265 15.1632 115.506 14.9705C114.815 14.7892 114.248 14.6078 113.806 14.4265C113.375 14.2338 113.001 13.9562 112.684 13.5935C112.378 13.2195 112.225 12.7322 112.225 12.1315C112.225 11.6555 112.367 11.2192 112.65 10.8225C112.933 10.4258 113.336 10.1142 113.857 9.8875C114.378 9.6495 114.973 9.5305 115.642 9.5305C116.673 9.5305 117.506 9.79117 118.141 10.3125C118.776 10.8338 119.116 11.5478 119.161 12.4545H117.614C117.58 11.9672 117.382 11.5762 117.019 11.2815C116.668 10.9868 116.192 10.8395 115.591 10.8395C115.036 10.8395 114.594 10.9585 114.265 11.1965C113.936 11.4345 113.772 11.7462 113.772 12.1315C113.772 12.4375 113.868 12.6925 114.061 12.8965C114.265 13.0892 114.514 13.2478 114.809 13.3725C115.115 13.4858 115.534 13.6162 116.067 13.7635C116.736 13.9448 117.28 14.1262 117.699 14.3075C118.118 14.4775 118.475 14.7382 118.77 15.0895C119.076 15.4408 119.235 15.8998 119.246 16.4665C119.246 16.9765 119.104 17.4355 118.821 17.8435C118.538 18.2515 118.135 18.5745 117.614 18.8125C117.104 19.0392 116.515 19.1525 115.846 19.1525Z" fill="#212935"/>
<path d="M125.299 8.1195V6.7085H128.495V18.9995H126.931V8.1195H125.299Z" fill="#212935"/>
<path d="M133.141 15.7015C133.255 16.3475 133.515 16.8462 133.923 17.1975C134.343 17.5488 134.904 17.7245 135.606 17.7245C136.547 17.7245 137.238 17.3562 137.68 16.6195C138.134 15.8828 138.349 14.6418 138.326 12.8965C138.088 13.4065 137.692 13.8088 137.136 14.1035C136.581 14.3868 135.963 14.5285 135.283 14.5285C134.524 14.5285 133.844 14.3755 133.243 14.0695C132.654 13.7522 132.189 13.2932 131.849 12.6925C131.509 12.0918 131.339 11.3665 131.339 10.5165C131.339 9.30383 131.691 8.32917 132.393 7.5925C133.096 6.8445 134.093 6.4705 135.385 6.4705C136.972 6.4705 138.083 6.98617 138.717 8.0175C139.363 9.04883 139.686 10.5845 139.686 12.6245C139.686 14.0525 139.556 15.2312 139.295 16.1605C139.046 17.0898 138.615 17.7982 138.003 18.2855C137.403 18.7728 136.575 19.0165 135.521 19.0165C134.365 19.0165 133.464 18.7048 132.818 18.0815C132.172 17.4582 131.804 16.6648 131.713 15.7015H133.141ZM135.538 13.2195C136.298 13.2195 136.921 12.9872 137.408 12.5225C137.896 12.0465 138.139 11.4062 138.139 10.6015C138.139 9.7515 137.901 9.06583 137.425 8.5445C136.949 8.02317 136.281 7.7625 135.419 7.7625C134.626 7.7625 133.991 8.01183 133.515 8.5105C133.051 9.00917 132.818 9.6665 132.818 10.4825C132.818 11.3098 133.051 11.9728 133.515 12.4715C133.98 12.9702 134.654 13.2195 135.538 13.2195Z" fill="#212935"/>
</svg>
