<svg width="877" height="201" viewBox="0 0 877 201" fill="none" xmlns="http://www.w3.org/2000/svg">
<path d="M8.29138 25H870.003" stroke="#ADB3C0" stroke-dasharray="2 2"/>
<path d="M8.29138 73H870.003" stroke="#ADB3C0" stroke-dasharray="2 2"/>
<path d="M8.29138 121H870.003" stroke="#ADB3C0" stroke-dasharray="2 2"/>
<path d="M8.29138 169H870.003" stroke="#ADB3C0" stroke-dasharray="2 2"/>
<path d="M0.0939941 193H870.003" stroke="#ADB3C0" stroke-dasharray="2 2"/>
<path d="M0.0939941 145H870.003" stroke="#ADB3C0" stroke-dasharray="2 2"/>
<path d="M0.0939941 97H870.003" stroke="#ADB3C0" stroke-dasharray="2 2"/>
<path d="M0.0939941 49H870.003" stroke="#ADB3C0" stroke-dasharray="2 2"/>
<path d="M0.0939941 1H870.003" stroke="#ADB3C0" stroke-dasharray="2 2"/>
<path d="M8.29102 1L8.29102 201" stroke="#ADB3C0" stroke-dasharray="2 2"/>
<path d="M132.271 1L132.271 201" stroke="#ADB3C0" stroke-dasharray="2 2"/>
<path d="M255.226 1L255.226 201" stroke="#ADB3C0" stroke-dasharray="2 2"/>
<path d="M378.181 1L378.181 201" stroke="#ADB3C0" stroke-dasharray="2 2"/>
<path d="M501.137 1V201" stroke="#ADB3C0" stroke-dasharray="2 2"/>
<path d="M624.092 1V201" stroke="#ADB3C0" stroke-dasharray="2 2"/>
<path d="M747.047 1V201" stroke="#ADB3C0" stroke-dasharray="2 2"/>
<path d="M870.002 1V201" stroke="#ADB3C0" stroke-dasharray="2 2"/>
<path d="M8.93921 146L130.361 31.6826L255.671 104L379.037 122.5L501.903 132.5L624.77 139.5L747.319 145.498H870.003" stroke="url(#paint0_linear_40_10784)" stroke-width="4"/>
<path d="M8.05216 151C11.4241 151 14.1576 148.314 14.1576 145C14.1576 141.686 11.4241 139 8.05216 139C4.68025 139 1.94678 141.686 1.94678 145C1.94678 148.314 4.68025 151 8.05216 151Z" fill="#52DE97" stroke="white"/>
<path d="M131.918 38C135.289 38 138.023 35.3137 138.023 32C138.023 28.6863 135.289 26 131.918 26C128.546 26 125.812 28.6863 125.812 32C125.812 35.3137 128.546 38 131.918 38Z" fill="#52DE97" stroke="white"/>
<path d="M255.783 109C259.155 109 261.888 106.314 261.888 103C261.888 99.6863 259.155 97 255.783 97C252.411 97 249.677 99.6863 249.677 103C249.677 106.314 252.411 109 255.783 109Z" fill="#52DE97" stroke="white"/>
<path d="M378.649 128C382.021 128 384.755 125.314 384.755 122C384.755 118.686 382.021 116 378.649 116C375.277 116 372.544 118.686 372.544 122C372.544 125.314 375.277 128 378.649 128Z" fill="#52DE97" stroke="white"/>
<path d="M501.516 138C504.888 138 507.621 135.314 507.621 132C507.621 128.686 504.888 126 501.516 126C498.144 126 495.41 128.686 495.41 132C495.41 135.314 498.144 138 501.516 138Z" fill="#52DE97" stroke="white"/>
<path d="M624.382 145C627.754 145 630.488 142.314 630.488 139C630.488 135.686 627.754 133 624.382 133C621.01 133 618.277 135.686 618.277 139C618.277 142.314 621.01 145 624.382 145Z" fill="#52DE97" stroke="white"/>
<path d="M747.249 151C750.621 151 753.354 148.314 753.354 145C753.354 141.686 750.621 139 747.249 139C743.877 139 741.143 141.686 741.143 145C741.143 148.314 743.877 151 747.249 151Z" fill="#52DE97" stroke="white"/>
<path d="M870.115 151C873.487 151 876.221 148.314 876.221 145C876.221 141.686 873.487 139 870.115 139C866.743 139 864.01 141.686 864.01 145C864.01 148.314 866.743 151 870.115 151Z" fill="#52DE97" stroke="white"/>
<defs>
<linearGradient id="paint0_linear_40_10784" x1="870.003" y1="88.8412" x2="8.93921" y2="88.8411" gradientUnits="userSpaceOnUse">
<stop stop-color="#00818A"/>
<stop offset="1" stop-color="#52DE97"/>
</linearGradient>
</defs>
</svg>
