<svg width="288" height="17" viewBox="0 0 288 17" fill="none" xmlns="http://www.w3.org/2000/svg">
<path d="M0.609375 2.80042V0.607422H4.70638V13.0004H2.25837V2.80042H0.609375Z" fill="#394253"/>
<path d="M17.1726 1.13442V13.0004H14.7926V7.95142H9.70955V13.0004H7.32956V1.13442H9.70955V6.01342H14.7926V1.13442H17.1726Z" fill="#394253"/>
<path d="M31.1064 2.80042V0.607422H35.2034V13.0004H32.7554V2.80042H31.1064Z" fill="#394253"/>
<path d="M41.9746 1.13442C43.2213 1.13442 44.315 1.37809 45.2556 1.86542C46.2076 2.35275 46.9386 3.04976 47.4486 3.95642C47.97 4.85176 48.2306 5.89442 48.2306 7.08442C48.2306 8.27442 47.97 9.31709 47.4486 10.2124C46.9386 11.0964 46.2076 11.7821 45.2556 12.2694C44.315 12.7568 43.2213 13.0004 41.9746 13.0004H37.8266V1.13442H41.9746ZM41.8896 10.9774C43.1363 10.9774 44.0996 10.6374 44.7796 9.95742C45.4596 9.27742 45.7996 8.31976 45.7996 7.08442C45.7996 5.84909 45.4596 4.88576 44.7796 4.19442C44.0996 3.49176 43.1363 3.14042 41.8896 3.14042H40.2066V10.9774H41.8896Z" fill="#394253"/>
<path d="M61.6035 2.80042V0.607422H65.7005V13.0004H63.2525V2.80042H61.6035Z" fill="#394253"/>
<path d="M84.1847 1.13442L80.8697 13.0004H78.0647L75.8377 4.55142L73.5087 13.0004L70.7207 13.0174L67.5247 1.13442H70.0747L72.1657 10.3484L74.5797 1.13442H77.2317L79.5097 10.2974L81.6177 1.13442H84.1847Z" fill="#394253"/>
<path d="M97.3301 2.80042V0.607422H101.427V13.0004H98.9791V2.80042H97.3301Z" fill="#394253"/>
<path d="M116.987 1.13442V13.0004H114.607V5.28242L111.428 13.0004H109.626L106.43 5.28242V13.0004H104.05V1.13442H106.753L110.527 9.95742L114.301 1.13442H116.987Z" fill="#394253"/>
<path d="M130.932 2.80042V0.607422H135.029V13.0004H132.581V2.80042H130.932Z" fill="#394253"/>
<path d="M147.087 1.13442L143.075 8.86942V13.0004H140.695V8.86942L136.666 1.13442H139.352L141.902 6.55742L144.435 1.13442H147.087Z" fill="#394253"/>
<path d="M182.619 6.37842C182.871 6.00509 183.216 5.70176 183.655 5.46842C184.103 5.23509 184.611 5.11842 185.181 5.11842C185.843 5.11842 186.441 5.28176 186.973 5.60842C187.514 5.93509 187.939 6.40176 188.247 7.00842C188.564 7.60576 188.723 8.30109 188.723 9.09442C188.723 9.88776 188.564 10.5924 188.247 11.2084C187.939 11.8151 187.514 12.2864 186.973 12.6224C186.441 12.9584 185.843 13.1264 185.181 13.1264C184.602 13.1264 184.093 13.0144 183.655 12.7904C183.225 12.5571 182.88 12.2584 182.619 11.8944V13.0004H180.659V2.64042H182.619V6.37842ZM186.721 9.09442C186.721 8.62776 186.623 8.22642 186.427 7.89042C186.24 7.54509 185.988 7.28376 185.671 7.10642C185.363 6.92909 185.027 6.84042 184.663 6.84042C184.308 6.84042 183.972 6.93376 183.655 7.12042C183.347 7.29776 183.095 7.55909 182.899 7.90442C182.712 8.24975 182.619 8.65576 182.619 9.12242C182.619 9.58909 182.712 9.99509 182.899 10.3404C183.095 10.6858 183.347 10.9518 183.655 11.1384C183.972 11.3158 184.308 11.4044 184.663 11.4044C185.027 11.4044 185.363 11.3111 185.671 11.1244C185.988 10.9378 186.24 10.6718 186.427 10.3264C186.623 9.98109 186.721 9.57042 186.721 9.09442Z" fill="#394253"/>
<path d="M197.567 5.24442L192.765 16.6684H190.679L192.359 12.8044L189.251 5.24442H191.449L193.451 10.6624L195.481 5.24442H197.567Z" fill="#394253"/>
<path d="M201.455 9.09442C201.455 8.31042 201.609 7.61509 201.917 7.00842C202.235 6.40176 202.664 5.93509 203.205 5.60842C203.747 5.28176 204.349 5.11842 205.011 5.11842C205.515 5.11842 205.996 5.23042 206.453 5.45442C206.911 5.66909 207.275 5.95842 207.545 6.32242V2.64042H209.533V13.0004H207.545V11.8524C207.303 12.2351 206.962 12.5431 206.523 12.7764C206.085 13.0098 205.576 13.1264 204.997 13.1264C204.344 13.1264 203.747 12.9584 203.205 12.6224C202.664 12.2864 202.235 11.8151 201.917 11.2084C201.609 10.5924 201.455 9.88776 201.455 9.09442ZM207.559 9.12242C207.559 8.64642 207.466 8.24042 207.279 7.90442C207.093 7.55909 206.841 7.29776 206.523 7.12042C206.206 6.93376 205.865 6.84042 205.501 6.84042C205.137 6.84042 204.801 6.92909 204.493 7.10642C204.185 7.28376 203.933 7.54509 203.737 7.89042C203.551 8.22642 203.457 8.62776 203.457 9.09442C203.457 9.56109 203.551 9.97176 203.737 10.3264C203.933 10.6718 204.185 10.9378 204.493 11.1244C204.811 11.3111 205.147 11.4044 205.501 11.4044C205.865 11.4044 206.206 11.3158 206.523 11.1384C206.841 10.9518 207.093 10.6904 207.279 10.3544C207.466 10.0091 207.559 9.59842 207.559 9.12242Z" fill="#394253"/>
<path d="M218.658 8.95442C218.658 9.23442 218.639 9.48642 218.602 9.71042H212.932C212.978 10.2704 213.174 10.7091 213.52 11.0264C213.865 11.3438 214.29 11.5024 214.794 11.5024C215.522 11.5024 216.04 11.1898 216.348 10.5644H218.462C218.238 11.3111 217.808 11.9271 217.174 12.4124C216.539 12.8884 215.76 13.1264 214.836 13.1264C214.089 13.1264 213.417 12.9631 212.82 12.6364C212.232 12.3004 211.77 11.8291 211.434 11.2224C211.107 10.6158 210.944 9.91576 210.944 9.12242C210.944 8.31976 211.107 7.61509 211.434 7.00842C211.76 6.40176 212.218 5.93509 212.806 5.60842C213.394 5.28176 214.07 5.11842 214.836 5.11842C215.573 5.11842 216.231 5.27709 216.81 5.59442C217.398 5.91176 217.85 6.36442 218.168 6.95242C218.494 7.53109 218.658 8.19842 218.658 8.95442ZM216.628 8.39442C216.618 7.89042 216.436 7.48909 216.082 7.19042C215.727 6.88242 215.293 6.72842 214.78 6.72842C214.294 6.72842 213.884 6.87776 213.548 7.17642C213.221 7.46576 213.02 7.87176 212.946 8.39442H216.628Z" fill="#394253"/>
<path d="M222.048 6.36442C222.3 6.00976 222.646 5.71576 223.084 5.48242C223.532 5.23976 224.041 5.11842 224.61 5.11842C225.273 5.11842 225.87 5.28176 226.402 5.60842C226.944 5.93509 227.368 6.40176 227.676 7.00842C227.994 7.60576 228.152 8.30109 228.152 9.09442C228.152 9.88776 227.994 10.5924 227.676 11.2084C227.368 11.8151 226.944 12.2864 226.402 12.6224C225.87 12.9584 225.273 13.1264 224.61 13.1264C224.041 13.1264 223.537 13.0098 223.098 12.7764C222.669 12.5431 222.319 12.2491 222.048 11.8944V16.6964H220.088V5.24442H222.048V6.36442ZM226.15 9.09442C226.15 8.62776 226.052 8.22642 225.856 7.89042C225.67 7.54509 225.418 7.28376 225.1 7.10642C224.792 6.92909 224.456 6.84042 224.092 6.84042C223.738 6.84042 223.402 6.93376 223.084 7.12042C222.776 7.29776 222.524 7.55909 222.328 7.90442C222.142 8.24975 222.048 8.65576 222.048 9.12242C222.048 9.58909 222.142 9.99509 222.328 10.3404C222.524 10.6858 222.776 10.9518 223.084 11.1384C223.402 11.3158 223.738 11.4044 224.092 11.4044C224.456 11.4044 224.792 11.3111 225.1 11.1244C225.418 10.9378 225.67 10.6718 225.856 10.3264C226.052 9.98109 226.15 9.57042 226.15 9.09442Z" fill="#394253"/>
<path d="M231.537 2.64042V13.0004H229.577V2.64042H231.537Z" fill="#394253"/>
<path d="M236.917 13.1264C236.17 13.1264 235.498 12.9631 234.901 12.6364C234.304 12.3004 233.832 11.8291 233.487 11.2224C233.151 10.6158 232.983 9.91576 232.983 9.12242C232.983 8.32909 233.156 7.62909 233.501 7.02242C233.856 6.41576 234.336 5.94909 234.943 5.62242C235.55 5.28642 236.226 5.11842 236.973 5.11842C237.72 5.11842 238.396 5.28642 239.003 5.62242C239.61 5.94909 240.086 6.41576 240.431 7.02242C240.786 7.62909 240.963 8.32909 240.963 9.12242C240.963 9.91576 240.781 10.6158 240.417 11.2224C240.062 11.8291 239.577 12.3004 238.961 12.6364C238.354 12.9631 237.673 13.1264 236.917 13.1264ZM236.917 11.4184C237.272 11.4184 237.603 11.3344 237.911 11.1664C238.228 10.9891 238.48 10.7278 238.667 10.3824C238.854 10.0371 238.947 9.61709 238.947 9.12242C238.947 8.38509 238.751 7.82042 238.359 7.42842C237.976 7.02709 237.505 6.82642 236.945 6.82642C236.385 6.82642 235.914 7.02709 235.531 7.42842C235.158 7.82042 234.971 8.38509 234.971 9.12242C234.971 9.85976 235.153 10.4291 235.517 10.8304C235.89 11.2224 236.357 11.4184 236.917 11.4184Z" fill="#394253"/>
<path d="M249.821 5.24442L245.019 16.6684H242.933L244.613 12.8044L241.505 5.24442H243.703L245.705 10.6624L247.735 5.24442H249.821Z" fill="#394253"/>
<path d="M260.509 5.13242C261.461 5.13242 262.227 5.42642 262.805 6.01442C263.393 6.59309 263.687 7.40509 263.687 8.45042V13.0004H261.727V8.71642C261.727 8.10976 261.573 7.64776 261.265 7.33042C260.957 7.00376 260.537 6.84042 260.005 6.84042C259.473 6.84042 259.049 7.00376 258.731 7.33042C258.423 7.64776 258.269 8.10976 258.269 8.71642V13.0004H256.309V8.71642C256.309 8.10976 256.155 7.64776 255.847 7.33042C255.539 7.00376 255.119 6.84042 254.587 6.84042C254.046 6.84042 253.617 7.00376 253.299 7.33042C252.991 7.64776 252.837 8.10976 252.837 8.71642V13.0004H250.877V5.24442H252.837V6.18242C253.089 5.85576 253.411 5.59909 253.803 5.41242C254.205 5.22575 254.643 5.13242 255.119 5.13242C255.726 5.13242 256.267 5.26309 256.743 5.52442C257.219 5.77642 257.588 6.14042 257.849 6.61642C258.101 6.16842 258.465 5.80909 258.941 5.53842C259.427 5.26776 259.949 5.13242 260.509 5.13242Z" fill="#394253"/>
<path d="M272.757 8.95442C272.757 9.23442 272.739 9.48642 272.701 9.71042H267.031C267.078 10.2704 267.274 10.7091 267.619 11.0264C267.965 11.3438 268.389 11.5024 268.893 11.5024C269.621 11.5024 270.139 11.1898 270.447 10.5644H272.561C272.337 11.3111 271.908 11.9271 271.273 12.4124C270.639 12.8884 269.859 13.1264 268.935 13.1264C268.189 13.1264 267.517 12.9631 266.919 12.6364C266.331 12.3004 265.869 11.8291 265.533 11.2224C265.207 10.6158 265.043 9.91576 265.043 9.12242C265.043 8.31976 265.207 7.61509 265.533 7.00842C265.86 6.40176 266.317 5.93509 266.905 5.60842C267.493 5.28176 268.17 5.11842 268.935 5.11842C269.673 5.11842 270.331 5.27709 270.909 5.59442C271.497 5.91176 271.95 6.36442 272.267 6.95242C272.594 7.53109 272.757 8.19842 272.757 8.95442ZM270.727 8.39442C270.718 7.89042 270.536 7.48909 270.181 7.19042C269.827 6.88242 269.393 6.72842 268.879 6.72842C268.394 6.72842 267.983 6.87776 267.647 7.17642C267.321 7.46576 267.12 7.87176 267.045 8.39442H270.727Z" fill="#394253"/>
<path d="M278.486 5.13242C279.41 5.13242 280.157 5.42642 280.726 6.01442C281.295 6.59309 281.58 7.40509 281.58 8.45042V13.0004H279.62V8.71642C279.62 8.10042 279.466 7.62909 279.158 7.30242C278.85 6.96642 278.43 6.79842 277.898 6.79842C277.357 6.79842 276.927 6.96642 276.61 7.30242C276.302 7.62909 276.148 8.10042 276.148 8.71642V13.0004H274.188V5.24442H276.148V6.21042C276.409 5.87442 276.741 5.61309 277.142 5.42642C277.553 5.23042 278.001 5.13242 278.486 5.13242Z" fill="#394253"/>
<path d="M285.726 6.85442V10.6064C285.726 10.8678 285.786 11.0591 285.908 11.1804C286.039 11.2924 286.253 11.3484 286.552 11.3484H287.462V13.0004H286.23C284.578 13.0004 283.752 12.1978 283.752 10.5924V6.85442H282.828V5.24442H283.752V3.32642H285.726V5.24442H287.462V6.85442H285.726Z" fill="#394253"/>
<path d="M30.4944 14.7004H48.8426V15.5504H30.4944V14.7004Z" fill="#394253"/>
</svg>
