<svg width="1262" height="724" viewBox="0 0 1262 724" fill="none" xmlns="http://www.w3.org/2000/svg">
<path fill-rule="evenodd" clip-rule="evenodd" d="M1262 0.999894L0.761719 1L0.761719 0L1262 -0.000106185L1262 0.999894Z" fill="#E7E7EF"/>
<path fill-rule="evenodd" clip-rule="evenodd" d="M1262 80.9999L0.761719 81L0.761719 80L1262 79.9999L1262 80.9999Z" fill="#E7E7EF"/>
<path fill-rule="evenodd" clip-rule="evenodd" d="M1262 161L0.761719 161L0.761719 160L1262 160L1262 161Z" fill="#E7E7EF"/>
<path fill-rule="evenodd" clip-rule="evenodd" d="M1262 241L0.761719 241L0.761719 240L1262 240L1262 241Z" fill="#E7E7EF"/>
<path fill-rule="evenodd" clip-rule="evenodd" d="M1262 321L0.761719 321L0.761719 320L1262 320L1262 321Z" fill="#E7E7EF"/>
<path fill-rule="evenodd" clip-rule="evenodd" d="M1262 401L0.761719 401L0.761719 400L1262 400L1262 401Z" fill="#E7E7EF"/>
<path fill-rule="evenodd" clip-rule="evenodd" d="M1262 481L0.761719 481L0.761719 480L1262 480L1262 481Z" fill="#E7E7EF"/>
<path fill-rule="evenodd" clip-rule="evenodd" d="M1262 560L0.761719 560L0.761719 559L1262 559L1262 560Z" fill="#E7E7EF"/>
<path fill-rule="evenodd" clip-rule="evenodd" d="M1262 647L0.761719 647L0.761719 646L1262 646L1262 647Z" fill="#E7E7EF"/>
<path fill-rule="evenodd" clip-rule="evenodd" d="M1262 724L0.761719 724L0.761719 723L1262 723L1262 724Z" fill="#E7E7EF"/>
</svg>
