<svg width="21" height="20" viewBox="0 0 21 20" fill="none" xmlns="http://www.w3.org/2000/svg">
<path fill-rule="evenodd" clip-rule="evenodd" d="M2.24246 18.9263V0H2.75754V18.9263L4.63578 16.8809L5 17.2775L2.5 20L0 17.2775L0.364221 16.8809L2.24246 18.9263Z" fill="#394253"/>
<path fill-rule="evenodd" clip-rule="evenodd" d="M7.00004 0L7.71057 1.57511e-06L7.71053 9.42503H10.9067V18.9228L13.4976 16.8708L14 17.2687L10.5514 20L7.10279 17.2687L7.60521 16.8708L10.1961 18.9228V9.98776H7L7.00004 0Z" fill="#FF3C78"/>
<path fill-rule="evenodd" clip-rule="evenodd" d="M15 0L15.6091 1.57511e-06L15.609 9.42503H18.3486V18.9228L20.5694 16.8708L21 17.2687L18.0441 20L15.0881 17.2687L15.5187 16.8708L17.7395 18.9228V9.98776H15L15 0Z" fill="#FF3C78"/>
</svg>
