<svg width="100" height="31" viewBox="0 0 100 31" fill="none" xmlns="http://www.w3.org/2000/svg">
<path d="M33.1329 11.2652V15.2262H37.4509V16.5012H33.1329V20.5812H37.9609V21.8562H31.5859V9.99023H37.9609V11.2652H33.1329Z" fill="#394253"/>
<path d="M41.8488 14.0532C42.1208 13.5206 42.5061 13.1069 43.0048 12.8122C43.5148 12.5176 44.1324 12.3702 44.8578 12.3702V13.9682H44.4498C42.7158 13.9682 41.8488 14.9089 41.8488 16.7902V21.8562H40.3018V12.5402H41.8488V14.0532Z" fill="#394253"/>
<path d="M48.1906 14.0532C48.4626 13.5206 48.8479 13.1069 49.3466 12.8122C49.8566 12.5176 50.4742 12.3702 51.1996 12.3702V13.9682H50.7916C49.0576 13.9682 48.1906 14.9089 48.1906 16.7902V21.8562H46.6436V12.5402H48.1906V14.0532Z" fill="#394253"/>
<path d="M57.0484 22.0092C56.1757 22.0092 55.3824 21.8109 54.6684 21.4142C53.9657 21.0176 53.4104 20.4566 53.0024 19.7312C52.6057 18.9946 52.4074 18.1446 52.4074 17.1812C52.4074 16.2292 52.6114 15.3906 53.0194 14.6652C53.4387 13.9286 54.0054 13.3676 54.7194 12.9822C55.4334 12.5856 56.2324 12.3872 57.1164 12.3872C58.0004 12.3872 58.7994 12.5856 59.5134 12.9822C60.2274 13.3676 60.7884 13.9229 61.1964 14.6482C61.6157 15.3736 61.8254 16.2179 61.8254 17.1812C61.8254 18.1446 61.61 18.9946 61.1794 19.7312C60.76 20.4566 60.1877 21.0176 59.4624 21.4142C58.737 21.8109 57.9324 22.0092 57.0484 22.0092ZM57.0484 20.6492C57.6037 20.6492 58.125 20.5189 58.6124 20.2582C59.0997 19.9976 59.4907 19.6066 59.7854 19.0852C60.0914 18.5639 60.2444 17.9292 60.2444 17.1812C60.2444 16.4332 60.097 15.7986 59.8024 15.2772C59.5077 14.7559 59.1224 14.3706 58.6464 14.1212C58.1704 13.8606 57.6547 13.7302 57.0994 13.7302C56.5327 13.7302 56.0114 13.8606 55.5354 14.1212C55.0707 14.3706 54.6967 14.7559 54.4134 15.2772C54.13 15.7986 53.9884 16.4332 53.9884 17.1812C53.9884 17.9406 54.1244 18.5809 54.3964 19.1022C54.6797 19.6236 55.0537 20.0146 55.5184 20.2752C55.983 20.5246 56.493 20.6492 57.0484 20.6492Z" fill="#394253"/>
<path d="M65.4064 14.0532C65.6784 13.5206 66.0637 13.1069 66.5624 12.8122C67.0724 12.5176 67.69 12.3702 68.4154 12.3702V13.9682H68.0074C66.2734 13.9682 65.4064 14.9089 65.4064 16.7902V21.8562H63.8594V12.5402H65.4064V14.0532Z" fill="#394253"/>
</svg>
