<svg width="106" height="14" viewBox="0 0 106 14" fill="none" xmlns="http://www.w3.org/2000/svg">
<path d="M1.84113 11.6685H6.23313V13.0005H0.203125V0.454547H1.84113V11.6685Z" fill="#13115B"/>
<path d="M9.61066 1.78655V5.98055H14.1827V7.33055H9.61066V11.6505H14.7227V13.0005H7.97266V0.436547H14.7227V1.78655H9.61066Z" fill="#13115B"/>
<path d="M24.6172 10.2105H19.1452L18.1372 13.0005H16.4092L20.9452 0.526547H22.8352L27.3532 13.0005H25.6252L24.6172 10.2105ZM24.1492 8.87855L21.8812 2.54255L19.6132 8.87855H24.1492Z" fill="#13115B"/>
<path d="M35.9361 13.0005L32.9481 7.87055H30.9681V13.0005H29.3301V0.454547H33.3801C34.3281 0.454547 35.1261 0.616547 35.7741 0.940547C36.4341 1.26455 36.9261 1.70255 37.2501 2.25455C37.5741 2.80655 37.7361 3.43655 37.7361 4.14455C37.7361 5.00855 37.4841 5.77055 36.9801 6.43055C36.4881 7.09055 35.7441 7.52855 34.7481 7.74455L37.8981 13.0005H35.9361ZM30.9681 6.55655H33.3801C34.2681 6.55655 34.9341 6.34055 35.3781 5.90855C35.8221 5.46455 36.0441 4.87655 36.0441 4.14455C36.0441 3.40055 35.8221 2.82455 35.3781 2.41655C34.9461 2.00855 34.2801 1.80455 33.3801 1.80455H30.9681V6.55655Z" fill="#13115B"/>
<path d="M50.1452 13.0005H48.5072L41.9193 3.01055V13.0005H40.2812V0.436547H41.9193L48.5072 10.4085V0.436547H50.1452V13.0005Z" fill="#13115B"/>
<path d="M70.4623 0.544547V13.0005H68.8243V3.71255L64.6843 13.0005H63.5323L59.3743 3.69455V13.0005H57.7363V0.544547H59.5003L64.1083 10.8405L68.7163 0.544547H70.4623Z" fill="#13115B"/>
<path d="M78.9282 13.1265C77.7642 13.1265 76.7022 12.8565 75.7422 12.3165C74.7822 11.7645 74.0202 11.0025 73.4562 10.0305C72.9042 9.04655 72.6282 7.94255 72.6282 6.71855C72.6282 5.49455 72.9042 4.39655 73.4562 3.42455C74.0202 2.44055 74.7822 1.67855 75.7422 1.13855C76.7022 0.586547 77.7642 0.310547 78.9282 0.310547C80.1042 0.310547 81.1722 0.586547 82.1322 1.13855C83.0922 1.67855 83.8482 2.43455 84.4002 3.40655C84.9522 4.37855 85.2282 5.48255 85.2282 6.71855C85.2282 7.95455 84.9522 9.05855 84.4002 10.0305C83.8482 11.0025 83.0922 11.7645 82.1322 12.3165C81.1722 12.8565 80.1042 13.1265 78.9282 13.1265ZM78.9282 11.7045C79.8042 11.7045 80.5902 11.5005 81.2862 11.0925C81.9942 10.6845 82.5462 10.1025 82.9422 9.34655C83.3502 8.59055 83.5542 7.71455 83.5542 6.71855C83.5542 5.71055 83.3502 4.83455 82.9422 4.09055C82.5462 3.33455 82.0002 2.75255 81.3042 2.34455C80.6082 1.93655 79.8162 1.73255 78.9282 1.73255C78.0402 1.73255 77.2482 1.93655 76.5522 2.34455C75.8562 2.75255 75.3042 3.33455 74.8962 4.09055C74.5002 4.83455 74.3022 5.71055 74.3022 6.71855C74.3022 7.71455 74.5002 8.59055 74.8962 9.34655C75.3042 10.1025 75.8562 10.6845 76.5522 11.0925C77.2602 11.5005 78.0522 11.7045 78.9282 11.7045Z" fill="#13115B"/>
<path d="M93.9966 13.0005L91.0086 7.87055H89.0286V13.0005H87.3906V0.454547H91.4406C92.3886 0.454547 93.1866 0.616547 93.8346 0.940547C94.4946 1.26455 94.9866 1.70255 95.3106 2.25455C95.6346 2.80655 95.7966 3.43655 95.7966 4.14455C95.7966 5.00855 95.5446 5.77055 95.0406 6.43055C94.5486 7.09055 93.8046 7.52855 92.8086 7.74455L95.9586 13.0005H93.9966ZM89.0286 6.55655H91.4406C92.3286 6.55655 92.9946 6.34055 93.4386 5.90855C93.8826 5.46455 94.1046 4.87655 94.1046 4.14455C94.1046 3.40055 93.8826 2.82455 93.4386 2.41655C93.0066 2.00855 92.3406 1.80455 91.4406 1.80455H89.0286V6.55655Z" fill="#13115B"/>
<path d="M99.9798 1.78655V5.98055H104.552V7.33055H99.9798V11.6505H105.092V13.0005H98.3418V0.436547H105.092V1.78655H99.9798Z" fill="#13115B"/>
</svg>
