<svg width="175" height="18" viewBox="0 0 175 18" fill="none" xmlns="http://www.w3.org/2000/svg">
<path d="M8.23059 4.6185C8.23059 5.6045 7.89059 6.42617 7.21059 7.0835C6.54193 7.7295 5.51626 8.0525 4.13359 8.0525H1.85559V12.9995H0.308594V1.1505H4.13359C5.47093 1.1505 6.48526 1.4735 7.17659 2.1195C7.87926 2.7655 8.23059 3.5985 8.23059 4.6185ZM4.13359 6.7775C4.99493 6.7775 5.62959 6.5905 6.03759 6.2165C6.44559 5.8425 6.64959 5.30983 6.64959 4.6185C6.64959 3.1565 5.81093 2.4255 4.13359 2.4255H1.85559V6.7775H4.13359Z" fill="#394253"/>
<path d="M11.7003 5.1965C11.9723 4.66383 12.3577 4.25017 12.8563 3.9555C13.3663 3.66083 13.984 3.5135 14.7093 3.5135V5.1115H14.3013C12.5673 5.1115 11.7003 6.05217 11.7003 7.9335V12.9995H10.1533V3.6835H11.7003V5.1965Z" fill="#394253"/>
<path d="M24.9951 7.9845C24.9951 8.27917 24.9781 8.59083 24.9441 8.9195H17.4981C17.5548 9.8375 17.8664 10.5572 18.4331 11.0785C19.0111 11.5885 19.7081 11.8435 20.5241 11.8435C21.1928 11.8435 21.7481 11.6905 22.1901 11.3845C22.6434 11.0672 22.9608 10.6478 23.1421 10.1265H24.8081C24.5588 11.0218 24.0601 11.7528 23.3121 12.3195C22.5641 12.8748 21.6348 13.1525 20.5241 13.1525C19.6401 13.1525 18.8468 12.9542 18.1441 12.5575C17.4528 12.1608 16.9088 11.5998 16.5121 10.8745C16.1155 10.1378 15.9171 9.28783 15.9171 8.3245C15.9171 7.36117 16.1098 6.51683 16.4951 5.7915C16.8805 5.06617 17.4188 4.51083 18.1101 4.1255C18.8128 3.72883 19.6175 3.5305 20.5241 3.5305C21.4081 3.5305 22.1901 3.72317 22.8701 4.1085C23.5501 4.49383 24.0715 5.0265 24.4341 5.7065C24.8081 6.37517 24.9951 7.1345 24.9951 7.9845ZM23.3971 7.6615C23.3971 7.07217 23.2668 6.56783 23.0061 6.1485C22.7455 5.71783 22.3885 5.39483 21.9351 5.1795C21.4931 4.95283 21.0001 4.8395 20.4561 4.8395C19.6741 4.8395 19.0055 5.08883 18.4501 5.5875C17.9061 6.08617 17.5945 6.7775 17.5151 7.6615H23.3971Z" fill="#394253"/>
<path d="M26.4591 8.3075C26.4591 7.3555 26.6518 6.5225 27.0371 5.8085C27.4224 5.08317 27.9494 4.52217 28.6181 4.1255C29.2981 3.72883 30.0574 3.5305 30.8961 3.5305C31.6214 3.5305 32.2958 3.7005 32.9191 4.0405C33.5424 4.36917 34.0184 4.8055 34.3471 5.3495V0.4195H35.9111V12.9995H34.3471V11.2485C34.0411 11.8038 33.5878 12.2628 32.9871 12.6255C32.3864 12.9768 31.6838 13.1525 30.8791 13.1525C30.0518 13.1525 29.2981 12.9485 28.6181 12.5405C27.9494 12.1325 27.4224 11.5602 27.0371 10.8235C26.6518 10.0868 26.4591 9.24817 26.4591 8.3075ZM34.3471 8.3245C34.3471 7.62183 34.2054 7.00983 33.9221 6.4885C33.6388 5.96717 33.2534 5.5705 32.7661 5.2985C32.2901 5.01517 31.7631 4.8735 31.1851 4.8735C30.6071 4.8735 30.0801 5.0095 29.6041 5.2815C29.1281 5.5535 28.7484 5.95017 28.4651 6.4715C28.1818 6.99283 28.0401 7.60483 28.0401 8.3075C28.0401 9.0215 28.1818 9.64483 28.4651 10.1775C28.7484 10.6988 29.1281 11.1012 29.6041 11.3845C30.0801 11.6565 30.6071 11.7925 31.1851 11.7925C31.7631 11.7925 32.2901 11.6565 32.7661 11.3845C33.2534 11.1012 33.6388 10.6988 33.9221 10.1775C34.2054 9.64483 34.3471 9.02717 34.3471 8.3245Z" fill="#394253"/>
<path d="M39.3244 2.1705C39.0297 2.1705 38.7804 2.0685 38.5764 1.8645C38.3724 1.6605 38.2704 1.41117 38.2704 1.1165C38.2704 0.821833 38.3724 0.5725 38.5764 0.3685C38.7804 0.1645 39.0297 0.0625 39.3244 0.0625C39.6077 0.0625 39.8457 0.1645 40.0384 0.3685C40.2424 0.5725 40.3444 0.821833 40.3444 1.1165C40.3444 1.41117 40.2424 1.6605 40.0384 1.8645C39.8457 2.0685 39.6077 2.1705 39.3244 2.1705ZM40.0724 3.6835V12.9995H38.5254V3.6835H40.0724Z" fill="#394253"/>
<path d="M42.131 8.3245C42.131 7.36117 42.3237 6.5225 42.709 5.8085C43.0943 5.08317 43.627 4.52217 44.307 4.1255C44.9983 3.72883 45.786 3.5305 46.67 3.5305C47.8147 3.5305 48.7553 3.80817 49.492 4.3635C50.24 4.91883 50.733 5.6895 50.971 6.6755H49.305C49.1463 6.10883 48.8347 5.66117 48.37 5.3325C47.9166 5.00383 47.35 4.8395 46.67 4.8395C45.786 4.8395 45.072 5.1455 44.528 5.7575C43.984 6.35817 43.712 7.21383 43.712 8.3245C43.712 9.4465 43.984 10.3135 44.528 10.9255C45.072 11.5375 45.786 11.8435 46.67 11.8435C47.35 11.8435 47.9166 11.6848 48.37 11.3675C48.8233 11.0502 49.135 10.5968 49.305 10.0075H50.971C50.7216 10.9595 50.223 11.7245 49.475 12.3025C48.727 12.8692 47.792 13.1525 46.67 13.1525C45.786 13.1525 44.9983 12.9542 44.307 12.5575C43.627 12.1608 43.0943 11.5998 42.709 10.8745C42.3237 10.1492 42.131 9.29917 42.131 8.3245Z" fill="#394253"/>
<path d="M54.9222 4.9585V10.4495C54.9222 10.9028 55.0185 11.2258 55.2112 11.4185C55.4038 11.5998 55.7382 11.6905 56.2142 11.6905H57.3532V12.9995H55.9592C55.0978 12.9995 54.4518 12.8012 54.0212 12.4045C53.5905 12.0078 53.3752 11.3562 53.3752 10.4495V4.9585H52.1682V3.6835H53.3752V1.3375H54.9222V3.6835H57.3532V4.9585H54.9222Z" fill="#394253"/>
<path d="M60.0265 2.1705C59.7319 2.1705 59.4825 2.0685 59.2785 1.8645C59.0745 1.6605 58.9725 1.41117 58.9725 1.1165C58.9725 0.821833 59.0745 0.5725 59.2785 0.3685C59.4825 0.1645 59.7319 0.0625 60.0265 0.0625C60.3099 0.0625 60.5479 0.1645 60.7405 0.3685C60.9445 0.5725 61.0465 0.821833 61.0465 1.1165C61.0465 1.41117 60.9445 1.6605 60.7405 1.8645C60.5479 2.0685 60.3099 2.1705 60.0265 2.1705ZM60.7745 3.6835V12.9995H59.2275V3.6835H60.7745Z" fill="#394253"/>
<path d="M67.4741 13.1525C66.6015 13.1525 65.8081 12.9542 65.0941 12.5575C64.3915 12.1608 63.8361 11.5998 63.4281 10.8745C63.0315 10.1378 62.8331 9.28783 62.8331 8.3245C62.8331 7.3725 63.0371 6.53383 63.4451 5.8085C63.8645 5.07183 64.4311 4.51083 65.1451 4.1255C65.8591 3.72883 66.6581 3.5305 67.5421 3.5305C68.4261 3.5305 69.2251 3.72883 69.9391 4.1255C70.6531 4.51083 71.2141 5.06617 71.6221 5.7915C72.0415 6.51683 72.2511 7.36117 72.2511 8.3245C72.2511 9.28783 72.0358 10.1378 71.6051 10.8745C71.1858 11.5998 70.6135 12.1608 69.8881 12.5575C69.1628 12.9542 68.3581 13.1525 67.4741 13.1525ZM67.4741 11.7925C68.0295 11.7925 68.5508 11.6622 69.0381 11.4015C69.5255 11.1408 69.9165 10.7498 70.2111 10.2285C70.5171 9.70717 70.6701 9.0725 70.6701 8.3245C70.6701 7.5765 70.5228 6.94183 70.2281 6.4205C69.9335 5.89917 69.5481 5.51383 69.0721 5.2645C68.5961 5.00383 68.0805 4.8735 67.5251 4.8735C66.9585 4.8735 66.4371 5.00383 65.9611 5.2645C65.4965 5.51383 65.1225 5.89917 64.8391 6.4205C64.5558 6.94183 64.4141 7.5765 64.4141 8.3245C64.4141 9.08383 64.5501 9.72417 64.8221 10.2455C65.1055 10.7668 65.4795 11.1578 65.9441 11.4185C66.4088 11.6678 66.9188 11.7925 67.4741 11.7925Z" fill="#394253"/>
<path d="M78.8242 3.5135C79.9575 3.5135 80.8755 3.85917 81.5782 4.5505C82.2808 5.2305 82.6322 6.2165 82.6322 7.5085V12.9995H81.1022V7.7295C81.1022 6.80017 80.8698 6.09183 80.4052 5.6045C79.9405 5.10583 79.3058 4.8565 78.5012 4.8565C77.6852 4.8565 77.0335 5.1115 76.5462 5.6215C76.0702 6.1315 75.8322 6.87383 75.8322 7.8485V12.9995H74.2852V3.6835H75.8322V5.0095C76.1382 4.5335 76.5518 4.16517 77.0732 3.9045C77.6058 3.64383 78.1895 3.5135 78.8242 3.5135Z" fill="#394253"/>
<path d="M88.4572 13.1525C87.7432 13.1525 87.1028 13.0335 86.5362 12.7955C85.9695 12.5462 85.5219 12.2062 85.1932 11.7755C84.8645 11.3335 84.6832 10.8292 84.6492 10.2625H86.2472C86.2925 10.7272 86.5079 11.1068 86.8932 11.4015C87.2898 11.6962 87.8055 11.8435 88.4402 11.8435C89.0295 11.8435 89.4942 11.7132 89.8342 11.4525C90.1742 11.1918 90.3442 10.8632 90.3442 10.4665C90.3442 10.0585 90.1628 9.75817 89.8002 9.5655C89.4375 9.3615 88.8765 9.16317 88.1172 8.9705C87.4258 8.78917 86.8592 8.60783 86.4172 8.4265C85.9865 8.23383 85.6125 7.95617 85.2952 7.5935C84.9892 7.2195 84.8362 6.73217 84.8362 6.1315C84.8362 5.6555 84.9779 5.21917 85.2612 4.8225C85.5445 4.42583 85.9469 4.11417 86.4682 3.8875C86.9895 3.6495 87.5845 3.5305 88.2532 3.5305C89.2845 3.5305 90.1175 3.79117 90.7522 4.3125C91.3868 4.83383 91.7268 5.54783 91.7722 6.4545H90.2252C90.1912 5.96717 89.9928 5.57617 89.6302 5.2815C89.2788 4.98683 88.8028 4.8395 88.2022 4.8395C87.6468 4.8395 87.2048 4.9585 86.8762 5.1965C86.5475 5.4345 86.3832 5.74617 86.3832 6.1315C86.3832 6.4375 86.4795 6.6925 86.6722 6.8965C86.8762 7.08917 87.1255 7.24783 87.4202 7.3725C87.7262 7.48583 88.1455 7.61617 88.6782 7.7635C89.3468 7.94483 89.8908 8.12617 90.3102 8.3075C90.7295 8.4775 91.0865 8.73817 91.3812 9.0895C91.6872 9.44083 91.8459 9.89983 91.8572 10.4665C91.8572 10.9765 91.7155 11.4355 91.4322 11.8435C91.1488 12.2515 90.7465 12.5745 90.2252 12.8125C89.7152 13.0392 89.1258 13.1525 88.4572 13.1525Z" fill="#394253"/>
<path d="M104.812 12.9995L101.99 8.1545H100.12V12.9995H98.5732V1.1505H102.398C103.294 1.1505 104.047 1.3035 104.659 1.6095C105.283 1.9155 105.747 2.32917 106.053 2.8505C106.359 3.37183 106.512 3.96683 106.512 4.6355C106.512 5.4515 106.274 6.17117 105.798 6.7945C105.334 7.41783 104.631 7.8315 103.69 8.0355L106.665 12.9995H104.812ZM100.12 6.9135H102.398C103.237 6.9135 103.866 6.7095 104.285 6.3015C104.705 5.88217 104.914 5.32683 104.914 4.6355C104.914 3.93283 104.705 3.38883 104.285 3.0035C103.877 2.61817 103.248 2.4255 102.398 2.4255H100.12V6.9135Z" fill="#394253"/>
<path d="M117.416 7.9845C117.416 8.27917 117.399 8.59083 117.365 8.9195H109.919C109.976 9.8375 110.287 10.5572 110.854 11.0785C111.432 11.5885 112.129 11.8435 112.945 11.8435C113.614 11.8435 114.169 11.6905 114.611 11.3845C115.064 11.0672 115.382 10.6478 115.563 10.1265H117.229C116.98 11.0218 116.481 11.7528 115.733 12.3195C114.985 12.8748 114.056 13.1525 112.945 13.1525C112.061 13.1525 111.268 12.9542 110.565 12.5575C109.874 12.1608 109.33 11.5998 108.933 10.8745C108.536 10.1378 108.338 9.28783 108.338 8.3245C108.338 7.36117 108.531 6.51683 108.916 5.7915C109.301 5.06617 109.84 4.51083 110.531 4.1255C111.234 3.72883 112.038 3.5305 112.945 3.5305C113.829 3.5305 114.611 3.72317 115.291 4.1085C115.971 4.49383 116.492 5.0265 116.855 5.7065C117.229 6.37517 117.416 7.1345 117.416 7.9845ZM115.818 7.6615C115.818 7.07217 115.688 6.56783 115.427 6.1485C115.166 5.71783 114.809 5.39483 114.356 5.1795C113.914 4.95283 113.421 4.8395 112.877 4.8395C112.095 4.8395 111.426 5.08883 110.871 5.5875C110.327 6.08617 110.015 6.7775 109.936 7.6615H115.818Z" fill="#394253"/>
<path d="M118.88 8.3075C118.88 7.3555 119.073 6.5225 119.458 5.8085C119.843 5.08317 120.37 4.52217 121.039 4.1255C121.719 3.72883 122.478 3.5305 123.317 3.5305C124.122 3.5305 124.824 3.71183 125.425 4.0745C126.037 4.42583 126.485 4.86217 126.768 5.3835V3.6835H128.332V17.4195H126.768V11.2825C126.473 11.8038 126.02 12.2458 125.408 12.6085C124.796 12.9712 124.082 13.1525 123.266 13.1525C122.45 13.1525 121.708 12.9485 121.039 12.5405C120.37 12.1325 119.843 11.5602 119.458 10.8235C119.073 10.0868 118.88 9.24817 118.88 8.3075ZM126.768 8.3245C126.768 7.62183 126.626 7.00983 126.343 6.4885C126.06 5.96717 125.674 5.5705 125.187 5.2985C124.711 5.01517 124.184 4.8735 123.606 4.8735C123.028 4.8735 122.501 5.0095 122.025 5.2815C121.549 5.5535 121.169 5.95017 120.886 6.4715C120.603 6.99283 120.461 7.60483 120.461 8.3075C120.461 9.0215 120.603 9.64483 120.886 10.1775C121.169 10.6988 121.549 11.1012 122.025 11.3845C122.501 11.6565 123.028 11.7925 123.606 11.7925C124.184 11.7925 124.711 11.6565 125.187 11.3845C125.674 11.1012 126.06 10.6988 126.343 10.1775C126.626 9.64483 126.768 9.02717 126.768 8.3245Z" fill="#394253"/>
<path d="M139.208 3.6835V12.9995H137.661V11.6225C137.367 12.0985 136.953 12.4725 136.42 12.7445C135.899 13.0052 135.321 13.1355 134.686 13.1355C133.961 13.1355 133.309 12.9882 132.731 12.6935C132.153 12.3875 131.694 11.9342 131.354 11.3335C131.026 10.7328 130.861 10.0018 130.861 9.1405V3.6835H132.391V8.9365C132.391 9.8545 132.624 10.5628 133.088 11.0615C133.553 11.5488 134.188 11.7925 134.992 11.7925C135.82 11.7925 136.471 11.5375 136.947 11.0275C137.423 10.5175 137.661 9.77517 137.661 8.8005V3.6835H139.208Z" fill="#394253"/>
<path d="M150.32 7.9845C150.32 8.27917 150.303 8.59083 150.269 8.9195H142.823C142.88 9.8375 143.192 10.5572 143.758 11.0785C144.336 11.5885 145.033 11.8435 145.849 11.8435C146.518 11.8435 147.073 11.6905 147.515 11.3845C147.969 11.0672 148.286 10.6478 148.467 10.1265H150.133C149.884 11.0218 149.385 11.7528 148.637 12.3195C147.889 12.8748 146.96 13.1525 145.849 13.1525C144.965 13.1525 144.172 12.9542 143.469 12.5575C142.778 12.1608 142.234 11.5998 141.837 10.8745C141.441 10.1378 141.242 9.28783 141.242 8.3245C141.242 7.36117 141.435 6.51683 141.82 5.7915C142.206 5.06617 142.744 4.51083 143.435 4.1255C144.138 3.72883 144.943 3.5305 145.849 3.5305C146.733 3.5305 147.515 3.72317 148.195 4.1085C148.875 4.49383 149.397 5.0265 149.759 5.7065C150.133 6.37517 150.32 7.1345 150.32 7.9845ZM148.722 7.6615C148.722 7.07217 148.592 6.56783 148.331 6.1485C148.071 5.71783 147.714 5.39483 147.26 5.1795C146.818 4.95283 146.325 4.8395 145.781 4.8395C144.999 4.8395 144.331 5.08883 143.775 5.5875C143.231 6.08617 142.92 6.7775 142.84 7.6615H148.722Z" fill="#394253"/>
<path d="M155.66 13.1525C154.946 13.1525 154.306 13.0335 153.739 12.7955C153.173 12.5462 152.725 12.2062 152.396 11.7755C152.068 11.3335 151.886 10.8292 151.852 10.2625H153.45C153.496 10.7272 153.711 11.1068 154.096 11.4015C154.493 11.6962 155.009 11.8435 155.643 11.8435C156.233 11.8435 156.697 11.7132 157.037 11.4525C157.377 11.1918 157.547 10.8632 157.547 10.4665C157.547 10.0585 157.366 9.75817 157.003 9.5655C156.641 9.3615 156.08 9.16317 155.32 8.9705C154.629 8.78917 154.062 8.60783 153.62 8.4265C153.19 8.23383 152.816 7.95617 152.498 7.5935C152.192 7.2195 152.039 6.73217 152.039 6.1315C152.039 5.6555 152.181 5.21917 152.464 4.8225C152.748 4.42583 153.15 4.11417 153.671 3.8875C154.193 3.6495 154.788 3.5305 155.456 3.5305C156.488 3.5305 157.321 3.79117 157.955 4.3125C158.59 4.83383 158.93 5.54783 158.975 6.4545H157.428C157.394 5.96717 157.196 5.57617 156.833 5.2815C156.482 4.98683 156.006 4.8395 155.405 4.8395C154.85 4.8395 154.408 4.9585 154.079 5.1965C153.751 5.4345 153.586 5.74617 153.586 6.1315C153.586 6.4375 153.683 6.6925 153.875 6.8965C154.079 7.08917 154.329 7.24783 154.623 7.3725C154.929 7.48583 155.349 7.61617 155.881 7.7635C156.55 7.94483 157.094 8.12617 157.513 8.3075C157.933 8.4775 158.29 8.73817 158.584 9.0895C158.89 9.44083 159.049 9.89983 159.06 10.4665C159.06 10.9765 158.919 11.4355 158.635 11.8435C158.352 12.2515 157.95 12.5745 157.428 12.8125C156.918 13.0392 156.329 13.1525 155.66 13.1525Z" fill="#394253"/>
<path d="M163.131 4.9585V10.4495C163.131 10.9028 163.227 11.2258 163.42 11.4185C163.613 11.5998 163.947 11.6905 164.423 11.6905H165.562V12.9995H164.168C163.307 12.9995 162.661 12.8012 162.23 12.4045C161.799 12.0078 161.584 11.3562 161.584 10.4495V4.9585H160.377V3.6835H161.584V1.3375H163.131V3.6835H165.562V4.9585H163.131Z" fill="#394253"/>
<path d="M170.735 13.1525C170.021 13.1525 169.38 13.0335 168.814 12.7955C168.247 12.5462 167.799 12.2062 167.471 11.7755C167.142 11.3335 166.961 10.8292 166.927 10.2625H168.525C168.57 10.7272 168.785 11.1068 169.171 11.4015C169.567 11.6962 170.083 11.8435 170.718 11.8435C171.307 11.8435 171.772 11.7132 172.112 11.4525C172.452 11.1918 172.622 10.8632 172.622 10.4665C172.622 10.0585 172.44 9.75817 172.078 9.5655C171.715 9.3615 171.154 9.16317 170.395 8.9705C169.703 8.78917 169.137 8.60783 168.695 8.4265C168.264 8.23383 167.89 7.95617 167.573 7.5935C167.267 7.2195 167.114 6.73217 167.114 6.1315C167.114 5.6555 167.255 5.21917 167.539 4.8225C167.822 4.42583 168.224 4.11417 168.746 3.8875C169.267 3.6495 169.862 3.5305 170.531 3.5305C171.562 3.5305 172.395 3.79117 173.03 4.3125C173.664 4.83383 174.004 5.54783 174.05 6.4545H172.503C172.469 5.96717 172.27 5.57617 171.908 5.2815C171.556 4.98683 171.08 4.8395 170.48 4.8395C169.924 4.8395 169.482 4.9585 169.154 5.1965C168.825 5.4345 168.661 5.74617 168.661 6.1315C168.661 6.4375 168.757 6.6925 168.95 6.8965C169.154 7.08917 169.403 7.24783 169.698 7.3725C170.004 7.48583 170.423 7.61617 170.956 7.7635C171.624 7.94483 172.168 8.12617 172.588 8.3075C173.007 8.4775 173.364 8.73817 173.659 9.0895C173.965 9.44083 174.123 9.89983 174.135 10.4665C174.135 10.9765 173.993 11.4355 173.71 11.8435C173.426 12.2515 173.024 12.5745 172.503 12.8125C171.993 13.0392 171.403 13.1525 170.735 13.1525Z" fill="#394253"/>
</svg>
