<svg width="155" height="155" viewBox="0 0 155 155" fill="none" xmlns="http://www.w3.org/2000/svg">
<path d="M77.5036 4.57509e-05C87.7056 4.5305e-05 97.8071 2.0143 107.229 5.92724C116.65 9.84019 125.207 15.5748 132.407 22.8022C139.607 30.0296 145.31 38.6074 149.188 48.0437C153.065 57.48 155.041 67.5891 155.003 77.7909C154.965 87.9927 152.913 98.0867 148.964 107.494C145.016 116.9 139.249 125.435 131.995 132.608C124.741 139.782 116.141 145.452 106.691 149.294C97.2399 153.136 87.1235 155.074 76.9219 154.998L77.0382 139.498C85.1995 139.56 93.2926 138.009 100.853 134.935C108.414 131.861 115.293 127.325 121.097 121.587C126.9 115.848 131.514 109.02 134.672 101.495C137.831 93.9693 139.473 85.8942 139.503 77.7327C139.534 69.5712 137.953 61.484 134.851 53.935C131.749 46.386 127.187 39.5237 121.426 33.7418C115.666 27.9599 108.821 23.3721 101.284 20.2418C93.7464 17.1114 85.6652 15.5 77.5036 15.5L77.5036 4.57509e-05Z" fill="#52DE97"/>
<path d="M62.7768 1.4107C57.3382 2.46285 52.0281 4.09504 46.9375 6.27931L53.0494 20.5234C57.1218 18.776 61.3699 17.4703 65.7208 16.6285L62.7768 1.4107Z" fill="#ADB3C0"/>
<path d="M46.9368 6.28203C28.0488 14.3888 13.1548 29.6668 5.53125 48.755L19.9257 54.5039C26.0245 39.2333 37.9397 27.0109 53.0502 20.5255L46.9368 6.28203Z" fill="#ADB3C0"/>
<path d="M77.5034 -0.000778841C72.5649 -0.000778626 67.6377 0.471252 62.7891 1.40889L65.7319 16.627C69.6109 15.8768 73.5526 15.4992 77.5034 15.4992L77.5034 -0.000778841Z" fill="#ADB3C0"/>
<path d="M5.52092 48.772C0.842265 60.4949 -0.902364 73.183 0.438684 85.7335C1.77973 98.284 6.16587 110.317 13.2158 120.787C20.2658 131.256 29.7662 139.846 40.8912 145.808C52.0162 151.77 64.429 154.925 77.0508 154.998L77.1406 139.498C67.0432 139.44 57.1129 136.916 48.2129 132.146C39.3129 127.376 31.7126 120.505 26.0727 112.129C20.4327 103.754 16.9238 94.1271 15.851 84.0867C14.7781 74.0463 16.1738 63.8958 19.9167 54.5175L5.52092 48.772Z" fill="#ADB3C0"/>
<path d="M50.5312 89.5273V82.6273L66.3312 60.0273H75.8813V82.1273H79.9813V89.5273H75.8813V96.0273H67.3312V89.5273H50.5312ZM67.9313 69.4273L59.5312 82.1273H67.9313V69.4273Z" fill="#394253"/>
<path d="M83.2691 67.4773V59.5273H97.1191V96.0273H88.2191V67.4773H83.2691Z" fill="#394253"/>
</svg>
