<svg width="163" height="15" viewBox="0 0 163 15" fill="none" xmlns="http://www.w3.org/2000/svg">
<path d="M0.59375 8.04987C0.59375 6.88254 0.854417 5.83987 1.37575 4.92187C1.90842 3.99254 2.62808 3.27287 3.53475 2.76288C4.45275 2.24154 5.47842 1.98088 6.61175 1.98088C7.93775 1.98088 9.09942 2.32087 10.0968 3.00087C11.0941 3.68088 11.7911 4.62154 12.1877 5.82287H9.45075C9.17875 5.25621 8.79342 4.83121 8.29475 4.54787C7.80742 4.26454 7.24075 4.12287 6.59475 4.12287C5.90342 4.12287 5.28575 4.28721 4.74175 4.61587C4.20908 4.93321 3.78975 5.38654 3.48375 5.97588C3.18908 6.56521 3.04175 7.25654 3.04175 8.04987C3.04175 8.83187 3.18908 9.52321 3.48375 10.1239C3.78975 10.7132 4.20908 11.1722 4.74175 11.5009C5.28575 11.8182 5.90342 11.9769 6.59475 11.9769C7.24075 11.9769 7.80742 11.8352 8.29475 11.5519C8.79342 11.2572 9.17875 10.8265 9.45075 10.2599H12.1877C11.7911 11.4725 11.0941 12.4189 10.0968 13.0989C9.11075 13.7675 7.94908 14.1019 6.61175 14.1019C5.47842 14.1019 4.45275 13.8469 3.53475 13.3369C2.62808 12.8155 1.90842 12.0959 1.37575 11.1779C0.854417 10.2599 0.59375 9.21721 0.59375 8.04987Z" fill="#13115B"/>
<path d="M16.6006 6.04388C16.9066 5.54521 17.3032 5.15421 17.7906 4.87088C18.2892 4.58754 18.8559 4.44587 19.4906 4.44587V6.94488H18.8616C18.1136 6.94488 17.5469 7.12054 17.1616 7.47188C16.7876 7.82321 16.6006 8.43521 16.6006 9.30787V13.9999H14.2206V4.58188H16.6006V6.04388Z" fill="#13115B"/>
<path d="M29.8486 9.08688C29.8486 9.42688 29.826 9.73287 29.7806 10.0049H22.8956C22.9523 10.6849 23.1903 11.2175 23.6096 11.6029C24.029 11.9882 24.5446 12.1809 25.1566 12.1809C26.0406 12.1809 26.6696 11.8012 27.0436 11.0419H29.6106C29.3386 11.9485 28.8173 12.6965 28.0466 13.2859C27.276 13.8639 26.3296 14.1529 25.2076 14.1529C24.301 14.1529 23.485 13.9545 22.7596 13.5579C22.0456 13.1499 21.4846 12.5775 21.0766 11.8409C20.68 11.1042 20.4816 10.2542 20.4816 9.29087C20.4816 8.31621 20.68 7.46054 21.0766 6.72387C21.4733 5.98721 22.0286 5.42054 22.7426 5.02388C23.4566 4.62721 24.2783 4.42888 25.2076 4.42888C26.103 4.42888 26.902 4.62154 27.6046 5.00687C28.3186 5.39221 28.8683 5.94188 29.2536 6.65588C29.6503 7.35854 29.8486 8.16888 29.8486 9.08688ZM27.3836 8.40688C27.3723 7.79488 27.1513 7.30754 26.7206 6.94488C26.29 6.57088 25.763 6.38388 25.1396 6.38388C24.5503 6.38388 24.0516 6.56521 23.6436 6.92788C23.247 7.27921 23.0033 7.77221 22.9126 8.40688H27.3836Z" fill="#13115B"/>
<path d="M30.9738 9.25688C30.9738 8.30488 31.1608 7.46054 31.5348 6.72387C31.9201 5.98721 32.4358 5.42054 33.0818 5.02388C33.7391 4.62721 34.4701 4.42888 35.2748 4.42888C35.9775 4.42888 36.5895 4.57054 37.1108 4.85387C37.6435 5.13721 38.0685 5.49421 38.3858 5.92487V4.58188H40.7828V13.9999H38.3858V12.6229C38.0798 13.0649 37.6548 13.4332 37.1108 13.7279C36.5781 14.0112 35.9605 14.1529 35.2578 14.1529C34.4645 14.1529 33.7391 13.9489 33.0818 13.5409C32.4358 13.1329 31.9201 12.5605 31.5348 11.8239C31.1608 11.0759 30.9738 10.2202 30.9738 9.25688ZM38.3858 9.29087C38.3858 8.71287 38.2725 8.21987 38.0458 7.81187C37.8191 7.39254 37.5131 7.07521 37.1278 6.85988C36.7425 6.63321 36.3288 6.51988 35.8868 6.51988C35.4448 6.51988 35.0368 6.62754 34.6628 6.84288C34.2888 7.05821 33.9828 7.37554 33.7448 7.79488C33.5181 8.20288 33.4048 8.69021 33.4048 9.25688C33.4048 9.82354 33.5181 10.3222 33.7448 10.7529C33.9828 11.1722 34.2888 11.4952 34.6628 11.7219C35.0481 11.9485 35.4561 12.0619 35.8868 12.0619C36.3288 12.0619 36.7425 11.9542 37.1278 11.7389C37.5131 11.5122 37.8191 11.1949 38.0458 10.7869C38.2725 10.3675 38.3858 9.86887 38.3858 9.29087Z" fill="#13115B"/>
<path d="M45.8783 6.53688V11.0929C45.8783 11.4102 45.952 11.6425 46.0993 11.7899C46.258 11.9259 46.5186 11.9939 46.8813 11.9939H47.9863V13.9999H46.4903C44.4843 13.9999 43.4813 13.0252 43.4813 11.0759V6.53688H42.3593V4.58188H43.4813V2.25287H45.8783V4.58188H47.9863V6.53688H45.8783Z" fill="#13115B"/>
<path d="M58.4531 9.08688C58.4531 9.42688 58.4305 9.73287 58.3851 10.0049H51.5001C51.5568 10.6849 51.7948 11.2175 52.2141 11.6029C52.6334 11.9882 53.1491 12.1809 53.7611 12.1809C54.6451 12.1809 55.2741 11.8012 55.6481 11.0419H58.2151C57.9431 11.9485 57.4218 12.6965 56.6511 13.2859C55.8804 13.8639 54.9341 14.1529 53.8121 14.1529C52.9054 14.1529 52.0895 13.9545 51.3641 13.5579C50.6501 13.1499 50.0891 12.5775 49.6811 11.8409C49.2844 11.1042 49.0861 10.2542 49.0861 9.29087C49.0861 8.31621 49.2844 7.46054 49.6811 6.72387C50.0778 5.98721 50.6331 5.42054 51.3471 5.02388C52.0611 4.62721 52.8828 4.42888 53.8121 4.42888C54.7074 4.42888 55.5065 4.62154 56.2091 5.00687C56.9231 5.39221 57.4728 5.94188 57.8581 6.65588C58.2548 7.35854 58.4531 8.16888 58.4531 9.08688ZM55.9881 8.40688C55.9768 7.79488 55.7558 7.30754 55.3251 6.94488C54.8944 6.57088 54.3675 6.38388 53.7441 6.38388C53.1548 6.38388 52.6561 6.56521 52.2481 6.92788C51.8514 7.27921 51.6078 7.77221 51.5171 8.40688H55.9881Z" fill="#13115B"/>
<path d="M69.4601 4.44587C70.5821 4.44587 71.4888 4.80288 72.1801 5.51688C72.8714 6.21954 73.2171 7.20554 73.2171 8.47487V13.9999H70.8371V8.79787C70.8371 8.04987 70.6501 7.47754 70.2761 7.08088C69.9021 6.67288 69.3921 6.46888 68.7461 6.46888C68.0888 6.46888 67.5674 6.67288 67.1821 7.08088C66.8081 7.47754 66.6211 8.04987 66.6211 8.79787V13.9999H64.2411V4.58188H66.6211V5.75488C66.9384 5.34688 67.3408 5.02954 67.8281 4.80288C68.3268 4.56487 68.8708 4.44587 69.4601 4.44587Z" fill="#13115B"/>
<path d="M84.2353 9.08688C84.2353 9.42688 84.2127 9.73287 84.1673 10.0049H77.2823C77.339 10.6849 77.577 11.2175 77.9963 11.6029C78.4157 11.9882 78.9313 12.1809 79.5433 12.1809C80.4273 12.1809 81.0563 11.8012 81.4303 11.0419H83.9973C83.7253 11.9485 83.204 12.6965 82.4333 13.2859C81.6627 13.8639 80.7163 14.1529 79.5943 14.1529C78.6877 14.1529 77.8717 13.9545 77.1463 13.5579C76.4323 13.1499 75.8713 12.5775 75.4633 11.8409C75.0667 11.1042 74.8683 10.2542 74.8683 9.29087C74.8683 8.31621 75.0667 7.46054 75.4633 6.72387C75.86 5.98721 76.4153 5.42054 77.1293 5.02388C77.8433 4.62721 78.665 4.42888 79.5943 4.42888C80.4897 4.42888 81.2887 4.62154 81.9913 5.00687C82.7053 5.39221 83.255 5.94188 83.6403 6.65588C84.037 7.35854 84.2353 8.16888 84.2353 9.08688ZM81.7703 8.40688C81.759 7.79488 81.538 7.30754 81.1073 6.94488C80.6767 6.57088 80.1497 6.38388 79.5263 6.38388C78.937 6.38388 78.4383 6.56521 78.0303 6.92788C77.6337 7.27921 77.39 7.77221 77.2993 8.40688H81.7703Z" fill="#13115B"/>
<path d="M99.0285 4.58188L96.2745 13.9999H93.7075L91.9905 7.42088L90.2735 13.9999H87.6895L84.9185 4.58188H87.3325L88.9985 11.7559L90.8005 4.58188H93.3165L95.0845 11.7389L96.7505 4.58188H99.0285Z" fill="#13115B"/>
<path d="M107.971 14.1529C107.2 14.1529 106.509 14.0169 105.897 13.7449C105.285 13.4615 104.798 13.0819 104.435 12.6059C104.084 12.1299 103.891 11.6029 103.857 11.0249H106.254C106.299 11.3875 106.475 11.6879 106.781 11.9259C107.098 12.1639 107.489 12.2829 107.954 12.2829C108.407 12.2829 108.759 12.1922 109.008 12.0109C109.269 11.8295 109.399 11.5972 109.399 11.3139C109.399 11.0079 109.24 10.7812 108.923 10.6339C108.617 10.4752 108.124 10.3052 107.444 10.1239C106.741 9.95387 106.163 9.77821 105.71 9.59688C105.268 9.41554 104.883 9.13788 104.554 8.76388C104.237 8.38988 104.078 7.88554 104.078 7.25087C104.078 6.72954 104.225 6.25354 104.52 5.82287C104.826 5.39221 105.257 5.05221 105.812 4.80288C106.379 4.55354 107.042 4.42888 107.801 4.42888C108.923 4.42888 109.818 4.71221 110.487 5.27887C111.156 5.83421 111.524 6.58788 111.592 7.53988H109.314C109.28 7.16588 109.121 6.87121 108.838 6.65588C108.566 6.42921 108.198 6.31588 107.733 6.31588C107.302 6.31588 106.968 6.39521 106.73 6.55388C106.503 6.71254 106.39 6.93354 106.39 7.21688C106.39 7.53421 106.549 7.77788 106.866 7.94788C107.183 8.10654 107.676 8.27088 108.345 8.44088C109.025 8.61088 109.586 8.78654 110.028 8.96788C110.47 9.14921 110.85 9.43254 111.167 9.81787C111.496 10.1919 111.666 10.6905 111.677 11.3139C111.677 11.8579 111.524 12.3452 111.218 12.7759C110.923 13.2065 110.493 13.5465 109.926 13.7959C109.371 14.0339 108.719 14.1529 107.971 14.1529Z" fill="#13115B"/>
<path d="M116.402 6.53688V11.0929C116.402 11.4102 116.475 11.6425 116.623 11.7899C116.781 11.9259 117.042 11.9939 117.405 11.9939H118.51V13.9999H117.014C115.008 13.9999 114.005 13.0252 114.005 11.0759V6.53688H112.883V4.58188H114.005V2.25287H116.402V4.58188H118.51V6.53688H116.402Z" fill="#13115B"/>
<path d="M119.61 9.25688C119.61 8.30488 119.797 7.46054 120.171 6.72387C120.556 5.98721 121.072 5.42054 121.718 5.02388C122.375 4.62721 123.106 4.42888 123.911 4.42888C124.613 4.42888 125.225 4.57054 125.747 4.85387C126.279 5.13721 126.704 5.49421 127.022 5.92487V4.58188H129.419V13.9999H127.022V12.6229C126.716 13.0649 126.291 13.4332 125.747 13.7279C125.214 14.0112 124.596 14.1529 123.894 14.1529C123.1 14.1529 122.375 13.9489 121.718 13.5409C121.072 13.1329 120.556 12.5605 120.171 11.8239C119.797 11.0759 119.61 10.2202 119.61 9.25688ZM127.022 9.29087C127.022 8.71287 126.908 8.21987 126.682 7.81187C126.455 7.39254 126.149 7.07521 125.764 6.85988C125.378 6.63321 124.965 6.51988 124.523 6.51988C124.081 6.51988 123.673 6.62754 123.299 6.84288C122.925 7.05821 122.619 7.37554 122.381 7.79488C122.154 8.20288 122.041 8.69021 122.041 9.25688C122.041 9.82354 122.154 10.3222 122.381 10.7529C122.619 11.1722 122.925 11.4952 123.299 11.7219C123.684 11.9485 124.092 12.0619 124.523 12.0619C124.965 12.0619 125.378 11.9542 125.764 11.7389C126.149 11.5122 126.455 11.1949 126.682 10.7869C126.908 10.3675 127.022 9.86887 127.022 9.29087Z" fill="#13115B"/>
<path d="M134.514 6.53688V11.0929C134.514 11.4102 134.588 11.6425 134.735 11.7899C134.894 11.9259 135.154 11.9939 135.517 11.9939H136.622V13.9999H135.126C133.12 13.9999 132.117 13.0252 132.117 11.0759V6.53688H130.995V4.58188H132.117V2.25287H134.514V4.58188H136.622V6.53688H134.514Z" fill="#13115B"/>
<path d="M139.541 3.45988C139.122 3.45988 138.77 3.32954 138.487 3.06888C138.215 2.79688 138.079 2.46254 138.079 2.06588C138.079 1.66921 138.215 1.34054 138.487 1.07987C138.77 0.807875 139.122 0.671875 139.541 0.671875C139.96 0.671875 140.306 0.807875 140.578 1.07987C140.861 1.34054 141.003 1.66921 141.003 2.06588C141.003 2.46254 140.861 2.79688 140.578 3.06888C140.306 3.32954 139.96 3.45988 139.541 3.45988ZM140.714 4.58188V13.9999H138.334V4.58188H140.714Z" fill="#13115B"/>
<path d="M147.247 14.1529C146.341 14.1529 145.525 13.9545 144.799 13.5579C144.074 13.1499 143.502 12.5775 143.082 11.8409C142.674 11.1042 142.47 10.2542 142.47 9.29087C142.47 8.32754 142.68 7.47754 143.099 6.74088C143.53 6.00421 144.114 5.43754 144.85 5.04087C145.587 4.63287 146.409 4.42888 147.315 4.42888C148.222 4.42888 149.044 4.63287 149.78 5.04087C150.517 5.43754 151.095 6.00421 151.514 6.74088C151.945 7.47754 152.16 8.32754 152.16 9.29087C152.16 10.2542 151.939 11.1042 151.497 11.8409C151.067 12.5775 150.477 13.1499 149.729 13.5579C148.993 13.9545 148.165 14.1529 147.247 14.1529ZM147.247 12.0789C147.678 12.0789 148.08 11.9769 148.454 11.7729C148.84 11.5575 149.146 11.2402 149.372 10.8209C149.599 10.4015 149.712 9.89154 149.712 9.29087C149.712 8.39554 149.474 7.70988 148.998 7.23387C148.534 6.74654 147.961 6.50287 147.281 6.50287C146.601 6.50287 146.029 6.74654 145.564 7.23387C145.111 7.70988 144.884 8.39554 144.884 9.29087C144.884 10.1862 145.105 10.8775 145.547 11.3649C146.001 11.8409 146.567 12.0789 147.247 12.0789Z" fill="#13115B"/>
<path d="M159.125 4.44587C160.247 4.44587 161.154 4.80288 161.845 5.51688C162.536 6.21954 162.882 7.20554 162.882 8.47487V13.9999H160.502V8.79787C160.502 8.04987 160.315 7.47754 159.941 7.08088C159.567 6.67288 159.057 6.46888 158.411 6.46888C157.754 6.46888 157.232 6.67288 156.847 7.08088C156.473 7.47754 156.286 8.04987 156.286 8.79787V13.9999H153.906V4.58188H156.286V5.75488C156.603 5.34688 157.006 5.02954 157.493 4.80288C157.992 4.56487 158.536 4.44587 159.125 4.44587Z" fill="#13115B"/>
</svg>
