<svg width="60" height="15" viewBox="0 0 60 15" fill="none" xmlns="http://www.w3.org/2000/svg">
<path d="M4.76794 14.1192C3.9746 14.1192 3.26061 13.9832 2.62594 13.7112C1.99127 13.4278 1.4926 13.0312 1.12994 12.5212C0.76727 12.0112 0.585938 11.4162 0.585938 10.7362H2.65993C2.70527 11.2462 2.9036 11.6655 3.25494 11.9942C3.6176 12.3228 4.12194 12.4872 4.76794 12.4872C5.4366 12.4872 5.95794 12.3285 6.33194 12.0112C6.70594 11.6825 6.89294 11.2632 6.89294 10.7532C6.89294 10.3565 6.77393 10.0335 6.53593 9.78416C6.30927 9.53482 6.02027 9.34216 5.66894 9.20616C5.32894 9.07016 4.85294 8.92282 4.24094 8.76416C3.47027 8.56016 2.84127 8.35616 2.35394 8.15216C1.87794 7.93682 1.46994 7.60816 1.12994 7.16616C0.789936 6.72416 0.619934 6.13482 0.619934 5.39816C0.619934 4.71816 0.789936 4.12316 1.12994 3.61316C1.46994 3.10316 1.94594 2.71216 2.55794 2.44016C3.16994 2.16816 3.87827 2.03216 4.68294 2.03216C5.8276 2.03216 6.7626 2.32116 7.48794 2.89916C8.22461 3.46582 8.6326 4.24782 8.71194 5.24516H6.56994C6.53594 4.81449 6.33194 4.44616 5.95794 4.14016C5.58394 3.83416 5.09094 3.68116 4.47894 3.68116C3.9236 3.68116 3.47027 3.82282 3.11893 4.10616C2.7676 4.38949 2.59193 4.79749 2.59193 5.33016C2.59193 5.69282 2.69961 5.99316 2.91494 6.23116C3.14161 6.45782 3.42494 6.63916 3.76494 6.77516C4.10494 6.91116 4.5696 7.05849 5.15894 7.21716C5.94094 7.43249 6.5756 7.64782 7.06293 7.86316C7.5616 8.07849 7.98094 8.41282 8.32094 8.86616C8.67227 9.30816 8.84794 9.90316 8.84794 10.6512C8.84794 11.2518 8.6836 11.8185 8.35493 12.3512C8.0376 12.8838 7.56727 13.3145 6.94394 13.6432C6.33194 13.9605 5.6066 14.1192 4.76794 14.1192Z" fill="#13115B"/>
<path d="M13.3957 6.21416V11.3992C13.3957 11.7505 13.475 12.0055 13.6337 12.1642C13.8037 12.3115 14.087 12.3852 14.4837 12.3852H15.6737V14.0002H14.1437C13.271 14.0002 12.6024 13.7962 12.1377 13.3882C11.673 12.9802 11.4407 12.3172 11.4407 11.3992V6.21416H10.3357V4.63316H11.4407V2.30416H13.3957V4.63316H15.6737V6.21416H13.3957Z" fill="#13115B"/>
<path d="M16.8139 9.27416C16.8139 8.33349 17.0066 7.50049 17.3919 6.77516C17.7886 6.04982 18.3212 5.48882 18.9899 5.09216C19.6699 4.68416 20.4179 4.48016 21.2339 4.48016C21.9706 4.48016 22.6109 4.62749 23.1549 4.92216C23.7102 5.20549 24.1522 5.56249 24.4809 5.99316V4.63316H26.4359V14.0002H24.4809V12.6062C24.1522 13.0482 23.7046 13.4165 23.1379 13.7112C22.5712 14.0058 21.9252 14.1532 21.1999 14.1532C20.3952 14.1532 19.6586 13.9492 18.9899 13.5412C18.3212 13.1218 17.7886 12.5438 17.3919 11.8072C17.0066 11.0592 16.8139 10.2148 16.8139 9.27416ZM24.4809 9.30816C24.4809 8.66216 24.3449 8.10116 24.0729 7.62516C23.8122 7.14916 23.4666 6.78649 23.0359 6.53716C22.6052 6.28782 22.1406 6.16316 21.6419 6.16316C21.1432 6.16316 20.6786 6.28782 20.2479 6.53716C19.8172 6.77516 19.4659 7.13216 19.1939 7.60816C18.9332 8.07282 18.8029 8.62816 18.8029 9.27416C18.8029 9.92016 18.9332 10.4868 19.1939 10.9742C19.4659 11.4615 19.8172 11.8355 20.2479 12.0962C20.6899 12.3455 21.1546 12.4702 21.6419 12.4702C22.1406 12.4702 22.6052 12.3455 23.0359 12.0962C23.4666 11.8468 23.8122 11.4842 24.0729 11.0082C24.3449 10.5208 24.4809 9.95416 24.4809 9.30816Z" fill="#13115B"/>
<path d="M31.2424 6.21416V11.3992C31.2424 11.7505 31.3217 12.0055 31.4804 12.1642C31.6504 12.3115 31.9337 12.3852 32.3304 12.3852H33.5204V14.0002H31.9904C31.1177 14.0002 30.449 13.7962 29.9844 13.3882C29.5197 12.9802 29.2874 12.3172 29.2874 11.3992V6.21416H28.1824V4.63316H29.2874V2.30416H31.2424V4.63316H33.5204V6.21416H31.2424Z" fill="#13115B"/>
<path d="M36.2926 3.39216C35.9412 3.39216 35.6466 3.27316 35.4086 3.03516C35.1706 2.79716 35.0516 2.50249 35.0516 2.15116C35.0516 1.79982 35.1706 1.50516 35.4086 1.26716C35.6466 1.02916 35.9412 0.910156 36.2926 0.910156C36.6326 0.910156 36.9216 1.02916 37.1596 1.26716C37.3976 1.50516 37.5166 1.79982 37.5166 2.15116C37.5166 2.50249 37.3976 2.79716 37.1596 3.03516C36.9216 3.27316 36.6326 3.39216 36.2926 3.39216ZM37.2446 4.63316V14.0002H35.3066V4.63316H37.2446Z" fill="#13115B"/>
<path d="M43.852 14.1532C42.968 14.1532 42.169 13.9548 41.455 13.5582C40.741 13.1502 40.18 12.5835 39.772 11.8582C39.364 11.1215 39.16 10.2715 39.16 9.30816C39.16 8.35616 39.3697 7.51182 39.789 6.77516C40.2083 6.03849 40.7807 5.47182 41.506 5.07516C42.2313 4.67849 43.0417 4.48016 43.937 4.48016C44.8323 4.48016 45.6427 4.67849 46.368 5.07516C47.0933 5.47182 47.6657 6.03849 48.085 6.77516C48.5043 7.51182 48.714 8.35616 48.714 9.30816C48.714 10.2602 48.4987 11.1045 48.068 11.8412C47.6373 12.5778 47.048 13.1502 46.3 13.5582C45.5633 13.9548 44.7473 14.1532 43.852 14.1532ZM43.852 12.4702C44.3507 12.4702 44.8153 12.3512 45.246 12.1132C45.688 11.8752 46.045 11.5182 46.317 11.0422C46.589 10.5662 46.725 9.98816 46.725 9.30816C46.725 8.62816 46.5947 8.05582 46.334 7.59116C46.0733 7.11516 45.7277 6.75816 45.297 6.52016C44.8663 6.28216 44.4017 6.16316 43.903 6.16316C43.4043 6.16316 42.9397 6.28216 42.509 6.52016C42.0897 6.75816 41.7553 7.11516 41.506 7.59116C41.2567 8.05582 41.132 8.62816 41.132 9.30816C41.132 10.3168 41.387 11.0988 41.897 11.6542C42.4183 12.1982 43.07 12.4702 43.852 12.4702Z" fill="#13115B"/>
<path d="M55.3558 4.48016C56.0925 4.48016 56.7498 4.63316 57.3278 4.93916C57.9172 5.24516 58.3762 5.69849 58.7048 6.29916C59.0335 6.89982 59.1978 7.62516 59.1978 8.47516V14.0002H57.2768V8.76416C57.2768 7.92549 57.0672 7.28516 56.6478 6.84316C56.2285 6.38982 55.6562 6.16316 54.9308 6.16316C54.2055 6.16316 53.6275 6.38982 53.1968 6.84316C52.7775 7.28516 52.5678 7.92549 52.5678 8.76416V14.0002H50.6298V4.63316H52.5678V5.70416C52.8852 5.31882 53.2875 5.01849 53.7748 4.80316C54.2735 4.58782 54.8005 4.48016 55.3558 4.48016Z" fill="#13115B"/>
</svg>
