<svg width="136" height="31" viewBox="0 0 136 31" fill="none" xmlns="http://www.w3.org/2000/svg">
<path d="M8.3145 10.3645H3.1465L2.1945 12.9995H0.5625L4.8465 1.2185H6.6315L10.8985 12.9995H9.2665L8.3145 10.3645ZM7.8725 9.1065L5.7305 3.1225L3.5885 9.1065H7.8725Z" fill="#13115B"/>
<path d="M16.2336 11.5715L19.1236 3.6835H20.7726L17.1176 12.9995H15.3156L11.6606 3.6835H13.3266L16.2336 11.5715Z" fill="#13115B"/>
<path d="M26.1369 3.5305C26.9415 3.5305 27.6442 3.70617 28.2449 4.0575C28.8569 4.40883 29.3102 4.85083 29.6049 5.3835V3.6835H31.1689V13.2035C31.1689 14.0535 30.9875 14.8072 30.6249 15.4645C30.2622 16.1332 29.7409 16.6545 29.0609 17.0285C28.3922 17.4025 27.6102 17.5895 26.7149 17.5895C25.4909 17.5895 24.4709 17.3005 23.6549 16.7225C22.8389 16.1445 22.3572 15.3568 22.2099 14.3595H23.7399C23.9099 14.9262 24.2612 15.3795 24.7939 15.7195C25.3265 16.0708 25.9669 16.2465 26.7149 16.2465C27.5649 16.2465 28.2562 15.9802 28.7889 15.4475C29.3329 14.9148 29.6049 14.1668 29.6049 13.2035V11.2485C29.2989 11.7925 28.8455 12.2458 28.2449 12.6085C27.6442 12.9712 26.9415 13.1525 26.1369 13.1525C25.3095 13.1525 24.5559 12.9485 23.8759 12.5405C23.2072 12.1325 22.6802 11.5602 22.2949 10.8235C21.9095 10.0868 21.7169 9.24817 21.7169 8.3075C21.7169 7.3555 21.9095 6.5225 22.2949 5.8085C22.6802 5.08317 23.2072 4.52217 23.8759 4.1255C24.5559 3.72883 25.3095 3.5305 26.1369 3.5305ZM29.6049 8.3245C29.6049 7.62183 29.4632 7.00983 29.1799 6.4885C28.8965 5.96717 28.5112 5.5705 28.0239 5.2985C27.5479 5.01517 27.0209 4.8735 26.4429 4.8735C25.8649 4.8735 25.3379 5.0095 24.8619 5.2815C24.3859 5.5535 24.0062 5.95017 23.7229 6.4715C23.4395 6.99283 23.2979 7.60483 23.2979 8.3075C23.2979 9.0215 23.4395 9.64483 23.7229 10.1775C24.0062 10.6988 24.3859 11.1012 24.8619 11.3845C25.3379 11.6565 25.8649 11.7925 26.4429 11.7925C27.0209 11.7925 27.5479 11.6565 28.0239 11.3845C28.5112 11.1012 28.8965 10.6988 29.1799 10.1775C29.4632 9.64483 29.6049 9.02717 29.6049 8.3245Z" fill="#13115B"/>
<path d="M34.2762 13.1015C33.9815 13.1015 33.7322 12.9995 33.5282 12.7955C33.3242 12.5915 33.2222 12.3422 33.2222 12.0475C33.2222 11.7528 33.3242 11.5035 33.5282 11.2995C33.7322 11.0955 33.9815 10.9935 34.2762 10.9935C34.5595 10.9935 34.7975 11.0955 34.9902 11.2995C35.1942 11.5035 35.2962 11.7528 35.2962 12.0475C35.2962 12.3422 35.1942 12.5915 34.9902 12.7955C34.7975 12.9995 34.5595 13.1015 34.2762 13.1015Z" fill="#13115B"/>
<path d="M43.4317 5.4005C43.7377 4.86783 44.1911 4.42583 44.7917 4.0745C45.4037 3.71183 46.112 3.5305 46.9167 3.5305C47.744 3.5305 48.4921 3.72883 49.1607 4.1255C49.8407 4.52217 50.3734 5.08317 50.7587 5.8085C51.1441 6.5225 51.3367 7.3555 51.3367 8.3075C51.3367 9.24817 51.1441 10.0868 50.7587 10.8235C50.3734 11.5602 49.8407 12.1325 49.1607 12.5405C48.4921 12.9485 47.744 13.1525 46.9167 13.1525C46.1234 13.1525 45.4207 12.9768 44.8087 12.6255C44.2081 12.2628 43.7491 11.8152 43.4317 11.2825V17.4195H41.8847V3.6835H43.4317V5.4005ZM49.7557 8.3075C49.7557 7.60483 49.6141 6.99283 49.3307 6.4715C49.0474 5.95017 48.662 5.5535 48.1747 5.2815C47.6987 5.0095 47.1717 4.8735 46.5937 4.8735C46.0271 4.8735 45.5001 5.01517 45.0127 5.2985C44.5367 5.5705 44.1514 5.97283 43.8567 6.5055C43.5734 7.02683 43.4317 7.63317 43.4317 8.3245C43.4317 9.02717 43.5734 9.64483 43.8567 10.1775C44.1514 10.6988 44.5367 11.1012 45.0127 11.3845C45.5001 11.6565 46.0271 11.7925 46.5937 11.7925C47.1717 11.7925 47.6987 11.6565 48.1747 11.3845C48.662 11.1012 49.0474 10.6988 49.3307 10.1775C49.6141 9.64483 49.7557 9.0215 49.7557 8.3075Z" fill="#13115B"/>
<path d="M54.92 5.1965C55.192 4.66383 55.5773 4.25017 56.076 3.9555C56.586 3.66083 57.2037 3.5135 57.929 3.5135V5.1115H57.521C55.787 5.1115 54.92 6.05217 54.92 7.9335V12.9995H53.373V3.6835H54.92V5.1965Z" fill="#13115B"/>
<path d="M68.2148 7.9845C68.2148 8.27917 68.1978 8.59083 68.1638 8.9195H60.7178C60.7745 9.8375 61.0861 10.5572 61.6528 11.0785C62.2308 11.5885 62.9278 11.8435 63.7438 11.8435C64.4125 11.8435 64.9678 11.6905 65.4098 11.3845C65.8631 11.0672 66.1805 10.6478 66.3618 10.1265H68.0278C67.7785 11.0218 67.2798 11.7528 66.5318 12.3195C65.7838 12.8748 64.8545 13.1525 63.7438 13.1525C62.8598 13.1525 62.0665 12.9542 61.3638 12.5575C60.6725 12.1608 60.1285 11.5998 59.7318 10.8745C59.3351 10.1378 59.1368 9.28783 59.1368 8.3245C59.1368 7.36117 59.3295 6.51683 59.7148 5.7915C60.1001 5.06617 60.6385 4.51083 61.3298 4.1255C62.0325 3.72883 62.8371 3.5305 63.7438 3.5305C64.6278 3.5305 65.4098 3.72317 66.0898 4.1085C66.7698 4.49383 67.2911 5.0265 67.6538 5.7065C68.0278 6.37517 68.2148 7.1345 68.2148 7.9845ZM66.6168 7.6615C66.6168 7.07217 66.4865 6.56783 66.2258 6.1485C65.9651 5.71783 65.6081 5.39483 65.1548 5.1795C64.7128 4.95283 64.2198 4.8395 63.6758 4.8395C62.8938 4.8395 62.2251 5.08883 61.6698 5.5875C61.1258 6.08617 60.8141 6.7775 60.7348 7.6615H66.6168Z" fill="#13115B"/>
<path d="M69.6788 8.3075C69.6788 7.3555 69.8715 6.5225 70.2568 5.8085C70.6421 5.08317 71.1691 4.52217 71.8378 4.1255C72.5178 3.72883 73.2771 3.5305 74.1158 3.5305C74.8411 3.5305 75.5155 3.7005 76.1388 4.0405C76.7621 4.36917 77.2381 4.8055 77.5668 5.3495V0.419501H79.1308V12.9995H77.5668V11.2485C77.2608 11.8038 76.8075 12.2628 76.2068 12.6255C75.6061 12.9768 74.9035 13.1525 74.0988 13.1525C73.2715 13.1525 72.5178 12.9485 71.8378 12.5405C71.1691 12.1325 70.6421 11.5602 70.2568 10.8235C69.8715 10.0868 69.6788 9.24817 69.6788 8.3075ZM77.5668 8.3245C77.5668 7.62183 77.4251 7.00983 77.1418 6.4885C76.8585 5.96717 76.4731 5.5705 75.9858 5.2985C75.5098 5.01517 74.9828 4.8735 74.4048 4.8735C73.8268 4.8735 73.2998 5.0095 72.8238 5.2815C72.3478 5.5535 71.9681 5.95017 71.6848 6.4715C71.4015 6.99283 71.2598 7.60483 71.2598 8.3075C71.2598 9.0215 71.4015 9.64483 71.6848 10.1775C71.9681 10.6988 72.3478 11.1012 72.8238 11.3845C73.2998 11.6565 73.8268 11.7925 74.4048 11.7925C74.9828 11.7925 75.5098 11.6565 75.9858 11.3845C76.4731 11.1012 76.8585 10.6988 77.1418 10.1775C77.4251 9.64483 77.5668 9.02717 77.5668 8.3245Z" fill="#13115B"/>
<path d="M82.5441 2.1705C82.2494 2.1705 82.0001 2.0685 81.7961 1.8645C81.5921 1.6605 81.4901 1.41117 81.4901 1.1165C81.4901 0.821834 81.5921 0.5725 81.7961 0.3685C82.0001 0.1645 82.2494 0.0625 82.5441 0.0625C82.8274 0.0625 83.0654 0.1645 83.2581 0.3685C83.4621 0.5725 83.5641 0.821834 83.5641 1.1165C83.5641 1.41117 83.4621 1.6605 83.2581 1.8645C83.0654 2.0685 82.8274 2.1705 82.5441 2.1705ZM83.2921 3.6835V12.9995H81.7451V3.6835H83.2921Z" fill="#13115B"/>
<path d="M85.3507 8.3245C85.3507 7.36117 85.5433 6.5225 85.9287 5.8085C86.314 5.08317 86.8467 4.52217 87.5267 4.1255C88.218 3.72883 89.0057 3.5305 89.8897 3.5305C91.0343 3.5305 91.975 3.80817 92.7117 4.3635C93.4597 4.91883 93.9527 5.6895 94.1907 6.6755H92.5247C92.366 6.10883 92.0543 5.66117 91.5897 5.3325C91.1363 5.00383 90.5697 4.8395 89.8897 4.8395C89.0057 4.8395 88.2917 5.1455 87.7477 5.7575C87.2037 6.35817 86.9317 7.21383 86.9317 8.3245C86.9317 9.4465 87.2037 10.3135 87.7477 10.9255C88.2917 11.5375 89.0057 11.8435 89.8897 11.8435C90.5697 11.8435 91.1363 11.6848 91.5897 11.3675C92.043 11.0502 92.3547 10.5968 92.5247 10.0075H94.1907C93.9413 10.9595 93.4427 11.7245 92.6947 12.3025C91.9467 12.8692 91.0117 13.1525 89.8897 13.1525C89.0057 13.1525 88.218 12.9542 87.5267 12.5575C86.8467 12.1608 86.314 11.5998 85.9287 10.8745C85.5433 10.1492 85.3507 9.29917 85.3507 8.3245Z" fill="#13115B"/>
<path d="M98.1418 4.9585V10.4495C98.1418 10.9028 98.2382 11.2258 98.4308 11.4185C98.6235 11.5998 98.9578 11.6905 99.4338 11.6905H100.573V12.9995H99.1788C98.3175 12.9995 97.6715 12.8012 97.2408 12.4045C96.8102 12.0078 96.5948 11.3562 96.5948 10.4495V4.9585H95.3878V3.6835H96.5948V1.3375H98.1418V3.6835H100.573V4.9585H98.1418Z" fill="#13115B"/>
<path d="M103.246 2.1705C102.952 2.1705 102.702 2.0685 102.498 1.8645C102.294 1.6605 102.192 1.41117 102.192 1.1165C102.192 0.821834 102.294 0.5725 102.498 0.3685C102.702 0.1645 102.952 0.0625 103.246 0.0625C103.53 0.0625 103.768 0.1645 103.96 0.3685C104.164 0.5725 104.266 0.821834 104.266 1.1165C104.266 1.41117 104.164 1.6605 103.96 1.8645C103.768 2.0685 103.53 2.1705 103.246 2.1705ZM103.994 3.6835V12.9995H102.447V3.6835H103.994Z" fill="#13115B"/>
<path d="M110.694 13.1525C109.821 13.1525 109.028 12.9542 108.314 12.5575C107.611 12.1608 107.056 11.5998 106.648 10.8745C106.251 10.1378 106.053 9.28783 106.053 8.3245C106.053 7.3725 106.257 6.53383 106.665 5.8085C107.084 5.07183 107.651 4.51083 108.365 4.1255C109.079 3.72883 109.878 3.5305 110.762 3.5305C111.646 3.5305 112.445 3.72883 113.159 4.1255C113.873 4.51083 114.434 5.06617 114.842 5.7915C115.261 6.51683 115.471 7.36117 115.471 8.3245C115.471 9.28783 115.255 10.1378 114.825 10.8745C114.405 11.5998 113.833 12.1608 113.108 12.5575C112.382 12.9542 111.578 13.1525 110.694 13.1525ZM110.694 11.7925C111.249 11.7925 111.77 11.6622 112.258 11.4015C112.745 11.1408 113.136 10.7498 113.431 10.2285C113.737 9.70717 113.89 9.0725 113.89 8.3245C113.89 7.5765 113.742 6.94183 113.448 6.4205C113.153 5.89917 112.768 5.51383 112.292 5.2645C111.816 5.00383 111.3 4.8735 110.745 4.8735C110.178 4.8735 109.657 5.00383 109.181 5.2645C108.716 5.51383 108.342 5.89917 108.059 6.4205C107.775 6.94183 107.634 7.5765 107.634 8.3245C107.634 9.08383 107.77 9.72417 108.042 10.2455C108.325 10.7668 108.699 11.1578 109.164 11.4185C109.628 11.6678 110.138 11.7925 110.694 11.7925Z" fill="#13115B"/>
<path d="M122.044 3.5135C123.177 3.5135 124.095 3.85917 124.798 4.5505C125.501 5.2305 125.852 6.2165 125.852 7.5085V12.9995H124.322V7.7295C124.322 6.80017 124.09 6.09183 123.625 5.6045C123.16 5.10583 122.526 4.8565 121.721 4.8565C120.905 4.8565 120.253 5.1115 119.766 5.6215C119.29 6.1315 119.052 6.87383 119.052 7.8485V12.9995H117.505V3.6835H119.052V5.0095C119.358 4.5335 119.772 4.16517 120.293 3.9045C120.826 3.64383 121.409 3.5135 122.044 3.5135Z" fill="#13115B"/>
<path d="M131.677 13.1525C130.963 13.1525 130.323 13.0335 129.756 12.7955C129.189 12.5462 128.742 12.2062 128.413 11.7755C128.084 11.3335 127.903 10.8292 127.869 10.2625H129.467C129.512 10.7272 129.728 11.1068 130.113 11.4015C130.51 11.6962 131.025 11.8435 131.66 11.8435C132.249 11.8435 132.714 11.7132 133.054 11.4525C133.394 11.1918 133.564 10.8632 133.564 10.4665C133.564 10.0585 133.383 9.75817 133.02 9.5655C132.657 9.3615 132.096 9.16317 131.337 8.9705C130.646 8.78917 130.079 8.60783 129.637 8.4265C129.206 8.23383 128.832 7.95617 128.515 7.5935C128.209 7.2195 128.056 6.73217 128.056 6.1315C128.056 5.6555 128.198 5.21917 128.481 4.8225C128.764 4.42583 129.167 4.11417 129.688 3.8875C130.209 3.6495 130.804 3.5305 131.473 3.5305C132.504 3.5305 133.337 3.79117 133.972 4.3125C134.607 4.83383 134.947 5.54783 134.992 6.4545H133.445C133.411 5.96717 133.213 5.57617 132.85 5.2815C132.499 4.98683 132.023 4.8395 131.422 4.8395C130.867 4.8395 130.425 4.9585 130.096 5.1965C129.767 5.4345 129.603 5.74617 129.603 6.1315C129.603 6.4375 129.699 6.6925 129.892 6.8965C130.096 7.08917 130.345 7.24783 130.64 7.3725C130.946 7.48583 131.365 7.61617 131.898 7.7635C132.567 7.94483 133.111 8.12617 133.53 8.3075C133.949 8.4775 134.306 8.73817 134.601 9.0895C134.907 9.44083 135.066 9.89983 135.077 10.4665C135.077 10.9765 134.935 11.4355 134.652 11.8435C134.369 12.2515 133.966 12.5745 133.445 12.8125C132.935 13.0392 132.346 13.1525 131.677 13.1525Z" fill="#13115B"/>
<path d="M1.6815 23.5295C1.8615 23.2162 2.12817 22.9562 2.4815 22.7495C2.8415 22.5362 3.25817 22.4295 3.7315 22.4295C4.21817 22.4295 4.65817 22.5462 5.0515 22.7795C5.4515 23.0128 5.76483 23.3428 5.9915 23.7695C6.21817 24.1895 6.3315 24.6795 6.3315 25.2395C6.3315 25.7928 6.21817 26.2862 5.9915 26.7195C5.76483 27.1528 5.4515 27.4895 5.0515 27.7295C4.65817 27.9695 4.21817 28.0895 3.7315 28.0895C3.26483 28.0895 2.8515 27.9862 2.4915 27.7795C2.13817 27.5662 1.86817 27.3028 1.6815 26.9895V30.5995H0.7715V22.5195H1.6815V23.5295ZM5.4015 25.2395C5.4015 24.8262 5.31817 24.4662 5.1515 24.1595C4.98483 23.8528 4.75817 23.6195 4.4715 23.4595C4.1915 23.2995 3.8815 23.2195 3.5415 23.2195C3.20817 23.2195 2.89817 23.3028 2.6115 23.4695C2.3315 23.6295 2.10483 23.8662 1.9315 24.1795C1.76483 24.4862 1.6815 24.8428 1.6815 25.2495C1.6815 25.6628 1.76483 26.0262 1.9315 26.3395C2.10483 26.6462 2.3315 26.8828 2.6115 27.0495C2.89817 27.2095 3.20817 27.2895 3.5415 27.2895C3.8815 27.2895 4.1915 27.2095 4.4715 27.0495C4.75817 26.8828 4.98483 26.6462 5.1515 26.3395C5.31817 26.0262 5.4015 25.6595 5.4015 25.2395Z" fill="#13115B"/>
<path d="M12.5293 25.0495C12.5293 25.2228 12.5193 25.4062 12.4993 25.5995H8.11931C8.15265 26.1395 8.33598 26.5628 8.66931 26.8695C9.00931 27.1695 9.41931 27.3195 9.89931 27.3195C10.2926 27.3195 10.6193 27.2295 10.8793 27.0495C11.146 26.8628 11.3326 26.6162 11.4393 26.3095H12.4193C12.2726 26.8362 11.9793 27.2662 11.5393 27.5995C11.0993 27.9262 10.5526 28.0895 9.89931 28.0895C9.37931 28.0895 8.91265 27.9728 8.49931 27.7395C8.09265 27.5062 7.77265 27.1762 7.53931 26.7495C7.30598 26.3162 7.18931 25.8162 7.18931 25.2495C7.18931 24.6828 7.30265 24.1862 7.52931 23.7595C7.75598 23.3328 8.07265 23.0062 8.47931 22.7795C8.89265 22.5462 9.36598 22.4295 9.89931 22.4295C10.4193 22.4295 10.8793 22.5428 11.2793 22.7695C11.6793 22.9962 11.986 23.3095 12.1993 23.7095C12.4193 24.1028 12.5293 24.5495 12.5293 25.0495ZM11.5893 24.8595C11.5893 24.5128 11.5126 24.2162 11.3593 23.9695C11.206 23.7162 10.996 23.5262 10.7293 23.3995C10.4693 23.2662 10.1793 23.1995 9.85931 23.1995C9.39931 23.1995 9.00598 23.3462 8.67931 23.6395C8.35931 23.9328 8.17598 24.3395 8.12931 24.8595H11.5893Z" fill="#13115B"/>
<path d="M14.6405 23.4095C14.8005 23.0962 15.0272 22.8528 15.3205 22.6795C15.6205 22.5062 15.9838 22.4195 16.4105 22.4195V23.3595H16.1705C15.1505 23.3595 14.6405 23.9128 14.6405 25.0195V27.9995H13.7305V22.5195H14.6405V23.4095Z" fill="#13115B"/>
<path d="M19.787 25.2395C19.787 24.6795 19.9003 24.1895 20.127 23.7695C20.3536 23.3428 20.6636 23.0128 21.057 22.7795C21.457 22.5462 21.9036 22.4295 22.397 22.4295C22.8236 22.4295 23.2203 22.5295 23.587 22.7295C23.9536 22.9228 24.2336 23.1795 24.427 23.4995V20.5995H25.347V27.9995H24.427V26.9695C24.247 27.2962 23.9803 27.5662 23.627 27.7795C23.2736 27.9862 22.8603 28.0895 22.387 28.0895C21.9003 28.0895 21.457 27.9695 21.057 27.7295C20.6636 27.4895 20.3536 27.1528 20.127 26.7195C19.9003 26.2862 19.787 25.7928 19.787 25.2395ZM24.427 25.2495C24.427 24.8362 24.3436 24.4762 24.177 24.1695C24.0103 23.8628 23.7836 23.6295 23.497 23.4695C23.217 23.3028 22.907 23.2195 22.567 23.2195C22.227 23.2195 21.917 23.2995 21.637 23.4595C21.357 23.6195 21.1336 23.8528 20.967 24.1595C20.8003 24.4662 20.717 24.8262 20.717 25.2395C20.717 25.6595 20.8003 26.0262 20.967 26.3395C21.1336 26.6462 21.357 26.8828 21.637 27.0495C21.917 27.2095 22.227 27.2895 22.567 27.2895C22.907 27.2895 23.217 27.2095 23.497 27.0495C23.7836 26.8828 24.0103 26.6462 24.177 26.3395C24.3436 26.0262 24.427 25.6628 24.427 25.2495Z" fill="#13115B"/>
<path d="M26.5448 25.2395C26.5448 24.6795 26.6581 24.1895 26.8848 23.7695C27.1114 23.3428 27.4214 23.0128 27.8148 22.7795C28.2148 22.5462 28.6581 22.4295 29.1448 22.4295C29.6248 22.4295 30.0414 22.5328 30.3948 22.7395C30.7481 22.9462 31.0114 23.2062 31.1848 23.5195V22.5195H32.1048V27.9995H31.1848V26.9795C31.0048 27.2995 30.7348 27.5662 30.3748 27.7795C30.0214 27.9862 29.6081 28.0895 29.1348 28.0895C28.6481 28.0895 28.2081 27.9695 27.8148 27.7295C27.4214 27.4895 27.1114 27.1528 26.8848 26.7195C26.6581 26.2862 26.5448 25.7928 26.5448 25.2395ZM31.1848 25.2495C31.1848 24.8362 31.1014 24.4762 30.9348 24.1695C30.7681 23.8628 30.5414 23.6295 30.2548 23.4695C29.9748 23.3028 29.6648 23.2195 29.3248 23.2195C28.9848 23.2195 28.6748 23.2995 28.3948 23.4595C28.1148 23.6195 27.8914 23.8528 27.7248 24.1595C27.5581 24.4662 27.4748 24.8262 27.4748 25.2395C27.4748 25.6595 27.5581 26.0262 27.7248 26.3395C27.8914 26.6462 28.1148 26.8828 28.3948 27.0495C28.6748 27.2095 28.9848 27.2895 29.3248 27.2895C29.6648 27.2895 29.9748 27.2095 30.2548 27.0495C30.5414 26.8828 30.7681 26.6462 30.9348 26.3395C31.1014 26.0262 31.1848 25.6628 31.1848 25.2495Z" fill="#13115B"/>
<path d="M38.3626 22.5195L35.0626 30.5795H34.1226L35.2026 27.9395L32.9926 22.5195H34.0026L35.7226 26.9595L37.4226 22.5195H38.3626Z" fill="#13115B"/>
</svg>
