<svg width="13" height="9" viewBox="0 0 13 9" fill="none" xmlns="http://www.w3.org/2000/svg">
<path d="M0.429688 1.79995V0.251953H3.32169V8.99995H1.59369V1.79995H0.429688Z" fill="#394253"/>
<path d="M8.10134 0.623953C8.98134 0.623953 9.75334 0.795953 10.4173 1.13995C11.0893 1.48395 11.6053 1.97595 11.9653 2.61595C12.3333 3.24795 12.5173 3.98395 12.5173 4.82395C12.5173 5.66395 12.3333 6.39995 11.9653 7.03195C11.6053 7.65595 11.0893 8.13995 10.4173 8.48395C9.75334 8.82795 8.98134 8.99995 8.10134 8.99995H5.17334V0.623953H8.10134ZM8.04134 7.57195C8.92134 7.57195 9.60134 7.33195 10.0813 6.85195C10.5613 6.37195 10.8013 5.69595 10.8013 4.82395C10.8013 3.95195 10.5613 3.27195 10.0813 2.78395C9.60134 2.28795 8.92134 2.03995 8.04134 2.03995H6.85334V7.57195H8.04134Z" fill="#394253"/>
</svg>
