<svg width="59" height="39" viewBox="0 0 59 39" fill="none" xmlns="http://www.w3.org/2000/svg">
<path d="M9.21077 27.3C9.71077 29.9333 11.2441 31.25 13.8108 31.25C15.5774 31.25 16.8274 30.4667 17.5608 28.9C18.2941 27.3333 18.6608 24.7833 18.6608 21.25C17.9274 22.2833 16.9274 23.0833 15.6608 23.65C14.3941 24.2167 12.9774 24.5 11.4108 24.5C9.27744 24.5 7.37744 24.0667 5.71077 23.2C4.04411 22.3 2.72744 20.9833 1.76077 19.25C0.82744 17.4833 0.360773 15.35 0.360773 12.85C0.360773 10.3833 0.860773 8.23333 1.86077 6.4C2.89411 4.56666 4.34411 3.15 6.21077 2.15C8.11077 1.15 10.3441 0.649998 12.9108 0.649998C17.8441 0.649998 21.2941 2.18333 23.2608 5.25C25.2274 8.31667 26.2108 12.8333 26.2108 18.8C26.2108 23.1333 25.8108 26.7167 25.0108 29.55C24.2441 32.35 22.9274 34.4833 21.0608 35.95C19.2274 37.4167 16.7108 38.15 13.5108 38.15C10.9774 38.15 8.81077 37.65 7.01077 36.65C5.24411 35.65 3.87744 34.3333 2.91077 32.7C1.97744 31.0667 1.44411 29.2667 1.31077 27.3H9.21077ZM13.3608 17.75C14.7608 17.75 15.8774 17.3333 16.7108 16.5C17.5441 15.6333 17.9608 14.4667 17.9608 13C17.9608 11.4 17.5274 10.1667 16.6608 9.3C15.7941 8.43333 14.6274 8 13.1608 8C11.6941 8 10.5274 8.45 9.66077 9.35C8.82744 10.2167 8.41077 11.4167 8.41077 12.95C8.41077 14.3833 8.82744 15.55 9.66077 16.45C10.5274 17.3167 11.7608 17.75 13.3608 17.75ZM56.4725 8.95H40.8725V15.85C41.5392 15.1167 42.4725 14.5167 43.6725 14.05C44.8725 13.5833 46.1725 13.35 47.5725 13.35C50.0725 13.35 52.1392 13.9167 53.7725 15.05C55.4392 16.1833 56.6558 17.65 57.4225 19.45C58.1892 21.25 58.5725 23.2 58.5725 25.3C58.5725 29.2 57.4725 32.3 55.2725 34.6C53.0725 36.8667 49.9725 38 45.9725 38C43.3058 38 40.9892 37.55 39.0225 36.65C37.0558 35.7167 35.5392 34.4333 34.4725 32.8C33.4058 31.1667 32.8225 29.2833 32.7225 27.15H41.0725C41.2725 28.1833 41.7558 29.05 42.5225 29.75C43.2892 30.4167 44.3392 30.75 45.6725 30.75C47.2392 30.75 48.4058 30.25 49.1725 29.25C49.9392 28.25 50.3225 26.9167 50.3225 25.25C50.3225 23.6167 49.9225 22.3667 49.1225 21.5C48.3225 20.6333 47.1558 20.2 45.6225 20.2C44.4892 20.2 43.5558 20.4833 42.8225 21.05C42.0892 21.5833 41.6058 22.3 41.3725 23.2H33.1225V1.45H56.4725V8.95Z" fill="#394253"/>
</svg>
