<svg width="200" height="34" viewBox="0 0 200 34" fill="none" xmlns="http://www.w3.org/2000/svg">
<path d="M200 6C200 2.68629 197.314 0 194 0H0V34H194C197.314 34 200 31.3137 200 28V6Z" fill="#DDDEDF"/>
<path d="M200 6C200 2.68629 197.314 0 194 0H0V34H194C197.314 34 200 31.3137 200 28V6Z" fill="#52DE97"/>
<path d="M85.8932 13.004V22H84.7102V15.292L81.7202 22H80.8882L77.8852 15.279V22H76.7022V13.004H77.9762L81.3042 20.44L84.6322 13.004H85.8932ZM87.4574 18.412C87.4574 17.684 87.6048 17.047 87.8994 16.501C88.1941 15.9463 88.5971 15.5173 89.1084 15.214C89.6284 14.9107 90.2048 14.759 90.8374 14.759C91.4614 14.759 92.0031 14.8933 92.4624 15.162C92.9218 15.4307 93.2641 15.7687 93.4894 16.176V14.876H94.6854V22H93.4894V20.674C93.2554 21.09 92.9044 21.4367 92.4364 21.714C91.9771 21.9827 91.4398 22.117 90.8244 22.117C90.1918 22.117 89.6198 21.961 89.1084 21.649C88.5971 21.337 88.1941 20.8993 87.8994 20.336C87.6048 19.7727 87.4574 19.1313 87.4574 18.412ZM93.4894 18.425C93.4894 17.8877 93.3811 17.4197 93.1644 17.021C92.9478 16.6223 92.6531 16.319 92.2804 16.111C91.9164 15.8943 91.5134 15.786 91.0714 15.786C90.6294 15.786 90.2264 15.89 89.8624 16.098C89.4984 16.306 89.2081 16.6093 88.9914 17.008C88.7748 17.4067 88.6664 17.8747 88.6664 18.412C88.6664 18.958 88.7748 19.4347 88.9914 19.842C89.2081 20.2407 89.4984 20.5483 89.8624 20.765C90.2264 20.973 90.6294 21.077 91.0714 21.077C91.5134 21.077 91.9164 20.973 92.2804 20.765C92.6531 20.5483 92.9478 20.2407 93.1644 19.842C93.3811 19.4347 93.4894 18.9623 93.4894 18.425ZM100.156 14.746C101.022 14.746 101.724 15.0103 102.262 15.539C102.799 16.059 103.068 16.813 103.068 17.801V22H101.898V17.97C101.898 17.2593 101.72 16.7177 101.365 16.345C101.009 15.9637 100.524 15.773 99.9086 15.773C99.2846 15.773 98.7863 15.968 98.4136 16.358C98.0496 16.748 97.8676 17.3157 97.8676 18.061V22H96.6846V14.876H97.8676V15.89C98.1016 15.526 98.4179 15.2443 98.8166 15.045C99.2239 14.8457 99.6703 14.746 100.156 14.746ZM111.318 14.876V22H110.135V20.947C109.91 21.311 109.593 21.597 109.186 21.805C108.787 22.0043 108.345 22.104 107.86 22.104C107.305 22.104 106.807 21.9913 106.365 21.766C105.923 21.532 105.572 21.1853 105.312 20.726C105.061 20.2667 104.935 19.7077 104.935 19.049V14.876H106.105V18.893C106.105 19.595 106.283 20.1367 106.638 20.518C106.993 20.8907 107.479 21.077 108.094 21.077C108.727 21.077 109.225 20.882 109.589 20.492C109.953 20.102 110.135 19.5343 110.135 18.789V14.876H111.318ZM112.873 18.412C112.873 17.684 113.021 17.047 113.315 16.501C113.61 15.9463 114.013 15.5173 114.524 15.214C115.044 14.9107 115.621 14.759 116.253 14.759C116.877 14.759 117.419 14.8933 117.878 15.162C118.338 15.4307 118.68 15.7687 118.905 16.176V14.876H120.101V22H118.905V20.674C118.671 21.09 118.32 21.4367 117.852 21.714C117.393 21.9827 116.856 22.117 116.24 22.117C115.608 22.117 115.036 21.961 114.524 21.649C114.013 21.337 113.61 20.8993 113.315 20.336C113.021 19.7727 112.873 19.1313 112.873 18.412ZM118.905 18.425C118.905 17.8877 118.797 17.4197 118.58 17.021C118.364 16.6223 118.069 16.319 117.696 16.111C117.332 15.8943 116.929 15.786 116.487 15.786C116.045 15.786 115.642 15.89 115.278 16.098C114.914 16.306 114.624 16.6093 114.407 17.008C114.191 17.4067 114.082 17.8747 114.082 18.412C114.082 18.958 114.191 19.4347 114.407 19.842C114.624 20.2407 114.914 20.5483 115.278 20.765C115.642 20.973 116.045 21.077 116.487 21.077C116.929 21.077 117.332 20.973 117.696 20.765C118.069 20.5483 118.364 20.2407 118.58 19.842C118.797 19.4347 118.905 18.9623 118.905 18.425ZM123.284 12.38V22H122.101V12.38H123.284Z" fill="#13115B"/>
</svg>
