<svg width="200" height="34" viewBox="0 0 200 34" fill="none" xmlns="http://www.w3.org/2000/svg">
<path d="M200 6C200 2.68629 197.314 0 194 0H0V34H194C197.314 34 200 31.3137 200 28V6Z" fill="#DDDEDF"/>
<path d="M200 6C200 2.68629 197.314 0 194 0H0V34H194C197.314 34 200 31.3137 200 28V6Z" fill="#52DE97"/>
<path d="M67.7347 12.939V18.672C67.7347 19.478 67.9297 20.076 68.3197 20.466C68.7183 20.856 69.2687 21.051 69.9707 21.051C70.664 21.051 71.2057 20.856 71.5957 20.466C71.9943 20.076 72.1937 19.478 72.1937 18.672V12.939H73.3767V18.659C73.3767 19.413 73.225 20.05 72.9217 20.57C72.6183 21.0813 72.2067 21.4627 71.6867 21.714C71.1753 21.9653 70.599 22.091 69.9577 22.091C69.3163 22.091 68.7357 21.9653 68.2157 21.714C67.7043 21.4627 67.297 21.0813 66.9937 20.57C66.699 20.05 66.5517 19.413 66.5517 18.659V12.939H67.7347ZM76.5331 16.189C76.7671 15.7817 77.1138 15.4437 77.5731 15.175C78.0411 14.8977 78.5828 14.759 79.1981 14.759C79.8308 14.759 80.4028 14.9107 80.9141 15.214C81.4341 15.5173 81.8415 15.9463 82.1361 16.501C82.4308 17.047 82.5781 17.684 82.5781 18.412C82.5781 19.1313 82.4308 19.7727 82.1361 20.336C81.8415 20.8993 81.4341 21.337 80.9141 21.649C80.4028 21.961 79.8308 22.117 79.1981 22.117C78.5915 22.117 78.0541 21.9827 77.5861 21.714C77.1268 21.4367 76.7758 21.0943 76.5331 20.687V25.38H75.3501V14.876H76.5331V16.189ZM81.3691 18.412C81.3691 17.8747 81.2608 17.4067 81.0441 17.008C80.8275 16.6093 80.5328 16.306 80.1601 16.098C79.7961 15.89 79.3931 15.786 78.9511 15.786C78.5178 15.786 78.1148 15.8943 77.7421 16.111C77.3781 16.319 77.0835 16.6267 76.8581 17.034C76.6415 17.4327 76.5331 17.8963 76.5331 18.425C76.5331 18.9623 76.6415 19.4347 76.8581 19.842C77.0835 20.2407 77.3781 20.5483 77.7421 20.765C78.1148 20.973 78.5178 21.077 78.9511 21.077C79.3931 21.077 79.7961 20.973 80.1601 20.765C80.5328 20.5483 80.8275 20.2407 81.0441 19.842C81.2608 19.4347 81.3691 18.958 81.3691 18.412ZM85.3183 12.38V22H84.1353V12.38H85.3183ZM90.4415 22.117C89.7742 22.117 89.1675 21.9653 88.6215 21.662C88.0842 21.3587 87.6595 20.9297 87.3475 20.375C87.0442 19.8117 86.8925 19.1617 86.8925 18.425C86.8925 17.697 87.0485 17.0557 87.3605 16.501C87.6812 15.9377 88.1145 15.5087 88.6605 15.214C89.2065 14.9107 89.8175 14.759 90.4935 14.759C91.1695 14.759 91.7805 14.9107 92.3265 15.214C92.8725 15.5087 93.3015 15.9333 93.6135 16.488C93.9342 17.0427 94.0945 17.6883 94.0945 18.425C94.0945 19.1617 93.9298 19.8117 93.6005 20.375C93.2798 20.9297 92.8422 21.3587 92.2875 21.662C91.7328 21.9653 91.1175 22.117 90.4415 22.117ZM90.4415 21.077C90.8662 21.077 91.2648 20.9773 91.6375 20.778C92.0102 20.5787 92.3092 20.2797 92.5345 19.881C92.7685 19.4823 92.8855 18.997 92.8855 18.425C92.8855 17.853 92.7728 17.3677 92.5475 16.969C92.3222 16.5703 92.0275 16.2757 91.6635 16.085C91.2995 15.8857 90.9052 15.786 90.4805 15.786C90.0472 15.786 89.6485 15.8857 89.2845 16.085C88.9292 16.2757 88.6432 16.5703 88.4265 16.969C88.2098 17.3677 88.1015 17.853 88.1015 18.425C88.1015 19.0057 88.2055 19.4953 88.4135 19.894C88.6302 20.2927 88.9162 20.5917 89.2715 20.791C89.6268 20.9817 90.0168 21.077 90.4415 21.077ZM95.2079 18.412C95.2079 17.684 95.3553 17.047 95.6499 16.501C95.9446 15.9463 96.3476 15.5173 96.8589 15.214C97.3789 14.9107 97.9553 14.759 98.5879 14.759C99.2119 14.759 99.7536 14.8933 100.213 15.162C100.672 15.4307 101.015 15.7687 101.24 16.176V14.876H102.436V22H101.24V20.674C101.006 21.09 100.655 21.4367 100.187 21.714C99.7276 21.9827 99.1903 22.117 98.5749 22.117C97.9423 22.117 97.3703 21.961 96.8589 21.649C96.3476 21.337 95.9446 20.8993 95.6499 20.336C95.3553 19.7727 95.2079 19.1313 95.2079 18.412ZM101.24 18.425C101.24 17.8877 101.132 17.4197 100.915 17.021C100.698 16.6223 100.404 16.319 100.031 16.111C99.6669 15.8943 99.2639 15.786 98.8219 15.786C98.3799 15.786 97.9769 15.89 97.6129 16.098C97.2489 16.306 96.9586 16.6093 96.7419 17.008C96.5253 17.4067 96.4169 17.8747 96.4169 18.412C96.4169 18.958 96.5253 19.4347 96.7419 19.842C96.9586 20.2407 97.2489 20.5483 97.6129 20.765C97.9769 20.973 98.3799 21.077 98.8219 21.077C99.2639 21.077 99.6669 20.973 100.031 20.765C100.404 20.5483 100.698 20.2407 100.915 19.842C101.132 19.4347 101.24 18.9623 101.24 18.425ZM103.993 18.412C103.993 17.684 104.14 17.047 104.435 16.501C104.73 15.9463 105.133 15.5173 105.644 15.214C106.164 14.9107 106.745 14.759 107.386 14.759C107.941 14.759 108.456 14.889 108.933 15.149C109.41 15.4003 109.774 15.734 110.025 16.15V12.38H111.221V22H110.025V20.661C109.791 21.0857 109.444 21.4367 108.985 21.714C108.526 21.9827 107.988 22.117 107.373 22.117C106.74 22.117 106.164 21.961 105.644 21.649C105.133 21.337 104.73 20.8993 104.435 20.336C104.14 19.7727 103.993 19.1313 103.993 18.412ZM110.025 18.425C110.025 17.8877 109.917 17.4197 109.7 17.021C109.483 16.6223 109.189 16.319 108.816 16.111C108.452 15.8943 108.049 15.786 107.607 15.786C107.165 15.786 106.762 15.89 106.398 16.098C106.034 16.306 105.744 16.6093 105.527 17.008C105.31 17.4067 105.202 17.8747 105.202 18.412C105.202 18.958 105.31 19.4347 105.527 19.842C105.744 20.2407 106.034 20.5483 106.398 20.765C106.762 20.973 107.165 21.077 107.607 21.077C108.049 21.077 108.452 20.973 108.816 20.765C109.189 20.5483 109.483 20.2407 109.7 19.842C109.917 19.4347 110.025 18.9623 110.025 18.425ZM119.585 15.851H118.09V22H116.907V15.851H115.984V14.876H116.907V14.369C116.907 13.5717 117.111 12.991 117.518 12.627C117.934 12.2543 118.597 12.068 119.507 12.068V13.056C118.987 13.056 118.619 13.16 118.402 13.368C118.194 13.5673 118.09 13.901 118.09 14.369V14.876H119.585V15.851ZM121.575 13.719C121.35 13.719 121.159 13.641 121.003 13.485C120.847 13.329 120.769 13.1383 120.769 12.913C120.769 12.6877 120.847 12.497 121.003 12.341C121.159 12.185 121.35 12.107 121.575 12.107C121.792 12.107 121.974 12.185 122.121 12.341C122.277 12.497 122.355 12.6877 122.355 12.913C122.355 13.1383 122.277 13.329 122.121 13.485C121.974 13.641 121.792 13.719 121.575 13.719ZM122.147 14.876V22H120.964V14.876H122.147ZM125.347 12.38V22H124.164V12.38H125.347ZM133.863 18.165C133.863 18.3903 133.85 18.6287 133.824 18.88H128.13C128.173 19.582 128.411 20.1323 128.845 20.531C129.287 20.921 129.82 21.116 130.444 21.116C130.955 21.116 131.38 20.999 131.718 20.765C132.064 20.5223 132.307 20.2017 132.446 19.803H133.72C133.529 20.4877 133.148 21.0467 132.576 21.48C132.004 21.9047 131.293 22.117 130.444 22.117C129.768 22.117 129.161 21.9653 128.624 21.662C128.095 21.3587 127.679 20.9297 127.376 20.375C127.072 19.8117 126.921 19.1617 126.921 18.425C126.921 17.6883 127.068 17.0427 127.363 16.488C127.657 15.9333 128.069 15.5087 128.598 15.214C129.135 14.9107 129.75 14.759 130.444 14.759C131.12 14.759 131.718 14.9063 132.238 15.201C132.758 15.4957 133.156 15.903 133.434 16.423C133.72 16.9343 133.863 17.515 133.863 18.165ZM132.641 17.918C132.641 17.4673 132.541 17.0817 132.342 16.761C132.142 16.4317 131.869 16.1847 131.523 16.02C131.185 15.8467 130.808 15.76 130.392 15.76C129.794 15.76 129.282 15.9507 128.858 16.332C128.442 16.7133 128.203 17.242 128.143 17.918H132.641Z" fill="#13115B"/>
</svg>
