<svg width="200" height="34" viewBox="0 0 200 34" fill="none" xmlns="http://www.w3.org/2000/svg">
<rect width="200" height="34" rx="6" fill="#DDDEDF"/>
<path d="M55.2827 22L53.1247 18.295H51.6947V22H50.5117V12.939H53.4367C54.1214 12.939 54.6977 13.056 55.1657 13.29C55.6424 13.524 55.9977 13.8403 56.2317 14.239C56.4657 14.6377 56.5827 15.0927 56.5827 15.604C56.5827 16.228 56.4007 16.7783 56.0367 17.255C55.6814 17.7317 55.1441 18.048 54.4247 18.204L56.6997 22H55.2827ZM51.6947 17.346H53.4367C54.0781 17.346 54.5591 17.19 54.8797 16.878C55.2004 16.5573 55.3607 16.1327 55.3607 15.604C55.3607 15.0667 55.2004 14.6507 54.8797 14.356C54.5677 14.0613 54.0867 13.914 53.4367 13.914H51.6947V17.346ZM64.9209 18.165C64.9209 18.3903 64.9079 18.6287 64.8819 18.88H59.1879C59.2313 19.582 59.4696 20.1323 59.9029 20.531C60.3449 20.921 60.8779 21.116 61.5019 21.116C62.0133 21.116 62.4379 20.999 62.7759 20.765C63.1226 20.5223 63.3653 20.2017 63.5039 19.803H64.7779C64.5873 20.4877 64.2059 21.0467 63.6339 21.48C63.0619 21.9047 62.3513 22.117 61.5019 22.117C60.8259 22.117 60.2193 21.9653 59.6819 21.662C59.1533 21.3587 58.7373 20.9297 58.4339 20.375C58.1306 19.8117 57.9789 19.1617 57.9789 18.425C57.9789 17.6883 58.1263 17.0427 58.4209 16.488C58.7156 15.9333 59.1273 15.5087 59.6559 15.214C60.1933 14.9107 60.8086 14.759 61.5019 14.759C62.1779 14.759 62.7759 14.9063 63.2959 15.201C63.8159 15.4957 64.2146 15.903 64.4919 16.423C64.7779 16.9343 64.9209 17.515 64.9209 18.165ZM63.6989 17.918C63.6989 17.4673 63.5993 17.0817 63.3999 16.761C63.2006 16.4317 62.9276 16.1847 62.5809 16.02C62.2429 15.8467 61.8659 15.76 61.4499 15.76C60.8519 15.76 60.3406 15.9507 59.9159 16.332C59.4999 16.7133 59.2616 17.242 59.2009 17.918H63.6989ZM66.0404 18.425C66.0404 17.6883 66.1878 17.047 66.4824 16.501C66.7771 15.9463 67.1844 15.5173 67.7044 15.214C68.2331 14.9107 68.8354 14.759 69.5114 14.759C70.3868 14.759 71.1061 14.9713 71.6694 15.396C72.2414 15.8207 72.6184 16.41 72.8004 17.164H71.5264C71.4051 16.7307 71.1668 16.3883 70.8114 16.137C70.4648 15.8857 70.0314 15.76 69.5114 15.76C68.8354 15.76 68.2894 15.994 67.8734 16.462C67.4574 16.9213 67.2494 17.5757 67.2494 18.425C67.2494 19.283 67.4574 19.946 67.8734 20.414C68.2894 20.882 68.8354 21.116 69.5114 21.116C70.0314 21.116 70.4648 20.9947 70.8114 20.752C71.1581 20.5093 71.3964 20.1627 71.5264 19.712H72.8004C72.6098 20.44 72.2284 21.025 71.6564 21.467C71.0844 21.9003 70.3694 22.117 69.5114 22.117C68.8354 22.117 68.2331 21.9653 67.7044 21.662C67.1844 21.3587 66.7771 20.9297 66.4824 20.375C66.1878 19.8203 66.0404 19.1703 66.0404 18.425ZM77.4859 22.117C76.8186 22.117 76.2119 21.9653 75.6659 21.662C75.1286 21.3587 74.7039 20.9297 74.3919 20.375C74.0886 19.8117 73.9369 19.1617 73.9369 18.425C73.9369 17.697 74.0929 17.0557 74.4049 16.501C74.7256 15.9377 75.1589 15.5087 75.7049 15.214C76.2509 14.9107 76.8619 14.759 77.5379 14.759C78.2139 14.759 78.8249 14.9107 79.3709 15.214C79.9169 15.5087 80.3459 15.9333 80.6579 16.488C80.9786 17.0427 81.1389 17.6883 81.1389 18.425C81.1389 19.1617 80.9743 19.8117 80.6449 20.375C80.3243 20.9297 79.8866 21.3587 79.3319 21.662C78.7773 21.9653 78.1619 22.117 77.4859 22.117ZM77.4859 21.077C77.9106 21.077 78.3093 20.9773 78.6819 20.778C79.0546 20.5787 79.3536 20.2797 79.5789 19.881C79.8129 19.4823 79.9299 18.997 79.9299 18.425C79.9299 17.853 79.8173 17.3677 79.5919 16.969C79.3666 16.5703 79.0719 16.2757 78.7079 16.085C78.3439 15.8857 77.9496 15.786 77.5249 15.786C77.0916 15.786 76.6929 15.8857 76.3289 16.085C75.9736 16.2757 75.6876 16.5703 75.4709 16.969C75.2543 17.3677 75.1459 17.853 75.1459 18.425C75.1459 19.0057 75.2499 19.4953 75.4579 19.894C75.6746 20.2927 75.9606 20.5917 76.3159 20.791C76.6713 20.9817 77.0613 21.077 77.4859 21.077ZM91.2614 14.746C91.816 14.746 92.31 14.863 92.7434 15.097C93.1767 15.3223 93.519 15.6647 93.7704 16.124C94.0217 16.5833 94.1474 17.1423 94.1474 17.801V22H92.9774V17.97C92.9774 17.2593 92.7997 16.7177 92.4444 16.345C92.0977 15.9637 91.6254 15.773 91.0274 15.773C90.412 15.773 89.9224 15.9723 89.5584 16.371C89.1944 16.761 89.0124 17.3287 89.0124 18.074V22H87.8424V17.97C87.8424 17.2593 87.6647 16.7177 87.3094 16.345C86.9627 15.9637 86.4904 15.773 85.8924 15.773C85.277 15.773 84.7874 15.9723 84.4234 16.371C84.0594 16.761 83.8774 17.3287 83.8774 18.074V22H82.6944V14.876H83.8774V15.903C84.1114 15.5303 84.4234 15.2443 84.8134 15.045C85.212 14.8457 85.6497 14.746 86.1264 14.746C86.7244 14.746 87.253 14.8803 87.7124 15.149C88.1717 15.4177 88.514 15.812 88.7394 16.332C88.9387 15.8293 89.268 15.4393 89.7274 15.162C90.1867 14.8847 90.698 14.746 91.2614 14.746ZM104.655 14.746C105.21 14.746 105.704 14.863 106.137 15.097C106.57 15.3223 106.913 15.6647 107.164 16.124C107.415 16.5833 107.541 17.1423 107.541 17.801V22H106.371V17.97C106.371 17.2593 106.193 16.7177 105.838 16.345C105.491 15.9637 105.019 15.773 104.421 15.773C103.806 15.773 103.316 15.9723 102.952 16.371C102.588 16.761 102.406 17.3287 102.406 18.074V22H101.236V17.97C101.236 17.2593 101.058 16.7177 100.703 16.345C100.356 15.9637 99.8839 15.773 99.2859 15.773C98.6706 15.773 98.1809 15.9723 97.8169 16.371C97.4529 16.761 97.2709 17.3287 97.2709 18.074V22H96.0879V14.876H97.2709V15.903C97.5049 15.5303 97.8169 15.2443 98.2069 15.045C98.6056 14.8457 99.0432 14.746 99.5199 14.746C100.118 14.746 100.647 14.8803 101.106 15.149C101.565 15.4177 101.908 15.812 102.133 16.332C102.332 15.8293 102.662 15.4393 103.121 15.162C103.58 14.8847 104.092 14.746 104.655 14.746ZM115.981 18.165C115.981 18.3903 115.968 18.6287 115.942 18.88H110.248C110.292 19.582 110.53 20.1323 110.963 20.531C111.405 20.921 111.938 21.116 112.562 21.116C113.074 21.116 113.498 20.999 113.836 20.765C114.183 20.5223 114.426 20.2017 114.564 19.803H115.838C115.648 20.4877 115.266 21.0467 114.694 21.48C114.122 21.9047 113.412 22.117 112.562 22.117C111.886 22.117 111.28 21.9653 110.742 21.662C110.214 21.3587 109.798 20.9297 109.494 20.375C109.191 19.8117 109.039 19.1617 109.039 18.425C109.039 17.6883 109.187 17.0427 109.481 16.488C109.776 15.9333 110.188 15.5087 110.716 15.214C111.254 14.9107 111.869 14.759 112.562 14.759C113.238 14.759 113.836 14.9063 114.356 15.201C114.876 15.4957 115.275 15.903 115.552 16.423C115.838 16.9343 115.981 17.515 115.981 18.165ZM114.759 17.918C114.759 17.4673 114.66 17.0817 114.46 16.761C114.261 16.4317 113.988 16.1847 113.641 16.02C113.303 15.8467 112.926 15.76 112.51 15.76C111.912 15.76 111.401 15.9507 110.976 16.332C110.56 16.7133 110.322 17.242 110.261 17.918H114.759ZM121.014 14.746C121.881 14.746 122.583 15.0103 123.12 15.539C123.657 16.059 123.926 16.813 123.926 17.801V22H122.756V17.97C122.756 17.2593 122.578 16.7177 122.223 16.345C121.868 15.9637 121.382 15.773 120.767 15.773C120.143 15.773 119.645 15.968 119.272 16.358C118.908 16.748 118.726 17.3157 118.726 18.061V22H117.543V14.876H118.726V15.89C118.96 15.526 119.276 15.2443 119.675 15.045C120.082 14.8457 120.529 14.746 121.014 14.746ZM125.416 18.412C125.416 17.684 125.564 17.047 125.858 16.501C126.153 15.9463 126.556 15.5173 127.067 15.214C127.587 14.9107 128.168 14.759 128.809 14.759C129.364 14.759 129.88 14.889 130.356 15.149C130.833 15.4003 131.197 15.734 131.448 16.15V12.38H132.644V22H131.448V20.661C131.214 21.0857 130.868 21.4367 130.408 21.714C129.949 21.9827 129.412 22.117 128.796 22.117C128.164 22.117 127.587 21.961 127.067 21.649C126.556 21.337 126.153 20.8993 125.858 20.336C125.564 19.7727 125.416 19.1313 125.416 18.412ZM131.448 18.425C131.448 17.8877 131.34 17.4197 131.123 17.021C130.907 16.6223 130.612 16.319 130.239 16.111C129.875 15.8943 129.472 15.786 129.03 15.786C128.588 15.786 128.185 15.89 127.821 16.098C127.457 16.306 127.167 16.6093 126.95 17.008C126.734 17.4067 126.625 17.8747 126.625 18.412C126.625 18.958 126.734 19.4347 126.95 19.842C127.167 20.2407 127.457 20.5483 127.821 20.765C128.185 20.973 128.588 21.077 129.03 21.077C129.472 21.077 129.875 20.973 130.239 20.765C130.612 20.5483 130.907 20.2407 131.123 19.842C131.34 19.4347 131.448 18.9623 131.448 18.425ZM141.144 18.165C141.144 18.3903 141.131 18.6287 141.105 18.88H135.411C135.454 19.582 135.692 20.1323 136.126 20.531C136.568 20.921 137.101 21.116 137.725 21.116C138.236 21.116 138.661 20.999 138.999 20.765C139.345 20.5223 139.588 20.2017 139.727 19.803H141.001C140.81 20.4877 140.429 21.0467 139.857 21.48C139.285 21.9047 138.574 22.117 137.725 22.117C137.049 22.117 136.442 21.9653 135.905 21.662C135.376 21.3587 134.96 20.9297 134.657 20.375C134.353 19.8117 134.202 19.1617 134.202 18.425C134.202 17.6883 134.349 17.0427 134.644 16.488C134.938 15.9333 135.35 15.5087 135.879 15.214C136.416 14.9107 137.031 14.759 137.725 14.759C138.401 14.759 138.999 14.9063 139.519 15.201C140.039 15.4957 140.437 15.903 140.715 16.423C141.001 16.9343 141.144 17.515 141.144 18.165ZM139.922 17.918C139.922 17.4673 139.822 17.0817 139.623 16.761C139.423 16.4317 139.15 16.1847 138.804 16.02C138.466 15.8467 138.089 15.76 137.673 15.76C137.075 15.76 136.563 15.9507 136.139 16.332C135.723 16.7133 135.484 17.242 135.424 17.918H139.922ZM142.263 18.412C142.263 17.684 142.41 17.047 142.705 16.501C143 15.9463 143.403 15.5173 143.914 15.214C144.434 14.9107 145.015 14.759 145.656 14.759C146.211 14.759 146.726 14.889 147.203 15.149C147.68 15.4003 148.044 15.734 148.295 16.15V12.38H149.491V22H148.295V20.661C148.061 21.0857 147.714 21.4367 147.255 21.714C146.796 21.9827 146.258 22.117 145.643 22.117C145.01 22.117 144.434 21.961 143.914 21.649C143.403 21.337 143 20.8993 142.705 20.336C142.41 19.7727 142.263 19.1313 142.263 18.412ZM148.295 18.425C148.295 17.8877 148.187 17.4197 147.97 17.021C147.753 16.6223 147.459 16.319 147.086 16.111C146.722 15.8943 146.319 15.786 145.877 15.786C145.435 15.786 145.032 15.89 144.668 16.098C144.304 16.306 144.014 16.6093 143.797 17.008C143.58 17.4067 143.472 17.8747 143.472 18.412C143.472 18.958 143.58 19.4347 143.797 19.842C144.014 20.2407 144.304 20.5483 144.668 20.765C145.032 20.973 145.435 21.077 145.877 21.077C146.319 21.077 146.722 20.973 147.086 20.765C147.459 20.5483 147.753 20.2407 147.97 19.842C148.187 19.4347 148.295 18.9623 148.295 18.425Z" fill="#616875"/>
</svg>
