<svg width="200" height="34" viewBox="0 0 200 34" fill="none" xmlns="http://www.w3.org/2000/svg">
<rect width="200" height="34" rx="6" fill="#DDDEDF"/>
<path d="M49.594 12.939C50.582 12.939 51.4356 13.1253 52.155 13.498C52.883 13.862 53.4376 14.3863 53.819 15.071C54.209 15.7557 54.404 16.5617 54.404 17.489C54.404 18.4163 54.209 19.2223 53.819 19.907C53.4376 20.583 52.883 21.103 52.155 21.467C51.4356 21.8223 50.582 22 49.594 22H46.773V12.939H49.594ZM49.594 21.025C50.764 21.025 51.6566 20.7173 52.272 20.102C52.8873 19.478 53.195 18.607 53.195 17.489C53.195 16.3623 52.883 15.4827 52.259 14.85C51.6436 14.2173 50.7553 13.901 49.594 13.901H47.956V21.025H49.594ZM55.5224 18.412C55.5224 17.684 55.6697 17.047 55.9644 16.501C56.259 15.9463 56.662 15.5173 57.1734 15.214C57.6934 14.9107 58.2697 14.759 58.9024 14.759C59.5264 14.759 60.068 14.8933 60.5274 15.162C60.9867 15.4307 61.329 15.7687 61.5544 16.176V14.876H62.7504V22H61.5544V20.674C61.3204 21.09 60.9694 21.4367 60.5014 21.714C60.042 21.9827 59.5047 22.117 58.8894 22.117C58.2567 22.117 57.6847 21.961 57.1734 21.649C56.662 21.337 56.259 20.8993 55.9644 20.336C55.6697 19.7727 55.5224 19.1313 55.5224 18.412ZM61.5544 18.425C61.5544 17.8877 61.446 17.4197 61.2294 17.021C61.0127 16.6223 60.718 16.319 60.3454 16.111C59.9814 15.8943 59.5784 15.786 59.1364 15.786C58.6944 15.786 58.2914 15.89 57.9274 16.098C57.5634 16.306 57.273 16.6093 57.0564 17.008C56.8397 17.4067 56.7314 17.8747 56.7314 18.412C56.7314 18.958 56.8397 19.4347 57.0564 19.842C57.273 20.2407 57.5634 20.5483 57.9274 20.765C58.2914 20.973 58.6944 21.077 59.1364 21.077C59.5784 21.077 59.9814 20.973 60.3454 20.765C60.718 20.5483 61.0127 20.2407 61.2294 19.842C61.446 19.4347 61.5544 18.9623 61.5544 18.425ZM66.1925 15.851V20.05C66.1925 20.3967 66.2662 20.6437 66.4135 20.791C66.5609 20.9297 66.8165 20.999 67.1805 20.999H68.0515V22H66.9855C66.3269 22 65.8329 21.8483 65.5035 21.545C65.1742 21.2417 65.0095 20.7433 65.0095 20.05V15.851H64.0865V14.876H65.0095V13.082H66.1925V14.876H68.0515V15.851H66.1925ZM69.0429 18.412C69.0429 17.684 69.1902 17.047 69.4849 16.501C69.7796 15.9463 70.1826 15.5173 70.6939 15.214C71.2139 14.9107 71.7902 14.759 72.4229 14.759C73.0469 14.759 73.5886 14.8933 74.0479 15.162C74.5072 15.4307 74.8496 15.7687 75.0749 16.176V14.876H76.2709V22H75.0749V20.674C74.8409 21.09 74.4899 21.4367 74.0219 21.714C73.5626 21.9827 73.0252 22.117 72.4099 22.117C71.7772 22.117 71.2052 21.961 70.6939 21.649C70.1826 21.337 69.7796 20.8993 69.4849 20.336C69.1902 19.7727 69.0429 19.1313 69.0429 18.412ZM75.0749 18.425C75.0749 17.8877 74.9666 17.4197 74.7499 17.021C74.5332 16.6223 74.2386 16.319 73.8659 16.111C73.5019 15.8943 73.0989 15.786 72.6569 15.786C72.2149 15.786 71.8119 15.89 71.4479 16.098C71.0839 16.306 70.7936 16.6093 70.5769 17.008C70.3602 17.4067 70.2519 17.8747 70.2519 18.412C70.2519 18.958 70.3602 19.4347 70.5769 19.842C70.7936 20.2407 71.0839 20.5483 71.4479 20.765C71.8119 20.973 72.2149 21.077 72.6569 21.077C73.0989 21.077 73.5019 20.973 73.8659 20.765C74.2386 20.5483 74.5332 20.2407 74.7499 19.842C74.9666 19.4347 75.0749 18.9623 75.0749 18.425ZM81.2939 18.425C81.2939 17.6883 81.4412 17.047 81.7359 16.501C82.0305 15.9463 82.4379 15.5173 82.9579 15.214C83.4865 14.9107 84.0889 14.759 84.7649 14.759C85.6402 14.759 86.3595 14.9713 86.9229 15.396C87.4949 15.8207 87.8719 16.41 88.0539 17.164H86.7799C86.6585 16.7307 86.4202 16.3883 86.0649 16.137C85.7182 15.8857 85.2849 15.76 84.7649 15.76C84.0889 15.76 83.5429 15.994 83.1269 16.462C82.7109 16.9213 82.5029 17.5757 82.5029 18.425C82.5029 19.283 82.7109 19.946 83.1269 20.414C83.5429 20.882 84.0889 21.116 84.7649 21.116C85.2849 21.116 85.7182 20.9947 86.0649 20.752C86.4115 20.5093 86.6499 20.1627 86.7799 19.712H88.0539C87.8632 20.44 87.4819 21.025 86.9099 21.467C86.3379 21.9003 85.6229 22.117 84.7649 22.117C84.0889 22.117 83.4865 21.9653 82.9579 21.662C82.4379 21.3587 82.0305 20.9297 81.7359 20.375C81.4412 19.8203 81.2939 19.1703 81.2939 18.425ZM92.7393 22.117C92.072 22.117 91.4653 21.9653 90.9193 21.662C90.382 21.3587 89.9573 20.9297 89.6453 20.375C89.342 19.8117 89.1903 19.1617 89.1903 18.425C89.1903 17.697 89.3463 17.0557 89.6583 16.501C89.979 15.9377 90.4123 15.5087 90.9583 15.214C91.5043 14.9107 92.1153 14.759 92.7913 14.759C93.4673 14.759 94.0783 14.9107 94.6243 15.214C95.1703 15.5087 95.5993 15.9333 95.9113 16.488C96.232 17.0427 96.3923 17.6883 96.3923 18.425C96.3923 19.1617 96.2277 19.8117 95.8983 20.375C95.5777 20.9297 95.14 21.3587 94.5853 21.662C94.0307 21.9653 93.4153 22.117 92.7393 22.117ZM92.7393 21.077C93.164 21.077 93.5627 20.9773 93.9353 20.778C94.308 20.5787 94.607 20.2797 94.8323 19.881C95.0663 19.4823 95.1833 18.997 95.1833 18.425C95.1833 17.853 95.0707 17.3677 94.8453 16.969C94.62 16.5703 94.3253 16.2757 93.9613 16.085C93.5973 15.8857 93.203 15.786 92.7783 15.786C92.345 15.786 91.9463 15.8857 91.5823 16.085C91.227 16.2757 90.941 16.5703 90.7243 16.969C90.5077 17.3677 90.3993 17.853 90.3993 18.425C90.3993 19.0057 90.5033 19.4953 90.7113 19.894C90.928 20.2927 91.214 20.5917 91.5693 20.791C91.9247 20.9817 92.3147 21.077 92.7393 21.077ZM101.419 14.746C102.285 14.746 102.987 15.0103 103.525 15.539C104.062 16.059 104.331 16.813 104.331 17.801V22H103.161V17.97C103.161 17.2593 102.983 16.7177 102.628 16.345C102.272 15.9637 101.787 15.773 101.172 15.773C100.548 15.773 100.049 15.968 99.6768 16.358C99.3128 16.748 99.1308 17.3157 99.1308 18.061V22H97.9478V14.876H99.1308V15.89C99.3648 15.526 99.6811 15.2443 100.08 15.045C100.487 14.8457 100.933 14.746 101.419 14.746ZM109.734 14.746C110.601 14.746 111.303 15.0103 111.84 15.539C112.378 16.059 112.646 16.813 112.646 17.801V22H111.476V17.97C111.476 17.2593 111.299 16.7177 110.943 16.345C110.588 15.9637 110.103 15.773 109.487 15.773C108.863 15.773 108.365 15.968 107.992 16.358C107.628 16.748 107.446 17.3157 107.446 18.061V22H106.263V14.876H107.446V15.89C107.68 15.526 107.997 15.2443 108.395 15.045C108.803 14.8457 109.249 14.746 109.734 14.746ZM121.079 18.165C121.079 18.3903 121.066 18.6287 121.04 18.88H115.346C115.389 19.582 115.627 20.1323 116.061 20.531C116.503 20.921 117.036 21.116 117.66 21.116C118.171 21.116 118.596 20.999 118.934 20.765C119.28 20.5223 119.523 20.2017 119.662 19.803H120.936C120.745 20.4877 120.364 21.0467 119.792 21.48C119.22 21.9047 118.509 22.117 117.66 22.117C116.984 22.117 116.377 21.9653 115.84 21.662C115.311 21.3587 114.895 20.9297 114.592 20.375C114.288 19.8117 114.137 19.1617 114.137 18.425C114.137 17.6883 114.284 17.0427 114.579 16.488C114.873 15.9333 115.285 15.5087 115.814 15.214C116.351 14.9107 116.966 14.759 117.66 14.759C118.336 14.759 118.934 14.9063 119.454 15.201C119.974 15.4957 120.372 15.903 120.65 16.423C120.936 16.9343 121.079 17.515 121.079 18.165ZM119.857 17.918C119.857 17.4673 119.757 17.0817 119.558 16.761C119.358 16.4317 119.085 16.1847 118.739 16.02C118.401 15.8467 118.024 15.76 117.608 15.76C117.01 15.76 116.498 15.9507 116.074 16.332C115.658 16.7133 115.419 17.242 115.359 17.918H119.857ZM122.198 18.425C122.198 17.6883 122.345 17.047 122.64 16.501C122.935 15.9463 123.342 15.5173 123.862 15.214C124.391 14.9107 124.993 14.759 125.669 14.759C126.544 14.759 127.264 14.9713 127.827 15.396C128.399 15.8207 128.776 16.41 128.958 17.164H127.684C127.563 16.7307 127.324 16.3883 126.969 16.137C126.622 15.8857 126.189 15.76 125.669 15.76C124.993 15.76 124.447 15.994 124.031 16.462C123.615 16.9213 123.407 17.5757 123.407 18.425C123.407 19.283 123.615 19.946 124.031 20.414C124.447 20.882 124.993 21.116 125.669 21.116C126.189 21.116 126.622 20.9947 126.969 20.752C127.316 20.5093 127.554 20.1627 127.684 19.712H128.958C128.767 20.44 128.386 21.025 127.814 21.467C127.242 21.9003 126.527 22.117 125.669 22.117C124.993 22.117 124.391 21.9653 123.862 21.662C123.342 21.3587 122.935 20.9297 122.64 20.375C122.345 19.8203 122.198 19.1703 122.198 18.425ZM131.98 15.851V20.05C131.98 20.3967 132.053 20.6437 132.201 20.791C132.348 20.9297 132.604 20.999 132.968 20.999H133.839V22H132.773C132.114 22 131.62 21.8483 131.291 21.545C130.961 21.2417 130.797 20.7433 130.797 20.05V15.851H129.874V14.876H130.797V13.082H131.98V14.876H133.839V15.851H131.98ZM138.379 22.117C137.712 22.117 137.105 21.9653 136.559 21.662C136.022 21.3587 135.597 20.9297 135.285 20.375C134.982 19.8117 134.83 19.1617 134.83 18.425C134.83 17.697 134.986 17.0557 135.298 16.501C135.619 15.9377 136.052 15.5087 136.598 15.214C137.144 14.9107 137.755 14.759 138.431 14.759C139.107 14.759 139.718 14.9107 140.264 15.214C140.81 15.5087 141.239 15.9333 141.551 16.488C141.872 17.0427 142.032 17.6883 142.032 18.425C142.032 19.1617 141.867 19.8117 141.538 20.375C141.217 20.9297 140.78 21.3587 140.225 21.662C139.67 21.9653 139.055 22.117 138.379 22.117ZM138.379 21.077C138.804 21.077 139.202 20.9773 139.575 20.778C139.948 20.5787 140.247 20.2797 140.472 19.881C140.706 19.4823 140.823 18.997 140.823 18.425C140.823 17.853 140.71 17.3677 140.485 16.969C140.26 16.5703 139.965 16.2757 139.601 16.085C139.237 15.8857 138.843 15.786 138.418 15.786C137.985 15.786 137.586 15.8857 137.222 16.085C136.867 16.2757 136.581 16.5703 136.364 16.969C136.147 17.3677 136.039 17.853 136.039 18.425C136.039 19.0057 136.143 19.4953 136.351 19.894C136.568 20.2927 136.854 20.5917 137.209 20.791C137.564 20.9817 137.954 21.077 138.379 21.077ZM144.77 16.033C144.978 15.6257 145.273 15.3093 145.654 15.084C146.044 14.8587 146.517 14.746 147.071 14.746V15.968H146.759C145.433 15.968 144.77 16.6873 144.77 18.126V22H143.587V14.876H144.77V16.033ZM150.959 22.117C150.413 22.117 149.923 22.026 149.49 21.844C149.057 21.6533 148.714 21.3933 148.463 21.064C148.212 20.726 148.073 20.3403 148.047 19.907H149.269C149.304 20.2623 149.468 20.5527 149.763 20.778C150.066 21.0033 150.461 21.116 150.946 21.116C151.397 21.116 151.752 21.0163 152.012 20.817C152.272 20.6177 152.402 20.3663 152.402 20.063C152.402 19.751 152.263 19.5213 151.986 19.374C151.709 19.218 151.28 19.0663 150.699 18.919C150.17 18.7803 149.737 18.6417 149.399 18.503C149.07 18.3557 148.784 18.1433 148.541 17.866C148.307 17.58 148.19 17.2073 148.19 16.748C148.19 16.384 148.298 16.0503 148.515 15.747C148.732 15.4437 149.039 15.2053 149.438 15.032C149.837 14.85 150.292 14.759 150.803 14.759C151.592 14.759 152.229 14.9583 152.714 15.357C153.199 15.7557 153.459 16.3017 153.494 16.995H152.311C152.285 16.6223 152.133 16.3233 151.856 16.098C151.587 15.8727 151.223 15.76 150.764 15.76C150.339 15.76 150.001 15.851 149.75 16.033C149.499 16.215 149.373 16.4533 149.373 16.748C149.373 16.982 149.447 17.177 149.594 17.333C149.75 17.4803 149.941 17.6017 150.166 17.697C150.4 17.7837 150.721 17.8833 151.128 17.996C151.639 18.1347 152.055 18.2733 152.376 18.412C152.697 18.542 152.97 18.7413 153.195 19.01C153.429 19.2787 153.55 19.6297 153.559 20.063C153.559 20.453 153.451 20.804 153.234 21.116C153.017 21.428 152.71 21.675 152.311 21.857C151.921 22.0303 151.47 22.117 150.959 22.117Z" fill="#616875"/>
</svg>
