<svg width="200" height="34" viewBox="0 0 200 34" fill="none" xmlns="http://www.w3.org/2000/svg">
<path d="M200 6C200 2.68629 197.314 0 194 0H0V34H194C197.314 34 200 31.3137 200 28V6Z" fill="#DDDEDF"/>
<path d="M200 6C200 2.68629 197.314 0 194 0H0V34H194C197.314 34 200 31.3137 200 28V6Z" fill="#DDDEDF"/>
<path d="M65.2527 11.742V17.916C65.2527 18.784 65.4627 19.428 65.8827 19.848C66.312 20.268 66.9047 20.478 67.6607 20.478C68.4074 20.478 68.9907 20.268 69.4107 19.848C69.84 19.428 70.0547 18.784 70.0547 17.916V11.742H71.3287V17.902C71.3287 18.714 71.1654 19.4 70.8387 19.96C70.512 20.5107 70.0687 20.9213 69.5087 21.192C68.958 21.4627 68.3374 21.598 67.6467 21.598C66.956 21.598 66.3307 21.4627 65.7707 21.192C65.22 20.9213 64.7814 20.5107 64.4547 19.96C64.1374 19.4 63.9787 18.714 63.9787 17.902V11.742H65.2527ZM74.728 15.242C74.98 14.8033 75.3533 14.4393 75.848 14.15C76.352 13.8513 76.9353 13.702 77.598 13.702C78.2793 13.702 78.8953 13.8653 79.446 14.192C80.006 14.5187 80.4446 14.9807 80.762 15.578C81.0793 16.166 81.238 16.852 81.238 17.636C81.238 18.4107 81.0793 19.1013 80.762 19.708C80.4446 20.3147 80.006 20.786 79.446 21.122C78.8953 21.458 78.2793 21.626 77.598 21.626C76.9446 21.626 76.366 21.4813 75.862 21.192C75.3673 20.8933 74.9893 20.5247 74.728 20.086V25.14H73.454V13.828H74.728V15.242ZM79.936 17.636C79.936 17.0573 79.8193 16.5533 79.586 16.124C79.3526 15.6947 79.0353 15.368 78.634 15.144C78.242 14.92 77.808 14.808 77.332 14.808C76.8653 14.808 76.4313 14.9247 76.03 15.158C75.638 15.382 75.3206 15.7133 75.078 16.152C74.8446 16.5813 74.728 17.0807 74.728 17.65C74.728 18.2287 74.8446 18.7373 75.078 19.176C75.3206 19.6053 75.638 19.9367 76.03 20.17C76.4313 20.394 76.8653 20.506 77.332 20.506C77.808 20.506 78.242 20.394 78.634 20.17C79.0353 19.9367 79.3526 19.6053 79.586 19.176C79.8193 18.7373 79.936 18.224 79.936 17.636ZM84.1889 11.14V21.5H82.9149V11.14H84.1889ZM89.7062 21.626C88.9876 21.626 88.3342 21.4627 87.7462 21.136C87.1676 20.8093 86.7102 20.3473 86.3742 19.75C86.0476 19.1433 85.8842 18.4433 85.8842 17.65C85.8842 16.866 86.0522 16.1753 86.3882 15.578C86.7336 14.9713 87.2002 14.5093 87.7882 14.192C88.3762 13.8653 89.0342 13.702 89.7622 13.702C90.4902 13.702 91.1482 13.8653 91.7362 14.192C92.3242 14.5093 92.7862 14.9667 93.1222 15.564C93.4676 16.1613 93.6402 16.8567 93.6402 17.65C93.6402 18.4433 93.4629 19.1433 93.1082 19.75C92.7629 20.3473 92.2916 20.8093 91.6942 21.136C91.0969 21.4627 90.4342 21.626 89.7062 21.626ZM89.7062 20.506C90.1636 20.506 90.5929 20.3987 90.9942 20.184C91.3956 19.9693 91.7176 19.6473 91.9602 19.218C92.2122 18.7887 92.3382 18.266 92.3382 17.65C92.3382 17.034 92.2169 16.5113 91.9742 16.082C91.7316 15.6527 91.4142 15.3353 91.0222 15.13C90.6302 14.9153 90.2056 14.808 89.7482 14.808C89.2816 14.808 88.8522 14.9153 88.4602 15.13C88.0776 15.3353 87.7696 15.6527 87.5362 16.082C87.3029 16.5113 87.1862 17.034 87.1862 17.65C87.1862 18.2753 87.2982 18.8027 87.5222 19.232C87.7556 19.6613 88.0636 19.9833 88.4462 20.198C88.8289 20.4033 89.2489 20.506 89.7062 20.506ZM94.8393 17.636C94.8393 16.852 94.998 16.166 95.3153 15.578C95.6326 14.9807 96.0666 14.5187 96.6173 14.192C97.1773 13.8653 97.798 13.702 98.4793 13.702C99.1513 13.702 99.7346 13.8467 100.229 14.136C100.724 14.4253 101.093 14.7893 101.335 15.228V13.828H102.623V21.5H101.335V20.072C101.083 20.52 100.705 20.8933 100.201 21.192C99.7066 21.4813 99.128 21.626 98.4653 21.626C97.784 21.626 97.168 21.458 96.6173 21.122C96.0666 20.786 95.6326 20.3147 95.3153 19.708C94.998 19.1013 94.8393 18.4107 94.8393 17.636ZM101.335 17.65C101.335 17.0713 101.219 16.5673 100.985 16.138C100.752 15.7087 100.435 15.382 100.033 15.158C99.6413 14.9247 99.2073 14.808 98.7313 14.808C98.2553 14.808 97.8213 14.92 97.4293 15.144C97.0373 15.368 96.7246 15.6947 96.4913 16.124C96.258 16.5533 96.1413 17.0573 96.1413 17.636C96.1413 18.224 96.258 18.7373 96.4913 19.176C96.7246 19.6053 97.0373 19.9367 97.4293 20.17C97.8213 20.394 98.2553 20.506 98.7313 20.506C99.2073 20.506 99.6413 20.394 100.033 20.17C100.435 19.9367 100.752 19.6053 100.985 19.176C101.219 18.7373 101.335 18.2287 101.335 17.65ZM104.3 17.636C104.3 16.852 104.459 16.166 104.776 15.578C105.094 14.9807 105.528 14.5187 106.078 14.192C106.638 13.8653 107.264 13.702 107.954 13.702C108.552 13.702 109.107 13.842 109.62 14.122C110.134 14.3927 110.526 14.752 110.796 15.2V11.14H112.084V21.5H110.796V20.058C110.544 20.5153 110.171 20.8933 109.676 21.192C109.182 21.4813 108.603 21.626 107.94 21.626C107.259 21.626 106.638 21.458 106.078 21.122C105.528 20.786 105.094 20.3147 104.776 19.708C104.459 19.1013 104.3 18.4107 104.3 17.636ZM110.796 17.65C110.796 17.0713 110.68 16.5673 110.446 16.138C110.213 15.7087 109.896 15.382 109.494 15.158C109.102 14.9247 108.668 14.808 108.192 14.808C107.716 14.808 107.282 14.92 106.89 15.144C106.498 15.368 106.186 15.6947 105.952 16.124C105.719 16.5533 105.602 17.0573 105.602 17.636C105.602 18.224 105.719 18.7373 105.952 19.176C106.186 19.6053 106.498 19.9367 106.89 20.17C107.282 20.394 107.716 20.506 108.192 20.506C108.668 20.506 109.102 20.394 109.494 20.17C109.896 19.9367 110.213 19.6053 110.446 19.176C110.68 18.7373 110.796 18.2287 110.796 17.65ZM121.092 14.878H119.482V21.5H118.208V14.878H117.214V13.828H118.208V13.282C118.208 12.4233 118.427 11.798 118.866 11.406C119.314 11.0047 120.028 10.804 121.008 10.804V11.868C120.448 11.868 120.051 11.98 119.818 12.204C119.594 12.4187 119.482 12.778 119.482 13.282V13.828H121.092V14.878ZM123.235 12.582C122.992 12.582 122.787 12.498 122.619 12.33C122.451 12.162 122.367 11.9567 122.367 11.714C122.367 11.4713 122.451 11.266 122.619 11.098C122.787 10.93 122.992 10.846 123.235 10.846C123.468 10.846 123.664 10.93 123.823 11.098C123.991 11.266 124.075 11.4713 124.075 11.714C124.075 11.9567 123.991 12.162 123.823 12.33C123.664 12.498 123.468 12.582 123.235 12.582ZM123.851 13.828V21.5H122.577V13.828H123.851ZM127.296 11.14V21.5H126.022V11.14H127.296ZM136.468 17.37C136.468 17.6127 136.454 17.8693 136.426 18.14H130.294C130.34 18.896 130.597 19.4887 131.064 19.918C131.54 20.338 132.114 20.548 132.786 20.548C133.336 20.548 133.794 20.422 134.158 20.17C134.531 19.9087 134.792 19.5633 134.942 19.134H136.314C136.108 19.8713 135.698 20.4733 135.082 20.94C134.466 21.3973 133.7 21.626 132.786 21.626C132.058 21.626 131.404 21.4627 130.826 21.136C130.256 20.8093 129.808 20.3473 129.482 19.75C129.155 19.1433 128.992 18.4433 128.992 17.65C128.992 16.8567 129.15 16.1613 129.468 15.564C129.785 14.9667 130.228 14.5093 130.798 14.192C131.376 13.8653 132.039 13.702 132.786 13.702C133.514 13.702 134.158 13.8607 134.718 14.178C135.278 14.4953 135.707 14.934 136.006 15.494C136.314 16.0447 136.468 16.67 136.468 17.37ZM135.152 17.104C135.152 16.6187 135.044 16.2033 134.83 15.858C134.615 15.5033 134.321 15.2373 133.948 15.06C133.584 14.8733 133.178 14.78 132.73 14.78C132.086 14.78 131.535 14.9853 131.078 15.396C130.63 15.8067 130.373 16.376 130.308 17.104H135.152Z" fill="#616875"/>
</svg>
