<svg width="200" height="34" viewBox="0 0 200 34" fill="none" xmlns="http://www.w3.org/2000/svg">
<rect width="200" height="34" rx="6" fill="#52DE97"/>
<path d="M93.0021 22L90.6781 18.01H89.1381V22H87.8641V12.242H91.0141C91.7515 12.242 92.3721 12.368 92.8761 12.62C93.3895 12.872 93.7721 13.2127 94.0241 13.642C94.2761 14.0713 94.4021 14.5613 94.4021 15.112C94.4021 15.784 94.2061 16.3767 93.8141 16.89C93.4315 17.4033 92.8528 17.744 92.0781 17.912L94.5281 22H93.0021ZM89.1381 16.988H91.0141C91.7048 16.988 92.2228 16.82 92.5681 16.484C92.9135 16.1387 93.0861 15.6813 93.0861 15.112C93.0861 14.5333 92.9135 14.0853 92.5681 13.768C92.2321 13.4507 91.7141 13.292 91.0141 13.292H89.1381V16.988ZM103.186 14.328V22H101.912V20.866C101.669 21.258 101.328 21.566 100.89 21.79C100.46 22.0047 99.9844 22.112 99.4617 22.112C98.8644 22.112 98.3277 21.9907 97.8517 21.748C97.3757 21.496 96.9977 21.1227 96.7177 20.628C96.447 20.1333 96.3117 19.5313 96.3117 18.822V14.328H97.5717V18.654C97.5717 19.41 97.763 19.9933 98.1457 20.404C98.5284 20.8053 99.051 21.006 99.7137 21.006C100.395 21.006 100.932 20.796 101.324 20.376C101.716 19.956 101.912 19.3447 101.912 18.542V14.328H103.186ZM109.075 14.188C110.008 14.188 110.764 14.4727 111.343 15.042C111.921 15.602 112.211 16.414 112.211 17.478V22H110.951V17.66C110.951 16.8947 110.759 16.3113 110.377 15.91C109.994 15.4993 109.471 15.294 108.809 15.294C108.137 15.294 107.6 15.504 107.199 15.924C106.807 16.344 106.611 16.9553 106.611 17.758V22H105.337V14.328H106.611V15.42C106.863 15.028 107.203 14.7247 107.633 14.51C108.071 14.2953 108.552 14.188 109.075 14.188Z" fill="#13115B"/>
</svg>
