<svg width="200" height="35" viewBox="0 0 200 35" fill="none" xmlns="http://www.w3.org/2000/svg">
<rect width="200" height="35" rx="6" fill="#52DE97"/>
<path d="M46.5 17.5H62.5" stroke="#13115B"/>
<path d="M54.5 9.5L54.5 25.5" stroke="#13115B"/>
<path d="M79.7139 22H78.4399L73.3159 14.23V22H72.0419V12.228H73.3159L78.4399 19.984V12.228H79.7139V22ZM88.8856 17.87C88.8856 18.1127 88.8716 18.3693 88.8436 18.64H82.7116C82.7583 19.396 83.015 19.9887 83.4816 20.418C83.9576 20.838 84.5316 21.048 85.2036 21.048C85.7543 21.048 86.2116 20.922 86.5756 20.67C86.949 20.4087 87.2103 20.0633 87.3596 19.634H88.7316C88.5263 20.3713 88.1156 20.9733 87.4996 21.44C86.8836 21.8973 86.1183 22.126 85.2036 22.126C84.4756 22.126 83.8223 21.9627 83.2436 21.636C82.6743 21.3093 82.2263 20.8473 81.8996 20.25C81.573 19.6433 81.4096 18.9433 81.4096 18.15C81.4096 17.3567 81.5683 16.6613 81.8856 16.064C82.203 15.4667 82.6463 15.0093 83.2156 14.692C83.7943 14.3653 84.457 14.202 85.2036 14.202C85.9316 14.202 86.5756 14.3607 87.1356 14.678C87.6956 14.9953 88.125 15.434 88.4236 15.994C88.7316 16.5447 88.8856 17.17 88.8856 17.87ZM87.5696 17.604C87.5696 17.1187 87.4623 16.7033 87.2476 16.358C87.033 16.0033 86.739 15.7373 86.3656 15.56C86.0016 15.3733 85.5956 15.28 85.1476 15.28C84.5036 15.28 83.953 15.4853 83.4956 15.896C83.0476 16.3067 82.791 16.876 82.7256 17.604H87.5696ZM100.787 14.328L98.3933 22H97.0773L95.2293 15.91L93.3813 22H92.0653L89.6573 14.328H90.9593L92.7233 20.768L94.6273 14.328H95.9293L97.7913 20.782L99.5273 14.328H100.787ZM108.5 22.126C107.912 22.126 107.385 22.028 106.918 21.832C106.451 21.6267 106.083 21.3467 105.812 20.992C105.541 20.628 105.392 20.2127 105.364 19.746H106.68C106.717 20.1287 106.895 20.4413 107.212 20.684C107.539 20.9267 107.963 21.048 108.486 21.048C108.971 21.048 109.354 20.9407 109.634 20.726C109.914 20.5113 110.054 20.2407 110.054 19.914C110.054 19.578 109.905 19.3307 109.606 19.172C109.307 19.004 108.845 18.8407 108.22 18.682C107.651 18.5327 107.184 18.3833 106.82 18.234C106.465 18.0753 106.157 17.8467 105.896 17.548C105.644 17.24 105.518 16.8387 105.518 16.344C105.518 15.952 105.635 15.5927 105.868 15.266C106.101 14.9393 106.433 14.6827 106.862 14.496C107.291 14.3 107.781 14.202 108.332 14.202C109.181 14.202 109.867 14.4167 110.39 14.846C110.913 15.2753 111.193 15.8633 111.23 16.61H109.956C109.928 16.2087 109.765 15.8867 109.466 15.644C109.177 15.4013 108.785 15.28 108.29 15.28C107.833 15.28 107.469 15.378 107.198 15.574C106.927 15.77 106.792 16.0267 106.792 16.344C106.792 16.596 106.871 16.806 107.03 16.974C107.198 17.1327 107.403 17.2633 107.646 17.366C107.898 17.4593 108.243 17.5667 108.682 17.688C109.233 17.8373 109.681 17.9867 110.026 18.136C110.371 18.276 110.665 18.4907 110.908 18.78C111.16 19.0693 111.291 19.4473 111.3 19.914C111.3 20.334 111.183 20.712 110.95 21.048C110.717 21.384 110.385 21.65 109.956 21.846C109.536 22.0327 109.051 22.126 108.5 22.126ZM114.653 15.378V19.9C114.653 20.2733 114.732 20.5393 114.891 20.698C115.049 20.8473 115.325 20.922 115.717 20.922H116.655V22H115.507C114.797 22 114.265 21.8367 113.911 21.51C113.556 21.1833 113.379 20.6467 113.379 19.9V15.378H112.385V14.328H113.379V12.396H114.653V14.328H116.655V15.378H114.653ZM117.722 18.136C117.722 17.352 117.881 16.666 118.198 16.078C118.515 15.4807 118.949 15.0187 119.5 14.692C120.06 14.3653 120.681 14.202 121.362 14.202C122.034 14.202 122.617 14.3467 123.112 14.636C123.607 14.9253 123.975 15.2893 124.218 15.728V14.328H125.506V22H124.218V20.572C123.966 21.02 123.588 21.3933 123.084 21.692C122.589 21.9813 122.011 22.126 121.348 22.126C120.667 22.126 120.051 21.958 119.5 21.622C118.949 21.286 118.515 20.8147 118.198 20.208C117.881 19.6013 117.722 18.9107 117.722 18.136ZM124.218 18.15C124.218 17.5713 124.101 17.0673 123.868 16.638C123.635 16.2087 123.317 15.882 122.916 15.658C122.524 15.4247 122.09 15.308 121.614 15.308C121.138 15.308 120.704 15.42 120.312 15.644C119.92 15.868 119.607 16.1947 119.374 16.624C119.141 17.0533 119.024 17.5573 119.024 18.136C119.024 18.724 119.141 19.2373 119.374 19.676C119.607 20.1053 119.92 20.4367 120.312 20.67C120.704 20.894 121.138 21.006 121.614 21.006C122.09 21.006 122.524 20.894 122.916 20.67C123.317 20.4367 123.635 20.1053 123.868 19.676C124.101 19.2373 124.218 18.7287 124.218 18.15ZM129.213 15.378V19.9C129.213 20.2733 129.292 20.5393 129.451 20.698C129.61 20.8473 129.885 20.922 130.277 20.922H131.215V22H130.067C129.358 22 128.826 21.8367 128.471 21.51C128.116 21.1833 127.939 20.6467 127.939 19.9V15.378H126.945V14.328H127.939V12.396H129.213V14.328H131.215V15.378H129.213ZM133.417 13.082C133.174 13.082 132.969 12.998 132.801 12.83C132.633 12.662 132.549 12.4567 132.549 12.214C132.549 11.9713 132.633 11.766 132.801 11.598C132.969 11.43 133.174 11.346 133.417 11.346C133.65 11.346 133.846 11.43 134.005 11.598C134.173 11.766 134.257 11.9713 134.257 12.214C134.257 12.4567 134.173 12.662 134.005 12.83C133.846 12.998 133.65 13.082 133.417 13.082ZM134.033 14.328V22H132.759V14.328H134.033ZM139.55 22.126C138.831 22.126 138.178 21.9627 137.59 21.636C137.011 21.3093 136.554 20.8473 136.218 20.25C135.891 19.6433 135.728 18.9433 135.728 18.15C135.728 17.366 135.896 16.6753 136.232 16.078C136.577 15.4713 137.044 15.0093 137.632 14.692C138.22 14.3653 138.878 14.202 139.606 14.202C140.334 14.202 140.992 14.3653 141.58 14.692C142.168 15.0093 142.63 15.4667 142.966 16.064C143.311 16.6613 143.484 17.3567 143.484 18.15C143.484 18.9433 143.307 19.6433 142.952 20.25C142.607 20.8473 142.135 21.3093 141.538 21.636C140.941 21.9627 140.278 22.126 139.55 22.126ZM139.55 21.006C140.007 21.006 140.437 20.8987 140.838 20.684C141.239 20.4693 141.561 20.1473 141.804 19.718C142.056 19.2887 142.182 18.766 142.182 18.15C142.182 17.534 142.061 17.0113 141.818 16.582C141.575 16.1527 141.258 15.8353 140.866 15.63C140.474 15.4153 140.049 15.308 139.592 15.308C139.125 15.308 138.696 15.4153 138.304 15.63C137.921 15.8353 137.613 16.1527 137.38 16.582C137.147 17.0113 137.03 17.534 137.03 18.15C137.03 18.7753 137.142 19.3027 137.366 19.732C137.599 20.1613 137.907 20.4833 138.29 20.698C138.673 20.9033 139.093 21.006 139.55 21.006ZM148.897 14.188C149.83 14.188 150.586 14.4727 151.165 15.042C151.744 15.602 152.033 16.414 152.033 17.478V22H150.773V17.66C150.773 16.8947 150.582 16.3113 150.199 15.91C149.816 15.4993 149.294 15.294 148.631 15.294C147.959 15.294 147.422 15.504 147.021 15.924C146.629 16.344 146.433 16.9553 146.433 17.758V22H145.159V14.328H146.433V15.42C146.685 15.028 147.026 14.7247 147.455 14.51C147.894 14.2953 148.374 14.188 148.897 14.188Z" fill="#13115B"/>
</svg>
