<svg width="200" height="34" viewBox="0 0 200 34" fill="none" xmlns="http://www.w3.org/2000/svg">
<rect width="200" height="34" rx="6" fill="#52DE97"/>
<path d="M45.7166 11.742C46.7806 11.742 47.6999 11.9427 48.4746 12.344C49.2586 12.736 49.8559 13.3007 50.2666 14.038C50.6866 14.7753 50.8966 15.6433 50.8966 16.642C50.8966 17.6407 50.6866 18.5087 50.2666 19.246C49.8559 19.974 49.2586 20.534 48.4746 20.926C47.6999 21.3087 46.7806 21.5 45.7166 21.5H42.6786V11.742H45.7166ZM45.7166 20.45C46.9766 20.45 47.9379 20.1187 48.6006 19.456C49.2633 18.784 49.5946 17.846 49.5946 16.642C49.5946 15.4287 49.2586 14.4813 48.5866 13.8C47.9239 13.1187 46.9673 12.778 45.7166 12.778H43.9526V20.45H45.7166ZM52.101 17.636C52.101 16.852 52.2597 16.166 52.577 15.578C52.8944 14.9807 53.3284 14.5187 53.879 14.192C54.439 13.8653 55.0597 13.702 55.741 13.702C56.413 13.702 56.9964 13.8467 57.491 14.136C57.9857 14.4253 58.3544 14.7893 58.597 15.228V13.828H59.885V21.5H58.597V20.072C58.345 20.52 57.967 20.8933 57.463 21.192C56.9684 21.4813 56.3897 21.626 55.727 21.626C55.0457 21.626 54.4297 21.458 53.879 21.122C53.3284 20.786 52.8944 20.3147 52.577 19.708C52.2597 19.1013 52.101 18.4107 52.101 17.636ZM58.597 17.65C58.597 17.0713 58.4804 16.5673 58.247 16.138C58.0137 15.7087 57.6964 15.382 57.295 15.158C56.903 14.9247 56.469 14.808 55.993 14.808C55.517 14.808 55.083 14.92 54.691 15.144C54.299 15.368 53.9864 15.6947 53.753 16.124C53.5197 16.5533 53.403 17.0573 53.403 17.636C53.403 18.224 53.5197 18.7373 53.753 19.176C53.9864 19.6053 54.299 19.9367 54.691 20.17C55.083 20.394 55.517 20.506 55.993 20.506C56.469 20.506 56.903 20.394 57.295 20.17C57.6964 19.9367 58.0137 19.6053 58.247 19.176C58.4804 18.7373 58.597 18.2287 58.597 17.65ZM63.592 14.878V19.4C63.592 19.7733 63.6713 20.0393 63.83 20.198C63.9886 20.3473 64.264 20.422 64.656 20.422H65.594V21.5H64.446C63.7366 21.5 63.2046 21.3367 62.85 21.01C62.4953 20.6833 62.318 20.1467 62.318 19.4V14.878H61.324V13.828H62.318V11.896H63.592V13.828H65.594V14.878H63.592ZM66.6616 17.636C66.6616 16.852 66.8202 16.166 67.1376 15.578C67.4549 14.9807 67.8889 14.5187 68.4396 14.192C68.9996 13.8653 69.6202 13.702 70.3016 13.702C70.9736 13.702 71.5569 13.8467 72.0516 14.136C72.5462 14.4253 72.9149 14.7893 73.1576 15.228V13.828H74.4456V21.5H73.1576V20.072C72.9056 20.52 72.5276 20.8933 72.0236 21.192C71.5289 21.4813 70.9502 21.626 70.2876 21.626C69.6062 21.626 68.9902 21.458 68.4396 21.122C67.8889 20.786 67.4549 20.3147 67.1376 19.708C66.8202 19.1013 66.6616 18.4107 66.6616 17.636ZM73.1576 17.65C73.1576 17.0713 73.0409 16.5673 72.8076 16.138C72.5742 15.7087 72.2569 15.382 71.8556 15.158C71.4636 14.9247 71.0296 14.808 70.5536 14.808C70.0776 14.808 69.6436 14.92 69.2516 15.144C68.8596 15.368 68.5469 15.6947 68.3136 16.124C68.0802 16.5533 67.9636 17.0573 67.9636 17.636C67.9636 18.224 68.0802 18.7373 68.3136 19.176C68.5469 19.6053 68.8596 19.9367 69.2516 20.17C69.6436 20.394 70.0776 20.506 70.5536 20.506C71.0296 20.506 71.4636 20.394 71.8556 20.17C72.2569 19.9367 72.5742 19.6053 72.8076 19.176C73.0409 18.7373 73.1576 18.2287 73.1576 17.65ZM79.8549 17.65C79.8549 16.8567 80.0136 16.166 80.3309 15.578C80.6483 14.9807 81.0869 14.5187 81.6469 14.192C82.2163 13.8653 82.8649 13.702 83.5929 13.702C84.5356 13.702 85.3103 13.9307 85.9169 14.388C86.5329 14.8453 86.9389 15.48 87.1349 16.292H85.7629C85.6323 15.8253 85.3756 15.4567 84.9929 15.186C84.6196 14.9153 84.1529 14.78 83.5929 14.78C82.8649 14.78 82.2769 15.032 81.8289 15.536C81.3809 16.0307 81.1569 16.7353 81.1569 17.65C81.1569 18.574 81.3809 19.288 81.8289 19.792C82.2769 20.296 82.8649 20.548 83.5929 20.548C84.1529 20.548 84.6196 20.4173 84.9929 20.156C85.3663 19.8947 85.6229 19.5213 85.7629 19.036H87.1349C86.9296 19.82 86.5189 20.45 85.9029 20.926C85.2869 21.3927 84.5169 21.626 83.5929 21.626C82.8649 21.626 82.2163 21.4627 81.6469 21.136C81.0869 20.8093 80.6483 20.3473 80.3309 19.75C80.0136 19.1527 79.8549 18.4527 79.8549 17.65ZM92.1808 21.626C91.4622 21.626 90.8088 21.4627 90.2208 21.136C89.6422 20.8093 89.1848 20.3473 88.8488 19.75C88.5222 19.1433 88.3588 18.4433 88.3588 17.65C88.3588 16.866 88.5268 16.1753 88.8628 15.578C89.2082 14.9713 89.6748 14.5093 90.2628 14.192C90.8508 13.8653 91.5088 13.702 92.2368 13.702C92.9648 13.702 93.6228 13.8653 94.2108 14.192C94.7988 14.5093 95.2608 14.9667 95.5968 15.564C95.9422 16.1613 96.1148 16.8567 96.1148 17.65C96.1148 18.4433 95.9375 19.1433 95.5828 19.75C95.2375 20.3473 94.7662 20.8093 94.1688 21.136C93.5715 21.4627 92.9088 21.626 92.1808 21.626ZM92.1808 20.506C92.6382 20.506 93.0675 20.3987 93.4688 20.184C93.8702 19.9693 94.1922 19.6473 94.4348 19.218C94.6868 18.7887 94.8128 18.266 94.8128 17.65C94.8128 17.034 94.6915 16.5113 94.4488 16.082C94.2062 15.6527 93.8888 15.3353 93.4968 15.13C93.1048 14.9153 92.6802 14.808 92.2228 14.808C91.7562 14.808 91.3268 14.9153 90.9348 15.13C90.5522 15.3353 90.2442 15.6527 90.0108 16.082C89.7775 16.5113 89.6608 17.034 89.6608 17.65C89.6608 18.2753 89.7728 18.8027 89.9968 19.232C90.2302 19.6613 90.5382 19.9833 90.9208 20.198C91.3035 20.4033 91.7235 20.506 92.1808 20.506ZM101.528 13.688C102.461 13.688 103.217 13.9727 103.796 14.542C104.375 15.102 104.664 15.914 104.664 16.978V21.5H103.404V17.16C103.404 16.3947 103.213 15.8113 102.83 15.41C102.447 14.9993 101.925 14.794 101.262 14.794C100.59 14.794 100.053 15.004 99.6519 15.424C99.2599 15.844 99.0639 16.4553 99.0639 17.258V21.5H97.7899V13.828H99.0639V14.92C99.3159 14.528 99.6566 14.2247 100.086 14.01C100.525 13.7953 101.005 13.688 101.528 13.688ZM110.483 13.688C111.416 13.688 112.172 13.9727 112.751 14.542C113.33 15.102 113.619 15.914 113.619 16.978V21.5H112.359V17.16C112.359 16.3947 112.168 15.8113 111.785 15.41C111.402 14.9993 110.88 14.794 110.217 14.794C109.545 14.794 109.008 15.004 108.607 15.424C108.215 15.844 108.019 16.4553 108.019 17.258V21.5H106.745V13.828H108.019V14.92C108.271 14.528 108.612 14.2247 109.041 14.01C109.48 13.7953 109.96 13.688 110.483 13.688ZM122.7 17.37C122.7 17.6127 122.686 17.8693 122.658 18.14H116.526C116.573 18.896 116.829 19.4887 117.296 19.918C117.772 20.338 118.346 20.548 119.018 20.548C119.569 20.548 120.026 20.422 120.39 20.17C120.763 19.9087 121.025 19.5633 121.174 19.134H122.546C122.341 19.8713 121.93 20.4733 121.314 20.94C120.698 21.3973 119.933 21.626 119.018 21.626C118.29 21.626 117.637 21.4627 117.058 21.136C116.489 20.8093 116.041 20.3473 115.714 19.75C115.387 19.1433 115.224 18.4433 115.224 17.65C115.224 16.8567 115.383 16.1613 115.7 15.564C116.017 14.9667 116.461 14.5093 117.03 14.192C117.609 13.8653 118.271 13.702 119.018 13.702C119.746 13.702 120.39 13.8607 120.95 14.178C121.51 14.4953 121.939 14.934 122.238 15.494C122.546 16.0447 122.7 16.67 122.7 17.37ZM121.384 17.104C121.384 16.6187 121.277 16.2033 121.062 15.858C120.847 15.5033 120.553 15.2373 120.18 15.06C119.816 14.8733 119.41 14.78 118.962 14.78C118.318 14.78 117.767 14.9853 117.31 15.396C116.862 15.8067 116.605 16.376 116.54 17.104H121.384ZM123.906 17.65C123.906 16.8567 124.064 16.166 124.382 15.578C124.699 14.9807 125.138 14.5187 125.698 14.192C126.267 13.8653 126.916 13.702 127.644 13.702C128.586 13.702 129.361 13.9307 129.968 14.388C130.584 14.8453 130.99 15.48 131.186 16.292H129.814C129.683 15.8253 129.426 15.4567 129.044 15.186C128.67 14.9153 128.204 14.78 127.644 14.78C126.916 14.78 126.328 15.032 125.88 15.536C125.432 16.0307 125.208 16.7353 125.208 17.65C125.208 18.574 125.432 19.288 125.88 19.792C126.328 20.296 126.916 20.548 127.644 20.548C128.204 20.548 128.67 20.4173 129.044 20.156C129.417 19.8947 129.674 19.5213 129.814 19.036H131.186C130.98 19.82 130.57 20.45 129.954 20.926C129.338 21.3927 128.568 21.626 127.644 21.626C126.916 21.626 126.267 21.4627 125.698 21.136C125.138 20.8093 124.699 20.3473 124.382 19.75C124.064 19.1527 123.906 18.4527 123.906 17.65ZM134.44 14.878V19.4C134.44 19.7733 134.519 20.0393 134.678 20.198C134.836 20.3473 135.112 20.422 135.504 20.422H136.442V21.5H135.294C134.584 21.5 134.052 21.3367 133.698 21.01C133.343 20.6833 133.166 20.1467 133.166 19.4V14.878H132.172V13.828H133.166V11.896H134.44V13.828H136.442V14.878H134.44ZM141.331 21.626C140.613 21.626 139.959 21.4627 139.371 21.136C138.793 20.8093 138.335 20.3473 137.999 19.75C137.673 19.1433 137.509 18.4433 137.509 17.65C137.509 16.866 137.677 16.1753 138.013 15.578C138.359 14.9713 138.825 14.5093 139.413 14.192C140.001 13.8653 140.659 13.702 141.387 13.702C142.115 13.702 142.773 13.8653 143.361 14.192C143.949 14.5093 144.411 14.9667 144.747 15.564C145.093 16.1613 145.265 16.8567 145.265 17.65C145.265 18.4433 145.088 19.1433 144.733 19.75C144.388 20.3473 143.917 20.8093 143.319 21.136C142.722 21.4627 142.059 21.626 141.331 21.626ZM141.331 20.506C141.789 20.506 142.218 20.3987 142.619 20.184C143.021 19.9693 143.343 19.6473 143.585 19.218C143.837 18.7887 143.963 18.266 143.963 17.65C143.963 17.034 143.842 16.5113 143.599 16.082C143.357 15.6527 143.039 15.3353 142.647 15.13C142.255 14.9153 141.831 14.808 141.373 14.808C140.907 14.808 140.477 14.9153 140.085 15.13C139.703 15.3353 139.395 15.6527 139.161 16.082C138.928 16.5113 138.811 17.034 138.811 17.65C138.811 18.2753 138.923 18.8027 139.147 19.232C139.381 19.6613 139.689 19.9833 140.071 20.198C140.454 20.4033 140.874 20.506 141.331 20.506ZM148.214 15.074C148.438 14.6353 148.756 14.2947 149.166 14.052C149.586 13.8093 150.095 13.688 150.692 13.688V15.004H150.356C148.928 15.004 148.214 15.7787 148.214 17.328V21.5H146.94V13.828H148.214V15.074ZM154.879 21.626C154.291 21.626 153.764 21.528 153.297 21.332C152.83 21.1267 152.462 20.8467 152.191 20.492C151.92 20.128 151.771 19.7127 151.743 19.246H153.059C153.096 19.6287 153.274 19.9413 153.591 20.184C153.918 20.4267 154.342 20.548 154.865 20.548C155.35 20.548 155.733 20.4407 156.013 20.226C156.293 20.0113 156.433 19.7407 156.433 19.414C156.433 19.078 156.284 18.8307 155.985 18.672C155.686 18.504 155.224 18.3407 154.599 18.182C154.03 18.0327 153.563 17.8833 153.199 17.734C152.844 17.5753 152.536 17.3467 152.275 17.048C152.023 16.74 151.897 16.3387 151.897 15.844C151.897 15.452 152.014 15.0927 152.247 14.766C152.48 14.4393 152.812 14.1827 153.241 13.996C153.67 13.8 154.16 13.702 154.711 13.702C155.56 13.702 156.246 13.9167 156.769 14.346C157.292 14.7753 157.572 15.3633 157.609 16.11H156.335C156.307 15.7087 156.144 15.3867 155.845 15.144C155.556 14.9013 155.164 14.78 154.669 14.78C154.212 14.78 153.848 14.878 153.577 15.074C153.306 15.27 153.171 15.5267 153.171 15.844C153.171 16.096 153.25 16.306 153.409 16.474C153.577 16.6327 153.782 16.7633 154.025 16.866C154.277 16.9593 154.622 17.0667 155.061 17.188C155.612 17.3373 156.06 17.4867 156.405 17.636C156.75 17.776 157.044 17.9907 157.287 18.28C157.539 18.5693 157.67 18.9473 157.679 19.414C157.679 19.834 157.562 20.212 157.329 20.548C157.096 20.884 156.764 21.15 156.335 21.346C155.915 21.5327 155.43 21.626 154.879 21.626Z" fill="#13115B"/>
</svg>
