<svg width="155" height="155" viewBox="0 0 155 155" fill="none" xmlns="http://www.w3.org/2000/svg">
<path d="M96.8393 2.45178C78.82 -2.19165 59.7314 -0.196717 43.0615 8.07208C26.3916 16.3409 13.2533 30.3315 6.04722 47.4875C-1.15889 64.6436 -1.95169 83.8197 3.81367 101.512C9.57903 119.204 21.5176 134.232 37.4481 143.848C53.3785 153.465 72.2372 157.029 90.5784 153.889C108.92 150.748 125.519 141.114 137.343 126.745C149.167 112.377 155.426 94.234 154.977 75.6314C154.529 57.0288 147.402 39.2086 134.899 25.4269L123.419 35.8416C133.422 46.8669 139.123 61.123 139.482 76.0051C139.841 90.8872 134.833 105.402 125.374 116.896C115.915 128.391 102.636 136.099 87.9627 138.611C73.2898 141.123 58.2028 138.272 45.4585 130.579C32.7141 122.885 23.1632 110.863 18.5509 96.7096C13.9386 82.5557 14.5729 67.2149 20.3378 53.49C26.1027 39.7652 36.6133 28.5727 49.9492 21.9577C63.2851 15.3426 78.556 13.7467 92.9714 17.4614L96.8393 2.45178Z" fill="#ADB3C0"/>
<path d="M53.9711 67.4773V59.5273H67.8211V96.0273H58.9211V67.4773H53.9711ZM82.87 85.3273C83.37 87.9607 84.9033 89.2773 87.47 89.2773C89.2366 89.2773 90.4866 88.494 91.22 86.9273C91.9533 85.3607 92.32 82.8107 92.32 79.2773C91.5866 80.3107 90.5866 81.1107 89.32 81.6773C88.0533 82.244 86.6366 82.5273 85.07 82.5273C82.9366 82.5273 81.0366 82.094 79.37 81.2273C77.7033 80.3273 76.3866 79.0107 75.42 77.2773C74.4866 75.5107 74.02 73.3773 74.02 70.8773C74.02 68.4107 74.52 66.2607 75.52 64.4273C76.5533 62.594 78.0033 61.1773 79.87 60.1773C81.77 59.1773 84.0033 58.6773 86.57 58.6773C91.5033 58.6773 94.9533 60.2107 96.92 63.2773C98.8866 66.344 99.87 70.8607 99.87 76.8273C99.87 81.1607 99.47 84.744 98.67 87.5773C97.9033 90.3773 96.5866 92.5107 94.72 93.9773C92.8866 95.444 90.37 96.1773 87.17 96.1773C84.6366 96.1773 82.47 95.6773 80.67 94.6773C78.9033 93.6773 77.5366 92.3607 76.57 90.7273C75.6366 89.094 75.1033 87.294 74.97 85.3273H82.87ZM87.02 75.7773C88.42 75.7773 89.5366 75.3607 90.37 74.5273C91.2033 73.6607 91.62 72.494 91.62 71.0273C91.62 69.4273 91.1866 68.194 90.32 67.3273C89.4533 66.4607 88.2866 66.0273 86.82 66.0273C85.3533 66.0273 84.1866 66.4773 83.32 67.3773C82.4866 68.244 82.07 69.444 82.07 70.9773C82.07 72.4107 82.4866 73.5773 83.32 74.4773C84.1866 75.344 85.42 75.7773 87.02 75.7773Z" fill="#394253"/>
<path d="M77.5 4.23887e-05C90.5735 4.18173e-05 103.435 3.30728 114.886 9.61399C126.338 15.9207 136.008 25.0219 142.997 36.0706L129.898 44.3565C124.307 35.5175 116.57 28.2366 107.409 23.1912C98.2476 18.1458 87.9588 15.5 77.5 15.5L77.5 4.23887e-05Z" fill="#52DE97"/>
</svg>
