<svg width="122" height="122" viewBox="0 0 122 122" fill="none" xmlns="http://www.w3.org/2000/svg">
<path d="M85.9907 37.5431C86.0333 37.8294 85.9668 38.1213 85.8045 38.361C85.6421 38.6006 85.3957 38.7706 85.114 38.8372C85.0762 38.8412 85.038 38.8412 85.0002 38.8372C85.0002 38.8372 84.9792 38.8372 84.9455 38.8372H84.8358C84.7656 38.8417 84.6952 38.8417 84.6251 38.8372H55.7888C52.5161 38.8416 49.3784 40.142 47.0618 42.4539C44.7453 44.7657 43.4385 47.9009 43.4274 51.1737C43.4316 53.0504 43.864 54.9012 44.6917 56.5854L43.8488 56.9184C43.5116 57.0533 43.3009 57.1292 43.1913 57.1629C43.1733 57.1672 43.1546 57.1672 43.1366 57.1629H17.259C14.9889 57.1671 12.7404 56.7224 10.6428 55.8544C8.54522 54.9864 6.64001 53.7122 5.03664 52.1052C1.80747 48.8554 -0.00277684 44.4585 0.00196241 39.8771C0.00670165 35.2956 1.82606 30.9028 5.06195 27.6597C6.52787 26.2155 8.22974 25.0322 10.0942 24.1613L10.3259 24.0518V23.7948C10.3188 20.4839 11.0047 17.2081 12.3395 14.1782C13.6744 11.1484 15.6287 8.43153 18.0766 6.20233C22.4373 2.22244 28.1293 0.0182518 34.033 0.0234467C37.3362 0.0264677 40.6025 0.718059 43.6235 2.05406C46.6444 3.39005 49.3538 5.34119 51.5785 7.78286L51.7471 7.96417L51.9788 7.9051C52.6731 7.74013 53.3769 7.61763 54.0861 7.53837C54.7118 7.47106 55.3408 7.4374 55.9701 7.43732C60.2314 7.43308 64.3436 9.00623 67.514 11.8538C70.6843 14.7013 72.6884 18.6215 73.1403 22.859L73.1699 23.1372L73.4395 23.2173C76.54 24.0621 79.3421 25.7583 81.5283 28.1137C83.7145 30.469 85.1975 33.3895 85.8094 36.5444C85.8895 36.8647 85.9485 37.1975 85.9907 37.5431Z" fill="#86E8B6"/>
<path d="M92.9068 39.25H92.4854C92.6253 39.2679 92.7669 39.2679 92.9068 39.25Z" fill="#86E8B6"/>
<path d="M92.9068 39.25H92.4854C92.6253 39.2679 92.7669 39.2679 92.9068 39.25Z" fill="#86E8B6"/>
<path d="M107.338 99.0957C109.27 99.0935 111.182 98.7087 112.964 97.9637C114.747 97.2186 116.364 96.1279 117.723 94.7546C119.09 93.3892 120.171 91.7658 120.906 89.9787C121.64 88.1916 122.012 86.2762 122 84.3441C121.998 80.6855 120.628 77.16 118.16 74.459C115.692 71.758 112.305 70.0765 108.661 69.7444L108.294 69.7107V65.8836L108.661 65.8499C112.305 65.5076 115.689 63.8178 118.153 61.1112C120.616 58.4046 121.981 54.8762 121.979 51.2164C121.981 47.3274 120.441 43.596 117.697 40.8409C114.952 38.0858 111.227 36.5318 107.338 36.5195H55.8184C51.9217 36.5318 48.1892 38.0898 45.4401 40.8516C42.6911 43.6134 41.1502 47.3531 41.1558 51.2499C41.1557 52.4633 41.3044 53.6721 41.5984 54.8494C41.7975 55.6471 42.0669 56.4257 42.4035 57.1759C43.4587 59.5713 45.1373 61.6396 47.2641 63.1652C49.3909 64.6909 51.888 65.6181 54.4952 65.8499L54.8701 65.8921V69.7107L54.4952 69.7444C52.5724 69.9205 50.7034 70.4756 48.9962 71.3776C47.2891 72.2797 45.7776 73.5108 44.5487 75.0001C43.3106 76.4836 42.3798 78.1985 41.8104 80.045C41.241 81.8915 41.0442 83.8329 41.2317 85.7561C41.5571 89.4 43.2348 92.7902 45.9345 95.2591C48.6341 97.7279 52.1601 99.0966 55.8184 99.0957H82.9056V106.935L82.5854 107.003C81.1181 107.3 79.7707 108.022 78.711 109.08C77.6513 110.137 76.9262 111.483 76.6259 112.95L76.5502 113.27H64.6902L64.6143 112.958C64.2873 111.619 63.5198 110.43 62.4352 109.58C61.3506 108.73 60.0118 108.269 58.6338 108.271C58.1353 108.269 57.6385 108.328 57.1546 108.448C56.3694 108.641 55.6301 108.987 54.9792 109.467C54.3282 109.947 53.7784 110.55 53.3614 111.243C52.9428 111.936 52.6654 112.705 52.5453 113.506C52.4252 114.307 52.4648 115.123 52.6618 115.908C52.9888 117.247 53.7563 118.437 54.8409 119.287C55.9255 120.137 57.2643 120.598 58.6423 120.595C59.1407 120.597 59.6374 120.537 60.1215 120.418C61.2145 120.152 62.2133 119.591 63.0087 118.796C63.8041 118 64.3654 117.001 64.6312 115.908L64.7071 115.597H76.5796L76.6428 115.934C76.9924 117.642 77.9194 119.177 79.2681 120.282C80.6167 121.386 82.3046 121.993 84.0478 121.999C84.5528 122.001 85.057 121.953 85.5525 121.855C87.0067 121.56 88.3416 120.843 89.3909 119.793C90.4402 118.744 91.1574 117.409 91.453 115.955L91.512 115.618H103.38L103.456 115.929C103.783 117.274 104.553 118.47 105.641 119.324C106.73 120.179 108.074 120.643 109.458 120.642C109.954 120.639 110.448 120.576 110.929 120.452C112.519 120.06 113.889 119.053 114.739 117.652C115.588 116.251 115.847 114.571 115.459 112.979C115.131 111.636 114.361 110.442 113.272 109.59C112.184 108.738 110.84 108.276 109.458 108.28C108.962 108.279 108.468 108.34 107.987 108.461C106.89 108.726 105.887 109.288 105.088 110.085C104.289 110.882 103.724 111.883 103.456 112.979L103.38 113.291H91.5161L91.4571 112.971C91.1697 111.508 90.4563 110.163 89.4064 109.105C88.3565 108.047 87.017 107.322 85.5566 107.024L85.2364 106.956V99.1169L107.338 99.0957ZM59.0258 118.248V118.281H58.6044C57.5846 118.279 56.6073 117.872 55.8873 117.15C55.1674 116.427 54.7636 115.449 54.7647 114.429C54.7636 113.409 55.1674 112.431 55.8873 111.708C56.6073 110.986 57.5846 110.579 58.6044 110.577C59.626 110.577 60.6058 110.983 61.3282 111.705C62.0507 112.427 62.4564 113.407 62.4564 114.429C62.4519 115.376 62.1002 116.287 61.4678 116.991C60.8353 117.695 59.9663 118.142 59.0258 118.248ZM109.453 110.577H109.854C110.798 110.681 111.671 111.129 112.305 111.835C112.94 112.542 113.291 113.458 113.293 114.408C113.293 115.427 112.889 116.406 112.169 117.128C111.449 117.85 110.473 118.257 109.453 118.26C108.431 118.26 107.451 117.855 106.728 117.132C106.005 116.41 105.598 115.43 105.597 114.408C105.604 113.39 106.013 112.415 106.736 111.697C107.458 110.98 108.435 110.577 109.453 110.577ZM44.7046 56.5859C43.8769 54.9017 43.4445 53.0508 43.4403 51.1742C43.4514 47.9014 44.758 44.7662 47.0745 42.4543C49.3911 40.1425 52.5288 38.8421 55.8015 38.8376H107.342C108.961 38.8353 110.566 39.1536 112.061 39.7742C113.557 40.3949 114.916 41.3057 116.058 42.4539C117.205 43.5969 118.113 44.9562 118.73 46.4532C119.348 47.9502 119.661 49.555 119.653 51.1742C119.65 54.4398 118.353 57.5712 116.045 59.8815C113.738 62.1919 110.607 63.4924 107.342 63.498H55.7974C53.4871 63.498 51.2231 62.8503 49.2623 61.6286C47.3015 60.4068 45.7227 58.6598 44.7046 56.5859ZM105.955 65.8373V69.7991H57.2009V65.8373H105.955ZM89.2782 114.429C89.2737 115.819 88.7194 117.151 87.7362 118.133C86.753 119.116 85.421 119.669 84.0311 119.672C82.6413 119.67 81.3088 119.117 80.326 118.134C79.3433 117.151 78.7902 115.819 78.788 114.429C78.788 113.039 79.3403 111.705 80.3236 110.722C81.3068 109.738 82.6406 109.186 84.0311 109.186C85.4217 109.187 86.755 109.74 87.7386 110.723C88.7223 111.705 89.2759 113.039 89.2782 114.429ZM55.8184 96.7692C54.1975 96.7741 52.5919 96.4566 51.0949 95.8351C49.5978 95.2135 48.2392 94.3004 47.0984 93.1488C45.9497 92.0074 45.0392 90.6491 44.4198 89.1528C43.8005 87.6565 43.4847 86.052 43.4907 84.4326C43.4974 81.1651 44.7985 78.0334 47.1089 75.7228C49.4193 73.4123 52.5509 72.1112 55.8184 72.1045H107.359C110.629 72.1123 113.764 73.4142 116.078 75.7257C118.391 78.0372 119.697 81.1704 119.708 84.4411C119.696 87.7146 118.388 90.8502 116.07 93.1609C113.751 95.4717 110.611 96.7692 107.338 96.7692H55.8184Z" fill="#86E8B6"/>
<path d="M107.679 44.4062C105.874 44.4096 104.145 45.1285 102.87 46.4054C101.594 47.6822 100.878 49.4127 100.876 51.2173C100.885 53.0188 101.605 54.7438 102.879 56.0176C104.152 57.2914 105.878 58.0109 107.679 58.0198C109.484 58.0198 111.216 57.3037 112.493 56.0283C113.771 54.7529 114.491 53.0227 114.494 51.2173C114.491 49.4112 113.771 47.68 112.494 46.4033C111.216 45.1266 109.485 44.4085 107.679 44.4062ZM107.679 55.6933C107.091 55.6933 106.51 55.5774 105.967 55.3524C105.424 55.1275 104.931 54.7978 104.515 54.3821C104.1 53.9664 103.771 53.4728 103.546 52.9298C103.322 52.3868 103.207 51.805 103.207 51.2173C103.211 50.0312 103.682 48.8944 104.52 48.0544C105.357 47.2145 106.493 46.7395 107.679 46.7328C108.868 46.7339 110.009 47.2066 110.85 48.0472C111.691 48.8879 112.165 50.0279 112.167 51.2173C112.165 52.406 111.691 53.5451 110.85 54.3844C110.008 55.2237 108.867 55.6944 107.679 55.6933Z" fill="#86E8B6"/>
<path d="M57.7232 47.845V54.5886C57.706 54.8806 57.5816 55.1559 57.374 55.362C57.1664 55.568 56.8901 55.6904 56.598 55.7054H56.5348C56.2342 55.7034 55.946 55.5851 55.7308 55.3753C55.5155 55.1656 55.3897 54.8806 55.3799 54.5801V47.8365C55.3924 47.544 55.5149 47.2669 55.7227 47.0607C55.9305 46.8544 56.2084 46.7341 56.501 46.7238C56.6549 46.717 56.8086 46.7407 56.9534 46.7934C57.0981 46.846 57.231 46.9267 57.3446 47.0308C57.4581 47.135 57.55 47.2606 57.615 47.4003C57.68 47.5399 57.7167 47.6911 57.7232 47.845Z" fill="#86E8B6"/>
<path d="M64.2689 47.8456V54.5892C64.2666 54.8974 64.1426 55.192 63.9239 55.4091C63.7052 55.6262 63.4096 55.7482 63.1014 55.7482C62.7944 55.7471 62.5001 55.6246 62.283 55.4074C62.0658 55.1903 61.9435 54.8962 61.9424 54.5892V47.8203C61.955 47.5271 62.078 47.2493 62.2867 47.043C62.4954 46.8366 62.7743 46.7168 63.0676 46.7075C63.2213 46.703 63.3743 46.7289 63.5179 46.7837C63.6616 46.8385 63.793 46.9212 63.9046 47.0269C64.0162 47.1327 64.1059 47.2594 64.1684 47.3998C64.2309 47.5403 64.265 47.6919 64.2689 47.8456Z" fill="#86E8B6"/>
<path d="M69.6548 55.7641C69.3467 55.763 69.0514 55.6402 68.8335 55.4223C68.6156 55.2043 68.4928 54.9091 68.4917 54.6009V47.832C68.5053 47.5391 68.6285 47.2621 68.837 47.0559C69.0455 46.8498 69.3239 46.7295 69.617 46.7193C69.9252 46.7102 70.2245 46.8235 70.4496 47.0343C70.6746 47.2452 70.8072 47.5366 70.8182 47.8448V54.5884C70.8193 54.742 70.7901 54.8942 70.7321 55.0366C70.6742 55.1789 70.5887 55.3085 70.4807 55.4177C70.3726 55.527 70.2439 55.6139 70.1022 55.6733C69.9605 55.7328 69.8085 55.7635 69.6548 55.7641Z" fill="#86E8B6"/>
<path d="M76.4744 55.7632C76.3216 55.7632 76.1704 55.7332 76.0292 55.6747C75.8881 55.6163 75.7598 55.5306 75.6518 55.4226C75.5438 55.3146 75.4582 55.1863 75.3997 55.0452C75.3413 54.904 75.311 54.7528 75.311 54.6V47.8311C75.311 47.5234 75.4331 47.228 75.6504 47.01C75.8676 46.792 76.1623 46.6691 76.47 46.668C76.7782 46.6691 77.0735 46.7919 77.2914 47.0098C77.5093 47.2277 77.6323 47.523 77.6334 47.8311V54.6C77.6334 54.9078 77.5115 55.2031 77.2942 55.4212C77.077 55.6392 76.7821 55.7621 76.4744 55.7632Z" fill="#86E8B6"/>
<path d="M83.0154 55.7632C82.7072 55.7621 82.412 55.6393 82.1941 55.4214C81.9762 55.2035 81.8532 54.9082 81.8521 54.6V47.8311C81.8532 47.523 81.9762 47.2277 82.1941 47.0098C82.412 46.7919 82.7072 46.6691 83.0154 46.668C83.3232 46.6691 83.618 46.792 83.8353 47.01C84.0525 47.228 84.1744 47.5234 84.1744 47.8311V54.6C84.1744 54.9078 84.0525 55.2031 83.8353 55.4212C83.618 55.6392 83.3232 55.7621 83.0154 55.7632Z" fill="#86E8B6"/>
<path d="M107.679 77.5742C105.878 77.5831 104.152 78.3028 102.879 79.5766C101.605 80.8505 100.885 82.5754 100.876 84.3769C100.878 86.1815 101.594 87.912 102.87 89.1888C104.145 90.4657 105.874 91.1846 107.679 91.188C109.485 91.1857 111.216 90.4676 112.494 89.1909C113.771 87.9142 114.491 86.183 114.494 84.3769C114.491 82.5716 113.771 80.8413 112.493 79.5659C111.216 78.2906 109.484 77.5742 107.679 77.5742ZM107.679 88.8614C106.492 88.8581 105.354 88.3841 104.516 87.5435C103.678 86.7028 103.207 85.564 103.207 84.3769C103.211 83.1915 103.683 82.0556 104.52 81.217C105.358 80.3785 106.494 79.9052 107.679 79.9008C108.867 79.8996 110.008 80.3705 110.85 81.2098C111.691 82.0491 112.165 83.1882 112.167 84.3769C112.161 85.5634 111.685 86.6991 110.844 87.5361C110.003 88.3731 108.865 88.8434 107.679 88.8445V88.8614Z" fill="#86E8B6"/>
<path d="M56.5557 88.8758C56.2533 88.877 55.9626 88.7601 55.7453 88.5498C55.528 88.3396 55.4014 88.0528 55.3926 87.7505V81.0069C55.3937 80.6987 55.5165 80.4035 55.7344 80.1856C55.9523 79.9677 56.2475 79.8449 56.5557 79.8438C56.8635 79.8449 57.1583 79.968 57.3756 80.186C57.5928 80.404 57.7147 80.6991 57.7147 81.0069V87.7758C57.7032 88.0687 57.5811 88.3463 57.3731 88.5527C57.1651 88.7592 56.8867 88.8792 56.5938 88.8886L56.5557 88.8758Z" fill="#86E8B6"/>
<path d="M63.1055 88.8758C62.8031 88.877 62.5124 88.7601 62.2951 88.5498C62.0778 88.3396 61.9512 88.0528 61.9424 87.7505V81.0069C61.9435 80.6987 62.0663 80.4035 62.2842 80.1856C62.5021 79.9677 62.7973 79.8449 63.1055 79.8438C63.4137 79.8449 63.7089 79.9677 63.9268 80.1856C64.1447 80.4035 64.2677 80.6987 64.2689 81.0069V87.7758C64.2553 88.0687 64.132 88.3457 63.9235 88.5519C63.715 88.758 63.4366 88.8783 63.1436 88.8886L63.1055 88.8758Z" fill="#86E8B6"/>
<path d="M69.6548 88.8758C69.3525 88.877 69.0615 88.7601 68.8442 88.5498C68.6269 88.3396 68.5005 88.0528 68.4917 87.7505V81.0069C68.4928 80.6987 68.6156 80.4035 68.8335 80.1856C69.0514 79.9677 69.3467 79.8449 69.6548 79.8438C69.963 79.8449 70.2582 79.9677 70.4761 80.1856C70.694 80.4035 70.8171 80.6987 70.8182 81.0069V87.7758C70.8046 88.0687 70.6813 88.3457 70.4728 88.5519C70.2644 88.758 69.9859 88.8783 69.6929 88.8886L69.6548 88.8758Z" fill="#86E8B6"/>
<path d="M76.4744 88.9275C76.1662 88.9264 75.871 88.8036 75.6531 88.5857C75.4352 88.3677 75.3121 88.0725 75.311 87.7643V80.9954C75.3121 80.6872 75.4352 80.392 75.6531 80.1741C75.871 79.9562 76.1662 79.8331 76.4744 79.832C76.7821 79.8331 77.077 79.9562 77.2942 80.1743C77.5115 80.3923 77.6334 80.6876 77.6334 80.9954V87.7643C77.6334 88.0721 77.5115 88.3672 77.2942 88.5852C77.077 88.8033 76.7821 88.9264 76.4744 88.9275Z" fill="#86E8B6"/>
<path d="M83.0154 88.9275C82.7072 88.9264 82.412 88.8036 82.1941 88.5857C81.9762 88.3677 81.8532 88.0725 81.8521 87.7643V80.9954C81.8532 80.6872 81.9762 80.392 82.1941 80.1741C82.412 79.9562 82.7072 79.8331 83.0154 79.832C83.3236 79.8331 83.6188 79.9562 83.8367 80.1741C84.0546 80.392 84.1774 80.6872 84.1785 80.9954V87.7643C84.1774 88.0725 84.0546 88.3677 83.8367 88.5857C83.6188 88.8036 83.3236 88.9264 83.0154 88.9275Z" fill="#86E8B6"/>
<path d="M57.723 47.8448V51.0943C56.9306 51.4315 56.1509 51.7644 55.3965 52.0974V47.832C55.409 47.5395 55.5315 47.2624 55.7393 47.0562C55.9471 46.8499 56.225 46.7296 56.5176 46.7193C56.8263 46.7101 57.1262 46.8234 57.3519 47.0341C57.5776 47.2449 57.7109 47.5362 57.723 47.8448Z" fill="#86E8B6"/>
<path d="M64.2684 47.8456V48.2671L61.9419 49.2701V47.8203C61.9545 47.5271 62.0775 47.2493 62.2862 47.043C62.4949 46.8366 62.7738 46.7168 63.0672 46.7075C63.2208 46.703 63.3738 46.7289 63.5174 46.7837C63.6611 46.8385 63.7925 46.9212 63.9041 47.0269C64.0157 47.1327 64.1054 47.2594 64.1679 47.3998C64.2304 47.5403 64.2645 47.6919 64.2684 47.8456Z" fill="#86E8B6"/>
<path d="M85.0002 38.8605H84.8442H84.9539C84.9792 38.8394 85.0002 38.8478 85.0002 38.8605Z" fill="#86E8B6"/>
</svg>
