<svg width="1928" height="78" viewBox="0 0 1928 78" fill="none" xmlns="http://www.w3.org/2000/svg">
<g filter="url(#filter0_d_216_14585)">
<rect x="4" y="3" width="1920" height="70" fill="url(#paint0_linear_216_14585)"/>
</g>
<path fill-rule="evenodd" clip-rule="evenodd" d="M78.4189 26.0742H83.2908L88.8447 43.5062L94.3664 26.0742H99.2708L91.6056 48.7553H86.0514L78.4189 26.0742Z" fill="white"/>
<path fill-rule="evenodd" clip-rule="evenodd" d="M111.645 40.6558C111.645 37.9337 109.729 36.0873 107.131 36.0873C104.565 36.0873 102.648 37.9337 102.648 40.6558C102.648 43.3775 104.565 45.2243 107.131 45.2243C109.729 45.2243 111.645 43.3775 111.645 40.6558V40.6558ZM115.835 32.5551V48.7561H111.645V46.8442C110.476 48.3023 108.722 49.2097 106.351 49.2097C102.031 49.2097 98.4585 45.4835 98.4585 40.6558C98.4585 35.8278 102.031 32.1016 106.351 32.1016C108.722 32.1016 110.476 33.009 111.645 34.4671V32.5551H115.835Z" fill="white"/>
<path fill-rule="evenodd" clip-rule="evenodd" d="M134.803 38.8088V48.7558H130.613V39.3269C130.613 37.1239 129.281 35.9897 127.397 35.9897C125.351 35.9897 123.825 37.1885 123.825 40.0076V48.7558H119.635V32.5551H123.825V34.3697C124.799 32.9114 126.488 32.1016 128.664 32.1016C132.107 32.1016 134.803 34.4992 134.803 38.8088" fill="white"/>
<path fill-rule="evenodd" clip-rule="evenodd" d="M143.994 36.5734V43.3128C143.994 45.0625 145.261 45.0949 147.664 44.9655V48.7566C141.785 49.4045 139.804 47.6869 139.804 43.3128V36.5734H136.979V32.5556H139.804V29.2832L143.994 28.0195V32.5556H147.664V36.5734H143.994Z" fill="white"/>
<mask id="mask0_216_14585" style="mask-type:alpha" maskUnits="userSpaceOnUse" x="54" y="24" width="110" height="27">
<path fill-rule="evenodd" clip-rule="evenodd" d="M54 50.3029H163.838V24.3164H54V50.3029Z" fill="white"/>
</mask>
<g mask="url(#mask0_216_14585)">
<path fill-rule="evenodd" clip-rule="evenodd" d="M150.62 48.7536H154.81V32.5526H150.62V48.7536ZM150.132 28.049C150.132 26.6555 151.302 25.457 152.698 25.457C154.127 25.457 155.297 26.6555 155.297 28.049C155.297 29.4422 154.127 30.6085 152.698 30.6085C151.302 30.6085 150.132 29.4422 150.132 28.049V28.049Z" fill="white"/>
<path fill-rule="evenodd" clip-rule="evenodd" d="M158.317 46.4222C158.317 44.8992 159.551 43.668 161.078 43.668C162.604 43.668 163.838 44.8992 163.838 46.4222C163.838 47.9451 162.604 49.1763 161.078 49.1763C159.551 49.1763 158.317 47.9451 158.317 46.4222" fill="#52DE97"/>
<path fill-rule="evenodd" clip-rule="evenodd" d="M75.4713 38.3261L73.7836 35.9097C73.7572 35.8722 73.6992 35.8814 73.6858 35.9253L73.1778 37.5964C73.1511 37.6107 73.1361 37.6184 73.1093 37.6327L68.6181 36.2739C68.7845 36.1393 69.0329 35.9708 69.4028 35.771C70.3357 35.2672 70.9345 34.5671 71.3203 33.8654H71.3267C71.3636 33.798 71.3907 33.7252 71.4255 33.6565C71.4603 33.5852 71.4947 33.5143 71.5256 33.4437C72.1391 32.1049 72.3345 30.5451 71.8253 28.9096C71.137 26.6989 69.3062 24.9658 67.0398 24.4705C62.8876 23.5637 59.1339 26.7858 59.1339 30.7925C59.1339 31.7353 59.3516 32.6291 59.7237 33.4414C59.7556 33.5143 59.791 33.5874 59.8274 33.6609C59.8612 33.7283 59.8876 33.7996 59.9236 33.8654H59.9303C60.3161 34.5671 60.9149 35.2672 61.8475 35.771C62.2174 35.9708 62.4658 36.1393 62.6322 36.2739L58.1413 37.6327C58.1145 37.6184 58.0992 37.6107 58.0725 37.5964L57.5645 35.9253C57.5512 35.8814 57.4931 35.8722 57.4667 35.9097L55.779 38.3261C55.7586 38.3557 55.7526 38.3945 55.7641 38.4285C56.023 39.2049 56.6724 39.6661 57.5119 39.6661C57.7788 39.6661 58.0667 39.62 58.368 39.5287L61.8903 38.4632L64.448 37.6893C64.551 37.6578 64.6428 37.5904 64.6929 37.4959C64.7796 37.3305 64.8408 37.1546 64.8784 36.9552C64.8819 36.939 64.8851 36.9224 64.888 36.9043C64.9381 36.5652 64.8921 36.2252 64.7512 35.8935C64.6996 35.7726 64.6485 35.6667 64.588 35.5754C64.5248 35.48 64.4365 35.4017 64.3479 35.3305C64.1961 35.208 64.0574 35.1269 63.8785 35.0525C63.7249 34.9885 63.575 34.916 63.4293 34.8359C63.1395 34.6762 62.8665 34.486 62.6166 34.2694C62.1147 33.8349 61.706 33.2954 61.4251 32.6946C61.1378 32.0801 60.9873 31.4055 60.9873 30.7277C60.9873 28.1681 63.0869 26.0523 65.6255 26.0523C68.1638 26.0523 70.263 28.1681 70.263 30.7277C70.263 31.4106 70.1103 32.0906 69.8189 32.7083C69.5354 33.3098 69.1235 33.8492 68.6187 34.2827C68.4048 34.4663 68.1746 34.631 67.9316 34.7732C67.8079 34.8457 67.681 34.9125 67.5516 34.973C67.3861 35.0506 67.2216 35.1062 67.0685 35.2087C66.9168 35.3104 66.7711 35.4278 66.6623 35.5754C66.5973 35.6638 66.5507 35.7726 66.4991 35.8935C66.3582 36.2252 66.3123 36.5652 66.3623 36.9043C66.3652 36.9224 66.3684 36.939 66.3722 36.9552C66.4098 37.1546 66.471 37.3308 66.5578 37.4959C66.6075 37.5907 66.6996 37.6578 66.8023 37.6893L69.3601 38.4632L72.8826 39.5287C73.1836 39.62 73.4715 39.6661 73.7384 39.6661C74.5779 39.6661 75.2274 39.2049 75.4863 38.4285C75.4977 38.3945 75.4917 38.3557 75.4713 38.3261" fill="#52DE97"/>
<path fill-rule="evenodd" clip-rule="evenodd" d="M77.0394 42.3936C76.7735 41.9124 76.2879 41.5689 75.596 41.3726L67.9052 39.1913C67.8051 39.1627 67.697 39.1878 67.6199 39.2578L66.8802 39.9254C66.8247 39.9757 66.7523 40.0033 66.6774 40.0033H65.9048H65.6249H65.3453H64.5724C64.4975 40.0033 64.4254 39.9757 64.3696 39.9254L63.6302 39.2578C63.5528 39.1878 63.445 39.1627 63.3449 39.1913L55.6541 41.3726C54.9622 41.5689 54.4766 41.9124 54.2107 42.3936C53.9965 42.7817 53.9439 43.2445 54.0609 43.7038C54.0698 43.7388 54.0959 43.7677 54.1294 43.7814L56.8587 44.9032C56.9011 44.9204 56.9451 44.8813 56.9324 44.8374L56.4538 43.1573C56.4455 43.1284 56.4624 43.0979 56.4917 43.0896L61.5549 41.6532C61.6171 41.6357 61.6598 41.7146 61.611 41.7569L57.7508 45.0896C57.2069 45.5591 56.9123 46.0753 56.875 46.6237C56.845 47.0655 56.9936 47.507 57.2946 47.874C57.3172 47.902 57.3532 47.9176 57.3892 47.9157L60.3379 47.7812C60.3838 47.7792 60.4071 47.7252 60.3768 47.6905L59.2315 46.3702C59.2117 46.3473 59.2143 46.3123 59.2372 46.2929L63.2173 42.8561C63.2661 42.8138 63.3385 42.8673 63.312 42.9264L61.2255 47.5744C60.9316 48.2293 60.8831 48.8213 61.0817 49.3337C61.2415 49.7465 61.5635 50.0846 61.9917 50.2904C62.0239 50.306 62.0635 50.3051 62.0953 50.2882L64.7105 48.923C64.7513 48.9017 64.7494 48.8429 64.7076 48.8244L63.1099 48.1107C63.0821 48.0983 63.0697 48.0658 63.0821 48.0382L65.5697 42.4846C65.5911 42.4372 65.659 42.4372 65.6801 42.4846L68.168 48.0382C68.1804 48.0658 68.168 48.0983 68.1402 48.1107L66.5425 48.8244C66.5008 48.8429 66.4988 48.9017 66.5397 48.923L69.1548 50.2882C69.1867 50.3051 69.2259 50.306 69.2584 50.2904C69.6866 50.0846 70.0083 49.7465 70.1684 49.3337C70.367 48.8213 70.3186 48.2293 70.0246 47.5744L67.9381 42.9264C67.9116 42.8673 67.9837 42.8138 68.0325 42.8561L72.0129 46.2929C72.0358 46.3123 72.0384 46.3473 72.0186 46.3702L70.873 47.6905C70.843 47.7252 70.8663 47.7792 70.9122 47.7812L73.8609 47.9157C73.8969 47.9176 73.9329 47.902 73.9556 47.874C74.2566 47.507 74.4051 47.0655 74.3752 46.6237C74.3379 46.0753 74.0432 45.5591 73.4993 45.0896L69.6391 41.7569C69.5903 41.7146 69.633 41.6357 69.6952 41.6532L74.7584 43.0896C74.7877 43.0979 74.8046 43.1284 74.7964 43.1573L74.3175 44.8374C74.305 44.8813 74.349 44.9204 74.3914 44.9032L77.1207 43.7814C77.1542 43.7677 77.18 43.7388 77.1889 43.7038C77.3059 43.2445 77.2537 42.7817 77.0394 42.3936" fill="#52DE97"/>
</g>
<path d="M1834.75 22.848C1835.97 22.848 1837.02 23.0773 1837.9 23.536C1838.8 23.984 1839.48 24.6293 1839.95 25.472C1840.43 26.3147 1840.67 27.3067 1840.67 28.448C1840.67 29.5893 1840.43 30.5813 1839.95 31.424C1839.48 32.256 1838.8 32.896 1837.9 33.344C1837.02 33.7813 1835.97 34 1834.75 34H1831.28V22.848H1834.75ZM1834.75 32.8C1836.19 32.8 1837.29 32.4213 1838.05 31.664C1838.8 30.896 1839.18 29.824 1839.18 28.448C1839.18 27.0613 1838.8 25.9787 1838.03 25.2C1837.27 24.4213 1836.18 24.032 1834.75 24.032H1832.73V32.8H1834.75ZM1850.59 29.28C1850.59 29.5573 1850.58 29.8507 1850.54 30.16H1843.54C1843.59 31.024 1843.88 31.7013 1844.42 32.192C1844.96 32.672 1845.62 32.912 1846.38 32.912C1847.01 32.912 1847.54 32.768 1847.95 32.48C1848.38 32.1813 1848.68 31.7867 1848.85 31.296H1850.42C1850.18 32.1387 1849.71 32.8267 1849.01 33.36C1848.3 33.8827 1847.43 34.144 1846.38 34.144C1845.55 34.144 1844.8 33.9573 1844.14 33.584C1843.49 33.2107 1842.98 32.6827 1842.61 32C1842.23 31.3067 1842.05 30.5067 1842.05 29.6C1842.05 28.6933 1842.23 27.8987 1842.59 27.216C1842.95 26.5333 1843.46 26.0107 1844.11 25.648C1844.77 25.2747 1845.53 25.088 1846.38 25.088C1847.22 25.088 1847.95 25.2693 1848.59 25.632C1849.23 25.9947 1849.72 26.496 1850.06 27.136C1850.42 27.7653 1850.59 28.48 1850.59 29.28ZM1849.09 28.976C1849.09 28.4213 1848.96 27.9467 1848.72 27.552C1848.47 27.1467 1848.14 26.8427 1847.71 26.64C1847.3 26.4267 1846.83 26.32 1846.32 26.32C1845.58 26.32 1844.95 26.5547 1844.43 27.024C1843.92 27.4933 1843.63 28.144 1843.55 28.976H1849.09ZM1863.06 25.072C1863.74 25.072 1864.35 25.216 1864.88 25.504C1865.41 25.7813 1865.84 26.2027 1866.15 26.768C1866.45 27.3333 1866.61 28.0213 1866.61 28.832V34H1865.17V29.04C1865.17 28.1653 1864.95 27.4987 1864.51 27.04C1864.09 26.5707 1863.51 26.336 1862.77 26.336C1862.01 26.336 1861.41 26.5813 1860.96 27.072C1860.51 27.552 1860.29 28.2507 1860.29 29.168V34H1858.85V29.04C1858.85 28.1653 1858.63 27.4987 1858.19 27.04C1857.77 26.5707 1857.19 26.336 1856.45 26.336C1855.69 26.336 1855.09 26.5813 1854.64 27.072C1854.19 27.552 1853.97 28.2507 1853.97 29.168V34H1852.51V25.232H1853.97V26.496C1854.26 26.0373 1854.64 25.6853 1855.12 25.44C1855.61 25.1947 1856.15 25.072 1856.74 25.072C1857.47 25.072 1858.12 25.2373 1858.69 25.568C1859.25 25.8987 1859.68 26.384 1859.95 27.024C1860.2 26.4053 1860.6 25.9253 1861.17 25.584C1861.73 25.2427 1862.36 25.072 1863.06 25.072ZM1872.82 34.144C1872 34.144 1871.25 33.9573 1870.58 33.584C1869.92 33.2107 1869.4 32.6827 1869.01 32C1868.64 31.3067 1868.45 30.5067 1868.45 29.6C1868.45 28.704 1868.65 27.9147 1869.03 27.232C1869.42 26.5387 1869.96 26.0107 1870.63 25.648C1871.3 25.2747 1872.05 25.088 1872.89 25.088C1873.72 25.088 1874.47 25.2747 1875.14 25.648C1875.81 26.0107 1876.34 26.5333 1876.73 27.216C1877.12 27.8987 1877.32 28.6933 1877.32 29.6C1877.32 30.5067 1877.11 31.3067 1876.71 32C1876.31 32.6827 1875.78 33.2107 1875.09 33.584C1874.41 33.9573 1873.65 34.144 1872.82 34.144ZM1872.82 32.864C1873.34 32.864 1873.83 32.7413 1874.29 32.496C1874.75 32.2507 1875.12 31.8827 1875.4 31.392C1875.69 30.9013 1875.83 30.304 1875.83 29.6C1875.83 28.896 1875.69 28.2987 1875.41 27.808C1875.14 27.3173 1874.77 26.9547 1874.33 26.72C1873.88 26.4747 1873.39 26.352 1872.87 26.352C1872.34 26.352 1871.85 26.4747 1871.4 26.72C1870.96 26.9547 1870.61 27.3173 1870.34 27.808C1870.07 28.2987 1869.94 28.896 1869.94 29.6C1869.94 30.3147 1870.07 30.9173 1870.33 31.408C1870.59 31.8987 1870.94 32.2667 1871.38 32.512C1871.82 32.7467 1872.3 32.864 1872.82 32.864Z" fill="white"/>
<path opacity="0.8" d="M1838.18 45.939L1834.77 55H1833.4L1829.98 45.939H1831.24L1834.09 53.752L1836.94 45.939H1838.18ZM1839.04 51.412C1839.04 50.684 1839.19 50.047 1839.48 49.501C1839.78 48.9463 1840.18 48.5173 1840.69 48.214C1841.21 47.9107 1841.79 47.759 1842.42 47.759C1843.04 47.759 1843.59 47.8933 1844.04 48.162C1844.5 48.4307 1844.85 48.7687 1845.07 49.176V47.876H1846.27V55H1845.07V53.674C1844.84 54.09 1844.49 54.4367 1844.02 54.714C1843.56 54.9827 1843.02 55.117 1842.41 55.117C1841.77 55.117 1841.2 54.961 1840.69 54.649C1840.18 54.337 1839.78 53.8993 1839.48 53.336C1839.19 52.7727 1839.04 52.1313 1839.04 51.412ZM1845.07 51.425C1845.07 50.8877 1844.96 50.4197 1844.75 50.021C1844.53 49.6223 1844.24 49.319 1843.86 49.111C1843.5 48.8943 1843.1 48.786 1842.65 48.786C1842.21 48.786 1841.81 48.89 1841.44 49.098C1841.08 49.306 1840.79 49.6093 1840.57 50.008C1840.36 50.4067 1840.25 50.8747 1840.25 51.412C1840.25 51.958 1840.36 52.4347 1840.57 52.842C1840.79 53.2407 1841.08 53.5483 1841.44 53.765C1841.81 53.973 1842.21 54.077 1842.65 54.077C1843.1 54.077 1843.5 53.973 1843.86 53.765C1844.24 53.5483 1844.53 53.2407 1844.75 52.842C1844.96 52.4347 1845.07 51.9623 1845.07 51.425ZM1851.74 47.746C1852.6 47.746 1853.31 48.0103 1853.84 48.539C1854.38 49.059 1854.65 49.813 1854.65 50.801V55H1853.48V50.97C1853.48 50.2593 1853.3 49.7177 1852.95 49.345C1852.59 48.9637 1852.11 48.773 1851.49 48.773C1850.87 48.773 1850.37 48.968 1850 49.358C1849.63 49.748 1849.45 50.3157 1849.45 51.061V55H1848.27V47.876H1849.45V48.89C1849.68 48.526 1850 48.2443 1850.4 48.045C1850.81 47.8457 1851.25 47.746 1851.74 47.746ZM1858.03 48.851V53.05C1858.03 53.3967 1858.1 53.6437 1858.25 53.791C1858.39 53.9297 1858.65 53.999 1859.01 53.999H1859.88V55H1858.82C1858.16 55 1857.67 54.8483 1857.34 54.545C1857.01 54.2417 1856.84 53.7433 1856.84 53.05V48.851H1855.92V47.876H1856.84V46.082H1858.03V47.876H1859.88V48.851H1858.03ZM1861.93 46.719C1861.7 46.719 1861.51 46.641 1861.36 46.485C1861.2 46.329 1861.12 46.1383 1861.12 45.913C1861.12 45.6877 1861.2 45.497 1861.36 45.341C1861.51 45.185 1861.7 45.107 1861.93 45.107C1862.15 45.107 1862.33 45.185 1862.47 45.341C1862.63 45.497 1862.71 45.6877 1862.71 45.913C1862.71 46.1383 1862.63 46.329 1862.47 46.485C1862.33 46.641 1862.15 46.719 1861.93 46.719ZM1862.5 47.876V55H1861.32V47.876H1862.5ZM1874.3 47.876V55H1873.12V53.947C1872.89 54.311 1872.58 54.597 1872.17 54.805C1871.77 55.0043 1871.33 55.104 1870.84 55.104C1870.29 55.104 1869.79 54.9913 1869.35 54.766C1868.91 54.532 1868.55 54.1853 1868.29 53.726C1868.04 53.2667 1867.92 52.7077 1867.92 52.049V47.876H1869.09V51.893C1869.09 52.595 1869.27 53.1367 1869.62 53.518C1869.98 53.8907 1870.46 54.077 1871.08 54.077C1871.71 54.077 1872.21 53.882 1872.57 53.492C1872.94 53.102 1873.12 52.5343 1873.12 51.789V47.876H1874.3ZM1878.82 55.117C1878.27 55.117 1877.78 55.026 1877.35 54.844C1876.92 54.6533 1876.58 54.3933 1876.32 54.064C1876.07 53.726 1875.93 53.3403 1875.91 52.907H1877.13C1877.16 53.2623 1877.33 53.5527 1877.62 53.778C1877.93 54.0033 1878.32 54.116 1878.81 54.116C1879.26 54.116 1879.61 54.0163 1879.87 53.817C1880.13 53.6177 1880.26 53.3663 1880.26 53.063C1880.26 52.751 1880.12 52.5213 1879.85 52.374C1879.57 52.218 1879.14 52.0663 1878.56 51.919C1878.03 51.7803 1877.6 51.6417 1877.26 51.503C1876.93 51.3557 1876.64 51.1433 1876.4 50.866C1876.17 50.58 1876.05 50.2073 1876.05 49.748C1876.05 49.384 1876.16 49.0503 1876.38 48.747C1876.59 48.4437 1876.9 48.2053 1877.3 48.032C1877.7 47.85 1878.15 47.759 1878.66 47.759C1879.45 47.759 1880.09 47.9583 1880.57 48.357C1881.06 48.7557 1881.32 49.3017 1881.35 49.995H1880.17C1880.15 49.6223 1879.99 49.3233 1879.72 49.098C1879.45 48.8727 1879.08 48.76 1878.62 48.76C1878.2 48.76 1877.86 48.851 1877.61 49.033C1877.36 49.215 1877.23 49.4533 1877.23 49.748C1877.23 49.982 1877.31 50.177 1877.45 50.333C1877.61 50.4803 1877.8 50.6017 1878.03 50.697C1878.26 50.7837 1878.58 50.8833 1878.99 50.996C1879.5 51.1347 1879.92 51.2733 1880.24 51.412C1880.56 51.542 1880.83 51.7413 1881.06 52.01C1881.29 52.2787 1881.41 52.6297 1881.42 53.063C1881.42 53.453 1881.31 53.804 1881.09 54.116C1880.88 54.428 1880.57 54.675 1880.17 54.857C1879.78 55.0303 1879.33 55.117 1878.82 55.117ZM1889.59 51.165C1889.59 51.3903 1889.58 51.6287 1889.55 51.88H1883.86C1883.9 52.582 1884.14 53.1323 1884.57 53.531C1885.01 53.921 1885.55 54.116 1886.17 54.116C1886.68 54.116 1887.11 53.999 1887.44 53.765C1887.79 53.5223 1888.03 53.2017 1888.17 52.803H1889.45C1889.26 53.4877 1888.87 54.0467 1888.3 54.48C1887.73 54.9047 1887.02 55.117 1886.17 55.117C1885.49 55.117 1884.89 54.9653 1884.35 54.662C1883.82 54.3587 1883.41 53.9297 1883.1 53.375C1882.8 52.8117 1882.65 52.1617 1882.65 51.425C1882.65 50.6883 1882.8 50.0427 1883.09 49.488C1883.38 48.9333 1883.8 48.5087 1884.32 48.214C1884.86 47.9107 1885.48 47.759 1886.17 47.759C1886.85 47.759 1887.44 47.9063 1887.96 48.201C1888.48 48.4957 1888.88 48.903 1889.16 49.423C1889.45 49.9343 1889.59 50.515 1889.59 51.165ZM1888.37 50.918C1888.37 50.4673 1888.27 50.0817 1888.07 49.761C1887.87 49.4317 1887.6 49.1847 1887.25 49.02C1886.91 48.8467 1886.53 48.76 1886.12 48.76C1885.52 48.76 1885.01 48.9507 1884.58 49.332C1884.17 49.7133 1883.93 50.242 1883.87 50.918H1888.37ZM1892.33 49.033C1892.54 48.6257 1892.84 48.3093 1893.22 48.084C1893.61 47.8587 1894.08 47.746 1894.64 47.746V48.968H1894.32C1893 48.968 1892.33 49.6873 1892.33 51.126V55H1891.15V47.876H1892.33V49.033Z" fill="#C6D4ED"/>
<path d="M1897.14 26.2868L1892 31.4297L1886.86 26.2868" stroke="white"/>
<circle cx="1794" cy="38" r="22.5" fill="#F3F3FA" stroke="#394253"/>
<path d="M1784.42 41.1573L1784.42 41.1578C1783.12 42.4252 1782.08 43.9278 1781.37 45.5816L1781.14 45.4824L1781.37 45.5819C1780.66 47.2065 1780.29 48.9271 1780.25 50.6963L1780.25 50.6973C1780.25 50.7034 1780.25 50.7095 1780.25 50.7155C1780.26 50.7214 1780.26 50.7272 1780.26 50.7324C1780.27 50.7376 1780.28 50.742 1780.28 50.7452C1780.29 50.7483 1780.3 50.75 1780.31 50.75H1780.31H1782.62C1782.64 50.75 1782.66 50.7425 1782.67 50.7341C1782.68 50.7259 1782.68 50.7149 1782.68 50.7002L1782.68 50.6994C1782.76 47.724 1783.98 44.9376 1786.14 42.8275C1788.38 40.6443 1791.34 39.4435 1794.5 39.4435C1797.66 39.4435 1800.62 40.6443 1802.86 42.8275C1805.02 44.9376 1806.24 47.724 1806.32 50.6994L1806.32 50.7001C1806.32 50.7226 1806.34 50.75 1806.38 50.75H1808.69H1808.69C1808.7 50.75 1808.71 50.7483 1808.72 50.7452C1808.72 50.742 1808.73 50.7376 1808.74 50.7324C1808.74 50.7272 1808.74 50.7214 1808.75 50.7155C1808.75 50.7095 1808.75 50.7034 1808.75 50.6973L1808.75 50.6959C1808.72 48.9386 1808.34 47.2039 1807.63 45.5858L1807.63 45.5855C1806.92 43.9324 1805.88 42.4299 1804.58 41.1614L1804.58 41.161C1803.27 39.8795 1801.75 38.876 1800.05 38.1758L1800.04 38.1728L1800.04 38.1713C1800.04 38.171 1800.04 38.1706 1800.04 38.17L1800.04 38.1695C1800.03 38.1669 1800.01 38.1602 1799.99 38.1505L1799.61 37.9653L1799.96 37.7218C1802.3 36.066 1803.81 33.3775 1803.81 30.3467C1803.81 25.3269 1799.65 21.25 1794.5 21.25C1789.35 21.25 1785.19 25.3269 1785.19 30.3467C1785.19 33.3776 1786.7 36.0659 1789.04 37.7179L1789.39 37.9614L1789.01 38.1467C1788.99 38.157 1788.97 38.164 1788.96 38.1663C1788.96 38.1668 1788.96 38.1672 1788.96 38.1675L1788.96 38.169L1788.95 38.172C1787.26 38.8722 1785.72 39.886 1784.42 41.1573ZM1799.36 35.1084C1798.06 36.3795 1796.33 37.0791 1794.5 37.0791C1792.67 37.0791 1790.94 36.3795 1789.64 35.1084C1788.34 33.8372 1787.62 32.1449 1787.62 30.3467C1787.62 28.5486 1788.34 26.8563 1789.64 25.585C1790.94 24.314 1792.67 23.6143 1794.5 23.6143C1796.33 23.6143 1798.06 24.314 1799.36 25.585C1800.66 26.8563 1801.38 28.5486 1801.38 30.3467C1801.38 32.1449 1800.66 33.8372 1799.36 35.1084Z" fill="#394253" stroke="#F7F9FE" stroke-width="0.5"/>
<defs>
<filter id="filter0_d_216_14585" x="0" y="0" width="1928" height="78" filterUnits="userSpaceOnUse" color-interpolation-filters="sRGB">
<feFlood flood-opacity="0" result="BackgroundImageFix"/>
<feColorMatrix in="SourceAlpha" type="matrix" values="0 0 0 0 0 0 0 0 0 0 0 0 0 0 0 0 0 0 127 0" result="hardAlpha"/>
<feOffset dy="1"/>
<feGaussianBlur stdDeviation="2"/>
<feColorMatrix type="matrix" values="0 0 0 0 0.423304 0 0 0 0 0.507133 0 0 0 0 0.665478 0 0 0 1 0"/>
<feBlend mode="normal" in2="BackgroundImageFix" result="effect1_dropShadow_216_14585"/>
<feBlend mode="normal" in="SourceGraphic" in2="effect1_dropShadow_216_14585" result="shape"/>
</filter>
<linearGradient id="paint0_linear_216_14585" x1="1924" y1="38" x2="4" y2="37.9998" gradientUnits="userSpaceOnUse">
<stop stop-color="#212935"/>
<stop offset="1" stop-color="#394253"/>
</linearGradient>
</defs>
</svg>
