<svg width="155" height="155" viewBox="0 0 155 155" fill="none" xmlns="http://www.w3.org/2000/svg">
<path d="M77.5 4.23887e-05C87.7019 4.19428e-05 97.8035 2.01429 107.225 5.92724C116.647 9.84018 125.203 15.5748 132.404 22.8022C139.604 30.0296 145.306 38.6074 149.184 48.0437C153.061 57.48 155.038 67.5891 154.999 77.7909C154.961 87.9927 152.909 98.0867 148.961 107.494C145.012 116.9 139.246 125.435 131.991 132.608C124.737 139.782 116.138 145.452 106.687 149.294C97.2362 153.136 87.1199 155.074 76.9182 154.998L77.0346 139.498C85.1959 139.56 93.289 138.009 100.85 134.935C108.41 131.861 115.29 127.325 121.093 121.587C126.897 115.848 131.51 109.02 134.669 101.495C137.827 93.9693 139.469 85.8942 139.5 77.7327C139.53 69.5712 137.949 61.484 134.847 53.935C131.745 46.386 127.183 39.5237 121.423 33.7418C115.663 27.9599 108.817 23.3722 101.28 20.2418C93.7428 17.1114 85.6615 15.5 77.5 15.5L77.5 4.23887e-05Z" fill="#C6D4ED"/>
<path d="M62.7798 1.41084C57.3413 2.46298 52.0312 4.09518 46.9406 6.27945L53.0525 20.5236C57.1249 18.7761 61.373 17.4704 65.7239 16.6287L62.7798 1.41084Z" fill="#FF3C78"/>
<path d="M46.9333 6.28256C28.0453 14.3893 13.1513 29.6673 5.52775 48.7555L19.9222 54.5044C26.021 39.2339 37.9362 27.0115 53.0467 20.5261L46.9333 6.28256Z" fill="#B1A5FF"/>
<path d="M77.5 4.23887e-05C72.5615 4.26046e-05 67.6343 0.472081 62.7856 1.40972L65.7285 16.6278C69.6074 15.8777 73.5492 15.5 77.5 15.5L77.5 4.23887e-05Z" fill="#C6D4ED"/>
<path d="M5.5209 48.7727C0.842247 60.4955 -0.902383 73.1836 0.438666 85.7342C1.77971 98.2847 6.16585 110.318 13.2158 120.787C20.2658 131.257 29.7662 139.846 40.8912 145.808C52.0161 151.771 64.429 154.926 77.0508 154.999L77.1406 139.499C67.0432 139.44 57.1129 136.917 48.2129 132.147C39.3129 127.377 31.7126 120.506 26.0726 112.13C20.4327 103.754 16.9238 94.1278 15.8509 84.0873C14.7781 74.0469 16.1738 63.8964 19.9167 54.5182L5.5209 48.7727Z" fill="#13115B"/>
</svg>
