<svg width="19" height="19" viewBox="0 0 19 19" fill="none" xmlns="http://www.w3.org/2000/svg">
<mask id="path-1-inside-1_133_28637" fill="white">
<path d="M8.22322 0.916499C9.49755 0.914687 10.7437 1.30255 11.804 2.03096C12.8643 2.75937 13.691 3.79558 14.1795 5.00842C14.668 6.22125 14.7963 7.55617 14.5481 8.84417C14.2999 10.1322 13.6865 11.3153 12.7854 12.2438C11.8843 13.1724 10.7361 13.8045 9.48617 14.0603C8.23625 14.316 6.94079 14.1838 5.7638 13.6805C4.58681 13.1771 3.58122 12.3252 2.87434 11.2326C2.16746 10.14 1.79107 8.8559 1.79283 7.54276C1.79753 5.78686 2.47652 4.10424 3.68143 2.86262C4.88635 1.62101 6.51922 0.921337 8.22322 0.916499ZM8.22322 5.56859e-06C6.77337 6.66879e-06 5.35609 0.443138 4.1507 1.27336C2.94531 2.10358 2.00597 3.28357 1.45154 4.66403C0.897115 6.0445 0.752505 7.56342 1.03601 9.02859C1.31951 10.4938 2.01838 11.8394 3.04421 12.8952C4.07003 13.951 5.37671 14.6695 6.79892 14.9598C8.22113 15.2502 9.69497 15.0993 11.034 14.5263C12.3729 13.9533 13.5169 12.984 14.3211 11.7408C15.1253 10.4977 15.5537 9.03678 15.5519 7.54276C15.5519 6.55146 15.3623 5.56989 14.9939 4.65416C14.6255 3.73843 14.0855 2.90652 13.4049 2.20599C12.7242 1.50546 11.9162 0.950047 11.0271 0.571528C10.138 0.193009 9.18522 -0.00119893 8.22322 5.56859e-06Z"/>
</mask>
<path d="M8.22322 0.916499C9.49755 0.914687 10.7437 1.30255 11.804 2.03096C12.8643 2.75937 13.691 3.79558 14.1795 5.00842C14.668 6.22125 14.7963 7.55617 14.5481 8.84417C14.2999 10.1322 13.6865 11.3153 12.7854 12.2438C11.8843 13.1724 10.7361 13.8045 9.48617 14.0603C8.23625 14.316 6.94079 14.1838 5.7638 13.6805C4.58681 13.1771 3.58122 12.3252 2.87434 11.2326C2.16746 10.14 1.79107 8.8559 1.79283 7.54276C1.79753 5.78686 2.47652 4.10424 3.68143 2.86262C4.88635 1.62101 6.51922 0.921337 8.22322 0.916499ZM8.22322 5.56859e-06C6.77337 6.66879e-06 5.35609 0.443138 4.1507 1.27336C2.94531 2.10358 2.00597 3.28357 1.45154 4.66403C0.897115 6.0445 0.752505 7.56342 1.03601 9.02859C1.31951 10.4938 2.01838 11.8394 3.04421 12.8952C4.07003 13.951 5.37671 14.6695 6.79892 14.9598C8.22113 15.2502 9.69497 15.0993 11.034 14.5263C12.3729 13.9533 13.5169 12.984 14.3211 11.7408C15.1253 10.4977 15.5537 9.03678 15.5519 7.54276C15.5519 6.55146 15.3623 5.56989 14.9939 4.65416C14.6255 3.73843 14.0855 2.90652 13.4049 2.20599C12.7242 1.50546 11.9162 0.950047 11.0271 0.571528C10.138 0.193009 9.18522 -0.00119893 8.22322 5.56859e-06Z" fill="#13115B"/>
<path d="M1.79283 7.54276L0.792836 7.54009L0.792834 7.54142L1.79283 7.54276ZM15.5519 7.54276L14.5519 7.54276L14.5519 7.54394L15.5519 7.54276ZM8.22464 1.9165C9.29426 1.91498 10.3429 2.24038 11.2378 2.8552L12.3703 1.20672C11.1446 0.364719 9.70083 -0.0856032 8.2218 -0.0834995L8.22464 1.9165ZM11.2378 2.8552C12.1331 3.47028 12.8357 4.34848 13.2519 5.38201L15.1071 4.63482C14.5464 3.24268 13.5955 2.04846 12.3703 1.20672L11.2378 2.8552ZM13.2519 5.38201C13.6683 6.41578 13.7781 7.55524 13.5662 8.65496L15.53 9.03337C15.8145 7.55709 15.6677 6.02673 15.1071 4.63482L13.2519 5.38201ZM13.5662 8.65496C13.3543 9.75456 12.8312 10.7607 12.0677 11.5474L13.503 12.9403C14.5417 11.87 15.2456 10.5098 15.53 9.03337L13.5662 8.65496ZM12.0677 11.5474C11.3045 12.3339 10.3357 12.8657 9.28572 13.0806L9.68662 15.04C11.1365 14.7433 12.464 14.0109 13.503 12.9403L12.0677 11.5474ZM9.28572 13.0806C8.23592 13.2954 7.14753 13.1846 6.15702 12.761L5.37059 14.5999C6.73405 15.183 8.23657 15.3367 9.68662 15.04L9.28572 13.0806ZM6.15702 12.761C5.16614 12.3373 4.31467 11.6179 3.71394 10.6894L2.03474 11.7758C2.84777 13.0325 4.00749 14.017 5.37059 14.5999L6.15702 12.761ZM3.71394 10.6894C3.11301 9.76059 2.79133 8.66591 2.79283 7.5441L0.792834 7.54142C0.790819 9.04589 1.2219 10.5195 2.03474 11.7758L3.71394 10.6894ZM2.79283 7.54543C2.79684 6.04432 3.37757 4.61165 4.39907 3.55904L2.9638 2.1662C1.57546 3.59683 0.798212 5.5294 0.792837 7.54009L2.79283 7.54543ZM4.39907 3.55904C5.41959 2.50744 6.79611 1.92055 8.22606 1.9165L8.22038 -0.0834965C6.24233 -0.0778813 4.35311 0.734573 2.9638 2.1662L4.39907 3.55904ZM8.22322 -0.999994C6.56874 -0.999993 4.954 -0.494168 3.58347 0.4498L4.71793 2.09692C5.75817 1.38044 6.97799 1.00001 8.22322 1.00001L8.22322 -0.999994ZM3.58347 0.4498C2.21332 1.3935 1.15003 2.73157 0.523588 4.29134L2.3795 5.03672C2.86191 3.83557 3.6773 2.81366 4.71793 2.09692L3.58347 0.4498ZM0.523588 4.29134C-0.102762 5.85088 -0.265698 7.5652 0.054216 9.21856L2.0178 8.83862C1.77071 7.56164 1.89699 6.23811 2.3795 5.03672L0.523588 4.29134ZM0.054216 9.21856C0.374155 10.8721 1.16355 12.3946 2.327 13.592L3.76142 12.1983C2.87321 11.2842 2.26486 10.1155 2.0178 8.83862L0.054216 9.21856ZM2.327 13.592C3.49076 14.7898 4.97682 15.6085 6.59889 15.9396L6.99895 13.98C5.77659 13.7305 4.64931 13.1121 3.76142 12.1983L2.327 13.592ZM6.59889 15.9396C8.22118 16.2708 9.902 16.0984 11.4274 15.4457L10.6405 13.607C9.48794 14.1002 8.22109 14.2295 6.99895 13.98L6.59889 15.9396ZM11.4274 15.4457C12.9524 14.7931 14.2504 13.6912 15.1607 12.284L13.4815 11.1977C12.7834 12.2768 11.7935 13.1136 10.6405 13.607L11.4274 15.4457ZM15.1607 12.284C16.0709 10.8772 16.5539 9.22687 16.5519 7.54158L14.5519 7.54394C14.5535 8.84668 14.1798 10.1183 13.4815 11.1977L15.1607 12.284ZM16.5519 7.54276C16.5519 6.42414 16.338 5.31582 15.9216 4.28092L14.0661 5.0274C14.3866 5.82396 14.5519 6.67879 14.5519 7.54276L16.5519 7.54276ZM15.9216 4.28092C15.5052 3.24598 14.8942 2.30384 14.1221 1.50913L12.6876 2.90285C13.2768 3.5092 13.7457 4.23089 14.0661 5.0274L15.9216 4.28092ZM14.1221 1.50913C13.3499 0.714368 12.4315 0.0825804 11.4188 -0.348561L10.6354 1.49162C11.4009 1.81751 12.0986 2.29656 12.6876 2.90285L14.1221 1.50913ZM11.4188 -0.348561C10.406 -0.779732 9.31963 -1.00137 8.22197 -0.999994L8.22447 1C9.05081 0.99897 9.86998 1.16575 10.6354 1.49162L11.4188 -0.348561Z" fill="#13115B" mask="url(#path-1-inside-1_133_28637)"/>
<path d="M12.9009 12.3633L18.3618 17.9997" stroke="#13115B"/>
<path d="M5.74609 10L10.5983 10" stroke="#13115B"/>
<path d="M5.74609 7.5L10.5983 7.5" stroke="#13115B"/>
<path d="M5.74609 5L10.5983 5" stroke="#13115B"/>
</svg>
