<svg width="16" height="16" viewBox="0 0 16 16" fill="none" xmlns="http://www.w3.org/2000/svg">
<path d="M7.99999 1.14286C9.35621 1.14286 10.682 1.54501 11.8096 2.29848C12.9373 3.05195 13.8162 4.12289 14.3352 5.37587C14.8542 6.62884 14.9899 8.00759 14.7254 9.33774C14.4608 10.6679 13.8077 11.8897 12.8487 12.8487C11.8897 13.8077 10.6679 14.4608 9.33776 14.7254C8.00761 14.9899 6.62886 14.8542 5.37589 14.3352C4.12291 13.8162 3.05197 12.9373 2.2985 11.8096C1.54503 10.682 1.14286 9.3562 1.14286 7.99999C1.14286 6.18137 1.8653 4.43722 3.15126 3.15126C4.43722 1.8653 6.18137 1.14286 7.99999 1.14286ZM7.99999 0C6.41775 0 4.87103 0.469197 3.55544 1.34825C2.23984 2.2273 1.21446 3.47673 0.608959 4.93854C0.00345822 6.40035 -0.154957 8.00887 0.153724 9.56071C0.462405 11.1126 1.22432 12.538 2.34314 13.6568C3.46196 14.7756 4.88743 15.5376 6.43928 15.8463C7.99112 16.155 9.59966 15.9965 11.0615 15.391C12.5233 14.7855 13.7727 13.7601 14.6517 12.4445C15.5308 11.1289 16 9.58224 16 7.99999C16 5.87826 15.1571 3.84344 13.6568 2.34315C12.1566 0.842865 10.1217 0 7.99999 0Z" fill="#52DE97"/>
<path d="M8 4.57254V3.42969M8 5.7154V12.5725V5.7154Z" stroke="#52DE97"/>
</svg>
