<svg width="110" height="27" viewBox="0 0 110 27" fill="none" xmlns="http://www.w3.org/2000/svg">
<path fill-rule="evenodd" clip-rule="evenodd" d="M57.6448 16.6558C57.6448 13.9337 55.7286 12.0873 53.1306 12.0873C50.5646 12.0873 48.6484 13.9337 48.6484 16.6558C48.6484 19.3775 50.5646 21.2243 53.1306 21.2243C55.7286 21.2243 57.6448 19.3775 57.6448 16.6558ZM61.835 8.55513V24.7561H57.6448V22.8442C56.4756 24.3023 54.722 25.2097 52.3508 25.2097C48.0314 25.2097 44.4585 21.4835 44.4585 16.6558C44.4585 11.8278 48.0314 8.10156 52.3508 8.10156C54.722 8.10156 56.4756 9.00902 57.6448 10.4671V8.55513H61.835Z" fill="white"/>
<path fill-rule="evenodd" clip-rule="evenodd" d="M80.8026 14.8088V24.7558H76.6128V15.3269C76.6128 13.1239 75.2813 11.9897 73.3973 11.9897C71.3509 11.9897 69.8246 13.1885 69.8246 16.0076V24.7558H65.6348V8.55513H69.8246V10.3697C70.799 8.91137 72.4879 8.10156 74.664 8.10156C78.1069 8.10156 80.8026 10.4992 80.8026 14.8088Z" fill="white"/>
<path fill-rule="evenodd" clip-rule="evenodd" d="M89.9936 12.5734V19.3128C89.9936 21.0625 91.2607 21.0949 93.6641 20.9655V24.7566C87.785 25.4045 85.8041 23.6869 85.8041 19.3128V12.5734H82.9785V8.55556H85.8041V5.28323L89.9936 4.01953V8.55556H93.6641V12.5734H89.9936Z" fill="white"/>
<mask id="mask0_133_28169" style="mask-type:alpha" maskUnits="userSpaceOnUse" x="0" y="0" width="110" height="27">
<path fill-rule="evenodd" clip-rule="evenodd" d="M0 26.3029H109.838V0.316406H0V26.3029Z" fill="white"/>
</mask>
<g mask="url(#mask0_133_28169)">
<path fill-rule="evenodd" clip-rule="evenodd" d="M96.6195 24.7536H100.81V8.55259H96.6195V24.7536ZM96.1323 4.049C96.1323 2.65553 97.3015 1.45703 98.698 1.45703C100.127 1.45703 101.297 2.65553 101.297 4.049C101.297 5.44216 100.127 6.60853 98.698 6.60853C97.3015 6.60853 96.1323 5.44216 96.1323 4.049Z" fill="white"/>
<path fill-rule="evenodd" clip-rule="evenodd" d="M104.317 22.4222C104.317 20.8992 105.551 19.668 107.078 19.668C108.604 19.668 109.838 20.8992 109.838 22.4222C109.838 23.9451 108.604 25.1763 107.078 25.1763C105.551 25.1763 104.317 23.9451 104.317 22.4222Z" fill="#52DE97"/>
<path fill-rule="evenodd" clip-rule="evenodd" d="M21.4713 14.3261L19.7836 11.9097C19.7572 11.8722 19.6992 11.8814 19.6858 11.9253L19.1778 13.5964C19.1511 13.6107 19.1361 13.6184 19.1093 13.6327L14.6181 12.2739C14.7845 12.1393 15.0329 11.9708 15.4028 11.771C16.3357 11.2672 16.9345 10.5671 17.3203 9.86543H17.3267C17.3636 9.798 17.3907 9.72516 17.4255 9.65646C17.4603 9.58521 17.4947 9.51428 17.5256 9.44367C18.1391 8.1049 18.3345 6.54508 17.8253 4.90955C17.137 2.69895 15.3062 0.965772 13.0398 0.470533C8.88759 -0.436291 5.13388 2.78578 5.13388 6.79254C5.13388 7.7353 5.35165 8.62909 5.72373 9.44144C5.75562 9.51428 5.79101 9.58744 5.82736 9.66091C5.86115 9.72834 5.88762 9.79959 5.92365 9.86543H5.93034C6.31614 10.5671 6.91492 11.2672 7.84753 11.771C8.21739 11.9708 8.46576 12.1393 8.6322 12.2739L4.14133 13.6327C4.11455 13.6184 4.09924 13.6107 4.07246 13.5964L3.56455 11.9253C3.55115 11.8814 3.49313 11.8722 3.46666 11.9097L1.77904 14.3261C1.75863 14.3557 1.75257 14.3945 1.76405 14.4285C2.02295 15.2049 2.67243 15.6661 3.51194 15.6661C3.77881 15.6661 4.06672 15.62 4.36802 15.5287L7.89026 14.4632L10.448 13.6893C10.551 13.6578 10.6428 13.5904 10.6929 13.4959C10.7796 13.3305 10.8408 13.1546 10.8784 12.9552C10.8819 12.939 10.8851 12.9224 10.888 12.9043C10.9381 12.5652 10.8921 12.2252 10.7512 11.8935C10.6996 11.7726 10.6485 11.6667 10.588 11.5754C10.5248 11.48 10.4365 11.4017 10.3479 11.3305C10.1961 11.208 10.0574 11.1269 9.87855 11.0525C9.72486 10.9885 9.57501 10.916 9.4293 10.8359C9.13947 10.6762 8.86655 10.486 8.61657 10.2694C8.11472 9.8349 7.70597 9.29545 7.42507 8.69461C7.13779 8.08009 6.9873 7.40546 6.9873 6.72765C6.9873 4.16812 9.08686 2.05231 11.6255 2.05231C14.1638 2.05231 16.263 4.16812 16.263 6.72765C16.263 7.41055 16.1103 8.09059 15.8189 8.70829C15.5354 9.30976 15.1235 9.84921 14.6187 10.2827C14.4048 10.4663 14.1746 10.631 13.9316 10.7732C13.8079 10.8457 13.681 10.9125 13.5516 10.973C13.3861 11.0506 13.2216 11.1062 13.0685 11.2087C12.9168 11.3104 12.7711 11.4278 12.6623 11.5754C12.5973 11.6638 12.5507 11.7726 12.4991 11.8935C12.3582 12.2252 12.3123 12.5652 12.3623 12.9043C12.3652 12.9224 12.3684 12.939 12.3722 12.9552C12.4098 13.1546 12.471 13.3308 12.5578 13.4959C12.6075 13.5907 12.6996 13.6578 12.8023 13.6893L15.3601 14.4632L18.8826 15.5287C19.1836 15.62 19.4715 15.6661 19.7384 15.6661C20.5779 15.6661 21.2274 15.2049 21.4863 14.4285C21.4977 14.3945 21.4917 14.3557 21.4713 14.3261Z" fill="#52DE97"/>
<path fill-rule="evenodd" clip-rule="evenodd" d="M23.0394 18.3936C22.7735 17.9124 22.2879 17.5689 21.596 17.3726L13.9052 15.1913C13.8051 15.1627 13.697 15.1878 13.6199 15.2578L12.8802 15.9254C12.8247 15.9757 12.7523 16.0033 12.6774 16.0033H11.9048H11.6249H11.3453H10.5724C10.4975 16.0033 10.4254 15.9757 10.3696 15.9254L9.63024 15.2578C9.55276 15.1878 9.44499 15.1627 9.34487 15.1913L1.65412 17.3726C0.962235 17.5689 0.476641 17.9124 0.210728 18.3936C-0.00353286 18.7817 -0.0561415 19.2445 0.0608729 19.7038C0.0698005 19.7388 0.0959454 19.7677 0.129424 19.7814L2.8587 20.9032C2.9011 20.9204 2.9451 20.8813 2.93235 20.8374L2.45377 19.1573C2.44548 19.1284 2.46238 19.0979 2.49171 19.0896L7.5549 17.6532C7.61708 17.6357 7.6598 17.7146 7.61102 17.7569L3.75081 21.0896C3.20687 21.5591 2.91226 22.0753 2.87496 22.6237C2.84499 23.0655 2.99357 23.507 3.29455 23.874C3.31719 23.902 3.35322 23.9176 3.38925 23.9157L6.33789 23.7812C6.3838 23.7792 6.40708 23.7252 6.37679 23.6905L5.23151 22.3702C5.21174 22.3473 5.21429 22.3123 5.23725 22.2929L9.21734 18.8561C9.26612 18.8138 9.3385 18.8673 9.31203 18.9264L7.22554 23.5744C6.93157 24.2293 6.8831 24.8213 7.08174 25.3337C7.24148 25.7465 7.56351 26.0846 7.99171 26.2904C8.02392 26.306 8.06345 26.3051 8.09534 26.2882L10.7105 24.923C10.7513 24.9017 10.7494 24.8429 10.7076 24.8244L9.10989 24.1107C9.08215 24.0983 9.06971 24.0658 9.08215 24.0382L11.5697 18.4846C11.5911 18.4372 11.659 18.4372 11.6801 18.4846L14.168 24.0382C14.1804 24.0658 14.168 24.0983 14.1402 24.1107L12.5425 24.8244C12.5008 24.8429 12.4988 24.9017 12.5397 24.923L15.1548 26.2882C15.1867 26.3051 15.2259 26.306 15.2584 26.2904C15.6866 26.0846 16.0083 25.7465 16.1684 25.3337C16.367 24.8213 16.3186 24.2293 16.0246 23.5744L13.9381 18.9264C13.9116 18.8673 13.9837 18.8138 14.0325 18.8561L18.0129 22.2929C18.0358 22.3123 18.0384 22.3473 18.0186 22.3702L16.873 23.6905C16.843 23.7252 16.8663 23.7792 16.9122 23.7812L19.8609 23.9157C19.8969 23.9176 19.9329 23.902 19.9556 23.874C20.2566 23.507 20.4051 23.0655 20.3752 22.6237C20.3379 22.0753 20.0432 21.5591 19.4993 21.0896L15.6391 17.7569C15.5903 17.7146 15.633 17.6357 15.6952 17.6532L20.7584 19.0896C20.7877 19.0979 20.8046 19.1284 20.7964 19.1573L20.3175 20.8374C20.305 20.8813 20.349 20.9204 20.3914 20.9032L23.1207 19.7814C23.1542 19.7677 23.18 19.7388 23.1889 19.7038C23.3059 19.2445 23.2537 18.7817 23.0394 18.3936Z" fill="#52DE97"/>
</g>
</svg>
