<svg width="4" height="20" viewBox="0 0 4 20" fill="none" xmlns="http://www.w3.org/2000/svg">
<path d="M-8.74228e-08 2C-1.35705e-07 3.10457 0.89543 4 2 4C3.10457 4 4 3.10457 4 2C4 0.89543 3.10457 -3.91405e-08 2 -8.74228e-08C0.895431 -1.35705e-07 -3.91405e-08 0.89543 -8.74228e-08 2Z" fill="#13115B"/>
<path d="M-8.74228e-08 10C-1.35705e-07 11.1046 0.89543 12 2 12C3.10457 12 4 11.1046 4 10C4 8.89543 3.10457 8 2 8C0.895431 8 -3.91405e-08 8.89543 -8.74228e-08 10Z" fill="#13115B"/>
<path d="M-8.74228e-08 18C-1.35705e-07 19.1046 0.89543 20 2 20C3.10457 20 4 19.1046 4 18C4 16.8954 3.10457 16 2 16C0.895431 16 -3.91405e-08 16.8954 -8.74228e-08 18Z" fill="#13115B"/>
</svg>
