<svg width="206" height="206" viewBox="0 0 206 206" fill="none" xmlns="http://www.w3.org/2000/svg">
<path d="M165.312 109.475L154.63 94.1717C154.592 94.118 154.541 94.076 154.48 94.0504C154.42 94.0249 154.354 94.0169 154.289 94.0274C154.225 94.0378 154.164 94.0663 154.115 94.1095C154.066 94.1528 154.03 94.209 154.012 94.2718L150.798 104.866L150.363 105.096L121.94 96.4789C123.497 95.2662 125.159 94.1965 126.908 93.283C132.049 90.5268 136.268 86.3236 139.044 81.1937H139.086C139.321 80.7699 139.492 80.305 139.709 79.8694C139.927 79.4339 140.145 78.9689 140.345 78.5216C144.558 69.5097 145.234 59.2448 142.24 49.7581C137.885 35.7324 126.296 24.7379 111.952 21.5949C85.6727 15.8387 61.9238 36.3092 61.9238 61.7002C61.9433 67.5048 63.2162 73.2367 65.6553 78.5039C65.8613 78.9689 66.085 79.4339 66.3145 79.8988C66.5441 80.3638 66.6971 80.7758 66.9031 81.1937H66.9443C69.7205 86.3236 73.94 90.5268 79.0807 93.283C80.8294 94.1965 82.492 95.2662 84.0482 96.4789L55.6379 105.049L55.2023 104.819L51.9887 94.2247C51.9691 94.1621 51.9324 94.1062 51.8827 94.0633C51.8331 94.0204 51.7725 93.9921 51.7077 93.9818C51.6429 93.9714 51.5765 93.9792 51.516 94.0045C51.4554 94.0297 51.4031 94.0713 51.3648 94.1246L40.6881 109.475C40.6226 109.569 40.58 109.677 40.5637 109.79C40.5473 109.903 40.5577 110.019 40.594 110.128C42.2302 115.054 46.3384 117.979 51.6532 117.979C53.5004 117.948 55.3328 117.644 57.0916 117.079L79.3808 110.316L95.5665 105.408C95.8934 105.316 96.1986 105.16 96.4644 104.948C96.7301 104.737 96.9512 104.475 97.1145 104.177C97.6777 103.102 98.0746 101.947 98.2916 100.752C98.2916 100.646 98.3328 100.546 98.3505 100.428C98.6673 98.2509 98.3676 96.0284 97.4853 94.0128C97.2031 93.3104 96.8583 92.6347 96.4553 91.994C96.0308 91.4038 95.5188 90.8818 94.9368 90.446C94.0403 89.7115 93.0383 89.1163 91.9645 88.6803C85.1118 85.7926 79.5776 80.4599 76.438 73.7188C74.6155 69.8114 73.6693 65.5527 73.6658 61.2411C73.6658 45.0083 86.9557 31.583 103.018 31.583C119.08 31.583 132.37 45.0083 132.37 61.2411C132.367 65.5857 131.407 69.8762 129.557 73.8071C126.986 79.277 122.823 83.8434 117.614 86.9087C116.83 87.3678 116.027 87.7896 115.207 88.1742C114.153 88.5949 113.132 89.0947 112.152 89.6691C110.459 90.6258 109.177 92.1719 108.55 94.0128C107.668 96.0284 107.368 98.2509 107.685 100.428C107.685 100.546 107.721 100.646 107.744 100.752C107.961 101.949 108.358 103.105 108.921 104.183C109.086 104.479 109.307 104.74 109.573 104.95C109.838 105.16 110.143 105.316 110.469 105.408L126.655 110.316L148.909 117.079C150.661 117.633 152.486 117.926 154.324 117.95C159.621 117.95 163.741 115.007 165.383 110.098C165.418 109.996 165.43 109.886 165.417 109.779C165.405 109.671 165.369 109.567 165.312 109.475Z" fill="#52DE97"/>
<path d="M175.241 135.264C173.558 132.209 170.48 130.031 166.101 128.789L117.432 114.946C117.119 114.859 116.79 114.852 116.474 114.926C116.158 115 115.866 115.153 115.625 115.37L110.946 119.608C110.593 119.925 110.137 120.101 109.663 120.102H96.3373C95.8633 120.101 95.4064 119.925 95.0542 119.608L90.3751 115.37C90.134 115.153 89.842 115 89.5261 114.926C89.2101 114.852 88.8806 114.859 88.5681 114.946L39.8992 128.783C35.5202 130.031 32.442 132.209 30.7587 135.258C29.3958 137.806 29.0589 140.779 29.817 143.568C29.8446 143.678 29.898 143.78 29.9727 143.865C30.0475 143.95 30.1413 144.015 30.2466 144.057L47.5212 151.173C47.5816 151.197 47.6477 151.205 47.712 151.193C47.7763 151.182 47.8361 151.153 47.8847 151.11C47.9332 151.066 47.9685 151.01 47.9864 150.947C48.0044 150.884 48.0043 150.818 47.9862 150.755L44.955 140.102C44.9425 140.058 44.9388 140.012 44.9442 139.966C44.9495 139.921 44.9638 139.877 44.9862 139.837C45.0087 139.797 45.0388 139.762 45.0748 139.733C45.1109 139.705 45.1522 139.684 45.1963 139.672L77.2381 130.555C77.3227 130.529 77.4138 130.532 77.4959 130.565C77.5781 130.599 77.6461 130.659 77.6885 130.737C77.7309 130.815 77.7449 130.905 77.7283 130.992C77.7116 131.079 77.6653 131.158 77.5972 131.214L53.1656 152.362C49.7224 155.34 47.8684 158.618 47.6212 162.097C47.4633 164.983 48.4127 167.821 50.2757 170.031C50.3486 170.115 50.439 170.182 50.5407 170.228C50.6424 170.274 50.7528 170.297 50.8643 170.295L69.5279 169.442C69.5947 169.439 69.6593 169.417 69.7141 169.379C69.769 169.341 69.8119 169.288 69.8378 169.226C69.8637 169.164 69.8715 169.097 69.8604 169.031C69.8493 168.965 69.8197 168.903 69.7751 168.853L62.5239 160.478C62.4651 160.407 62.4359 160.316 62.4425 160.224C62.4491 160.132 62.4909 160.046 62.5592 159.984L87.75 138.206C87.8166 138.155 87.8984 138.127 87.9827 138.126C88.0669 138.126 88.149 138.153 88.2161 138.204C88.2832 138.255 88.3316 138.327 88.3537 138.408C88.3759 138.489 88.3706 138.576 88.3386 138.654L75.1311 168.135C73.2712 172.291 72.9651 176.052 74.2247 179.318C75.2993 182.001 77.3584 184.172 79.9809 185.386C80.0833 185.437 80.1961 185.464 80.3105 185.464C80.4248 185.464 80.5377 185.437 80.6401 185.386L97.1907 176.723C97.2491 176.694 97.2983 176.65 97.3327 176.595C97.3672 176.539 97.3854 176.476 97.3854 176.411C97.3854 176.346 97.3672 176.282 97.3327 176.227C97.2983 176.172 97.2491 176.127 97.1907 176.099L87.1085 171.526C87.0662 171.508 87.0279 171.481 86.996 171.448C86.964 171.415 86.939 171.376 86.9226 171.334C86.9061 171.291 86.8984 171.245 86.9 171.199C86.9016 171.153 86.9125 171.108 86.9319 171.066L102.676 135.84C102.705 135.772 102.753 135.714 102.815 135.673C102.877 135.632 102.949 135.61 103.023 135.61C103.098 135.61 103.17 135.632 103.232 135.673C103.294 135.714 103.342 135.772 103.371 135.84L119.115 171.066C119.134 171.108 119.145 171.153 119.147 171.199C119.149 171.245 119.141 171.291 119.124 171.334C119.108 171.376 119.083 171.415 119.051 171.448C119.019 171.481 118.981 171.508 118.938 171.526L108.833 176.058C108.774 176.086 108.725 176.13 108.691 176.186C108.656 176.241 108.638 176.304 108.638 176.369C108.638 176.434 108.656 176.498 108.691 176.553C108.725 176.608 108.774 176.653 108.833 176.681L125.366 185.345C125.468 185.396 125.581 185.422 125.695 185.422C125.81 185.422 125.922 185.396 126.025 185.345C128.647 184.131 130.706 181.96 131.781 179.277C133.041 176.028 132.735 172.267 130.875 168.094L117.667 138.613C117.635 138.535 117.63 138.448 117.652 138.367C117.674 138.286 117.723 138.214 117.79 138.163C117.857 138.112 117.939 138.085 118.023 138.085C118.107 138.085 118.189 138.114 118.256 138.165L143.447 159.942C143.515 160.005 143.557 160.091 143.563 160.183C143.57 160.275 143.541 160.366 143.482 160.437L136.231 168.812C136.186 168.862 136.156 168.923 136.145 168.989C136.134 169.055 136.142 169.123 136.168 169.185C136.194 169.246 136.237 169.299 136.292 169.338C136.346 169.376 136.411 169.398 136.478 169.401L155.141 170.254C155.253 170.256 155.363 170.233 155.465 170.187C155.567 170.141 155.657 170.074 155.73 169.989C157.593 167.779 158.542 164.942 158.384 162.055C158.149 158.577 156.283 155.299 152.84 152.32L128.403 131.25C128.335 131.193 128.288 131.114 128.272 131.027C128.255 130.94 128.269 130.85 128.311 130.772C128.354 130.695 128.422 130.634 128.504 130.601C128.586 130.568 128.677 130.564 128.762 130.59L160.804 139.707C160.848 139.72 160.889 139.74 160.925 139.769C160.961 139.797 160.991 139.832 161.014 139.872C161.036 139.912 161.05 139.956 161.056 140.001C161.061 140.047 161.057 140.093 161.045 140.137L158.014 150.79C157.996 150.853 157.995 150.919 158.013 150.982C158.031 151.045 158.067 151.101 158.115 151.145C158.164 151.188 158.224 151.218 158.288 151.229C158.352 151.24 158.418 151.233 158.479 151.208L175.753 144.092C175.858 144.051 175.952 143.985 176.027 143.9C176.102 143.815 176.155 143.713 176.183 143.604C176.949 140.806 176.612 137.82 175.241 135.264Z" fill="#52DE97"/>
</svg>
