<svg width="406" height="33" viewBox="0 0 406 33" fill="none" xmlns="http://www.w3.org/2000/svg">
<path d="M0.11 13.53C0.11 11.49 0.58 9.66 1.52 8.04C2.48 6.42 3.77 5.16 5.39 4.26C7.03 3.34 8.82 2.88 10.76 2.88C12.98 2.88 14.95 3.43 16.67 4.53C18.41 5.61 19.67 7.15 20.45 9.15H16.34C15.8 8.05 15.05 7.23 14.09 6.69C13.13 6.15 12.02 5.88 10.76 5.88C9.38 5.88 8.15 6.19 7.07 6.81C5.99 7.43 5.14 8.32 4.52 9.48C3.92 10.64 3.62 11.99 3.62 13.53C3.62 15.07 3.92 16.42 4.52 17.58C5.14 18.74 5.99 19.64 7.07 20.28C8.15 20.9 9.38 21.21 10.76 21.21C12.02 21.21 13.13 20.94 14.09 20.4C15.05 19.86 15.8 19.04 16.34 17.94H20.45C19.67 19.94 18.41 21.48 16.67 22.56C14.95 23.64 12.98 24.18 10.76 24.18C8.8 24.18 7.01 23.73 5.39 22.83C3.77 21.91 2.48 20.64 1.52 19.02C0.58 17.4 0.11 15.57 0.11 13.53ZM31.6231 24.27C30.0631 24.27 28.6531 23.92 27.3931 23.22C26.1331 22.5 25.1431 21.5 24.4231 20.22C23.7031 18.92 23.3431 17.42 23.3431 15.72C23.3431 14.04 23.7131 12.55 24.4531 11.25C25.1931 9.95 26.2031 8.95 27.4831 8.25C28.7631 7.55 30.1931 7.2 31.7731 7.2C33.3531 7.2 34.7831 7.55 36.0631 8.25C37.3431 8.95 38.3531 9.95 39.0931 11.25C39.8331 12.55 40.2031 14.04 40.2031 15.72C40.2031 17.4 39.8231 18.89 39.0631 20.19C38.3031 21.49 37.2631 22.5 35.9431 23.22C34.6431 23.92 33.2031 24.27 31.6231 24.27ZM31.6231 21.3C32.5031 21.3 33.3231 21.09 34.0831 20.67C34.8631 20.25 35.4931 19.62 35.9731 18.78C36.4531 17.94 36.6931 16.92 36.6931 15.72C36.6931 14.52 36.4631 13.51 36.0031 12.69C35.5431 11.85 34.9331 11.22 34.1731 10.8C33.4131 10.38 32.5931 10.17 31.7131 10.17C30.8331 10.17 30.0131 10.38 29.2531 10.8C28.5131 11.22 27.9231 11.85 27.4831 12.69C27.0431 13.51 26.8231 14.52 26.8231 15.72C26.8231 17.5 27.2731 18.88 28.1731 19.86C29.0931 20.82 30.2431 21.3 31.6231 21.3ZM51.924 7.2C53.224 7.2 54.384 7.47 55.404 8.01C56.444 8.55 57.254 9.35 57.834 10.41C58.414 11.47 58.704 12.75 58.704 14.25V24H55.314V14.76C55.314 13.28 54.944 12.15 54.204 11.37C53.464 10.57 52.454 10.17 51.174 10.17C49.894 10.17 48.874 10.57 48.114 11.37C47.374 12.15 47.004 13.28 47.004 14.76V24H43.584V7.47H47.004V9.36C47.564 8.68 48.274 8.15 49.134 7.77C50.014 7.39 50.944 7.2 51.924 7.2ZM69.9964 10.26H66.9364V24H63.4864V10.26H61.5364V7.47H63.4864V6.3C63.4864 4.4 63.9864 3.02 64.9864 2.16C66.0064 1.28 67.5964 0.84 69.7564 0.84V3.69C68.7164 3.69 67.9864 3.89 67.5664 4.29C67.1464 4.67 66.9364 5.34 66.9364 6.3V7.47H69.9964V10.26ZM74.7673 5.28C74.1473 5.28 73.6273 5.07 73.2073 4.65C72.7873 4.23 72.5773 3.71 72.5773 3.09C72.5773 2.47 72.7873 1.95 73.2073 1.53C73.6273 1.11 74.1473 0.899999 74.7673 0.899999C75.3673 0.899999 75.8773 1.11 76.2973 1.53C76.7173 1.95 76.9273 2.47 76.9273 3.09C76.9273 3.71 76.7173 4.23 76.2973 4.65C75.8773 5.07 75.3673 5.28 74.7673 5.28ZM76.4473 7.47V24H73.0273V7.47H76.4473ZM87.5975 7.2C88.8775 7.2 90.0075 7.46 90.9875 7.98C91.9875 8.48 92.7675 9.11 93.3275 9.87V7.47H96.7775V24.27C96.7775 25.79 96.4575 27.14 95.8175 28.32C95.1775 29.52 94.2475 30.46 93.0275 31.14C91.8275 31.82 90.3875 32.16 88.7075 32.16C86.4675 32.16 84.6075 31.63 83.1275 30.57C81.6475 29.53 80.8075 28.11 80.6075 26.31H83.9975C84.2575 27.17 84.8075 27.86 85.6475 28.38C86.5075 28.92 87.5275 29.19 88.7075 29.19C90.0875 29.19 91.1975 28.77 92.0375 27.93C92.8975 27.09 93.3275 25.87 93.3275 24.27V21.51C92.7475 22.29 91.9575 22.95 90.9575 23.49C89.9775 24.01 88.8575 24.27 87.5975 24.27C86.1575 24.27 84.8375 23.91 83.6375 23.19C82.4575 22.45 81.5175 21.43 80.8175 20.13C80.1375 18.81 79.7975 17.32 79.7975 15.66C79.7975 14 80.1375 12.53 80.8175 11.25C81.5175 9.97 82.4575 8.98 83.6375 8.28C84.8375 7.56 86.1575 7.2 87.5975 7.2ZM93.3275 15.72C93.3275 14.58 93.0875 13.59 92.6075 12.75C92.1475 11.91 91.5375 11.27 90.7775 10.83C90.0175 10.39 89.1975 10.17 88.3175 10.17C87.4375 10.17 86.6175 10.39 85.8575 10.83C85.0975 11.25 84.4775 11.88 83.9975 12.72C83.5375 13.54 83.3075 14.52 83.3075 15.66C83.3075 16.8 83.5375 17.8 83.9975 18.66C84.4775 19.52 85.0975 20.18 85.8575 20.64C86.6375 21.08 87.4575 21.3 88.3175 21.3C89.1975 21.3 90.0175 21.08 90.7775 20.64C91.5375 20.2 92.1475 19.56 92.6075 18.72C93.0875 17.86 93.3275 16.86 93.3275 15.72ZM116.24 7.47V24H112.82V22.05C112.28 22.73 111.57 23.27 110.69 23.67C109.83 24.05 108.91 24.24 107.93 24.24C106.63 24.24 105.46 23.97 104.42 23.43C103.4 22.89 102.59 22.09 101.99 21.03C101.41 19.97 101.12 18.69 101.12 17.19V7.47H104.51V16.68C104.51 18.16 104.88 19.3 105.62 20.1C106.36 20.88 107.37 21.27 108.65 21.27C109.93 21.27 110.94 20.88 111.68 20.1C112.44 19.3 112.82 18.16 112.82 16.68V7.47H116.24ZM124.172 9.87C124.672 9.03 125.332 8.38 126.152 7.92C126.992 7.44 127.982 7.2 129.122 7.2V10.74H128.252C126.912 10.74 125.892 11.08 125.192 11.76C124.512 12.44 124.172 13.62 124.172 15.3V24H120.752V7.47H124.172V9.87ZM147.416 15.33C147.416 15.95 147.376 16.51 147.296 17.01H134.666C134.766 18.33 135.256 19.39 136.136 20.19C137.016 20.99 138.096 21.39 139.376 21.39C141.216 21.39 142.516 20.62 143.276 19.08H146.966C146.466 20.6 145.556 21.85 144.236 22.83C142.936 23.79 141.316 24.27 139.376 24.27C137.796 24.27 136.376 23.92 135.116 23.22C133.876 22.5 132.896 21.5 132.176 20.22C131.476 18.92 131.126 17.42 131.126 15.72C131.126 14.02 131.466 12.53 132.146 11.25C132.846 9.95 133.816 8.95 135.056 8.25C136.316 7.55 137.756 7.2 139.376 7.2C140.936 7.2 142.326 7.54 143.546 8.22C144.766 8.9 145.716 9.86 146.396 11.1C147.076 12.32 147.416 13.73 147.416 15.33ZM143.846 14.25C143.826 12.99 143.376 11.98 142.496 11.22C141.616 10.46 140.526 10.08 139.226 10.08C138.046 10.08 137.036 10.46 136.196 11.22C135.356 11.96 134.856 12.97 134.696 14.25H143.846ZM294.301 24.27C293.001 24.27 291.831 24.04 290.791 23.58C289.771 23.1 288.961 22.46 288.361 21.66C287.761 20.84 287.441 19.93 287.401 18.93H290.941C291.001 19.63 291.331 20.22 291.931 20.7C292.551 21.16 293.321 21.39 294.241 21.39C295.201 21.39 295.941 21.21 296.461 20.85C297.001 20.47 297.271 19.99 297.271 19.41C297.271 18.79 296.971 18.33 296.371 18.03C295.791 17.73 294.861 17.4 293.581 17.04C292.341 16.7 291.331 16.37 290.551 16.05C289.771 15.73 289.091 15.24 288.511 14.58C287.951 13.92 287.671 13.05 287.671 11.97C287.671 11.09 287.931 10.29 288.451 9.57C288.971 8.83 289.711 8.25 290.671 7.83C291.651 7.41 292.771 7.2 294.031 7.2C295.911 7.2 297.421 7.68 298.561 8.64C299.721 9.58 300.341 10.87 300.421 12.51H297.001C296.941 11.77 296.641 11.18 296.101 10.74C295.561 10.3 294.831 10.08 293.911 10.08C293.011 10.08 292.321 10.25 291.841 10.59C291.361 10.93 291.121 11.38 291.121 11.94C291.121 12.38 291.281 12.75 291.601 13.05C291.921 13.35 292.311 13.59 292.771 13.77C293.231 13.93 293.911 14.14 294.811 14.4C296.011 14.72 296.991 15.05 297.751 15.39C298.531 15.71 299.201 16.19 299.761 16.83C300.321 17.47 300.611 18.32 300.631 19.38C300.631 20.32 300.371 21.16 299.851 21.9C299.331 22.64 298.591 23.22 297.631 23.64C296.691 24.06 295.581 24.27 294.301 24.27ZM319.476 15.33C319.476 15.95 319.436 16.51 319.356 17.01H306.726C306.826 18.33 307.316 19.39 308.196 20.19C309.076 20.99 310.156 21.39 311.436 21.39C313.276 21.39 314.576 20.62 315.336 19.08H319.026C318.526 20.6 317.616 21.85 316.296 22.83C314.996 23.79 313.376 24.27 311.436 24.27C309.856 24.27 308.436 23.92 307.176 23.22C305.936 22.5 304.956 21.5 304.236 20.22C303.536 18.92 303.186 17.42 303.186 15.72C303.186 14.02 303.526 12.53 304.206 11.25C304.906 9.95 305.876 8.95 307.116 8.25C308.376 7.55 309.816 7.2 311.436 7.2C312.996 7.2 314.386 7.54 315.606 8.22C316.826 8.9 317.776 9.86 318.456 11.1C319.136 12.32 319.476 13.73 319.476 15.33ZM315.906 14.25C315.886 12.99 315.436 11.98 314.556 11.22C313.676 10.46 312.586 10.08 311.286 10.08C310.106 10.08 309.096 10.46 308.256 11.22C307.416 11.96 306.916 12.97 306.756 14.25H315.906ZM326.832 10.26V19.41C326.832 20.03 326.972 20.48 327.252 20.76C327.552 21.02 328.052 21.15 328.752 21.15H330.852V24H328.152C326.612 24 325.432 23.64 324.612 22.92C323.792 22.2 323.382 21.03 323.382 19.41V10.26H321.432V7.47H323.382V3.36H326.832V7.47H330.852V10.26H326.832ZM337.994 10.26V19.41C337.994 20.03 338.134 20.48 338.414 20.76C338.714 21.02 339.214 21.15 339.914 21.15H342.014V24H339.314C337.774 24 336.594 23.64 335.774 22.92C334.954 22.2 334.544 21.03 334.544 19.41V10.26H332.594V7.47H334.544V3.36H337.994V7.47H342.014V10.26H337.994ZM346.906 5.28C346.286 5.28 345.766 5.07 345.346 4.65C344.926 4.23 344.716 3.71 344.716 3.09C344.716 2.47 344.926 1.95 345.346 1.53C345.766 1.11 346.286 0.899999 346.906 0.899999C347.506 0.899999 348.016 1.11 348.436 1.53C348.856 1.95 349.066 2.47 349.066 3.09C349.066 3.71 348.856 4.23 348.436 4.65C348.016 5.07 347.506 5.28 346.906 5.28ZM348.586 7.47V24H345.166V7.47H348.586ZM361.416 7.2C362.716 7.2 363.876 7.47 364.896 8.01C365.936 8.55 366.746 9.35 367.326 10.41C367.906 11.47 368.196 12.75 368.196 14.25V24H364.806V14.76C364.806 13.28 364.436 12.15 363.696 11.37C362.956 10.57 361.946 10.17 360.666 10.17C359.386 10.17 358.366 10.57 357.606 11.37C356.866 12.15 356.496 13.28 356.496 14.76V24H353.076V7.47H356.496V9.36C357.056 8.68 357.766 8.15 358.626 7.77C359.506 7.39 360.436 7.2 361.416 7.2ZM379.219 7.2C380.499 7.2 381.629 7.46 382.609 7.98C383.609 8.48 384.389 9.11 384.949 9.87V7.47H388.399V24.27C388.399 25.79 388.079 27.14 387.439 28.32C386.799 29.52 385.869 30.46 384.649 31.14C383.449 31.82 382.009 32.16 380.329 32.16C378.089 32.16 376.229 31.63 374.749 30.57C373.269 29.53 372.429 28.11 372.229 26.31H375.619C375.879 27.17 376.429 27.86 377.269 28.38C378.129 28.92 379.149 29.19 380.329 29.19C381.709 29.19 382.819 28.77 383.659 27.93C384.519 27.09 384.949 25.87 384.949 24.27V21.51C384.369 22.29 383.579 22.95 382.579 23.49C381.599 24.01 380.479 24.27 379.219 24.27C377.779 24.27 376.459 23.91 375.259 23.19C374.079 22.45 373.139 21.43 372.439 20.13C371.759 18.81 371.419 17.32 371.419 15.66C371.419 14 371.759 12.53 372.439 11.25C373.139 9.97 374.079 8.98 375.259 8.28C376.459 7.56 377.779 7.2 379.219 7.2ZM384.949 15.72C384.949 14.58 384.709 13.59 384.229 12.75C383.769 11.91 383.159 11.27 382.399 10.83C381.639 10.39 380.819 10.17 379.939 10.17C379.059 10.17 378.239 10.39 377.479 10.83C376.719 11.25 376.099 11.88 375.619 12.72C375.159 13.54 374.929 14.52 374.929 15.66C374.929 16.8 375.159 17.8 375.619 18.66C376.099 19.52 376.719 20.18 377.479 20.64C378.259 21.08 379.079 21.3 379.939 21.3C380.819 21.3 381.639 21.08 382.399 20.64C383.159 20.2 383.769 19.56 384.229 18.72C384.709 17.86 384.949 16.86 384.949 15.72ZM398.891 24.27C397.591 24.27 396.421 24.04 395.381 23.58C394.361 23.1 393.551 22.46 392.951 21.66C392.351 20.84 392.031 19.93 391.991 18.93H395.531C395.591 19.63 395.921 20.22 396.521 20.7C397.141 21.16 397.911 21.39 398.831 21.39C399.791 21.39 400.531 21.21 401.051 20.85C401.591 20.47 401.861 19.99 401.861 19.41C401.861 18.79 401.561 18.33 400.961 18.03C400.381 17.73 399.451 17.4 398.171 17.04C396.931 16.7 395.921 16.37 395.141 16.05C394.361 15.73 393.681 15.24 393.101 14.58C392.541 13.92 392.261 13.05 392.261 11.97C392.261 11.09 392.521 10.29 393.041 9.57C393.561 8.83 394.301 8.25 395.261 7.83C396.241 7.41 397.361 7.2 398.621 7.2C400.501 7.2 402.011 7.68 403.151 8.64C404.311 9.58 404.931 10.87 405.011 12.51H401.591C401.531 11.77 401.231 11.18 400.691 10.74C400.151 10.3 399.421 10.08 398.501 10.08C397.601 10.08 396.911 10.25 396.431 10.59C395.951 10.93 395.711 11.38 395.711 11.94C395.711 12.38 395.871 12.75 396.191 13.05C396.511 13.35 396.901 13.59 397.361 13.77C397.821 13.93 398.501 14.14 399.401 14.4C400.601 14.72 401.581 15.05 402.341 15.39C403.121 15.71 403.791 16.19 404.351 16.83C404.911 17.47 405.201 18.32 405.221 19.38C405.221 20.32 404.961 21.16 404.441 21.9C403.921 22.64 403.181 23.22 402.221 23.64C401.281 24.06 400.171 24.27 398.891 24.27Z" fill="#394253"/>
<path d="M181.224 3.06V24H177.024V10.38L171.414 24H168.234L162.594 10.38V24H158.394V3.06H163.164L169.824 18.63L176.484 3.06H181.224ZM192.757 24.27C191.157 24.27 189.717 23.92 188.437 23.22C187.157 22.5 186.147 21.49 185.407 20.19C184.687 18.89 184.327 17.39 184.327 15.69C184.327 13.99 184.697 12.49 185.437 11.19C186.197 9.89 187.227 8.89 188.527 8.19C189.827 7.47 191.277 7.11 192.877 7.11C194.477 7.11 195.927 7.47 197.227 8.19C198.527 8.89 199.547 9.89 200.287 11.19C201.047 12.49 201.427 13.99 201.427 15.69C201.427 17.39 201.037 18.89 200.257 20.19C199.497 21.49 198.457 22.5 197.137 23.22C195.837 23.92 194.377 24.27 192.757 24.27ZM192.757 20.61C193.517 20.61 194.227 20.43 194.887 20.07C195.567 19.69 196.107 19.13 196.507 18.39C196.907 17.65 197.107 16.75 197.107 15.69C197.107 14.11 196.687 12.9 195.847 12.06C195.027 11.2 194.017 10.77 192.817 10.77C191.617 10.77 190.607 11.2 189.787 12.06C188.987 12.9 188.587 14.11 188.587 15.69C188.587 17.27 188.977 18.49 189.757 19.35C190.557 20.19 191.557 20.61 192.757 20.61ZM203.427 15.63C203.427 13.95 203.757 12.46 204.417 11.16C205.098 9.86 206.018 8.86 207.178 8.16C208.338 7.46 209.628 7.11 211.048 7.11C212.128 7.11 213.158 7.35 214.138 7.83C215.118 8.29 215.898 8.91 216.478 9.69V1.8H220.738V24H216.478V21.54C215.958 22.36 215.228 23.02 214.288 23.52C213.348 24.02 212.258 24.27 211.018 24.27C209.618 24.27 208.338 23.91 207.178 23.19C206.018 22.47 205.098 21.46 204.417 20.16C203.757 18.84 203.427 17.33 203.427 15.63ZM216.508 15.69C216.508 14.67 216.308 13.8 215.908 13.08C215.508 12.34 214.968 11.78 214.288 11.4C213.608 11 212.878 10.8 212.098 10.8C211.318 10.8 210.598 10.99 209.938 11.37C209.278 11.75 208.738 12.31 208.318 13.05C207.918 13.77 207.718 14.63 207.718 15.63C207.718 16.63 207.918 17.51 208.318 18.27C208.738 19.01 209.278 19.58 209.938 19.98C210.618 20.38 211.338 20.58 212.098 20.58C212.878 20.58 213.608 20.39 214.288 20.01C214.968 19.61 215.508 19.05 215.908 18.33C216.308 17.59 216.508 16.71 216.508 15.69ZM240.29 15.33C240.29 15.93 240.25 16.47 240.17 16.95H228.02C228.12 18.15 228.54 19.09 229.28 19.77C230.02 20.45 230.93 20.79 232.01 20.79C233.57 20.79 234.68 20.12 235.34 18.78H239.87C239.39 20.38 238.47 21.7 237.11 22.74C235.75 23.76 234.08 24.27 232.1 24.27C230.5 24.27 229.06 23.92 227.78 23.22C226.52 22.5 225.53 21.49 224.81 20.19C224.11 18.89 223.76 17.39 223.76 15.69C223.76 13.97 224.11 12.46 224.81 11.16C225.51 9.86 226.49 8.86 227.75 8.16C229.01 7.46 230.46 7.11 232.1 7.11C233.68 7.11 235.09 7.45 236.33 8.13C237.59 8.81 238.56 9.78 239.24 11.04C239.94 12.28 240.29 13.71 240.29 15.33ZM235.94 14.13C235.92 13.05 235.53 12.19 234.77 11.55C234.01 10.89 233.08 10.56 231.98 10.56C230.94 10.56 230.06 10.88 229.34 11.52C228.64 12.14 228.21 13.01 228.05 14.13H235.94ZM247.555 1.8V24H243.355V1.8H247.555ZM271.693 20.01H263.353L261.973 24H257.563L265.093 3.03H269.983L277.513 24H273.073L271.693 20.01ZM270.553 16.65L267.523 7.89L264.493 16.65H270.553Z" fill="#52DE97"/>
</svg>
