<svg width="114" height="109" viewBox="0 0 114 109" fill="none" xmlns="http://www.w3.org/2000/svg">
<g clip-path="url(#clip0_162_31427)">
<path d="M24.2447 8.33621C24.2456 8.45402 24.2226 8.57088 24.177 8.67961C24.1313 8.78835 24.064 8.88678 23.9791 8.96901C23.8961 9.05298 23.7972 9.11949 23.6879 9.16483C23.5786 9.21017 23.4614 9.23346 23.343 9.23307C23.1028 9.23206 22.8724 9.1372 22.7019 8.96901C22.617 8.88678 22.5499 8.78835 22.5043 8.67961C22.4587 8.57088 22.4356 8.45402 22.4365 8.33621C22.4365 8.09475 22.5329 7.86325 22.7046 7.69251C22.8763 7.52177 23.1093 7.42579 23.3521 7.42579C23.4706 7.42539 23.5878 7.44868 23.6971 7.49402C23.8063 7.53936 23.9053 7.60588 23.9883 7.68984C24.1564 7.86313 24.2486 8.09551 24.2447 8.33621Z" fill="#86E8B6"/>
<path d="M16.769 8.33413C16.7699 8.45195 16.7469 8.56881 16.7012 8.67754C16.6556 8.78628 16.5885 8.88471 16.5036 8.96694C16.421 9.05132 16.322 9.11828 16.2126 9.16365C16.1033 9.20902 15.9857 9.23191 15.8672 9.231C15.6244 9.231 15.3916 9.13501 15.2199 8.96427C15.0482 8.79353 14.9517 8.56203 14.9517 8.32058C14.9517 8.07912 15.0482 7.84762 15.2199 7.67688C15.3916 7.50614 15.6244 7.41016 15.8672 7.41016C15.9875 7.41194 16.1062 7.43721 16.2166 7.48462C16.327 7.53202 16.4268 7.60063 16.5106 7.68644C16.5943 7.77225 16.6603 7.87358 16.7046 7.98473C16.7489 8.09588 16.7708 8.21457 16.769 8.33413Z" fill="#86E8B6"/>
<path d="M9.28851 8.33413C9.28943 8.45195 9.26641 8.56881 9.22078 8.67754C9.17515 8.78628 9.10782 8.88471 9.02295 8.96694C8.94026 9.05132 8.84127 9.11828 8.73191 9.16365C8.62256 9.20902 8.50527 9.23191 8.38678 9.231C8.14395 9.231 7.91091 9.13501 7.73921 8.96427C7.5675 8.79353 7.47119 8.56203 7.47119 8.32058C7.47119 8.07912 7.5675 7.84762 7.73921 7.67688C7.91091 7.50614 8.14395 7.41016 8.38678 7.41016C8.50702 7.41194 8.62554 7.43721 8.73594 7.48462C8.84634 7.53202 8.94636 7.60063 9.03011 7.68644C9.11385 7.77225 9.17979 7.87358 9.22413 7.98473C9.26847 8.09588 9.29033 8.21457 9.28851 8.33413Z" fill="#86E8B6"/>
<path d="M82.2703 75.0019V53.2201C82.2703 52.911 82.3938 52.6146 82.6136 52.3961C82.8334 52.1776 83.1316 52.0547 83.4425 52.0547H105.329C105.639 52.0559 105.936 52.1792 106.155 52.3977C106.374 52.6161 106.497 52.9118 106.497 53.2201V75.0019C106.497 75.3102 106.374 75.6059 106.155 75.8243C105.936 76.0427 105.639 76.1661 105.329 76.1673H83.4241C83.1165 76.1625 82.8227 76.0375 82.6069 75.8195C82.3911 75.6015 82.2702 75.3078 82.2703 75.0019ZM84.1014 74.3691H104.73V53.8574H84.1014V74.3691Z" fill="#86E8B6"/>
<path d="M89.4666 64.7836C89.6378 64.6168 89.868 64.5233 90.1077 64.5233C90.3474 64.5233 90.5776 64.6168 90.7488 64.7836L91.8839 65.9171C92.241 66.2676 92.5339 66.6363 93.1656 65.9171L99.9136 59.2073C100.085 59.0418 100.314 58.9492 100.552 58.9492C100.791 58.9492 101.02 59.0418 101.191 59.2073C101.359 59.3775 101.452 59.6062 101.452 59.8445C101.452 60.0828 101.359 60.3116 101.191 60.4818L93.1656 68.4616C92.9945 68.6284 92.7646 68.7219 92.525 68.7219C92.2853 68.7219 92.055 68.6284 91.8839 68.4616L89.4666 66.0581C89.2989 65.8879 89.2051 65.6592 89.2051 65.4208C89.2051 65.1825 89.2989 64.9538 89.4666 64.7836Z" fill="#86E8B6"/>
<path d="M105.613 22.3086H83.1721C82.674 22.3086 82.2703 22.7101 82.2703 23.2054V23.2099C82.2703 23.7052 82.674 24.1067 83.1721 24.1067H105.613C106.111 24.1067 106.515 23.7052 106.515 23.2099V23.2054C106.515 22.7101 106.111 22.3086 105.613 22.3086Z" fill="#86E8B6"/>
<path d="M105.613 29.75H83.1721C82.674 29.75 82.2703 30.1515 82.2703 30.6468V30.6513C82.2703 31.1466 82.674 31.5481 83.1721 31.5481H105.613C106.111 31.5481 106.515 31.1466 106.515 30.6513V30.6468C106.515 30.1515 106.111 29.75 105.613 29.75Z" fill="#86E8B6"/>
<path d="M105.613 37.1836H83.1721C82.674 37.1836 82.2703 37.5851 82.2703 38.0804V38.0849C82.2703 38.5802 82.674 38.9817 83.1721 38.9817H105.613C106.111 38.9817 106.515 38.5802 106.515 38.0849V38.0804C106.515 37.5851 106.111 37.1836 105.613 37.1836Z" fill="#86E8B6"/>
<path d="M105.613 44.6211H105.609C105.111 44.6211 104.707 45.0226 104.707 45.5179V45.5224C104.707 46.0177 105.111 46.4192 105.609 46.4192H105.613C106.111 46.4192 106.515 46.0177 106.515 45.5224V45.5179C106.515 45.0226 106.111 44.6211 105.613 44.6211Z" fill="#86E8B6"/>
<path d="M98.1328 44.6211H98.1282C97.6301 44.6211 97.2263 45.0226 97.2263 45.5179V45.5224C97.2263 46.0177 97.6301 46.4192 98.1282 46.4192H98.1328C98.6308 46.4192 99.0346 46.0177 99.0346 45.5224V45.5179C99.0346 45.0226 98.6308 44.6211 98.1328 44.6211Z" fill="#86E8B6"/>
<path d="M83.1767 44.6211H83.1721C82.674 44.6211 82.2703 45.0226 82.2703 45.5179V45.5224C82.2703 46.0177 82.674 46.4192 83.1721 46.4192H83.1767C83.6748 46.4192 84.0785 46.0177 84.0785 45.5224V45.5179C84.0785 45.0226 83.6748 44.6211 83.1767 44.6211Z" fill="#86E8B6"/>
<path d="M90.6572 44.6211H90.6526C90.1545 44.6211 89.7507 45.0226 89.7507 45.5179V45.5224C89.7507 46.0177 90.1545 46.4192 90.6526 46.4192H90.6572C91.1552 46.4192 91.559 46.0177 91.559 45.5224V45.5179C91.559 45.0226 91.1552 44.6211 90.6572 44.6211Z" fill="#86E8B6"/>
<path d="M8.38666 22.3086H8.38208C7.884 22.3086 7.48022 22.7101 7.48022 23.2054V23.2099C7.48022 23.7052 7.884 24.1067 8.38208 24.1067H8.38666C8.88474 24.1067 9.28851 23.7052 9.28851 23.2099V23.2054C9.28851 22.7101 8.88474 22.3086 8.38666 22.3086Z" fill="#86E8B6"/>
<path d="M47.6518 22.3086H15.8625C15.3645 22.3086 14.9607 22.7101 14.9607 23.2054V23.2099C14.9607 23.7052 15.3645 24.1067 15.8625 24.1067H47.6518C48.1499 24.1067 48.5536 23.7052 48.5536 23.2099V23.2054C48.5536 22.7101 48.1499 22.3086 47.6518 22.3086Z" fill="#86E8B6"/>
<path d="M47.6517 29.75H8.38208C7.884 29.75 7.48022 30.1515 7.48022 30.6468V30.6513C7.48022 31.1466 7.884 31.5481 8.38208 31.5481H47.6517C48.1498 31.5481 48.5535 31.1466 48.5535 30.6513V30.6468C48.5535 30.1515 48.1498 29.75 47.6517 29.75Z" fill="#86E8B6"/>
<path d="M23.3428 37.1836H8.38208C7.884 37.1836 7.48022 37.5851 7.48022 38.0804V38.0849C7.48022 38.5802 7.884 38.9817 8.38208 38.9817H23.3428C23.8409 38.9817 24.2447 38.5802 24.2447 38.0849V38.0804C24.2447 37.5851 23.8409 37.1836 23.3428 37.1836Z" fill="#86E8B6"/>
<path d="M23.3428 44.6211H8.38208C7.884 44.6211 7.48022 45.0226 7.48022 45.5179V45.5224C7.48022 46.0177 7.884 46.4192 8.38208 46.4192H23.3428C23.8409 46.4192 24.2447 46.0177 24.2447 45.5224V45.5179C24.2447 45.0226 23.8409 44.6211 23.3428 44.6211Z" fill="#86E8B6"/>
<path d="M49.9362 -4398.89V3058.81V-4398.89ZM64.6864 48.6787C62.2535 46.2192 59.2321 44.4146 55.9058 43.4346C55.5801 43.3462 55.2329 43.3857 54.9352 43.5439C54.6445 43.71 54.4285 43.9805 54.331 44.2993C54.2967 44.4336 54.2768 44.5713 54.2716 44.7095C54.2737 44.9746 54.3603 45.2324 54.519 45.4458C54.6778 45.6592 54.9004 45.8174 55.155 45.897C58.966 47.0234 62.3082 49.3457 64.6822 52.5166C67.0561 55.688 68.3343 59.5381 68.3257 63.4912C68.3247 65.9067 67.8431 68.2979 66.909 70.5273C65.9748 72.7568 64.6064 74.7812 62.8825 76.4829C61.1629 78.1914 59.1204 79.5449 56.8726 80.4653C54.6248 81.3853 52.216 81.8545 49.7851 81.8452C44.8837 81.8228 40.1911 79.8696 36.7343 76.4146C33.2775 72.9595 31.338 68.2832 31.3405 63.4092C31.3534 59.6284 32.5359 55.9429 34.7275 52.8535C36.919 49.7637 40.0137 47.4194 43.5912 46.1387C43.8361 46.0493 44.0476 45.8872 44.1974 45.6748C44.3472 45.4624 44.4281 45.2095 44.429 44.9502C44.4325 44.7939 44.4027 44.6392 44.3418 44.4951C44.229 44.1831 43.9968 43.9282 43.6958 43.7861C43.3948 43.6436 43.0496 43.6255 42.7351 43.7349C39.7916 44.7837 37.1182 46.4673 34.9067 48.665C32.9493 50.6064 31.3978 52.9141 30.3417 55.4546C29.2857 57.9956 28.7462 60.7188 28.754 63.4683C28.7471 66.2236 29.2899 68.9536 30.3507 71.499C31.4115 74.0449 32.9694 76.356 34.9342 78.2988C38.8943 82.2197 44.2563 84.4189 49.8447 84.415C55.4331 84.4106 60.7919 82.2031 64.7459 78.2764C66.698 76.3413 68.245 74.0405 69.2972 71.5078C70.3494 68.9746 70.8859 66.2588 70.8758 63.5181C70.8775 60.7598 70.3296 58.0283 69.2641 55.4814C68.1987 52.9346 66.6367 50.6221 64.6681 48.6787H64.6864ZM60.8638 63.5684C60.7811 63.4844 60.6821 63.4175 60.5727 63.3721C60.4634 63.3267 60.3459 63.3037 60.2274 63.3047C59.9845 63.3047 59.7517 63.4004 59.58 63.5713C59.4083 63.7417 59.3118 63.9736 59.3118 64.2148C59.3128 64.4536 59.4082 64.6826 59.5773 64.8525C59.66 64.9365 59.759 65.0034 59.8684 65.0488C59.9777 65.0942 60.0952 65.1172 60.2137 65.1162C60.3322 65.1172 60.4495 65.0942 60.5589 65.0488C60.6682 65.0034 60.7672 64.9365 60.8499 64.8525C61.0191 64.6826 61.1145 64.4536 61.1155 64.2148C61.1097 63.98 61.013 63.7568 60.8454 63.5913L60.8638 63.5684ZM52.7516 63.3047C52.5087 63.3047 52.2759 63.4004 52.1042 63.5713C51.9325 63.7417 51.836 63.9736 51.836 64.2148C51.836 64.4565 51.9325 64.688 52.1042 64.8584C52.2759 65.0293 52.5087 65.1255 52.7516 65.1255C52.87 65.1255 52.9874 65.1025 53.0967 65.0571C53.206 65.0122 53.3049 64.9453 53.3879 64.8613C53.5571 64.6919 53.6525 64.4624 53.6535 64.2236C53.6547 64.103 53.6318 63.9834 53.586 63.8716C53.5402 63.7598 53.4725 63.6582 53.3868 63.5728C53.3012 63.4868 53.1995 63.4194 53.0873 63.3735C52.9751 63.3271 52.8546 63.3037 52.7332 63.3047H52.7516ZM45.9077 63.5684C45.8246 63.4844 45.7255 63.418 45.6162 63.3726C45.5069 63.3271 45.3897 63.3042 45.2713 63.3047C45.0284 63.3047 44.7956 63.4004 44.6239 63.5713C44.4522 63.7417 44.3557 63.9736 44.3557 64.2148C44.3567 64.4536 44.4521 64.6826 44.6212 64.8525C44.7918 65.0205 45.0219 65.1152 45.2621 65.1162C45.3805 65.1167 45.4977 65.0933 45.607 65.0479C45.7163 65.0024 45.8155 64.9365 45.8985 64.8525C46.0676 64.6826 46.1628 64.4536 46.1638 64.2148C46.1568 63.9795 46.0585 63.7559 45.8893 63.5913L45.9077 63.5684ZM38.4318 63.5684C38.2613 63.4004 38.0312 63.3057 37.791 63.3047C37.5481 63.3047 37.3151 63.4004 37.1434 63.5713C36.9717 63.7417 36.8754 63.9736 36.8754 64.2148C36.8764 64.4536 36.9716 64.6826 37.1407 64.8525C37.3112 65.0205 37.5416 65.1152 37.7818 65.1162C38.022 65.1152 38.2521 65.0205 38.4227 64.8525C38.5918 64.6826 38.6872 64.4536 38.6882 64.2148C38.6812 63.9795 38.5827 63.7559 38.4135 63.5913L38.4318 63.5684ZM22.7293 83.4067L22.5371 83.6021H22.766L22.853 83.5293L22.7293 83.4067ZM38.4318 63.5684C38.2613 63.4004 38.0312 63.3057 37.791 63.3047C37.5481 63.3047 37.3151 63.4004 37.1434 63.5713C36.9717 63.7417 36.8754 63.9736 36.8754 64.2148C36.8764 64.4536 36.9716 64.6826 37.1407 64.8525C37.3112 65.0205 37.5416 65.1152 37.7818 65.1162C38.022 65.1152 38.2521 65.0205 38.4227 64.8525C38.5918 64.6826 38.6872 64.4536 38.6882 64.2148C38.6812 63.9795 38.5827 63.7559 38.4135 63.5913L38.4318 63.5684ZM45.9077 63.5684C45.8246 63.4844 45.7255 63.418 45.6162 63.3726C45.5069 63.3271 45.3897 63.3042 45.2713 63.3047C45.0284 63.3047 44.7956 63.4004 44.6239 63.5713C44.4522 63.7417 44.3557 63.9736 44.3557 64.2148C44.3567 64.4536 44.4521 64.6826 44.6212 64.8525C44.7918 65.0205 45.0219 65.1152 45.2621 65.1162C45.3805 65.1167 45.4977 65.0933 45.607 65.0479C45.7163 65.0024 45.8155 64.9365 45.8985 64.8525C46.0676 64.6826 46.1628 64.4536 46.1638 64.2148C46.1568 63.9795 46.0585 63.7559 45.8893 63.5913L45.9077 63.5684ZM52.7516 63.3047C52.5087 63.3047 52.2759 63.4004 52.1042 63.5713C51.9325 63.7417 51.836 63.9736 51.836 64.2148C51.836 64.4565 51.9325 64.688 52.1042 64.8584C52.2759 65.0293 52.5087 65.1255 52.7516 65.1255C52.87 65.1255 52.9874 65.1025 53.0967 65.0571C53.206 65.0122 53.3049 64.9453 53.3879 64.8613C53.5571 64.6919 53.6525 64.4624 53.6535 64.2236C53.6547 64.103 53.6318 63.9834 53.586 63.8716C53.5402 63.7598 53.4725 63.6582 53.3868 63.5728C53.3012 63.4868 53.1995 63.4194 53.0873 63.3735C52.9751 63.3271 52.8546 63.3037 52.7332 63.3047H52.7516ZM60.8638 63.5684C60.7811 63.4844 60.6821 63.4175 60.5727 63.3721C60.4634 63.3267 60.3459 63.3037 60.2274 63.3047C59.9845 63.3047 59.7517 63.4004 59.58 63.5713C59.4083 63.7417 59.3118 63.9736 59.3118 64.2148C59.3128 64.4536 59.4082 64.6826 59.5773 64.8525C59.66 64.9365 59.759 65.0034 59.8684 65.0488C59.9777 65.0942 60.0952 65.1172 60.2137 65.1162C60.3322 65.1172 60.4495 65.0942 60.5589 65.0488C60.6682 65.0034 60.7672 64.9365 60.8499 64.8525C61.0191 64.6826 61.1145 64.4536 61.1155 64.2148C61.1097 63.98 61.013 63.7568 60.8454 63.5913L60.8638 63.5684ZM64.6864 48.6787C62.2535 46.2192 59.2321 44.4146 55.9058 43.4346C55.5801 43.3462 55.2329 43.3857 54.9352 43.5439C54.6445 43.71 54.4285 43.9805 54.331 44.2993C54.2967 44.4336 54.2768 44.5713 54.2716 44.7095C54.2737 44.9746 54.3603 45.2324 54.519 45.4458C54.6778 45.6592 54.9004 45.8174 55.155 45.897C58.966 47.0234 62.3082 49.3457 64.6822 52.5166C67.0561 55.688 68.3343 59.5381 68.3257 63.4912C68.3247 65.9067 67.8431 68.2979 66.909 70.5273C65.9748 72.7568 64.6064 74.7812 62.8825 76.4829C61.1629 78.1914 59.1204 79.5449 56.8726 80.4653C54.6248 81.3853 52.216 81.8545 49.7851 81.8452C44.8837 81.8228 40.1911 79.8696 36.7343 76.4146C33.2775 72.9595 31.338 68.2832 31.3405 63.4092C31.3534 59.6284 32.5359 55.9429 34.7275 52.8535C36.919 49.7637 40.0137 47.4194 43.5912 46.1387C43.8361 46.0493 44.0476 45.8872 44.1974 45.6748C44.3472 45.4624 44.4281 45.2095 44.429 44.9502C44.4325 44.7939 44.4027 44.6392 44.3418 44.4951C44.229 44.1831 43.9968 43.9282 43.6958 43.7861C43.3948 43.6436 43.0496 43.6255 42.7351 43.7349C39.7916 44.7837 37.1182 46.4673 34.9067 48.665C32.9493 50.6064 31.3978 52.9141 30.3417 55.4546C29.2857 57.9956 28.7462 60.7188 28.754 63.4683C28.7471 66.2236 29.2899 68.9536 30.3507 71.499C31.4115 74.0449 32.9694 76.356 34.9342 78.2988C38.8943 82.2197 44.2563 84.4189 49.8447 84.415C55.4331 84.4106 60.7919 82.2031 64.7459 78.2764C66.698 76.3413 68.245 74.0405 69.2972 71.5078C70.3494 68.9746 70.8859 66.2588 70.8758 63.5181C70.8775 60.7598 70.3296 58.0283 69.2641 55.4814C68.1987 52.9346 66.6367 50.6221 64.6681 48.6787H64.6864ZM64.6864 48.6787C62.2535 46.2192 59.2321 44.4146 55.9058 43.4346C55.5801 43.3462 55.2329 43.3857 54.9352 43.5439C54.6445 43.71 54.4285 43.9805 54.331 44.2993C54.2967 44.4336 54.2768 44.5713 54.2716 44.7095C54.2737 44.9746 54.3603 45.2324 54.519 45.4458C54.6778 45.6592 54.9004 45.8174 55.155 45.897C58.966 47.0234 62.3082 49.3457 64.6822 52.5166C67.0561 55.688 68.3343 59.5381 68.3257 63.4912C68.3247 65.9067 67.8431 68.2979 66.909 70.5273C65.9748 72.7568 64.6064 74.7812 62.8825 76.4829C61.1629 78.1914 59.1204 79.5449 56.8726 80.4653C54.6248 81.3853 52.216 81.8545 49.7851 81.8452C44.8837 81.8228 40.1911 79.8696 36.7343 76.4146C33.2775 72.9595 31.338 68.2832 31.3405 63.4092C31.3534 59.6284 32.5359 55.9429 34.7275 52.8535C36.919 49.7637 40.0137 47.4194 43.5912 46.1387C43.8361 46.0493 44.0476 45.8872 44.1974 45.6748C44.3472 45.4624 44.4281 45.2095 44.429 44.9502C44.4325 44.7939 44.4027 44.6392 44.3418 44.4951C44.229 44.1831 43.9968 43.9282 43.6958 43.7861C43.3948 43.6436 43.0496 43.6255 42.7351 43.7349C39.7916 44.7837 37.1182 46.4673 34.9067 48.665C32.9493 50.6064 31.3978 52.9141 30.3417 55.4546C29.2857 57.9956 28.7462 60.7188 28.754 63.4683C28.7471 66.2236 29.2899 68.9536 30.3507 71.499C31.4115 74.0449 32.9694 76.356 34.9342 78.2988C38.8943 82.2197 44.2563 84.4189 49.8447 84.415C55.4331 84.4106 60.7919 82.2031 64.7459 78.2764C66.698 76.3413 68.245 74.0405 69.2972 71.5078C70.3494 68.9746 70.8859 66.2588 70.8758 63.5181C70.8775 60.7598 70.3296 58.0283 69.2641 55.4814C68.1987 52.9346 66.6367 50.6221 64.6681 48.6787H64.6864ZM60.8638 63.5684C60.7811 63.4844 60.6821 63.4175 60.5727 63.3721C60.4634 63.3267 60.3459 63.3037 60.2274 63.3047C59.9845 63.3047 59.7517 63.4004 59.58 63.5713C59.4083 63.7417 59.3118 63.9736 59.3118 64.2148C59.3128 64.4536 59.4082 64.6826 59.5773 64.8525C59.66 64.9365 59.759 65.0034 59.8684 65.0488C59.9777 65.0942 60.0952 65.1172 60.2137 65.1162C60.3322 65.1172 60.4495 65.0942 60.5589 65.0488C60.6682 65.0034 60.7672 64.9365 60.8499 64.8525C61.0191 64.6826 61.1145 64.4536 61.1155 64.2148C61.1097 63.98 61.013 63.7568 60.8454 63.5913L60.8638 63.5684ZM52.7516 63.3047C52.5087 63.3047 52.2759 63.4004 52.1042 63.5713C51.9325 63.7417 51.836 63.9736 51.836 64.2148C51.836 64.4565 51.9325 64.688 52.1042 64.8584C52.2759 65.0293 52.5087 65.1255 52.7516 65.1255C52.87 65.1255 52.9874 65.1025 53.0967 65.0571C53.206 65.0122 53.3049 64.9453 53.3879 64.8613C53.5571 64.6919 53.6525 64.4624 53.6535 64.2236C53.6547 64.103 53.6318 63.9834 53.586 63.8716C53.5402 63.7598 53.4725 63.6582 53.3868 63.5728C53.3012 63.4868 53.1995 63.4194 53.0873 63.3735C52.9751 63.3271 52.8546 63.3037 52.7332 63.3047H52.7516ZM45.9077 63.5684C45.8246 63.4844 45.7255 63.418 45.6162 63.3726C45.5069 63.3271 45.3897 63.3042 45.2713 63.3047C45.0284 63.3047 44.7956 63.4004 44.6239 63.5713C44.4522 63.7417 44.3557 63.9736 44.3557 64.2148C44.3567 64.4536 44.4521 64.6826 44.6212 64.8525C44.7918 65.0205 45.0219 65.1152 45.2621 65.1162C45.3805 65.1167 45.4977 65.0933 45.607 65.0479C45.7163 65.0024 45.8155 64.9365 45.8985 64.8525C46.0676 64.6826 46.1628 64.4536 46.1638 64.2148C46.1568 63.9795 46.0585 63.7559 45.8893 63.5913L45.9077 63.5684ZM38.4318 63.5684C38.2613 63.4004 38.0312 63.3057 37.791 63.3047C37.5481 63.3047 37.3151 63.4004 37.1434 63.5713C36.9717 63.7417 36.8754 63.9736 36.8754 64.2148C36.8764 64.4536 36.9716 64.6826 37.1407 64.8525C37.3112 65.0205 37.5416 65.1152 37.7818 65.1162C38.022 65.1152 38.2521 65.0205 38.4227 64.8525C38.5918 64.6826 38.6872 64.4536 38.6882 64.2148C38.6812 63.9795 38.5827 63.7559 38.4135 63.5913L38.4318 63.5684ZM64.6864 48.6787C62.2535 46.2192 59.2321 44.4146 55.9058 43.4346C55.5801 43.3462 55.2329 43.3857 54.9352 43.5439C54.6445 43.71 54.4285 43.9805 54.331 44.2993C54.2967 44.4336 54.2768 44.5713 54.2716 44.7095C54.2737 44.9746 54.3603 45.2324 54.519 45.4458C54.6778 45.6592 54.9004 45.8174 55.155 45.897C58.966 47.0234 62.3082 49.3457 64.6822 52.5166C67.0561 55.688 68.3343 59.5381 68.3257 63.4912C68.3247 65.9067 67.8431 68.2979 66.909 70.5273C65.9748 72.7568 64.6064 74.7812 62.8825 76.4829C61.1629 78.1914 59.1204 79.5449 56.8726 80.4653C54.6248 81.3853 52.216 81.8545 49.7851 81.8452C44.8837 81.8228 40.1911 79.8696 36.7343 76.4146C33.2775 72.9595 31.338 68.2832 31.3405 63.4092C31.3534 59.6284 32.5359 55.9429 34.7275 52.8535C36.919 49.7637 40.0137 47.4194 43.5912 46.1387C43.8361 46.0493 44.0476 45.8872 44.1974 45.6748C44.3472 45.4624 44.4281 45.2095 44.429 44.9502C44.4325 44.7939 44.4027 44.6392 44.3418 44.4951C44.229 44.1831 43.9968 43.9282 43.6958 43.7861C43.3948 43.6436 43.0496 43.6255 42.7351 43.7349C39.7916 44.7837 37.1182 46.4673 34.9067 48.665C32.9493 50.6064 31.3978 52.9141 30.3417 55.4546C29.2857 57.9956 28.7462 60.7188 28.754 63.4683C28.7471 66.2236 29.2899 68.9536 30.3507 71.499C31.4115 74.0449 32.9694 76.356 34.9342 78.2988C38.8943 82.2197 44.2563 84.4189 49.8447 84.415C55.4331 84.4106 60.7919 82.2031 64.7459 78.2764C66.698 76.3413 68.245 74.0405 69.2972 71.5078C70.3494 68.9746 70.8859 66.2588 70.8758 63.5181C70.8775 60.7598 70.3296 58.0283 69.2641 55.4814C68.1987 52.9346 66.6367 50.6221 64.6681 48.6787H64.6864ZM60.8638 63.5684C60.7811 63.4844 60.6821 63.4175 60.5727 63.3721C60.4634 63.3267 60.3459 63.3037 60.2274 63.3047C59.9845 63.3047 59.7517 63.4004 59.58 63.5713C59.4083 63.7417 59.3118 63.9736 59.3118 64.2148C59.3128 64.4536 59.4082 64.6826 59.5773 64.8525C59.66 64.9365 59.759 65.0034 59.8684 65.0488C59.9777 65.0942 60.0952 65.1172 60.2137 65.1162C60.3322 65.1172 60.4495 65.0942 60.5589 65.0488C60.6682 65.0034 60.7672 64.9365 60.8499 64.8525C61.0191 64.6826 61.1145 64.4536 61.1155 64.2148C61.1097 63.98 61.013 63.7568 60.8454 63.5913L60.8638 63.5684ZM52.7516 63.3047C52.5087 63.3047 52.2759 63.4004 52.1042 63.5713C51.9325 63.7417 51.836 63.9736 51.836 64.2148C51.836 64.4565 51.9325 64.688 52.1042 64.8584C52.2759 65.0293 52.5087 65.1255 52.7516 65.1255C52.87 65.1255 52.9874 65.1025 53.0967 65.0571C53.206 65.0122 53.3049 64.9453 53.3879 64.8613C53.5571 64.6919 53.6525 64.4624 53.6535 64.2236C53.6547 64.103 53.6318 63.9834 53.586 63.8716C53.5402 63.7598 53.4725 63.6582 53.3868 63.5728C53.3012 63.4868 53.1995 63.4194 53.0873 63.3735C52.9751 63.3271 52.8546 63.3037 52.7332 63.3047H52.7516ZM45.9077 63.5684C45.8246 63.4844 45.7255 63.418 45.6162 63.3726C45.5069 63.3271 45.3897 63.3042 45.2713 63.3047C45.0284 63.3047 44.7956 63.4004 44.6239 63.5713C44.4522 63.7417 44.3557 63.9736 44.3557 64.2148C44.3567 64.4536 44.4521 64.6826 44.6212 64.8525C44.7918 65.0205 45.0219 65.1152 45.2621 65.1162C45.3805 65.1167 45.4977 65.0933 45.607 65.0479C45.7163 65.0024 45.8155 64.9365 45.8985 64.8525C46.0676 64.6826 46.1628 64.4536 46.1638 64.2148C46.1568 63.9795 46.0585 63.7559 45.8893 63.5913L45.9077 63.5684ZM38.4318 63.5684C38.2613 63.4004 38.0312 63.3057 37.791 63.3047C37.5481 63.3047 37.3151 63.4004 37.1434 63.5713C36.9717 63.7417 36.8754 63.9736 36.8754 64.2148C36.8764 64.4536 36.9716 64.6826 37.1407 64.8525C37.3112 65.0205 37.5416 65.1152 37.7818 65.1162C38.022 65.1152 38.2521 65.0205 38.4227 64.8525C38.5918 64.6826 38.6872 64.4536 38.6882 64.2148C38.6812 63.9795 38.5827 63.7559 38.4135 63.5913L38.4318 63.5684ZM38.4318 63.5684C38.2613 63.4004 38.0312 63.3057 37.791 63.3047C37.5481 63.3047 37.3151 63.4004 37.1434 63.5713C36.9717 63.7417 36.8754 63.9736 36.8754 64.2148C36.8764 64.4536 36.9716 64.6826 37.1407 64.8525C37.3112 65.0205 37.5416 65.1152 37.7818 65.1162C38.022 65.1152 38.2521 65.0205 38.4227 64.8525C38.5918 64.6826 38.6872 64.4536 38.6882 64.2148C38.6812 63.9795 38.5827 63.7559 38.4135 63.5913L38.4318 63.5684ZM45.9077 63.5684C45.8246 63.4844 45.7255 63.418 45.6162 63.3726C45.5069 63.3271 45.3897 63.3042 45.2713 63.3047C45.0284 63.3047 44.7956 63.4004 44.6239 63.5713C44.4522 63.7417 44.3557 63.9736 44.3557 64.2148C44.3567 64.4536 44.4521 64.6826 44.6212 64.8525C44.7918 65.0205 45.0219 65.1152 45.2621 65.1162C45.3805 65.1167 45.4977 65.0933 45.607 65.0479C45.7163 65.0024 45.8155 64.9365 45.8985 64.8525C46.0676 64.6826 46.1628 64.4536 46.1638 64.2148C46.1568 63.9795 46.0585 63.7559 45.8893 63.5913L45.9077 63.5684ZM52.7516 63.3047C52.5087 63.3047 52.2759 63.4004 52.1042 63.5713C51.9325 63.7417 51.836 63.9736 51.836 64.2148C51.836 64.4565 51.9325 64.688 52.1042 64.8584C52.2759 65.0293 52.5087 65.1255 52.7516 65.1255C52.87 65.1255 52.9874 65.1025 53.0967 65.0571C53.206 65.0122 53.3049 64.9453 53.3879 64.8613C53.5571 64.6919 53.6525 64.4624 53.6535 64.2236C53.6547 64.103 53.6318 63.9834 53.586 63.8716C53.5402 63.7598 53.4725 63.6582 53.3868 63.5728C53.3012 63.4868 53.1995 63.4194 53.0873 63.3735C52.9751 63.3271 52.8546 63.3037 52.7332 63.3047H52.7516ZM60.8638 63.5684C60.7811 63.4844 60.6821 63.4175 60.5727 63.3721C60.4634 63.3267 60.3459 63.3037 60.2274 63.3047C59.9845 63.3047 59.7517 63.4004 59.58 63.5713C59.4083 63.7417 59.3118 63.9736 59.3118 64.2148C59.3128 64.4536 59.4082 64.6826 59.5773 64.8525C59.66 64.9365 59.759 65.0034 59.8684 65.0488C59.9777 65.0942 60.0952 65.1172 60.2137 65.1162C60.3322 65.1172 60.4495 65.0942 60.5589 65.0488C60.6682 65.0034 60.7672 64.9365 60.8499 64.8525C61.0191 64.6826 61.1145 64.4536 61.1155 64.2148C61.1097 63.98 61.013 63.7568 60.8454 63.5913L60.8638 63.5684ZM64.6864 48.6787C62.2535 46.2192 59.2321 44.4146 55.9058 43.4346C55.5801 43.3462 55.2329 43.3857 54.9352 43.5439C54.6445 43.71 54.4285 43.9805 54.331 44.2993C54.2967 44.4336 54.2768 44.5713 54.2716 44.7095C54.2737 44.9746 54.3603 45.2324 54.519 45.4458C54.6778 45.6592 54.9004 45.8174 55.155 45.897C58.966 47.0234 62.3082 49.3457 64.6822 52.5166C67.0561 55.688 68.3343 59.5381 68.3257 63.4912C68.3247 65.9067 67.8431 68.2979 66.909 70.5273C65.9748 72.7568 64.6064 74.7812 62.8825 76.4829C61.1629 78.1914 59.1204 79.5449 56.8726 80.4653C54.6248 81.3853 52.216 81.8545 49.7851 81.8452C44.8837 81.8228 40.1911 79.8696 36.7343 76.4146C33.2775 72.9595 31.338 68.2832 31.3405 63.4092C31.3534 59.6284 32.5359 55.9429 34.7275 52.8535C36.919 49.7637 40.0137 47.4194 43.5912 46.1387C43.8361 46.0493 44.0476 45.8872 44.1974 45.6748C44.3472 45.4624 44.4281 45.2095 44.429 44.9502C44.4325 44.7939 44.4027 44.6392 44.3418 44.4951C44.229 44.1831 43.9968 43.9282 43.6958 43.7861C43.3948 43.6436 43.0496 43.6255 42.7351 43.7349C39.7916 44.7837 37.1182 46.4673 34.9067 48.665C32.9493 50.6064 31.3978 52.9141 30.3417 55.4546C29.2857 57.9956 28.7462 60.7188 28.754 63.4683C28.7471 66.2236 29.2899 68.9536 30.3507 71.499C31.4115 74.0449 32.9694 76.356 34.9342 78.2988C38.8943 82.2197 44.2563 84.4189 49.8447 84.415C55.4331 84.4106 60.7919 82.2031 64.7459 78.2764C66.698 76.3413 68.245 74.0405 69.2972 71.5078C70.3494 68.9746 70.8859 66.2588 70.8758 63.5181C70.8775 60.7598 70.3296 58.0283 69.2641 55.4814C68.1987 52.9346 66.6367 50.6221 64.6681 48.6787H64.6864ZM64.6864 48.6787C62.2535 46.2192 59.2321 44.4146 55.9058 43.4346C55.5801 43.3462 55.2329 43.3857 54.9352 43.5439C54.6445 43.71 54.4285 43.9805 54.331 44.2993C54.2967 44.4336 54.2768 44.5713 54.2716 44.7095C54.2737 44.9746 54.3603 45.2324 54.519 45.4458C54.6778 45.6592 54.9004 45.8174 55.155 45.897C58.966 47.0234 62.3082 49.3457 64.6822 52.5166C67.0561 55.688 68.3343 59.5381 68.3257 63.4912C68.3247 65.9067 67.8431 68.2979 66.909 70.5273C65.9748 72.7568 64.6064 74.7812 62.8825 76.4829C61.1629 78.1914 59.1204 79.5449 56.8726 80.4653C54.6248 81.3853 52.216 81.8545 49.7851 81.8452C44.8837 81.8228 40.1911 79.8696 36.7343 76.4146C33.2775 72.9595 31.338 68.2832 31.3405 63.4092C31.3534 59.6284 32.5359 55.9429 34.7275 52.8535C36.919 49.7637 40.0137 47.4194 43.5912 46.1387C43.8361 46.0493 44.0476 45.8872 44.1974 45.6748C44.3472 45.4624 44.4281 45.2095 44.429 44.9502C44.4325 44.7939 44.4027 44.6392 44.3418 44.4951C44.229 44.1831 43.9968 43.9282 43.6958 43.7861C43.3948 43.6436 43.0496 43.6255 42.7351 43.7349C39.7916 44.7837 37.1182 46.4673 34.9067 48.665C32.9493 50.6064 31.3978 52.9141 30.3417 55.4546C29.2857 57.9956 28.7462 60.7188 28.754 63.4683C28.7471 66.2236 29.2899 68.9536 30.3507 71.499C31.4115 74.0449 32.9694 76.356 34.9342 78.2988C38.8943 82.2197 44.2563 84.4189 49.8447 84.415C55.4331 84.4106 60.7919 82.2031 64.7459 78.2764C66.698 76.3413 68.245 74.0405 69.2972 71.5078C70.3494 68.9746 70.8859 66.2588 70.8758 63.5181C70.8775 60.7598 70.3296 58.0283 69.2641 55.4814C68.1987 52.9346 66.6367 50.6221 64.6681 48.6787H64.6864ZM60.8638 63.5684C60.7811 63.4844 60.6821 63.4175 60.5727 63.3721C60.4634 63.3267 60.3459 63.3037 60.2274 63.3047C59.9845 63.3047 59.7517 63.4004 59.58 63.5713C59.4083 63.7417 59.3118 63.9736 59.3118 64.2148C59.3128 64.4536 59.4082 64.6826 59.5773 64.8525C59.66 64.9365 59.759 65.0034 59.8684 65.0488C59.9777 65.0942 60.0952 65.1172 60.2137 65.1162C60.3322 65.1172 60.4495 65.0942 60.5589 65.0488C60.6682 65.0034 60.7672 64.9365 60.8499 64.8525C61.0191 64.6826 61.1145 64.4536 61.1155 64.2148C61.1097 63.98 61.013 63.7568 60.8454 63.5913L60.8638 63.5684ZM52.7516 63.3047C52.5087 63.3047 52.2759 63.4004 52.1042 63.5713C51.9325 63.7417 51.836 63.9736 51.836 64.2148C51.836 64.4565 51.9325 64.688 52.1042 64.8584C52.2759 65.0293 52.5087 65.1255 52.7516 65.1255C52.87 65.1255 52.9874 65.1025 53.0967 65.0571C53.206 65.0122 53.3049 64.9453 53.3879 64.8613C53.5571 64.6919 53.6525 64.4624 53.6535 64.2236C53.6547 64.103 53.6318 63.9834 53.586 63.8716C53.5402 63.7598 53.4725 63.6582 53.3868 63.5728C53.3012 63.4868 53.1995 63.4194 53.0873 63.3735C52.9751 63.3271 52.8546 63.3037 52.7332 63.3047H52.7516ZM45.9077 63.5684C45.8246 63.4844 45.7255 63.418 45.6162 63.3726C45.5069 63.3271 45.3897 63.3042 45.2713 63.3047C45.0284 63.3047 44.7956 63.4004 44.6239 63.5713C44.4522 63.7417 44.3557 63.9736 44.3557 64.2148C44.3567 64.4536 44.4521 64.6826 44.6212 64.8525C44.7918 65.0205 45.0219 65.1152 45.2621 65.1162C45.3805 65.1167 45.4977 65.0933 45.607 65.0479C45.7163 65.0024 45.8155 64.9365 45.8985 64.8525C46.0676 64.6826 46.1628 64.4536 46.1638 64.2148C46.1568 63.9795 46.0585 63.7559 45.8893 63.5913L45.9077 63.5684ZM38.4318 63.5684C38.2613 63.4004 38.0312 63.3057 37.791 63.3047C37.5481 63.3047 37.3151 63.4004 37.1434 63.5713C36.9717 63.7417 36.8754 63.9736 36.8754 64.2148C36.8764 64.4536 36.9716 64.6826 37.1407 64.8525C37.3112 65.0205 37.5416 65.1152 37.7818 65.1162C38.022 65.1152 38.2521 65.0205 38.4227 64.8525C38.5918 64.6826 38.6872 64.4536 38.6882 64.2148C38.6812 63.9795 38.5827 63.7559 38.4135 63.5913L38.4318 63.5684ZM22.7293 83.4067L22.5371 83.6021H22.766L22.853 83.5293L22.7293 83.4067ZM45.9077 63.5684C45.8246 63.4844 45.7255 63.418 45.6162 63.3726C45.5069 63.3271 45.3897 63.3042 45.2713 63.3047C45.0284 63.3047 44.7956 63.4004 44.6239 63.5713C44.4522 63.7417 44.3557 63.9736 44.3557 64.2148C44.3567 64.4536 44.4521 64.6826 44.6212 64.8525C44.7918 65.0205 45.0219 65.1152 45.2621 65.1162C45.3805 65.1167 45.4977 65.0933 45.607 65.0479C45.7163 65.0024 45.8155 64.9365 45.8985 64.8525C46.0676 64.6826 46.1628 64.4536 46.1638 64.2148C46.1568 63.9795 46.0585 63.7559 45.8893 63.5913L45.9077 63.5684ZM38.4318 63.5684C38.2613 63.4004 38.0312 63.3057 37.791 63.3047C37.5481 63.3047 37.3151 63.4004 37.1434 63.5713C36.9717 63.7417 36.8754 63.9736 36.8754 64.2148C36.8764 64.4536 36.9716 64.6826 37.1407 64.8525C37.3112 65.0205 37.5416 65.1152 37.7818 65.1162C38.022 65.1152 38.2521 65.0205 38.4227 64.8525C38.5918 64.6826 38.6872 64.4536 38.6882 64.2148C38.6812 63.9795 38.5827 63.7559 38.4135 63.5913L38.4318 63.5684ZM52.7516 63.3047C52.5087 63.3047 52.2759 63.4004 52.1042 63.5713C51.9325 63.7417 51.836 63.9736 51.836 64.2148C51.836 64.4565 51.9325 64.688 52.1042 64.8584C52.2759 65.0293 52.5087 65.1255 52.7516 65.1255C52.87 65.1255 52.9874 65.1025 53.0967 65.0571C53.206 65.0122 53.3049 64.9453 53.3879 64.8613C53.5571 64.6919 53.6525 64.4624 53.6535 64.2236C53.6547 64.103 53.6318 63.9834 53.586 63.8716C53.5402 63.7598 53.4725 63.6582 53.3868 63.5728C53.3012 63.4868 53.1995 63.4194 53.0873 63.3735C52.9751 63.3271 52.8546 63.3037 52.7332 63.3047H52.7516ZM60.8638 63.5684C60.7811 63.4844 60.6821 63.4175 60.5727 63.3721C60.4634 63.3267 60.3459 63.3037 60.2274 63.3047C59.9845 63.3047 59.7517 63.4004 59.58 63.5713C59.4083 63.7417 59.3118 63.9736 59.3118 64.2148C59.3128 64.4536 59.4082 64.6826 59.5773 64.8525C59.66 64.9365 59.759 65.0034 59.8684 65.0488C59.9777 65.0942 60.0952 65.1172 60.2137 65.1162C60.3322 65.1172 60.4495 65.0942 60.5589 65.0488C60.6682 65.0034 60.7672 64.9365 60.8499 64.8525C61.0191 64.6826 61.1145 64.4536 61.1155 64.2148C61.1097 63.98 61.013 63.7568 60.8454 63.5913L60.8638 63.5684ZM64.6864 48.6787C62.2535 46.2192 59.2321 44.4146 55.9058 43.4346C55.5801 43.3462 55.2329 43.3857 54.9352 43.5439C54.6445 43.71 54.4285 43.9805 54.331 44.2993C54.2967 44.4336 54.2768 44.5713 54.2716 44.7095C54.2737 44.9746 54.3603 45.2324 54.519 45.4458C54.6778 45.6592 54.9004 45.8174 55.155 45.897C58.966 47.0234 62.3082 49.3457 64.6822 52.5166C67.0561 55.688 68.3343 59.5381 68.3257 63.4912C68.3247 65.9067 67.8431 68.2979 66.909 70.5273C65.9748 72.7568 64.6064 74.7812 62.8825 76.4829C61.1629 78.1914 59.1204 79.5449 56.8726 80.4653C54.6248 81.3853 52.216 81.8545 49.7851 81.8452C44.8837 81.8228 40.1911 79.8696 36.7343 76.4146C33.2775 72.9595 31.338 68.2832 31.3405 63.4092C31.3534 59.6284 32.5359 55.9429 34.7275 52.8535C36.919 49.7637 40.0137 47.4194 43.5912 46.1387C43.8361 46.0493 44.0476 45.8872 44.1974 45.6748C44.3472 45.4624 44.4281 45.2095 44.429 44.9502C44.4325 44.7939 44.4027 44.6392 44.3418 44.4951C44.229 44.1831 43.9968 43.9282 43.6958 43.7861C43.3948 43.6436 43.0496 43.6255 42.7351 43.7349C39.7916 44.7837 37.1182 46.4673 34.9067 48.665C32.9493 50.6064 31.3978 52.9141 30.3417 55.4546C29.2857 57.9956 28.7462 60.7188 28.754 63.4683C28.7471 66.2236 29.2899 68.9536 30.3507 71.499C31.4115 74.0449 32.9694 76.356 34.9342 78.2988C38.8943 82.2197 44.2563 84.4189 49.8447 84.415C55.4331 84.4106 60.7919 82.2031 64.7459 78.2764C66.698 76.3413 68.245 74.0405 69.2972 71.5078C70.3494 68.9746 70.8859 66.2588 70.8758 63.5181C70.8775 60.7598 70.3296 58.0283 69.2641 55.4814C68.1987 52.9346 66.6367 50.6221 64.6681 48.6787H64.6864ZM22.7293 83.4067L22.5371 83.6021H22.766L22.853 83.5293L22.7293 83.4067Z" fill="#86E8B6"/>
<path d="M109.353 5.63486e-05H4.6421C3.41095 5.63486e-05 2.2303 0.486492 1.35975 1.35213C0.489197 2.21776 0 3.39175 0 4.61595V78.9836C-5.97717e-07 80.2082 0.488882 81.3828 1.3593 82.2491C2.22972 83.1155 3.41053 83.6028 4.6421 83.604H18.9115L6.2902 96.1587C5.58104 96.8515 5.01828 97.6784 4.63539 98.5908C4.25251 99.5031 4.05719 100.482 4.06069 101.471C4.05628 102.462 4.25118 103.445 4.63405 104.36C5.01692 105.275 5.58008 106.106 6.2902 106.801C7.70885 108.209 9.6309 108.999 11.6349 108.999C13.6388 108.999 15.5609 108.209 16.9795 106.801L32.5081 91.3608C32.6278 91.241 32.7224 91.099 32.7868 90.9428C32.8513 90.7866 32.8841 90.6192 32.8834 90.4503C32.8849 90.2814 32.8524 90.1139 32.788 89.9576C32.7235 89.8012 32.6284 89.6592 32.5081 89.5399L30.6769 87.7191L33.5106 84.9059L33.8585 85.1607C37.5119 87.8206 41.7804 89.5224 46.2699 90.1087C50.7593 90.6951 55.3252 90.1472 59.5455 88.5157C62.5468 87.3774 65.3154 85.707 67.7169 83.5857H109.376C110.608 83.5845 111.79 83.0973 112.661 82.2311C113.532 81.3649 114.022 80.1904 114.023 78.9654V4.59772C114.02 3.99096 113.897 3.39077 113.66 2.83134C113.424 2.27191 113.079 1.76417 112.646 1.33724C112.212 0.910305 111.698 0.572451 111.133 0.34302C110.568 0.113588 109.964 -0.00293997 109.353 5.63486e-05ZM24.2448 8.33498C24.2457 8.45279 24.2227 8.56965 24.177 8.67838C24.1314 8.78712 24.0641 8.88555 23.9792 8.96778C23.8962 9.05175 23.7972 9.11826 23.688 9.1636C23.5787 9.20894 23.4615 9.23223 23.343 9.23184C23.1029 9.23083 22.8725 9.13597 22.702 8.96778C22.6171 8.88555 22.55 8.78712 22.5044 8.67838C22.4587 8.56965 22.4357 8.45279 22.4366 8.33498C22.4366 8.09352 22.5329 7.86202 22.7046 7.69128C22.8763 7.52054 23.1094 7.42456 23.3522 7.42456C23.4706 7.42416 23.5878 7.44745 23.6971 7.49279C23.8064 7.53813 23.9054 7.60465 23.9884 7.68861C24.1564 7.8619 24.2486 8.09428 24.2448 8.33498ZM16.769 8.33498C16.7699 8.45279 16.7469 8.56965 16.7012 8.67838C16.6556 8.78712 16.5885 8.88555 16.5036 8.96778C16.4209 9.05216 16.3219 9.11912 16.2126 9.16449C16.1032 9.20986 15.9857 9.23275 15.8672 9.23184C15.6244 9.23184 15.3916 9.13585 15.2199 8.96511C15.0482 8.79437 14.9516 8.56288 14.9516 8.32142C14.9516 8.07996 15.0482 7.84846 15.2199 7.67772C15.3916 7.50698 15.6244 7.411 15.8672 7.411C15.9875 7.41278 16.1062 7.43805 16.2166 7.48546C16.327 7.53286 16.4268 7.60147 16.5106 7.68728C16.5943 7.77309 16.6602 7.87442 16.7046 7.98557C16.7489 8.09672 16.7708 8.21541 16.769 8.33498ZM8.38224 7.42456C8.62507 7.42456 8.85789 7.52054 9.02959 7.69128C9.2013 7.86202 9.29783 8.09352 9.29783 8.33498C9.29875 8.45279 9.27573 8.56965 9.2301 8.67838C9.18447 8.78712 9.11714 8.88555 9.03228 8.96778C8.94958 9.05216 8.85059 9.11912 8.74124 9.16449C8.63188 9.20986 8.51437 9.23275 8.39588 9.23184C8.15305 9.23184 7.92024 9.13585 7.74853 8.96511C7.57682 8.79437 7.48029 8.56288 7.48029 8.32142C7.48618 8.08627 7.58354 7.86253 7.75166 7.69706C7.91978 7.53158 8.14571 7.43712 8.38224 7.43367V7.42456ZM15.1758 105.017C14.2329 105.946 12.9596 106.466 11.6326 106.466C10.3056 106.466 9.03212 105.946 8.08919 105.017C7.62324 104.555 7.25419 104.006 7.0035 103.401C6.7528 102.796 6.62548 102.148 6.62886 101.494C6.62961 100.174 7.15442 98.9076 8.08919 97.9704L10.836 95.2392L17.8906 102.286L15.1758 105.017ZM19.7127 100.497L12.626 93.4502L22.5189 83.6131L22.7111 83.4174L22.8347 83.5403L23.2925 83.9955L23.6175 84.3551L23.2789 84.7055C22.595 85.3887 22.2114 86.3136 22.2122 87.2775C22.2099 87.7658 22.3065 88.2495 22.4961 88.7C22.6856 89.1504 22.9643 89.5584 23.3156 89.8996C24.0085 90.5738 24.9395 90.9513 25.909 90.9513C26.8785 90.9513 27.8094 90.5738 28.5024 89.8996L28.8549 89.549L29.7705 90.4594L19.7127 100.497ZM26.7032 88.1106C26.4879 88.3183 26.1998 88.4345 25.8998 88.4345C25.5998 88.4345 25.3117 88.3183 25.0964 88.1106C24.9892 88.0053 24.904 87.8797 24.8459 87.7414C24.7877 87.6031 24.7576 87.4548 24.7576 87.3049C24.7565 87.1562 24.786 87.0088 24.8443 86.8718C24.9025 86.7348 24.9884 86.6111 25.0964 86.5083L29.4728 82.1428L29.9305 81.6875L30.7181 82.507L31.542 83.299L26.7032 88.1106ZM67.1447 80.7134C64.8792 82.9826 62.1829 84.7813 59.2122 86.005C56.2415 87.2288 53.0557 87.8533 49.8401 87.842C46.6226 87.8528 43.4349 87.2282 40.4621 86.0045C37.4892 84.7808 34.7902 82.9824 32.5217 80.7134C30.222 78.4697 28.3972 75.7909 27.1549 72.835C25.9127 69.879 25.2782 66.7056 25.2887 63.5019C25.2714 57.139 27.7937 51.0291 32.302 46.5135L32.5217 46.2813C37.1179 41.725 43.3432 39.1665 49.8332 39.1665C56.3233 39.1665 62.5485 41.725 67.1447 46.2813C69.4269 48.5369 71.2365 51.2205 72.4679 54.1766C73.6993 57.1326 74.328 60.3023 74.3183 63.5019C74.3271 66.6987 73.6975 69.8654 72.4661 72.8184C71.2347 75.7714 69.426 78.4518 67.1447 80.7043V80.7134ZM112.182 78.9927C112.182 79.3622 112.11 79.728 111.967 80.0693C111.825 80.4106 111.617 80.7207 111.354 80.9819C111.091 81.2432 110.779 81.4504 110.436 81.5918C110.093 81.7331 109.725 81.8059 109.353 81.8059H69.562C70.2759 81.0459 70.9426 80.2432 71.5581 79.4024C73.1963 77.1827 74.4819 74.7264 75.3711 72.119C75.4306 71.9506 75.4902 71.7685 75.5406 71.5865C76.3738 68.9907 76.7943 66.2813 76.7861 63.5565C76.7813 59.3365 75.7793 55.1768 73.8614 51.4123C71.9434 47.6479 69.163 44.3841 65.744 41.884C62.892 39.7936 59.6509 38.2867 56.209 37.4506C52.7671 36.6145 49.1926 36.4658 45.6925 37.0132C42.1861 37.5378 38.8196 38.7501 35.7884 40.5795C32.7573 42.4089 30.1219 44.8189 28.0354 47.6697C27.7058 48.1022 27.4037 48.5482 27.1199 48.9898C27.0146 49.1355 26.9138 49.2902 26.8176 49.445C24.1792 53.6715 22.788 58.5502 22.8028 63.5247C22.7875 69.2337 24.6205 74.7959 28.0307 79.3887L28.2827 79.7256L25.4534 82.5388L24.8492 81.9379L23.8328 80.9274L23.6131 80.7134C23.4952 80.5955 23.355 80.5018 23.2007 80.438C23.0463 80.3741 22.8808 80.3411 22.7136 80.3411C22.5464 80.3411 22.3807 80.3741 22.2263 80.438C22.0719 80.5018 21.9317 80.5955 21.8139 80.7134L20.7244 81.7922H4.6374C3.88706 81.7922 3.16758 81.4959 2.63701 80.9683C2.10644 80.4407 1.80838 79.7252 1.80838 78.9791V16.6608H112.196L112.182 78.9927Z" fill="#86E8B6"/>
<path d="M9.28851 8.33413C9.28943 8.45195 9.26641 8.56881 9.22078 8.67754C9.17515 8.78628 9.10782 8.88471 9.02295 8.96694C8.94026 9.05132 8.84127 9.11828 8.73191 9.16365C8.62256 9.20902 8.50527 9.23191 8.38678 9.231C8.14395 9.231 7.91091 9.13501 7.73921 8.96427C7.5675 8.79353 7.47119 8.56203 7.47119 8.32058C7.47119 8.07912 7.5675 7.84762 7.73921 7.67688C7.91091 7.50614 8.14395 7.41016 8.38678 7.41016C8.50702 7.41194 8.62554 7.43721 8.73594 7.48462C8.84634 7.53202 8.94636 7.60063 9.03011 7.68644C9.11385 7.77225 9.17979 7.87358 9.22413 7.98473C9.26847 8.09588 9.29033 8.21457 9.28851 8.33413Z" fill="#86E8B6"/>
<path d="M16.769 8.33413C16.7699 8.45195 16.7469 8.56881 16.7012 8.67754C16.6556 8.78628 16.5885 8.88471 16.5036 8.96694C16.421 9.05132 16.322 9.11828 16.2126 9.16365C16.1033 9.20902 15.9857 9.23191 15.8672 9.231C15.6244 9.231 15.3916 9.13501 15.2199 8.96427C15.0482 8.79353 14.9517 8.56203 14.9517 8.32058C14.9517 8.07912 15.0482 7.84762 15.2199 7.67688C15.3916 7.50614 15.6244 7.41016 15.8672 7.41016C15.9875 7.41194 16.1062 7.43721 16.2166 7.48462C16.327 7.53202 16.4268 7.60063 16.5106 7.68644C16.5943 7.77225 16.6603 7.87358 16.7046 7.98473C16.7489 8.09588 16.7708 8.21457 16.769 8.33413Z" fill="#86E8B6"/>
<path d="M24.2447 8.33621C24.2456 8.45402 24.2226 8.57088 24.177 8.67961C24.1313 8.78835 24.064 8.88678 23.9791 8.96901C23.8961 9.05298 23.7972 9.11949 23.6879 9.16483C23.5786 9.21017 23.4614 9.23346 23.343 9.23307C23.1028 9.23206 22.8724 9.1372 22.7019 8.96901C22.617 8.88678 22.5499 8.78835 22.5043 8.67961C22.4587 8.57088 22.4356 8.45402 22.4365 8.33621C22.4365 8.09475 22.5329 7.86325 22.7046 7.69251C22.8763 7.52177 23.1093 7.42579 23.3521 7.42579C23.4706 7.42539 23.5878 7.44868 23.6971 7.49402C23.8063 7.53936 23.9053 7.60588 23.9883 7.68984C24.1564 7.86313 24.2486 8.09551 24.2447 8.33621Z" fill="#86E8B6"/>
</g>
<defs>
<clipPath id="clip0_162_31427">
<rect width="114" height="109" fill="white"/>
</clipPath>
</defs>
</svg>
