<svg width="269" height="814" viewBox="0 0 269 814" fill="none" xmlns="http://www.w3.org/2000/svg">
<path fill-rule="evenodd" clip-rule="evenodd" d="M20.543 42.5C20.543 39.7352 22.7783 37.5 25.5433 37.5C28.3082 37.5 30.543 39.7352 30.543 42.5C30.543 45.2648 28.3082 47.5 25.5433 47.5C22.7783 47.5 20.543 45.2648 20.543 42.5Z" fill="#52DE97"/>
<path d="M45.813 35.45V40.7H52.863V44.03H45.813V49.58H53.763V53H41.613V32.03H53.763V35.45H45.813ZM67.2998 53.21C65.3398 53.21 63.5398 52.75 61.8998 51.83C60.2598 50.91 58.9598 49.64 57.9998 48.02C57.0398 46.38 56.5598 44.53 56.5598 42.47C56.5598 40.43 57.0398 38.6 57.9998 36.98C58.9598 35.34 60.2598 34.06 61.8998 33.14C63.5398 32.22 65.3398 31.76 67.2998 31.76C69.2798 31.76 71.0798 32.22 72.6998 33.14C74.3398 34.06 75.6298 35.34 76.5698 36.98C77.5298 38.6 78.0098 40.43 78.0098 42.47C78.0098 44.53 77.5298 46.38 76.5698 48.02C75.6298 49.64 74.3398 50.91 72.6998 51.83C71.0598 52.75 69.2598 53.21 67.2998 53.21ZM67.2998 49.46C68.5598 49.46 69.6698 49.18 70.6298 48.62C71.5898 48.04 72.3398 47.22 72.8798 46.16C73.4198 45.1 73.6898 43.87 73.6898 42.47C73.6898 41.07 73.4198 39.85 72.8798 38.81C72.3398 37.75 71.5898 36.94 70.6298 36.38C69.6698 35.82 68.5598 35.54 67.2998 35.54C66.0398 35.54 64.9198 35.82 63.9398 36.38C62.9798 36.94 62.2298 37.75 61.6898 38.81C61.1498 39.85 60.8798 41.07 60.8798 42.47C60.8798 43.87 61.1498 45.1 61.6898 46.16C62.2298 47.22 62.9798 48.04 63.9398 48.62C64.9198 49.18 66.0398 49.46 67.2998 49.46ZM85.3345 49.67H92.2345V53H81.1345V32.06H85.3345V49.67Z" fill="#616875"/>
<path fill-rule="evenodd" clip-rule="evenodd" d="M20.543 540.5C20.543 537.735 22.7783 535.5 25.5433 535.5C28.3082 535.5 30.543 537.735 30.543 540.5C30.543 543.265 28.3082 545.5 25.5433 545.5C22.7783 545.5 20.543 543.265 20.543 540.5Z" fill="#ADB3C0"/>
<path d="M64.443 530.06V551H60.243V537.38L54.633 551H51.453L45.813 537.38V551H41.613V530.06H46.383L53.043 545.63L59.703 530.06H64.443ZM84.0454 542.33C84.0454 542.93 84.0054 543.47 83.9254 543.95H71.7754C71.8754 545.15 72.2954 546.09 73.0354 546.77C73.7754 547.45 74.6854 547.79 75.7654 547.79C77.3254 547.79 78.4354 547.12 79.0954 545.78H83.6254C83.1454 547.38 82.2254 548.7 80.8654 549.74C79.5054 550.76 77.8354 551.27 75.8554 551.27C74.2554 551.27 72.8154 550.92 71.5354 550.22C70.2754 549.5 69.2854 548.49 68.5654 547.19C67.8654 545.89 67.5154 544.39 67.5154 542.69C67.5154 540.97 67.8654 539.46 68.5654 538.16C69.2654 536.86 70.2454 535.86 71.5054 535.16C72.7654 534.46 74.2154 534.11 75.8554 534.11C77.4354 534.11 78.8454 534.45 80.0854 535.13C81.3454 535.81 82.3154 536.78 82.9954 538.04C83.6954 539.28 84.0454 540.71 84.0454 542.33ZM79.6954 541.13C79.6754 540.05 79.2854 539.19 78.5254 538.55C77.7654 537.89 76.8354 537.56 75.7354 537.56C74.6954 537.56 73.8154 537.88 73.0954 538.52C72.3954 539.14 71.9654 540.01 71.8054 541.13H79.6954ZM92.001 537.83V545.87C92.001 546.43 92.131 546.84 92.391 547.1C92.671 547.34 93.131 547.46 93.771 547.46H95.721V551H93.081C89.541 551 87.771 549.28 87.771 545.84V537.83H85.791V534.38H87.771V530.27H92.001V534.38H95.721V537.83H92.001ZM102.942 536.96C103.482 536.08 104.182 535.39 105.042 534.89C105.922 534.39 106.922 534.14 108.042 534.14V538.55H106.932C105.612 538.55 104.612 538.86 103.932 539.48C103.272 540.1 102.942 541.18 102.942 542.72V551H98.7419V534.38H102.942V536.96ZM118.251 551.27C116.651 551.27 115.211 550.92 113.931 550.22C112.651 549.5 111.641 548.49 110.901 547.19C110.181 545.89 109.821 544.39 109.821 542.69C109.821 540.99 110.191 539.49 110.931 538.19C111.691 536.89 112.721 535.89 114.021 535.19C115.321 534.47 116.771 534.11 118.371 534.11C119.971 534.11 121.421 534.47 122.721 535.19C124.021 535.89 125.041 536.89 125.781 538.19C126.541 539.49 126.921 540.99 126.921 542.69C126.921 544.39 126.531 545.89 125.751 547.19C124.991 548.49 123.951 549.5 122.631 550.22C121.331 550.92 119.871 551.27 118.251 551.27ZM118.251 547.61C119.011 547.61 119.721 547.43 120.381 547.07C121.061 546.69 121.601 546.13 122.001 545.39C122.401 544.65 122.601 543.75 122.601 542.69C122.601 541.11 122.181 539.9 121.341 539.06C120.521 538.2 119.511 537.77 118.311 537.77C117.111 537.77 116.101 538.2 115.281 539.06C114.481 539.9 114.081 541.11 114.081 542.69C114.081 544.27 114.471 545.49 115.251 546.35C116.051 547.19 117.051 547.61 118.251 547.61ZM134.202 528.8V551H130.002V528.8H134.202ZM145.731 551.27C144.131 551.27 142.691 550.92 141.411 550.22C140.131 549.5 139.121 548.49 138.381 547.19C137.661 545.89 137.301 544.39 137.301 542.69C137.301 540.99 137.671 539.49 138.411 538.19C139.171 536.89 140.201 535.89 141.501 535.19C142.801 534.47 144.251 534.11 145.851 534.11C147.451 534.11 148.901 534.47 150.201 535.19C151.501 535.89 152.521 536.89 153.261 538.19C154.021 539.49 154.401 540.99 154.401 542.69C154.401 544.39 154.011 545.89 153.231 547.19C152.471 548.49 151.431 549.5 150.111 550.22C148.811 550.92 147.351 551.27 145.731 551.27ZM145.731 547.61C146.491 547.61 147.201 547.43 147.861 547.07C148.541 546.69 149.081 546.13 149.481 545.39C149.881 544.65 150.081 543.75 150.081 542.69C150.081 541.11 149.661 539.9 148.821 539.06C148.001 538.2 146.991 537.77 145.791 537.77C144.591 537.77 143.581 538.2 142.761 539.06C141.961 539.9 141.561 541.11 141.561 542.69C141.561 544.27 141.951 545.49 142.731 546.35C143.531 547.19 144.531 547.61 145.731 547.61ZM163.992 534.11C165.232 534.11 166.322 534.36 167.262 534.86C168.202 535.34 168.942 535.97 169.482 536.75V534.38H173.712V551.12C173.712 552.66 173.402 554.03 172.782 555.23C172.162 556.45 171.232 557.41 169.992 558.11C168.752 558.83 167.252 559.19 165.492 559.19C163.132 559.19 161.192 558.64 159.672 557.54C158.172 556.44 157.322 554.94 157.122 553.04H161.292C161.512 553.8 161.982 554.4 162.702 554.84C163.442 555.3 164.332 555.53 165.372 555.53C166.592 555.53 167.582 555.16 168.342 554.42C169.102 553.7 169.482 552.6 169.482 551.12V548.54C168.942 549.32 168.192 549.97 167.232 550.49C166.292 551.01 165.212 551.27 163.992 551.27C162.592 551.27 161.312 550.91 160.152 550.19C158.992 549.47 158.072 548.46 157.392 547.16C156.732 545.84 156.402 544.33 156.402 542.63C156.402 540.95 156.732 539.46 157.392 538.16C158.072 536.86 158.982 535.86 160.122 535.16C161.282 534.46 162.572 534.11 163.992 534.11ZM169.482 542.69C169.482 541.67 169.282 540.8 168.882 540.08C168.482 539.34 167.942 538.78 167.262 538.4C166.582 538 165.852 537.8 165.072 537.8C164.292 537.8 163.572 537.99 162.912 538.37C162.252 538.75 161.712 539.31 161.292 540.05C160.892 540.77 160.692 541.63 160.692 542.63C160.692 543.63 160.892 544.51 161.292 545.27C161.712 546.01 162.252 546.58 162.912 546.98C163.592 547.38 164.312 547.58 165.072 547.58C165.852 547.58 166.582 547.39 167.262 547.01C167.942 546.61 168.482 546.05 168.882 545.33C169.282 544.59 169.482 543.71 169.482 542.69ZM193.714 534.38L183.424 558.86H178.954L182.554 550.58L175.894 534.38H180.604L184.894 545.99L189.244 534.38H193.714ZM214.728 552.2V556.19H197.118V552.2H214.728ZM218.689 533V529.13H225.919V551H221.599V533H218.689ZM229.559 533V529.13H236.789V551H232.469V533H229.559Z" fill="#616875"/>
<path fill-rule="evenodd" clip-rule="evenodd" d="M20.543 623.5C20.543 620.735 22.7783 618.5 25.5433 618.5C28.3082 618.5 30.543 620.735 30.543 623.5C30.543 626.265 28.3082 628.5 25.5433 628.5C22.7783 628.5 20.543 626.265 20.543 623.5Z" fill="#ADB3C0"/>
<path d="M40.593 623.5C40.593 621.44 41.053 619.6 41.973 617.98C42.913 616.34 44.183 615.07 45.783 614.17C47.403 613.25 49.213 612.79 51.213 612.79C53.553 612.79 55.603 613.39 57.363 614.59C59.123 615.79 60.353 617.45 61.053 619.57H56.223C55.743 618.57 55.063 617.82 54.183 617.32C53.323 616.82 52.323 616.57 51.183 616.57C49.963 616.57 48.873 616.86 47.913 617.44C46.973 618 46.233 618.8 45.693 619.84C45.173 620.88 44.913 622.1 44.913 623.5C44.913 624.88 45.173 626.1 45.693 627.16C46.233 628.2 46.973 629.01 47.913 629.59C48.873 630.15 49.963 630.43 51.183 630.43C52.323 630.43 53.323 630.18 54.183 629.68C55.063 629.16 55.743 628.4 56.223 627.4H61.053C60.353 629.54 59.123 631.21 57.363 632.41C55.623 633.59 53.573 634.18 51.213 634.18C49.213 634.18 47.403 633.73 45.783 632.83C44.183 631.91 42.913 630.64 41.973 629.02C41.053 627.4 40.593 625.56 40.593 623.5ZM63.5603 625.63C63.5603 623.95 63.8903 622.46 64.5503 621.16C65.2303 619.86 66.1403 618.86 67.2803 618.16C68.4403 617.46 69.7303 617.11 71.1503 617.11C72.3903 617.11 73.4703 617.36 74.3903 617.86C75.3303 618.36 76.0803 618.99 76.6403 619.75V617.38H80.8703V634H76.6403V631.57C76.1003 632.35 75.3503 633 74.3903 633.52C73.4503 634.02 72.3603 634.27 71.1203 634.27C69.7203 634.27 68.4403 633.91 67.2803 633.19C66.1403 632.47 65.2303 631.46 64.5503 630.16C63.8903 628.84 63.5603 627.33 63.5603 625.63ZM76.6403 625.69C76.6403 624.67 76.4403 623.8 76.0403 623.08C75.6403 622.34 75.1003 621.78 74.4203 621.4C73.7403 621 73.0103 620.8 72.2303 620.8C71.4503 620.8 70.7303 620.99 70.0703 621.37C69.4103 621.75 68.8703 622.31 68.4503 623.05C68.0503 623.77 67.8503 624.63 67.8503 625.63C67.8503 626.63 68.0503 627.51 68.4503 628.27C68.8703 629.01 69.4103 629.58 70.0703 629.98C70.7503 630.38 71.4703 630.58 72.2303 630.58C73.0103 630.58 73.7403 630.39 74.4203 630.01C75.1003 629.61 75.6403 629.05 76.0403 628.33C76.4403 627.59 76.6403 626.71 76.6403 625.69ZM89.1723 611.8V634H84.9723V611.8H89.1723ZM95.452 615.4C94.712 615.4 94.092 615.17 93.592 614.71C93.112 614.23 92.872 613.64 92.872 612.94C92.872 612.24 93.112 611.66 93.592 611.2C94.092 610.72 94.712 610.48 95.452 610.48C96.192 610.48 96.802 610.72 97.282 611.2C97.782 611.66 98.032 612.24 98.032 612.94C98.032 613.64 97.782 614.23 97.282 614.71C96.802 615.17 96.192 615.4 95.452 615.4ZM97.522 617.38V634H93.322V617.38H97.522ZM105.872 619.81C106.412 619.01 107.152 618.36 108.092 617.86C109.052 617.36 110.142 617.11 111.362 617.11C112.782 617.11 114.062 617.46 115.202 618.16C116.362 618.86 117.272 619.86 117.932 621.16C118.612 622.44 118.952 623.93 118.952 625.63C118.952 627.33 118.612 628.84 117.932 630.16C117.272 631.46 116.362 632.47 115.202 633.19C114.062 633.91 112.782 634.27 111.362 634.27C110.122 634.27 109.032 634.03 108.092 633.55C107.172 633.05 106.432 632.41 105.872 631.63V634H101.672V611.8H105.872V619.81ZM114.662 625.63C114.662 624.63 114.452 623.77 114.032 623.05C113.632 622.31 113.092 621.75 112.412 621.37C111.752 620.99 111.032 620.8 110.252 620.8C109.492 620.8 108.772 621 108.092 621.4C107.432 621.78 106.892 622.34 106.472 623.08C106.072 623.82 105.872 624.69 105.872 625.69C105.872 626.69 106.072 627.56 106.472 628.3C106.892 629.04 107.432 629.61 108.092 630.01C108.772 630.39 109.492 630.58 110.252 630.58C111.032 630.58 111.752 630.38 112.412 629.98C113.092 629.58 113.632 629.01 114.032 628.27C114.452 627.53 114.662 626.65 114.662 625.63ZM126.204 619.96C126.744 619.08 127.444 618.39 128.304 617.89C129.184 617.39 130.184 617.14 131.304 617.14V621.55H130.194C128.874 621.55 127.874 621.86 127.194 622.48C126.534 623.1 126.204 624.18 126.204 625.72V634H122.004V617.38H126.204V619.96ZM133.052 625.63C133.052 623.95 133.382 622.46 134.042 621.16C134.723 619.86 135.633 618.86 136.773 618.16C137.933 617.46 139.223 617.11 140.643 617.11C141.883 617.11 142.963 617.36 143.883 617.86C144.823 618.36 145.573 618.99 146.133 619.75V617.38H150.363V634H146.133V631.57C145.593 632.35 144.843 633 143.883 633.52C142.943 634.02 141.853 634.27 140.613 634.27C139.213 634.27 137.933 633.91 136.773 633.19C135.633 632.47 134.723 631.46 134.042 630.16C133.382 628.84 133.052 627.33 133.052 625.63ZM146.133 625.69C146.133 624.67 145.933 623.8 145.533 623.08C145.133 622.34 144.593 621.78 143.913 621.4C143.233 621 142.503 620.8 141.723 620.8C140.943 620.8 140.223 620.99 139.562 621.37C138.903 621.75 138.363 622.31 137.943 623.05C137.543 623.77 137.343 624.63 137.343 625.63C137.343 626.63 137.543 627.51 137.943 628.27C138.363 629.01 138.903 629.58 139.562 629.98C140.243 630.38 140.963 630.58 141.723 630.58C142.503 630.58 143.233 630.39 143.913 630.01C144.593 629.61 145.133 629.05 145.533 628.33C145.933 627.59 146.133 626.71 146.133 625.69ZM159.355 620.83V628.87C159.355 629.43 159.485 629.84 159.745 630.1C160.025 630.34 160.485 630.46 161.125 630.46H163.075V634H160.435C156.895 634 155.125 632.28 155.125 628.84V620.83H153.145V617.38H155.125V613.27H159.355V617.38H163.075V620.83H159.355ZM168.225 615.4C167.485 615.4 166.865 615.17 166.365 614.71C165.885 614.23 165.645 613.64 165.645 612.94C165.645 612.24 165.885 611.66 166.365 611.2C166.865 610.72 167.485 610.48 168.225 610.48C168.965 610.48 169.575 610.72 170.055 611.2C170.555 611.66 170.805 612.24 170.805 612.94C170.805 613.64 170.555 614.23 170.055 614.71C169.575 615.17 168.965 615.4 168.225 615.4ZM170.295 617.38V634H166.095V617.38H170.295ZM181.825 634.27C180.225 634.27 178.785 633.92 177.505 633.22C176.225 632.5 175.215 631.49 174.475 630.19C173.755 628.89 173.395 627.39 173.395 625.69C173.395 623.99 173.765 622.49 174.505 621.19C175.265 619.89 176.295 618.89 177.595 618.19C178.895 617.47 180.345 617.11 181.945 617.11C183.545 617.11 184.995 617.47 186.295 618.19C187.595 618.89 188.615 619.89 189.355 621.19C190.115 622.49 190.495 623.99 190.495 625.69C190.495 627.39 190.105 628.89 189.325 630.19C188.565 631.49 187.525 632.5 186.205 633.22C184.905 633.92 183.445 634.27 181.825 634.27ZM181.825 630.61C182.585 630.61 183.295 630.43 183.955 630.07C184.635 629.69 185.175 629.13 185.575 628.39C185.975 627.65 186.175 626.75 186.175 625.69C186.175 624.11 185.755 622.9 184.915 622.06C184.095 621.2 183.085 620.77 181.885 620.77C180.685 620.77 179.675 621.2 178.855 622.06C178.055 622.9 177.655 624.11 177.655 625.69C177.655 627.27 178.045 628.49 178.825 629.35C179.625 630.19 180.625 630.61 181.825 630.61ZM202.786 617.14C204.766 617.14 206.366 617.77 207.586 619.03C208.806 620.27 209.416 622.01 209.416 624.25V634H205.216V624.82C205.216 623.5 204.886 622.49 204.226 621.79C203.566 621.07 202.666 620.71 201.526 620.71C200.366 620.71 199.446 621.07 198.766 621.79C198.106 622.49 197.776 623.5 197.776 624.82V634H193.576V617.38H197.776V619.45C198.336 618.73 199.046 618.17 199.906 617.77C200.786 617.35 201.746 617.14 202.786 617.14ZM219.898 629.74V626.44L229.708 612.4H234.598V626.08H237.238V629.74H234.598V634H230.398V629.74H219.898ZM230.668 616.9L224.518 626.08H230.668V616.9Z" fill="#616875"/>
<path fill-rule="evenodd" clip-rule="evenodd" d="M20.543 706.5C20.543 703.735 22.7783 701.5 25.5433 701.5C28.3082 701.5 30.543 703.735 30.543 706.5C30.543 709.265 28.3082 711.5 25.5433 711.5C22.7783 711.5 20.543 709.265 20.543 706.5Z" fill="#ADB3C0"/>
<path d="M54.153 717L49.623 709.95L45.513 717H40.773L47.373 706.44L40.683 696.06H45.513L50.043 703.08L54.123 696.06H58.863L52.293 706.59L58.983 717H54.153ZM74.9594 704.52V708.06H62.2394V704.52H74.9594ZM83.8696 702.96C84.4096 702.08 85.1096 701.39 85.9696 700.89C86.8496 700.39 87.8496 700.14 88.9696 700.14V704.55H87.8596C86.5396 704.55 85.5396 704.86 84.8596 705.48C84.1996 706.1 83.8696 707.18 83.8696 708.72V717H79.6696V700.38H83.8696V702.96ZM90.7185 708.63C90.7185 706.95 91.0485 705.46 91.7085 704.16C92.3885 702.86 93.2985 701.86 94.4385 701.16C95.5985 700.46 96.8885 700.11 98.3085 700.11C99.5485 700.11 100.629 700.36 101.549 700.86C102.489 701.36 103.239 701.99 103.799 702.75V700.38H108.029V717H103.799V714.57C103.259 715.35 102.509 716 101.549 716.52C100.609 717.02 99.5185 717.27 98.2785 717.27C96.8785 717.27 95.5985 716.91 94.4385 716.19C93.2985 715.47 92.3885 714.46 91.7085 713.16C91.0485 711.84 90.7185 710.33 90.7185 708.63ZM103.799 708.69C103.799 707.67 103.599 706.8 103.199 706.08C102.799 705.34 102.259 704.78 101.579 704.4C100.899 704 100.169 703.8 99.3885 703.8C98.6085 703.8 97.8885 703.99 97.2285 704.37C96.5685 704.75 96.0285 705.31 95.6085 706.05C95.2085 706.77 95.0085 707.63 95.0085 708.63C95.0085 709.63 95.2085 710.51 95.6085 711.27C96.0285 712.01 96.5685 712.58 97.2285 712.98C97.9085 713.38 98.6285 713.58 99.3885 713.58C100.169 713.58 100.899 713.39 101.579 713.01C102.259 712.61 102.799 712.05 103.199 711.33C103.599 710.59 103.799 709.71 103.799 708.69ZM128.031 700.38L117.741 724.86H113.271L116.871 716.58L110.211 700.38H114.921L119.211 711.99L123.561 700.38H128.031ZM136.453 699V695.13H143.683V717H139.363V699H136.453ZM149.152 712.26C151.072 710.66 152.602 709.33 153.742 708.27C154.882 707.19 155.832 706.07 156.592 704.91C157.352 703.75 157.732 702.61 157.732 701.49C157.732 700.47 157.492 699.67 157.012 699.09C156.532 698.51 155.792 698.22 154.792 698.22C153.792 698.22 153.022 698.56 152.482 699.24C151.942 699.9 151.662 700.81 151.642 701.97H147.562C147.642 699.57 148.352 697.75 149.692 696.51C151.052 695.27 152.772 694.65 154.852 694.65C157.132 694.65 158.882 695.26 160.102 696.48C161.322 697.68 161.932 699.27 161.932 701.25C161.932 702.81 161.512 704.3 160.672 705.72C159.832 707.14 158.872 708.38 157.792 709.44C156.712 710.48 155.302 711.74 153.562 713.22H162.412V716.7H147.592V713.58L149.152 712.26Z" fill="#616875"/>
<path fill-rule="evenodd" clip-rule="evenodd" d="M20.543 125.5C20.543 122.735 22.7783 120.5 25.5433 120.5C28.3082 120.5 30.543 122.735 30.543 125.5C30.543 128.265 28.3082 130.5 25.5433 130.5C22.7783 130.5 20.543 128.265 20.543 125.5Z" fill="#52DE97"/>
<path d="M54.153 136L49.623 128.95L45.513 136H40.773L47.373 125.44L40.683 115.06H45.513L50.043 122.08L54.123 115.06H58.863L52.293 125.59L58.983 136H54.153ZM74.9594 123.52V127.06H62.2394V123.52H74.9594ZM83.8696 121.96C84.4096 121.08 85.1096 120.39 85.9696 119.89C86.8496 119.39 87.8496 119.14 88.9696 119.14V123.55H87.8596C86.5396 123.55 85.5396 123.86 84.8596 124.48C84.1996 125.1 83.8696 126.18 83.8696 127.72V136H79.6696V119.38H83.8696V121.96ZM90.7185 127.63C90.7185 125.95 91.0485 124.46 91.7085 123.16C92.3885 121.86 93.2985 120.86 94.4385 120.16C95.5985 119.46 96.8885 119.11 98.3085 119.11C99.5485 119.11 100.629 119.36 101.549 119.86C102.489 120.36 103.239 120.99 103.799 121.75V119.38H108.029V136H103.799V133.57C103.259 134.35 102.509 135 101.549 135.52C100.609 136.02 99.5185 136.27 98.2785 136.27C96.8785 136.27 95.5985 135.91 94.4385 135.19C93.2985 134.47 92.3885 133.46 91.7085 132.16C91.0485 130.84 90.7185 129.33 90.7185 127.63ZM103.799 127.69C103.799 126.67 103.599 125.8 103.199 125.08C102.799 124.34 102.259 123.78 101.579 123.4C100.899 123 100.169 122.8 99.3885 122.8C98.6085 122.8 97.8885 122.99 97.2285 123.37C96.5685 123.75 96.0285 124.31 95.6085 125.05C95.2085 125.77 95.0085 126.63 95.0085 127.63C95.0085 128.63 95.2085 129.51 95.6085 130.27C96.0285 131.01 96.5685 131.58 97.2285 131.98C97.9085 132.38 98.6285 132.58 99.3885 132.58C100.169 132.58 100.899 132.39 101.579 132.01C102.259 131.61 102.799 131.05 103.199 130.33C103.599 129.59 103.799 128.71 103.799 127.69ZM128.031 119.38L117.741 143.86H113.271L116.871 135.58L110.211 119.38H114.921L119.211 130.99L123.561 119.38H128.031ZM137.023 119.89C137.123 117.89 137.823 116.35 139.123 115.27C140.443 114.17 142.173 113.62 144.313 113.62C145.773 113.62 147.023 113.88 148.063 114.4C149.103 114.9 149.883 115.59 150.403 116.47C150.943 117.33 151.213 118.31 151.213 119.41C151.213 120.67 150.883 121.74 150.223 122.62C149.583 123.48 148.813 124.06 147.913 124.36V124.48C149.073 124.84 149.973 125.48 150.613 126.4C151.273 127.32 151.603 128.5 151.603 129.94C151.603 131.14 151.323 132.21 150.763 133.15C150.223 134.09 149.413 134.83 148.333 135.37C147.273 135.89 145.993 136.15 144.493 136.15C142.233 136.15 140.393 135.58 138.973 134.44C137.553 133.3 136.803 131.62 136.723 129.4H140.803C140.843 130.38 141.173 131.17 141.793 131.77C142.433 132.35 143.303 132.64 144.403 132.64C145.423 132.64 146.203 132.36 146.743 131.8C147.303 131.22 147.583 130.48 147.583 129.58C147.583 128.38 147.203 127.52 146.443 127C145.683 126.48 144.503 126.22 142.903 126.22H142.033V122.77H142.903C145.743 122.77 147.163 121.82 147.163 119.92C147.163 119.06 146.903 118.39 146.383 117.91C145.883 117.43 145.153 117.19 144.193 117.19C143.253 117.19 142.523 117.45 142.003 117.97C141.503 118.47 141.213 119.11 141.133 119.89H137.023Z" fill="#616875"/>
<path fill-rule="evenodd" clip-rule="evenodd" d="M20.543 208.5C20.543 205.735 22.7783 203.5 25.5433 203.5C28.3082 203.5 30.543 205.735 30.543 208.5C30.543 211.265 28.3082 213.5 25.5433 213.5C22.7783 213.5 20.543 211.265 20.543 208.5Z" fill="#52DE97"/>
<path d="M54.453 215.01H46.113L44.733 219H40.323L47.853 198.03H52.743L60.273 219H55.833L54.453 215.01ZM53.313 211.65L50.283 202.89L47.253 211.65H53.313ZM77.3376 198.06V201.45H71.7576V219H67.5576V201.45H61.9776V198.06H77.3376ZM84.602 201.45V206.7H91.652V210.03H84.602V215.58H92.552V219H80.402V198.03H92.552V201.45H84.602ZM115.119 220.2V224.19H97.5088V220.2H115.119ZM119.08 201V197.13H126.31V219H121.99V201H119.08ZM129.949 201V197.13H137.179V219H132.859V201H129.949Z" fill="#616875"/>
<path fill-rule="evenodd" clip-rule="evenodd" d="M20.543 291.5C20.543 288.735 22.7783 286.5 25.5433 286.5C28.3082 286.5 30.543 288.735 30.543 291.5C30.543 294.265 28.3082 296.5 25.5433 296.5C22.7783 296.5 20.543 294.265 20.543 291.5Z" fill="#52DE97"/>
<path d="M64.443 281.06V302H60.243V288.38L54.633 302H51.453L45.813 288.38V302H41.613V281.06H46.383L53.043 296.63L59.703 281.06H64.443ZM84.0454 293.33C84.0454 293.93 84.0054 294.47 83.9254 294.95H71.7754C71.8754 296.15 72.2954 297.09 73.0354 297.77C73.7754 298.45 74.6854 298.79 75.7654 298.79C77.3254 298.79 78.4354 298.12 79.0954 296.78H83.6254C83.1454 298.38 82.2254 299.7 80.8654 300.74C79.5054 301.76 77.8354 302.27 75.8554 302.27C74.2554 302.27 72.8154 301.92 71.5354 301.22C70.2754 300.5 69.2854 299.49 68.5654 298.19C67.8654 296.89 67.5154 295.39 67.5154 293.69C67.5154 291.97 67.8654 290.46 68.5654 289.16C69.2654 287.86 70.2454 286.86 71.5054 286.16C72.7654 285.46 74.2154 285.11 75.8554 285.11C77.4354 285.11 78.8454 285.45 80.0854 286.13C81.3454 286.81 82.3154 287.78 82.9954 289.04C83.6954 290.28 84.0454 291.71 84.0454 293.33ZM79.6954 292.13C79.6754 291.05 79.2854 290.19 78.5254 289.55C77.7654 288.89 76.8354 288.56 75.7354 288.56C74.6954 288.56 73.8154 288.88 73.0954 289.52C72.3954 290.14 71.9654 291.01 71.8054 292.13H79.6954ZM92.001 288.83V296.87C92.001 297.43 92.131 297.84 92.391 298.1C92.671 298.34 93.131 298.46 93.771 298.46H95.721V302H93.081C89.541 302 87.771 300.28 87.771 296.84V288.83H85.791V285.38H87.771V281.27H92.001V285.38H95.721V288.83H92.001ZM102.942 287.96C103.482 287.08 104.182 286.39 105.042 285.89C105.922 285.39 106.922 285.14 108.042 285.14V289.55H106.932C105.612 289.55 104.612 289.86 103.932 290.48C103.272 291.1 102.942 292.18 102.942 293.72V302H98.7419V285.38H102.942V287.96ZM118.251 302.27C116.651 302.27 115.211 301.92 113.931 301.22C112.651 300.5 111.641 299.49 110.901 298.19C110.181 296.89 109.821 295.39 109.821 293.69C109.821 291.99 110.191 290.49 110.931 289.19C111.691 287.89 112.721 286.89 114.021 286.19C115.321 285.47 116.771 285.11 118.371 285.11C119.971 285.11 121.421 285.47 122.721 286.19C124.021 286.89 125.041 287.89 125.781 289.19C126.541 290.49 126.921 291.99 126.921 293.69C126.921 295.39 126.531 296.89 125.751 298.19C124.991 299.49 123.951 300.5 122.631 301.22C121.331 301.92 119.871 302.27 118.251 302.27ZM118.251 298.61C119.011 298.61 119.721 298.43 120.381 298.07C121.061 297.69 121.601 297.13 122.001 296.39C122.401 295.65 122.601 294.75 122.601 293.69C122.601 292.11 122.181 290.9 121.341 290.06C120.521 289.2 119.511 288.77 118.311 288.77C117.111 288.77 116.101 289.2 115.281 290.06C114.481 290.9 114.081 292.11 114.081 293.69C114.081 295.27 114.471 296.49 115.251 297.35C116.051 298.19 117.051 298.61 118.251 298.61ZM134.202 279.8V302H130.002V279.8H134.202ZM145.731 302.27C144.131 302.27 142.691 301.92 141.411 301.22C140.131 300.5 139.121 299.49 138.381 298.19C137.661 296.89 137.301 295.39 137.301 293.69C137.301 291.99 137.671 290.49 138.411 289.19C139.171 287.89 140.201 286.89 141.501 286.19C142.801 285.47 144.251 285.11 145.851 285.11C147.451 285.11 148.901 285.47 150.201 286.19C151.501 286.89 152.521 287.89 153.261 289.19C154.021 290.49 154.401 291.99 154.401 293.69C154.401 295.39 154.011 296.89 153.231 298.19C152.471 299.49 151.431 300.5 150.111 301.22C148.811 301.92 147.351 302.27 145.731 302.27ZM145.731 298.61C146.491 298.61 147.201 298.43 147.861 298.07C148.541 297.69 149.081 297.13 149.481 296.39C149.881 295.65 150.081 294.75 150.081 293.69C150.081 292.11 149.661 290.9 148.821 290.06C148.001 289.2 146.991 288.77 145.791 288.77C144.591 288.77 143.581 289.2 142.761 290.06C141.961 290.9 141.561 292.11 141.561 293.69C141.561 295.27 141.951 296.49 142.731 297.35C143.531 298.19 144.531 298.61 145.731 298.61ZM163.992 285.11C165.232 285.11 166.322 285.36 167.262 285.86C168.202 286.34 168.942 286.97 169.482 287.75V285.38H173.712V302.12C173.712 303.66 173.402 305.03 172.782 306.23C172.162 307.45 171.232 308.41 169.992 309.11C168.752 309.83 167.252 310.19 165.492 310.19C163.132 310.19 161.192 309.64 159.672 308.54C158.172 307.44 157.322 305.94 157.122 304.04H161.292C161.512 304.8 161.982 305.4 162.702 305.84C163.442 306.3 164.332 306.53 165.372 306.53C166.592 306.53 167.582 306.16 168.342 305.42C169.102 304.7 169.482 303.6 169.482 302.12V299.54C168.942 300.32 168.192 300.97 167.232 301.49C166.292 302.01 165.212 302.27 163.992 302.27C162.592 302.27 161.312 301.91 160.152 301.19C158.992 300.47 158.072 299.46 157.392 298.16C156.732 296.84 156.402 295.33 156.402 293.63C156.402 291.95 156.732 290.46 157.392 289.16C158.072 287.86 158.982 286.86 160.122 286.16C161.282 285.46 162.572 285.11 163.992 285.11ZM169.482 293.69C169.482 292.67 169.282 291.8 168.882 291.08C168.482 290.34 167.942 289.78 167.262 289.4C166.582 289 165.852 288.8 165.072 288.8C164.292 288.8 163.572 288.99 162.912 289.37C162.252 289.75 161.712 290.31 161.292 291.05C160.892 291.77 160.692 292.63 160.692 293.63C160.692 294.63 160.892 295.51 161.292 296.27C161.712 297.01 162.252 297.58 162.912 297.98C163.592 298.38 164.312 298.58 165.072 298.58C165.852 298.58 166.582 298.39 167.262 298.01C167.942 297.61 168.482 297.05 168.882 296.33C169.282 295.59 169.482 294.71 169.482 293.69ZM193.714 285.38L183.424 309.86H178.954L182.554 301.58L175.894 285.38H180.604L184.894 296.99L189.244 285.38H193.714ZM202.137 284V280.13H209.367V302H205.047V284H202.137Z" fill="#616875"/>
<path fill-rule="evenodd" clip-rule="evenodd" d="M20.543 374.5C20.543 371.735 22.7783 369.5 25.5433 369.5C28.3082 369.5 30.543 371.735 30.543 374.5C30.543 377.265 28.3082 379.5 25.5433 379.5C22.7783 379.5 20.543 377.265 20.543 374.5Z" fill="#ADB3C0"/>
<path d="M64.443 364.06V385H60.243V371.38L54.633 385H51.453L45.813 371.38V385H41.613V364.06H46.383L53.043 379.63L59.703 364.06H64.443ZM84.0454 376.33C84.0454 376.93 84.0054 377.47 83.9254 377.95H71.7754C71.8754 379.15 72.2954 380.09 73.0354 380.77C73.7754 381.45 74.6854 381.79 75.7654 381.79C77.3254 381.79 78.4354 381.12 79.0954 379.78H83.6254C83.1454 381.38 82.2254 382.7 80.8654 383.74C79.5054 384.76 77.8354 385.27 75.8554 385.27C74.2554 385.27 72.8154 384.92 71.5354 384.22C70.2754 383.5 69.2854 382.49 68.5654 381.19C67.8654 379.89 67.5154 378.39 67.5154 376.69C67.5154 374.97 67.8654 373.46 68.5654 372.16C69.2654 370.86 70.2454 369.86 71.5054 369.16C72.7654 368.46 74.2154 368.11 75.8554 368.11C77.4354 368.11 78.8454 368.45 80.0854 369.13C81.3454 369.81 82.3154 370.78 82.9954 372.04C83.6954 373.28 84.0454 374.71 84.0454 376.33ZM79.6954 375.13C79.6754 374.05 79.2854 373.19 78.5254 372.55C77.7654 371.89 76.8354 371.56 75.7354 371.56C74.6954 371.56 73.8154 371.88 73.0954 372.52C72.3954 373.14 71.9654 374.01 71.8054 375.13H79.6954ZM92.001 371.83V379.87C92.001 380.43 92.131 380.84 92.391 381.1C92.671 381.34 93.131 381.46 93.771 381.46H95.721V385H93.081C89.541 385 87.771 383.28 87.771 379.84V371.83H85.791V368.38H87.771V364.27H92.001V368.38H95.721V371.83H92.001ZM102.942 370.96C103.482 370.08 104.182 369.39 105.042 368.89C105.922 368.39 106.922 368.14 108.042 368.14V372.55H106.932C105.612 372.55 104.612 372.86 103.932 373.48C103.272 374.1 102.942 375.18 102.942 376.72V385H98.7419V368.38H102.942V370.96ZM118.251 385.27C116.651 385.27 115.211 384.92 113.931 384.22C112.651 383.5 111.641 382.49 110.901 381.19C110.181 379.89 109.821 378.39 109.821 376.69C109.821 374.99 110.191 373.49 110.931 372.19C111.691 370.89 112.721 369.89 114.021 369.19C115.321 368.47 116.771 368.11 118.371 368.11C119.971 368.11 121.421 368.47 122.721 369.19C124.021 369.89 125.041 370.89 125.781 372.19C126.541 373.49 126.921 374.99 126.921 376.69C126.921 378.39 126.531 379.89 125.751 381.19C124.991 382.49 123.951 383.5 122.631 384.22C121.331 384.92 119.871 385.27 118.251 385.27ZM118.251 381.61C119.011 381.61 119.721 381.43 120.381 381.07C121.061 380.69 121.601 380.13 122.001 379.39C122.401 378.65 122.601 377.75 122.601 376.69C122.601 375.11 122.181 373.9 121.341 373.06C120.521 372.2 119.511 371.77 118.311 371.77C117.111 371.77 116.101 372.2 115.281 373.06C114.481 373.9 114.081 375.11 114.081 376.69C114.081 378.27 114.471 379.49 115.251 380.35C116.051 381.19 117.051 381.61 118.251 381.61ZM134.202 362.8V385H130.002V362.8H134.202ZM145.731 385.27C144.131 385.27 142.691 384.92 141.411 384.22C140.131 383.5 139.121 382.49 138.381 381.19C137.661 379.89 137.301 378.39 137.301 376.69C137.301 374.99 137.671 373.49 138.411 372.19C139.171 370.89 140.201 369.89 141.501 369.19C142.801 368.47 144.251 368.11 145.851 368.11C147.451 368.11 148.901 368.47 150.201 369.19C151.501 369.89 152.521 370.89 153.261 372.19C154.021 373.49 154.401 374.99 154.401 376.69C154.401 378.39 154.011 379.89 153.231 381.19C152.471 382.49 151.431 383.5 150.111 384.22C148.811 384.92 147.351 385.27 145.731 385.27ZM145.731 381.61C146.491 381.61 147.201 381.43 147.861 381.07C148.541 380.69 149.081 380.13 149.481 379.39C149.881 378.65 150.081 377.75 150.081 376.69C150.081 375.11 149.661 373.9 148.821 373.06C148.001 372.2 146.991 371.77 145.791 371.77C144.591 371.77 143.581 372.2 142.761 373.06C141.961 373.9 141.561 375.11 141.561 376.69C141.561 378.27 141.951 379.49 142.731 380.35C143.531 381.19 144.531 381.61 145.731 381.61ZM163.992 368.11C165.232 368.11 166.322 368.36 167.262 368.86C168.202 369.34 168.942 369.97 169.482 370.75V368.38H173.712V385.12C173.712 386.66 173.402 388.03 172.782 389.23C172.162 390.45 171.232 391.41 169.992 392.11C168.752 392.83 167.252 393.19 165.492 393.19C163.132 393.19 161.192 392.64 159.672 391.54C158.172 390.44 157.322 388.94 157.122 387.04H161.292C161.512 387.8 161.982 388.4 162.702 388.84C163.442 389.3 164.332 389.53 165.372 389.53C166.592 389.53 167.582 389.16 168.342 388.42C169.102 387.7 169.482 386.6 169.482 385.12V382.54C168.942 383.32 168.192 383.97 167.232 384.49C166.292 385.01 165.212 385.27 163.992 385.27C162.592 385.27 161.312 384.91 160.152 384.19C158.992 383.47 158.072 382.46 157.392 381.16C156.732 379.84 156.402 378.33 156.402 376.63C156.402 374.95 156.732 373.46 157.392 372.16C158.072 370.86 158.982 369.86 160.122 369.16C161.282 368.46 162.572 368.11 163.992 368.11ZM169.482 376.69C169.482 375.67 169.282 374.8 168.882 374.08C168.482 373.34 167.942 372.78 167.262 372.4C166.582 372 165.852 371.8 165.072 371.8C164.292 371.8 163.572 371.99 162.912 372.37C162.252 372.75 161.712 373.31 161.292 374.05C160.892 374.77 160.692 375.63 160.692 376.63C160.692 377.63 160.892 378.51 161.292 379.27C161.712 380.01 162.252 380.58 162.912 380.98C163.592 381.38 164.312 381.58 165.072 381.58C165.852 381.58 166.582 381.39 167.262 381.01C167.942 380.61 168.482 380.05 168.882 379.33C169.282 378.59 169.482 377.71 169.482 376.69ZM193.714 368.38L183.424 392.86H178.954L182.554 384.58L175.894 368.38H180.604L184.894 379.99L189.244 368.38H193.714ZM203.967 380.26C205.887 378.66 207.417 377.33 208.557 376.27C209.697 375.19 210.647 374.07 211.407 372.91C212.167 371.75 212.547 370.61 212.547 369.49C212.547 368.47 212.307 367.67 211.827 367.09C211.347 366.51 210.607 366.22 209.607 366.22C208.607 366.22 207.837 366.56 207.297 367.24C206.757 367.9 206.477 368.81 206.457 369.97H202.377C202.457 367.57 203.167 365.75 204.507 364.51C205.867 363.27 207.587 362.65 209.667 362.65C211.947 362.65 213.697 363.26 214.917 364.48C216.137 365.68 216.747 367.27 216.747 369.25C216.747 370.81 216.327 372.3 215.487 373.72C214.647 375.14 213.687 376.38 212.607 377.44C211.527 378.48 210.117 379.74 208.377 381.22H217.227V384.7H202.407V381.58L203.967 380.26Z" fill="#616875"/>
<path fill-rule="evenodd" clip-rule="evenodd" d="M20.543 457.5C20.543 454.735 22.7783 452.5 25.5433 452.5C28.3082 452.5 30.543 454.735 30.543 457.5C30.543 460.265 28.3082 462.5 25.5433 462.5C22.7783 462.5 20.543 460.265 20.543 457.5Z" fill="#ADB3C0"/>
<path d="M54.453 464.01H46.113L44.733 468H40.323L47.853 447.03H52.743L60.273 468H55.833L54.453 464.01ZM53.313 460.65L50.283 451.89L47.253 460.65H53.313ZM77.3376 447.06V450.45H71.7576V468H67.5576V450.45H61.9776V447.06H77.3376ZM84.602 450.45V455.7H91.652V459.03H84.602V464.58H92.552V468H80.402V447.03H92.552V450.45H84.602ZM115.119 469.2V473.19H97.5088V469.2H115.119ZM120.91 463.26C122.83 461.66 124.36 460.33 125.5 459.27C126.64 458.19 127.59 457.07 128.35 455.91C129.11 454.75 129.49 453.61 129.49 452.49C129.49 451.47 129.25 450.67 128.77 450.09C128.29 449.51 127.55 449.22 126.55 449.22C125.55 449.22 124.78 449.56 124.24 450.24C123.7 450.9 123.42 451.81 123.4 452.97H119.32C119.4 450.57 120.11 448.75 121.45 447.51C122.81 446.27 124.53 445.65 126.61 445.65C128.89 445.65 130.64 446.26 131.86 447.48C133.08 448.68 133.69 450.27 133.69 452.25C133.69 453.81 133.27 455.3 132.43 456.72C131.59 458.14 130.63 459.38 129.55 460.44C128.47 461.48 127.06 462.74 125.32 464.22H134.17V467.7H119.35V464.58L120.91 463.26Z" fill="#616875"/>
</svg>
