<svg width="16" height="16" viewBox="0 0 16 16" fill="none" xmlns="http://www.w3.org/2000/svg">
<path fill-rule="evenodd" clip-rule="evenodd" d="M9.76987 1.76583C8.82034 1.13251 7.70432 0.795281 6.56311 0.796857C5.03712 0.801063 3.57482 1.4094 2.49577 2.48893C1.41673 3.56846 0.808666 5.03143 0.804462 6.55811C0.802887 7.69983 1.13995 8.81632 1.77299 9.76629C2.40603 10.7162 3.30658 11.457 4.36061 11.8946C5.41465 12.3322 6.57478 12.4472 7.69413 12.2248C8.81349 12.0025 9.84173 11.4528 10.6487 10.6455C11.4556 9.83819 12.005 8.80949 12.2273 7.68963C12.4495 6.56977 12.3347 5.40912 11.8972 4.35461C11.4598 3.3001 10.7194 2.39916 9.76987 1.76583ZM2.91602 1.10713C3.99549 0.385289 5.26471 5.79822e-06 6.56311 4.84165e-06C7.42462 -0.00104242 8.27788 0.167813 9.07411 0.496919C9.87033 0.826025 10.5939 1.30893 11.2035 1.91801C11.813 2.52709 12.2966 3.25041 12.6265 4.04659C12.9564 4.84278 13.1262 5.69622 13.1262 6.55811C13.1278 7.85709 12.7442 9.12734 12.024 10.2082C11.8774 10.4282 11.7182 10.6383 11.5475 10.8377L16.0001 15.2996L15.2866 15.9999L10.8414 11.5454C10.3181 11.9953 9.72437 12.3624 9.08023 12.63C7.88112 13.1282 6.56124 13.2594 5.2876 13.0069C4.01396 12.7545 2.84378 12.1298 1.92512 11.2118C1.00645 10.2938 0.380581 9.12389 0.126696 7.84998C-0.127189 6.57607 0.00231355 5.25543 0.498825 4.05518C0.995337 2.85492 1.83655 1.82897 2.91602 1.10713Z" fill="#13115B"/>
</svg>
