<svg width="25" height="36" viewBox="0 0 25 36" fill="none" xmlns="http://www.w3.org/2000/svg">
<mask id="path-1-outside-1_162_32330" maskUnits="userSpaceOnUse" x="0.337891" y="0" width="25" height="36" fill="black">
<rect fill="white" x="0.337891" width="25" height="36"/>
<path fill-rule="evenodd" clip-rule="evenodd" d="M13.3285 3.88229L22.633 12.9909L23.3326 12.2763L13.185 2.34241L12.8352 2L12.4855 2.34241L2.33789 12.2763L3.03744 12.9909L12.3285 3.89547L12.3285 34.985H13.3285L13.3285 3.88229Z"/>
</mask>
<path fill-rule="evenodd" clip-rule="evenodd" d="M13.3285 3.88229L22.633 12.9909L23.3326 12.2763L13.185 2.34241L12.8352 2L12.4855 2.34241L2.33789 12.2763L3.03744 12.9909L12.3285 3.89547L12.3285 34.985H13.3285L13.3285 3.88229Z" fill="#394253"/>
<path d="M13.3285 3.88229L14.028 3.1677L12.3285 1.50394V3.88229L13.3285 3.88229ZM22.633 12.9909L21.9335 13.7055L22.6481 14.4051L23.3476 13.6905L22.633 12.9909ZM23.3326 12.2763L24.0472 12.9759L24.7467 12.2613L24.0321 11.5618L23.3326 12.2763ZM13.185 2.34241L13.8845 1.62782L13.185 2.34241ZM12.8352 2L13.5348 1.28541L12.8352 0.600594L12.1357 1.28541L12.8352 2ZM12.4855 2.34241L11.7859 1.62782V1.62782L12.4855 2.34241ZM2.33789 12.2763L1.63835 11.5618L0.923756 12.2613L1.6233 12.9759L2.33789 12.2763ZM3.03744 12.9909L2.32285 13.6905L3.02239 14.4051L3.73698 13.7055L3.03744 12.9909ZM12.3285 3.89547L13.3285 3.89547V1.51711L11.629 3.18088L12.3285 3.89547ZM12.3285 34.985H11.3285V35.985H12.3285V34.985ZM13.3285 34.985V35.985H14.3285V34.985H13.3285ZM12.629 4.59688L21.9335 13.7055L23.3326 12.2763L14.028 3.1677L12.629 4.59688ZM23.3476 13.6905L24.0472 12.9759L22.618 11.5768L21.9184 12.2914L23.3476 13.6905ZM24.0321 11.5618L13.8845 1.62782L12.4855 3.057L22.633 12.9909L24.0321 11.5618ZM13.8845 1.62782L13.5348 1.28541L12.1357 2.71459L12.4855 3.057L13.8845 1.62782ZM12.1357 1.28541L11.7859 1.62782L13.185 3.057L13.5348 2.71459L12.1357 1.28541ZM11.7859 1.62782L1.63835 11.5618L3.03744 12.9909L13.185 3.057L11.7859 1.62782ZM1.6233 12.9759L2.32285 13.6905L3.75202 12.2914L3.05248 11.5768L1.6233 12.9759ZM3.73698 13.7055L13.028 4.61006L11.629 3.18088L2.33789 12.2763L3.73698 13.7055ZM13.3285 34.985L13.3285 3.89547L11.3285 3.89547L11.3285 34.985H13.3285ZM13.3285 33.985H12.3285V35.985H13.3285V33.985ZM12.3285 3.88229L12.3285 34.985H14.3285L14.3285 3.88229L12.3285 3.88229Z" fill="#394253" mask="url(#path-1-outside-1_162_32330)"/>
</svg>
