<svg width="91" height="54" viewBox="0 0 91 54" fill="none" xmlns="http://www.w3.org/2000/svg">
<path fill-rule="evenodd" clip-rule="evenodd" d="M76.4209 0.566406H89.3087C89.6895 0.577072 90.0516 0.732949 90.3201 1.00183C90.5885 1.2707 90.7425 1.63186 90.7505 2.01065V8.97071H88.3036V12.0589C87.8458 12.4462 87.3879 12.8699 86.9564 13.299C82.4566 17.7823 79.8263 23.7908 79.5921 30.1209C79.3579 36.451 81.5371 42.6352 85.6935 47.4352H82.5148V47.4611H2.63122V51.2079H88.9086V53.8245H1.32075C0.97043 53.8245 0.634428 53.6863 0.386717 53.4399C0.139005 53.1936 0 52.8595 0 52.5111V46.0115C0.00514775 45.8469 0.0437962 45.6849 0.113831 45.5357C0.183866 45.3865 0.283713 45.2531 0.407273 45.1435C0.530833 45.0338 0.675492 44.9502 0.832533 44.8979C0.989574 44.8456 1.1557 44.8256 1.32075 44.8391H3.35197V18.8617C3.38627 18.5022 3.55527 18.1686 3.82528 17.9272C4.0953 17.6858 4.44663 17.5542 4.80968 17.5585H17.7132C18.0706 17.5528 18.4158 17.6877 18.6739 17.9336C18.932 18.1795 19.0823 18.5168 19.092 18.8722V44.8391H27.433V2.21482C27.4252 2.04513 27.4514 1.87554 27.5101 1.71603C27.5688 1.55651 27.6587 1.41011 27.7747 1.28546C27.8908 1.16082 28.0307 1.06028 28.1861 0.989816C28.3415 0.91935 28.5095 0.880455 28.6802 0.875084H41.5837C41.9291 0.885499 42.2569 1.02784 42.4993 1.27268C42.6225 1.39653 42.7197 1.54375 42.7847 1.70555C42.8498 1.86735 42.8817 2.04059 42.8783 2.21482V44.8391H51.219V9.3632C51.2245 9.04116 51.3576 8.73426 51.589 8.50897C51.8205 8.28368 52.1319 8.15824 52.4557 8.15967H65.454C65.6114 8.15464 65.768 8.18162 65.9145 8.23888C66.061 8.29614 66.1943 8.38241 66.3061 8.49262C66.4179 8.60283 66.506 8.73455 66.5648 8.87974C66.6237 9.02494 66.6523 9.18063 66.6486 9.33714V44.8235H74.9896V1.97922C75.0089 1.60889 75.1662 1.25898 75.4308 0.997737C75.6955 0.736497 76.0483 0.582826 76.4209 0.566406ZM10.2145 48.3718H10.2198C10.7923 48.3718 11.2565 48.8334 11.2565 49.4028V49.408C11.2565 49.9774 10.7923 50.439 10.2198 50.439H10.2145C9.64195 50.439 9.1778 49.9774 9.1778 49.408V49.4028C9.1778 48.8334 9.64195 48.3718 10.2145 48.3718ZM18.8079 48.3718H18.8132C19.3858 48.3718 19.8499 48.8334 19.8499 49.4028V49.408C19.8499 49.9774 19.3858 50.439 18.8132 50.439H18.8079C18.2354 50.439 17.7712 49.9774 17.7712 49.408V49.4028C17.7712 48.8334 18.2354 48.3718 18.8079 48.3718ZM27.4119 48.3718H27.4066C26.8341 48.3718 26.3699 48.8334 26.3699 49.4028V49.408C26.3699 49.9774 26.8341 50.439 27.4066 50.439H27.4119C27.9844 50.439 28.4486 49.9774 28.4486 49.408V49.4028C28.4486 48.8334 27.9844 48.3718 27.4119 48.3718ZM44.5992 48.3718H44.6044C45.177 48.3718 45.6411 48.8334 45.6411 49.4028V49.408C45.6411 49.9774 45.177 50.439 44.6044 50.439H44.5992C44.0266 50.439 43.5625 49.9774 43.5625 49.408V49.4028C43.5625 48.8334 44.0266 48.3718 44.5992 48.3718ZM36.0108 48.3718H36.0055C35.433 48.3718 34.9688 48.8334 34.9688 49.4028V49.408C34.9688 49.9774 35.433 50.439 36.0055 50.439H36.0108C36.5833 50.439 37.0475 49.9774 37.0475 49.408V49.4028C37.0475 48.8334 36.5833 48.3718 36.0108 48.3718ZM53.1979 48.3718H53.2031C53.7757 48.3718 54.2398 48.8334 54.2398 49.4028V49.408C54.2398 49.9774 53.7757 50.439 53.2031 50.439H53.1979C52.6253 50.439 52.1612 49.9774 52.1612 49.408V49.4028C52.1612 48.8334 52.6253 48.3718 53.1979 48.3718ZM70.4007 48.3718H70.3954C69.8229 48.3718 69.3587 48.8334 69.3587 49.4028V49.408C69.3587 49.9774 69.8229 50.439 70.3954 50.439H70.4007C70.9732 50.439 71.4374 49.9774 71.4374 49.408V49.4028C71.4374 48.8334 70.9732 48.3718 70.4007 48.3718ZM61.7968 48.3718H61.802C62.3746 48.3718 62.8387 48.8334 62.8387 49.4028V49.408C62.8387 49.9774 62.3746 50.439 61.802 50.439H61.7968C61.2242 50.439 60.7601 49.9774 60.7601 49.408V49.4028C60.7601 48.8334 61.2242 48.3718 61.7968 48.3718ZM78.9944 48.3718H78.9891C78.4165 48.3718 77.9524 48.8334 77.9524 49.4028V49.408C77.9524 49.9774 78.4165 50.439 78.9891 50.439H78.9944C79.5669 50.439 80.0311 49.9774 80.0311 49.408V49.4028C80.0311 48.8334 79.5669 48.3718 78.9944 48.3718Z" fill="#86E8B6"/>
</svg>
