<svg width="44" height="44" viewBox="0 0 44 44" fill="none" xmlns="http://www.w3.org/2000/svg">
<path d="M37.1884 37.3539C35.1724 39.3718 32.7738 40.9718 30.1316 42.0615C27.4895 43.1511 24.6562 43.7086 21.7958 43.7017C18.9445 43.7104 16.12 43.1561 13.4859 42.0709C10.8517 40.9857 8.46043 39.3912 6.4507 37.3799C6.04549 36.9822 5.65597 36.5531 5.29286 36.124C3.56676 34.1315 2.22517 31.8394 1.3355 29.3627C1.22187 29.0385 1.24102 28.6827 1.38869 28.3723C1.53636 28.062 1.80072 27.8218 2.12487 27.7036C2.26812 27.6523 2.4201 27.6292 2.57223 27.6356C2.83981 27.6363 3.10069 27.7192 3.31919 27.8728C3.5377 28.0264 3.7031 28.2433 3.79302 28.494C4.19371 29.5847 4.69586 30.6359 5.29286 31.6339C6.97236 34.4858 9.36937 36.8539 12.2481 38.5055C15.1269 40.1571 18.3883 41.0353 21.7118 41.0537C26.7677 41.0537 31.6179 39.062 35.2009 35.5146C38.7838 31.9672 40.8077 27.153 40.83 22.1252C40.8434 19.6364 40.3618 17.1695 39.4126 14.8667C38.4634 12.5638 37.0654 10.4705 35.2993 8.70716C33.5317 6.93893 31.4303 5.53531 29.1156 4.57707C26.801 3.61882 24.3189 3.12488 21.8117 3.12337C18.4627 3.1171 15.1716 3.99248 12.273 5.66076C9.37445 7.32904 6.97144 9.7307 5.30854 12.6216C4.57694 13.8926 3.99437 15.2429 3.57204 16.6459C3.48561 16.9052 3.32012 17.1313 3.09847 17.2926C2.87682 17.454 2.60997 17.5426 2.33531 17.5461C2.19553 17.5369 2.05657 17.5175 1.91956 17.4884C1.74957 17.4432 1.59109 17.363 1.45422 17.253C1.31734 17.1431 1.20522 17.0058 1.12506 16.8501C0.960918 16.5508 0.921265 16.1994 1.01457 15.8714C1.86319 12.9992 3.32808 10.3441 5.30854 8.08955C5.66112 7.66043 6.05076 7.25754 6.4507 6.85459C8.47233 4.83728 10.8756 3.23818 13.5221 2.14955C16.1685 1.06092 19.0056 0.50426 21.8695 0.511876C24.7118 0.501043 27.5282 1.05046 30.1558 2.12834C32.7834 3.20623 35.1699 4.7912 37.1779 6.79173C41.2463 10.8475 43.5322 16.3418 43.5341 22.0705C43.5361 27.7992 41.254 33.2953 37.1884 37.3539Z" fill="#86E8B6"/>
</svg>
