<svg width="76" height="75" viewBox="0 0 76 75" fill="none" xmlns="http://www.w3.org/2000/svg">
<path d="M72.7161 61.7537L56.7024 45.8292C56.5812 45.7059 56.4362 45.608 56.2762 45.5415C56.1162 45.475 55.9444 45.4411 55.771 45.4418C55.5976 45.4413 55.4258 45.4752 55.2658 45.5417C55.1059 45.6083 54.961 45.7062 54.8395 45.8292L52.945 47.7079L50.0296 44.8033L50.2927 44.4581C54.6396 38.5311 56.4484 31.1332 55.3231 23.8832C54.1978 16.6333 50.2301 10.1219 44.2885 5.77424C39.5363 2.28019 33.7796 0.399501 27.8696 0.410202C22.8959 0.417327 18.0142 1.74501 13.7294 4.2564C12.8469 4.7717 11.9932 5.33434 11.1719 5.94161C10.4888 6.44512 9.8336 6.98485 9.20903 7.55859C9.08685 7.65227 8.97075 7.75369 8.86163 7.86215C8.06594 8.58731 7.31883 9.36345 6.6251 10.1857C6.19358 10.709 5.7778 11.1957 5.38838 11.7556C3.08903 14.8755 1.47537 18.4415 0.652191 22.222C0.557467 22.6198 0.489209 23.0227 0.415535 23.4205C-0.0852139 26.3633 -0.108249 29.3669 0.347186 32.3169C0.347186 32.4425 0.389223 32.5629 0.415535 32.6885C0.473422 33.1019 0.557467 33.5206 0.652191 33.9183C1.24189 36.6918 2.2648 39.3563 3.68348 41.8151C4.18673 42.7253 4.75304 43.5996 5.3781 44.4317C6.37046 45.7829 7.48914 47.0376 8.71953 48.1788C9.56717 48.9883 10.4673 49.7418 11.414 50.4343C11.5824 50.5547 11.7455 50.6804 11.9402 50.7903C16.6041 54.0504 22.1688 55.7945 27.8696 55.7828C33.7931 55.7969 39.564 53.9163 44.3303 50.4187L44.6777 50.1673L47.5986 53.0614L45.6935 54.9505C45.4523 55.1993 45.3176 55.5313 45.3176 55.8768C45.3176 56.2223 45.4523 56.5544 45.6935 56.8031L61.7228 72.733C62.4445 73.4532 63.3024 74.0244 64.2471 74.4133C65.1919 74.8022 66.2048 75.0012 67.2273 74.999C68.2524 75.003 69.2681 74.8048 70.2157 74.4159C71.1633 74.0269 72.0237 73.4549 72.7475 72.733C74.2067 71.2725 75.0233 69.2956 75.0174 67.2368C75.0115 65.178 74.1838 63.2058 72.7161 61.7537ZM27.7958 53.2393C21.1995 53.2532 14.8664 50.6679 10.1826 46.049L9.94572 45.8134C9.50368 45.3738 9.07221 44.9027 8.68279 44.4317C4.52642 39.6317 2.3472 33.4475 2.5814 27.1174C2.81561 20.7874 5.44589 14.7788 9.94572 10.2955C10.3772 9.86642 10.8351 9.44273 11.2929 9.05547C15.8677 5.09716 21.7319 2.92505 27.7958 2.94299C31.1128 2.93003 34.3995 3.57075 37.4661 4.82827C40.5326 6.0858 43.3182 7.93519 45.6619 10.2695C48.0169 12.6015 49.8835 15.3748 51.1535 18.429C52.4235 21.4831 53.0718 24.7574 53.0609 28.0624C53.0689 31.3607 52.4189 34.6279 51.1489 37.6748C49.8789 40.7218 48.014 43.4879 45.6619 45.8134C43.3324 48.1734 40.5518 50.0462 37.4835 51.3215C34.4153 52.5968 31.1213 53.2488 27.7958 53.2393ZM46.6776 48.4665L47.5248 47.666L48.3298 46.8235L53.324 51.7845C53.5441 52.0051 53.6676 52.3032 53.6676 52.614C53.6676 52.9247 53.5441 53.2229 53.324 53.4434C53.0983 53.6572 52.7988 53.7771 52.4871 53.7784C52.1807 53.7742 51.8875 53.6544 51.6664 53.4434L46.6776 48.4665ZM48.4719 55.8768L49.0665 55.2855L49.4299 54.9401L49.8035 55.2855C50.154 55.6348 50.5707 55.9114 51.0297 56.0991C51.4886 56.2869 51.9806 56.382 52.4768 56.3792C52.982 56.38 53.4821 56.2799 53.9476 56.0848C54.4132 55.8897 54.8346 55.6037 55.1869 55.2436C55.8842 54.5313 56.2744 53.5766 56.2744 52.5826C56.2744 51.5885 55.8842 50.6338 55.1869 49.9215L54.8239 49.5604L55.7867 48.6078L66.1959 58.9488L58.8863 66.2178L48.4719 55.8768ZM70.8532 70.8804C70.3742 71.3597 69.8041 71.7399 69.1763 71.9986C68.5485 72.2573 67.8753 72.3896 67.1957 72.3877C66.5187 72.3881 65.8484 72.255 65.2233 71.9963C64.5983 71.7376 64.031 71.3583 63.5541 70.8804L60.7336 68.0704L68.0323 60.8013L70.8532 63.6063C71.8218 64.5716 72.3656 65.8798 72.3656 67.2435C72.3656 68.6071 71.8218 69.915 70.8532 70.8804Z" fill="#86E8B6"/>
</svg>
