<svg width="18" height="15" viewBox="0 0 18 15" fill="none" xmlns="http://www.w3.org/2000/svg">
<path d="M0.812704 9.08003C0.931033 8.96183 1.07178 8.86806 1.22666 8.80406C1.38154 8.74006 1.54767 8.70722 1.71538 8.70722C1.8831 8.70722 2.04898 8.74006 2.20385 8.80406C2.35873 8.86806 2.49948 8.96183 2.61781 9.08003L4.19653 10.65C4.69647 11.1471 5.11216 11.6652 5.99624 10.65L15.5002 1.20415C15.7397 0.968305 16.063 0.835938 16.4001 0.835938C16.7371 0.835938 17.0605 0.968305 17.2999 1.20415C17.4188 1.32183 17.5131 1.46153 17.5774 1.61555C17.6418 1.76957 17.6751 1.93478 17.6751 2.10157C17.6751 2.26835 17.6418 2.43356 17.5774 2.58758C17.5131 2.7416 17.4188 2.88131 17.2999 2.99898L6.03838 14.2557C5.9205 14.3738 5.78041 14.4675 5.62597 14.5315C5.47153 14.5954 5.30581 14.6281 5.13853 14.6281C4.97124 14.6281 4.80553 14.5954 4.65109 14.5315C4.49665 14.4675 4.35655 14.3738 4.23868 14.2557L0.833775 10.8697C0.593788 10.6344 0.45691 10.3144 0.452968 9.97923C0.449027 9.64407 0.578319 9.3209 0.812704 9.08003Z" fill="#86E8B6" stroke="#52DE97" stroke-width="0.5" stroke-miterlimit="10"/>
</svg>
