<svg width="85" height="38" viewBox="0 0 85 38" fill="none" xmlns="http://www.w3.org/2000/svg">
<path d="M1.68284 37.7875C1.49705 37.7866 1.31349 37.7469 1.14401 37.6712C0.974529 37.5955 0.823072 37.4852 0.698966 37.3477C0.582784 37.2199 0.493563 37.0704 0.436615 36.9077C0.379667 36.745 0.355955 36.5727 0.367238 36.4008C0.376028 36.2293 0.41942 36.0614 0.49443 35.9068C0.56944 35.7522 0.674594 35.614 0.80406 35.5005L27.3742 11.9511C27.6161 11.7364 27.9287 11.6171 28.253 11.6161C28.4676 11.616 28.6789 11.6681 28.8686 11.7679L52.8759 24.3748L80.5509 3.78723L73.7414 2.61513C73.405 2.55015 73.107 2.35753 72.9107 2.07826C72.7143 1.79899 72.6348 1.45476 72.6889 1.11825C72.7378 0.811788 72.8951 0.532933 73.1324 0.331476C73.3697 0.130018 73.6714 0.0193849 73.9834 0.0194761C74.057 0.0143413 74.1308 0.0143413 74.2044 0.0194761L83.8821 1.68347C84.2243 1.73982 84.5306 1.92779 84.7347 2.20679C84.9351 2.49132 85.0145 2.84304 84.9557 3.18547L83.2821 12.8145C83.2322 13.1219 83.0741 13.4019 82.836 13.6041C82.598 13.8063 82.2955 13.9179 81.9824 13.9189C81.9019 13.9265 81.8209 13.9265 81.7404 13.9189C81.3993 13.8528 81.0977 13.6561 80.9009 13.3713C80.7041 13.0865 80.6277 12.7363 80.6879 12.396L81.7771 6.14754L53.7968 26.96C53.5695 27.1306 53.2922 27.2224 53.0075 27.2217C52.7929 27.2218 52.5815 27.1697 52.3918 27.0699L28.4583 14.5102L2.56703 37.4735C2.3217 37.6836 2.0065 37.7955 1.68284 37.7875Z" fill="#86E8B6"/>
</svg>
