<svg width="25" height="16" viewBox="0 0 25 16" fill="none" xmlns="http://www.w3.org/2000/svg">
<path d="M5.55968 6.35703C5.66574 4.57019 6.31691 3.15382 7.45152 2.24654C8.37589 1.5415 9.50481 1.17327 10.658 1.20064C12.8902 1.20064 14.1457 3.10846 14.6587 4.13419C15.2338 3.79535 15.8818 3.6068 16.5453 3.58525C17.2088 3.56371 17.8672 3.70985 18.4622 4.0107C20.3515 4.91042 20.5562 6.76027 20.5562 7.68519C21.4306 7.8764 22.2125 8.37258 22.7679 9.08858C23.3233 9.80458 23.6175 10.6958 23.6 11.6092C23.612 12.0743 23.5269 12.5367 23.3504 12.9656C23.1739 13.3945 22.91 13.7801 22.5763 14.0967C21.9307 14.6887 21.0907 15.0108 20.2233 14.9989H5.14283C3.8479 14.9661 1.40109 14.021 1.40109 10.6767C1.39369 7.92965 3.48779 6.65694 5.55968 6.35703Z" stroke="#13115B" stroke-miterlimit="10"/>
</svg>
