<svg width="137" height="58" viewBox="0 0 137 58" fill="none" xmlns="http://www.w3.org/2000/svg">
<path d="M10 12.635V11.224H13.196V23.515H11.632V12.635H10Z" fill="#212935"/>
<path d="M15.6663 22.274C17.1056 21.118 18.2333 20.1717 19.0493 19.435C19.8653 18.687 20.551 17.9107 21.1063 17.106C21.673 16.29 21.9563 15.491 21.9563 14.709C21.9563 13.9723 21.775 13.3943 21.4123 12.975C21.061 12.5443 20.4886 12.329 19.6953 12.329C18.9246 12.329 18.324 12.5727 17.8933 13.06C17.474 13.536 17.2473 14.1763 17.2133 14.981H15.7173C15.7626 13.7117 16.148 12.7313 16.8733 12.04C17.5986 11.3487 18.5336 11.003 19.6783 11.003C20.8456 11.003 21.7693 11.326 22.4493 11.972C23.1406 12.618 23.4863 13.5077 23.4863 14.641C23.4863 15.5817 23.203 16.4997 22.6363 17.395C22.081 18.279 21.4463 19.061 20.7323 19.741C20.0183 20.4097 19.106 21.1917 17.9953 22.087H23.8433V23.379H15.6663V22.274Z" fill="#212935"/>
<path d="M26.3796 23.617C26.085 23.617 25.8356 23.515 25.6316 23.311C25.4276 23.107 25.3256 22.8577 25.3256 22.563C25.3256 22.2683 25.4276 22.019 25.6316 21.815C25.8356 21.611 26.085 21.509 26.3796 21.509C26.663 21.509 26.901 21.611 27.0936 21.815C27.2976 22.019 27.3996 22.2683 27.3996 22.563C27.3996 22.8577 27.2976 23.107 27.0936 23.311C26.901 23.515 26.663 23.617 26.3796 23.617ZM26.3796 16.341C26.085 16.341 25.8356 16.239 25.6316 16.035C25.4276 15.831 25.3256 15.5817 25.3256 15.287C25.3256 14.9923 25.4276 14.743 25.6316 14.539C25.8356 14.335 26.085 14.233 26.3796 14.233C26.663 14.233 26.901 14.335 27.0936 14.539C27.2976 14.743 27.3996 14.9923 27.3996 15.287C27.3996 15.5817 27.2976 15.831 27.0936 16.035C26.901 16.239 26.663 16.341 26.3796 16.341Z" fill="#212935"/>
<path d="M28.8768 20.778V19.605L34.8438 11.343H36.6968V19.435H38.3968V20.778H36.6968V23.515H35.1668V20.778H28.8768ZM35.2348 12.958L30.6618 19.435H35.2348V12.958Z" fill="#212935"/>
<path d="M47.7792 12.567H41.8122V16.443C42.0728 16.0803 42.4582 15.7857 42.9682 15.559C43.4782 15.321 44.0278 15.202 44.6172 15.202C45.5578 15.202 46.3228 15.4003 46.9122 15.797C47.5015 16.1823 47.9208 16.6867 48.1702 17.31C48.4308 17.922 48.5612 18.5737 48.5612 19.265C48.5612 20.081 48.4082 20.812 48.1022 21.458C47.7962 22.104 47.3258 22.614 46.6912 22.988C46.0678 23.362 45.2915 23.549 44.3622 23.549C43.1722 23.549 42.2088 23.243 41.4722 22.631C40.7355 22.019 40.2878 21.203 40.1292 20.183H41.6422C41.7895 20.829 42.1012 21.3333 42.5772 21.696C43.0532 22.0587 43.6538 22.24 44.3792 22.24C45.2745 22.24 45.9488 21.9737 46.4022 21.441C46.8555 20.897 47.0822 20.183 47.0822 19.299C47.0822 18.415 46.8555 17.735 46.4022 17.259C45.9488 16.7717 45.2802 16.528 44.3962 16.528C43.7955 16.528 43.2685 16.6753 42.8152 16.97C42.3732 17.2533 42.0502 17.6443 41.8462 18.143H40.3842V11.207H47.7792V12.567Z" fill="#212935"/>
<path d="M57.3422 25.317H55.7952V10H57.3422V25.317Z" fill="#212935"/>
<path d="M64.2207 12.635V11.224H67.4167V23.515H65.8527V12.635H64.2207Z" fill="#212935"/>
<path d="M77.639 12.431L72.913 23.515H71.349L76.143 12.584H69.581V11.258H77.639V12.431Z" fill="#212935"/>
<path d="M84.9745 12.686C84.6798 12.686 84.4305 12.584 84.2265 12.38C84.0338 12.176 83.9375 11.9267 83.9375 11.632C83.9375 11.3373 84.0338 11.088 84.2265 10.884C84.4305 10.68 84.6798 10.578 84.9745 10.578C85.2692 10.578 85.5128 10.68 85.7055 10.884C85.9095 11.088 86.0115 11.3373 86.0115 11.632C86.0115 11.9267 85.9095 12.176 85.7055 12.38C85.5128 12.584 85.2692 12.686 84.9745 12.686ZM85.7395 25.538C85.7395 26.3653 85.5298 26.9717 85.1105 27.357C84.6912 27.7423 84.0792 27.935 83.2745 27.935H82.3735V26.626H83.0195C83.4502 26.626 83.7505 26.541 83.9205 26.371C84.1018 26.201 84.1925 25.912 84.1925 25.504V14.199H85.7395V25.538Z" fill="#212935"/>
<path d="M96.6203 14.199V23.515H95.0733V22.138C94.7786 22.614 94.365 22.988 93.8323 23.26C93.311 23.5207 92.733 23.651 92.0983 23.651C91.373 23.651 90.7213 23.5037 90.1433 23.209C89.5653 22.903 89.1063 22.4497 88.7663 21.849C88.4376 21.2483 88.2733 20.5173 88.2733 19.656V14.199H89.8033V19.452C89.8033 20.37 90.0356 21.0783 90.5003 21.577C90.965 22.0643 91.5996 22.308 92.4043 22.308C93.2316 22.308 93.8833 22.053 94.3593 21.543C94.8353 21.033 95.0733 20.2907 95.0733 19.316V14.199H96.6203Z" fill="#212935"/>
<path d="M103.771 14.029C104.905 14.029 105.823 14.3747 106.525 15.066C107.228 15.746 107.579 16.732 107.579 18.024V23.515H106.049V18.245C106.049 17.3157 105.817 16.6073 105.352 16.12C104.888 15.6213 104.253 15.372 103.448 15.372C102.632 15.372 101.981 15.627 101.493 16.137C101.017 16.647 100.779 17.3893 100.779 18.364V23.515H99.2323V14.199H100.779V15.525C101.085 15.049 101.499 14.6807 102.02 14.42C102.553 14.1593 103.137 14.029 103.771 14.029Z" fill="#212935"/>
<path d="M114.197 22.274C115.636 21.118 116.764 20.1717 117.58 19.435C118.396 18.687 119.081 17.9107 119.637 17.106C120.203 16.29 120.487 15.491 120.487 14.709C120.487 13.9723 120.305 13.3943 119.943 12.975C119.591 12.5443 119.019 12.329 118.226 12.329C117.455 12.329 116.854 12.5727 116.424 13.06C116.004 13.536 115.778 14.1763 115.744 14.981H114.248C114.293 13.7117 114.678 12.7313 115.404 12.04C116.129 11.3487 117.064 11.003 118.209 11.003C119.376 11.003 120.3 11.326 120.98 11.972C121.671 12.618 122.017 13.5077 122.017 14.641C122.017 15.5817 121.733 16.4997 121.167 17.395C120.611 18.279 119.977 19.061 119.263 19.741C118.549 20.4097 117.636 21.1917 116.526 22.087H122.374V23.379H114.197V22.274Z" fill="#212935"/>
<path d="M123.754 12.635V11.224H126.95V23.515H125.386V12.635H123.754Z" fill="#212935"/>
<path d="M13.708 47.119C12.812 46.2417 12.112 45.1263 11.608 43.773C11.1133 42.4197 10.866 40.959 10.866 39.391C10.866 37.7857 11.1273 36.2877 11.65 34.897C12.182 33.497 12.938 32.3443 13.918 31.439H15.248V31.565C14.2027 32.545 13.414 33.7257 12.882 35.107C12.3593 36.479 12.098 37.907 12.098 39.391C12.098 40.8377 12.3453 42.219 12.84 43.535C13.344 44.851 14.0767 46.0037 15.038 46.993V47.119H13.708Z" fill="#212935"/>
<path d="M16.3134 40.651C16.3134 39.867 16.4721 39.181 16.7894 38.593C17.1068 37.9957 17.5408 37.5337 18.0914 37.207C18.6514 36.8803 19.2768 36.717 19.9674 36.717C20.5648 36.717 21.1201 36.857 21.6334 37.137C22.1468 37.4077 22.5388 37.767 22.8094 38.215V34.155H24.0974V44.515H22.8094V43.073C22.5574 43.5303 22.1841 43.9083 21.6894 44.207C21.1948 44.4963 20.6161 44.641 19.9534 44.641C19.2721 44.641 18.6514 44.473 18.0914 44.137C17.5408 43.801 17.1068 43.3297 16.7894 42.723C16.4721 42.1163 16.3134 41.4257 16.3134 40.651ZM22.8094 40.665C22.8094 40.0863 22.6928 39.5823 22.4594 39.153C22.2261 38.7237 21.9088 38.397 21.5074 38.173C21.1154 37.9397 20.6814 37.823 20.2054 37.823C19.7294 37.823 19.2954 37.935 18.9034 38.159C18.5114 38.383 18.1988 38.7097 17.9654 39.139C17.7321 39.5683 17.6154 40.0723 17.6154 40.651C17.6154 41.239 17.7321 41.7523 17.9654 42.191C18.1988 42.6203 18.5114 42.9517 18.9034 43.185C19.2954 43.409 19.7294 43.521 20.2054 43.521C20.6814 43.521 21.1154 43.409 21.5074 43.185C21.9088 42.9517 22.2261 42.6203 22.4594 42.191C22.6928 41.7523 22.8094 41.2437 22.8094 40.665Z" fill="#212935"/>
<path d="M25.7744 40.651C25.7744 39.867 25.933 39.181 26.2504 38.593C26.5677 37.9957 27.0017 37.5337 27.5524 37.207C28.1124 36.8803 28.733 36.717 29.4144 36.717C30.0864 36.717 30.6697 36.8617 31.1644 37.151C31.659 37.4403 32.0277 37.8043 32.2704 38.243V36.843H33.5584V44.515H32.2704V43.087C32.0184 43.535 31.6404 43.9083 31.1364 44.207C30.6417 44.4963 30.063 44.641 29.4004 44.641C28.719 44.641 28.103 44.473 27.5524 44.137C27.0017 43.801 26.5677 43.3297 26.2504 42.723C25.933 42.1163 25.7744 41.4257 25.7744 40.651ZM32.2704 40.665C32.2704 40.0863 32.1537 39.5823 31.9204 39.153C31.687 38.7237 31.3697 38.397 30.9684 38.173C30.5764 37.9397 30.1424 37.823 29.6664 37.823C29.1904 37.823 28.7564 37.935 28.3644 38.159C27.9724 38.383 27.6597 38.7097 27.4264 39.139C27.193 39.5683 27.0764 40.0723 27.0764 40.651C27.0764 41.239 27.193 41.7523 27.4264 42.191C27.6597 42.6203 27.9724 42.9517 28.3644 43.185C28.7564 43.409 29.1904 43.521 29.6664 43.521C30.1424 43.521 30.5764 43.409 30.9684 43.185C31.3697 42.9517 31.687 42.6203 31.9204 42.191C32.1537 41.7523 32.2704 41.2437 32.2704 40.665Z" fill="#212935"/>
<path d="M38.5673 43.339L40.9473 36.843H42.3053L39.2953 44.515H37.8113L34.8013 36.843H36.1733L38.5673 43.339Z" fill="#212935"/>
<path d="M44.217 35.597C43.9743 35.597 43.769 35.513 43.601 35.345C43.433 35.177 43.349 34.9717 43.349 34.729C43.349 34.4863 43.433 34.281 43.601 34.113C43.769 33.945 43.9743 33.861 44.217 33.861C44.4503 33.861 44.6463 33.945 44.805 34.113C44.973 34.281 45.057 34.4863 45.057 34.729C45.057 34.9717 44.973 35.177 44.805 35.345C44.6463 35.513 44.4503 35.597 44.217 35.597ZM44.833 36.843V44.515H43.559V36.843H44.833Z" fill="#212935"/>
<path d="M46.5283 40.651C46.5283 39.867 46.6869 39.181 47.0043 38.593C47.3216 37.9957 47.7556 37.5337 48.3063 37.207C48.8663 36.8803 49.4916 36.717 50.1823 36.717C50.7796 36.717 51.3349 36.857 51.8483 37.137C52.3616 37.4077 52.7536 37.767 53.0243 38.215V34.155H54.3123V44.515H53.0243V43.073C52.7723 43.5303 52.3989 43.9083 51.9043 44.207C51.4096 44.4963 50.8309 44.641 50.1683 44.641C49.4869 44.641 48.8663 44.473 48.3063 44.137C47.7556 43.801 47.3216 43.3297 47.0043 42.723C46.6869 42.1163 46.5283 41.4257 46.5283 40.651ZM53.0243 40.665C53.0243 40.0863 52.9076 39.5823 52.6743 39.153C52.4409 38.7237 52.1236 38.397 51.7223 38.173C51.3303 37.9397 50.8963 37.823 50.4203 37.823C49.9443 37.823 49.5103 37.935 49.1183 38.159C48.7263 38.383 48.4136 38.7097 48.1803 39.139C47.9469 39.5683 47.8303 40.0723 47.8303 40.651C47.8303 41.239 47.9469 41.7523 48.1803 42.191C48.4136 42.6203 48.7263 42.9517 49.1183 43.185C49.5103 43.409 49.9443 43.521 50.4203 43.521C50.8963 43.521 51.3303 43.409 51.7223 43.185C52.1236 42.9517 52.4409 42.6203 52.6743 42.191C52.9076 41.7523 53.0243 41.2437 53.0243 40.665Z" fill="#212935"/>
<path d="M61.4716 38.089C61.6956 37.6503 62.013 37.3097 62.4236 37.067C62.8436 36.8243 63.3523 36.703 63.9496 36.703V38.019H63.6136C62.1856 38.019 61.4716 38.7937 61.4716 40.343V44.515H60.1976V36.843H61.4716V38.089Z" fill="#212935"/>
<path d="M65.8263 44.599C65.5836 44.599 65.3783 44.515 65.2103 44.347C65.0423 44.179 64.9583 43.9737 64.9583 43.731C64.9583 43.4883 65.0423 43.283 65.2103 43.115C65.3783 42.947 65.5836 42.863 65.8263 42.863C66.0596 42.863 66.2556 42.947 66.4143 43.115C66.5823 43.283 66.6663 43.4883 66.6663 43.731C66.6663 43.9737 66.5823 44.179 66.4143 44.347C66.2556 44.515 66.0596 44.599 65.8263 44.599Z" fill="#212935"/>
<path d="M71.6862 47.119V46.993C72.6475 46.0037 73.3755 44.851 73.8702 43.535C74.3742 42.219 74.6262 40.8377 74.6262 39.391C74.6262 37.907 74.3602 36.479 73.8282 35.107C73.3055 33.7257 72.5215 32.545 71.4762 31.565V31.439H72.8062C73.7862 32.3443 74.5375 33.497 75.0602 34.897C75.5921 36.2877 75.8582 37.7857 75.8582 39.391C75.8582 40.959 75.6061 42.4197 75.1021 43.773C74.6075 45.1263 73.9122 46.2417 73.0162 47.119H71.6862Z" fill="#212935"/>
</svg>
