<svg width="126" height="46" viewBox="0 0 126 46" fill="none" xmlns="http://www.w3.org/2000/svg">
<path d="M17.23 31.89C15.85 31.89 14.61 31.65 13.51 31.17C12.43 30.67 11.58 29.99 10.96 29.13C10.34 28.25 10.02 27.24 10 26.1H12.91C13.01 27.08 13.41 27.91 14.11 28.59C14.83 29.25 15.87 29.58 17.23 29.58C18.53 29.58 19.55 29.26 20.29 28.62C21.05 27.96 21.43 27.12 21.43 26.1C21.43 25.3 21.21 24.65 20.77 24.15C20.33 23.65 19.78 23.27 19.12 23.01C18.46 22.75 17.57 22.47 16.45 22.17C15.07 21.81 13.96 21.45 13.12 21.09C12.3 20.73 11.59 20.17 10.99 19.41C10.41 18.63 10.12 17.59 10.12 16.29C10.12 15.15 10.41 14.14 10.99 13.26C11.57 12.38 12.38 11.7 13.42 11.22C14.48 10.74 15.69 10.5 17.05 10.5C19.01 10.5 20.61 10.99 21.85 11.97C23.11 12.95 23.82 14.25 23.98 15.87H20.98C20.88 15.07 20.46 14.37 19.72 13.77C18.98 13.15 18 12.84 16.78 12.84C15.64 12.84 14.71 13.14 13.99 13.74C13.27 14.32 12.91 15.14 12.91 16.2C12.91 16.96 13.12 17.58 13.54 18.06C13.98 18.54 14.51 18.91 15.13 19.17C15.77 19.41 16.66 19.69 17.8 20.01C19.18 20.39 20.29 20.77 21.13 21.15C21.97 21.51 22.69 22.08 23.29 22.86C23.89 23.62 24.19 24.66 24.19 25.98C24.19 27 23.92 27.96 23.38 28.86C22.84 29.76 22.04 30.49 20.98 31.05C19.92 31.61 18.67 31.89 17.23 31.89Z" fill="#212935"/>
<path d="M44.0474 16.83C43.4674 15.61 42.6274 14.67 41.5274 14.01C40.4274 13.33 39.1474 12.99 37.6874 12.99C36.2274 12.99 34.9074 13.33 33.7274 14.01C32.5674 14.67 31.6474 15.63 30.9674 16.89C30.3074 18.13 29.9774 19.57 29.9774 21.21C29.9774 22.85 30.3074 24.29 30.9674 25.53C31.6474 26.77 32.5674 27.73 33.7274 28.41C34.9074 29.07 36.2274 29.4 37.6874 29.4C39.7274 29.4 41.4074 28.79 42.7274 27.57C44.0474 26.35 44.8174 24.7 45.0374 22.62H36.6974V20.4H47.9474V22.5C47.7874 24.22 47.2474 25.8 46.3274 27.24C45.4074 28.66 44.1974 29.79 42.6974 30.63C41.1974 31.45 39.5274 31.86 37.6874 31.86C35.7474 31.86 33.9774 31.41 32.3774 30.51C30.7774 29.59 29.5074 28.32 28.5674 26.7C27.6474 25.08 27.1874 23.25 27.1874 21.21C27.1874 19.17 27.6474 17.34 28.5674 15.72C29.5074 14.08 30.7774 12.81 32.3774 11.91C33.9774 10.99 35.7474 10.53 37.6874 10.53C39.9074 10.53 41.8674 11.08 43.5674 12.18C45.2874 13.28 46.5374 14.83 47.3174 16.83H44.0474Z" fill="#212935"/>
<path d="M68.357 32.82V35.34H52.397V32.82H68.357Z" fill="#212935"/>
<path d="M85.919 27.03H76.799L75.119 31.68H72.239L79.799 10.89H82.949L90.479 31.68H87.599L85.919 27.03ZM85.139 24.81L81.359 14.25L77.579 24.81H85.139Z" fill="#212935"/>
<path d="M102.324 21.24L108.744 31.68H105.654L100.644 23.52L95.8738 31.68H92.8438L99.2338 21.24L92.8138 10.77H95.8738L100.914 18.96L105.714 10.77H108.774L102.324 21.24Z" fill="#212935"/>
<path d="M115.137 10.77V31.68H112.407V10.77H115.137Z" fill="#212935"/>
</svg>
