<svg width="90" height="11" viewBox="0 0 90 11" fill="none" xmlns="http://www.w3.org/2000/svg">
<g clip-path="url(#clip0_44_21169)">
<path d="M5.5 10.2143C4.5676 10.2143 3.65614 9.93781 2.88088 9.41979C2.10562 8.90178 1.50138 8.16551 1.14457 7.30409C0.787755 6.44266 0.6944 5.49478 0.876302 4.5803C1.0582 3.66581 1.50719 2.8258 2.16649 2.16649C2.8258 1.50719 3.6658 1.0582 4.58028 0.876303C5.49476 0.694401 6.44265 0.787757 7.30408 1.14457C8.1655 1.50138 8.90177 2.10561 9.41978 2.88087C9.93779 3.65613 10.2143 4.5676 10.2143 5.5C10.2143 6.75031 9.71761 7.94941 8.83351 8.83351C7.94941 9.71761 6.7503 10.2143 5.5 10.2143ZM5.5 11C6.5878 11 7.65116 10.6774 8.55564 10.0731C9.46011 9.46873 10.1651 8.60974 10.5813 7.60475C10.9976 6.59976 11.1065 5.4939 10.8943 4.427C10.6821 3.36011 10.1583 2.38011 9.38909 1.61092C8.6199 0.841732 7.63989 0.31789 6.573 0.105671C5.5061 -0.106548 4.40023 0.00237503 3.39524 0.418658C2.39024 0.834939 1.53127 1.5399 0.92692 2.44437C0.322572 3.34884 -1.33143e-06 4.4122 -1.42652e-06 5.5C-1.55405e-06 6.95869 0.579457 8.35763 1.61091 9.38908C2.64236 10.4205 4.04131 11 5.5 11Z" fill="#FF3C78"/>
<path fill-rule="evenodd" clip-rule="evenodd" d="M5 8.64258L5 7.85686L6 7.85686L6 8.64258L5 8.64258ZM5 7.07115L5 2.35686L6 2.35686L6 7.07115L5 7.07115Z" fill="#FF3C78"/>
</g>
<path d="M15.736 0.536C16.344 0.536 16.8693 0.650667 17.312 0.88C17.76 1.104 18.1013 1.42667 18.336 1.848C18.576 2.26933 18.696 2.76533 18.696 3.336C18.696 3.90667 18.576 4.40267 18.336 4.824C18.1013 5.24 17.76 5.56 17.312 5.784C16.8693 6.00267 16.344 6.112 15.736 6.112H14V0.536H15.736ZM15.736 5.512C16.456 5.512 17.0053 5.32267 17.384 4.944C17.7627 4.56 17.952 4.024 17.952 3.336C17.952 2.64267 17.76 2.10133 17.376 1.712C16.9973 1.32267 16.4507 1.128 15.736 1.128H14.728V5.512H15.736Z" fill="#FF3C78"/>
<path d="M19.3842 3.904C19.3842 3.456 19.4749 3.064 19.6562 2.728C19.8376 2.38667 20.0856 2.12267 20.4002 1.936C20.7203 1.74933 21.0749 1.656 21.4642 1.656C21.8482 1.656 22.1816 1.73867 22.4642 1.904C22.7469 2.06933 22.9576 2.27733 23.0962 2.528V1.728H23.8322V6.112H23.0962V5.296C22.9522 5.552 22.7362 5.76533 22.4482 5.936C22.1656 6.10133 21.8349 6.184 21.4563 6.184C21.0669 6.184 20.7149 6.088 20.4002 5.896C20.0856 5.704 19.8376 5.43467 19.6562 5.088C19.4749 4.74133 19.3842 4.34667 19.3842 3.904ZM23.0962 3.912C23.0962 3.58133 23.0296 3.29333 22.8962 3.048C22.7629 2.80267 22.5816 2.616 22.3523 2.488C22.1283 2.35467 21.8802 2.288 21.6082 2.288C21.3362 2.288 21.0883 2.352 20.8643 2.48C20.6403 2.608 20.4616 2.79467 20.3282 3.04C20.1949 3.28533 20.1283 3.57333 20.1283 3.904C20.1283 4.24 20.1949 4.53333 20.3282 4.784C20.4616 5.02933 20.6403 5.21867 20.8643 5.352C21.0883 5.48 21.3362 5.544 21.6082 5.544C21.8802 5.544 22.1283 5.48 22.3523 5.352C22.5816 5.21867 22.7629 5.02933 22.8962 4.784C23.0296 4.53333 23.0962 4.24267 23.0962 3.912Z" fill="#FF3C78"/>
<path d="M25.9505 2.328V4.912C25.9505 5.12533 25.9958 5.27733 26.0865 5.368C26.1772 5.45333 26.3345 5.496 26.5585 5.496H27.0945V6.112H26.4385C26.0332 6.112 25.7292 6.01867 25.5265 5.832C25.3238 5.64533 25.2225 5.33867 25.2225 4.912V2.328H24.6545V1.728H25.2225V0.624H25.9505V1.728H27.0945V2.328H25.9505Z" fill="#FF3C78"/>
<path d="M27.7046 3.904C27.7046 3.456 27.7952 3.064 27.9766 2.728C28.1579 2.38667 28.4059 2.12267 28.7206 1.936C29.0406 1.74933 29.3952 1.656 29.7846 1.656C30.1686 1.656 30.5019 1.73867 30.7846 1.904C31.0672 2.06933 31.2779 2.27733 31.4166 2.528V1.728H32.1526V6.112H31.4166V5.296C31.2726 5.552 31.0566 5.76533 30.7686 5.936C30.4859 6.10133 30.1552 6.184 29.7766 6.184C29.3872 6.184 29.0352 6.088 28.7206 5.896C28.4059 5.704 28.1579 5.43467 27.9766 5.088C27.7952 4.74133 27.7046 4.34667 27.7046 3.904ZM31.4166 3.912C31.4166 3.58133 31.3499 3.29333 31.2166 3.048C31.0832 2.80267 30.9019 2.616 30.6726 2.488C30.4486 2.35467 30.2006 2.288 29.9286 2.288C29.6566 2.288 29.4086 2.352 29.1846 2.48C28.9606 2.608 28.7819 2.79467 28.6486 3.04C28.5152 3.28533 28.4486 3.57333 28.4486 3.904C28.4486 4.24 28.5152 4.53333 28.6486 4.784C28.7819 5.02933 28.9606 5.21867 29.1846 5.352C29.4086 5.48 29.6566 5.544 29.9286 5.544C30.2006 5.544 30.4486 5.48 30.6726 5.352C30.9019 5.21867 31.0832 5.02933 31.2166 4.784C31.3499 4.53333 31.4166 4.24267 31.4166 3.912Z" fill="#FF3C78"/>
<path d="M37.2516 0.536C37.8596 0.536 38.385 0.650667 38.8276 0.88C39.2756 1.104 39.617 1.42667 39.8516 1.848C40.0916 2.26933 40.2116 2.76533 40.2116 3.336C40.2116 3.90667 40.0916 4.40267 39.8516 4.824C39.617 5.24 39.2756 5.56 38.8276 5.784C38.385 6.00267 37.8596 6.112 37.2516 6.112H35.5156V0.536H37.2516ZM37.2516 5.512C37.9716 5.512 38.521 5.32267 38.8996 4.944C39.2783 4.56 39.4676 4.024 39.4676 3.336C39.4676 2.64267 39.2756 2.10133 38.8916 1.712C38.513 1.32267 37.9663 1.128 37.2516 1.128H36.2436V5.512H37.2516Z" fill="#FF3C78"/>
<path d="M41.8999 2.44C42.0279 2.18933 42.2092 1.99467 42.4439 1.856C42.6839 1.71733 42.9745 1.648 43.3159 1.648V2.4H43.1239C42.3079 2.4 41.8999 2.84267 41.8999 3.728V6.112H41.1719V1.728H41.8999V2.44Z" fill="#FF3C78"/>
<path d="M44.5323 1.016C44.3936 1.016 44.2763 0.968 44.1803 0.872C44.0842 0.776 44.0363 0.658667 44.0363 0.52C44.0363 0.381334 44.0842 0.264 44.1803 0.168C44.2763 0.0720002 44.3936 0.0240002 44.5323 0.0240002C44.6656 0.0240002 44.7776 0.0720002 44.8682 0.168C44.9643 0.264 45.0123 0.381334 45.0123 0.52C45.0123 0.658667 44.9643 0.776 44.8682 0.872C44.7776 0.968 44.6656 1.016 44.5323 1.016ZM44.8843 1.728V6.112H44.1562V1.728H44.8843Z" fill="#FF3C78"/>
<path d="M47.909 2.328H46.989V6.112H46.261V2.328H45.693V1.728H46.261V1.416C46.261 0.925334 46.3863 0.568 46.637 0.344C46.893 0.114667 47.301 0 47.861 0V0.608C47.541 0.608 47.3143 0.672 47.181 0.8C47.053 0.922667 46.989 1.128 46.989 1.416V1.728H47.909V2.328Z" fill="#FF3C78"/>
<path d="M49.6458 2.328V4.912C49.6458 5.12533 49.6911 5.27733 49.7818 5.368C49.8725 5.45333 50.0298 5.496 50.2538 5.496H50.7898V6.112H50.1338C49.7285 6.112 49.4245 6.01867 49.2218 5.832C49.0191 5.64533 48.9178 5.33867 48.9178 4.912V2.328H48.3498V1.728H48.9178V0.624H49.6458V1.728H50.7898V2.328H49.6458Z" fill="#FF3C78"/>
<path d="M55.5407 0.536C56.1487 0.536 56.674 0.650667 57.1167 0.88C57.5647 1.104 57.906 1.42667 58.1407 1.848C58.3807 2.26933 58.5007 2.76533 58.5007 3.336C58.5007 3.90667 58.3807 4.40267 58.1407 4.824C57.906 5.24 57.5647 5.56 57.1167 5.784C56.674 6.00267 56.1487 6.112 55.5407 6.112H53.8047V0.536H55.5407ZM55.5407 5.512C56.2607 5.512 56.81 5.32267 57.1887 4.944C57.5674 4.56 57.7567 4.024 57.7567 3.336C57.7567 2.64267 57.5647 2.10133 57.1807 1.712C56.802 1.32267 56.2554 1.128 55.5407 1.128H54.5327V5.512H55.5407Z" fill="#FF3C78"/>
<path d="M63.4609 3.752C63.4609 3.89067 63.4529 4.03733 63.4369 4.192H59.9329C59.9596 4.624 60.1063 4.96267 60.3729 5.208C60.6449 5.448 60.9729 5.568 61.3569 5.568C61.6716 5.568 61.9329 5.496 62.1409 5.352C62.3543 5.20267 62.5036 5.00533 62.5889 4.76H63.3729C63.2556 5.18133 63.0209 5.52533 62.6689 5.792C62.3169 6.05333 61.8796 6.184 61.3569 6.184C60.9409 6.184 60.5676 6.09067 60.2369 5.904C59.9116 5.71733 59.6556 5.45333 59.4689 5.112C59.2823 4.76533 59.1889 4.36533 59.1889 3.912C59.1889 3.45867 59.2796 3.06133 59.4609 2.72C59.6423 2.37867 59.8956 2.11733 60.2209 1.936C60.5516 1.74933 60.9303 1.656 61.3569 1.656C61.7729 1.656 62.1409 1.74667 62.4609 1.928C62.7809 2.10933 63.0263 2.36 63.1969 2.68C63.3729 2.99467 63.4609 3.352 63.4609 3.752ZM62.7089 3.6C62.7089 3.32267 62.6476 3.08533 62.5249 2.888C62.4023 2.68533 62.2343 2.53333 62.0209 2.432C61.8129 2.32533 61.5809 2.272 61.3249 2.272C60.9569 2.272 60.6423 2.38933 60.3809 2.624C60.1249 2.85867 59.9783 3.184 59.9409 3.6H62.7089Z" fill="#FF3C78"/>
<path d="M65.3099 2.328V4.912C65.3099 5.12533 65.3552 5.27733 65.4459 5.368C65.5365 5.45333 65.6939 5.496 65.9179 5.496H66.4539V6.112H65.7979C65.3925 6.112 65.0885 6.01867 64.8859 5.832C64.6832 5.64533 64.5819 5.33867 64.5819 4.912V2.328H64.0139V1.728H64.5819V0.624H65.3099V1.728H66.4539V2.328H65.3099Z" fill="#FF3C78"/>
<path d="M71.3359 3.752C71.3359 3.89067 71.3279 4.03733 71.3119 4.192H67.8079C67.8346 4.624 67.9813 4.96267 68.2479 5.208C68.5199 5.448 68.8479 5.568 69.2319 5.568C69.5466 5.568 69.8079 5.496 70.0159 5.352C70.2293 5.20267 70.3786 5.00533 70.4639 4.76H71.2479C71.1306 5.18133 70.8959 5.52533 70.5439 5.792C70.1919 6.05333 69.7546 6.184 69.2319 6.184C68.8159 6.184 68.4426 6.09067 68.1119 5.904C67.7866 5.71733 67.5306 5.45333 67.3439 5.112C67.1573 4.76533 67.0639 4.36533 67.0639 3.912C67.0639 3.45867 67.1546 3.06133 67.3359 2.72C67.5173 2.37867 67.7706 2.11733 68.0959 1.936C68.4266 1.74933 68.8053 1.656 69.2319 1.656C69.6479 1.656 70.0159 1.74667 70.3359 1.928C70.6559 2.10933 70.9013 2.36 71.0719 2.68C71.2479 2.99467 71.3359 3.352 71.3359 3.752ZM70.5839 3.6C70.5839 3.32267 70.5226 3.08533 70.3999 2.888C70.2773 2.68533 70.1093 2.53333 69.8959 2.432C69.6879 2.32533 69.4559 2.272 69.1999 2.272C68.8319 2.272 68.5173 2.38933 68.2559 2.624C67.9999 2.85867 67.8533 3.184 67.8159 3.6H70.5839Z" fill="#FF3C78"/>
<path d="M72.0249 3.912C72.0249 3.45867 72.1155 3.064 72.2969 2.728C72.4782 2.38667 72.7289 2.12267 73.0489 1.936C73.3742 1.74933 73.7449 1.656 74.1609 1.656C74.6995 1.656 75.1422 1.78667 75.4889 2.048C75.8409 2.30933 76.0729 2.672 76.1849 3.136H75.4009C75.3262 2.86933 75.1795 2.65867 74.9609 2.504C74.7475 2.34933 74.4809 2.272 74.1609 2.272C73.7449 2.272 73.4089 2.416 73.1529 2.704C72.8969 2.98667 72.7689 3.38933 72.7689 3.912C72.7689 4.44 72.8969 4.848 73.1529 5.136C73.4089 5.424 73.7449 5.568 74.1609 5.568C74.4809 5.568 74.7475 5.49333 74.9609 5.344C75.1742 5.19467 75.3209 4.98133 75.4009 4.704H76.1849C76.0675 5.152 75.8329 5.512 75.4809 5.784C75.1289 6.05067 74.6889 6.184 74.1609 6.184C73.7449 6.184 73.3742 6.09067 73.0489 5.904C72.7289 5.71733 72.4782 5.45333 72.2969 5.112C72.1155 4.77067 72.0249 4.37067 72.0249 3.912Z" fill="#FF3C78"/>
<path d="M78.0443 2.328V4.912C78.0443 5.12533 78.0896 5.27733 78.1803 5.368C78.2709 5.45333 78.4283 5.496 78.6523 5.496H79.1883V6.112H78.5322C78.1269 6.112 77.8229 6.01867 77.6203 5.832C77.4176 5.64533 77.3162 5.33867 77.3162 4.912V2.328H76.7482V1.728H77.3162V0.624H78.0443V1.728H79.1883V2.328H78.0443Z" fill="#FF3C78"/>
<path d="M84.0703 3.752C84.0703 3.89067 84.0623 4.03733 84.0463 4.192H80.5423C80.569 4.624 80.7156 4.96267 80.9823 5.208C81.2543 5.448 81.5823 5.568 81.9663 5.568C82.281 5.568 82.5423 5.496 82.7503 5.352C82.9636 5.20267 83.113 5.00533 83.1983 4.76H83.9823C83.865 5.18133 83.6303 5.52533 83.2783 5.792C82.9263 6.05333 82.489 6.184 81.9663 6.184C81.5503 6.184 81.177 6.09067 80.8463 5.904C80.521 5.71733 80.265 5.45333 80.0783 5.112C79.8916 4.76533 79.7983 4.36533 79.7983 3.912C79.7983 3.45867 79.889 3.06133 80.0703 2.72C80.2516 2.37867 80.505 2.11733 80.8303 1.936C81.161 1.74933 81.5396 1.656 81.9663 1.656C82.3823 1.656 82.7503 1.74667 83.0703 1.928C83.3903 2.10933 83.6356 2.36 83.8063 2.68C83.9823 2.99467 84.0703 3.352 84.0703 3.752ZM83.3183 3.6C83.3183 3.32267 83.257 3.08533 83.1343 2.888C83.0117 2.68533 82.8437 2.53333 82.6303 2.432C82.4223 2.32533 82.1903 2.272 81.9343 2.272C81.5663 2.272 81.2516 2.38933 80.9903 2.624C80.7343 2.85867 80.5876 3.184 80.5503 3.6H83.3183Z" fill="#FF3C78"/>
<path d="M84.7593 3.904C84.7593 3.456 84.8499 3.064 85.0312 2.728C85.2126 2.38667 85.4606 2.12267 85.7753 1.936C86.0953 1.74933 86.4526 1.656 86.8473 1.656C87.1886 1.656 87.5059 1.736 87.7993 1.896C88.0926 2.05067 88.3166 2.256 88.4713 2.512V0.192H89.2073V6.112H88.4713V5.288C88.3273 5.54933 88.1139 5.76533 87.8313 5.936C87.5486 6.10133 87.2179 6.184 86.8393 6.184C86.4499 6.184 86.0953 6.088 85.7753 5.896C85.4606 5.704 85.2126 5.43467 85.0312 5.088C84.8499 4.74133 84.7593 4.34667 84.7593 3.904ZM88.4713 3.912C88.4713 3.58133 88.4046 3.29333 88.2713 3.048C88.1379 2.80267 87.9566 2.616 87.7272 2.488C87.5033 2.35467 87.2553 2.288 86.9833 2.288C86.7113 2.288 86.4632 2.352 86.2393 2.48C86.0153 2.608 85.8366 2.79467 85.7033 3.04C85.5699 3.28533 85.5033 3.57333 85.5033 3.904C85.5033 4.24 85.5699 4.53333 85.7033 4.784C85.8366 5.02933 86.0153 5.21867 86.2393 5.352C86.4632 5.48 86.7113 5.544 86.9833 5.544C87.2553 5.544 87.5033 5.48 87.7272 5.352C87.9566 5.21867 88.1379 5.02933 88.2713 4.784C88.4046 4.53333 88.4713 4.24267 88.4713 3.912Z" fill="#FF3C78"/>
<defs>
<clipPath id="clip0_44_21169">
<rect width="11" height="11" fill="white" transform="translate(11 11) rotate(-180)"/>
</clipPath>
</defs>
</svg>
