<svg width="137" height="83" viewBox="0 0 137 83" fill="none" xmlns="http://www.w3.org/2000/svg">
<path d="M14.352 10.731C15.644 10.731 16.7603 10.9747 17.701 11.462C18.653 11.938 19.3783 12.6237 19.877 13.519C20.387 14.4143 20.642 15.4683 20.642 16.681C20.642 17.8937 20.387 18.9477 19.877 19.843C19.3783 20.727 18.653 21.407 17.701 21.883C16.7603 22.3477 15.644 22.58 14.352 22.58H10.663V10.731H14.352ZM14.352 21.305C15.882 21.305 17.0493 20.9027 17.854 20.098C18.6587 19.282 19.061 18.143 19.061 16.681C19.061 15.2077 18.653 14.0573 17.837 13.23C17.0323 12.4027 15.8707 11.989 14.352 11.989H12.21V21.305H14.352Z" fill="#212935"/>
<path d="M31.1825 17.565C31.1825 17.8597 31.1655 18.1713 31.1315 18.5H23.6855C23.7422 19.418 24.0539 20.1377 24.6205 20.659C25.1985 21.169 25.8955 21.424 26.7115 21.424C27.3802 21.424 27.9355 21.271 28.3775 20.965C28.8309 20.6477 29.1482 20.2283 29.3295 19.707H30.9955C30.7462 20.6023 30.2475 21.3333 29.4995 21.9C28.7515 22.4553 27.8222 22.733 26.7115 22.733C25.8275 22.733 25.0342 22.5347 24.3315 22.138C23.6402 21.7413 23.0962 21.1803 22.6995 20.455C22.3029 19.7183 22.1045 18.8683 22.1045 17.905C22.1045 16.9417 22.2972 16.0973 22.6825 15.372C23.0679 14.6467 23.6062 14.0913 24.2975 13.706C25.0002 13.3093 25.8049 13.111 26.7115 13.111C27.5955 13.111 28.3775 13.3037 29.0575 13.689C29.7375 14.0743 30.2589 14.607 30.6215 15.287C30.9955 15.9557 31.1825 16.715 31.1825 17.565ZM29.5845 17.242C29.5845 16.6527 29.4542 16.1483 29.1935 15.729C28.9329 15.2983 28.5759 14.9753 28.1225 14.76C27.6805 14.5333 27.1875 14.42 26.6435 14.42C25.8615 14.42 25.1929 14.6693 24.6375 15.168C24.0935 15.6667 23.7819 16.358 23.7025 17.242H29.5845Z" fill="#212935"/>
<path d="M34.7715 14.981C35.0775 14.4483 35.5309 14.0063 36.1315 13.655C36.7435 13.2923 37.4519 13.111 38.2565 13.111C39.0839 13.111 39.8319 13.3093 40.5005 13.706C41.1805 14.1027 41.7132 14.6637 42.0985 15.389C42.4839 16.103 42.6765 16.936 42.6765 17.888C42.6765 18.8287 42.4839 19.6673 42.0985 20.404C41.7132 21.1407 41.1805 21.713 40.5005 22.121C39.8319 22.529 39.0839 22.733 38.2565 22.733C37.4632 22.733 36.7605 22.5573 36.1485 22.206C35.5479 21.8433 35.0889 21.3957 34.7715 20.863V27H33.2245V13.264H34.7715V14.981ZM41.0955 17.888C41.0955 17.1853 40.9539 16.5733 40.6705 16.052C40.3872 15.5307 40.0019 15.134 39.5145 14.862C39.0385 14.59 38.5115 14.454 37.9335 14.454C37.3669 14.454 36.8399 14.5957 36.3525 14.879C35.8765 15.151 35.4912 15.5533 35.1965 16.086C34.9132 16.6073 34.7715 17.2137 34.7715 17.905C34.7715 18.6077 34.9132 19.2253 35.1965 19.758C35.4912 20.2793 35.8765 20.6817 36.3525 20.965C36.8399 21.237 37.3669 21.373 37.9335 21.373C38.5115 21.373 39.0385 21.237 39.5145 20.965C40.0019 20.6817 40.3872 20.2793 40.6705 19.758C40.9539 19.2253 41.0955 18.602 41.0955 17.888Z" fill="#212935"/>
<path d="M46.2598 10V22.58H44.7128V10H46.2598Z" fill="#212935"/>
<path d="M52.9594 22.733C52.0867 22.733 51.2934 22.5347 50.5794 22.138C49.8767 21.7413 49.3214 21.1803 48.9134 20.455C48.5167 19.7183 48.3184 18.8683 48.3184 17.905C48.3184 16.953 48.5224 16.1143 48.9304 15.389C49.3497 14.6523 49.9164 14.0913 50.6304 13.706C51.3444 13.3093 52.1434 13.111 53.0274 13.111C53.9114 13.111 54.7104 13.3093 55.4244 13.706C56.1384 14.0913 56.6994 14.6467 57.1074 15.372C57.5267 16.0973 57.7364 16.9417 57.7364 17.905C57.7364 18.8683 57.5211 19.7183 57.0904 20.455C56.6711 21.1803 56.0987 21.7413 55.3734 22.138C54.6481 22.5347 53.8434 22.733 52.9594 22.733ZM52.9594 21.373C53.5147 21.373 54.0361 21.2427 54.5234 20.982C55.0107 20.7213 55.4017 20.3303 55.6964 19.809C56.0024 19.2877 56.1554 18.653 56.1554 17.905C56.1554 17.157 56.0081 16.5223 55.7134 16.001C55.4187 15.4797 55.0334 15.0943 54.5574 14.845C54.0814 14.5843 53.5657 14.454 53.0104 14.454C52.4437 14.454 51.9224 14.5843 51.4464 14.845C50.9817 15.0943 50.6077 15.4797 50.3244 16.001C50.0411 16.5223 49.8994 17.157 49.8994 17.905C49.8994 18.6643 50.0354 19.3047 50.3074 19.826C50.5907 20.3473 50.9647 20.7383 51.4294 20.999C51.8941 21.2483 52.4041 21.373 52.9594 21.373Z" fill="#212935"/>
<path d="M67.7944 13.264L62.1844 26.966H60.5864L62.4224 22.478L58.6654 13.264H60.3824L63.3064 20.812L66.1964 13.264H67.7944Z" fill="#212935"/>
<path d="M80.5525 13.094C81.2779 13.094 81.9239 13.247 82.4905 13.553C83.0572 13.8477 83.5049 14.2953 83.8335 14.896C84.1622 15.4967 84.3265 16.2277 84.3265 17.089V22.58H82.7965V17.31C82.7965 16.3807 82.5642 15.6723 82.0995 15.185C81.6462 14.6863 81.0285 14.437 80.2465 14.437C79.4419 14.437 78.8015 14.6977 78.3255 15.219C77.8495 15.729 77.6115 16.4713 77.6115 17.446V22.58H76.0815V17.31C76.0815 16.3807 75.8492 15.6723 75.3845 15.185C74.9312 14.6863 74.3135 14.437 73.5315 14.437C72.7269 14.437 72.0865 14.6977 71.6105 15.219C71.1345 15.729 70.8965 16.4713 70.8965 17.446V22.58H69.3495V13.264H70.8965V14.607C71.2025 14.1197 71.6105 13.7457 72.1205 13.485C72.6419 13.2243 73.2142 13.094 73.8375 13.094C74.6195 13.094 75.3109 13.2697 75.9115 13.621C76.5122 13.9723 76.9599 14.488 77.2545 15.168C77.5152 14.5107 77.9458 14.0007 78.5465 13.638C79.1472 13.2753 79.8159 13.094 80.5525 13.094Z" fill="#212935"/>
<path d="M95.3642 17.565C95.3642 17.8597 95.3472 18.1713 95.3132 18.5H87.8672C87.9238 19.418 88.2355 20.1377 88.8022 20.659C89.3802 21.169 90.0772 21.424 90.8932 21.424C91.5618 21.424 92.1172 21.271 92.5592 20.965C93.0125 20.6477 93.3298 20.2283 93.5112 19.707H95.1772C94.9278 20.6023 94.4292 21.3333 93.6812 21.9C92.9332 22.4553 92.0038 22.733 90.8932 22.733C90.0092 22.733 89.2158 22.5347 88.5132 22.138C87.8218 21.7413 87.2778 21.1803 86.8812 20.455C86.4845 19.7183 86.2862 18.8683 86.2862 17.905C86.2862 16.9417 86.4788 16.0973 86.8642 15.372C87.2495 14.6467 87.7878 14.0913 88.4792 13.706C89.1818 13.3093 89.9865 13.111 90.8932 13.111C91.7772 13.111 92.5592 13.3037 93.2392 13.689C93.9192 14.0743 94.4405 14.607 94.8032 15.287C95.1772 15.9557 95.3642 16.715 95.3642 17.565ZM93.7662 17.242C93.7662 16.6527 93.6358 16.1483 93.3752 15.729C93.1145 15.2983 92.7575 14.9753 92.3042 14.76C91.8622 14.5333 91.3692 14.42 90.8252 14.42C90.0432 14.42 89.3745 14.6693 88.8192 15.168C88.2752 15.6667 87.9635 16.358 87.8842 17.242H93.7662Z" fill="#212935"/>
<path d="M101.945 13.094C103.078 13.094 103.996 13.4397 104.699 14.131C105.402 14.811 105.753 15.797 105.753 17.089V22.58H104.223V17.31C104.223 16.3807 103.991 15.6723 103.526 15.185C103.061 14.6863 102.427 14.437 101.622 14.437C100.806 14.437 100.154 14.692 99.6672 15.202C99.1912 15.712 98.9532 16.4543 98.9532 17.429V22.58H97.4062V13.264H98.9532V14.59C99.2592 14.114 99.6728 13.7457 100.194 13.485C100.727 13.2243 101.31 13.094 101.945 13.094Z" fill="#212935"/>
<path d="M110.167 14.539V20.03C110.167 20.4833 110.264 20.8063 110.456 20.999C110.649 21.1803 110.983 21.271 111.459 21.271H112.598V22.58H111.204C110.343 22.58 109.697 22.3817 109.266 21.985C108.836 21.5883 108.62 20.9367 108.62 20.03V14.539H107.413V13.264H108.62V10.918H110.167V13.264H112.598V14.539H110.167Z" fill="#212935"/>
<path d="M10 37.7V36.289H13.196V48.58H11.632V37.7H10Z" fill="#212935"/>
<path d="M15.6663 47.339C17.1056 46.183 18.2333 45.2367 19.0493 44.5C19.8653 43.752 20.551 42.9757 21.1063 42.171C21.673 41.355 21.9563 40.556 21.9563 39.774C21.9563 39.0373 21.775 38.4593 21.4123 38.04C21.061 37.6093 20.4886 37.394 19.6953 37.394C18.9246 37.394 18.324 37.6377 17.8933 38.125C17.474 38.601 17.2473 39.2413 17.2133 40.046H15.7173C15.7626 38.7767 16.148 37.7963 16.8733 37.105C17.5986 36.4137 18.5336 36.068 19.6783 36.068C20.8456 36.068 21.7693 36.391 22.4493 37.037C23.1406 37.683 23.4863 38.5727 23.4863 39.706C23.4863 40.6467 23.203 41.5647 22.6363 42.46C22.081 43.344 21.4463 44.126 20.7323 44.806C20.0183 45.4747 19.106 46.2567 17.9953 47.152H23.8433V48.444H15.6663V47.339Z" fill="#212935"/>
<path d="M26.3796 48.682C26.085 48.682 25.8356 48.58 25.6316 48.376C25.4276 48.172 25.3256 47.9227 25.3256 47.628C25.3256 47.3333 25.4276 47.084 25.6316 46.88C25.8356 46.676 26.085 46.574 26.3796 46.574C26.663 46.574 26.901 46.676 27.0936 46.88C27.2976 47.084 27.3996 47.3333 27.3996 47.628C27.3996 47.9227 27.2976 48.172 27.0936 48.376C26.901 48.58 26.663 48.682 26.3796 48.682ZM26.3796 41.406C26.085 41.406 25.8356 41.304 25.6316 41.1C25.4276 40.896 25.3256 40.6467 25.3256 40.352C25.3256 40.0573 25.4276 39.808 25.6316 39.604C25.8356 39.4 26.085 39.298 26.3796 39.298C26.663 39.298 26.901 39.4 27.0936 39.604C27.2976 39.808 27.3996 40.0573 27.3996 40.352C27.3996 40.6467 27.2976 40.896 27.0936 41.1C26.901 41.304 26.663 41.406 26.3796 41.406Z" fill="#212935"/>
<path d="M28.8768 45.843V44.67L34.8438 36.408H36.6968V44.5H38.3968V45.843H36.6968V48.58H35.1668V45.843H28.8768ZM35.2348 38.023L30.6618 44.5H35.2348V38.023Z" fill="#212935"/>
<path d="M47.7792 37.632H41.8122V41.508C42.0728 41.1453 42.4582 40.8507 42.9682 40.624C43.4782 40.386 44.0278 40.267 44.6172 40.267C45.5578 40.267 46.3228 40.4653 46.9122 40.862C47.5015 41.2473 47.9208 41.7517 48.1702 42.375C48.4308 42.987 48.5612 43.6387 48.5612 44.33C48.5612 45.146 48.4082 45.877 48.1022 46.523C47.7962 47.169 47.3258 47.679 46.6912 48.053C46.0678 48.427 45.2915 48.614 44.3622 48.614C43.1722 48.614 42.2088 48.308 41.4722 47.696C40.7355 47.084 40.2878 46.268 40.1292 45.248H41.6422C41.7895 45.894 42.1012 46.3983 42.5772 46.761C43.0532 47.1237 43.6538 47.305 44.3792 47.305C45.2745 47.305 45.9488 47.0387 46.4022 46.506C46.8555 45.962 47.0822 45.248 47.0822 44.364C47.0822 43.48 46.8555 42.8 46.4022 42.324C45.9488 41.8367 45.2802 41.593 44.3962 41.593C43.7955 41.593 43.2685 41.7403 42.8152 42.035C42.3732 42.3183 42.0502 42.7093 41.8462 43.208H40.3842V36.272H47.7792V37.632Z" fill="#212935"/>
<path d="M57.3422 50.382H55.7952V35.065H57.3422V50.382Z" fill="#212935"/>
<path d="M64.2207 37.7V36.289H67.4167V48.58H65.8527V37.7H64.2207Z" fill="#212935"/>
<path d="M77.639 37.496L72.913 48.58H71.349L76.143 37.649H69.581V36.323H77.639V37.496Z" fill="#212935"/>
<path d="M84.9745 37.751C84.6798 37.751 84.4305 37.649 84.2265 37.445C84.0338 37.241 83.9375 36.9917 83.9375 36.697C83.9375 36.4023 84.0338 36.153 84.2265 35.949C84.4305 35.745 84.6798 35.643 84.9745 35.643C85.2692 35.643 85.5128 35.745 85.7055 35.949C85.9095 36.153 86.0115 36.4023 86.0115 36.697C86.0115 36.9917 85.9095 37.241 85.7055 37.445C85.5128 37.649 85.2692 37.751 84.9745 37.751ZM85.7395 50.603C85.7395 51.4303 85.5298 52.0367 85.1105 52.422C84.6912 52.8073 84.0792 53 83.2745 53H82.3735V51.691H83.0195C83.4502 51.691 83.7505 51.606 83.9205 51.436C84.1018 51.266 84.1925 50.977 84.1925 50.569V39.264H85.7395V50.603Z" fill="#212935"/>
<path d="M96.6203 39.264V48.58H95.0733V47.203C94.7786 47.679 94.365 48.053 93.8323 48.325C93.311 48.5857 92.733 48.716 92.0983 48.716C91.373 48.716 90.7213 48.5687 90.1433 48.274C89.5653 47.968 89.1063 47.5147 88.7663 46.914C88.4376 46.3133 88.2733 45.5823 88.2733 44.721V39.264H89.8033V44.517C89.8033 45.435 90.0356 46.1433 90.5003 46.642C90.965 47.1293 91.5996 47.373 92.4043 47.373C93.2316 47.373 93.8833 47.118 94.3593 46.608C94.8353 46.098 95.0733 45.3557 95.0733 44.381V39.264H96.6203Z" fill="#212935"/>
<path d="M103.771 39.094C104.905 39.094 105.823 39.4397 106.525 40.131C107.228 40.811 107.579 41.797 107.579 43.089V48.58H106.049V43.31C106.049 42.3807 105.817 41.6723 105.352 41.185C104.888 40.6863 104.253 40.437 103.448 40.437C102.632 40.437 101.981 40.692 101.493 41.202C101.017 41.712 100.779 42.4543 100.779 43.429V48.58H99.2323V39.264H100.779V40.59C101.085 40.114 101.499 39.7457 102.02 39.485C102.553 39.2243 103.137 39.094 103.771 39.094Z" fill="#212935"/>
<path d="M114.197 47.339C115.636 46.183 116.764 45.2367 117.58 44.5C118.396 43.752 119.081 42.9757 119.637 42.171C120.203 41.355 120.487 40.556 120.487 39.774C120.487 39.0373 120.305 38.4593 119.943 38.04C119.591 37.6093 119.019 37.394 118.226 37.394C117.455 37.394 116.854 37.6377 116.424 38.125C116.004 38.601 115.778 39.2413 115.744 40.046H114.248C114.293 38.7767 114.678 37.7963 115.404 37.105C116.129 36.4137 117.064 36.068 118.209 36.068C119.376 36.068 120.3 36.391 120.98 37.037C121.671 37.683 122.017 38.5727 122.017 39.706C122.017 40.6467 121.733 41.5647 121.167 42.46C120.611 43.344 119.977 44.126 119.263 44.806C118.549 45.4747 117.636 46.2567 116.526 47.152H122.374V48.444H114.197V47.339Z" fill="#212935"/>
<path d="M123.754 37.7V36.289H126.95V48.58H125.386V37.7H123.754Z" fill="#212935"/>
<path d="M13.708 72.184C12.812 71.3067 12.112 70.1913 11.608 68.838C11.1133 67.4847 10.866 66.024 10.866 64.456C10.866 62.8507 11.1273 61.3527 11.65 59.962C12.182 58.562 12.938 57.4093 13.918 56.504H15.248V56.63C14.2027 57.61 13.414 58.7907 12.882 60.172C12.3593 61.544 12.098 62.972 12.098 64.456C12.098 65.9027 12.3453 67.284 12.84 68.6C13.344 69.916 14.0767 71.0687 15.038 72.058V72.184H13.708Z" fill="#212935"/>
<path d="M16.3134 65.716C16.3134 64.932 16.4721 64.246 16.7894 63.658C17.1068 63.0607 17.5408 62.5987 18.0914 62.272C18.6514 61.9453 19.2768 61.782 19.9674 61.782C20.5648 61.782 21.1201 61.922 21.6334 62.202C22.1468 62.4727 22.5388 62.832 22.8094 63.28V59.22H24.0974V69.58H22.8094V68.138C22.5574 68.5953 22.1841 68.9733 21.6894 69.272C21.1948 69.5613 20.6161 69.706 19.9534 69.706C19.2721 69.706 18.6514 69.538 18.0914 69.202C17.5408 68.866 17.1068 68.3947 16.7894 67.788C16.4721 67.1813 16.3134 66.4907 16.3134 65.716ZM22.8094 65.73C22.8094 65.1513 22.6928 64.6473 22.4594 64.218C22.2261 63.7887 21.9088 63.462 21.5074 63.238C21.1154 63.0047 20.6814 62.888 20.2054 62.888C19.7294 62.888 19.2954 63 18.9034 63.224C18.5114 63.448 18.1988 63.7747 17.9654 64.204C17.7321 64.6333 17.6154 65.1373 17.6154 65.716C17.6154 66.304 17.7321 66.8173 17.9654 67.256C18.1988 67.6853 18.5114 68.0167 18.9034 68.25C19.2954 68.474 19.7294 68.586 20.2054 68.586C20.6814 68.586 21.1154 68.474 21.5074 68.25C21.9088 68.0167 22.2261 67.6853 22.4594 67.256C22.6928 66.8173 22.8094 66.3087 22.8094 65.73Z" fill="#212935"/>
<path d="M25.7744 65.716C25.7744 64.932 25.933 64.246 26.2504 63.658C26.5677 63.0607 27.0017 62.5987 27.5524 62.272C28.1124 61.9453 28.733 61.782 29.4144 61.782C30.0864 61.782 30.6697 61.9267 31.1644 62.216C31.659 62.5053 32.0277 62.8693 32.2704 63.308V61.908H33.5584V69.58H32.2704V68.152C32.0184 68.6 31.6404 68.9733 31.1364 69.272C30.6417 69.5613 30.063 69.706 29.4004 69.706C28.719 69.706 28.103 69.538 27.5524 69.202C27.0017 68.866 26.5677 68.3947 26.2504 67.788C25.933 67.1813 25.7744 66.4907 25.7744 65.716ZM32.2704 65.73C32.2704 65.1513 32.1537 64.6473 31.9204 64.218C31.687 63.7887 31.3697 63.462 30.9684 63.238C30.5764 63.0047 30.1424 62.888 29.6664 62.888C29.1904 62.888 28.7564 63 28.3644 63.224C27.9724 63.448 27.6597 63.7747 27.4264 64.204C27.193 64.6333 27.0764 65.1373 27.0764 65.716C27.0764 66.304 27.193 66.8173 27.4264 67.256C27.6597 67.6853 27.9724 68.0167 28.3644 68.25C28.7564 68.474 29.1904 68.586 29.6664 68.586C30.1424 68.586 30.5764 68.474 30.9684 68.25C31.3697 68.0167 31.687 67.6853 31.9204 67.256C32.1537 66.8173 32.2704 66.3087 32.2704 65.73Z" fill="#212935"/>
<path d="M38.5673 68.404L40.9473 61.908H42.3053L39.2953 69.58H37.8113L34.8013 61.908H36.1733L38.5673 68.404Z" fill="#212935"/>
<path d="M44.217 60.662C43.9743 60.662 43.769 60.578 43.601 60.41C43.433 60.242 43.349 60.0367 43.349 59.794C43.349 59.5513 43.433 59.346 43.601 59.178C43.769 59.01 43.9743 58.926 44.217 58.926C44.4503 58.926 44.6463 59.01 44.805 59.178C44.973 59.346 45.057 59.5513 45.057 59.794C45.057 60.0367 44.973 60.242 44.805 60.41C44.6463 60.578 44.4503 60.662 44.217 60.662ZM44.833 61.908V69.58H43.559V61.908H44.833Z" fill="#212935"/>
<path d="M46.5283 65.716C46.5283 64.932 46.6869 64.246 47.0043 63.658C47.3216 63.0607 47.7556 62.5987 48.3063 62.272C48.8663 61.9453 49.4916 61.782 50.1823 61.782C50.7796 61.782 51.3349 61.922 51.8483 62.202C52.3616 62.4727 52.7536 62.832 53.0243 63.28V59.22H54.3123V69.58H53.0243V68.138C52.7723 68.5953 52.3989 68.9733 51.9043 69.272C51.4096 69.5613 50.8309 69.706 50.1683 69.706C49.4869 69.706 48.8663 69.538 48.3063 69.202C47.7556 68.866 47.3216 68.3947 47.0043 67.788C46.6869 67.1813 46.5283 66.4907 46.5283 65.716ZM53.0243 65.73C53.0243 65.1513 52.9076 64.6473 52.6743 64.218C52.4409 63.7887 52.1236 63.462 51.7223 63.238C51.3303 63.0047 50.8963 62.888 50.4203 62.888C49.9443 62.888 49.5103 63 49.1183 63.224C48.7263 63.448 48.4136 63.7747 48.1803 64.204C47.9469 64.6333 47.8303 65.1373 47.8303 65.716C47.8303 66.304 47.9469 66.8173 48.1803 67.256C48.4136 67.6853 48.7263 68.0167 49.1183 68.25C49.5103 68.474 49.9443 68.586 50.4203 68.586C50.8963 68.586 51.3303 68.474 51.7223 68.25C52.1236 68.0167 52.4409 67.6853 52.6743 67.256C52.9076 66.8173 53.0243 66.3087 53.0243 65.73Z" fill="#212935"/>
<path d="M61.4716 63.154C61.6956 62.7153 62.013 62.3747 62.4236 62.132C62.8436 61.8893 63.3523 61.768 63.9496 61.768V63.084H63.6136C62.1856 63.084 61.4716 63.8587 61.4716 65.408V69.58H60.1976V61.908H61.4716V63.154Z" fill="#212935"/>
<path d="M65.8263 69.664C65.5836 69.664 65.3783 69.58 65.2103 69.412C65.0423 69.244 64.9583 69.0387 64.9583 68.796C64.9583 68.5533 65.0423 68.348 65.2103 68.18C65.3783 68.012 65.5836 67.928 65.8263 67.928C66.0596 67.928 66.2556 68.012 66.4143 68.18C66.5823 68.348 66.6663 68.5533 66.6663 68.796C66.6663 69.0387 66.5823 69.244 66.4143 69.412C66.2556 69.58 66.0596 69.664 65.8263 69.664Z" fill="#212935"/>
<path d="M71.6862 72.184V72.058C72.6475 71.0687 73.3755 69.916 73.8702 68.6C74.3742 67.284 74.6262 65.9027 74.6262 64.456C74.6262 62.972 74.3602 61.544 73.8282 60.172C73.3055 58.7907 72.5215 57.61 71.4762 56.63V56.504H72.8062C73.7862 57.4093 74.5375 58.562 75.0602 59.962C75.5921 61.3527 75.8582 62.8507 75.8582 64.456C75.8582 66.024 75.6061 67.4847 75.1021 68.838C74.6075 70.1913 73.9122 71.3067 73.0162 72.184H71.6862Z" fill="#212935"/>
</svg>
