<svg width="877" height="201" viewBox="0 0 877 201" fill="none" xmlns="http://www.w3.org/2000/svg">
<path d="M8.29102 25H870.003" stroke="#ADB3C0" stroke-dasharray="2 2"/>
<path d="M8.29102 73H870.003" stroke="#ADB3C0" stroke-dasharray="2 2"/>
<path d="M8.29102 121H870.003" stroke="#ADB3C0" stroke-dasharray="2 2"/>
<path d="M8.29102 169H870.003" stroke="#ADB3C0" stroke-dasharray="2 2"/>
<path d="M0.09375 193H870.003" stroke="#ADB3C0" stroke-dasharray="2 2"/>
<path d="M0.09375 145H870.003" stroke="#ADB3C0" stroke-dasharray="2 2"/>
<path d="M0.09375 97H870.003" stroke="#ADB3C0" stroke-dasharray="2 2"/>
<path d="M0.09375 49H870.003" stroke="#ADB3C0" stroke-dasharray="2 2"/>
<path d="M0.09375 1H870.003" stroke="#ADB3C0" stroke-dasharray="2 2"/>
<path d="M8.29102 1L8.29102 201" stroke="#ADB3C0" stroke-dasharray="2 2"/>
<path d="M132.271 1L132.271 201" stroke="#ADB3C0" stroke-dasharray="2 2"/>
<path d="M255.227 1L255.227 201" stroke="#ADB3C0" stroke-dasharray="2 2"/>
<path d="M378.182 1L378.182 201" stroke="#ADB3C0" stroke-dasharray="2 2"/>
<path d="M501.137 1V201" stroke="#ADB3C0" stroke-dasharray="2 2"/>
<path d="M624.092 1V201" stroke="#ADB3C0" stroke-dasharray="2 2"/>
<path d="M747.047 1V201" stroke="#ADB3C0" stroke-dasharray="2 2"/>
<path d="M870.002 1V201" stroke="#ADB3C0" stroke-dasharray="2 2"/>
<path d="M8.93945 146.001L130.361 31.6836L255.671 104.001L379.037 122.501L501.904 132.501L624.77 139.501L747.319 145.499H870.003" stroke="url(#paint0_linear_31_2812)" stroke-width="4"/>
<path d="M8.05265 151C11.4246 151 14.158 148.314 14.158 145C14.158 141.686 11.4246 139 8.05265 139C4.68074 139 1.94727 141.686 1.94727 145C1.94727 148.314 4.68074 151 8.05265 151Z" fill="#52DE97" stroke="white"/>
<path d="M131.918 38C135.29 38 138.023 35.3137 138.023 32C138.023 28.6863 135.29 26 131.918 26C128.546 26 125.812 28.6863 125.812 32C125.812 35.3137 128.546 38 131.918 38Z" fill="#52DE97" stroke="white"/>
<path d="M255.783 109C259.155 109 261.889 106.314 261.889 103C261.889 99.6863 259.155 97 255.783 97C252.411 97 249.678 99.6863 249.678 103C249.678 106.314 252.411 109 255.783 109Z" fill="#52DE97" stroke="white"/>
<path d="M378.65 128C382.022 128 384.756 125.314 384.756 122C384.756 118.686 382.022 116 378.65 116C375.278 116 372.545 118.686 372.545 122C372.545 125.314 375.278 128 378.65 128Z" fill="#52DE97" stroke="white"/>
<path d="M501.516 138C504.887 138 507.621 135.314 507.621 132C507.621 128.686 504.887 126 501.516 126C498.144 126 495.41 128.686 495.41 132C495.41 135.314 498.144 138 501.516 138Z" fill="#52DE97" stroke="white"/>
<path d="M624.383 145C627.755 145 630.488 142.314 630.488 139C630.488 135.686 627.755 133 624.383 133C621.011 133 618.277 135.686 618.277 139C618.277 142.314 621.011 145 624.383 145Z" fill="#52DE97" stroke="white"/>
<path d="M747.25 151C750.622 151 753.355 148.314 753.355 145C753.355 141.686 750.622 139 747.25 139C743.878 139 741.145 141.686 741.145 145C741.145 148.314 743.878 151 747.25 151Z" fill="#52DE97" stroke="white"/>
<path d="M870.115 151C873.487 151 876.221 148.314 876.221 145C876.221 141.686 873.487 139 870.115 139C866.743 139 864.01 141.686 864.01 145C864.01 148.314 866.743 151 870.115 151Z" fill="#52DE97" stroke="white"/>
<defs>
<linearGradient id="paint0_linear_31_2812" x1="870.003" y1="88.8421" x2="8.93945" y2="88.8421" gradientUnits="userSpaceOnUse">
<stop stop-color="#00818A"/>
<stop offset="1" stop-color="#52DE97"/>
</linearGradient>
</defs>
</svg>
