<svg width="110" height="27" viewBox="0 0 110 27" fill="none" xmlns="http://www.w3.org/2000/svg">
<path fill-rule="evenodd" clip-rule="evenodd" d="M57.6449 16.656C57.6449 13.934 55.7287 12.0876 53.1308 12.0876C50.5647 12.0876 48.6485 13.934 48.6485 16.656C48.6485 19.3778 50.5647 21.2245 53.1308 21.2245C55.7287 21.2245 57.6449 19.3778 57.6449 16.656V16.656ZM61.8351 8.55538V24.7564H57.6449V22.8445C56.4757 24.3025 54.7221 25.21 52.3509 25.21C48.0315 25.21 44.4586 21.4837 44.4586 16.656C44.4586 11.828 48.0315 8.10181 52.3509 8.10181C54.7221 8.10181 56.4757 9.00927 57.6449 10.4673V8.55538H61.8351Z" fill="white"/>
<path fill-rule="evenodd" clip-rule="evenodd" d="M80.8025 14.809V24.7561H76.6126V15.3271C76.6126 13.1242 75.2812 11.9899 73.3971 11.9899C71.3508 11.9899 69.8245 13.1887 69.8245 16.0078V24.7561H65.6346V8.55538H69.8245V10.37C70.7989 8.91162 72.4878 8.10181 74.6639 8.10181C78.1067 8.10181 80.8025 10.4994 80.8025 14.809" fill="white"/>
<path fill-rule="evenodd" clip-rule="evenodd" d="M89.9935 12.5732V19.3125C89.9935 21.0622 91.2606 21.0947 93.664 20.9652V24.7563C87.7849 25.4042 85.804 23.6867 85.804 19.3125V12.5732H82.9784V8.55532H85.804V5.28299L89.9935 4.01929V8.55532H93.664V12.5732H89.9935Z" fill="white"/>
<mask id="mask0_40_10441" style="mask-type:alpha" maskUnits="userSpaceOnUse" x="0" y="0" width="110" height="27">
<path fill-rule="evenodd" clip-rule="evenodd" d="M0 26.3046H109.838V0.318115H0V26.3046Z" fill="white"/>
</mask>
<g mask="url(#mask0_40_10441)">
<path fill-rule="evenodd" clip-rule="evenodd" d="M96.6195 24.7563H100.81V8.55527H96.6195V24.7563ZM96.1323 4.05169C96.1323 2.65821 97.3015 1.45972 98.698 1.45972C100.127 1.45972 101.297 2.65821 101.297 4.05169C101.297 5.44484 100.127 6.61122 98.698 6.61122C97.3015 6.61122 96.1323 5.44484 96.1323 4.05169V4.05169Z" fill="white"/>
<path fill-rule="evenodd" clip-rule="evenodd" d="M104.317 22.4231C104.317 20.9002 105.551 19.6689 107.078 19.6689C108.604 19.6689 109.838 20.9002 109.838 22.4231C109.838 23.9461 108.604 25.1773 107.078 25.1773C105.551 25.1773 104.317 23.9461 104.317 22.4231" fill="#52DE97"/>
<path fill-rule="evenodd" clip-rule="evenodd" d="M21.471 14.3275L19.7834 11.9111C19.7569 11.8736 19.6989 11.8828 19.6855 11.9267L19.1776 13.5979C19.1508 13.6122 19.1358 13.6198 19.1091 13.6341L14.6179 12.2753C14.7843 12.1408 15.0327 11.9722 15.4025 11.7725C16.3355 11.2686 16.9342 10.5686 17.32 9.8669H17.3264C17.3634 9.79947 17.3905 9.72663 17.4253 9.65793C17.46 9.58668 17.4944 9.51575 17.5254 9.44514C18.1388 8.10637 18.3343 6.54654 17.8251 4.91102C17.1367 2.70041 15.3059 0.967237 13.0396 0.471998C8.88734 -0.434826 5.13363 2.78725 5.13363 6.794C5.13363 7.73677 5.3514 8.63055 5.72349 9.44291C5.75537 9.51575 5.79076 9.5889 5.82711 9.66238C5.86091 9.72981 5.88737 9.80106 5.9234 9.8669H5.9301C6.3159 10.5686 6.91468 11.2686 7.84729 11.7725C8.21714 11.9722 8.46552 12.1408 8.63195 12.2753L4.14108 13.6341C4.1143 13.6198 4.099 13.6122 4.07221 13.5979L3.5643 11.9267C3.55091 11.8828 3.49288 11.8736 3.46642 11.9111L1.77879 14.3275C1.75839 14.3571 1.75233 14.3959 1.76381 14.43C2.02271 15.2064 2.67219 15.6676 3.51169 15.6676C3.77856 15.6676 4.06648 15.6215 4.36778 15.5302L7.89001 14.4646L10.4478 13.6908C10.5507 13.6593 10.6426 13.5918 10.6926 13.4974C10.7793 13.332 10.8406 13.1561 10.8782 12.9567C10.8817 12.9404 10.8849 12.9239 10.8878 12.9058C10.9378 12.5667 10.8919 12.2267 10.751 11.8949C10.6993 11.7741 10.6483 11.6681 10.5877 11.5769C10.5246 11.4814 10.4363 11.4032 10.3476 11.3319C10.1959 11.2095 10.0572 11.1284 9.8783 11.0539C9.72462 10.99 9.57476 10.9175 9.42905 10.8373C9.13923 10.6777 8.8663 10.4875 8.61633 10.2709C8.11448 9.83636 7.70572 9.29691 7.42482 8.69608C7.13755 8.08156 6.98705 7.40693 6.98705 6.72912C6.98705 4.16959 9.08662 2.05377 11.6252 2.05377C14.1635 2.05377 16.2628 4.16959 16.2628 6.72912C16.2628 7.41202 16.11 8.09206 15.8186 8.70975C15.5352 9.31123 15.1232 9.85068 14.6185 10.2842C14.4046 10.4677 14.1744 10.6325 13.9314 10.7747C13.8077 10.8472 13.6808 10.914 13.5513 10.9744C13.3859 11.052 13.2213 11.1077 13.0683 11.2101C12.9165 11.3119 12.7708 11.4293 12.6621 11.5769C12.5971 11.6653 12.5505 11.7741 12.4989 11.8949C12.3579 12.2267 12.312 12.5667 12.3621 12.9058C12.3649 12.9239 12.3681 12.9404 12.372 12.9567C12.4096 13.1561 12.4708 13.3323 12.5575 13.4974C12.6073 13.5922 12.6994 13.6593 12.8021 13.6908L15.3598 14.4646L18.8824 15.5302C19.1833 15.6215 19.4713 15.6676 19.7381 15.6676C20.5776 15.6676 21.2271 15.2064 21.486 14.43C21.4975 14.3959 21.4914 14.3571 21.471 14.3275" fill="#52DE97"/>
<path fill-rule="evenodd" clip-rule="evenodd" d="M23.0393 18.3966C22.7734 17.9153 22.2878 17.5718 21.5959 17.3756L13.9051 15.1942C13.805 15.1656 13.6969 15.1907 13.6198 15.2607L12.8801 15.9283C12.8246 15.9786 12.7522 16.0063 12.6773 16.0063H11.9047H11.6248H11.3452H10.5723C10.4974 16.0063 10.4253 15.9786 10.3695 15.9283L9.63011 15.2607C9.55264 15.1907 9.44487 15.1656 9.34475 15.1942L1.654 17.3756C0.962113 17.5718 0.476519 17.9153 0.210606 18.3966C-0.00365493 18.7846 -0.0562636 19.2474 0.0607509 19.7067C0.0696784 19.7417 0.0958233 19.7706 0.129302 19.7843L2.85858 20.9062C2.90098 20.9233 2.94498 20.8842 2.93223 20.8403L2.45365 19.1603C2.44536 19.1313 2.46226 19.1008 2.49159 19.0925L7.55478 17.6561C7.61695 17.6386 7.65968 17.7175 7.6109 17.7598L3.75069 21.0926C3.20675 21.562 2.91214 22.0783 2.87484 22.6266C2.84487 23.0684 2.99345 23.5099 3.29443 23.877C3.31707 23.905 3.3531 23.9205 3.38913 23.9186L6.33777 23.7841C6.38368 23.7822 6.40695 23.7281 6.37666 23.6934L5.23139 22.3731C5.21162 22.3502 5.21417 22.3152 5.23713 22.2958L9.21721 18.8591C9.266 18.8167 9.33837 18.8702 9.31191 18.9293L7.22542 23.5773C6.93145 24.2322 6.88298 24.8242 7.08162 25.3366C7.24136 25.7495 7.56339 26.0876 7.99159 26.2934C8.02379 26.3089 8.06333 26.308 8.09521 26.2911L10.7103 24.926C10.7512 24.9047 10.7492 24.8458 10.7075 24.8274L9.10977 24.1136C9.08203 24.1012 9.06959 24.0688 9.08203 24.0411L11.5696 18.4875C11.591 18.4402 11.6589 18.4402 11.6799 18.4875L14.1679 24.0411C14.1803 24.0688 14.1679 24.1012 14.1401 24.1136L12.5424 24.8274C12.5006 24.8458 12.4987 24.9047 12.5395 24.926L15.1547 26.2911C15.1865 26.308 15.2258 26.3089 15.2583 26.2934C15.6865 26.0876 16.0082 25.7495 16.1683 25.3366C16.3669 24.8242 16.3184 24.2322 16.0245 23.5773L13.938 18.9293C13.9115 18.8702 13.9836 18.8167 14.0323 18.8591L18.0128 22.2958C18.0357 22.3152 18.0383 22.3502 18.0185 22.3731L16.8729 23.6934C16.8429 23.7281 16.8662 23.7822 16.9121 23.7841L19.8608 23.9186C19.8968 23.9205 19.9328 23.905 19.9554 23.877C20.2564 23.5099 20.405 23.0684 20.375 22.6266C20.3377 22.0783 20.0431 21.562 19.4992 21.0926L15.639 17.7598C15.5902 17.7175 15.6329 17.6386 15.6951 17.6561L20.7583 19.0925C20.7876 19.1008 20.8045 19.1313 20.7962 19.1603L20.3173 20.8403C20.3049 20.8842 20.3489 20.9233 20.3913 20.9062L23.1206 19.7843C23.1541 19.7706 23.1799 19.7417 23.1888 19.7067C23.3058 19.2474 23.2535 18.7846 23.0393 18.3966" fill="#52DE97"/>
</g>
</svg>
