<svg width="100" height="30" viewBox="0 0 100 30" fill="none" xmlns="http://www.w3.org/2000/svg">
<path d="M30.2937 19.5976L27.4717 14.7526H25.6017V19.5976H24.0547V7.74858H27.8797C28.775 7.74858 29.5287 7.90158 30.1407 8.20758C30.764 8.51358 31.2287 8.92724 31.5347 9.44858C31.8407 9.96991 31.9937 10.5649 31.9937 11.2336C31.9937 12.0496 31.7557 12.7692 31.2797 13.3926C30.815 14.0159 30.1124 14.4296 29.1717 14.6336L32.1467 19.5976H30.2937ZM25.6017 13.5116H27.8797C28.7184 13.5116 29.3474 13.3076 29.7667 12.8996C30.186 12.4802 30.3957 11.9249 30.3957 11.2336C30.3957 10.5309 30.186 9.98691 29.7667 9.60158C29.3587 9.21624 28.7297 9.02358 27.8797 9.02358H25.6017V13.5116Z" fill="#394253"/>
<path d="M42.8975 14.5826C42.8975 14.8772 42.8805 15.1889 42.8465 15.5176H35.4005C35.4571 16.4356 35.7688 17.1552 36.3355 17.6766C36.9135 18.1866 37.6105 18.4416 38.4265 18.4416C39.0951 18.4416 39.6505 18.2886 40.0925 17.9826C40.5458 17.6652 40.8631 17.2459 41.0445 16.7246H42.7105C42.4611 17.6199 41.9625 18.3509 41.2145 18.9176C40.4665 19.4729 39.5371 19.7506 38.4265 19.7506C37.5425 19.7506 36.7491 19.5522 36.0465 19.1556C35.3551 18.7589 34.8111 18.1979 34.4145 17.4726C34.0178 16.7359 33.8195 15.8859 33.8195 14.9226C33.8195 13.9592 34.0121 13.1149 34.3975 12.3896C34.7828 11.6642 35.3211 11.1089 36.0125 10.7236C36.7151 10.3269 37.5198 10.1286 38.4265 10.1286C39.3105 10.1286 40.0925 10.3212 40.7725 10.7066C41.4525 11.0919 41.9738 11.6246 42.3365 12.3046C42.7105 12.9732 42.8975 13.7326 42.8975 14.5826ZM41.2995 14.2596C41.2995 13.6702 41.1691 13.1659 40.9085 12.7466C40.6478 12.3159 40.2908 11.9929 39.8375 11.7776C39.3955 11.5509 38.9025 11.4376 38.3585 11.4376C37.5765 11.4376 36.9078 11.6869 36.3525 12.1856C35.8085 12.6842 35.4968 13.3756 35.4175 14.2596H41.2995Z" fill="#394253"/>
<path d="M44.3615 14.9056C44.3615 13.9536 44.5541 13.1206 44.9395 12.4066C45.3248 11.6812 45.8518 11.1202 46.5205 10.7236C47.2005 10.3269 47.9541 10.1286 48.7815 10.1286C49.5975 10.1286 50.3058 10.3042 50.9065 10.6556C51.5071 11.0069 51.9548 11.4489 52.2495 11.9816V10.2816H53.8135V19.5976H52.2495V17.8636C51.9435 18.4076 51.4845 18.8609 50.8725 19.2236C50.2718 19.5749 49.5691 19.7506 48.7645 19.7506C47.9371 19.7506 47.1891 19.5466 46.5205 19.1386C45.8518 18.7306 45.3248 18.1582 44.9395 17.4216C44.5541 16.6849 44.3615 15.8462 44.3615 14.9056ZM52.2495 14.9226C52.2495 14.2199 52.1078 13.6079 51.8245 13.0866C51.5411 12.5652 51.1558 12.1686 50.6685 11.8966C50.1925 11.6132 49.6655 11.4716 49.0875 11.4716C48.5095 11.4716 47.9825 11.6076 47.5065 11.8796C47.0305 12.1516 46.6508 12.5482 46.3675 13.0696C46.0841 13.5909 45.9425 14.2029 45.9425 14.9056C45.9425 15.6196 46.0841 16.2429 46.3675 16.7756C46.6508 17.2969 47.0305 17.6992 47.5065 17.9826C47.9825 18.2546 48.5095 18.3906 49.0875 18.3906C49.6655 18.3906 50.1925 18.2546 50.6685 17.9826C51.1558 17.6992 51.5411 17.2969 51.8245 16.7756C52.1078 16.2429 52.2495 15.6252 52.2495 14.9226Z" fill="#394253"/>
<path d="M55.8497 14.9056C55.8497 13.9536 56.0424 13.1206 56.4277 12.4066C56.8131 11.6812 57.3401 11.1202 58.0087 10.7236C58.6887 10.3269 59.4481 10.1286 60.2867 10.1286C61.0121 10.1286 61.6864 10.2986 62.3097 10.6386C62.9331 10.9672 63.4091 11.4036 63.7377 11.9476V7.01758H65.3017V19.5976H63.7377V17.8466C63.4317 18.4019 62.9784 18.8609 62.3777 19.2236C61.7771 19.5749 61.0744 19.7506 60.2697 19.7506C59.4424 19.7506 58.6887 19.5466 58.0087 19.1386C57.3401 18.7306 56.8131 18.1582 56.4277 17.4216C56.0424 16.6849 55.8497 15.8462 55.8497 14.9056ZM63.7377 14.9226C63.7377 14.2199 63.5961 13.6079 63.3127 13.0866C63.0294 12.5652 62.6441 12.1686 62.1567 11.8966C61.6807 11.6132 61.1537 11.4716 60.5757 11.4716C59.9977 11.4716 59.4707 11.6076 58.9947 11.8796C58.5187 12.1516 58.1391 12.5482 57.8557 13.0696C57.5724 13.5909 57.4307 14.2029 57.4307 14.9056C57.4307 15.6196 57.5724 16.2429 57.8557 16.7756C58.1391 17.2969 58.5187 17.6992 58.9947 17.9826C59.4707 18.2546 59.9977 18.3906 60.5757 18.3906C61.1537 18.3906 61.6807 18.2546 62.1567 17.9826C62.6441 17.6992 63.0294 17.2969 63.3127 16.7756C63.5961 16.2429 63.7377 15.6252 63.7377 14.9226Z" fill="#394253"/>
<path d="M75.94 10.2816L70.33 23.9836H68.732L70.568 19.4956L66.811 10.2816H68.528L71.452 17.8296L74.342 10.2816H75.94Z" fill="#394253"/>
</svg>
