<svg width="100" height="22" viewBox="0 0 100 22" fill="none" xmlns="http://www.w3.org/2000/svg">
<path d="M30.2937 15.58L27.4717 10.735H25.6017V15.58H24.0547V3.731H27.8797C28.775 3.731 29.5287 3.884 30.1407 4.19C30.764 4.496 31.2287 4.90967 31.5347 5.431C31.8407 5.95233 31.9937 6.54733 31.9937 7.216C31.9937 8.032 31.7557 8.75167 31.2797 9.375C30.815 9.99833 30.1124 10.412 29.1717 10.616L32.1467 15.58H30.2937ZM25.6017 9.494H27.8797C28.7184 9.494 29.3474 9.29 29.7667 8.882C30.186 8.46267 30.3957 7.90733 30.3957 7.216C30.3957 6.51333 30.186 5.96933 29.7667 5.584C29.3587 5.19867 28.7297 5.006 27.8797 5.006H25.6017V9.494Z" fill="#394253"/>
<path d="M42.8975 10.565C42.8975 10.8597 42.8805 11.1713 42.8465 11.5H35.4005C35.4571 12.418 35.7688 13.1377 36.3355 13.659C36.9135 14.169 37.6105 14.424 38.4265 14.424C39.0951 14.424 39.6505 14.271 40.0925 13.965C40.5458 13.6477 40.8631 13.2283 41.0445 12.707H42.7105C42.4611 13.6023 41.9625 14.3333 41.2145 14.9C40.4665 15.4553 39.5371 15.733 38.4265 15.733C37.5425 15.733 36.7491 15.5347 36.0465 15.138C35.3551 14.7413 34.8111 14.1803 34.4145 13.455C34.0178 12.7183 33.8195 11.8683 33.8195 10.905C33.8195 9.94167 34.0121 9.09733 34.3975 8.372C34.7828 7.64667 35.3211 7.09133 36.0125 6.706C36.7151 6.30933 37.5198 6.111 38.4265 6.111C39.3105 6.111 40.0925 6.30367 40.7725 6.689C41.4525 7.07433 41.9738 7.607 42.3365 8.287C42.7105 8.95567 42.8975 9.715 42.8975 10.565ZM41.2995 10.242C41.2995 9.65267 41.1691 9.14833 40.9085 8.729C40.6478 8.29833 40.2908 7.97533 39.8375 7.76C39.3955 7.53333 38.9025 7.42 38.3585 7.42C37.5765 7.42 36.9078 7.66933 36.3525 8.168C35.8085 8.66667 35.4968 9.358 35.4175 10.242H41.2995Z" fill="#394253"/>
<path d="M44.3615 10.888C44.3615 9.936 44.5541 9.103 44.9395 8.389C45.3248 7.66367 45.8518 7.10267 46.5205 6.706C47.2005 6.30933 47.9541 6.111 48.7815 6.111C49.5975 6.111 50.3058 6.28667 50.9065 6.638C51.5071 6.98933 51.9548 7.43133 52.2495 7.964V6.264H53.8135V15.58H52.2495V13.846C51.9435 14.39 51.4845 14.8433 50.8725 15.206C50.2718 15.5573 49.5691 15.733 48.7645 15.733C47.9371 15.733 47.1891 15.529 46.5205 15.121C45.8518 14.713 45.3248 14.1407 44.9395 13.404C44.5541 12.6673 44.3615 11.8287 44.3615 10.888ZM52.2495 10.905C52.2495 10.2023 52.1078 9.59033 51.8245 9.069C51.5411 8.54767 51.1558 8.151 50.6685 7.879C50.1925 7.59567 49.6655 7.454 49.0875 7.454C48.5095 7.454 47.9825 7.59 47.5065 7.862C47.0305 8.134 46.6508 8.53067 46.3675 9.052C46.0841 9.57333 45.9425 10.1853 45.9425 10.888C45.9425 11.602 46.0841 12.2253 46.3675 12.758C46.6508 13.2793 47.0305 13.6817 47.5065 13.965C47.9825 14.237 48.5095 14.373 49.0875 14.373C49.6655 14.373 50.1925 14.237 50.6685 13.965C51.1558 13.6817 51.5411 13.2793 51.8245 12.758C52.1078 12.2253 52.2495 11.6077 52.2495 10.905Z" fill="#394253"/>
<path d="M55.8497 10.888C55.8497 9.936 56.0424 9.103 56.4277 8.389C56.8131 7.66367 57.3401 7.10267 58.0087 6.706C58.6887 6.30933 59.4481 6.111 60.2867 6.111C61.0121 6.111 61.6864 6.281 62.3097 6.621C62.9331 6.94967 63.4091 7.386 63.7377 7.93V3H65.3017V15.58H63.7377V13.829C63.4317 14.3843 62.9784 14.8433 62.3777 15.206C61.7771 15.5573 61.0744 15.733 60.2697 15.733C59.4424 15.733 58.6887 15.529 58.0087 15.121C57.3401 14.713 56.8131 14.1407 56.4277 13.404C56.0424 12.6673 55.8497 11.8287 55.8497 10.888ZM63.7377 10.905C63.7377 10.2023 63.5961 9.59033 63.3127 9.069C63.0294 8.54767 62.6441 8.151 62.1567 7.879C61.6807 7.59567 61.1537 7.454 60.5757 7.454C59.9977 7.454 59.4707 7.59 58.9947 7.862C58.5187 8.134 58.1391 8.53067 57.8557 9.052C57.5724 9.57333 57.4307 10.1853 57.4307 10.888C57.4307 11.602 57.5724 12.2253 57.8557 12.758C58.1391 13.2793 58.5187 13.6817 58.9947 13.965C59.4707 14.237 59.9977 14.373 60.5757 14.373C61.1537 14.373 61.6807 14.237 62.1567 13.965C62.6441 13.6817 63.0294 13.2793 63.3127 12.758C63.5961 12.2253 63.7377 11.6077 63.7377 10.905Z" fill="#394253"/>
<path d="M75.94 6.264L70.33 19.966H68.732L70.568 15.478L66.811 6.264H68.528L71.452 13.812L74.342 6.264H75.94Z" fill="#394253"/>
</svg>
