<svg width="44" height="14" viewBox="0 0 44 14" fill="none" xmlns="http://www.w3.org/2000/svg">
<path d="M2.33606 11.7419H6.48406V12.9999H0.789062V1.15092H2.33606V11.7419Z" fill="#13115B"/>
<path d="M7.54895 8.30792C7.54895 7.35592 7.74162 6.52292 8.12695 5.80892C8.51229 5.08359 9.03928 4.52259 9.70795 4.12592C10.388 3.72925 11.1416 3.53092 11.969 3.53092C12.785 3.53092 13.4933 3.70659 14.094 4.05792C14.6946 4.40925 15.1423 4.85125 15.437 5.38392V3.68392H17.0009V12.9999H15.437V11.2659C15.131 11.8099 14.672 12.2633 14.06 12.6259C13.4593 12.9773 12.7566 13.1529 11.952 13.1529C11.1246 13.1529 10.3766 12.9489 9.70795 12.5409C9.03928 12.1329 8.51229 11.5606 8.12695 10.8239C7.74162 10.0873 7.54895 9.24859 7.54895 8.30792ZM15.437 8.32492C15.437 7.62225 15.2953 7.01025 15.012 6.48892C14.7286 5.96759 14.3433 5.57092 13.856 5.29892C13.38 5.01559 12.853 4.87392 12.275 4.87392C11.697 4.87392 11.17 5.00992 10.694 5.28192C10.218 5.55392 9.83828 5.95059 9.55495 6.47192C9.27162 6.99326 9.12995 7.60525 9.12995 8.30792C9.12995 9.02192 9.27162 9.64525 9.55495 10.1779C9.83828 10.6993 10.218 11.1016 10.694 11.3849C11.17 11.6569 11.697 11.7929 12.275 11.7929C12.853 11.7929 13.38 11.6569 13.856 11.3849C14.3433 11.1016 14.7286 10.6993 15.012 10.1779C15.2953 9.64525 15.437 9.02759 15.437 8.32492Z" fill="#13115B"/>
<path d="M21.1622 5.41792C21.4796 4.86259 21.9442 4.40925 22.5562 4.05792C23.1682 3.70659 23.8652 3.53092 24.6472 3.53092C25.4859 3.53092 26.2396 3.72925 26.9082 4.12592C27.5769 4.52259 28.1039 5.08359 28.4892 5.80892C28.8746 6.52292 29.0672 7.35592 29.0672 8.30792C29.0672 9.24859 28.8746 10.0873 28.4892 10.8239C28.1039 11.5606 27.5712 12.1329 26.8912 12.5409C26.2226 12.9489 25.4746 13.1529 24.6472 13.1529C23.8426 13.1529 23.1342 12.9773 22.5222 12.6259C21.9216 12.2746 21.4682 11.8269 21.1622 11.2829V12.9999H19.6152V0.419922H21.1622V5.41792ZM27.4862 8.30792C27.4862 7.60525 27.3446 6.99326 27.0612 6.47192C26.7779 5.95059 26.3926 5.55392 25.9052 5.28192C25.4292 5.00992 24.9022 4.87392 24.3242 4.87392C23.7576 4.87392 23.2306 5.01559 22.7432 5.29892C22.2672 5.57092 21.8819 5.97325 21.5872 6.50592C21.3039 7.02725 21.1622 7.63359 21.1622 8.32492C21.1622 9.02759 21.3039 9.64525 21.5872 10.1779C21.8819 10.6993 22.2672 11.1016 22.7432 11.3849C23.2306 11.6569 23.7576 11.7929 24.3242 11.7929C24.9022 11.7929 25.4292 11.6569 25.9052 11.3849C26.3926 11.1016 26.7779 10.6993 27.0612 10.1779C27.3446 9.64525 27.4862 9.02192 27.4862 8.30792Z" fill="#13115B"/>
<path d="M39.6035 7.98492C39.6035 8.27959 39.5865 8.59126 39.5525 8.91992H32.1065C32.1632 9.83792 32.4748 10.5576 33.0415 11.0789C33.6195 11.5889 34.3165 11.8439 35.1325 11.8439C35.8012 11.8439 36.3565 11.6909 36.7985 11.3849C37.2518 11.0676 37.5692 10.6483 37.7505 10.1269H39.4165C39.1672 11.0223 38.6685 11.7533 37.9205 12.3199C37.1725 12.8753 36.2432 13.1529 35.1325 13.1529C34.2485 13.1529 33.4552 12.9546 32.7525 12.5579C32.0612 12.1613 31.5172 11.6003 31.1205 10.8749C30.7238 10.1383 30.5255 9.28825 30.5255 8.32492C30.5255 7.36159 30.7182 6.51725 31.1035 5.79192C31.4888 5.06659 32.0272 4.51125 32.7185 4.12592C33.4212 3.72925 34.2258 3.53092 35.1325 3.53092C36.0165 3.53092 36.7985 3.72359 37.4785 4.10892C38.1585 4.49426 38.6798 5.02692 39.0425 5.70692C39.4165 6.37559 39.6035 7.13492 39.6035 7.98492ZM38.0055 7.66192C38.0055 7.07259 37.8752 6.56825 37.6145 6.14892C37.3538 5.71825 36.9968 5.39526 36.5435 5.17992C36.1015 4.95326 35.6085 4.83992 35.0645 4.83992C34.2825 4.83992 33.6138 5.08925 33.0585 5.58792C32.5145 6.08659 32.2029 6.77792 32.1235 7.66192H38.0055Z" fill="#13115B"/>
<path d="M43.1925 0.419922V12.9999H41.6455V0.419922H43.1925Z" fill="#13115B"/>
</svg>
