<svg width="58" height="14" viewBox="0 0 58 14" fill="none" xmlns="http://www.w3.org/2000/svg">
<path d="M4.17513 13.1185C3.39313 13.1185 2.69046 12.9825 2.06712 12.7105C1.45512 12.4272 0.973457 12.0418 0.622124 11.5545C0.27079 11.0558 0.0894583 10.4835 0.078125 9.8375H1.72713C1.78379 10.3928 2.01045 10.8632 2.40712 11.2485C2.81512 11.6225 3.40446 11.8095 4.17513 11.8095C4.91179 11.8095 5.48979 11.6282 5.90913 11.2655C6.33979 10.8915 6.55512 10.4155 6.55512 9.8375C6.55512 9.38417 6.43046 9.01583 6.18112 8.7325C5.93179 8.44917 5.62012 8.23383 5.24612 8.0865C4.87212 7.93917 4.36779 7.7805 3.73312 7.6105C2.95112 7.4065 2.32212 7.2025 1.84612 6.9985C1.38146 6.7945 0.979122 6.47717 0.639122 6.0465C0.310455 5.6045 0.146126 5.01517 0.146126 4.2785C0.146126 3.6325 0.310455 3.06017 0.639122 2.5615C0.967789 2.06283 1.42679 1.6775 2.01612 1.4055C2.61679 1.1335 3.30245 0.9975 4.07312 0.9975C5.18379 0.9975 6.09045 1.27517 6.79312 1.8305C7.50712 2.38583 7.90946 3.1225 8.00012 4.0405H6.30013C6.24346 3.58717 6.00545 3.1905 5.58612 2.8505C5.16679 2.49917 4.61145 2.3235 3.92012 2.3235C3.27412 2.3235 2.74713 2.4935 2.33913 2.8335C1.93113 3.16217 1.72713 3.62683 1.72713 4.2275C1.72713 4.65817 1.84612 5.0095 2.08412 5.2815C2.33346 5.5535 2.63379 5.76317 2.98512 5.9105C3.34779 6.0465 3.85212 6.20517 4.49812 6.3865C5.28012 6.60183 5.90912 6.81717 6.38512 7.0325C6.86112 7.2365 7.26912 7.5595 7.60912 8.0015C7.94912 8.43217 8.11913 9.0215 8.11913 9.7695C8.11913 10.3475 7.96613 10.8915 7.66013 11.4015C7.35413 11.9115 6.90079 12.3252 6.30013 12.6425C5.69946 12.9598 4.99113 13.1185 4.17513 13.1185Z" fill="#13115B"/>
<path d="M12.2827 4.9585V10.4495C12.2827 10.9028 12.379 11.2258 12.5717 11.4185C12.7643 11.5998 13.0987 11.6905 13.5747 11.6905H14.7137V12.9995H13.3197C12.4583 12.9995 11.8123 12.8012 11.3817 12.4045C10.951 12.0078 10.7357 11.3562 10.7357 10.4495V4.9585H9.52866V3.6835H10.7357V1.3375H12.2827V3.6835H14.7137V4.9585H12.2827Z" fill="#13115B"/>
<path d="M16.01 8.3075C16.01 7.3555 16.2027 6.5225 16.588 5.8085C16.9734 5.08317 17.5004 4.52217 18.169 4.1255C18.849 3.72883 19.6027 3.5305 20.43 3.5305C21.246 3.5305 21.9544 3.70617 22.555 4.0575C23.1557 4.40883 23.6034 4.85083 23.898 5.3835V3.6835H25.462V12.9995H23.898V11.2655C23.592 11.8095 23.133 12.2628 22.521 12.6255C21.9204 12.9768 21.2177 13.1525 20.413 13.1525C19.5857 13.1525 18.8377 12.9485 18.169 12.5405C17.5004 12.1325 16.9734 11.5602 16.588 10.8235C16.2027 10.0868 16.01 9.24817 16.01 8.3075ZM23.898 8.3245C23.898 7.62183 23.7564 7.00983 23.473 6.4885C23.1897 5.96717 22.8044 5.5705 22.317 5.2985C21.841 5.01517 21.314 4.8735 20.736 4.8735C20.158 4.8735 19.631 5.0095 19.155 5.2815C18.679 5.5535 18.2994 5.95017 18.016 6.4715C17.7327 6.99283 17.591 7.60483 17.591 8.3075C17.591 9.0215 17.7327 9.64483 18.016 10.1775C18.2994 10.6988 18.679 11.1012 19.155 11.3845C19.631 11.6565 20.158 11.7925 20.736 11.7925C21.314 11.7925 21.841 11.6565 22.317 11.3845C22.8044 11.1012 23.1897 10.6988 23.473 10.1775C23.7564 9.64483 23.898 9.02717 23.898 8.3245Z" fill="#13115B"/>
<path d="M29.9633 4.9585V10.4495C29.9633 10.9028 30.0597 11.2258 30.2523 11.4185C30.445 11.5998 30.7793 11.6905 31.2553 11.6905H32.3943V12.9995H31.0003C30.139 12.9995 29.493 12.8012 29.0623 12.4045C28.6317 12.0078 28.4163 11.3562 28.4163 10.4495V4.9585H27.2093V3.6835H28.4163V1.3375H29.9633V3.6835H32.3943V4.9585H29.9633Z" fill="#13115B"/>
<path d="M35.0677 2.1705C34.773 2.1705 34.5237 2.0685 34.3197 1.8645C34.1157 1.6605 34.0137 1.41117 34.0137 1.1165C34.0137 0.821834 34.1157 0.5725 34.3197 0.3685C34.5237 0.1645 34.773 0.0625 35.0677 0.0625C35.351 0.0625 35.589 0.1645 35.7817 0.3685C35.9857 0.5725 36.0877 0.821834 36.0877 1.1165C36.0877 1.41117 35.9857 1.6605 35.7817 1.8645C35.589 2.0685 35.351 2.1705 35.0677 2.1705ZM35.8157 3.6835V12.9995H34.2687V3.6835H35.8157Z" fill="#13115B"/>
<path d="M42.5153 13.1525C41.6426 13.1525 40.8493 12.9542 40.1353 12.5575C39.4326 12.1608 38.8773 11.5998 38.4693 10.8745C38.0726 10.1378 37.8743 9.28783 37.8743 8.3245C37.8743 7.3725 38.0783 6.53383 38.4863 5.8085C38.9056 5.07183 39.4723 4.51083 40.1863 4.1255C40.9003 3.72883 41.6993 3.5305 42.5833 3.5305C43.4673 3.5305 44.2663 3.72883 44.9803 4.1255C45.6943 4.51083 46.2553 5.06617 46.6633 5.7915C47.0826 6.51683 47.2923 7.36117 47.2923 8.3245C47.2923 9.28783 47.077 10.1378 46.6463 10.8745C46.227 11.5998 45.6546 12.1608 44.9293 12.5575C44.204 12.9542 43.3993 13.1525 42.5153 13.1525ZM42.5153 11.7925C43.0706 11.7925 43.592 11.6622 44.0793 11.4015C44.5666 11.1408 44.9576 10.7498 45.2523 10.2285C45.5583 9.70717 45.7113 9.0725 45.7113 8.3245C45.7113 7.5765 45.564 6.94183 45.2693 6.4205C44.9746 5.89917 44.5893 5.51383 44.1133 5.2645C43.6373 5.00383 43.1216 4.8735 42.5663 4.8735C41.9996 4.8735 41.4783 5.00383 41.0023 5.2645C40.5376 5.51383 40.1636 5.89917 39.8803 6.4205C39.597 6.94183 39.4553 7.5765 39.4553 8.3245C39.4553 9.08383 39.5913 9.72417 39.8633 10.2455C40.1466 10.7668 40.5206 11.1578 40.9853 11.4185C41.45 11.6678 41.96 11.7925 42.5153 11.7925Z" fill="#13115B"/>
<path d="M53.8653 3.5135C54.9987 3.5135 55.9167 3.85917 56.6193 4.5505C57.322 5.2305 57.6733 6.2165 57.6733 7.5085V12.9995H56.1433V7.7295C56.1433 6.80017 55.911 6.09183 55.4463 5.6045C54.9817 5.10583 54.347 4.8565 53.5423 4.8565C52.7263 4.8565 52.0747 5.1115 51.5873 5.6215C51.1113 6.1315 50.8733 6.87383 50.8733 7.8485V12.9995H49.3263V3.6835H50.8733V5.0095C51.1793 4.5335 51.593 4.16517 52.1143 3.9045C52.647 3.64383 53.2307 3.5135 53.8653 3.5135Z" fill="#13115B"/>
</svg>
