<svg width="56" height="33" viewBox="0 0 56 33" fill="none" xmlns="http://www.w3.org/2000/svg">
<path d="M10 11.632V10.221H13.196V22.512H11.632V11.632H10Z" fill="#212935"/>
<path d="M15.8533 16.239C15.8533 14.2897 16.1706 12.771 16.8053 11.683C17.44 10.5837 18.5506 10.034 20.1373 10.034C21.7126 10.034 22.8176 10.5837 23.4523 11.683C24.087 12.771 24.4043 14.2897 24.4043 16.239C24.4043 18.2223 24.087 19.7637 23.4523 20.863C22.8176 21.9623 21.7126 22.512 20.1373 22.512C18.5506 22.512 17.44 21.9623 16.8053 20.863C16.1706 19.7637 15.8533 18.2223 15.8533 16.239ZM22.8743 16.239C22.8743 15.253 22.8063 14.42 22.6703 13.74C22.5456 13.0487 22.2793 12.4933 21.8713 12.074C21.4746 11.6547 20.8966 11.445 20.1373 11.445C19.3666 11.445 18.7773 11.6547 18.3693 12.074C17.9726 12.4933 17.7063 13.0487 17.5703 13.74C17.4456 14.42 17.3833 15.253 17.3833 16.239C17.3833 17.259 17.4456 18.1147 17.5703 18.806C17.7063 19.4973 17.9726 20.0527 18.3693 20.472C18.7773 20.8913 19.3666 21.101 20.1373 21.101C20.8966 21.101 21.4746 20.8913 21.8713 20.472C22.2793 20.0527 22.5456 19.4973 22.6703 18.806C22.8063 18.1147 22.8743 17.259 22.8743 16.239Z" fill="#212935"/>
<path d="M26.3411 21.271C27.7805 20.115 28.9081 19.1687 29.7241 18.432C30.5401 17.684 31.2258 16.9077 31.7811 16.103C32.3478 15.287 32.6311 14.488 32.6311 13.706C32.6311 12.9693 32.4498 12.3913 32.0871 11.972C31.7358 11.5413 31.1635 11.326 30.3701 11.326C29.5995 11.326 28.9988 11.5697 28.5681 12.057C28.1488 12.533 27.9221 13.1733 27.8881 13.978H26.3921C26.4375 12.7087 26.8228 11.7283 27.5481 11.037C28.2735 10.3457 29.2085 10 30.3531 10C31.5205 10 32.4441 10.323 33.1241 10.969C33.8155 11.615 34.1611 12.5047 34.1611 13.638C34.1611 14.5787 33.8778 15.4967 33.3111 16.392C32.7558 17.276 32.1211 18.058 31.4071 18.738C30.6931 19.4067 29.7808 20.1887 28.6701 21.084H34.5181V22.376H26.3411V21.271Z" fill="#212935"/>
<path d="M42.9874 22.512L38.1084 17.106V22.512H36.5614V10.663H38.1084V16.154L43.0044 10.663H44.9594L39.5874 16.596L45.0104 22.512H42.9874Z" fill="#212935"/>
</svg>
