<svg width="110" height="27" viewBox="0 0 110 27" fill="none" xmlns="http://www.w3.org/2000/svg">
<path fill-rule="evenodd" clip-rule="evenodd" d="M57.6472 16.6558C57.6472 13.9337 55.731 12.0873 53.1331 12.0873C50.5671 12.0873 48.6508 13.9337 48.6508 16.6558C48.6508 19.3775 50.5671 21.2243 53.1331 21.2243C55.731 21.2243 57.6472 19.3775 57.6472 16.6558V16.6558ZM61.8374 8.55513V24.7561H57.6472V22.8442C56.478 24.3023 54.7244 25.2097 52.3532 25.2097C48.0339 25.2097 44.4609 21.4835 44.4609 16.6558C44.4609 11.8278 48.0339 8.10156 52.3532 8.10156C54.7244 8.10156 56.478 9.00902 57.6472 10.4671V8.55513H61.8374Z" fill="white"/>
<path fill-rule="evenodd" clip-rule="evenodd" d="M80.8007 14.8088V24.7558H76.6108V15.3269C76.6108 13.1239 75.2793 11.9897 73.3953 11.9897C71.349 11.9897 69.8227 13.1885 69.8227 16.0076V24.7558H65.6328V8.55513H69.8227V10.3697C70.7971 8.91137 72.486 8.10156 74.6621 8.10156C78.1049 8.10156 80.8007 10.4992 80.8007 14.8088" fill="white"/>
<path fill-rule="evenodd" clip-rule="evenodd" d="M89.9917 12.5734V19.3128C89.9917 21.0625 91.2588 21.0949 93.6622 20.9655V24.7566C87.7831 25.4045 85.8021 23.6869 85.8021 19.3128V12.5734H82.9766V8.55556H85.8021V5.28323L89.9917 4.01953V8.55556H93.6622V12.5734H89.9917Z" fill="white"/>
<mask id="mask0_49_9506" style="mask-type:alpha" maskUnits="userSpaceOnUse" x="0" y="0" width="110" height="27">
<path fill-rule="evenodd" clip-rule="evenodd" d="M0 26.3049H109.838V0.318359H0V26.3049Z" fill="white"/>
</mask>
<g mask="url(#mask0_49_9506)">
<path fill-rule="evenodd" clip-rule="evenodd" d="M96.62 24.7556H100.81V8.55454H96.62V24.7556ZM96.1328 4.05096C96.1328 2.65748 97.302 1.45898 98.6985 1.45898C100.128 1.45898 101.297 2.65748 101.297 4.05096C101.297 5.44411 100.128 6.61048 98.6985 6.61048C97.302 6.61048 96.1328 5.44411 96.1328 4.05096V4.05096Z" fill="white"/>
<path fill-rule="evenodd" clip-rule="evenodd" d="M104.32 22.4241C104.32 20.9012 105.555 19.6699 107.081 19.6699C108.608 19.6699 109.842 20.9012 109.842 22.4241C109.842 23.947 108.608 25.1783 107.081 25.1783C105.555 25.1783 104.32 23.947 104.32 22.4241" fill="#52DE97"/>
<path fill-rule="evenodd" clip-rule="evenodd" d="M21.4708 14.328L19.7832 11.9116C19.7567 11.8741 19.6987 11.8833 19.6853 11.9272L19.1774 13.5984C19.1506 13.6127 19.1356 13.6203 19.1088 13.6346L14.6176 12.2758C14.7841 12.1413 15.0324 11.9727 15.4023 11.773C16.3352 11.2691 16.934 10.5691 17.3198 9.86739H17.3262C17.3632 9.79996 17.3903 9.72712 17.425 9.65841C17.4598 9.58717 17.4942 9.51624 17.5251 9.44562C18.1386 8.10686 18.334 6.54703 17.8248 4.9115C17.1365 2.7009 15.3057 0.967725 13.0394 0.472486C8.8871 -0.434338 5.13339 2.78773 5.13339 6.79449C5.13339 7.73726 5.35116 8.63104 5.72325 9.4434C5.75513 9.51624 5.79052 9.58939 5.82687 9.66287C5.86067 9.7303 5.88713 9.80155 5.92316 9.86739H5.92985C6.31565 10.5691 6.91443 11.2691 7.84704 11.773C8.2169 11.9727 8.46527 12.1413 8.63171 12.2758L4.14084 13.6346C4.11406 13.6203 4.09875 13.6127 4.07197 13.5984L3.56406 11.9272C3.55067 11.8833 3.49264 11.8741 3.46617 11.9116L1.77855 14.328C1.75814 14.3576 1.75209 14.3964 1.76356 14.4305C2.02246 15.2069 2.67194 15.6681 3.51145 15.6681C3.77832 15.6681 4.06623 15.622 4.36754 15.5307L7.88977 14.4651L10.4475 13.6913C10.5505 13.6598 10.6423 13.5923 10.6924 13.4979C10.7791 13.3325 10.8403 13.1566 10.8779 12.9571C10.8814 12.9409 10.8846 12.9244 10.8875 12.9062C10.9376 12.5672 10.8917 12.2272 10.7507 11.8954C10.6991 11.7745 10.6481 11.6686 10.5875 11.5773C10.5243 11.4819 10.436 11.4037 10.3474 11.3324C10.1956 11.21 10.0569 11.1289 9.87806 11.0544C9.72438 10.9905 9.57452 10.918 9.42881 10.8378C9.13898 10.6782 8.86606 10.4879 8.61609 10.2713C8.11423 9.83685 7.70548 9.2974 7.42458 8.69656C7.1373 8.08205 6.98681 7.40742 6.98681 6.7296C6.98681 4.17008 9.08638 2.05426 11.625 2.05426C14.1633 2.05426 16.2625 4.17008 16.2625 6.7296C16.2625 7.41251 16.1098 8.09254 15.8184 8.71024C15.5349 9.31172 15.123 9.85117 14.6183 10.2847C14.4043 10.4682 14.1741 10.633 13.9312 10.7752C13.8074 10.8477 13.6806 10.9145 13.5511 10.9749C13.3856 11.0525 13.2211 11.1082 13.0681 11.2106C12.9163 11.3124 12.7706 11.4298 12.6619 11.5773C12.5968 11.6658 12.5503 11.7745 12.4986 11.8954C12.3577 12.2272 12.3118 12.5672 12.3618 12.9062C12.3647 12.9244 12.3679 12.9409 12.3717 12.9571C12.4093 13.1566 12.4706 13.3328 12.5573 13.4979C12.607 13.5927 12.6992 13.6598 12.8018 13.6913L15.3596 14.4651L18.8821 15.5307C19.1831 15.622 19.471 15.6681 19.7379 15.6681C20.5774 15.6681 21.2269 15.2069 21.4858 14.4305C21.4972 14.3964 21.4912 14.3576 21.4708 14.328" fill="#52DE97"/>
<path fill-rule="evenodd" clip-rule="evenodd" d="M23.0394 18.3976C22.7735 17.9163 22.2879 17.5728 21.596 17.3765L13.9052 15.1952C13.8051 15.1666 13.697 15.1917 13.6199 15.2617L12.8802 15.9293C12.8247 15.9796 12.7523 16.0072 12.6774 16.0072H11.9048H11.6249H11.3453H10.5724C10.4975 16.0072 10.4254 15.9796 10.3696 15.9293L9.63024 15.2617C9.55276 15.1917 9.44499 15.1666 9.34487 15.1952L1.65412 17.3765C0.962235 17.5728 0.476641 17.9163 0.210728 18.3976C-0.00353286 18.7856 -0.0561415 19.2484 0.0608729 19.7077C0.0698005 19.7427 0.0959454 19.7716 0.129424 19.7853L2.8587 20.9071C2.9011 20.9243 2.9451 20.8852 2.93235 20.8413L2.45377 19.1612C2.44548 19.1323 2.46238 19.1018 2.49171 19.0935L7.5549 17.6571C7.61708 17.6396 7.6598 17.7185 7.61102 17.7608L3.75081 21.0935C3.20687 21.563 2.91226 22.0792 2.87496 22.6276C2.84499 23.0694 2.99357 23.5109 3.29455 23.8779C3.31719 23.9059 3.35322 23.9215 3.38925 23.9196L6.33789 23.7851C6.3838 23.7832 6.40708 23.7291 6.37679 23.6944L5.23151 22.3741C5.21174 22.3512 5.21429 22.3162 5.23725 22.2968L9.21734 18.86C9.26612 18.8177 9.3385 18.8712 9.31203 18.9303L7.22554 23.5783C6.93157 24.2332 6.8831 24.8252 7.08174 25.3376C7.24148 25.7504 7.56351 26.0885 7.99171 26.2943C8.02392 26.3099 8.06345 26.309 8.09534 26.2921L10.7105 24.9269C10.7513 24.9056 10.7494 24.8468 10.7076 24.8283L9.10989 24.1146C9.08215 24.1022 9.06971 24.0697 9.08215 24.0421L11.5697 18.4885C11.5911 18.4411 11.659 18.4411 11.6801 18.4885L14.168 24.0421C14.1804 24.0697 14.168 24.1022 14.1402 24.1146L12.5425 24.8283C12.5008 24.8468 12.4988 24.9056 12.5397 24.9269L15.1548 26.2921C15.1867 26.309 15.2259 26.3099 15.2584 26.2943C15.6866 26.0885 16.0083 25.7504 16.1684 25.3376C16.367 24.8252 16.3186 24.2332 16.0246 23.5783L13.9381 18.9303C13.9116 18.8712 13.9837 18.8177 14.0325 18.86L18.0129 22.2968C18.0358 22.3162 18.0384 22.3512 18.0186 22.3741L16.873 23.6944C16.843 23.7291 16.8663 23.7832 16.9122 23.7851L19.8609 23.9196C19.8969 23.9215 19.9329 23.9059 19.9556 23.8779C20.2566 23.5109 20.4051 23.0694 20.3752 22.6276C20.3379 22.0792 20.0432 21.563 19.4993 21.0935L15.6391 17.7608C15.5903 17.7185 15.633 17.6396 15.6952 17.6571L20.7584 19.0935C20.7877 19.1018 20.8046 19.1323 20.7964 19.1612L20.3175 20.8413C20.305 20.8852 20.349 20.9243 20.3914 20.9071L23.1207 19.7853C23.1542 19.7716 23.18 19.7427 23.1889 19.7077C23.3059 19.2484 23.2537 18.7856 23.0394 18.3976" fill="#52DE97"/>
</g>
</svg>
