<svg width="110" height="11" viewBox="0 0 110 11" fill="none" xmlns="http://www.w3.org/2000/svg">
<path d="M0.91 6.9H3.35V7.64H0V0.67H0.91V6.9Z" fill="#616875"/>
<path d="M6.70641 7.73C6.19307 7.73 5.72641 7.61333 5.30641 7.38C4.89307 7.14667 4.56641 6.81667 4.32641 6.39C4.09307 5.95667 3.97641 5.45667 3.97641 4.89C3.97641 4.33 4.09641 3.83667 4.33641 3.41C4.58307 2.97667 4.91641 2.64667 5.33641 2.42C5.75641 2.18667 6.22641 2.07 6.74641 2.07C7.26641 2.07 7.73641 2.18667 8.15641 2.42C8.57641 2.64667 8.90641 2.97333 9.14641 3.4C9.39307 3.82667 9.51641 4.32333 9.51641 4.89C9.51641 5.45667 9.38974 5.95667 9.13641 6.39C8.88974 6.81667 8.55307 7.14667 8.12641 7.38C7.69974 7.61333 7.22641 7.73 6.70641 7.73ZM6.70641 6.93C7.03307 6.93 7.33974 6.85333 7.62641 6.7C7.91307 6.54667 8.14307 6.31667 8.31641 6.01C8.49641 5.70333 8.58641 5.33 8.58641 4.89C8.58641 4.45 8.49974 4.07667 8.32641 3.77C8.15307 3.46333 7.92641 3.23667 7.64641 3.09C7.36641 2.93667 7.06307 2.86 6.73641 2.86C6.40307 2.86 6.09641 2.93667 5.81641 3.09C5.54307 3.23667 5.32307 3.46333 5.15641 3.77C4.98974 4.07667 4.90641 4.45 4.90641 4.89C4.90641 5.33667 4.98641 5.71333 5.14641 6.02C5.31307 6.32667 5.53307 6.55667 5.80641 6.71C6.07974 6.85667 6.37974 6.93 6.70641 6.93Z" fill="#616875"/>
<path d="M18.0129 2.16L16.3029 7.64H15.3629L14.0429 3.29L12.7229 7.64H11.7829L10.0629 2.16H10.9929L12.2529 6.76L13.6129 2.16H14.5429L15.8729 6.77L17.1129 2.16H18.0129Z" fill="#616875"/>
<path d="M23.792 7.71C23.332 7.71 22.9187 7.63 22.552 7.47C22.192 7.30333 21.9087 7.07667 21.702 6.79C21.4954 6.49667 21.3887 6.16 21.382 5.78H22.352C22.3854 6.10667 22.5187 6.38333 22.752 6.61C22.992 6.83 23.3387 6.94 23.792 6.94C24.2254 6.94 24.5654 6.83333 24.812 6.62C25.0654 6.4 25.192 6.12 25.192 5.78C25.192 5.51333 25.1187 5.29667 24.972 5.13C24.8254 4.96333 24.642 4.83667 24.422 4.75C24.202 4.66333 23.9054 4.57 23.532 4.47C23.072 4.35 22.702 4.23 22.422 4.11C22.1487 3.99 21.912 3.80333 21.712 3.55C21.5187 3.29 21.422 2.94333 21.422 2.51C21.422 2.13 21.5187 1.79333 21.712 1.5C21.9054 1.20667 22.1754 0.98 22.522 0.82C22.8754 0.66 23.2787 0.58 23.732 0.58C24.3854 0.58 24.9187 0.743334 25.332 1.07C25.752 1.39667 25.9887 1.83 26.042 2.37H25.042C25.0087 2.10333 24.8687 1.87 24.622 1.67C24.3754 1.46333 24.0487 1.36 23.642 1.36C23.262 1.36 22.952 1.46 22.712 1.66C22.472 1.85333 22.352 2.12667 22.352 2.48C22.352 2.73333 22.422 2.94 22.562 3.1C22.7087 3.26 22.8854 3.38333 23.092 3.47C23.3054 3.55 23.602 3.64333 23.982 3.75C24.442 3.87667 24.812 4.00333 25.092 4.13C25.372 4.25 25.612 4.44 25.812 4.7C26.012 4.95333 26.112 5.3 26.112 5.74C26.112 6.08 26.022 6.4 25.842 6.7C25.662 7 25.3954 7.24333 25.042 7.43C24.6887 7.61667 24.272 7.71 23.792 7.71Z" fill="#616875"/>
<path d="M32.4512 4.69C32.4512 4.86333 32.4412 5.04667 32.4212 5.24H28.0412C28.0745 5.78 28.2578 6.20333 28.5912 6.51C28.9312 6.81 29.3412 6.96 29.8212 6.96C30.2145 6.96 30.5412 6.87 30.8012 6.69C31.0678 6.50333 31.2545 6.25667 31.3612 5.95H32.3412C32.1945 6.47667 31.9012 6.90667 31.4612 7.24C31.0212 7.56667 30.4745 7.73 29.8212 7.73C29.3012 7.73 28.8345 7.61333 28.4212 7.38C28.0145 7.14667 27.6945 6.81667 27.4612 6.39C27.2278 5.95667 27.1112 5.45667 27.1112 4.89C27.1112 4.32333 27.2245 3.82667 27.4512 3.4C27.6778 2.97333 27.9945 2.64667 28.4012 2.42C28.8145 2.18667 29.2878 2.07 29.8212 2.07C30.3412 2.07 30.8012 2.18333 31.2012 2.41C31.6012 2.63667 31.9078 2.95 32.1212 3.35C32.3412 3.74333 32.4512 4.19 32.4512 4.69ZM31.5112 4.5C31.5112 4.15333 31.4345 3.85667 31.2812 3.61C31.1278 3.35667 30.9178 3.16667 30.6512 3.04C30.3912 2.90667 30.1012 2.84 29.7812 2.84C29.3212 2.84 28.9278 2.98667 28.6012 3.28C28.2812 3.57333 28.0978 3.98 28.0512 4.5H31.5112Z" fill="#616875"/>
<path d="M35.6923 6.8L37.3923 2.16H38.3623L36.2123 7.64H35.1523L33.0023 2.16H33.9823L35.6923 6.8Z" fill="#616875"/>
<path d="M44.2578 4.69C44.2578 4.86333 44.2478 5.04667 44.2278 5.24H39.8478C39.8811 5.78 40.0645 6.20333 40.3978 6.51C40.7378 6.81 41.1478 6.96 41.6278 6.96C42.0211 6.96 42.3478 6.87 42.6078 6.69C42.8745 6.50333 43.0611 6.25667 43.1678 5.95H44.1478C44.0011 6.47667 43.7078 6.90667 43.2678 7.24C42.8278 7.56667 42.2811 7.73 41.6278 7.73C41.1078 7.73 40.6411 7.61333 40.2278 7.38C39.8211 7.14667 39.5011 6.81667 39.2678 6.39C39.0345 5.95667 38.9178 5.45667 38.9178 4.89C38.9178 4.32333 39.0311 3.82667 39.2578 3.4C39.4845 2.97333 39.8011 2.64667 40.2078 2.42C40.6211 2.18667 41.0945 2.07 41.6278 2.07C42.1478 2.07 42.6078 2.18333 43.0078 2.41C43.4078 2.63667 43.7145 2.95 43.9278 3.35C44.1478 3.74333 44.2578 4.19 44.2578 4.69ZM43.3178 4.5C43.3178 4.15333 43.2411 3.85667 43.0878 3.61C42.9345 3.35667 42.7245 3.16667 42.4578 3.04C42.1978 2.90667 41.9078 2.84 41.5878 2.84C41.1278 2.84 40.7345 2.98667 40.4078 3.28C40.0878 3.57333 39.9045 3.98 39.8578 4.5H43.3178Z" fill="#616875"/>
<path d="M46.369 3.05C46.529 2.73667 46.7556 2.49333 47.049 2.32C47.349 2.14667 47.7123 2.06 48.139 2.06V3H47.899C46.879 3 46.369 3.55333 46.369 4.66V7.64H45.459V2.16H46.369V3.05Z" fill="#616875"/>
<path d="M49.6595 1.27C49.4861 1.27 49.3395 1.21 49.2195 1.09C49.0995 0.97 49.0395 0.823333 49.0395 0.65C49.0395 0.476667 49.0995 0.33 49.2195 0.21C49.3395 0.0900002 49.4861 0.0300002 49.6595 0.0300002C49.8261 0.0300002 49.9661 0.0900002 50.0795 0.21C50.1995 0.33 50.2595 0.476667 50.2595 0.65C50.2595 0.823333 50.1995 0.97 50.0795 1.09C49.9661 1.21 49.8261 1.27 49.6595 1.27ZM50.0995 2.16V7.64H49.1895V2.16H50.0995Z" fill="#616875"/>
<path d="M52.7604 2.91V6.14C52.7604 6.40667 52.8171 6.59667 52.9304 6.71C53.0437 6.81667 53.2404 6.87 53.5204 6.87H54.1904V7.64H53.3704C52.8637 7.64 52.4837 7.52333 52.2304 7.29C51.9771 7.05667 51.8504 6.67333 51.8504 6.14V2.91H51.1404V2.16H51.8504V0.78H52.7604V2.16H54.1904V2.91H52.7604Z" fill="#616875"/>
<path d="M60.013 2.16L56.713 10.22H55.773L56.853 7.58L54.643 2.16H55.653L57.373 6.6L59.073 2.16H60.013Z" fill="#616875"/>
<path d="M65.7638 0.67C66.5238 0.67 67.1804 0.813334 67.7338 1.1C68.2938 1.38 68.7204 1.78333 69.0138 2.31C69.3138 2.83667 69.4638 3.45667 69.4638 4.17C69.4638 4.88333 69.3138 5.50333 69.0138 6.03C68.7204 6.55 68.2938 6.95 67.7338 7.23C67.1804 7.50333 66.5238 7.64 65.7638 7.64H63.5937V0.67H65.7638ZM65.7638 6.89C66.6638 6.89 67.3504 6.65333 67.8238 6.18C68.2971 5.7 68.5338 5.03 68.5338 4.17C68.5338 3.30333 68.2938 2.62667 67.8138 2.14C67.3404 1.65333 66.6571 1.41 65.7638 1.41H64.5038V6.89H65.7638Z" fill="#616875"/>
<path d="M70.3241 4.88C70.3241 4.32 70.4374 3.83 70.6641 3.41C70.8907 2.98333 71.2007 2.65333 71.5941 2.42C71.9941 2.18667 72.4374 2.07 72.9241 2.07C73.4041 2.07 73.8207 2.17333 74.1741 2.38C74.5274 2.58667 74.7907 2.84667 74.9641 3.16V2.16H75.8841V7.64H74.9641V6.62C74.7841 6.94 74.5141 7.20667 74.1541 7.42C73.8007 7.62667 73.3874 7.73 72.9141 7.73C72.4274 7.73 71.9874 7.61 71.5941 7.37C71.2007 7.13 70.8907 6.79333 70.6641 6.36C70.4374 5.92667 70.3241 5.43333 70.3241 4.88ZM74.9641 4.89C74.9641 4.47667 74.8807 4.11667 74.7141 3.81C74.5474 3.50333 74.3207 3.27 74.0341 3.11C73.7541 2.94333 73.4441 2.86 73.1041 2.86C72.7641 2.86 72.4541 2.94 72.1741 3.1C71.8941 3.26 71.6707 3.49333 71.5041 3.8C71.3374 4.10667 71.2541 4.46667 71.2541 4.88C71.2541 5.3 71.3374 5.66667 71.5041 5.98C71.6707 6.28667 71.8941 6.52333 72.1741 6.69C72.4541 6.85 72.7641 6.93 73.1041 6.93C73.4441 6.93 73.7541 6.85 74.0341 6.69C74.3207 6.52333 74.5474 6.28667 74.7141 5.98C74.8807 5.66667 74.9641 5.30333 74.9641 4.89Z" fill="#616875"/>
<path d="M78.5319 2.91V6.14C78.5319 6.40667 78.5885 6.59667 78.7019 6.71C78.8152 6.81667 79.0119 6.87 79.2919 6.87H79.9619V7.64H79.1419C78.6352 7.64 78.2552 7.52333 78.0019 7.29C77.7485 7.05667 77.6219 6.67333 77.6219 6.14V2.91H76.9119V2.16H77.6219V0.78H78.5319V2.16H79.9619V2.91H78.5319Z" fill="#616875"/>
<path d="M80.7245 4.88C80.7245 4.32 80.8378 3.83 81.0645 3.41C81.2911 2.98333 81.6011 2.65333 81.9945 2.42C82.3945 2.18667 82.8378 2.07 83.3245 2.07C83.8045 2.07 84.2211 2.17333 84.5745 2.38C84.9278 2.58667 85.1911 2.84667 85.3645 3.16V2.16H86.2845V7.64H85.3645V6.62C85.1845 6.94 84.9145 7.20667 84.5545 7.42C84.2011 7.62667 83.7878 7.73 83.3145 7.73C82.8278 7.73 82.3878 7.61 81.9945 7.37C81.6011 7.13 81.2911 6.79333 81.0645 6.36C80.8378 5.92667 80.7245 5.43333 80.7245 4.88ZM85.3645 4.89C85.3645 4.47667 85.2811 4.11667 85.1145 3.81C84.9478 3.50333 84.7211 3.27 84.4345 3.11C84.1545 2.94333 83.8445 2.86 83.5045 2.86C83.1645 2.86 82.8545 2.94 82.5745 3.1C82.2945 3.26 82.0711 3.49333 81.9045 3.8C81.7378 4.10667 81.6545 4.46667 81.6545 4.88C81.6545 5.3 81.7378 5.66667 81.9045 5.98C82.0711 6.28667 82.2945 6.52333 82.5745 6.69C82.8545 6.85 83.1645 6.93 83.5045 6.93C83.8445 6.93 84.1545 6.85 84.4345 6.69C84.7211 6.52333 84.9478 6.28667 85.1145 5.98C85.2811 5.66667 85.3645 5.30333 85.3645 4.89Z" fill="#616875"/>
<path d="M92.6583 0.67C93.4183 0.67 94.075 0.813334 94.6283 1.1C95.1883 1.38 95.615 1.78333 95.9083 2.31C96.2083 2.83667 96.3583 3.45667 96.3583 4.17C96.3583 4.88333 96.2083 5.50333 95.9083 6.03C95.615 6.55 95.1883 6.95 94.6283 7.23C94.075 7.50333 93.4183 7.64 92.6583 7.64H90.4883V0.67H92.6583ZM92.6583 6.89C93.5583 6.89 94.2449 6.65333 94.7183 6.18C95.1916 5.7 95.4283 5.03 95.4283 4.17C95.4283 3.30333 95.1883 2.62667 94.7083 2.14C94.2349 1.65333 93.5516 1.41 92.6583 1.41H91.3983V6.89H92.6583Z" fill="#616875"/>
<path d="M98.4686 3.05C98.6286 2.73667 98.8553 2.49333 99.1486 2.32C99.4486 2.14667 99.8119 2.06 100.239 2.06V3H99.9986C98.9786 3 98.4686 3.55333 98.4686 4.66V7.64H97.5586V2.16H98.4686V3.05Z" fill="#616875"/>
<path d="M101.759 1.27C101.586 1.27 101.439 1.21 101.319 1.09C101.199 0.97 101.139 0.823333 101.139 0.65C101.139 0.476667 101.199 0.33 101.319 0.21C101.439 0.0900002 101.586 0.0300002 101.759 0.0300002C101.926 0.0300002 102.066 0.0900002 102.179 0.21C102.299 0.33 102.359 0.476667 102.359 0.65C102.359 0.823333 102.299 0.97 102.179 1.09C102.066 1.21 101.926 1.27 101.759 1.27ZM102.199 2.16V7.64H101.289V2.16H102.199Z" fill="#616875"/>
<path d="M105.98 2.91H104.83V7.64H103.92V2.91H103.21V2.16H103.92V1.77C103.92 1.15667 104.077 0.710001 104.39 0.430001C104.71 0.143334 105.22 0 105.92 0V0.76C105.52 0.76 105.237 0.84 105.07 1C104.91 1.15333 104.83 1.41 104.83 1.77V2.16H105.98V2.91Z" fill="#616875"/>
<path d="M108.151 2.91V6.14C108.151 6.40667 108.208 6.59667 108.321 6.71C108.434 6.81667 108.631 6.87 108.911 6.87H109.581V7.64H108.761C108.254 7.64 107.874 7.52333 107.621 7.29C107.368 7.05667 107.241 6.67333 107.241 6.14V2.91H106.531V2.16H107.241V0.78H108.151V2.16H109.581V2.91H108.151Z" fill="#616875"/>
</svg>
