<svg width="124" height="19" viewBox="0 0 124 19" fill="none" xmlns="http://www.w3.org/2000/svg">
<path d="M2.05519 12.4362H6.05019V14.0002H0.117188V2.18516H2.05519V12.4362Z" fill="#13115B"/>
<path d="M7.0249 9.27416C7.0249 8.33349 7.21756 7.50049 7.6029 6.77516C7.99956 6.04982 8.53223 5.48882 9.2009 5.09216C9.8809 4.68416 10.6289 4.48016 11.4449 4.48016C12.1816 4.48016 12.8219 4.62749 13.3659 4.92216C13.9212 5.20549 14.3632 5.56249 14.6919 5.99316V4.63316H16.6469V14.0002H14.6919V12.6062C14.3632 13.0482 13.9156 13.4165 13.3489 13.7112C12.7822 14.0058 12.1362 14.1532 11.4109 14.1532C10.6062 14.1532 9.86956 13.9492 9.2009 13.5412C8.53223 13.1218 7.99956 12.5438 7.6029 11.8072C7.21756 11.0592 7.0249 10.2148 7.0249 9.27416ZM14.6919 9.30816C14.6919 8.66216 14.5559 8.10116 14.2839 7.62516C14.0232 7.14916 13.6776 6.78649 13.2469 6.53716C12.8162 6.28782 12.3516 6.16316 11.8529 6.16316C11.3542 6.16316 10.8896 6.28782 10.4589 6.53716C10.0282 6.77516 9.6769 7.13216 9.4049 7.60816C9.14423 8.07282 9.0139 8.62816 9.0139 9.27416C9.0139 9.92016 9.14423 10.4868 9.4049 10.9742C9.6769 11.4615 10.0282 11.8355 10.4589 12.0962C10.9009 12.3455 11.3656 12.4702 11.8529 12.4702C12.3516 12.4702 12.8162 12.3455 13.2469 12.0962C13.6776 11.8468 14.0232 11.4842 14.2839 11.0082C14.5559 10.5208 14.6919 9.95416 14.6919 9.30816Z" fill="#13115B"/>
<path d="M22.5924 14.1532C21.8557 14.1532 21.1927 14.0228 20.6034 13.7622C20.0254 13.4902 19.5664 13.1275 19.2264 12.6742C18.8864 12.2095 18.705 11.6938 18.6824 11.1272H20.6884C20.7224 11.5238 20.9094 11.8582 21.2494 12.1302C21.6007 12.3908 22.037 12.5212 22.5584 12.5212C23.1024 12.5212 23.5217 12.4192 23.8164 12.2152C24.1224 11.9998 24.2754 11.7278 24.2754 11.3992C24.2754 11.0478 24.1054 10.7872 23.7654 10.6172C23.4367 10.4472 22.9097 10.2602 22.1844 10.0562C21.4817 9.86349 20.9094 9.67649 20.4674 9.49516C20.0254 9.31382 19.64 9.03616 19.3114 8.66216C18.994 8.28816 18.8354 7.79516 18.8354 7.18316C18.8354 6.68449 18.9827 6.23116 19.2774 5.82316C19.572 5.40382 19.9914 5.07516 20.5354 4.83716C21.0907 4.59916 21.7254 4.48016 22.4394 4.48016C23.5047 4.48016 24.3604 4.75216 25.0064 5.29616C25.6637 5.82882 26.015 6.55982 26.0604 7.48916H24.1224C24.0884 7.06982 23.9184 6.73549 23.6124 6.48616C23.3064 6.23682 22.8927 6.11216 22.3714 6.11216C21.8614 6.11216 21.4704 6.20849 21.1984 6.40116C20.9264 6.59382 20.7904 6.84882 20.7904 7.16616C20.7904 7.41549 20.881 7.62516 21.0624 7.79516C21.2437 7.96516 21.4647 8.10116 21.7254 8.20316C21.986 8.29382 22.3714 8.41282 22.8814 8.56016C23.5614 8.74149 24.1167 8.92849 24.5474 9.12116C24.9894 9.30249 25.369 9.57449 25.6864 9.93716C26.0037 10.2998 26.168 10.7815 26.1794 11.3822C26.1794 11.9148 26.032 12.3908 25.7374 12.8102C25.4427 13.2295 25.0234 13.5582 24.4794 13.7962C23.9467 14.0342 23.3177 14.1532 22.5924 14.1532Z" fill="#13115B"/>
<path d="M30.5344 6.21416V11.3992C30.5344 11.7505 30.6138 12.0055 30.7724 12.1642C30.9424 12.3115 31.2258 12.3852 31.6224 12.3852H32.8124V14.0002H31.2824C30.4098 14.0002 29.7411 13.7962 29.2764 13.3882C28.8118 12.9802 28.5794 12.3172 28.5794 11.3992V6.21416H27.4744V4.63316H28.5794V2.30416H30.5344V4.63316H32.8124V6.21416H30.5344Z" fill="#13115B"/>
<path d="M40.9526 6.01016C41.2813 5.57949 41.729 5.21682 42.2956 4.92216C42.8623 4.62749 43.5026 4.48016 44.2166 4.48016C45.0326 4.48016 45.775 4.68416 46.4436 5.09216C47.1236 5.48882 47.6563 6.04982 48.0416 6.77516C48.427 7.50049 48.6196 8.33349 48.6196 9.27416C48.6196 10.2148 48.427 11.0592 48.0416 11.8072C47.6563 12.5438 47.1236 13.1218 46.4436 13.5412C45.775 13.9492 45.0326 14.1532 44.2166 14.1532C43.5026 14.1532 42.868 14.0115 42.3126 13.7282C41.7573 13.4335 41.304 13.0708 40.9526 12.6402V18.4542H39.0146V4.63316H40.9526V6.01016ZM46.6476 9.27416C46.6476 8.62816 46.5116 8.07282 46.2396 7.60816C45.979 7.13216 45.6276 6.77516 45.1856 6.53716C44.755 6.28782 44.2903 6.16316 43.7916 6.16316C43.3043 6.16316 42.8396 6.28782 42.3976 6.53716C41.967 6.78649 41.6157 7.14916 41.3437 7.62516C41.083 8.10116 40.9526 8.66216 40.9526 9.30816C40.9526 9.95416 41.083 10.5208 41.3437 11.0082C41.6157 11.4842 41.967 11.8468 42.3976 12.0962C42.8396 12.3455 43.3043 12.4702 43.7916 12.4702C44.2903 12.4702 44.755 12.3455 45.1856 12.0962C45.6276 11.8355 45.979 11.4615 46.2396 10.9742C46.5116 10.4868 46.6476 9.92016 46.6476 9.27416Z" fill="#13115B"/>
<path d="M52.4741 5.99316C52.7575 5.51716 53.1315 5.14882 53.5961 4.88816C54.0721 4.61616 54.6331 4.48016 55.2791 4.48016V6.48616H54.7861C54.0268 6.48616 53.4488 6.67882 53.0521 7.06416C52.6668 7.44949 52.4741 8.11816 52.4741 9.07016V14.0002H50.5361V4.63316H52.4741V5.99316Z" fill="#13115B"/>
<path d="M65.6455 9.08716C65.6455 9.43849 65.6229 9.75582 65.5775 10.0392H58.4205C58.4772 10.7872 58.7549 11.3878 59.2535 11.8412C59.7522 12.2945 60.3642 12.5212 61.0895 12.5212C62.1322 12.5212 62.8689 12.0848 63.2995 11.2122H65.3905C65.1072 12.0735 64.5915 12.7818 63.8435 13.3372C63.1069 13.8812 62.1889 14.1532 61.0895 14.1532C60.1942 14.1532 59.3895 13.9548 58.6755 13.5582C57.9729 13.1502 57.4175 12.5835 57.0095 11.8582C56.6129 11.1215 56.4145 10.2715 56.4145 9.30816C56.4145 8.34482 56.6072 7.50049 56.9925 6.77516C57.3892 6.03849 57.9389 5.47182 58.6415 5.07516C59.3555 4.67849 60.1715 4.48016 61.0895 4.48016C61.9735 4.48016 62.7612 4.67282 63.4525 5.05816C64.1439 5.44349 64.6822 5.98749 65.0675 6.69016C65.4529 7.38149 65.6455 8.18049 65.6455 9.08716ZM63.6225 8.47516C63.6112 7.76116 63.3562 7.18882 62.8575 6.75816C62.3589 6.32749 61.7412 6.11216 61.0045 6.11216C60.3359 6.11216 59.7635 6.32749 59.2875 6.75816C58.8115 7.17749 58.5282 7.74982 58.4375 8.47516H63.6225Z" fill="#13115B"/>
<path d="M66.9067 9.27416C66.9067 8.33349 67.0994 7.50049 67.4847 6.77516C67.8814 6.04982 68.4141 5.48882 69.0827 5.09216C69.7627 4.68416 70.5164 4.48016 71.3437 4.48016C71.9557 4.48016 72.5564 4.61616 73.1457 4.88816C73.7464 5.14882 74.2224 5.50016 74.5737 5.94216V1.42016H76.5287V14.0002H74.5737V12.5892C74.2564 13.0425 73.8144 13.4165 73.2477 13.7112C72.6924 14.0058 72.0521 14.1532 71.3267 14.1532C70.5107 14.1532 69.7627 13.9492 69.0827 13.5412C68.4141 13.1218 67.8814 12.5438 67.4847 11.8072C67.0994 11.0592 66.9067 10.2148 66.9067 9.27416ZM74.5737 9.30816C74.5737 8.66216 74.4377 8.10116 74.1657 7.62516C73.9051 7.14916 73.5594 6.78649 73.1287 6.53716C72.6981 6.28782 72.2334 6.16316 71.7347 6.16316C71.2361 6.16316 70.7714 6.28782 70.3407 6.53716C69.9101 6.77516 69.5587 7.13216 69.2867 7.60816C69.0261 8.07282 68.8957 8.62816 68.8957 9.27416C68.8957 9.92016 69.0261 10.4868 69.2867 10.9742C69.5587 11.4615 69.9101 11.8355 70.3407 12.0962C70.7827 12.3455 71.2474 12.4702 71.7347 12.4702C72.2334 12.4702 72.6981 12.3455 73.1287 12.0962C73.5594 11.8468 73.9051 11.4842 74.1657 11.0082C74.4377 10.5208 74.5737 9.95416 74.5737 9.30816Z" fill="#13115B"/>
<path d="M80.0602 3.39216C79.7089 3.39216 79.4142 3.27316 79.1762 3.03516C78.9382 2.79716 78.8192 2.50249 78.8192 2.15116C78.8192 1.79982 78.9382 1.50516 79.1762 1.26716C79.4142 1.02916 79.7089 0.910156 80.0602 0.910156C80.4002 0.910156 80.6892 1.02916 80.9272 1.26716C81.1652 1.50516 81.2842 1.79982 81.2842 2.15116C81.2842 2.50249 81.1652 2.79716 80.9272 3.03516C80.6892 3.27316 80.4002 3.39216 80.0602 3.39216ZM81.0122 4.63316V14.0002H79.0742V4.63316H81.0122Z" fill="#13115B"/>
<path d="M82.9106 9.30816C82.9106 8.34482 83.1033 7.50049 83.4886 6.77516C83.8853 6.03849 84.4293 5.47182 85.1206 5.07516C85.812 4.67849 86.6053 4.48016 87.5006 4.48016C88.634 4.48016 89.569 4.75216 90.3056 5.29616C91.0536 5.82882 91.558 6.59382 91.8186 7.59116H89.7276C89.5576 7.12649 89.2856 6.76382 88.9116 6.50316C88.5376 6.24249 88.0673 6.11216 87.5006 6.11216C86.7073 6.11216 86.0726 6.39549 85.5966 6.96216C85.132 7.51749 84.8996 8.29949 84.8996 9.30816C84.8996 10.3168 85.132 11.1045 85.5966 11.6712C86.0726 12.2378 86.7073 12.5212 87.5006 12.5212C88.6226 12.5212 89.365 12.0282 89.7276 11.0422H91.8186C91.5466 11.9942 91.0366 12.7535 90.2886 13.3202C89.5406 13.8755 88.6113 14.1532 87.5006 14.1532C86.6053 14.1532 85.812 13.9548 85.1206 13.5582C84.4293 13.1502 83.8853 12.5835 83.4886 11.8582C83.1033 11.1215 82.9106 10.2715 82.9106 9.30816Z" fill="#13115B"/>
<path d="M96.011 6.21416V11.3992C96.011 11.7505 96.0903 12.0055 96.249 12.1642C96.419 12.3115 96.7023 12.3852 97.099 12.3852H98.289V14.0002H96.759C95.8863 14.0002 95.2177 13.7962 94.753 13.3882C94.2883 12.9802 94.056 12.3172 94.056 11.3992V6.21416H92.951V4.63316H94.056V2.30416H96.011V4.63316H98.289V6.21416H96.011Z" fill="#13115B"/>
<path d="M101.061 3.39216C100.71 3.39216 100.415 3.27316 100.177 3.03516C99.9392 2.79716 99.8202 2.50249 99.8202 2.15116C99.8202 1.79982 99.9392 1.50516 100.177 1.26716C100.415 1.02916 100.71 0.910156 101.061 0.910156C101.401 0.910156 101.69 1.02916 101.928 1.26716C102.166 1.50516 102.285 1.79982 102.285 2.15116C102.285 2.50249 102.166 2.79716 101.928 3.03516C101.69 3.27316 101.401 3.39216 101.061 3.39216ZM102.013 4.63316V14.0002H100.075V4.63316H102.013Z" fill="#13115B"/>
<path d="M108.621 14.1532C107.737 14.1532 106.938 13.9548 106.224 13.5582C105.51 13.1502 104.949 12.5835 104.541 11.8582C104.133 11.1215 103.929 10.2715 103.929 9.30816C103.929 8.35616 104.138 7.51182 104.558 6.77516C104.977 6.03849 105.549 5.47182 106.275 5.07516C107 4.67849 107.81 4.48016 108.706 4.48016C109.601 4.48016 110.411 4.67849 111.137 5.07516C111.862 5.47182 112.434 6.03849 112.854 6.77516C113.273 7.51182 113.483 8.35616 113.483 9.30816C113.483 10.2602 113.267 11.1045 112.837 11.8412C112.406 12.5778 111.817 13.1502 111.069 13.5582C110.332 13.9548 109.516 14.1532 108.621 14.1532ZM108.621 12.4702C109.119 12.4702 109.584 12.3512 110.015 12.1132C110.457 11.8752 110.814 11.5182 111.086 11.0422C111.358 10.5662 111.494 9.98816 111.494 9.30816C111.494 8.62816 111.363 8.05582 111.103 7.59116C110.842 7.11516 110.496 6.75816 110.066 6.52016C109.635 6.28216 109.17 6.16316 108.672 6.16316C108.173 6.16316 107.708 6.28216 107.278 6.52016C106.858 6.75816 106.524 7.11516 106.275 7.59116C106.025 8.05582 105.901 8.62816 105.901 9.30816C105.901 10.3168 106.156 11.0988 106.666 11.6542C107.187 12.1982 107.839 12.4702 108.621 12.4702Z" fill="#13115B"/>
<path d="M120.124 4.48016C120.861 4.48016 121.518 4.63316 122.096 4.93916C122.686 5.24516 123.145 5.69849 123.473 6.29916C123.802 6.89982 123.966 7.62516 123.966 8.47516V14.0002H122.045V8.76416C122.045 7.92549 121.836 7.28516 121.416 6.84316C120.997 6.38982 120.425 6.16316 119.699 6.16316C118.974 6.16316 118.396 6.38982 117.965 6.84316C117.546 7.28516 117.336 7.92549 117.336 8.76416V14.0002H115.398V4.63316H117.336V5.70416C117.654 5.31882 118.056 5.01849 118.543 4.80316C119.042 4.58782 119.569 4.48016 120.124 4.48016Z" fill="#13115B"/>
</svg>
