<svg width="34" height="34" viewBox="0 0 34 34" fill="none" xmlns="http://www.w3.org/2000/svg">
<path d="M0 17C0 7.61116 7.61116 0 17 0C26.3888 0 34 7.61116 34 17C34 26.3888 26.3888 34 17 34C7.61116 34 0 26.3888 0 17Z" fill="#F6F7F7"/>
<g clip-path="url(#clip0_44_21278)">
<path d="M16.4522 9.80041C17.589 9.79882 18.7008 10.1376 19.6467 10.7737C20.5926 11.4098 21.3302 12.3148 21.7659 13.374C22.2017 14.4332 22.3162 15.599 22.0947 16.7239C21.8733 17.8487 21.3261 18.882 20.5222 19.6929C19.7183 20.5038 18.694 21.0559 17.5789 21.2792C16.4638 21.5026 15.3081 21.3871 14.2581 20.9476C13.208 20.508 12.3109 19.764 11.6803 18.8098C11.0497 17.8556 10.7139 16.7341 10.7155 15.5873C10.7196 14.0538 11.3254 12.5843 12.4003 11.5C13.4753 10.4157 14.932 9.80463 16.4522 9.80041ZM16.4522 9C15.1587 9.00001 13.8943 9.387 12.819 10.1121C11.7436 10.8371 10.9056 11.8676 10.411 13.0732C9.91637 14.2788 9.78736 15.6053 10.0403 16.8849C10.2932 18.1645 10.9167 19.3397 11.8318 20.2617C12.747 21.1838 13.9127 21.8113 15.1815 22.0648C16.4503 22.3184 17.7652 22.1867 18.9597 21.6863C20.1542 21.1858 21.1748 20.3393 21.8923 19.2536C22.6097 18.168 22.9919 16.8921 22.9903 15.5873C22.9903 14.7216 22.8211 13.8643 22.4924 13.0646C22.1638 12.2649 21.6821 11.5383 21.0748 10.9266C20.4676 10.3148 19.7468 9.8297 18.9536 9.49913C18.1604 9.16856 17.3104 8.99895 16.4522 9Z" fill="#13115B"/>
<path fill-rule="evenodd" clip-rule="evenodd" d="M25.1414 25.0712L20.2695 20.1488L20.9803 19.4453L25.8521 24.3678L25.1414 25.0712Z" fill="#13115B"/>
</g>
<defs>
<clipPath id="clip0_44_21278">
<rect width="15.8613" height="16" fill="white" transform="translate(9.92188 9)"/>
</clipPath>
</defs>
</svg>
