<svg width="11" height="11" viewBox="0 0 11 11" fill="none" xmlns="http://www.w3.org/2000/svg">
<g clip-path="url(#clip0_34_4606)">
<path d="M5.5 10.2143C4.5676 10.2143 3.65614 9.93781 2.88088 9.41979C2.10562 8.90178 1.50138 8.16551 1.14457 7.30409C0.787755 6.44266 0.6944 5.49478 0.876302 4.5803C1.0582 3.66581 1.50719 2.8258 2.16649 2.16649C2.8258 1.50719 3.6658 1.0582 4.58028 0.876303C5.49476 0.694401 6.44265 0.787757 7.30408 1.14457C8.1655 1.50138 8.90177 2.10561 9.41978 2.88087C9.93779 3.65613 10.2143 4.5676 10.2143 5.5C10.2143 6.75031 9.71761 7.94941 8.83351 8.83351C7.94941 9.71761 6.7503 10.2143 5.5 10.2143ZM5.5 11C6.5878 11 7.65116 10.6774 8.55564 10.0731C9.46011 9.46873 10.1651 8.60974 10.5813 7.60475C10.9976 6.59976 11.1065 5.4939 10.8943 4.427C10.6821 3.36011 10.1583 2.38011 9.38909 1.61092C8.6199 0.841732 7.63989 0.31789 6.573 0.105671C5.5061 -0.106548 4.40023 0.00237503 3.39524 0.418658C2.39024 0.834939 1.53127 1.5399 0.92692 2.44437C0.322572 3.34884 -1.33143e-06 4.4122 -1.42652e-06 5.5C-1.55405e-06 6.95869 0.579457 8.35763 1.61091 9.38908C2.64236 10.4205 4.04131 11 5.5 11Z" fill="#FF3C78"/>
<path d="M5.5 7.85686L5.5 8.64258M5.5 7.07115L5.5 2.35686L5.5 7.07115Z" stroke="#FF3C78"/>
</g>
<defs>
<clipPath id="clip0_34_4606">
<rect width="11" height="11" fill="white" transform="translate(11 11) rotate(-180)"/>
</clipPath>
</defs>
</svg>
