<svg width="148" height="15" viewBox="0 0 148 15" fill="none" xmlns="http://www.w3.org/2000/svg">
<path d="M7.26225 14.0007L4.27425 8.87073H2.29425V14.0007H0.65625V1.45473H4.70625C5.65425 1.45473 6.45225 1.61673 7.10025 1.94073C7.76025 2.26473 8.25225 2.70273 8.57625 3.25473C8.90025 3.80673 9.06225 4.43673 9.06225 5.14473C9.06225 6.00873 8.81025 6.77073 8.30625 7.43073C7.81425 8.09073 7.07025 8.52873 6.07425 8.74473L9.22425 14.0007H7.26225ZM2.29425 7.55673H4.70625C5.59425 7.55673 6.26025 7.34073 6.70425 6.90873C7.14825 6.46473 7.37025 5.87673 7.37025 5.14473C7.37025 4.40073 7.14825 3.82473 6.70425 3.41673C6.27225 3.00873 5.60625 2.80473 4.70625 2.80473H2.29425V7.55673Z" fill="#13115B"/>
<path d="M20.6074 8.69073C20.6074 9.00274 20.5894 9.33273 20.5534 9.68073H12.6694C12.7294 10.6527 13.0594 11.4147 13.6594 11.9667C14.2714 12.5067 15.0094 12.7767 15.8734 12.7767C16.5814 12.7767 17.1694 12.6147 17.6374 12.2907C18.1174 11.9547 18.4534 11.5107 18.6454 10.9587H20.4094C20.1454 11.9067 19.6174 12.6807 18.8254 13.2807C18.0334 13.8687 17.0494 14.1627 15.8734 14.1627C14.9374 14.1627 14.0974 13.9527 13.3534 13.5327C12.6214 13.1127 12.0454 12.5187 11.6254 11.7507C11.2054 10.9707 10.9954 10.0707 10.9954 9.05073C10.9954 8.03073 11.1994 7.13673 11.6074 6.36873C12.0154 5.60073 12.5854 5.01273 13.3174 4.60473C14.0614 4.18473 14.9134 3.97473 15.8734 3.97473C16.8094 3.97473 17.6374 4.17873 18.3574 4.58673C19.0774 4.99473 19.6294 5.55873 20.0134 6.27873C20.4094 6.98673 20.6074 7.79074 20.6074 8.69073ZM18.9154 8.34873C18.9154 7.72473 18.7774 7.19073 18.5014 6.74673C18.2254 6.29073 17.8474 5.94873 17.3674 5.72073C16.8994 5.48073 16.3774 5.36073 15.8014 5.36073C14.9734 5.36073 14.2654 5.62473 13.6774 6.15273C13.1014 6.68073 12.7714 7.41273 12.6874 8.34873H18.9154Z" fill="#13115B"/>
<path d="M34.6315 3.95673C35.3995 3.95673 36.0835 4.11873 36.6835 4.44273C37.2835 4.75473 37.7575 5.22873 38.1055 5.86473C38.4535 6.50073 38.6275 7.27473 38.6275 8.18673V14.0007H37.0075V8.42073C37.0075 7.43673 36.7615 6.68673 36.2695 6.17073C35.7895 5.64273 35.1355 5.37873 34.3075 5.37873C33.4555 5.37873 32.7775 5.65473 32.2735 6.20673C31.7695 6.74673 31.5175 7.53273 31.5175 8.56473V14.0007H29.8975V8.42073C29.8975 7.43673 29.6515 6.68673 29.1595 6.17073C28.6795 5.64273 28.0255 5.37873 27.1975 5.37873C26.3455 5.37873 25.6675 5.65473 25.1635 6.20673C24.6595 6.74673 24.4075 7.53273 24.4075 8.56473V14.0007H22.7695V4.13673H24.4075V5.55873C24.7315 5.04273 25.1635 4.64673 25.7035 4.37073C26.2555 4.09473 26.8615 3.95673 27.5215 3.95673C28.3495 3.95673 29.0815 4.14273 29.7175 4.51473C30.3535 4.88673 30.8275 5.43273 31.1395 6.15273C31.4155 5.45673 31.8715 4.91673 32.5075 4.53273C33.1435 4.14873 33.8515 3.95673 34.6315 3.95673Z" fill="#13115B"/>
<path d="M42.1605 2.53473C41.8485 2.53473 41.5845 2.42673 41.3685 2.21073C41.1525 1.99473 41.0444 1.73073 41.0444 1.41873C41.0444 1.10673 41.1525 0.842734 41.3685 0.626734C41.5845 0.410734 41.8485 0.302734 42.1605 0.302734C42.4605 0.302734 42.7125 0.410734 42.9165 0.626734C43.1325 0.842734 43.2405 1.10673 43.2405 1.41873C43.2405 1.73073 43.1325 1.99473 42.9165 2.21073C42.7125 2.42673 42.4605 2.53473 42.1605 2.53473ZM42.9525 4.13673V14.0007H41.3145V4.13673H42.9525Z" fill="#13115B"/>
<path d="M50.5501 3.95673C51.7501 3.95673 52.7221 4.32273 53.4661 5.05473C54.2101 5.77473 54.5821 6.81873 54.5821 8.18673V14.0007H52.9621V8.42073C52.9621 7.43673 52.7161 6.68673 52.2241 6.17073C51.7321 5.64273 51.0601 5.37873 50.2081 5.37873C49.3441 5.37873 48.6541 5.64873 48.1381 6.18873C47.6341 6.72873 47.3821 7.51473 47.3821 8.54673V14.0007H45.7441V4.13673H47.3821V5.54073C47.7061 5.03673 48.1441 4.64673 48.6961 4.37073C49.2601 4.09473 49.8781 3.95673 50.5501 3.95673Z" fill="#13115B"/>
<path d="M56.6458 9.03273C56.6458 8.02473 56.8498 7.14273 57.2578 6.38673C57.6658 5.61873 58.2238 5.02473 58.9318 4.60473C59.6518 4.18473 60.4558 3.97473 61.3438 3.97473C62.1118 3.97473 62.8258 4.15473 63.4858 4.51473C64.1458 4.86273 64.6498 5.32473 64.9978 5.90073V0.680735H66.6538V14.0007H64.9978V12.1467C64.6738 12.7347 64.1938 13.2207 63.5578 13.6047C62.9218 13.9767 62.1778 14.1627 61.3258 14.1627C60.4498 14.1627 59.6518 13.9467 58.9318 13.5147C58.2238 13.0827 57.6658 12.4767 57.2578 11.6967C56.8498 10.9167 56.6458 10.0287 56.6458 9.03273ZM64.9978 9.05073C64.9978 8.30673 64.8478 7.65873 64.5478 7.10673C64.2478 6.55473 63.8398 6.13474 63.3238 5.84674C62.8198 5.54673 62.2618 5.39673 61.6498 5.39673C61.0378 5.39673 60.4798 5.54073 59.9758 5.82873C59.4718 6.11673 59.0698 6.53673 58.7698 7.08873C58.4698 7.64073 58.3198 8.28873 58.3198 9.03273C58.3198 9.78873 58.4698 10.4487 58.7698 11.0127C59.0698 11.5647 59.4718 11.9907 59.9758 12.2907C60.4798 12.5787 61.0378 12.7227 61.6498 12.7227C62.2618 12.7227 62.8198 12.5787 63.3238 12.2907C63.8398 11.9907 64.2478 11.5647 64.5478 11.0127C64.8478 10.4487 64.9978 9.79473 64.9978 9.05073Z" fill="#13115B"/>
<path d="M86.0827 3.95673C86.8507 3.95673 87.5347 4.11873 88.1347 4.44273C88.7347 4.75473 89.2087 5.22873 89.5567 5.86473C89.9047 6.50073 90.0787 7.27473 90.0787 8.18673V14.0007H88.4587V8.42073C88.4587 7.43673 88.2127 6.68673 87.7207 6.17073C87.2407 5.64273 86.5867 5.37873 85.7587 5.37873C84.9067 5.37873 84.2287 5.65473 83.7247 6.20673C83.2207 6.74673 82.9687 7.53273 82.9687 8.56473V14.0007H81.3487V8.42073C81.3487 7.43673 81.1027 6.68673 80.6107 6.17073C80.1307 5.64273 79.4767 5.37873 78.6487 5.37873C77.7967 5.37873 77.1187 5.65473 76.6147 6.20673C76.1107 6.74673 75.8587 7.53273 75.8587 8.56473V14.0007H74.2207V4.13673H75.8587V5.55873C76.1827 5.04273 76.6147 4.64673 77.1547 4.37073C77.7067 4.09473 78.3127 3.95673 78.9727 3.95673C79.8007 3.95673 80.5327 4.14273 81.1687 4.51473C81.8047 4.88673 82.2787 5.43273 82.5907 6.15273C82.8667 5.45673 83.3227 4.91673 83.9587 4.53273C84.5947 4.14873 85.3027 3.95673 86.0827 3.95673Z" fill="#13115B"/>
<path d="M101.766 8.69073C101.766 9.00274 101.748 9.33273 101.712 9.68073H93.8276C93.8876 10.6527 94.2176 11.4147 94.8176 11.9667C95.4296 12.5067 96.1676 12.7767 97.0316 12.7767C97.7396 12.7767 98.3276 12.6147 98.7956 12.2907C99.2756 11.9547 99.6116 11.5107 99.8036 10.9587H101.568C101.304 11.9067 100.776 12.6807 99.9836 13.2807C99.1916 13.8687 98.2076 14.1627 97.0316 14.1627C96.0956 14.1627 95.2556 13.9527 94.5116 13.5327C93.7796 13.1127 93.2036 12.5187 92.7836 11.7507C92.3636 10.9707 92.1536 10.0707 92.1536 9.05073C92.1536 8.03073 92.3576 7.13673 92.7656 6.36873C93.1736 5.60073 93.7436 5.01273 94.4756 4.60473C95.2196 4.18473 96.0716 3.97473 97.0316 3.97473C97.9676 3.97473 98.7956 4.17873 99.5156 4.58673C100.236 4.99473 100.788 5.55873 101.172 6.27873C101.568 6.98673 101.766 7.79074 101.766 8.69073ZM100.074 8.34873C100.074 7.72473 99.9356 7.19073 99.6596 6.74673C99.3836 6.29073 99.0056 5.94873 98.5256 5.72073C98.0576 5.48073 97.5356 5.36073 96.9596 5.36073C96.1316 5.36073 95.4236 5.62473 94.8356 6.15273C94.2596 6.68073 93.9296 7.41273 93.8456 8.34873H100.074Z" fill="#13115B"/>
<path d="M110.365 0.680735V14.0007H108.727V0.680735H110.365Z" fill="#13115B"/>
<path d="M112.544 9.03273C112.544 8.02473 112.748 7.14273 113.156 6.38673C113.564 5.61873 114.122 5.02473 114.83 4.60473C115.55 4.18473 116.348 3.97473 117.224 3.97473C118.088 3.97473 118.838 4.16073 119.474 4.53273C120.11 4.90473 120.584 5.37273 120.896 5.93673V4.13673H122.552V14.0007H120.896V12.1647C120.572 12.7407 120.086 13.2207 119.438 13.6047C118.802 13.9767 118.058 14.1627 117.206 14.1627C116.33 14.1627 115.538 13.9467 114.83 13.5147C114.122 13.0827 113.564 12.4767 113.156 11.6967C112.748 10.9167 112.544 10.0287 112.544 9.03273ZM120.896 9.05073C120.896 8.30673 120.746 7.65873 120.446 7.10673C120.146 6.55473 119.738 6.13474 119.222 5.84674C118.718 5.54673 118.16 5.39673 117.548 5.39673C116.936 5.39673 116.378 5.54073 115.874 5.82873C115.37 6.11673 114.968 6.53673 114.668 7.08873C114.368 7.64073 114.218 8.28873 114.218 9.03273C114.218 9.78873 114.368 10.4487 114.668 11.0127C114.968 11.5647 115.37 11.9907 115.874 12.2907C116.378 12.5787 116.936 12.7227 117.548 12.7227C118.16 12.7227 118.718 12.5787 119.222 12.2907C119.738 11.9907 120.146 11.5647 120.446 11.0127C120.746 10.4487 120.896 9.79473 120.896 9.05073Z" fill="#13115B"/>
<path d="M127.318 5.48673V11.3007C127.318 11.7807 127.42 12.1227 127.624 12.3267C127.828 12.5187 128.182 12.6147 128.686 12.6147H129.892V14.0007H128.416C127.504 14.0007 126.82 13.7907 126.364 13.3707C125.908 12.9507 125.68 12.2607 125.68 11.3007V5.48673H124.402V4.13673H125.68V1.65273H127.318V4.13673H129.892V5.48673H127.318Z" fill="#13115B"/>
<path d="M140.877 8.69073C140.877 9.00274 140.859 9.33273 140.823 9.68073H132.939C132.999 10.6527 133.329 11.4147 133.929 11.9667C134.541 12.5067 135.279 12.7767 136.143 12.7767C136.851 12.7767 137.439 12.6147 137.907 12.2907C138.387 11.9547 138.723 11.5107 138.915 10.9587H140.679C140.415 11.9067 139.887 12.6807 139.095 13.2807C138.303 13.8687 137.319 14.1627 136.143 14.1627C135.207 14.1627 134.367 13.9527 133.623 13.5327C132.891 13.1127 132.315 12.5187 131.895 11.7507C131.475 10.9707 131.265 10.0707 131.265 9.05073C131.265 8.03073 131.469 7.13673 131.877 6.36873C132.285 5.60073 132.855 5.01273 133.587 4.60473C134.331 4.18473 135.183 3.97473 136.143 3.97473C137.079 3.97473 137.907 4.17873 138.627 4.58673C139.347 4.99473 139.899 5.55873 140.283 6.27873C140.679 6.98673 140.877 7.79074 140.877 8.69073ZM139.185 8.34873C139.185 7.72473 139.047 7.19073 138.771 6.74673C138.495 6.29073 138.117 5.94873 137.637 5.72073C137.169 5.48073 136.647 5.36073 136.071 5.36073C135.243 5.36073 134.535 5.62473 133.947 6.15273C133.371 6.68073 133.041 7.41273 132.957 8.34873H139.185Z" fill="#13115B"/>
<path d="M144.677 5.73873C144.965 5.17473 145.373 4.73673 145.901 4.42473C146.441 4.11273 147.095 3.95673 147.863 3.95673V5.64873H147.431C145.595 5.64873 144.677 6.64473 144.677 8.63673V14.0007H143.039V4.13673H144.677V5.73873Z" fill="#13115B"/>
</svg>
