<svg width="183" height="652" viewBox="0 0 183 652" fill="none" xmlns="http://www.w3.org/2000/svg">
<path fill-rule="evenodd" clip-rule="evenodd" d="M20 42.5C20 39.7352 22.2354 37.5 25.0003 37.5C27.7652 37.5 30 39.7352 30 42.5C30 45.2648 27.7652 47.5 25.0003 47.5C22.2354 47.5 20 45.2648 20 42.5" fill="#52DE97"/>
<path d="M48.3 53.21C46.84 53.21 45.52 52.96 44.34 52.46C43.18 51.96 42.26 51.24 41.58 50.3C40.9 49.36 40.55 48.25 40.53 46.97H45.03C45.09 47.83 45.39 48.51 45.93 49.01C46.49 49.51 47.25 49.76 48.21 49.76C49.19 49.76 49.96 49.53 50.52 49.07C51.08 48.59 51.36 47.97 51.36 47.21C51.36 46.59 51.17 46.08 50.79 45.68C50.41 45.28 49.93 44.97 49.35 44.75C48.79 44.51 48.01 44.25 47.01 43.97C45.65 43.57 44.54 43.18 43.68 42.8C42.84 42.4 42.11 41.81 41.49 41.03C40.89 40.23 40.59 39.17 40.59 37.85C40.59 36.61 40.9 35.53 41.52 34.61C42.14 33.69 43.01 32.99 44.13 32.51C45.25 32.01 46.53 31.76 47.97 31.76C50.13 31.76 51.88 32.29 53.22 33.35C54.58 34.39 55.33 35.85 55.47 37.73H50.85C50.81 37.01 50.5 36.42 49.92 35.96C49.36 35.48 48.61 35.24 47.67 35.24C46.85 35.24 46.19 35.45 45.69 35.87C45.21 36.29 44.97 36.9 44.97 37.7C44.97 38.26 45.15 38.73 45.51 39.11C45.89 39.47 46.35 39.77 46.89 40.01C47.45 40.23 48.23 40.49 49.23 40.79C50.59 41.19 51.7 41.59 52.56 41.99C53.42 42.39 54.16 42.99 54.78 43.79C55.4 44.59 55.71 45.64 55.71 46.94C55.71 48.06 55.42 49.1 54.84 50.06C54.26 51.02 53.41 51.79 52.29 52.37C51.17 52.93 49.84 53.21 48.3 53.21ZM66.6713 32.06C68.8713 32.06 70.8013 32.49 72.4613 33.35C74.1413 34.21 75.4313 35.44 76.3313 37.04C77.2513 38.62 77.7113 40.46 77.7113 42.56C77.7113 44.66 77.2513 46.5 76.3313 48.08C75.4313 49.64 74.1413 50.85 72.4613 51.71C70.8013 52.57 68.8713 53 66.6713 53H59.3513V32.06H66.6713ZM66.5213 49.43C68.7213 49.43 70.4213 48.83 71.6213 47.63C72.8213 46.43 73.4213 44.74 73.4213 42.56C73.4213 40.38 72.8213 38.68 71.6213 37.46C70.4213 36.22 68.7213 35.6 66.5213 35.6H63.5513V49.43H66.5213ZM99.6052 54.2V58.19H81.9952V54.2H99.6052ZM127.386 32.06V53H123.186V39.38L117.576 53H114.396L108.756 39.38V53H104.556V32.06H109.326L115.986 47.63L122.646 32.06H127.386ZM130.519 42.5C130.519 40.44 130.979 38.6 131.899 36.98C132.839 35.34 134.109 34.07 135.709 33.17C137.329 32.25 139.139 31.79 141.139 31.79C143.479 31.79 145.529 32.39 147.289 33.59C149.049 34.79 150.279 36.45 150.979 38.57H146.149C145.669 37.57 144.989 36.82 144.109 36.32C143.249 35.82 142.249 35.57 141.109 35.57C139.889 35.57 138.799 35.86 137.839 36.44C136.899 37 136.159 37.8 135.619 38.84C135.099 39.88 134.839 41.1 134.839 42.5C134.839 43.88 135.099 45.1 135.619 46.16C136.159 47.2 136.899 48.01 137.839 48.59C138.799 49.15 139.889 49.43 141.109 49.43C142.249 49.43 143.249 49.18 144.109 48.68C144.989 48.16 145.669 47.4 146.149 46.4H150.979C150.279 48.54 149.049 50.21 147.289 51.41C145.549 52.59 143.499 53.18 141.139 53.18C139.139 53.18 137.329 52.73 135.709 51.83C134.109 50.91 132.839 49.64 131.899 48.02C130.979 46.4 130.519 44.56 130.519 42.5ZM161.796 53.21C160.336 53.21 159.016 52.96 157.836 52.46C156.676 51.96 155.756 51.24 155.076 50.3C154.396 49.36 154.046 48.25 154.026 46.97H158.526C158.586 47.83 158.886 48.51 159.426 49.01C159.986 49.51 160.746 49.76 161.706 49.76C162.686 49.76 163.456 49.53 164.016 49.07C164.576 48.59 164.856 47.97 164.856 47.21C164.856 46.59 164.666 46.08 164.286 45.68C163.906 45.28 163.426 44.97 162.846 44.75C162.286 44.51 161.506 44.25 160.506 43.97C159.146 43.57 158.036 43.18 157.176 42.8C156.336 42.4 155.606 41.81 154.986 41.03C154.386 40.23 154.086 39.17 154.086 37.85C154.086 36.61 154.396 35.53 155.016 34.61C155.636 33.69 156.506 32.99 157.626 32.51C158.746 32.01 160.026 31.76 161.466 31.76C163.626 31.76 165.376 32.29 166.716 33.35C168.076 34.39 168.826 35.85 168.966 37.73H164.346C164.306 37.01 163.996 36.42 163.416 35.96C162.856 35.48 162.106 35.24 161.166 35.24C160.346 35.24 159.686 35.45 159.186 35.87C158.706 36.29 158.466 36.9 158.466 37.7C158.466 38.26 158.646 38.73 159.006 39.11C159.386 39.47 159.846 39.77 160.386 40.01C160.946 40.23 161.726 40.49 162.726 40.79C164.086 41.19 165.196 41.59 166.056 41.99C166.916 42.39 167.656 42.99 168.276 43.79C168.896 44.59 169.206 45.64 169.206 46.94C169.206 48.06 168.916 49.1 168.336 50.06C167.756 51.02 166.906 51.79 165.786 52.37C164.666 52.93 163.336 53.21 161.796 53.21Z" fill="#616875"/>
<path fill-rule="evenodd" clip-rule="evenodd" d="M20 528.5C20 525.735 22.2354 523.5 25.0003 523.5C27.7652 523.5 30 525.735 30 528.5C30 531.265 27.7652 533.5 25.0003 533.5C22.2354 533.5 20 531.265 20 528.5" fill="#ADB3C0"/>
<path d="M48.3 539.21C46.84 539.21 45.52 538.96 44.34 538.46C43.18 537.96 42.26 537.24 41.58 536.3C40.9 535.36 40.55 534.25 40.53 532.97H45.03C45.09 533.83 45.39 534.51 45.93 535.01C46.49 535.51 47.25 535.76 48.21 535.76C49.19 535.76 49.96 535.53 50.52 535.07C51.08 534.59 51.36 533.97 51.36 533.21C51.36 532.59 51.17 532.08 50.79 531.68C50.41 531.28 49.93 530.97 49.35 530.75C48.79 530.51 48.01 530.25 47.01 529.97C45.65 529.57 44.54 529.18 43.68 528.8C42.84 528.4 42.11 527.81 41.49 527.03C40.89 526.23 40.59 525.17 40.59 523.85C40.59 522.61 40.9 521.53 41.52 520.61C42.14 519.69 43.01 518.99 44.13 518.51C45.25 518.01 46.53 517.76 47.97 517.76C50.13 517.76 51.88 518.29 53.22 519.35C54.58 520.39 55.33 521.85 55.47 523.73H50.85C50.81 523.01 50.5 522.42 49.92 521.96C49.36 521.48 48.61 521.24 47.67 521.24C46.85 521.24 46.19 521.45 45.69 521.87C45.21 522.29 44.97 522.9 44.97 523.7C44.97 524.26 45.15 524.73 45.51 525.11C45.89 525.47 46.35 525.77 46.89 526.01C47.45 526.23 48.23 526.49 49.23 526.79C50.59 527.19 51.7 527.59 52.56 527.99C53.42 528.39 54.16 528.99 54.78 529.79C55.4 530.59 55.71 531.64 55.71 532.94C55.71 534.06 55.42 535.1 54.84 536.06C54.26 537.02 53.41 537.79 52.29 538.37C51.17 538.93 49.84 539.21 48.3 539.21ZM66.6713 518.06C68.8713 518.06 70.8013 518.49 72.4613 519.35C74.1413 520.21 75.4313 521.44 76.3313 523.04C77.2513 524.62 77.7113 526.46 77.7113 528.56C77.7113 530.66 77.2513 532.5 76.3313 534.08C75.4313 535.64 74.1413 536.85 72.4613 537.71C70.8013 538.57 68.8713 539 66.6713 539H59.3513V518.06H66.6713ZM66.5213 535.43C68.7213 535.43 70.4213 534.83 71.6213 533.63C72.8213 532.43 73.4213 530.74 73.4213 528.56C73.4213 526.38 72.8213 524.68 71.6213 523.46C70.4213 522.22 68.7213 521.6 66.5213 521.6H63.5513V535.43H66.5213ZM99.6052 540.2V544.19H81.9952V540.2H99.6052ZM127.386 518.06V539H123.186V525.38L117.576 539H114.396L108.756 525.38V539H104.556V518.06H109.326L115.986 533.63L122.646 518.06H127.386ZM138.769 539.21C137.309 539.21 135.989 538.96 134.809 538.46C133.649 537.96 132.729 537.24 132.049 536.3C131.369 535.36 131.019 534.25 130.999 532.97H135.499C135.559 533.83 135.859 534.51 136.399 535.01C136.959 535.51 137.719 535.76 138.679 535.76C139.659 535.76 140.429 535.53 140.989 535.07C141.549 534.59 141.829 533.97 141.829 533.21C141.829 532.59 141.639 532.08 141.259 531.68C140.879 531.28 140.399 530.97 139.819 530.75C139.259 530.51 138.479 530.25 137.479 529.97C136.119 529.57 135.009 529.18 134.149 528.8C133.309 528.4 132.579 527.81 131.959 527.03C131.359 526.23 131.059 525.17 131.059 523.85C131.059 522.61 131.369 521.53 131.989 520.61C132.609 519.69 133.479 518.99 134.599 518.51C135.719 518.01 136.999 517.76 138.439 517.76C140.599 517.76 142.349 518.29 143.689 519.35C145.049 520.39 145.799 521.85 145.939 523.73H141.319C141.279 523.01 140.969 522.42 140.389 521.96C139.829 521.48 139.079 521.24 138.139 521.24C137.319 521.24 136.659 521.45 136.159 521.87C135.679 522.29 135.439 522.9 135.439 523.7C135.439 524.26 135.619 524.73 135.979 525.11C136.359 525.47 136.819 525.77 137.359 526.01C137.919 526.23 138.699 526.49 139.699 526.79C141.059 527.19 142.169 527.59 143.029 527.99C143.889 528.39 144.629 528.99 145.249 529.79C145.869 530.59 146.179 531.64 146.179 532.94C146.179 534.06 145.889 535.1 145.309 536.06C144.729 537.02 143.879 537.79 142.759 538.37C141.639 538.93 140.309 539.21 138.769 539.21Z" fill="#616875"/>
<path fill-rule="evenodd" clip-rule="evenodd" d="M20 123.5C20 120.735 22.2354 118.5 25.0003 118.5C27.7652 118.5 30 120.735 30 123.5C30 126.265 27.7652 128.5 25.0003 128.5C22.2354 128.5 20 126.265 20 123.5" fill="#52DE97"/>
<path d="M47.58 117.11C48.82 117.11 49.91 117.36 50.85 117.86C51.79 118.34 52.53 118.97 53.07 119.75V117.38H57.3V134.12C57.3 135.66 56.99 137.03 56.37 138.23C55.75 139.45 54.82 140.41 53.58 141.11C52.34 141.83 50.84 142.19 49.08 142.19C46.72 142.19 44.78 141.64 43.26 140.54C41.76 139.44 40.91 137.94 40.71 136.04H44.88C45.1 136.8 45.57 137.4 46.29 137.84C47.03 138.3 47.92 138.53 48.96 138.53C50.18 138.53 51.17 138.16 51.93 137.42C52.69 136.7 53.07 135.6 53.07 134.12V131.54C52.53 132.32 51.78 132.97 50.82 133.49C49.88 134.01 48.8 134.27 47.58 134.27C46.18 134.27 44.9 133.91 43.74 133.19C42.58 132.47 41.66 131.46 40.98 130.16C40.32 128.84 39.99 127.33 39.99 125.63C39.99 123.95 40.32 122.46 40.98 121.16C41.66 119.86 42.57 118.86 43.71 118.16C44.87 117.46 46.16 117.11 47.58 117.11ZM53.07 125.69C53.07 124.67 52.87 123.8 52.47 123.08C52.07 122.34 51.53 121.78 50.85 121.4C50.17 121 49.44 120.8 48.66 120.8C47.88 120.8 47.16 120.99 46.5 121.37C45.84 121.75 45.3 122.31 44.88 123.05C44.48 123.77 44.28 124.63 44.28 125.63C44.28 126.63 44.48 127.51 44.88 128.27C45.3 129.01 45.84 129.58 46.5 129.98C47.18 130.38 47.9 130.58 48.66 130.58C49.44 130.58 50.17 130.39 50.85 130.01C51.53 129.61 52.07 129.05 52.47 128.33C52.87 127.59 53.07 126.71 53.07 125.69ZM68.782 134.27C67.182 134.27 65.742 133.92 64.462 133.22C63.182 132.5 62.172 131.49 61.432 130.19C60.712 128.89 60.352 127.39 60.352 125.69C60.352 123.99 60.722 122.49 61.462 121.19C62.222 119.89 63.252 118.89 64.552 118.19C65.852 117.47 67.302 117.11 68.902 117.11C70.502 117.11 71.952 117.47 73.252 118.19C74.552 118.89 75.572 119.89 76.312 121.19C77.072 122.49 77.452 123.99 77.452 125.69C77.452 127.39 77.062 128.89 76.282 130.19C75.522 131.49 74.482 132.5 73.162 133.22C71.862 133.92 70.402 134.27 68.782 134.27ZM68.782 130.61C69.542 130.61 70.252 130.43 70.912 130.07C71.592 129.69 72.132 129.13 72.532 128.39C72.932 127.65 73.132 126.75 73.132 125.69C73.132 124.11 72.712 122.9 71.872 122.06C71.052 121.2 70.042 120.77 68.842 120.77C67.642 120.77 66.632 121.2 65.812 122.06C65.012 122.9 64.612 124.11 64.612 125.69C64.612 127.27 65.002 128.49 65.782 129.35C66.582 130.19 67.582 130.61 68.782 130.61ZM87.9129 134.27C86.3129 134.27 84.8729 133.92 83.5929 133.22C82.3129 132.5 81.3029 131.49 80.5629 130.19C79.8429 128.89 79.4829 127.39 79.4829 125.69C79.4829 123.99 79.8529 122.49 80.5929 121.19C81.3529 119.89 82.3829 118.89 83.6829 118.19C84.9829 117.47 86.4329 117.11 88.0329 117.11C89.6329 117.11 91.0829 117.47 92.3829 118.19C93.6829 118.89 94.7029 119.89 95.4429 121.19C96.2029 122.49 96.5829 123.99 96.5829 125.69C96.5829 127.39 96.1929 128.89 95.4129 130.19C94.6529 131.49 93.6129 132.5 92.2929 133.22C90.9929 133.92 89.5329 134.27 87.9129 134.27ZM87.9129 130.61C88.6729 130.61 89.3829 130.43 90.0429 130.07C90.7229 129.69 91.2629 129.13 91.6629 128.39C92.0629 127.65 92.2629 126.75 92.2629 125.69C92.2629 124.11 91.8429 122.9 91.0029 122.06C90.1829 121.2 89.1729 120.77 87.9729 120.77C86.7729 120.77 85.7629 121.2 84.9429 122.06C84.1429 122.9 83.7429 124.11 83.7429 125.69C83.7429 127.27 84.1329 128.49 84.9129 129.35C85.7129 130.19 86.7129 130.61 87.9129 130.61ZM98.5837 125.63C98.5837 123.95 98.9137 122.46 99.5737 121.16C100.254 119.86 101.174 118.86 102.334 118.16C103.494 117.46 104.784 117.11 106.204 117.11C107.284 117.11 108.314 117.35 109.294 117.83C110.274 118.29 111.054 118.91 111.634 119.69V111.8H115.894V134H111.634V131.54C111.114 132.36 110.384 133.02 109.444 133.52C108.504 134.02 107.414 134.27 106.174 134.27C104.774 134.27 103.494 133.91 102.334 133.19C101.174 132.47 100.254 131.46 99.5737 130.16C98.9137 128.84 98.5837 127.33 98.5837 125.63ZM111.664 125.69C111.664 124.67 111.464 123.8 111.064 123.08C110.664 122.34 110.124 121.78 109.444 121.4C108.764 121 108.034 120.8 107.254 120.8C106.474 120.8 105.754 120.99 105.094 121.37C104.434 121.75 103.894 122.31 103.474 123.05C103.074 123.77 102.874 124.63 102.874 125.63C102.874 126.63 103.074 127.51 103.474 128.27C103.894 129.01 104.434 129.58 105.094 129.98C105.774 130.38 106.494 130.58 107.254 130.58C108.034 130.58 108.764 130.39 109.444 130.01C110.124 129.61 110.664 129.05 111.064 128.33C111.464 127.59 111.664 126.71 111.664 125.69ZM134.524 134.27C132.924 134.27 131.484 133.92 130.204 133.22C128.924 132.5 127.914 131.49 127.174 130.19C126.454 128.89 126.094 127.39 126.094 125.69C126.094 123.99 126.464 122.49 127.204 121.19C127.964 119.89 128.994 118.89 130.294 118.19C131.594 117.47 133.044 117.11 134.644 117.11C136.244 117.11 137.694 117.47 138.994 118.19C140.294 118.89 141.314 119.89 142.054 121.19C142.814 122.49 143.194 123.99 143.194 125.69C143.194 127.39 142.804 128.89 142.024 130.19C141.264 131.49 140.224 132.5 138.904 133.22C137.604 133.92 136.144 134.27 134.524 134.27ZM134.524 130.61C135.284 130.61 135.994 130.43 136.654 130.07C137.334 129.69 137.874 129.13 138.274 128.39C138.674 127.65 138.874 126.75 138.874 125.69C138.874 124.11 138.454 122.9 137.614 122.06C136.794 121.2 135.784 120.77 134.584 120.77C133.384 120.77 132.374 121.2 131.554 122.06C130.754 122.9 130.354 124.11 130.354 125.69C130.354 127.27 130.744 128.49 131.524 129.35C132.324 130.19 133.324 130.61 134.524 130.61ZM155.485 117.14C157.465 117.14 159.065 117.77 160.285 119.03C161.505 120.27 162.115 122.01 162.115 124.25V134H157.915V124.82C157.915 123.5 157.585 122.49 156.925 121.79C156.265 121.07 155.365 120.71 154.225 120.71C153.065 120.71 152.145 121.07 151.465 121.79C150.805 122.49 150.475 123.5 150.475 124.82V134H146.275V117.38H150.475V119.45C151.035 118.73 151.745 118.17 152.605 117.77C153.485 117.35 154.445 117.14 155.485 117.14ZM181.559 125.33C181.559 125.93 181.519 126.47 181.439 126.95H169.289C169.389 128.15 169.809 129.09 170.549 129.77C171.289 130.45 172.199 130.79 173.279 130.79C174.839 130.79 175.949 130.12 176.609 128.78H181.139C180.659 130.38 179.739 131.7 178.379 132.74C177.019 133.76 175.349 134.27 173.369 134.27C171.769 134.27 170.329 133.92 169.049 133.22C167.789 132.5 166.799 131.49 166.079 130.19C165.379 128.89 165.029 127.39 165.029 125.69C165.029 123.97 165.379 122.46 166.079 121.16C166.779 119.86 167.759 118.86 169.019 118.16C170.279 117.46 171.729 117.11 173.369 117.11C174.949 117.11 176.359 117.45 177.599 118.13C178.859 118.81 179.829 119.78 180.509 121.04C181.209 122.28 181.559 123.71 181.559 125.33ZM177.209 124.13C177.189 123.05 176.799 122.19 176.039 121.55C175.279 120.89 174.349 120.56 173.249 120.56C172.209 120.56 171.329 120.88 170.609 121.52C169.909 122.14 169.479 123.01 169.319 124.13H177.209Z" fill="#616875"/>
<path fill-rule="evenodd" clip-rule="evenodd" d="M20 204.5C20 201.735 22.2354 199.5 25.0003 199.5C27.7652 199.5 30 201.735 30 204.5C30 207.265 27.7652 209.5 25.0003 209.5C22.2354 209.5 20 207.265 20 204.5" fill="#52DE97"/>
<path d="M39.99 206.69C39.99 204.97 40.34 203.47 41.04 202.19C41.74 200.89 42.71 199.89 43.95 199.19C45.19 198.47 46.61 198.11 48.21 198.11C50.27 198.11 51.97 198.63 53.31 199.67C54.67 200.69 55.58 202.13 56.04 203.99H51.51C51.27 203.27 50.86 202.71 50.28 202.31C49.72 201.89 49.02 201.68 48.18 201.68C46.98 201.68 46.03 202.12 45.33 203C44.63 203.86 44.28 205.09 44.28 206.69C44.28 208.27 44.63 209.5 45.33 210.38C46.03 211.24 46.98 211.67 48.18 211.67C49.88 211.67 50.99 210.91 51.51 209.39H56.04C55.58 211.19 54.67 212.62 53.31 213.68C51.95 214.74 50.25 215.27 48.21 215.27C46.61 215.27 45.19 214.92 43.95 214.22C42.71 213.5 41.74 212.5 41.04 211.22C40.34 209.92 39.99 208.41 39.99 206.69ZM68.3269 198.14C70.3069 198.14 71.9069 198.77 73.1269 200.03C74.3469 201.27 74.9569 203.01 74.9569 205.25V215H70.7569V205.82C70.7569 204.5 70.4269 203.49 69.7669 202.79C69.1069 202.07 68.2069 201.71 67.0669 201.71C65.9069 201.71 64.9869 202.07 64.3069 202.79C63.6469 203.49 63.3169 204.5 63.3169 205.82V215H59.1169V198.38H63.3169V200.45C63.8769 199.73 64.5869 199.17 65.4469 198.77C66.3269 198.35 67.2869 198.14 68.3269 198.14ZM85.3109 215.27C83.9509 215.27 82.7309 215.03 81.6509 214.55C80.5709 214.05 79.7109 213.38 79.0709 212.54C78.4509 211.7 78.1109 210.77 78.0509 209.75H82.2809C82.3609 210.39 82.6709 210.92 83.2109 211.34C83.7709 211.76 84.4609 211.97 85.2809 211.97C86.0809 211.97 86.7009 211.81 87.1409 211.49C87.6009 211.17 87.8309 210.76 87.8309 210.26C87.8309 209.72 87.5509 209.32 86.9909 209.06C86.4509 208.78 85.5809 208.48 84.3809 208.16C83.1409 207.86 82.1209 207.55 81.3209 207.23C80.5409 206.91 79.8609 206.42 79.2809 205.76C78.7209 205.1 78.4409 204.21 78.4409 203.09C78.4409 202.17 78.7009 201.33 79.2209 200.57C79.7609 199.81 80.5209 199.21 81.5009 198.77C82.5009 198.33 83.6709 198.11 85.0109 198.11C86.9909 198.11 88.5709 198.61 89.7509 199.61C90.9309 200.59 91.5809 201.92 91.7009 203.6H87.6809C87.6209 202.94 87.3409 202.42 86.8409 202.04C86.3609 201.64 85.7109 201.44 84.8909 201.44C84.1309 201.44 83.5409 201.58 83.1209 201.86C82.7209 202.14 82.5209 202.53 82.5209 203.03C82.5209 203.59 82.8009 204.02 83.3609 204.32C83.9209 204.6 84.7909 204.89 85.9709 205.19C87.1709 205.49 88.1609 205.8 88.9409 206.12C89.7209 206.44 90.3909 206.94 90.9509 207.62C91.5309 208.28 91.8309 209.16 91.8509 210.26C91.8509 211.22 91.5809 212.08 91.0409 212.84C90.5209 213.6 89.7609 214.2 88.7609 214.64C87.7809 215.06 86.6309 215.27 85.3109 215.27ZM94.2185 206.63C94.2185 204.95 94.5485 203.46 95.2085 202.16C95.8885 200.86 96.7985 199.86 97.9385 199.16C99.0985 198.46 100.389 198.11 101.809 198.11C103.049 198.11 104.129 198.36 105.049 198.86C105.989 199.36 106.739 199.99 107.299 200.75V198.38H111.529V215H107.299V212.57C106.759 213.35 106.009 214 105.049 214.52C104.109 215.02 103.019 215.27 101.779 215.27C100.379 215.27 99.0985 214.91 97.9385 214.19C96.7985 213.47 95.8885 212.46 95.2085 211.16C94.5485 209.84 94.2185 208.33 94.2185 206.63ZM107.299 206.69C107.299 205.67 107.099 204.8 106.699 204.08C106.299 203.34 105.759 202.78 105.079 202.4C104.399 202 103.669 201.8 102.889 201.8C102.109 201.8 101.389 201.99 100.729 202.37C100.069 202.75 99.5285 203.31 99.1085 204.05C98.7085 204.77 98.5085 205.63 98.5085 206.63C98.5085 207.63 98.7085 208.51 99.1085 209.27C99.5285 210.01 100.069 210.58 100.729 210.98C101.409 211.38 102.129 211.58 102.889 211.58C103.669 211.58 104.399 211.39 105.079 211.01C105.759 210.61 106.299 210.05 106.699 209.33C107.099 208.59 107.299 207.71 107.299 206.69ZM125.471 215L119.831 207.92V215H115.631V192.8H119.831V205.43L125.411 198.38H130.871L123.551 206.72L130.931 215H125.471Z" fill="#616875"/>
<path fill-rule="evenodd" clip-rule="evenodd" d="M20 285.5C20 282.735 22.2354 280.5 25.0003 280.5C27.7652 280.5 30 282.735 30 285.5C30 288.265 27.7652 290.5 25.0003 290.5C22.2354 290.5 20 288.265 20 285.5" fill="#52DE97"/>
<path d="M40.08 278V274.13H47.31V296H42.99V278H40.08ZM52.7791 291.26C54.6991 289.66 56.2291 288.33 57.3691 287.27C58.5091 286.19 59.4591 285.07 60.2191 283.91C60.9791 282.75 61.3591 281.61 61.3591 280.49C61.3591 279.47 61.1191 278.67 60.6391 278.09C60.1591 277.51 59.4191 277.22 58.4191 277.22C57.4191 277.22 56.6491 277.56 56.1091 278.24C55.5691 278.9 55.2891 279.81 55.2691 280.97H51.1891C51.2691 278.57 51.9791 276.75 53.3191 275.51C54.6791 274.27 56.3991 273.65 58.4791 273.65C60.7591 273.65 62.5091 274.26 63.7291 275.48C64.9491 276.68 65.5591 278.27 65.5591 280.25C65.5591 281.81 65.1391 283.3 64.2991 284.72C63.4591 286.14 62.4991 287.38 61.4191 288.44C60.3391 289.48 58.9291 290.74 57.1891 292.22H66.0391V295.7H51.2191V292.58L52.7791 291.26ZM71.0257 296.21C70.2657 296.21 69.6357 295.98 69.1357 295.52C68.6557 295.04 68.4157 294.45 68.4157 293.75C68.4157 293.05 68.6557 292.47 69.1357 292.01C69.6357 291.53 70.2657 291.29 71.0257 291.29C71.7657 291.29 72.3757 291.53 72.8557 292.01C73.3357 292.47 73.5757 293.05 73.5757 293.75C73.5757 294.45 73.3357 295.04 72.8557 295.52C72.3757 295.98 71.7657 296.21 71.0257 296.21ZM76.5387 279.89C76.6387 277.89 77.3387 276.35 78.6387 275.27C79.9587 274.17 81.6887 273.62 83.8287 273.62C85.2887 273.62 86.5387 273.88 87.5787 274.4C88.6187 274.9 89.3987 275.59 89.9187 276.47C90.4587 277.33 90.7287 278.31 90.7287 279.41C90.7287 280.67 90.3987 281.74 89.7387 282.62C89.0987 283.48 88.3287 284.06 87.4287 284.36V284.48C88.5887 284.84 89.4887 285.48 90.1287 286.4C90.7887 287.32 91.1187 288.5 91.1187 289.94C91.1187 291.14 90.8387 292.21 90.2787 293.15C89.7387 294.09 88.9287 294.83 87.8487 295.37C86.7887 295.89 85.5087 296.15 84.0087 296.15C81.7487 296.15 79.9087 295.58 78.4887 294.44C77.0687 293.3 76.3187 291.62 76.2387 289.4H80.3187C80.3587 290.38 80.6887 291.17 81.3087 291.77C81.9487 292.35 82.8187 292.64 83.9187 292.64C84.9387 292.64 85.7187 292.36 86.2587 291.8C86.8187 291.22 87.0987 290.48 87.0987 289.58C87.0987 288.38 86.7187 287.52 85.9587 287C85.1987 286.48 84.0187 286.22 82.4187 286.22H81.5487V282.77H82.4187C85.2587 282.77 86.6787 281.82 86.6787 279.92C86.6787 279.06 86.4187 278.39 85.8987 277.91C85.3987 277.43 84.6687 277.19 83.7087 277.19C82.7687 277.19 82.0387 277.45 81.5187 277.97C81.0187 278.47 80.7287 279.11 80.6487 279.89H76.5387Z" fill="#616875"/>
<path fill-rule="evenodd" clip-rule="evenodd" d="M20 366.5C20 363.735 22.2354 361.5 25.0003 361.5C27.7652 361.5 30 363.735 30 366.5C30 369.265 27.7652 371.5 25.0003 371.5C22.2354 371.5 20 369.265 20 366.5" fill="#ADB3C0"/>
<path d="M48.69 363.83H45.78V377H41.52V363.83H39.63V360.38H41.52V359.54C41.52 357.5 42.1 356 43.26 355.04C44.42 354.08 46.17 353.63 48.51 353.69V357.23C47.49 357.21 46.78 357.38 46.38 357.74C45.98 358.1 45.78 358.75 45.78 359.69V360.38H48.69V363.83ZM66.8618 368.33C66.8618 368.93 66.8218 369.47 66.7418 369.95H54.5918C54.6918 371.15 55.1118 372.09 55.8518 372.77C56.5918 373.45 57.5018 373.79 58.5818 373.79C60.1418 373.79 61.2518 373.12 61.9118 371.78H66.4418C65.9618 373.38 65.0418 374.7 63.6818 375.74C62.3218 376.76 60.6518 377.27 58.6718 377.27C57.0718 377.27 55.6318 376.92 54.3518 376.22C53.0918 375.5 52.1018 374.49 51.3818 373.19C50.6818 371.89 50.3318 370.39 50.3318 368.69C50.3318 366.97 50.6818 365.46 51.3818 364.16C52.0818 362.86 53.0618 361.86 54.3218 361.16C55.5818 360.46 57.0318 360.11 58.6718 360.11C60.2518 360.11 61.6618 360.45 62.9018 361.13C64.1618 361.81 65.1318 362.78 65.8118 364.04C66.5118 365.28 66.8618 366.71 66.8618 368.33ZM62.5118 367.13C62.4918 366.05 62.1018 365.19 61.3418 364.55C60.5818 363.89 59.6518 363.56 58.5518 363.56C57.5118 363.56 56.6318 363.88 55.9118 364.52C55.2118 365.14 54.7818 366.01 54.6218 367.13H62.5118ZM68.8474 368.69C68.8474 366.97 69.1974 365.47 69.8974 364.19C70.5974 362.89 71.5674 361.89 72.8074 361.19C74.0474 360.47 75.4674 360.11 77.0674 360.11C79.1274 360.11 80.8274 360.63 82.1674 361.67C83.5274 362.69 84.4374 364.13 84.8974 365.99H80.3674C80.1274 365.27 79.7174 364.71 79.1374 364.31C78.5774 363.89 77.8774 363.68 77.0374 363.68C75.8374 363.68 74.8874 364.12 74.1874 365C73.4874 365.86 73.1374 367.09 73.1374 368.69C73.1374 370.27 73.4874 371.5 74.1874 372.38C74.8874 373.24 75.8374 373.67 77.0374 373.67C78.7374 373.67 79.8474 372.91 80.3674 371.39H84.8974C84.4374 373.19 83.5274 374.62 82.1674 375.68C80.8074 376.74 79.1074 377.27 77.0674 377.27C75.4674 377.27 74.0474 376.92 72.8074 376.22C71.5674 375.5 70.5974 374.5 69.8974 373.22C69.1974 371.92 68.8474 370.41 68.8474 368.69ZM86.8943 368.63C86.8943 366.95 87.2243 365.46 87.8843 364.16C88.5643 362.86 89.4843 361.86 90.6443 361.16C91.8043 360.46 93.0943 360.11 94.5143 360.11C95.5943 360.11 96.6243 360.35 97.6043 360.83C98.5843 361.29 99.3643 361.91 99.9443 362.69V354.8H104.204V377H99.9443V374.54C99.4243 375.36 98.6943 376.02 97.7543 376.52C96.8143 377.02 95.7243 377.27 94.4843 377.27C93.0843 377.27 91.8043 376.91 90.6443 376.19C89.4843 375.47 88.5643 374.46 87.8843 373.16C87.2243 371.84 86.8943 370.33 86.8943 368.63ZM99.9743 368.69C99.9743 367.67 99.7743 366.8 99.3743 366.08C98.9743 365.34 98.4343 364.78 97.7543 364.4C97.0743 364 96.3443 363.8 95.5643 363.8C94.7843 363.8 94.0643 363.99 93.4043 364.37C92.7443 364.75 92.2043 365.31 91.7843 366.05C91.3843 366.77 91.1843 367.63 91.1843 368.63C91.1843 369.63 91.3843 370.51 91.7843 371.27C92.2043 372.01 92.7443 372.58 93.4043 372.98C94.0843 373.38 94.8043 373.58 95.5643 373.58C96.3443 373.58 97.0743 373.39 97.7543 373.01C98.4343 372.61 98.9743 372.05 99.3743 371.33C99.7743 370.59 99.9743 369.71 99.9743 368.69Z" fill="#616875"/>
<path fill-rule="evenodd" clip-rule="evenodd" d="M20 447.5C20 444.735 22.2354 442.5 25.0003 442.5C27.7652 442.5 30 444.735 30 447.5C30 450.265 27.7652 452.5 25.0003 452.5C22.2354 452.5 20 450.265 20 447.5" fill="#ADB3C0"/>
<path d="M53.91 454.01H45.57L44.19 458H39.78L47.31 437.03H52.2L59.73 458H55.29L53.91 454.01ZM52.77 450.65L49.74 441.89L46.71 450.65H52.77ZM66.7446 435.8V458H62.5446V435.8H66.7446ZM78.2742 458.27C76.6742 458.27 75.2342 457.92 73.9542 457.22C72.6742 456.5 71.6642 455.49 70.9242 454.19C70.2042 452.89 69.8442 451.39 69.8442 449.69C69.8442 447.99 70.2142 446.49 70.9542 445.19C71.7142 443.89 72.7442 442.89 74.0442 442.19C75.3442 441.47 76.7942 441.11 78.3942 441.11C79.9942 441.11 81.4442 441.47 82.7442 442.19C84.0442 442.89 85.0642 443.89 85.8042 445.19C86.5642 446.49 86.9442 447.99 86.9442 449.69C86.9442 451.39 86.5542 452.89 85.7742 454.19C85.0142 455.49 83.9742 456.5 82.6542 457.22C81.3542 457.92 79.8942 458.27 78.2742 458.27ZM78.2742 454.61C79.0342 454.61 79.7442 454.43 80.4042 454.07C81.0842 453.69 81.6242 453.13 82.0242 452.39C82.4242 451.65 82.6242 450.75 82.6242 449.69C82.6242 448.11 82.2042 446.9 81.3642 446.06C80.5442 445.2 79.5342 444.77 78.3342 444.77C77.1342 444.77 76.1242 445.2 75.3042 446.06C74.5042 446.9 74.1042 448.11 74.1042 449.69C74.1042 451.27 74.4942 452.49 75.2742 453.35C76.0742 454.19 77.0742 454.61 78.2742 454.61ZM99.2351 441.14C101.215 441.14 102.815 441.77 104.035 443.03C105.255 444.27 105.865 446.01 105.865 448.25V458H101.665V448.82C101.665 447.5 101.335 446.49 100.675 445.79C100.015 445.07 99.1151 444.71 97.9751 444.71C96.8151 444.71 95.8951 445.07 95.2151 445.79C94.5551 446.49 94.2251 447.5 94.2251 448.82V458H90.0251V441.38H94.2251V443.45C94.7851 442.73 95.4951 442.17 96.3551 441.77C97.2351 441.35 98.1951 441.14 99.2351 441.14ZM128.609 459.2V463.19H110.999V459.2H128.609ZM134.4 453.26C136.32 451.66 137.85 450.33 138.99 449.27C140.13 448.19 141.08 447.07 141.84 445.91C142.6 444.75 142.98 443.61 142.98 442.49C142.98 441.47 142.74 440.67 142.26 440.09C141.78 439.51 141.04 439.22 140.04 439.22C139.04 439.22 138.27 439.56 137.73 440.24C137.19 440.9 136.91 441.81 136.89 442.97H132.81C132.89 440.57 133.6 438.75 134.94 437.51C136.3 436.27 138.02 435.65 140.1 435.65C142.38 435.65 144.13 436.26 145.35 437.48C146.57 438.68 147.18 440.27 147.18 442.25C147.18 443.81 146.76 445.3 145.92 446.72C145.08 448.14 144.12 449.38 143.04 450.44C141.96 451.48 140.55 452.74 138.81 454.22H147.66V457.7H132.84V454.58L134.4 453.26Z" fill="#616875"/>
</svg>
