<svg width="200" height="35" viewBox="0 0 200 35" fill="none" xmlns="http://www.w3.org/2000/svg">
<path d="M0 0H194C197.314 0 200 2.68629 200 6V29C200 32.3137 197.314 35 194 35H0V0Z" fill="url(#paint0_linear_137_16254)"/>
<path d="M41.1316 8H28.5V23.1579H41.1316V8Z" stroke="white"/>
<path d="M28.9209 13.0527H40.7104" stroke="white"/>
<path d="M31.4492 10.5254H33.1334" stroke="white"/>
<path d="M28.9209 18.1052H40.7104" stroke="white"/>
<path d="M31.4492 15.5781H33.1334" stroke="white"/>
<path d="M31.4492 20.6309H33.1334" stroke="white"/>
<circle cx="41.5" cy="22" r="4.5" fill="#52DE97" stroke="#394253"/>
<path d="M58.7166 12.242C59.7806 12.242 60.6999 12.4427 61.4746 12.844C62.2586 13.236 62.8559 13.8007 63.2666 14.538C63.6866 15.2753 63.8966 16.1433 63.8966 17.142C63.8966 18.1407 63.6866 19.0087 63.2666 19.746C62.8559 20.474 62.2586 21.034 61.4746 21.426C60.6999 21.8087 59.7806 22 58.7166 22H55.6786V12.242H58.7166ZM58.7166 20.95C59.9766 20.95 60.9379 20.6187 61.6006 19.956C62.2633 19.284 62.5946 18.346 62.5946 17.142C62.5946 15.9287 62.2586 14.9813 61.5866 14.3C60.9239 13.6187 59.9673 13.278 58.7166 13.278H56.9526V20.95H58.7166ZM65.101 18.136C65.101 17.352 65.2597 16.666 65.577 16.078C65.8944 15.4807 66.3284 15.0187 66.879 14.692C67.439 14.3653 68.0597 14.202 68.741 14.202C69.413 14.202 69.9964 14.3467 70.491 14.636C70.9857 14.9253 71.3544 15.2893 71.597 15.728V14.328H72.885V22H71.597V20.572C71.345 21.02 70.967 21.3933 70.463 21.692C69.9684 21.9813 69.3897 22.126 68.727 22.126C68.0457 22.126 67.4297 21.958 66.879 21.622C66.3284 21.286 65.8944 20.8147 65.577 20.208C65.2597 19.6013 65.101 18.9107 65.101 18.136ZM71.597 18.15C71.597 17.5713 71.4804 17.0673 71.247 16.638C71.0137 16.2087 70.6964 15.882 70.295 15.658C69.903 15.4247 69.469 15.308 68.993 15.308C68.517 15.308 68.083 15.42 67.691 15.644C67.299 15.868 66.9864 16.1947 66.753 16.624C66.5197 17.0533 66.403 17.5573 66.403 18.136C66.403 18.724 66.5197 19.2373 66.753 19.676C66.9864 20.1053 67.299 20.4367 67.691 20.67C68.083 20.894 68.517 21.006 68.993 21.006C69.469 21.006 69.903 20.894 70.295 20.67C70.6964 20.4367 71.0137 20.1053 71.247 19.676C71.4804 19.2373 71.597 18.7287 71.597 18.15ZM76.592 15.378V19.9C76.592 20.2733 76.6713 20.5393 76.83 20.698C76.9886 20.8473 77.264 20.922 77.656 20.922H78.594V22H77.446C76.7366 22 76.2046 21.8367 75.85 21.51C75.4953 21.1833 75.318 20.6467 75.318 19.9V15.378H74.324V14.328H75.318V12.396H76.592V14.328H78.594V15.378H76.592ZM79.6616 18.136C79.6616 17.352 79.8202 16.666 80.1376 16.078C80.4549 15.4807 80.8889 15.0187 81.4396 14.692C81.9996 14.3653 82.6202 14.202 83.3016 14.202C83.9736 14.202 84.5569 14.3467 85.0516 14.636C85.5462 14.9253 85.9149 15.2893 86.1576 15.728V14.328H87.4456V22H86.1576V20.572C85.9056 21.02 85.5276 21.3933 85.0236 21.692C84.5289 21.9813 83.9502 22.126 83.2876 22.126C82.6062 22.126 81.9902 21.958 81.4396 21.622C80.8889 21.286 80.4549 20.8147 80.1376 20.208C79.8202 19.6013 79.6616 18.9107 79.6616 18.136ZM86.1576 18.15C86.1576 17.5713 86.0409 17.0673 85.8076 16.638C85.5742 16.2087 85.2569 15.882 84.8556 15.658C84.4636 15.4247 84.0296 15.308 83.5536 15.308C83.0776 15.308 82.6436 15.42 82.2516 15.644C81.8596 15.868 81.5469 16.1947 81.3136 16.624C81.0802 17.0533 80.9636 17.5573 80.9636 18.136C80.9636 18.724 81.0802 19.2373 81.3136 19.676C81.5469 20.1053 81.8596 20.4367 82.2516 20.67C82.6436 20.894 83.0776 21.006 83.5536 21.006C84.0296 21.006 84.4636 20.894 84.8556 20.67C85.2569 20.4367 85.5742 20.1053 85.8076 19.676C86.0409 19.2373 86.1576 18.7287 86.1576 18.15ZM92.8549 18.15C92.8549 17.3567 93.0136 16.666 93.3309 16.078C93.6483 15.4807 94.0869 15.0187 94.6469 14.692C95.2163 14.3653 95.8649 14.202 96.5929 14.202C97.5356 14.202 98.3103 14.4307 98.9169 14.888C99.5329 15.3453 99.9389 15.98 100.135 16.792H98.7629C98.6323 16.3253 98.3756 15.9567 97.9929 15.686C97.6196 15.4153 97.1529 15.28 96.5929 15.28C95.8649 15.28 95.2769 15.532 94.8289 16.036C94.3809 16.5307 94.1569 17.2353 94.1569 18.15C94.1569 19.074 94.3809 19.788 94.8289 20.292C95.2769 20.796 95.8649 21.048 96.5929 21.048C97.1529 21.048 97.6196 20.9173 97.9929 20.656C98.3663 20.3947 98.6229 20.0213 98.7629 19.536H100.135C99.9296 20.32 99.5189 20.95 98.9029 21.426C98.2869 21.8927 97.5169 22.126 96.5929 22.126C95.8649 22.126 95.2163 21.9627 94.6469 21.636C94.0869 21.3093 93.6483 20.8473 93.3309 20.25C93.0136 19.6527 92.8549 18.9527 92.8549 18.15ZM105.181 22.126C104.462 22.126 103.809 21.9627 103.221 21.636C102.642 21.3093 102.185 20.8473 101.849 20.25C101.522 19.6433 101.359 18.9433 101.359 18.15C101.359 17.366 101.527 16.6753 101.863 16.078C102.208 15.4713 102.675 15.0093 103.263 14.692C103.851 14.3653 104.509 14.202 105.237 14.202C105.965 14.202 106.623 14.3653 107.211 14.692C107.799 15.0093 108.261 15.4667 108.597 16.064C108.942 16.6613 109.115 17.3567 109.115 18.15C109.115 18.9433 108.938 19.6433 108.583 20.25C108.238 20.8473 107.766 21.3093 107.169 21.636C106.572 21.9627 105.909 22.126 105.181 22.126ZM105.181 21.006C105.638 21.006 106.068 20.8987 106.469 20.684C106.87 20.4693 107.192 20.1473 107.435 19.718C107.687 19.2887 107.813 18.766 107.813 18.15C107.813 17.534 107.692 17.0113 107.449 16.582C107.206 16.1527 106.889 15.8353 106.497 15.63C106.105 15.4153 105.68 15.308 105.223 15.308C104.756 15.308 104.327 15.4153 103.935 15.63C103.552 15.8353 103.244 16.1527 103.011 16.582C102.778 17.0113 102.661 17.534 102.661 18.15C102.661 18.7753 102.773 19.3027 102.997 19.732C103.23 20.1613 103.538 20.4833 103.921 20.698C104.304 20.9033 104.724 21.006 105.181 21.006ZM114.528 14.188C115.461 14.188 116.217 14.4727 116.796 15.042C117.375 15.602 117.664 16.414 117.664 17.478V22H116.404V17.66C116.404 16.8947 116.213 16.3113 115.83 15.91C115.447 15.4993 114.925 15.294 114.262 15.294C113.59 15.294 113.053 15.504 112.652 15.924C112.26 16.344 112.064 16.9553 112.064 17.758V22H110.79V14.328H112.064V15.42C112.316 15.028 112.657 14.7247 113.086 14.51C113.525 14.2953 114.005 14.188 114.528 14.188ZM123.483 14.188C124.416 14.188 125.172 14.4727 125.751 15.042C126.33 15.602 126.619 16.414 126.619 17.478V22H125.359V17.66C125.359 16.8947 125.168 16.3113 124.785 15.91C124.402 15.4993 123.88 15.294 123.217 15.294C122.545 15.294 122.008 15.504 121.607 15.924C121.215 16.344 121.019 16.9553 121.019 17.758V22H119.745V14.328H121.019V15.42C121.271 15.028 121.612 14.7247 122.041 14.51C122.48 14.2953 122.96 14.188 123.483 14.188ZM135.7 17.87C135.7 18.1127 135.686 18.3693 135.658 18.64H129.526C129.573 19.396 129.829 19.9887 130.296 20.418C130.772 20.838 131.346 21.048 132.018 21.048C132.569 21.048 133.026 20.922 133.39 20.67C133.763 20.4087 134.025 20.0633 134.174 19.634H135.546C135.341 20.3713 134.93 20.9733 134.314 21.44C133.698 21.8973 132.933 22.126 132.018 22.126C131.29 22.126 130.637 21.9627 130.058 21.636C129.489 21.3093 129.041 20.8473 128.714 20.25C128.387 19.6433 128.224 18.9433 128.224 18.15C128.224 17.3567 128.383 16.6613 128.7 16.064C129.017 15.4667 129.461 15.0093 130.03 14.692C130.609 14.3653 131.271 14.202 132.018 14.202C132.746 14.202 133.39 14.3607 133.95 14.678C134.51 14.9953 134.939 15.434 135.238 15.994C135.546 16.5447 135.7 17.17 135.7 17.87ZM134.384 17.604C134.384 17.1187 134.277 16.7033 134.062 16.358C133.847 16.0033 133.553 15.7373 133.18 15.56C132.816 15.3733 132.41 15.28 131.962 15.28C131.318 15.28 130.767 15.4853 130.31 15.896C129.862 16.3067 129.605 16.876 129.54 17.604H134.384ZM136.906 18.15C136.906 17.3567 137.064 16.666 137.382 16.078C137.699 15.4807 138.138 15.0187 138.698 14.692C139.267 14.3653 139.916 14.202 140.644 14.202C141.586 14.202 142.361 14.4307 142.968 14.888C143.584 15.3453 143.99 15.98 144.186 16.792H142.814C142.683 16.3253 142.426 15.9567 142.044 15.686C141.67 15.4153 141.204 15.28 140.644 15.28C139.916 15.28 139.328 15.532 138.88 16.036C138.432 16.5307 138.208 17.2353 138.208 18.15C138.208 19.074 138.432 19.788 138.88 20.292C139.328 20.796 139.916 21.048 140.644 21.048C141.204 21.048 141.67 20.9173 142.044 20.656C142.417 20.3947 142.674 20.0213 142.814 19.536H144.186C143.98 20.32 143.57 20.95 142.954 21.426C142.338 21.8927 141.568 22.126 140.644 22.126C139.916 22.126 139.267 21.9627 138.698 21.636C138.138 21.3093 137.699 20.8473 137.382 20.25C137.064 19.6527 136.906 18.9527 136.906 18.15ZM147.44 15.378V19.9C147.44 20.2733 147.519 20.5393 147.678 20.698C147.836 20.8473 148.112 20.922 148.504 20.922H149.442V22H148.294C147.584 22 147.052 21.8367 146.698 21.51C146.343 21.1833 146.166 20.6467 146.166 19.9V15.378H145.172V14.328H146.166V12.396H147.44V14.328H149.442V15.378H147.44ZM154.331 22.126C153.613 22.126 152.959 21.9627 152.371 21.636C151.793 21.3093 151.335 20.8473 150.999 20.25C150.673 19.6433 150.509 18.9433 150.509 18.15C150.509 17.366 150.677 16.6753 151.013 16.078C151.359 15.4713 151.825 15.0093 152.413 14.692C153.001 14.3653 153.659 14.202 154.387 14.202C155.115 14.202 155.773 14.3653 156.361 14.692C156.949 15.0093 157.411 15.4667 157.747 16.064C158.093 16.6613 158.265 17.3567 158.265 18.15C158.265 18.9433 158.088 19.6433 157.733 20.25C157.388 20.8473 156.917 21.3093 156.319 21.636C155.722 21.9627 155.059 22.126 154.331 22.126ZM154.331 21.006C154.789 21.006 155.218 20.8987 155.619 20.684C156.021 20.4693 156.343 20.1473 156.585 19.718C156.837 19.2887 156.963 18.766 156.963 18.15C156.963 17.534 156.842 17.0113 156.599 16.582C156.357 16.1527 156.039 15.8353 155.647 15.63C155.255 15.4153 154.831 15.308 154.373 15.308C153.907 15.308 153.477 15.4153 153.085 15.63C152.703 15.8353 152.395 16.1527 152.161 16.582C151.928 17.0113 151.811 17.534 151.811 18.15C151.811 18.7753 151.923 19.3027 152.147 19.732C152.381 20.1613 152.689 20.4833 153.071 20.698C153.454 20.9033 153.874 21.006 154.331 21.006ZM161.214 15.574C161.438 15.1353 161.756 14.7947 162.166 14.552C162.586 14.3093 163.095 14.188 163.692 14.188V15.504H163.356C161.928 15.504 161.214 16.2787 161.214 17.828V22H159.94V14.328H161.214V15.574ZM167.879 22.126C167.291 22.126 166.764 22.028 166.297 21.832C165.83 21.6267 165.462 21.3467 165.191 20.992C164.92 20.628 164.771 20.2127 164.743 19.746H166.059C166.096 20.1287 166.274 20.4413 166.591 20.684C166.918 20.9267 167.342 21.048 167.865 21.048C168.35 21.048 168.733 20.9407 169.013 20.726C169.293 20.5113 169.433 20.2407 169.433 19.914C169.433 19.578 169.284 19.3307 168.985 19.172C168.686 19.004 168.224 18.8407 167.599 18.682C167.03 18.5327 166.563 18.3833 166.199 18.234C165.844 18.0753 165.536 17.8467 165.275 17.548C165.023 17.24 164.897 16.8387 164.897 16.344C164.897 15.952 165.014 15.5927 165.247 15.266C165.48 14.9393 165.812 14.6827 166.241 14.496C166.67 14.3 167.16 14.202 167.711 14.202C168.56 14.202 169.246 14.4167 169.769 14.846C170.292 15.2753 170.572 15.8633 170.609 16.61H169.335C169.307 16.2087 169.144 15.8867 168.845 15.644C168.556 15.4013 168.164 15.28 167.669 15.28C167.212 15.28 166.848 15.378 166.577 15.574C166.306 15.77 166.171 16.0267 166.171 16.344C166.171 16.596 166.25 16.806 166.409 16.974C166.577 17.1327 166.782 17.2633 167.025 17.366C167.277 17.4593 167.622 17.5667 168.061 17.688C168.612 17.8373 169.06 17.9867 169.405 18.136C169.75 18.276 170.044 18.4907 170.287 18.78C170.539 19.0693 170.67 19.4473 170.679 19.914C170.679 20.334 170.562 20.712 170.329 21.048C170.096 21.384 169.764 21.65 169.335 21.846C168.915 22.0327 168.43 22.126 167.879 22.126Z" fill="white"/>
<defs>
<linearGradient id="paint0_linear_137_16254" x1="223.797" y1="17.637" x2="-30.9053" y2="17.637" gradientUnits="userSpaceOnUse">
<stop stop-color="#091733"/>
<stop offset="1" stop-color="#394253"/>
</linearGradient>
</defs>
</svg>
