<svg width="200" height="35" viewBox="0 0 200 35" fill="none" xmlns="http://www.w3.org/2000/svg">
<rect width="200" height="35" rx="6" fill="url(#paint0_linear_137_16067)"/>
<path d="M35.6316 8H23V23.1579H35.6316V8Z" stroke="white"/>
<path d="M23.4209 13.0526H35.2104" stroke="white"/>
<path d="M25.9492 10.5254H27.6334" stroke="white"/>
<path d="M23.4209 18.1053H35.2104" stroke="white"/>
<path d="M25.9492 15.5781H27.6334" stroke="white"/>
<path d="M25.9492 20.6309H27.6334" stroke="white"/>
<circle cx="36" cy="22" r="5" fill="#52DE97"/>
<path d="M53.6014 12.545C54.7414 12.545 55.7264 12.76 56.5564 13.19C57.3964 13.61 58.0364 14.215 58.4764 15.005C58.9264 15.795 59.1514 16.725 59.1514 17.795C59.1514 18.865 58.9264 19.795 58.4764 20.585C58.0364 21.365 57.3964 21.965 56.5564 22.385C55.7264 22.795 54.7414 23 53.6014 23H50.3464V12.545H53.6014ZM53.6014 21.875C54.9514 21.875 55.9814 21.52 56.6914 20.81C57.4014 20.09 57.7564 19.085 57.7564 17.795C57.7564 16.495 57.3964 15.48 56.6764 14.75C55.9664 14.02 54.9414 13.655 53.6014 13.655H51.7114V21.875H53.6014ZM60.4419 18.86C60.4419 18.02 60.6119 17.285 60.9519 16.655C61.2919 16.015 61.7569 15.52 62.3469 15.17C62.9469 14.82 63.6119 14.645 64.3419 14.645C65.0619 14.645 65.6869 14.8 66.2169 15.11C66.7469 15.42 67.1419 15.81 67.4019 16.28V14.78H68.7819V23H67.4019V21.47C67.1319 21.95 66.7269 22.35 66.1869 22.67C65.6569 22.98 65.0369 23.135 64.3269 23.135C63.5969 23.135 62.9369 22.955 62.3469 22.595C61.7569 22.235 61.2919 21.73 60.9519 21.08C60.6119 20.43 60.4419 19.69 60.4419 18.86ZM67.4019 18.875C67.4019 18.255 67.2769 17.715 67.0269 17.255C66.7769 16.795 66.4369 16.445 66.0069 16.205C65.5869 15.955 65.1219 15.83 64.6119 15.83C64.1019 15.83 63.6369 15.95 63.2169 16.19C62.7969 16.43 62.4619 16.78 62.2119 17.24C61.9619 17.7 61.8369 18.24 61.8369 18.86C61.8369 19.49 61.9619 20.04 62.2119 20.51C62.4619 20.97 62.7969 21.325 63.2169 21.575C63.6369 21.815 64.1019 21.935 64.6119 21.935C65.1219 21.935 65.5869 21.815 66.0069 21.575C66.4369 21.325 66.7769 20.97 67.0269 20.51C67.2769 20.04 67.4019 19.495 67.4019 18.875ZM72.7536 15.905V20.75C72.7536 21.15 72.8386 21.435 73.0086 21.605C73.1786 21.765 73.4736 21.845 73.8936 21.845H74.8986V23H73.6686C72.9086 23 72.3386 22.825 71.9586 22.475C71.5786 22.125 71.3886 21.55 71.3886 20.75V15.905H70.3236V14.78H71.3886V12.71H72.7536V14.78H74.8986V15.905H72.7536ZM76.0425 18.86C76.0425 18.02 76.2125 17.285 76.5525 16.655C76.8925 16.015 77.3575 15.52 77.9475 15.17C78.5475 14.82 79.2125 14.645 79.9425 14.645C80.6625 14.645 81.2875 14.8 81.8175 15.11C82.3475 15.42 82.7425 15.81 83.0025 16.28V14.78H84.3825V23H83.0025V21.47C82.7325 21.95 82.3275 22.35 81.7875 22.67C81.2575 22.98 80.6375 23.135 79.9275 23.135C79.1975 23.135 78.5375 22.955 77.9475 22.595C77.3575 22.235 76.8925 21.73 76.5525 21.08C76.2125 20.43 76.0425 19.69 76.0425 18.86ZM83.0025 18.875C83.0025 18.255 82.8775 17.715 82.6275 17.255C82.3775 16.795 82.0375 16.445 81.6075 16.205C81.1875 15.955 80.7225 15.83 80.2125 15.83C79.7025 15.83 79.2375 15.95 78.8175 16.19C78.3975 16.43 78.0625 16.78 77.8125 17.24C77.5625 17.7 77.4375 18.24 77.4375 18.86C77.4375 19.49 77.5625 20.04 77.8125 20.51C78.0625 20.97 78.3975 21.325 78.8175 21.575C79.2375 21.815 79.7025 21.935 80.2125 21.935C80.7225 21.935 81.1875 21.815 81.6075 21.575C82.0375 21.325 82.3775 20.97 82.6275 20.51C82.8775 20.04 83.0025 19.495 83.0025 18.875ZM90.1782 17.765C90.1782 16.745 90.4082 15.83 90.8682 15.02C91.3282 14.2 91.9532 13.56 92.7432 13.1C93.5432 12.64 94.4282 12.41 95.3982 12.41C96.5382 12.41 97.5332 12.685 98.3832 13.235C99.2332 13.785 99.8532 14.565 100.243 15.575H98.6082C98.3182 14.945 97.8982 14.46 97.3482 14.12C96.8082 13.78 96.1582 13.61 95.3982 13.61C94.6682 13.61 94.0132 13.78 93.4332 14.12C92.8532 14.46 92.3982 14.945 92.0682 15.575C91.7382 16.195 91.5732 16.925 91.5732 17.765C91.5732 18.595 91.7382 19.325 92.0682 19.955C92.3982 20.575 92.8532 21.055 93.4332 21.395C94.0132 21.735 94.6682 21.905 95.3982 21.905C96.1582 21.905 96.8082 21.74 97.3482 21.41C97.8982 21.07 98.3182 20.585 98.6082 19.955H100.243C99.8532 20.955 99.2332 21.73 98.3832 22.28C97.5332 22.82 96.5382 23.09 95.3982 23.09C94.4282 23.09 93.5432 22.865 92.7432 22.415C91.9532 21.955 91.3282 21.32 90.8682 20.51C90.4082 19.7 90.1782 18.785 90.1782 17.765ZM105.86 23.135C105.09 23.135 104.39 22.96 103.76 22.61C103.14 22.26 102.65 21.765 102.29 21.125C101.94 20.475 101.765 19.725 101.765 18.875C101.765 18.035 101.945 17.295 102.305 16.655C102.675 16.005 103.175 15.51 103.805 15.17C104.435 14.82 105.14 14.645 105.92 14.645C106.7 14.645 107.405 14.82 108.035 15.17C108.665 15.51 109.16 16 109.52 16.64C109.89 17.28 110.075 18.025 110.075 18.875C110.075 19.725 109.885 20.475 109.505 21.125C109.135 21.765 108.63 22.26 107.99 22.61C107.35 22.96 106.64 23.135 105.86 23.135ZM105.86 21.935C106.35 21.935 106.81 21.82 107.24 21.59C107.67 21.36 108.015 21.015 108.275 20.555C108.545 20.095 108.68 19.535 108.68 18.875C108.68 18.215 108.55 17.655 108.29 17.195C108.03 16.735 107.69 16.395 107.27 16.175C106.85 15.945 106.395 15.83 105.905 15.83C105.405 15.83 104.945 15.945 104.525 16.175C104.115 16.395 103.785 16.735 103.535 17.195C103.285 17.655 103.16 18.215 103.16 18.875C103.16 19.545 103.28 20.11 103.52 20.57C103.77 21.03 104.1 21.375 104.51 21.605C104.92 21.825 105.37 21.935 105.86 21.935ZM115.875 14.63C116.875 14.63 117.685 14.935 118.305 15.545C118.925 16.145 119.235 17.015 119.235 18.155V23H117.885V18.35C117.885 17.53 117.68 16.905 117.27 16.475C116.86 16.035 116.3 15.815 115.59 15.815C114.87 15.815 114.295 16.04 113.865 16.49C113.445 16.94 113.235 17.595 113.235 18.455V23H111.87V14.78H113.235V15.95C113.505 15.53 113.87 15.205 114.33 14.975C114.8 14.745 115.315 14.63 115.875 14.63ZM125.47 14.63C126.47 14.63 127.28 14.935 127.9 15.545C128.52 16.145 128.83 17.015 128.83 18.155V23H127.48V18.35C127.48 17.53 127.275 16.905 126.865 16.475C126.455 16.035 125.895 15.815 125.185 15.815C124.465 15.815 123.89 16.04 123.46 16.49C123.04 16.94 122.83 17.595 122.83 18.455V23H121.465V14.78H122.83V15.95C123.1 15.53 123.465 15.205 123.925 14.975C124.395 14.745 124.91 14.63 125.47 14.63ZM138.559 18.575C138.559 18.835 138.544 19.11 138.514 19.4H131.944C131.994 20.21 132.269 20.845 132.769 21.305C133.279 21.755 133.894 21.98 134.614 21.98C135.204 21.98 135.694 21.845 136.084 21.575C136.484 21.295 136.764 20.925 136.924 20.465H138.394C138.174 21.255 137.734 21.9 137.074 22.4C136.414 22.89 135.594 23.135 134.614 23.135C133.834 23.135 133.134 22.96 132.514 22.61C131.904 22.26 131.424 21.765 131.074 21.125C130.724 20.475 130.549 19.725 130.549 18.875C130.549 18.025 130.719 17.28 131.059 16.64C131.399 16 131.874 15.51 132.484 15.17C133.104 14.82 133.814 14.645 134.614 14.645C135.394 14.645 136.084 14.815 136.684 15.155C137.284 15.495 137.744 15.965 138.064 16.565C138.394 17.155 138.559 17.825 138.559 18.575ZM137.149 18.29C137.149 17.77 137.034 17.325 136.804 16.955C136.574 16.575 136.259 16.29 135.859 16.1C135.469 15.9 135.034 15.8 134.554 15.8C133.864 15.8 133.274 16.02 132.784 16.46C132.304 16.9 132.029 17.51 131.959 18.29H137.149ZM139.851 18.875C139.851 18.025 140.021 17.285 140.361 16.655C140.701 16.015 141.171 15.52 141.771 15.17C142.381 14.82 143.076 14.645 143.856 14.645C144.866 14.645 145.696 14.89 146.346 15.38C147.006 15.87 147.441 16.55 147.651 17.42H146.181C146.041 16.92 145.766 16.525 145.356 16.235C144.956 15.945 144.456 15.8 143.856 15.8C143.076 15.8 142.446 16.07 141.966 16.61C141.486 17.14 141.246 17.895 141.246 18.875C141.246 19.865 141.486 20.63 141.966 21.17C142.446 21.71 143.076 21.98 143.856 21.98C144.456 21.98 144.956 21.84 145.356 21.56C145.756 21.28 146.031 20.88 146.181 20.36H147.651C147.431 21.2 146.991 21.875 146.331 22.385C145.671 22.885 144.846 23.135 143.856 23.135C143.076 23.135 142.381 22.96 141.771 22.61C141.171 22.26 140.701 21.765 140.361 21.125C140.021 20.485 139.851 19.735 139.851 18.875ZM151.137 15.905V20.75C151.137 21.15 151.222 21.435 151.392 21.605C151.562 21.765 151.857 21.845 152.277 21.845H153.282V23H152.052C151.292 23 150.722 22.825 150.342 22.475C149.962 22.125 149.772 21.55 149.772 20.75V15.905H148.707V14.78H149.772V12.71H151.137V14.78H153.282V15.905H151.137ZM158.521 23.135C157.751 23.135 157.051 22.96 156.421 22.61C155.801 22.26 155.311 21.765 154.951 21.125C154.601 20.475 154.426 19.725 154.426 18.875C154.426 18.035 154.606 17.295 154.966 16.655C155.336 16.005 155.836 15.51 156.466 15.17C157.096 14.82 157.801 14.645 158.581 14.645C159.361 14.645 160.066 14.82 160.696 15.17C161.326 15.51 161.821 16 162.181 16.64C162.551 17.28 162.736 18.025 162.736 18.875C162.736 19.725 162.546 20.475 162.166 21.125C161.796 21.765 161.291 22.26 160.651 22.61C160.011 22.96 159.301 23.135 158.521 23.135ZM158.521 21.935C159.011 21.935 159.471 21.82 159.901 21.59C160.331 21.36 160.676 21.015 160.936 20.555C161.206 20.095 161.341 19.535 161.341 18.875C161.341 18.215 161.211 17.655 160.951 17.195C160.691 16.735 160.351 16.395 159.931 16.175C159.511 15.945 159.056 15.83 158.566 15.83C158.066 15.83 157.606 15.945 157.186 16.175C156.776 16.395 156.446 16.735 156.196 17.195C155.946 17.655 155.821 18.215 155.821 18.875C155.821 19.545 155.941 20.11 156.181 20.57C156.431 21.03 156.761 21.375 157.171 21.605C157.581 21.825 158.031 21.935 158.521 21.935ZM165.896 16.115C166.136 15.645 166.476 15.28 166.916 15.02C167.366 14.76 167.911 14.63 168.551 14.63V16.04H168.191C166.661 16.04 165.896 16.87 165.896 18.53V23H164.531V14.78H165.896V16.115ZM173.037 23.135C172.407 23.135 171.842 23.03 171.342 22.82C170.842 22.6 170.447 22.3 170.157 21.92C169.867 21.53 169.707 21.085 169.677 20.585H171.087C171.127 20.995 171.317 21.33 171.657 21.59C172.007 21.85 172.462 21.98 173.022 21.98C173.542 21.98 173.952 21.865 174.252 21.635C174.552 21.405 174.702 21.115 174.702 20.765C174.702 20.405 174.542 20.14 174.222 19.97C173.902 19.79 173.407 19.615 172.737 19.445C172.127 19.285 171.627 19.125 171.237 18.965C170.857 18.795 170.527 18.55 170.247 18.23C169.977 17.9 169.842 17.47 169.842 16.94C169.842 16.52 169.967 16.135 170.217 15.785C170.467 15.435 170.822 15.16 171.282 14.96C171.742 14.75 172.267 14.645 172.857 14.645C173.767 14.645 174.502 14.875 175.062 15.335C175.622 15.795 175.922 16.425 175.962 17.225H174.597C174.567 16.795 174.392 16.45 174.072 16.19C173.762 15.93 173.342 15.8 172.812 15.8C172.322 15.8 171.932 15.905 171.642 16.115C171.352 16.325 171.207 16.6 171.207 16.94C171.207 17.21 171.292 17.435 171.462 17.615C171.642 17.785 171.862 17.925 172.122 18.035C172.392 18.135 172.762 18.25 173.232 18.38C173.822 18.54 174.302 18.7 174.672 18.86C175.042 19.01 175.357 19.24 175.617 19.55C175.887 19.86 176.027 20.265 176.037 20.765C176.037 21.215 175.912 21.62 175.662 21.98C175.412 22.34 175.057 22.625 174.597 22.835C174.147 23.035 173.627 23.135 173.037 23.135Z" fill="white"/>
<defs>
<linearGradient id="paint0_linear_137_16067" x1="223.797" y1="17.637" x2="-30.9053" y2="17.637" gradientUnits="userSpaceOnUse">
<stop stop-color="#091733"/>
<stop offset="1" stop-color="#394253"/>
</linearGradient>
</defs>
</svg>
