<svg width="17" height="17" viewBox="0 0 17 17" fill="none" xmlns="http://www.w3.org/2000/svg">
<path d="M7.45199 0.800405C8.58885 0.798822 9.70061 1.13755 10.6465 1.77369C11.5924 2.40984 12.33 3.31479 12.7658 4.37399C13.2015 5.4332 13.316 6.59902 13.0946 7.72386C12.8732 8.84871 12.3259 9.88199 11.522 10.6929C10.7181 11.5038 9.69379 12.0559 8.5787 12.2792C7.46361 12.5026 6.3079 12.3871 5.25788 11.9476C4.20786 11.508 3.31074 10.764 2.68011 9.80977C2.04949 8.85558 1.71371 7.73411 1.71528 6.58731C1.71946 5.05383 2.32521 3.58435 3.40014 2.50001C4.47508 1.41567 5.9318 0.80463 7.45199 0.800405ZM7.45199 4.86321e-06C6.15853 5.82404e-06 4.89415 0.387005 3.81879 1.11206C2.74343 1.83712 1.90542 2.86763 1.4108 4.07323C0.916184 5.27883 0.787175 6.60535 1.04009 7.88493C1.29301 9.16451 1.9165 10.3397 2.83166 11.2617C3.74683 12.1838 4.91254 12.8113 6.18133 13.0648C7.45012 13.3184 8.76497 13.1867 9.95952 12.6863C11.1541 12.1858 12.1746 11.3393 12.8921 10.2536C13.6095 9.16797 13.9917 7.89207 13.9901 6.58731C13.9901 5.72158 13.8209 4.86434 13.4923 4.06461C13.1636 3.26488 12.6819 2.53835 12.0747 1.92655C11.4674 1.31476 10.7466 0.829703 9.95341 0.499131C9.16022 0.16856 8.31021 -0.00104706 7.45199 4.86321e-06Z" fill="#13115B"/>
<path d="M11.6256 10.7974L16.4974 15.7198" stroke="#13115B"/>
</svg>
