<svg width="877" height="201" viewBox="0 0 877 201" fill="none" xmlns="http://www.w3.org/2000/svg">
<path d="M8.29102 25H870.003" stroke="#ADB3C0" stroke-dasharray="2 2"/>
<path d="M8.29102 73H870.003" stroke="#ADB3C0" stroke-dasharray="2 2"/>
<path d="M8.29102 121H870.003" stroke="#ADB3C0" stroke-dasharray="2 2"/>
<path d="M8.29102 169H870.003" stroke="#ADB3C0" stroke-dasharray="2 2"/>
<path d="M0.09375 193H870.003" stroke="#ADB3C0" stroke-dasharray="2 2"/>
<path d="M0.09375 145H870.003" stroke="#ADB3C0" stroke-dasharray="2 2"/>
<path d="M0.09375 97H870.003" stroke="#ADB3C0" stroke-dasharray="2 2"/>
<path d="M0.09375 49H870.003" stroke="#ADB3C0" stroke-dasharray="2 2"/>
<path d="M0.09375 1H870.003" stroke="#ADB3C0" stroke-dasharray="2 2"/>
<path d="M8.29102 1L8.29102 201" stroke="#ADB3C0" stroke-dasharray="2 2"/>
<path d="M132.271 1L132.27 201" stroke="#ADB3C0" stroke-dasharray="2 2"/>
<path d="M255.226 1L255.226 201" stroke="#ADB3C0" stroke-dasharray="2 2"/>
<path d="M378.182 1L378.182 201" stroke="#ADB3C0" stroke-dasharray="2 2"/>
<path d="M501.137 1V201" stroke="#ADB3C0" stroke-dasharray="2 2"/>
<path d="M624.092 1V201" stroke="#ADB3C0" stroke-dasharray="2 2"/>
<path d="M747.047 1V201" stroke="#ADB3C0" stroke-dasharray="2 2"/>
<path d="M870.002 1V201" stroke="#ADB3C0" stroke-dasharray="2 2"/>
<path d="M8.93848 146L130.36 31.6829L255.67 104L379.036 122.5L501.903 132.5L624.769 139.5L747.318 145.498H870.003" stroke="url(#paint0_linear_137_17523)" stroke-width="4"/>
<path d="M8.05168 151C11.4236 151 14.1571 148.314 14.1571 145C14.1571 141.686 11.4236 139 8.05168 139C4.67976 139 1.94629 141.686 1.94629 145C1.94629 148.314 4.67976 151 8.05168 151Z" fill="#52DE97" stroke="white"/>
<path d="M131.917 38C135.289 38 138.022 35.3137 138.022 32C138.022 28.6863 135.289 26 131.917 26C128.545 26 125.812 28.6863 125.812 32C125.812 35.3137 128.545 38 131.917 38Z" fill="#52DE97" stroke="white"/>
<path d="M255.782 109C259.154 109 261.888 106.314 261.888 103C261.888 99.6863 259.154 97 255.782 97C252.41 97 249.677 99.6863 249.677 103C249.677 106.314 252.41 109 255.782 109Z" fill="#52DE97" stroke="white"/>
<path d="M378.648 128C382.02 128 384.754 125.314 384.754 122C384.754 118.686 382.02 116 378.648 116C375.276 116 372.543 118.686 372.543 122C372.543 125.314 375.276 128 378.648 128Z" fill="#52DE97" stroke="white"/>
<path d="M501.516 138C504.887 138 507.621 135.314 507.621 132C507.621 128.686 504.887 126 501.516 126C498.144 126 495.41 128.686 495.41 132C495.41 135.314 498.144 138 501.516 138Z" fill="#52DE97" stroke="white"/>
<path d="M624.382 145C627.754 145 630.487 142.314 630.487 139C630.487 135.686 627.754 133 624.382 133C621.01 133 618.276 135.686 618.276 139C618.276 142.314 621.01 145 624.382 145Z" fill="#52DE97" stroke="white"/>
<path d="M747.248 151C750.62 151 753.353 148.314 753.353 145C753.353 141.686 750.62 139 747.248 139C743.876 139 741.143 141.686 741.143 145C741.143 148.314 743.876 151 747.248 151Z" fill="#52DE97" stroke="white"/>
<path d="M870.115 151C873.487 151 876.221 148.314 876.221 145C876.221 141.686 873.487 139 870.115 139C866.743 139 864.01 141.686 864.01 145C864.01 148.314 866.743 151 870.115 151Z" fill="#52DE97" stroke="white"/>
<defs>
<linearGradient id="paint0_linear_137_17523" x1="870.003" y1="88.8414" x2="8.93848" y2="88.8414" gradientUnits="userSpaceOnUse">
<stop stop-color="#00818A"/>
<stop offset="1" stop-color="#52DE97"/>
</linearGradient>
</defs>
</svg>
