<svg width="19" height="19" viewBox="0 0 19 19" fill="none" xmlns="http://www.w3.org/2000/svg">
<mask id="path-1-inside-1_24_7505" fill="white">
<path d="M7.55154 1.4165C8.86468 1.41469 10.1488 1.80255 11.2414 2.53096C12.334 3.25937 13.1859 4.29558 13.6893 5.50842C14.1926 6.72126 14.3248 8.05617 14.0691 9.34417C13.8133 10.6322 13.1812 11.8153 12.2526 12.7438C11.3241 13.6724 10.141 14.3045 8.85296 14.5603C7.56497 14.816 6.23005 14.6838 5.01722 14.1805C3.80438 13.6771 2.76815 12.8252 2.03974 11.7326C1.31133 10.64 0.923484 9.3559 0.925296 8.04276C0.930134 6.28686 1.6298 4.60424 2.87142 3.36262C4.11304 2.12101 5.79564 1.42134 7.55154 1.4165ZM7.55154 0.500006C6.05753 0.500007 4.59708 0.943138 3.35498 1.77336C2.11288 2.60358 1.14493 3.78357 0.573612 5.16403C0.00229589 6.5445 -0.146718 8.06342 0.145418 9.52859C0.437553 10.9938 1.15772 12.3394 2.21479 13.3952C3.27186 14.451 4.61833 15.1695 6.08386 15.4598C7.54939 15.7502 9.06812 15.5993 10.4479 15.0263C11.8277 14.4533 13.0065 13.484 13.8352 12.2408C14.6639 10.9977 15.1053 9.53678 15.1035 8.04276C15.1035 7.05146 14.9081 6.06989 14.5284 5.15416C14.1488 4.23843 13.5924 3.40652 12.891 2.70599C12.1896 2.00546 11.357 1.45005 10.4408 1.07153C9.52466 0.693009 8.54284 0.498801 7.55154 0.500006Z"/>
</mask>
<path d="M7.55154 1.4165C8.86468 1.41469 10.1488 1.80255 11.2414 2.53096C12.334 3.25937 13.1859 4.29558 13.6893 5.50842C14.1926 6.72126 14.3248 8.05617 14.0691 9.34417C13.8133 10.6322 13.1812 11.8153 12.2526 12.7438C11.3241 13.6724 10.141 14.3045 8.85296 14.5603C7.56497 14.816 6.23005 14.6838 5.01722 14.1805C3.80438 13.6771 2.76815 12.8252 2.03974 11.7326C1.31133 10.64 0.923484 9.3559 0.925296 8.04276C0.930134 6.28686 1.6298 4.60424 2.87142 3.36262C4.11304 2.12101 5.79564 1.42134 7.55154 1.4165ZM7.55154 0.500006C6.05753 0.500007 4.59708 0.943138 3.35498 1.77336C2.11288 2.60358 1.14493 3.78357 0.573612 5.16403C0.00229589 6.5445 -0.146718 8.06342 0.145418 9.52859C0.437553 10.9938 1.15772 12.3394 2.21479 13.3952C3.27186 14.451 4.61833 15.1695 6.08386 15.4598C7.54939 15.7502 9.06812 15.5993 10.4479 15.0263C11.8277 14.4533 13.0065 13.484 13.8352 12.2408C14.6639 10.9977 15.1053 9.53678 15.1035 8.04276C15.1035 7.05146 14.9081 6.06989 14.5284 5.15416C14.1488 4.23843 13.5924 3.40652 12.891 2.70599C12.1896 2.00546 11.357 1.45005 10.4408 1.07153C9.52466 0.693009 8.54284 0.498801 7.55154 0.500006Z" fill="#13115B"/>
<path d="M0.925296 8.04276L-0.0747008 8.04001L-0.0747027 8.04138L0.925296 8.04276ZM15.1035 8.04276L14.1035 8.04276L14.1035 8.04397L15.1035 8.04276ZM7.55292 2.4165C8.66816 2.41496 9.75879 2.74437 10.6867 3.363L11.7961 1.69891C10.5389 0.860729 9.06121 0.414415 7.55016 0.4165L7.55292 2.4165ZM10.6867 3.363C11.6147 3.98164 12.3382 4.86168 12.7657 5.89174L14.6129 5.1251C14.0337 3.72948 13.0534 2.5371 11.7961 1.69891L10.6867 3.363ZM12.7657 5.89174C13.1931 6.92179 13.3054 8.05553 13.0882 9.14941L15.0499 9.53892C15.3442 8.05681 15.1921 6.52072 14.6129 5.1251L12.7657 5.89174ZM13.0882 9.14941C12.871 10.2433 12.3341 11.2481 11.5455 12.0367L12.9598 13.451C14.0282 12.3825 14.7556 11.021 15.0499 9.53892L13.0882 9.14941ZM11.5455 12.0367C10.7569 12.8253 9.75209 13.3622 8.65821 13.5794L9.04772 15.5411C10.5298 15.2469 11.8913 14.5194 12.9598 13.451L11.5455 12.0367ZM8.65821 13.5794C7.56432 13.7966 6.43059 13.6844 5.40054 13.2569L4.63389 15.1041C6.02951 15.6833 7.56561 15.8354 9.04772 15.5411L8.65821 13.5794ZM5.40054 13.2569C4.37049 12.8294 3.49042 12.1058 2.87179 11.1779L1.2077 12.2873C2.04588 13.5446 3.23827 14.5249 4.63389 15.1041L5.40054 13.2569ZM2.87179 11.1779C2.25315 10.25 1.92376 9.15938 1.9253 8.04414L-0.0747027 8.04138C-0.0767883 9.55242 0.369511 11.0301 1.2077 12.2873L2.87179 11.1779ZM1.92529 8.04552C1.9294 6.55387 2.52377 5.12448 3.57853 4.06973L2.16431 2.65552C0.735832 4.084 -0.0691347 6.01985 -0.0746999 8.04001L1.92529 8.04552ZM3.57853 4.06973C4.63328 3.01498 6.06265 2.4206 7.5543 2.4165L7.54879 0.416503C5.52863 0.422069 3.59279 1.22704 2.16431 2.65552L3.57853 4.06973ZM7.55154 -0.499994C5.8597 -0.499993 4.20586 0.00181457 2.79928 0.941973L3.91068 2.60474C4.9883 1.88446 6.25536 1.50001 7.55155 1.50001L7.55154 -0.499994ZM2.79928 0.941973C1.3927 1.88213 0.296585 3.21837 -0.350384 4.78163L1.49761 5.54644C1.99327 4.34877 2.83305 3.32503 3.91068 2.60474L2.79928 0.941973ZM-0.350384 4.78163C-0.997353 6.34489 -1.1661 8.06494 -0.835279 9.72413L1.12611 9.33306C0.872662 8.06189 1.00194 6.7441 1.49761 5.54644L-0.350384 4.78163ZM-0.835279 9.72413C-0.504459 11.3833 0.311066 12.9071 1.50811 14.1027L2.92146 12.6876C2.00437 11.7716 1.37957 10.6042 1.12611 9.33306L-0.835279 9.72413ZM1.50811 14.1027C2.70516 15.2983 4.22993 16.112 5.88952 16.4408L6.27821 14.4789C5.00673 14.227 3.83856 13.6036 2.92146 12.6876L1.50811 14.1027ZM5.88952 16.4408C7.54911 16.7696 9.26894 16.5987 10.8314 15.9499L10.0644 14.1028C8.8673 14.5999 7.54968 14.7308 6.27821 14.4789L5.88952 16.4408ZM10.8314 15.9499C12.3939 15.301 13.7288 14.2033 14.6672 12.7955L13.0031 11.6862C12.2841 12.7647 11.2614 13.6057 10.0644 14.1028L10.8314 15.9499ZM14.6672 12.7955C15.6057 11.3878 16.1055 9.7334 16.1035 8.04155L14.1035 8.04397C14.105 9.34015 13.7221 10.6077 13.0031 11.6862L14.6672 12.7955ZM16.1035 8.04276C16.1035 6.92004 15.8822 5.80833 15.4522 4.7712L13.6047 5.53712C13.934 6.33144 14.1035 7.18288 14.1035 8.04276L16.1035 8.04276ZM15.4522 4.7712C15.0222 3.73407 14.392 2.79186 13.5977 1.99845L12.1843 3.41353C12.7927 4.02118 13.2754 4.7428 13.6047 5.53712L15.4522 4.7712ZM13.5977 1.99845C12.8033 1.20506 11.8603 0.576004 10.8227 0.1473L10.059 1.99576C10.8537 2.32409 11.5759 2.80587 12.1843 3.41353L13.5977 1.99845ZM10.8227 0.1473C9.78503 -0.281403 8.67305 -0.501358 7.55033 -0.499994L7.55276 1.5C8.41264 1.49896 9.26428 1.66742 10.059 1.99576L10.8227 0.1473Z" fill="#13115B" mask="url(#path-1-inside-1_24_7505)"/>
<path d="M12.3717 12.8635L17.999 18.5" stroke="#13115B"/>
<path d="M4.30774 7.83179V10.5813" stroke="#13115B"/>
<path d="M7.51575 5.08252V10.5815" stroke="#13115B"/>
<path d="M10.723 5.99902V10.5815" stroke="#13115B"/>
</svg>
