<svg width="110" height="27" viewBox="0 0 110 27" fill="none" xmlns="http://www.w3.org/2000/svg">
<path fill-rule="evenodd" clip-rule="evenodd" d="M57.645 16.6563C57.645 13.9342 55.7288 12.0878 53.1309 12.0878C50.5649 12.0878 48.6486 13.9342 48.6486 16.6563C48.6486 19.378 50.5649 21.2248 53.1309 21.2248C55.7288 21.2248 57.645 19.378 57.645 16.6563ZM61.8352 8.55562V24.7566H57.645V22.8447C56.4758 24.3027 54.7222 25.2102 52.351 25.2102C48.0317 25.2102 44.4587 21.484 44.4587 16.6563C44.4587 11.8283 48.0317 8.10205 52.351 8.10205C54.7222 8.10205 56.4758 9.00951 57.645 10.4676V8.55562H61.8352Z" fill="white"/>
<path fill-rule="evenodd" clip-rule="evenodd" d="M80.8026 14.8092V24.7563H76.6128V15.3274C76.6128 13.1244 75.2813 11.9902 73.3973 11.9902C71.3509 11.9902 69.8246 13.189 69.8246 16.0081V24.7563H65.6348V8.55562H69.8246V10.3702C70.799 8.91186 72.4879 8.10205 74.664 8.10205C78.1069 8.10205 80.8026 10.4997 80.8026 14.8092Z" fill="white"/>
<path fill-rule="evenodd" clip-rule="evenodd" d="M89.9934 12.5734V19.3128C89.9934 21.0625 91.2605 21.0949 93.6639 20.9655V24.7566C87.7848 25.4045 85.8038 23.6869 85.8038 19.3128V12.5734H82.9783V8.55556H85.8038V5.28323L89.9934 4.01953V8.55556H93.6639V12.5734H89.9934Z" fill="white"/>
<mask id="mask0_137_11534" style="mask-type:alpha" maskUnits="userSpaceOnUse" x="0" y="0" width="110" height="27">
<path fill-rule="evenodd" clip-rule="evenodd" d="M0 26.3049H109.838V0.318359H0V26.3049Z" fill="white"/>
</mask>
<g mask="url(#mask0_137_11534)">
<path fill-rule="evenodd" clip-rule="evenodd" d="M96.6195 24.7565H100.81V8.55552H96.6195V24.7565ZM96.1323 4.05193C96.1323 2.65846 97.3015 1.45996 98.698 1.45996C100.127 1.45996 101.297 2.65846 101.297 4.05193C101.297 5.44509 100.127 6.61146 98.698 6.61146C97.3015 6.61146 96.1323 5.44509 96.1323 4.05193Z" fill="white"/>
<path fill-rule="evenodd" clip-rule="evenodd" d="M104.317 22.4236C104.317 20.9007 105.551 19.6694 107.077 19.6694C108.604 19.6694 109.838 20.9007 109.838 22.4236C109.838 23.9466 108.604 25.1778 107.077 25.1778C105.551 25.1778 104.317 23.9466 104.317 22.4236Z" fill="#52DE97"/>
<path fill-rule="evenodd" clip-rule="evenodd" d="M21.471 14.328L19.7834 11.9116C19.7569 11.8741 19.6989 11.8833 19.6855 11.9272L19.1776 13.5984C19.1508 13.6127 19.1358 13.6203 19.1091 13.6346L14.6179 12.2758C14.7843 12.1413 15.0327 11.9727 15.4025 11.773C16.3355 11.2691 16.9342 10.5691 17.32 9.86739H17.3264C17.3634 9.79996 17.3905 9.72712 17.4253 9.65841C17.46 9.58717 17.4944 9.51624 17.5254 9.44562C18.1388 8.10686 18.3343 6.54703 17.8251 4.9115C17.1367 2.7009 15.3059 0.967725 13.0396 0.472486C8.88734 -0.434338 5.13363 2.78773 5.13363 6.79449C5.13363 7.73726 5.3514 8.63104 5.72349 9.4434C5.75537 9.51624 5.79076 9.58939 5.82711 9.66287C5.86091 9.7303 5.88737 9.80155 5.9234 9.86739H5.9301C6.3159 10.5691 6.91468 11.2691 7.84729 11.773C8.21714 11.9727 8.46552 12.1413 8.63195 12.2758L4.14108 13.6346C4.1143 13.6203 4.099 13.6127 4.07221 13.5984L3.5643 11.9272C3.55091 11.8833 3.49288 11.8741 3.46642 11.9116L1.77879 14.328C1.75839 14.3576 1.75233 14.3964 1.76381 14.4305C2.02271 15.2069 2.67219 15.6681 3.51169 15.6681C3.77856 15.6681 4.06648 15.622 4.36778 15.5307L7.89001 14.4651L10.4478 13.6913C10.5507 13.6598 10.6426 13.5923 10.6926 13.4979C10.7793 13.3325 10.8406 13.1566 10.8782 12.9571C10.8817 12.9409 10.8849 12.9244 10.8878 12.9062C10.9378 12.5672 10.8919 12.2272 10.751 11.8954C10.6993 11.7745 10.6483 11.6686 10.5877 11.5773C10.5246 11.4819 10.4363 11.4037 10.3476 11.3324C10.1959 11.21 10.0572 11.1289 9.8783 11.0544C9.72462 10.9905 9.57476 10.918 9.42905 10.8378C9.13923 10.6782 8.8663 10.4879 8.61633 10.2713C8.11448 9.83685 7.70572 9.2974 7.42482 8.69656C7.13755 8.08205 6.98705 7.40742 6.98705 6.7296C6.98705 4.17008 9.08662 2.05426 11.6252 2.05426C14.1635 2.05426 16.2628 4.17008 16.2628 6.7296C16.2628 7.41251 16.11 8.09254 15.8186 8.71024C15.5352 9.31172 15.1232 9.85117 14.6185 10.2847C14.4046 10.4682 14.1744 10.633 13.9314 10.7752C13.8077 10.8477 13.6808 10.9145 13.5513 10.9749C13.3859 11.0525 13.2213 11.1082 13.0683 11.2106C12.9165 11.3124 12.7708 11.4298 12.6621 11.5773C12.5971 11.6658 12.5505 11.7745 12.4989 11.8954C12.3579 12.2272 12.312 12.5672 12.3621 12.9062C12.3649 12.9244 12.3681 12.9409 12.372 12.9571C12.4096 13.1566 12.4708 13.3328 12.5575 13.4979C12.6073 13.5927 12.6994 13.6598 12.8021 13.6913L15.3598 14.4651L18.8824 15.5307C19.1833 15.622 19.4713 15.6681 19.7381 15.6681C20.5776 15.6681 21.2271 15.2069 21.486 14.4305C21.4975 14.3964 21.4914 14.3576 21.471 14.328Z" fill="#52DE97"/>
<path fill-rule="evenodd" clip-rule="evenodd" d="M23.0394 18.3971C22.7735 17.9158 22.2879 17.5723 21.596 17.3761L13.9052 15.1947C13.8051 15.1661 13.697 15.1912 13.6199 15.2612L12.8802 15.9288C12.8247 15.9791 12.7523 16.0068 12.6774 16.0068H11.9048H11.6249H11.3453H10.5724C10.4975 16.0068 10.4254 15.9791 10.3696 15.9288L9.63024 15.2612C9.55276 15.1912 9.44499 15.1661 9.34487 15.1947L1.65412 17.3761C0.962235 17.5723 0.476641 17.9158 0.210728 18.3971C-0.00353286 18.7851 -0.0561415 19.2479 0.0608729 19.7072C0.0698005 19.7422 0.0959454 19.7711 0.129424 19.7848L2.8587 20.9067C2.9011 20.9238 2.9451 20.8847 2.93235 20.8408L2.45377 19.1608C2.44548 19.1318 2.46238 19.1013 2.49171 19.093L7.5549 17.6566C7.61708 17.6391 7.6598 17.718 7.61102 17.7603L3.75081 21.093C3.20687 21.5625 2.91226 22.0788 2.87496 22.6271C2.84499 23.0689 2.99357 23.5104 3.29455 23.8774C3.31719 23.9054 3.35322 23.921 3.38925 23.9191L6.33789 23.7846C6.3838 23.7827 6.40708 23.7286 6.37679 23.6939L5.23151 22.3736C5.21174 22.3507 5.21429 22.3157 5.23725 22.2963L9.21734 18.8595C9.26612 18.8172 9.3385 18.8707 9.31203 18.9298L7.22554 23.5778C6.93157 24.2327 6.8831 24.8247 7.08174 25.3371C7.24148 25.7499 7.56351 26.0881 7.99171 26.2938C8.02392 26.3094 8.06345 26.3085 8.09534 26.2916L10.7105 24.9265C10.7513 24.9051 10.7494 24.8463 10.7076 24.8279L9.10989 24.1141C9.08215 24.1017 9.06971 24.0692 9.08215 24.0416L11.5697 18.488C11.5911 18.4406 11.659 18.4406 11.6801 18.488L14.168 24.0416C14.1804 24.0692 14.168 24.1017 14.1402 24.1141L12.5425 24.8279C12.5008 24.8463 12.4988 24.9051 12.5397 24.9265L15.1548 26.2916C15.1867 26.3085 15.2259 26.3094 15.2584 26.2938C15.6866 26.0881 16.0083 25.7499 16.1684 25.3371C16.367 24.8247 16.3186 24.2327 16.0246 23.5778L13.9381 18.9298C13.9116 18.8707 13.9837 18.8172 14.0325 18.8595L18.0129 22.2963C18.0358 22.3157 18.0384 22.3507 18.0186 22.3736L16.873 23.6939C16.843 23.7286 16.8663 23.7827 16.9122 23.7846L19.8609 23.9191C19.8969 23.921 19.9329 23.9054 19.9556 23.8774C20.2566 23.5104 20.4051 23.0689 20.3752 22.6271C20.3379 22.0788 20.0432 21.5625 19.4993 21.093L15.6391 17.7603C15.5903 17.718 15.633 17.6391 15.6952 17.6566L20.7584 19.093C20.7877 19.1013 20.8046 19.1318 20.7964 19.1608L20.3175 20.8408C20.305 20.8847 20.349 20.9238 20.3914 20.9067L23.1207 19.7848C23.1542 19.7711 23.18 19.7422 23.1889 19.7072C23.3059 19.2479 23.2537 18.7851 23.0394 18.3971Z" fill="#52DE97"/>
</g>
</svg>
