<svg width="110" height="27" viewBox="0 0 110 27" fill="none" xmlns="http://www.w3.org/2000/svg">
<path fill-rule="evenodd" clip-rule="evenodd" d="M57.6449 16.6561C57.6449 13.934 55.7287 12.0876 53.1308 12.0876C50.5647 12.0876 48.6485 13.934 48.6485 16.6561C48.6485 19.3778 50.5647 21.2246 53.1308 21.2246C55.7287 21.2246 57.6449 19.3778 57.6449 16.6561ZM61.8351 8.55542V24.7564H57.6449V22.8445C56.4757 24.3025 54.7221 25.21 52.3509 25.21C48.0315 25.21 44.4586 21.4838 44.4586 16.6561C44.4586 11.8281 48.0315 8.10185 52.3509 8.10185C54.7221 8.10185 56.4757 9.00931 57.6449 10.4674V8.55542H61.8351Z" fill="white"/>
<path fill-rule="evenodd" clip-rule="evenodd" d="M80.8025 14.8092V24.7562H76.6126V15.3273C76.6126 13.1243 75.2812 11.9901 73.3971 11.9901C71.3508 11.9901 69.8245 13.1889 69.8245 16.008V24.7562H65.6346V8.55555H69.8245V10.3701C70.7989 8.91179 72.4878 8.10197 74.6639 8.10197C78.1067 8.10197 80.8025 10.4996 80.8025 14.8092Z" fill="white"/>
<path fill-rule="evenodd" clip-rule="evenodd" d="M89.9935 12.5733V19.3127C89.9935 21.0624 91.2606 21.0948 93.664 20.9654V24.7565C87.7849 25.4044 85.804 23.6868 85.804 19.3127V12.5733H82.9784V8.55545H85.804V5.28313L89.9935 4.01942V8.55545H93.664V12.5733H89.9935Z" fill="white"/>
<mask id="mask0_26_5804" style="mask-type:alpha" maskUnits="userSpaceOnUse" x="0" y="0" width="110" height="27">
<path fill-rule="evenodd" clip-rule="evenodd" d="M0 26.3047H109.838V0.318237H0V26.3047Z" fill="white"/>
</mask>
<g mask="url(#mask0_26_5804)">
<path fill-rule="evenodd" clip-rule="evenodd" d="M96.6195 24.7564H100.81V8.55535H96.6195V24.7564ZM96.1323 4.05176C96.1323 2.65829 97.3015 1.45979 98.698 1.45979C100.127 1.45979 101.297 2.65829 101.297 4.05176C101.297 5.44492 100.127 6.61129 98.698 6.61129C97.3015 6.61129 96.1323 5.44492 96.1323 4.05176Z" fill="white"/>
<path fill-rule="evenodd" clip-rule="evenodd" d="M104.317 22.4233C104.317 20.9004 105.551 19.6692 107.078 19.6692C108.604 19.6692 109.838 20.9004 109.838 22.4233C109.838 23.9463 108.604 25.1775 107.078 25.1775C105.551 25.1775 104.317 23.9463 104.317 22.4233Z" fill="#52DE97"/>
<path fill-rule="evenodd" clip-rule="evenodd" d="M21.471 14.3277L19.7834 11.9113C19.7569 11.8738 19.6989 11.883 19.6855 11.9269L19.1776 13.598C19.1508 13.6124 19.1358 13.62 19.1091 13.6343L14.6179 12.2755C14.7843 12.141 15.0327 11.9724 15.4025 11.7726C16.3355 11.2688 16.9342 10.5687 17.32 9.86705H17.3264C17.3634 9.79962 17.3905 9.72678 17.4253 9.65808C17.46 9.58683 17.4944 9.5159 17.5254 9.44529C18.1388 8.10652 18.3343 6.5467 17.8251 4.91117C17.1367 2.70057 15.3059 0.967389 13.0396 0.472151C8.88734 -0.434674 5.13363 2.7874 5.13363 6.79416C5.13363 7.73692 5.3514 8.6307 5.72349 9.44306C5.75537 9.5159 5.79076 9.58906 5.82711 9.66253C5.86091 9.72996 5.88737 9.80121 5.9234 9.86705H5.9301C6.3159 10.5687 6.91468 11.2688 7.84729 11.7726C8.21714 11.9724 8.46552 12.141 8.63195 12.2755L4.14108 13.6343C4.1143 13.62 4.099 13.6124 4.07221 13.598L3.5643 11.9269C3.55091 11.883 3.49288 11.8738 3.46642 11.9113L1.77879 14.3277C1.75839 14.3573 1.75233 14.3961 1.76381 14.4301C2.02271 15.2065 2.67219 15.6677 3.51169 15.6677C3.77856 15.6677 4.06648 15.6216 4.36778 15.5303L7.89001 14.4648L10.4478 13.6909C10.5507 13.6594 10.6426 13.592 10.6926 13.4975C10.7793 13.3321 10.8406 13.1562 10.8782 12.9568C10.8817 12.9406 10.8849 12.924 10.8878 12.9059C10.9378 12.5668 10.8919 12.2268 10.751 11.8951C10.6993 11.7742 10.6483 11.6683 10.5877 11.577C10.5246 11.4816 10.4363 11.4033 10.3476 11.3321C10.1959 11.2096 10.0572 11.1285 9.8783 11.0541C9.72462 10.9902 9.57476 10.9176 9.42905 10.8375C9.13923 10.6778 8.8663 10.4876 8.61633 10.271C8.11448 9.83652 7.70572 9.29707 7.42482 8.69623C7.13755 8.08171 6.98705 7.40708 6.98705 6.72927C6.98705 4.16974 9.08662 2.05392 11.6252 2.05392C14.1635 2.05392 16.2628 4.16974 16.2628 6.72927C16.2628 7.41217 16.11 8.09221 15.8186 8.7099C15.5352 9.31138 15.1232 9.85083 14.6185 10.2844C14.4046 10.4679 14.1744 10.6327 13.9314 10.7748C13.8077 10.8474 13.6808 10.9141 13.5513 10.9746C13.3859 11.0522 13.2213 11.1079 13.0683 11.2103C12.9165 11.3121 12.7708 11.4294 12.6621 11.577C12.5971 11.6654 12.5505 11.7742 12.4989 11.8951C12.3579 12.2268 12.312 12.5668 12.3621 12.9059C12.3649 12.924 12.3681 12.9406 12.372 12.9568C12.4096 13.1562 12.4708 13.3324 12.5575 13.4975C12.6073 13.5923 12.6994 13.6594 12.8021 13.6909L15.3598 14.4648L18.8824 15.5303C19.1833 15.6216 19.4713 15.6677 19.7381 15.6677C20.5776 15.6677 21.2271 15.2065 21.486 14.4301C21.4975 14.3961 21.4914 14.3573 21.471 14.3277Z" fill="#52DE97"/>
<path fill-rule="evenodd" clip-rule="evenodd" d="M23.0393 18.3968C22.7734 17.9155 22.2878 17.572 21.5959 17.3758L13.9052 15.1944C13.8051 15.1658 13.697 15.1909 13.6198 15.2609L12.8801 15.9285C12.8246 15.9788 12.7523 16.0065 12.6773 16.0065H11.9048H11.6248H11.3452H10.5723C10.4974 16.0065 10.4254 15.9788 10.3696 15.9285L9.63017 15.2609C9.5527 15.1909 9.44493 15.1658 9.34481 15.1944L1.65406 17.3758C0.962174 17.572 0.47658 17.9155 0.210667 18.3968C-0.00359389 18.7848 -0.0562026 19.2476 0.0608119 19.7069C0.0697395 19.7419 0.0958844 19.7709 0.129363 19.7845L2.85864 20.9064C2.90104 20.9236 2.94504 20.8844 2.93229 20.8405L2.45371 19.1605C2.44542 19.1315 2.46232 19.101 2.49165 19.0927L7.55484 17.6563C7.61701 17.6388 7.65974 17.7177 7.61096 17.76L3.75075 21.0928C3.20681 21.5622 2.9122 22.0785 2.8749 22.6268C2.84493 23.0686 2.99351 23.5101 3.29449 23.8772C3.31713 23.9052 3.35316 23.9208 3.38919 23.9188L6.33783 23.7843C6.38374 23.7824 6.40701 23.7283 6.37672 23.6936L5.23145 22.3733C5.21168 22.3504 5.21423 22.3154 5.23719 22.296L9.21728 18.8593C9.26606 18.817 9.33844 18.8704 9.31197 18.9296L7.22548 23.5776C6.93151 24.2325 6.88304 24.8244 7.08168 25.3368C7.24142 25.7497 7.56345 26.0878 7.99165 26.2936C8.02386 26.3092 8.06339 26.3082 8.09528 26.2913L10.7104 24.9262C10.7512 24.9049 10.7493 24.846 10.7075 24.8276L9.10983 24.1138C9.08209 24.1014 9.06965 24.069 9.08209 24.0413L11.5697 18.4878C11.591 18.4404 11.659 18.4404 11.68 18.4878L14.1679 24.0413C14.1803 24.069 14.1679 24.1014 14.1402 24.1138L12.5425 24.8276C12.5007 24.846 12.4988 24.9049 12.5396 24.9262L15.1547 26.2913C15.1866 26.3082 15.2258 26.3092 15.2583 26.2936C15.6866 26.0878 16.0083 25.7497 16.1683 25.3368C16.367 24.8244 16.3185 24.2325 16.0245 23.5776L13.938 18.9296C13.9116 18.8704 13.9836 18.817 14.0324 18.8593L18.0128 22.296C18.0358 22.3154 18.0383 22.3504 18.0186 22.3733L16.873 23.6936C16.843 23.7283 16.8663 23.7824 16.9122 23.7843L19.8608 23.9188C19.8968 23.9208 19.9329 23.9052 19.9555 23.8772C20.2565 23.5101 20.4051 23.0686 20.3751 22.6268C20.3378 22.0785 20.0432 21.5622 19.4992 21.0928L15.639 17.76C15.5903 17.7177 15.633 17.6388 15.6952 17.6563L20.7583 19.0927C20.7877 19.101 20.8046 19.1315 20.7963 19.1605L20.3174 20.8405C20.305 20.8844 20.349 20.9236 20.3914 20.9064L23.1206 19.7845C23.1541 19.7709 23.1799 19.7419 23.1889 19.7069C23.3059 19.2476 23.2536 18.7848 23.0393 18.3968Z" fill="#52DE97"/>
</g>
</svg>
