<svg width="20" height="18" viewBox="0 0 20 18" fill="none" xmlns="http://www.w3.org/2000/svg">
<path fill-rule="evenodd" clip-rule="evenodd" d="M8.49564 14.5372C12.6515 14.5372 16.0204 11.3951 16.0204 7.51923C16.0204 3.64332 12.6515 0.501282 8.49564 0.501282C4.3398 0.501282 0.970835 3.64332 0.970835 7.51923C0.970835 11.3951 4.3398 14.5372 8.49564 14.5372ZM8.49564 15.0385C12.9483 15.0385 16.5579 11.672 16.5579 7.51923C16.5579 3.36647 12.9483 0 8.49564 0C4.04296 0 0.43335 3.36647 0.43335 7.51923C0.43335 11.672 4.04296 15.0385 8.49564 15.0385Z" fill="#394253"/>
<path fill-rule="evenodd" clip-rule="evenodd" d="M14.1077 12.4229L19.361 17.3223L19.0058 17.6536L13.7524 12.7542L14.1077 12.4229Z" fill="#394253"/>
<path opacity="0.2" d="M14.4541 7.51961C14.4541 10.589 11.7861 13.0773 8.49497 13.0773C5.20386 13.0773 2.53589 10.589 2.53589 7.51961C2.53589 4.45018 5.20386 1.96191 8.49497 1.96191C11.7861 1.96191 14.4541 4.45018 14.4541 7.51961ZM3.42975 7.51961C3.42975 10.1286 5.69753 12.2436 8.49497 12.2436C11.2924 12.2436 13.5602 10.1286 13.5602 7.51961C13.5602 4.91059 11.2924 2.79557 8.49497 2.79557C5.69753 2.79557 3.42975 4.91059 3.42975 7.51961Z" fill="#394253"/>
<path d="M8.14404 1.96161C8.97263 1.96161 9.79311 2.09691 10.5586 2.35978C11.3241 2.62265 12.0197 3.00795 12.6056 3.49367C13.1915 3.97939 13.6563 4.55603 13.9734 5.19065C14.2905 5.82528 14.4537 6.50547 14.4537 7.19238L13.5072 7.19238C13.5072 6.60851 13.3685 6.03035 13.099 5.49091C12.8294 4.95148 12.4344 4.46134 11.9364 4.04848C11.4384 3.63561 10.8471 3.30811 10.1964 3.08467C9.54575 2.86123 8.84834 2.74623 8.14404 2.74623L8.14404 1.96161Z" fill="#3C1EFF"/>
</svg>
