<svg width="110" height="27" viewBox="0 0 110 27" fill="none" xmlns="http://www.w3.org/2000/svg">
<path fill-rule="evenodd" clip-rule="evenodd" d="M57.6453 16.6561C57.6453 13.934 55.729 12.0876 53.1311 12.0876C50.5651 12.0876 48.6489 13.934 48.6489 16.6561C48.6489 19.3778 50.5651 21.2246 53.1311 21.2246C55.729 21.2246 57.6453 19.3778 57.6453 16.6561V16.6561ZM61.8355 8.55544V24.7565H57.6453V22.8445C56.4761 24.3026 54.7225 25.21 52.3512 25.21C48.0319 25.21 44.459 21.4838 44.459 16.6561C44.459 11.8281 48.0319 8.10187 52.3512 8.10187C54.7225 8.10187 56.4761 9.00933 57.6453 10.4674V8.55544H61.8355Z" fill="white"/>
<path fill-rule="evenodd" clip-rule="evenodd" d="M80.8026 14.8092V24.7563H76.6128V15.3273C76.6128 13.1244 75.2813 11.9901 73.3973 11.9901C71.3509 11.9901 69.8246 13.1889 69.8246 16.008V24.7563H65.6348V8.55556H69.8246V10.3702C70.799 8.9118 72.4879 8.10199 74.664 8.10199C78.1069 8.10199 80.8026 10.4996 80.8026 14.8092" fill="white"/>
<path fill-rule="evenodd" clip-rule="evenodd" d="M89.9936 12.5733V19.3126C89.9936 21.0624 91.2607 21.0948 93.6641 20.9653V24.7565C87.785 25.4044 85.8041 23.6868 85.8041 19.3126V12.5733H82.9785V8.55544H85.8041V5.28311L89.9936 4.01941V8.55544H93.6641V12.5733H89.9936Z" fill="white"/>
<mask id="mask0_137_17454" style="mask-type:alpha" maskUnits="userSpaceOnUse" x="0" y="0" width="110" height="27">
<path fill-rule="evenodd" clip-rule="evenodd" d="M0 26.3047H109.838V0.318237H0V26.3047Z" fill="white"/>
</mask>
<g mask="url(#mask0_137_17454)">
<path fill-rule="evenodd" clip-rule="evenodd" d="M96.62 24.7563H100.81V8.55533H96.62V24.7563ZM96.1328 4.05175C96.1328 2.65827 97.302 1.45978 98.6985 1.45978C100.128 1.45978 101.297 2.65827 101.297 4.05175C101.297 5.44491 100.128 6.61128 98.6985 6.61128C97.302 6.61128 96.1328 5.44491 96.1328 4.05175V4.05175Z" fill="white"/>
<path fill-rule="evenodd" clip-rule="evenodd" d="M104.316 22.4233C104.316 20.9004 105.551 19.6691 107.077 19.6691C108.604 19.6691 109.838 20.9004 109.838 22.4233C109.838 23.9462 108.604 25.1775 107.077 25.1775C105.551 25.1775 104.316 23.9462 104.316 22.4233" fill="#52DE97"/>
<path fill-rule="evenodd" clip-rule="evenodd" d="M21.4708 14.3277L19.7832 11.9113C19.7567 11.8738 19.6987 11.883 19.6853 11.9269L19.1774 13.5981C19.1506 13.6124 19.1356 13.62 19.1088 13.6343L14.6176 12.2755C14.7841 12.141 15.0324 11.9724 15.4023 11.7727C16.3352 11.2688 16.934 10.5688 17.3198 9.86708H17.3262C17.3632 9.79965 17.3903 9.72681 17.425 9.65811C17.4598 9.58686 17.4942 9.51593 17.5251 9.44532C18.1386 8.10655 18.334 6.54673 17.8248 4.9112C17.1365 2.7006 15.3057 0.96742 13.0394 0.472181C8.8871 -0.434643 5.13339 2.78743 5.13339 6.79419C5.13339 7.73695 5.35116 8.63074 5.72325 9.44309C5.75513 9.51593 5.79052 9.58909 5.82687 9.66256C5.86067 9.72999 5.88713 9.80124 5.92316 9.86708H5.92985C6.31565 10.5688 6.91443 11.2688 7.84704 11.7727C8.2169 11.9724 8.46527 12.141 8.63171 12.2755L4.14084 13.6343C4.11406 13.62 4.09875 13.6124 4.07197 13.5981L3.56406 11.9269C3.55067 11.883 3.49264 11.8738 3.46617 11.9113L1.77855 14.3277C1.75814 14.3573 1.75209 14.3961 1.76356 14.4301C2.02246 15.2066 2.67194 15.6678 3.51145 15.6678C3.77832 15.6678 4.06623 15.6216 4.36754 15.5304L7.88977 14.4648L10.4475 13.6909C10.5505 13.6595 10.6423 13.592 10.6924 13.4976C10.7791 13.3322 10.8403 13.1563 10.8779 12.9568C10.8814 12.9406 10.8846 12.9241 10.8875 12.9059C10.9376 12.5669 10.8917 12.2269 10.7507 11.8951C10.6991 11.7742 10.6481 11.6683 10.5875 11.577C10.5243 11.4816 10.436 11.4034 10.3474 11.3321C10.1956 11.2097 10.0569 11.1286 9.87806 11.0541C9.72438 10.9902 9.57452 10.9177 9.42881 10.8375C9.13898 10.6778 8.86606 10.4876 8.61609 10.271C8.11423 9.83655 7.70548 9.2971 7.42458 8.69626C7.1373 8.08174 6.98681 7.40711 6.98681 6.7293C6.98681 4.16977 9.08638 2.05395 11.625 2.05395C14.1633 2.05395 16.2625 4.16977 16.2625 6.7293C16.2625 7.4122 16.1098 8.09224 15.8184 8.70994C15.5349 9.31141 15.123 9.85086 14.6183 10.2844C14.4043 10.4679 14.1741 10.6327 13.9312 10.7749C13.8074 10.8474 13.6806 10.9142 13.5511 10.9746C13.3856 11.0522 13.2211 11.1079 13.0681 11.2103C12.9163 11.3121 12.7706 11.4295 12.6619 11.577C12.5968 11.6655 12.5503 11.7742 12.4986 11.8951C12.3577 12.2269 12.3118 12.5669 12.3618 12.9059C12.3647 12.9241 12.3679 12.9406 12.3717 12.9568C12.4093 13.1563 12.4706 13.3325 12.5573 13.4976C12.607 13.5923 12.6992 13.6595 12.8018 13.6909L15.3596 14.4648L18.8821 15.5304C19.1831 15.6216 19.471 15.6678 19.7379 15.6678C20.5774 15.6678 21.2269 15.2066 21.4858 14.4301C21.4972 14.3961 21.4912 14.3573 21.4708 14.3277" fill="#52DE97"/>
<path fill-rule="evenodd" clip-rule="evenodd" d="M23.0394 18.3968C22.7735 17.9156 22.2879 17.5721 21.596 17.3758L13.9052 15.1945C13.8051 15.1658 13.697 15.191 13.6199 15.2609L12.8802 15.9286C12.8247 15.9788 12.7523 16.0065 12.6774 16.0065H11.9048H11.6249H11.3453H10.5724C10.4975 16.0065 10.4254 15.9788 10.3696 15.9286L9.63024 15.2609C9.55276 15.191 9.44499 15.1658 9.34487 15.1945L1.65412 17.3758C0.962235 17.5721 0.476641 17.9156 0.210728 18.3968C-0.00353286 18.7849 -0.0561415 19.2477 0.0608729 19.707C0.0698005 19.7419 0.0959454 19.7709 0.129424 19.7846L2.8587 20.9064C2.9011 20.9236 2.9451 20.8845 2.93235 20.8406L2.45377 19.1605C2.44548 19.1316 2.46238 19.101 2.49171 19.0928L7.5549 17.6563C7.61708 17.6389 7.6598 17.7177 7.61102 17.76L3.75081 21.0928C3.20687 21.5623 2.91226 22.0785 2.87496 22.6269C2.84499 23.0687 2.99357 23.5102 3.29455 23.8772C3.31719 23.9052 3.35322 23.9208 3.38925 23.9189L6.33789 23.7843C6.3838 23.7824 6.40708 23.7283 6.37679 23.6937L5.23151 22.3734C5.21174 22.3505 5.21429 22.3155 5.23725 22.2961L9.21734 18.8593C9.26612 18.817 9.3385 18.8704 9.31203 18.9296L7.22554 23.5776C6.93157 24.2325 6.8831 24.8244 7.08174 25.3368C7.24148 25.7497 7.56351 26.0878 7.99171 26.2936C8.02392 26.3092 8.06345 26.3082 8.09534 26.2914L10.7105 24.9262C10.7513 24.9049 10.7494 24.8461 10.7076 24.8276L9.10989 24.1139C9.08215 24.1014 9.06971 24.069 9.08215 24.0413L11.5697 18.4878C11.5911 18.4404 11.659 18.4404 11.6801 18.4878L14.168 24.0413C14.1804 24.069 14.168 24.1014 14.1402 24.1139L12.5425 24.8276C12.5008 24.8461 12.4988 24.9049 12.5397 24.9262L15.1548 26.2914C15.1867 26.3082 15.2259 26.3092 15.2584 26.2936C15.6866 26.0878 16.0083 25.7497 16.1684 25.3368C16.367 24.8244 16.3186 24.2325 16.0246 23.5776L13.9381 18.9296C13.9116 18.8704 13.9837 18.817 14.0325 18.8593L18.0129 22.2961C18.0358 22.3155 18.0384 22.3505 18.0186 22.3734L16.873 23.6937C16.843 23.7283 16.8663 23.7824 16.9122 23.7843L19.8609 23.9189C19.8969 23.9208 19.9329 23.9052 19.9556 23.8772C20.2566 23.5102 20.4051 23.0687 20.3752 22.6269C20.3379 22.0785 20.0432 21.5623 19.4993 21.0928L15.6391 17.76C15.5903 17.7177 15.633 17.6389 15.6952 17.6563L20.7584 19.0928C20.7877 19.101 20.8046 19.1316 20.7964 19.1605L20.3175 20.8406C20.305 20.8845 20.349 20.9236 20.3914 20.9064L23.1207 19.7846C23.1542 19.7709 23.18 19.7419 23.1889 19.707C23.3059 19.2477 23.2537 18.7849 23.0394 18.3968" fill="#52DE97"/>
</g>
</svg>
