<svg width="110" height="27" viewBox="0 0 110 27" fill="none" xmlns="http://www.w3.org/2000/svg">
<path fill-rule="evenodd" clip-rule="evenodd" d="M57.6453 16.656C57.6453 13.934 55.729 12.0876 53.1311 12.0876C50.5651 12.0876 48.6489 13.934 48.6489 16.656C48.6489 19.3778 50.5651 21.2245 53.1311 21.2245C55.729 21.2245 57.6453 19.3778 57.6453 16.656V16.656ZM61.8355 8.55538V24.7564H57.6453V22.8445C56.4761 24.3025 54.7225 25.21 52.3512 25.21C48.0319 25.21 44.459 21.4837 44.459 16.656C44.459 11.828 48.0319 8.10181 52.3512 8.10181C54.7225 8.10181 56.4761 9.00927 57.6453 10.4673V8.55538H61.8355Z" fill="white"/>
<path fill-rule="evenodd" clip-rule="evenodd" d="M80.8026 14.809V24.7561H76.6128V15.3271C76.6128 13.1242 75.2813 11.9899 73.3973 11.9899C71.3509 11.9899 69.8246 13.1887 69.8246 16.0078V24.7561H65.6348V8.55538H69.8246V10.37C70.799 8.91162 72.4879 8.10181 74.664 8.10181C78.1069 8.10181 80.8026 10.4994 80.8026 14.809" fill="white"/>
<path fill-rule="evenodd" clip-rule="evenodd" d="M89.9936 12.5732V19.3125C89.9936 21.0622 91.2607 21.0947 93.6641 20.9652V24.7563C87.785 25.4042 85.8041 23.6867 85.8041 19.3125V12.5732H82.9785V8.55532H85.8041V5.28299L89.9936 4.01929V8.55532H93.6641V12.5732H89.9936Z" fill="white"/>
<mask id="mask0_137_17354" style="mask-type:alpha" maskUnits="userSpaceOnUse" x="0" y="0" width="110" height="27">
<path fill-rule="evenodd" clip-rule="evenodd" d="M0 26.3046H109.838V0.318115H0V26.3046Z" fill="white"/>
</mask>
<g mask="url(#mask0_137_17354)">
<path fill-rule="evenodd" clip-rule="evenodd" d="M96.62 24.7563H100.81V8.55527H96.62V24.7563ZM96.1328 4.05169C96.1328 2.65821 97.302 1.45972 98.6985 1.45972C100.128 1.45972 101.297 2.65821 101.297 4.05169C101.297 5.44484 100.128 6.61122 98.6985 6.61122C97.302 6.61122 96.1328 5.44484 96.1328 4.05169V4.05169Z" fill="white"/>
<path fill-rule="evenodd" clip-rule="evenodd" d="M104.316 22.4231C104.316 20.9002 105.551 19.6689 107.077 19.6689C108.604 19.6689 109.838 20.9002 109.838 22.4231C109.838 23.9461 108.604 25.1773 107.077 25.1773C105.551 25.1773 104.316 23.9461 104.316 22.4231" fill="#52DE97"/>
<path fill-rule="evenodd" clip-rule="evenodd" d="M21.4708 14.3275L19.7832 11.9111C19.7567 11.8736 19.6987 11.8828 19.6853 11.9267L19.1774 13.5979C19.1506 13.6122 19.1356 13.6198 19.1088 13.6341L14.6176 12.2753C14.7841 12.1408 15.0324 11.9722 15.4023 11.7725C16.3352 11.2686 16.934 10.5686 17.3198 9.8669H17.3262C17.3632 9.79947 17.3903 9.72663 17.425 9.65793C17.4598 9.58668 17.4942 9.51575 17.5251 9.44514C18.1386 8.10637 18.334 6.54654 17.8248 4.91102C17.1365 2.70041 15.3057 0.967237 13.0394 0.471998C8.8871 -0.434826 5.13339 2.78725 5.13339 6.794C5.13339 7.73677 5.35116 8.63055 5.72325 9.44291C5.75513 9.51575 5.79052 9.5889 5.82687 9.66238C5.86067 9.72981 5.88713 9.80106 5.92316 9.8669H5.92985C6.31565 10.5686 6.91443 11.2686 7.84704 11.7725C8.2169 11.9722 8.46527 12.1408 8.63171 12.2753L4.14084 13.6341C4.11406 13.6198 4.09875 13.6122 4.07197 13.5979L3.56406 11.9267C3.55067 11.8828 3.49264 11.8736 3.46617 11.9111L1.77855 14.3275C1.75814 14.3571 1.75209 14.3959 1.76356 14.43C2.02246 15.2064 2.67194 15.6676 3.51145 15.6676C3.77832 15.6676 4.06623 15.6215 4.36754 15.5302L7.88977 14.4646L10.4475 13.6908C10.5505 13.6593 10.6423 13.5918 10.6924 13.4974C10.7791 13.332 10.8403 13.1561 10.8779 12.9567C10.8814 12.9404 10.8846 12.9239 10.8875 12.9058C10.9376 12.5667 10.8917 12.2267 10.7507 11.8949C10.6991 11.7741 10.6481 11.6681 10.5875 11.5769C10.5243 11.4814 10.436 11.4032 10.3474 11.3319C10.1956 11.2095 10.0569 11.1284 9.87806 11.0539C9.72438 10.99 9.57452 10.9175 9.42881 10.8373C9.13898 10.6777 8.86606 10.4875 8.61609 10.2709C8.11423 9.83636 7.70548 9.29691 7.42458 8.69608C7.1373 8.08156 6.98681 7.40693 6.98681 6.72912C6.98681 4.16959 9.08638 2.05377 11.625 2.05377C14.1633 2.05377 16.2625 4.16959 16.2625 6.72912C16.2625 7.41202 16.1098 8.09206 15.8184 8.70975C15.5349 9.31123 15.123 9.85068 14.6183 10.2842C14.4043 10.4677 14.1741 10.6325 13.9312 10.7747C13.8074 10.8472 13.6806 10.914 13.5511 10.9744C13.3856 11.052 13.2211 11.1077 13.0681 11.2101C12.9163 11.3119 12.7706 11.4293 12.6619 11.5769C12.5968 11.6653 12.5503 11.7741 12.4986 11.8949C12.3577 12.2267 12.3118 12.5667 12.3618 12.9058C12.3647 12.9239 12.3679 12.9404 12.3717 12.9567C12.4093 13.1561 12.4706 13.3323 12.5573 13.4974C12.607 13.5922 12.6992 13.6593 12.8018 13.6908L15.3596 14.4646L18.8821 15.5302C19.1831 15.6215 19.471 15.6676 19.7379 15.6676C20.5774 15.6676 21.2269 15.2064 21.4858 14.43C21.4972 14.3959 21.4912 14.3571 21.4708 14.3275" fill="#52DE97"/>
<path fill-rule="evenodd" clip-rule="evenodd" d="M23.0394 18.3966C22.7735 17.9153 22.2879 17.5718 21.596 17.3756L13.9052 15.1942C13.8051 15.1656 13.697 15.1907 13.6199 15.2607L12.8802 15.9283C12.8247 15.9786 12.7523 16.0063 12.6774 16.0063H11.9048H11.6249H11.3453H10.5724C10.4975 16.0063 10.4254 15.9786 10.3696 15.9283L9.63024 15.2607C9.55276 15.1907 9.44499 15.1656 9.34487 15.1942L1.65412 17.3756C0.962235 17.5718 0.476641 17.9153 0.210728 18.3966C-0.00353286 18.7846 -0.0561415 19.2474 0.0608729 19.7067C0.0698005 19.7417 0.0959454 19.7706 0.129424 19.7843L2.8587 20.9062C2.9011 20.9233 2.9451 20.8842 2.93235 20.8403L2.45377 19.1603C2.44548 19.1313 2.46238 19.1008 2.49171 19.0925L7.5549 17.6561C7.61708 17.6386 7.6598 17.7175 7.61102 17.7598L3.75081 21.0926C3.20687 21.562 2.91226 22.0783 2.87496 22.6266C2.84499 23.0684 2.99357 23.5099 3.29455 23.877C3.31719 23.905 3.35322 23.9205 3.38925 23.9186L6.33789 23.7841C6.3838 23.7822 6.40708 23.7281 6.37679 23.6934L5.23151 22.3731C5.21174 22.3502 5.21429 22.3152 5.23725 22.2958L9.21734 18.8591C9.26612 18.8167 9.3385 18.8702 9.31203 18.9293L7.22554 23.5773C6.93157 24.2322 6.8831 24.8242 7.08174 25.3366C7.24148 25.7495 7.56351 26.0876 7.99171 26.2934C8.02392 26.3089 8.06345 26.308 8.09534 26.2911L10.7105 24.926C10.7513 24.9047 10.7494 24.8458 10.7076 24.8274L9.10989 24.1136C9.08215 24.1012 9.06971 24.0688 9.08215 24.0411L11.5697 18.4875C11.5911 18.4402 11.659 18.4402 11.6801 18.4875L14.168 24.0411C14.1804 24.0688 14.168 24.1012 14.1402 24.1136L12.5425 24.8274C12.5008 24.8458 12.4988 24.9047 12.5397 24.926L15.1548 26.2911C15.1867 26.308 15.2259 26.3089 15.2584 26.2934C15.6866 26.0876 16.0083 25.7495 16.1684 25.3366C16.367 24.8242 16.3186 24.2322 16.0246 23.5773L13.9381 18.9293C13.9116 18.8702 13.9837 18.8167 14.0325 18.8591L18.0129 22.2958C18.0358 22.3152 18.0384 22.3502 18.0186 22.3731L16.873 23.6934C16.843 23.7281 16.8663 23.7822 16.9122 23.7841L19.8609 23.9186C19.8969 23.9205 19.9329 23.905 19.9556 23.877C20.2566 23.5099 20.4051 23.0684 20.3752 22.6266C20.3379 22.0783 20.0432 21.562 19.4993 21.0926L15.6391 17.7598C15.5903 17.7175 15.633 17.6386 15.6952 17.6561L20.7584 19.0925C20.7877 19.1008 20.8046 19.1313 20.7964 19.1603L20.3175 20.8403C20.305 20.8842 20.349 20.9233 20.3914 20.9062L23.1207 19.7843C23.1542 19.7706 23.18 19.7417 23.1889 19.7067C23.3059 19.2474 23.2537 18.7846 23.0394 18.3966" fill="#52DE97"/>
</g>
</svg>
