<svg width="280" height="959" viewBox="0 0 280 959" fill="none" xmlns="http://www.w3.org/2000/svg">
<rect x="0.5" y="0.5" width="279" height="753" rx="7.5" fill="white" stroke="#E7E7EF"/>
<path d="M112.971 136.477V128.527H126.821V165.027H117.921V136.477H112.971ZM141.87 154.327C142.37 156.961 143.903 158.277 146.47 158.277C148.237 158.277 149.487 157.494 150.22 155.927C150.953 154.361 151.32 151.811 151.32 148.277C150.587 149.311 149.587 150.111 148.32 150.677C147.053 151.244 145.637 151.527 144.07 151.527C141.937 151.527 140.037 151.094 138.37 150.227C136.703 149.327 135.387 148.011 134.42 146.277C133.487 144.511 133.02 142.377 133.02 139.877C133.02 137.411 133.52 135.261 134.52 133.427C135.553 131.594 137.003 130.177 138.87 129.177C140.77 128.177 143.003 127.677 145.57 127.677C150.503 127.677 153.953 129.211 155.92 132.277C157.887 135.344 158.87 139.861 158.87 145.827C158.87 150.161 158.47 153.744 157.67 156.577C156.903 159.377 155.587 161.511 153.72 162.977C151.887 164.444 149.37 165.177 146.17 165.177C143.637 165.177 141.47 164.677 139.67 163.677C137.903 162.677 136.537 161.361 135.57 159.727C134.637 158.094 134.103 156.294 133.97 154.327H141.87ZM146.02 144.777C147.42 144.777 148.537 144.361 149.37 143.527C150.203 142.661 150.62 141.494 150.62 140.027C150.62 138.427 150.187 137.194 149.32 136.327C148.453 135.461 147.287 135.027 145.82 135.027C144.353 135.027 143.187 135.477 142.32 136.377C141.487 137.244 141.07 138.444 141.07 139.977C141.07 141.411 141.487 142.577 142.32 143.477C143.187 144.344 144.42 144.777 146.02 144.777Z" fill="#394253"/>
<rect x="62" y="244" width="20" height="20" fill="#52DE97"/>
<path d="M95.856 258.742H100.004V260H94.309V248.151H95.856V258.742ZM102.446 249.171C102.151 249.171 101.902 249.069 101.698 248.865C101.494 248.661 101.392 248.412 101.392 248.117C101.392 247.822 101.494 247.573 101.698 247.369C101.902 247.165 102.151 247.063 102.446 247.063C102.729 247.063 102.967 247.165 103.16 247.369C103.364 247.573 103.466 247.822 103.466 248.117C103.466 248.412 103.364 248.661 103.16 248.865C102.967 249.069 102.729 249.171 102.446 249.171ZM103.194 250.684V260H101.647V250.684H103.194ZM109.298 258.572L112.188 250.684H113.837L110.182 260H108.38L104.725 250.684H106.391L109.298 258.572ZM123.86 254.985C123.86 255.28 123.843 255.591 123.809 255.92H116.363C116.419 256.838 116.731 257.558 117.298 258.079C117.876 258.589 118.573 258.844 119.389 258.844C120.057 258.844 120.613 258.691 121.055 258.385C121.508 258.068 121.825 257.648 122.007 257.127H123.673C123.423 258.022 122.925 258.753 122.177 259.32C121.429 259.875 120.499 260.153 119.389 260.153C118.505 260.153 117.711 259.955 117.009 259.558C116.317 259.161 115.773 258.6 115.377 257.875C114.98 257.138 114.782 256.288 114.782 255.325C114.782 254.362 114.974 253.517 115.36 252.792C115.745 252.067 116.283 251.511 116.975 251.126C117.677 250.729 118.482 250.531 119.389 250.531C120.273 250.531 121.055 250.724 121.735 251.109C122.415 251.494 122.936 252.027 123.299 252.707C123.673 253.376 123.86 254.135 123.86 254.985ZM122.262 254.662C122.262 254.073 122.131 253.568 121.871 253.149C121.61 252.718 121.253 252.395 120.8 252.18C120.358 251.953 119.865 251.84 119.321 251.84C118.539 251.84 117.87 252.089 117.315 252.588C116.771 253.087 116.459 253.778 116.38 254.662H122.262ZM134.337 257.263V256.09L140.304 247.828H142.157V255.92H143.857V257.263H142.157V260H140.627V257.263H134.337ZM140.695 249.443L136.122 255.92H140.695V249.443Z" fill="#394253"/>
<rect x="62" y="280" width="20" height="20" fill="#ADB3C0"/>
<path d="M95.856 284.151V296H94.309V284.151H95.856ZM103.032 286.514C104.165 286.514 105.083 286.86 105.786 287.551C106.488 288.231 106.84 289.217 106.84 290.509V296H105.31V290.73C105.31 289.801 105.077 289.092 104.613 288.605C104.148 288.106 103.513 287.857 102.709 287.857C101.893 287.857 101.241 288.112 100.754 288.622C100.278 289.132 100.04 289.874 100.04 290.849V296H98.4926V286.684H100.04V288.01C100.346 287.534 100.759 287.166 101.281 286.905C101.813 286.644 102.397 286.514 103.032 286.514ZM108.789 291.308C108.789 290.356 108.981 289.523 109.367 288.809C109.752 288.084 110.279 287.523 110.948 287.126C111.628 286.729 112.381 286.531 113.209 286.531C114.025 286.531 114.733 286.707 115.334 287.058C115.934 287.409 116.382 287.851 116.677 288.384V286.684H118.241V296H116.677V294.266C116.371 294.81 115.912 295.263 115.3 295.626C114.699 295.977 113.996 296.153 113.192 296.153C112.364 296.153 111.616 295.949 110.948 295.541C110.279 295.133 109.752 294.561 109.367 293.824C108.981 293.087 108.789 292.249 108.789 291.308ZM116.677 291.325C116.677 290.622 116.535 290.01 116.252 289.489C115.968 288.968 115.583 288.571 115.096 288.299C114.62 288.016 114.093 287.874 113.515 287.874C112.937 287.874 112.41 288.01 111.934 288.282C111.458 288.554 111.078 288.951 110.795 289.472C110.511 289.993 110.37 290.605 110.37 291.308C110.37 292.022 110.511 292.645 110.795 293.178C111.078 293.699 111.458 294.102 111.934 294.385C112.41 294.657 112.937 294.793 113.515 294.793C114.093 294.793 114.62 294.657 115.096 294.385C115.583 294.102 115.968 293.699 116.252 293.178C116.535 292.645 116.677 292.028 116.677 291.325ZM120.277 291.325C120.277 290.362 120.47 289.523 120.855 288.809C121.24 288.084 121.773 287.523 122.453 287.126C123.144 286.729 123.932 286.531 124.816 286.531C125.961 286.531 126.901 286.809 127.638 287.364C128.386 287.919 128.879 288.69 129.117 289.676H127.451C127.292 289.109 126.981 288.662 126.516 288.333C126.063 288.004 125.496 287.84 124.816 287.84C123.932 287.84 123.218 288.146 122.674 288.758C122.13 289.359 121.858 290.214 121.858 291.325C121.858 292.447 122.13 293.314 122.674 293.926C123.218 294.538 123.932 294.844 124.816 294.844C125.496 294.844 126.063 294.685 126.516 294.368C126.969 294.051 127.281 293.597 127.451 293.008H129.117C128.868 293.96 128.369 294.725 127.621 295.303C126.873 295.87 125.938 296.153 124.816 296.153C123.932 296.153 123.144 295.955 122.453 295.558C121.773 295.161 121.24 294.6 120.855 293.875C120.47 293.15 120.277 292.3 120.277 291.325ZM133.068 287.959V293.45C133.068 293.903 133.164 294.226 133.357 294.419C133.55 294.6 133.884 294.691 134.36 294.691H135.499V296H134.105C133.244 296 132.598 295.802 132.167 295.405C131.736 295.008 131.521 294.357 131.521 293.45V287.959H130.314V286.684H131.521V284.338H133.068V286.684H135.499V287.959H133.068ZM138.172 285.171C137.878 285.171 137.628 285.069 137.424 284.865C137.22 284.661 137.118 284.412 137.118 284.117C137.118 283.822 137.22 283.573 137.424 283.369C137.628 283.165 137.878 283.063 138.172 283.063C138.456 283.063 138.694 283.165 138.886 283.369C139.09 283.573 139.192 283.822 139.192 284.117C139.192 284.412 139.09 284.661 138.886 284.865C138.694 285.069 138.456 285.171 138.172 285.171ZM138.92 286.684V296H137.373V286.684H138.92ZM145.025 294.572L147.915 286.684H149.564L145.909 296H144.107L140.452 286.684H142.118L145.025 294.572ZM159.586 290.985C159.586 291.28 159.569 291.591 159.535 291.92H152.089C152.146 292.838 152.458 293.558 153.024 294.079C153.602 294.589 154.299 294.844 155.115 294.844C155.784 294.844 156.339 294.691 156.781 294.385C157.235 294.068 157.552 293.648 157.733 293.127H159.399C159.15 294.022 158.651 294.753 157.903 295.32C157.155 295.875 156.226 296.153 155.115 296.153C154.231 296.153 153.438 295.955 152.735 295.558C152.044 295.161 151.5 294.6 151.103 293.875C150.707 293.138 150.508 292.288 150.508 291.325C150.508 290.362 150.701 289.517 151.086 288.792C151.472 288.067 152.01 287.511 152.701 287.126C153.404 286.729 154.209 286.531 155.115 286.531C155.999 286.531 156.781 286.724 157.461 287.109C158.141 287.494 158.663 288.027 159.025 288.707C159.399 289.376 159.586 290.135 159.586 290.985ZM157.988 290.662C157.988 290.073 157.858 289.568 157.597 289.149C157.337 288.718 156.98 288.395 156.526 288.18C156.084 287.953 155.591 287.84 155.047 287.84C154.265 287.84 153.597 288.089 153.041 288.588C152.497 289.087 152.186 289.778 152.106 290.662H157.988ZM165.498 285.12V283.709H168.694V296H167.13V285.12H165.498ZM179.188 285.052H173.221V288.928C173.482 288.565 173.867 288.271 174.377 288.044C174.887 287.806 175.437 287.687 176.026 287.687C176.967 287.687 177.732 287.885 178.321 288.282C178.91 288.667 179.33 289.172 179.579 289.795C179.84 290.407 179.97 291.059 179.97 291.75C179.97 292.566 179.817 293.297 179.511 293.943C179.205 294.589 178.735 295.099 178.1 295.473C177.477 295.847 176.7 296.034 175.771 296.034C174.581 296.034 173.618 295.728 172.881 295.116C172.144 294.504 171.697 293.688 171.538 292.668H173.051C173.198 293.314 173.51 293.818 173.986 294.181C174.462 294.544 175.063 294.725 175.788 294.725C176.683 294.725 177.358 294.459 177.811 293.926C178.264 293.382 178.491 292.668 178.491 291.784C178.491 290.9 178.264 290.22 177.811 289.744C177.358 289.257 176.689 289.013 175.805 289.013C175.204 289.013 174.677 289.16 174.224 289.455C173.782 289.738 173.459 290.129 173.255 290.628H171.793V283.692H179.188V285.052Z" fill="#394253"/>
<path d="M139.5 392C149.702 392 159.803 394.014 169.225 397.927C178.647 401.84 187.203 407.575 194.404 414.802C201.604 422.03 207.306 430.607 211.184 440.044C215.061 449.48 217.038 459.589 216.999 469.791C216.961 479.993 214.909 490.087 210.961 499.494C207.012 508.9 201.246 517.435 193.991 524.608C186.737 531.782 178.138 537.452 168.687 541.294C159.236 545.136 149.12 547.074 138.918 546.998L139.035 531.498C147.196 531.56 155.289 530.009 162.85 526.935C170.41 523.861 177.29 519.325 183.093 513.587C188.897 507.848 193.51 501.02 196.669 493.495C199.827 485.969 201.469 477.894 201.5 469.733C201.53 461.571 199.949 453.484 196.847 445.935C193.745 438.386 189.183 431.524 183.423 425.742C177.663 419.96 170.817 415.372 163.28 412.242C155.743 409.111 147.662 407.5 139.5 407.5L139.5 392Z" fill="#C6D4ED"/>
<path d="M124.78 393.411C119.341 394.463 114.031 396.095 108.941 398.279L115.052 412.524C119.125 410.776 123.373 409.47 127.724 408.629L124.78 393.411Z" fill="#FF3C78"/>
<path d="M108.933 398.283C90.0453 406.389 75.1513 421.667 67.5277 440.756L81.9222 446.504C88.021 431.234 99.9362 419.011 115.047 412.526L108.933 398.283Z" fill="#B1A5FF"/>
<path d="M139.5 392C134.561 392 129.634 392.472 124.786 393.41L127.729 408.628C131.607 407.878 135.549 407.5 139.5 407.5L139.5 392Z" fill="#C6D4ED"/>
<path d="M67.5209 440.773C62.8422 452.496 61.0976 465.184 62.4387 477.734C63.7797 490.285 68.1659 502.318 75.2158 512.787C82.2658 523.257 91.7662 531.846 102.891 537.808C114.016 543.771 126.429 546.926 139.051 546.999L139.141 531.499C129.043 531.44 119.113 528.917 110.213 524.147C101.313 519.377 93.7126 512.506 88.0726 504.13C82.4327 495.754 78.9238 486.128 77.8509 476.087C76.7781 466.047 78.1738 455.896 81.9167 446.518L67.5209 440.773Z" fill="#13115B"/>
<path d="M120.211 477.3C120.711 479.933 122.244 481.25 124.811 481.25C126.577 481.25 127.827 480.467 128.561 478.9C129.294 477.333 129.661 474.783 129.661 471.25C128.927 472.283 127.927 473.083 126.661 473.65C125.394 474.217 123.977 474.5 122.411 474.5C120.277 474.5 118.377 474.067 116.711 473.2C115.044 472.3 113.727 470.983 112.761 469.25C111.827 467.483 111.361 465.35 111.361 462.85C111.361 460.383 111.861 458.233 112.861 456.4C113.894 454.567 115.344 453.15 117.211 452.15C119.111 451.15 121.344 450.65 123.911 450.65C128.844 450.65 132.294 452.183 134.261 455.25C136.227 458.317 137.211 462.833 137.211 468.8C137.211 473.133 136.811 476.717 136.011 479.55C135.244 482.35 133.927 484.483 132.061 485.95C130.227 487.417 127.711 488.15 124.511 488.15C121.977 488.15 119.811 487.65 118.011 486.65C116.244 485.65 114.877 484.333 113.911 482.7C112.977 481.067 112.444 479.267 112.311 477.3H120.211ZM124.361 467.75C125.761 467.75 126.877 467.333 127.711 466.5C128.544 465.633 128.961 464.467 128.961 463C128.961 461.4 128.527 460.167 127.661 459.3C126.794 458.433 125.627 458 124.161 458C122.694 458 121.527 458.45 120.661 459.35C119.827 460.217 119.411 461.417 119.411 462.95C119.411 464.383 119.827 465.55 120.661 466.45C121.527 467.317 122.761 467.75 124.361 467.75ZM167.472 458.95H151.872V465.85C152.539 465.117 153.472 464.517 154.672 464.05C155.872 463.583 157.172 463.35 158.572 463.35C161.072 463.35 163.139 463.917 164.772 465.05C166.439 466.183 167.656 467.65 168.422 469.45C169.189 471.25 169.572 473.2 169.572 475.3C169.572 479.2 168.472 482.3 166.272 484.6C164.072 486.867 160.972 488 156.972 488C154.306 488 151.989 487.55 150.022 486.65C148.056 485.717 146.539 484.433 145.472 482.8C144.406 481.167 143.822 479.283 143.722 477.15H152.072C152.272 478.183 152.756 479.05 153.522 479.75C154.289 480.417 155.339 480.75 156.672 480.75C158.239 480.75 159.406 480.25 160.172 479.25C160.939 478.25 161.322 476.917 161.322 475.25C161.322 473.617 160.922 472.367 160.122 471.5C159.322 470.633 158.156 470.2 156.622 470.2C155.489 470.2 154.556 470.483 153.822 471.05C153.089 471.583 152.606 472.3 152.372 473.2H144.122V451.45H167.472V458.95Z" fill="#394253"/>
<path d="M28 329L246 329" stroke="#E7E7EF"/>
<rect x="62" y="636" width="20" height="20" fill="#13115B"/>
<path d="M95.856 640.151V652H94.309V640.151H95.856ZM103.032 642.514C104.165 642.514 105.083 642.86 105.786 643.551C106.488 644.231 106.84 645.217 106.84 646.509V652H105.31V646.73C105.31 645.801 105.077 645.092 104.613 644.605C104.148 644.106 103.513 643.857 102.709 643.857C101.893 643.857 101.241 644.112 100.754 644.622C100.278 645.132 100.04 645.874 100.04 646.849V652H98.4926V642.684H100.04V644.01C100.346 643.534 100.759 643.166 101.281 642.905C101.813 642.644 102.397 642.514 103.032 642.514ZM120.903 649.365H115.735L114.783 652H113.151L117.435 640.219H119.22L123.487 652H121.855L120.903 649.365ZM120.461 648.107L118.319 642.123L116.177 648.107H120.461ZM129.893 642.514C131.026 642.514 131.944 642.86 132.647 643.551C133.35 644.231 133.701 645.217 133.701 646.509V652H132.171V646.73C132.171 645.801 131.939 645.092 131.474 644.605C131.009 644.106 130.375 643.857 129.57 643.857C128.754 643.857 128.102 644.112 127.615 644.622C127.139 645.132 126.901 645.874 126.901 646.849V652H125.354V642.684H126.901V644.01C127.207 643.534 127.621 643.166 128.142 642.905C128.675 642.644 129.258 642.514 129.893 642.514ZM135.65 647.308C135.65 646.356 135.843 645.523 136.228 644.809C136.613 644.084 137.14 643.523 137.809 643.126C138.489 642.729 139.243 642.531 140.07 642.531C140.886 642.531 141.594 642.707 142.195 643.058C142.796 643.409 143.243 643.851 143.538 644.384V642.684H145.102V652H143.538V650.266C143.232 650.81 142.773 651.263 142.161 651.626C141.56 651.977 140.858 652.153 140.053 652.153C139.226 652.153 138.478 651.949 137.809 651.541C137.14 651.133 136.613 650.561 136.228 649.824C135.843 649.087 135.65 648.249 135.65 647.308ZM143.538 647.325C143.538 646.622 143.396 646.01 143.113 645.489C142.83 644.968 142.444 644.571 141.957 644.299C141.481 644.016 140.954 643.874 140.376 643.874C139.798 643.874 139.271 644.01 138.795 644.282C138.319 644.554 137.939 644.951 137.656 645.472C137.373 645.993 137.231 646.605 137.231 647.308C137.231 648.022 137.373 648.645 137.656 649.178C137.939 649.699 138.319 650.102 138.795 650.385C139.271 650.657 139.798 650.793 140.376 650.793C140.954 650.793 141.481 650.657 141.957 650.385C142.444 650.102 142.83 649.699 143.113 649.178C143.396 648.645 143.538 648.028 143.538 647.325ZM149.263 639.42V652H147.716V639.42H149.263ZM159.924 642.684L154.314 656.386H152.716L154.552 651.898L150.795 642.684H152.512L155.436 650.232L158.326 642.684H159.924ZM164.777 652.153C164.063 652.153 163.423 652.034 162.856 651.796C162.289 651.547 161.842 651.207 161.513 650.776C161.184 650.334 161.003 649.83 160.969 649.263H162.567C162.612 649.728 162.828 650.107 163.213 650.402C163.61 650.697 164.125 650.844 164.76 650.844C165.349 650.844 165.814 650.714 166.154 650.453C166.494 650.192 166.664 649.864 166.664 649.467C166.664 649.059 166.483 648.759 166.12 648.566C165.757 648.362 165.196 648.164 164.437 647.971C163.746 647.79 163.179 647.608 162.737 647.427C162.306 647.234 161.932 646.957 161.615 646.594C161.309 646.22 161.156 645.733 161.156 645.132C161.156 644.656 161.298 644.22 161.581 643.823C161.864 643.426 162.267 643.115 162.788 642.888C163.309 642.65 163.904 642.531 164.573 642.531C165.604 642.531 166.437 642.792 167.072 643.313C167.707 643.834 168.047 644.548 168.092 645.455H166.545C166.511 644.968 166.313 644.577 165.95 644.282C165.599 643.987 165.123 643.84 164.522 643.84C163.967 643.84 163.525 643.959 163.196 644.197C162.867 644.435 162.703 644.747 162.703 645.132C162.703 645.438 162.799 645.693 162.992 645.897C163.196 646.09 163.445 646.248 163.74 646.373C164.046 646.486 164.465 646.617 164.998 646.764C165.667 646.945 166.211 647.127 166.63 647.308C167.049 647.478 167.406 647.739 167.701 648.09C168.007 648.441 168.166 648.9 168.177 649.467C168.177 649.977 168.035 650.436 167.752 650.844C167.469 651.252 167.066 651.575 166.545 651.813C166.035 652.04 165.446 652.153 164.777 652.153ZM171.16 641.171C170.865 641.171 170.616 641.069 170.412 640.865C170.208 640.661 170.106 640.412 170.106 640.117C170.106 639.822 170.208 639.573 170.412 639.369C170.616 639.165 170.865 639.063 171.16 639.063C171.443 639.063 171.681 639.165 171.874 639.369C172.078 639.573 172.18 639.822 172.18 640.117C172.18 640.412 172.078 640.661 171.874 640.865C171.681 641.069 171.443 641.171 171.16 641.171ZM171.908 642.684V652H170.361V642.684H171.908ZM177.842 652.153C177.128 652.153 176.488 652.034 175.921 651.796C175.355 651.547 174.907 651.207 174.578 650.776C174.25 650.334 174.068 649.83 174.034 649.263H175.632C175.678 649.728 175.893 650.107 176.278 650.402C176.675 650.697 177.191 650.844 177.825 650.844C178.415 650.844 178.879 650.714 179.219 650.453C179.559 650.192 179.729 649.864 179.729 649.467C179.729 649.059 179.548 648.759 179.185 648.566C178.823 648.362 178.262 648.164 177.502 647.971C176.811 647.79 176.244 647.608 175.802 647.427C175.372 647.234 174.998 646.957 174.68 646.594C174.374 646.22 174.221 645.733 174.221 645.132C174.221 644.656 174.363 644.22 174.646 643.823C174.93 643.426 175.332 643.115 175.853 642.888C176.375 642.65 176.97 642.531 177.638 642.531C178.67 642.531 179.503 642.792 180.137 643.313C180.772 643.834 181.112 644.548 181.157 645.455H179.61C179.576 644.968 179.378 644.577 179.015 644.282C178.664 643.987 178.188 643.84 177.587 643.84C177.032 643.84 176.59 643.959 176.261 644.197C175.933 644.435 175.768 644.747 175.768 645.132C175.768 645.438 175.865 645.693 176.057 645.897C176.261 646.09 176.511 646.248 176.805 646.373C177.111 646.486 177.531 646.617 178.063 646.764C178.732 646.945 179.276 647.127 179.695 647.308C180.115 647.478 180.472 647.739 180.766 648.09C181.072 648.441 181.231 648.9 181.242 649.467C181.242 649.977 181.101 650.436 180.817 650.844C180.534 651.252 180.132 651.575 179.61 651.813C179.1 652.04 178.511 652.153 177.842 652.153ZM187.295 641.12V639.709H190.491V652H188.927V641.12H187.295ZM195.138 648.702C195.251 649.348 195.512 649.847 195.92 650.198C196.339 650.549 196.9 650.725 197.603 650.725C198.543 650.725 199.235 650.357 199.677 649.62C200.13 648.883 200.345 647.642 200.323 645.897C200.085 646.407 199.688 646.809 199.133 647.104C198.577 647.387 197.96 647.529 197.28 647.529C196.52 647.529 195.84 647.376 195.24 647.07C194.65 646.753 194.186 646.294 193.846 645.693C193.506 645.092 193.336 644.367 193.336 643.517C193.336 642.304 193.687 641.33 194.39 640.593C195.092 639.845 196.09 639.471 197.382 639.471C198.968 639.471 200.079 639.987 200.714 641.018C201.36 642.049 201.683 643.585 201.683 645.625C201.683 647.053 201.552 648.232 201.292 649.161C201.042 650.09 200.612 650.799 200 651.286C199.399 651.773 198.572 652.017 197.518 652.017C196.362 652.017 195.461 651.705 194.815 651.082C194.169 650.459 193.8 649.665 193.71 648.702H195.138ZM197.535 646.22C198.294 646.22 198.917 645.988 199.405 645.523C199.892 645.047 200.136 644.407 200.136 643.602C200.136 642.752 199.898 642.066 199.422 641.545C198.946 641.024 198.277 640.763 197.416 640.763C196.622 640.763 195.988 641.012 195.512 641.511C195.047 642.01 194.815 642.667 194.815 643.483C194.815 644.31 195.047 644.973 195.512 645.472C195.976 645.971 196.651 646.22 197.535 646.22Z" fill="#394253"/>
<rect x="62" y="600" width="20" height="20" fill="#B1A5FF"/>
<path d="M100.548 616L97.726 611.155H95.856V616H94.309V604.151H98.134C99.0293 604.151 99.783 604.304 100.395 604.61C101.018 604.916 101.483 605.33 101.789 605.851C102.095 606.372 102.248 606.967 102.248 607.636C102.248 608.452 102.01 609.172 101.534 609.795C101.069 610.418 100.367 610.832 99.426 611.036L102.401 616H100.548ZM95.856 609.914H98.134C98.9727 609.914 99.6017 609.71 100.021 609.302C100.44 608.883 100.65 608.327 100.65 607.636C100.65 606.933 100.44 606.389 100.021 606.004C99.613 605.619 98.984 605.426 98.134 605.426H95.856V609.914ZM113.152 610.985C113.152 611.28 113.135 611.591 113.101 611.92H105.655C105.711 612.838 106.023 613.558 106.59 614.079C107.168 614.589 107.865 614.844 108.681 614.844C109.349 614.844 109.905 614.691 110.347 614.385C110.8 614.068 111.117 613.648 111.299 613.127H112.965C112.715 614.022 112.217 614.753 111.469 615.32C110.721 615.875 109.791 616.153 108.681 616.153C107.797 616.153 107.003 615.955 106.301 615.558C105.609 615.161 105.065 614.6 104.669 613.875C104.272 613.138 104.074 612.288 104.074 611.325C104.074 610.362 104.266 609.517 104.652 608.792C105.037 608.067 105.575 607.511 106.267 607.126C106.969 606.729 107.774 606.531 108.681 606.531C109.565 606.531 110.347 606.724 111.027 607.109C111.707 607.494 112.228 608.027 112.591 608.707C112.965 609.376 113.152 610.135 113.152 610.985ZM111.554 610.662C111.554 610.073 111.423 609.568 111.163 609.149C110.902 608.718 110.545 608.395 110.092 608.18C109.65 607.953 109.157 607.84 108.613 607.84C107.831 607.84 107.162 608.089 106.607 608.588C106.063 609.087 105.751 609.778 105.672 610.662H111.554ZM114.616 611.308C114.616 610.356 114.808 609.523 115.194 608.809C115.579 608.084 116.106 607.523 116.775 607.126C117.455 606.729 118.208 606.531 119.036 606.531C119.852 606.531 120.56 606.707 121.161 607.058C121.761 607.409 122.209 607.851 122.504 608.384V606.684H124.068V616H122.504V614.266C122.198 614.81 121.739 615.263 121.127 615.626C120.526 615.977 119.823 616.153 119.019 616.153C118.191 616.153 117.443 615.949 116.775 615.541C116.106 615.133 115.579 614.561 115.194 613.824C114.808 613.087 114.616 612.249 114.616 611.308ZM122.504 611.325C122.504 610.622 122.362 610.01 122.079 609.489C121.795 608.968 121.41 608.571 120.923 608.299C120.447 608.016 119.92 607.874 119.342 607.874C118.764 607.874 118.237 608.01 117.761 608.282C117.285 608.554 116.905 608.951 116.622 609.472C116.338 609.993 116.197 610.605 116.197 611.308C116.197 612.022 116.338 612.645 116.622 613.178C116.905 613.699 117.285 614.102 117.761 614.385C118.237 614.657 118.764 614.793 119.342 614.793C119.92 614.793 120.447 614.657 120.923 614.385C121.41 614.102 121.795 613.699 122.079 613.178C122.362 612.645 122.504 612.028 122.504 611.325ZM126.104 611.308C126.104 610.356 126.297 609.523 126.682 608.809C127.067 608.084 127.594 607.523 128.263 607.126C128.943 606.729 129.702 606.531 130.541 606.531C131.266 606.531 131.941 606.701 132.564 607.041C133.187 607.37 133.663 607.806 133.992 608.35V603.42H135.556V616H133.992V614.249C133.686 614.804 133.233 615.263 132.632 615.626C132.031 615.977 131.329 616.153 130.524 616.153C129.697 616.153 128.943 615.949 128.263 615.541C127.594 615.133 127.067 614.561 126.682 613.824C126.297 613.087 126.104 612.249 126.104 611.308ZM133.992 611.325C133.992 610.622 133.85 610.01 133.567 609.489C133.284 608.968 132.898 608.571 132.411 608.299C131.935 608.016 131.408 607.874 130.83 607.874C130.252 607.874 129.725 608.01 129.249 608.282C128.773 608.554 128.393 608.951 128.11 609.472C127.827 609.993 127.685 610.605 127.685 611.308C127.685 612.022 127.827 612.645 128.11 613.178C128.393 613.699 128.773 614.102 129.249 614.385C129.725 614.657 130.252 614.793 130.83 614.793C131.408 614.793 131.935 614.657 132.411 614.385C132.898 614.102 133.284 613.699 133.567 613.178C133.85 612.645 133.992 612.028 133.992 611.325ZM146.194 606.684L140.584 620.386H138.986L140.822 615.898L137.065 606.684H138.782L141.706 614.232L144.596 606.684H146.194ZM158.878 606.633C158.628 605.375 157.852 604.746 156.549 604.746C155.54 604.746 154.786 605.137 154.288 605.919C153.789 606.69 153.545 607.965 153.557 609.744C153.817 609.155 154.248 608.696 154.849 608.367C155.461 608.027 156.141 607.857 156.889 607.857C158.056 607.857 158.985 608.22 159.677 608.945C160.379 609.67 160.731 610.673 160.731 611.954C160.731 612.725 160.578 613.416 160.272 614.028C159.977 614.64 159.524 615.127 158.912 615.49C158.311 615.853 157.58 616.034 156.719 616.034C155.551 616.034 154.639 615.773 153.982 615.252C153.324 614.731 152.865 614.011 152.605 613.093C152.344 612.175 152.214 611.042 152.214 609.693C152.214 605.534 153.664 603.454 156.566 603.454C157.676 603.454 158.549 603.754 159.184 604.355C159.818 604.956 160.192 605.715 160.306 606.633H158.878ZM156.566 609.166C156.078 609.166 155.619 609.268 155.189 609.472C154.758 609.665 154.407 609.965 154.135 610.373C153.874 610.77 153.744 611.257 153.744 611.835C153.744 612.696 153.993 613.399 154.492 613.943C154.99 614.476 155.704 614.742 156.634 614.742C157.427 614.742 158.056 614.498 158.521 614.011C158.997 613.512 159.235 612.844 159.235 612.005C159.235 611.121 159.008 610.43 158.555 609.931C158.101 609.421 157.438 609.166 156.566 609.166Z" fill="#394253"/>
<rect x="61" y="672" width="20" height="20" fill="#C6D4ED"/>
<path d="M96.998 676.151C98.29 676.151 99.4063 676.395 100.347 676.882C101.299 677.358 102.024 678.044 102.523 678.939C103.033 679.834 103.288 680.888 103.288 682.101C103.288 683.314 103.033 684.368 102.523 685.263C102.024 686.147 101.299 686.827 100.347 687.303C99.4063 687.768 98.29 688 96.998 688H93.309V676.151H96.998ZM96.998 686.725C98.528 686.725 99.6953 686.323 100.5 685.518C101.305 684.702 101.707 683.563 101.707 682.101C101.707 680.628 101.299 679.477 100.483 678.65C99.6783 677.823 98.5167 677.409 96.998 677.409H94.856V686.725H96.998ZM106.876 680.197C107.148 679.664 107.533 679.251 108.032 678.956C108.542 678.661 109.159 678.514 109.885 678.514V680.112H109.477C107.743 680.112 106.876 681.053 106.876 682.934V688H105.329V678.684H106.876V680.197ZM111.092 683.308C111.092 682.356 111.285 681.523 111.67 680.809C112.056 680.084 112.583 679.523 113.251 679.126C113.931 678.729 114.685 678.531 115.512 678.531C116.328 678.531 117.037 678.707 117.637 679.058C118.238 679.409 118.686 679.851 118.98 680.384V678.684H120.544V688H118.98V686.266C118.674 686.81 118.215 687.263 117.603 687.626C117.003 687.977 116.3 688.153 115.495 688.153C114.668 688.153 113.92 687.949 113.251 687.541C112.583 687.133 112.056 686.561 111.67 685.824C111.285 685.087 111.092 684.249 111.092 683.308ZM118.98 683.325C118.98 682.622 118.839 682.01 118.555 681.489C118.272 680.968 117.887 680.571 117.399 680.299C116.923 680.016 116.396 679.874 115.818 679.874C115.24 679.874 114.713 680.01 114.237 680.282C113.761 680.554 113.382 680.951 113.098 681.472C112.815 681.993 112.673 682.605 112.673 683.308C112.673 684.022 112.815 684.645 113.098 685.178C113.382 685.699 113.761 686.102 114.237 686.385C114.713 686.657 115.24 686.793 115.818 686.793C116.396 686.793 116.923 686.657 117.399 686.385C117.887 686.102 118.272 685.699 118.555 685.178C118.839 684.645 118.98 684.028 118.98 683.325ZM126.95 679.959H124.995V688H123.448V679.959H122.241V678.684H123.448V678.021C123.448 676.978 123.714 676.219 124.247 675.743C124.791 675.256 125.658 675.012 126.848 675.012V676.304C126.168 676.304 125.686 676.44 125.403 676.712C125.131 676.973 124.995 677.409 124.995 678.021V678.684H126.95V679.959ZM130.64 679.959V685.45C130.64 685.903 130.737 686.226 130.929 686.419C131.122 686.6 131.456 686.691 131.932 686.691H133.071V688H131.677C130.816 688 130.17 687.802 129.739 687.405C129.309 687.008 129.093 686.357 129.093 685.45V679.959H127.886V678.684H129.093V676.338H130.64V678.684H133.071V679.959H130.64ZM146.074 678.633C145.825 677.375 145.048 676.746 143.745 676.746C142.736 676.746 141.983 677.137 141.484 677.919C140.985 678.69 140.742 679.965 140.753 681.744C141.014 681.155 141.444 680.696 142.045 680.367C142.657 680.027 143.337 679.857 144.085 679.857C145.252 679.857 146.182 680.22 146.873 680.945C147.576 681.67 147.927 682.673 147.927 683.954C147.927 684.725 147.774 685.416 147.468 686.028C147.173 686.64 146.72 687.127 146.108 687.49C145.507 687.853 144.776 688.034 143.915 688.034C142.748 688.034 141.835 687.773 141.178 687.252C140.521 686.731 140.062 686.011 139.801 685.093C139.54 684.175 139.41 683.042 139.41 681.693C139.41 677.534 140.861 675.454 143.762 675.454C144.873 675.454 145.745 675.754 146.38 676.355C147.015 676.956 147.389 677.715 147.502 678.633H146.074ZM143.762 681.166C143.275 681.166 142.816 681.268 142.385 681.472C141.954 681.665 141.603 681.965 141.331 682.373C141.07 682.77 140.94 683.257 140.94 683.835C140.94 684.696 141.189 685.399 141.688 685.943C142.187 686.476 142.901 686.742 143.83 686.742C144.623 686.742 145.252 686.498 145.717 686.011C146.193 685.512 146.431 684.844 146.431 684.005C146.431 683.121 146.204 682.43 145.751 681.931C145.298 681.421 144.635 681.166 143.762 681.166ZM152.258 681.608C151.623 681.359 151.136 680.996 150.796 680.52C150.456 680.044 150.286 679.466 150.286 678.786C150.286 678.174 150.439 677.624 150.745 677.137C151.051 676.638 151.504 676.247 152.105 675.964C152.717 675.669 153.454 675.522 154.315 675.522C155.176 675.522 155.907 675.669 156.508 675.964C157.12 676.247 157.579 676.638 157.885 677.137C158.202 677.624 158.361 678.174 158.361 678.786C158.361 679.443 158.185 680.021 157.834 680.52C157.483 681.007 157.001 681.37 156.389 681.608C157.092 681.823 157.647 682.203 158.055 682.747C158.474 683.28 158.684 683.926 158.684 684.685C158.684 685.422 158.503 686.068 158.14 686.623C157.777 687.167 157.262 687.592 156.593 687.898C155.936 688.193 155.176 688.34 154.315 688.34C153.454 688.34 152.694 688.193 152.037 687.898C151.391 687.592 150.887 687.167 150.524 686.623C150.161 686.068 149.98 685.422 149.98 684.685C149.98 683.926 150.184 683.274 150.592 682.73C151 682.186 151.555 681.812 152.258 681.608ZM156.865 678.973C156.865 678.282 156.638 677.749 156.185 677.375C155.732 677.001 155.108 676.814 154.315 676.814C153.533 676.814 152.915 677.001 152.462 677.375C152.009 677.749 151.782 678.287 151.782 678.99C151.782 679.625 152.014 680.135 152.479 680.52C152.955 680.905 153.567 681.098 154.315 681.098C155.074 681.098 155.686 680.905 156.151 680.52C156.627 680.123 156.865 679.608 156.865 678.973ZM154.315 682.288C153.476 682.288 152.791 682.486 152.258 682.883C151.725 683.268 151.459 683.852 151.459 684.634C151.459 685.359 151.714 685.943 152.224 686.385C152.745 686.827 153.442 687.048 154.315 687.048C155.188 687.048 155.879 686.827 156.389 686.385C156.899 685.943 157.154 685.359 157.154 684.634C157.154 683.875 156.893 683.297 156.372 682.9C155.851 682.492 155.165 682.288 154.315 682.288Z" fill="#394253"/>
<rect x="62" y="565.5" width="20" height="20" fill="#FF3C78"/>
<path d="M95.856 570.409V574.37H100.174V575.645H95.856V579.725H100.684V581H94.309V569.134H100.684V570.409H95.856ZM104.572 573.197C104.844 572.664 105.229 572.251 105.728 571.956C106.238 571.661 106.855 571.514 107.581 571.514V573.112H107.173C105.439 573.112 104.572 574.053 104.572 575.934V581H103.025V571.684H104.572V573.197ZM110.914 573.197C111.186 572.664 111.571 572.251 112.07 571.956C112.58 571.661 113.197 571.514 113.923 571.514V573.112H113.515C111.781 573.112 110.914 574.053 110.914 575.934V581H109.367V571.684H110.914V573.197ZM119.771 581.153C118.899 581.153 118.105 580.955 117.391 580.558C116.689 580.161 116.133 579.6 115.725 578.875C115.329 578.138 115.13 577.288 115.13 576.325C115.13 575.373 115.334 574.534 115.742 573.809C116.162 573.072 116.728 572.511 117.442 572.126C118.156 571.729 118.955 571.531 119.839 571.531C120.723 571.531 121.522 571.729 122.236 572.126C122.95 572.511 123.511 573.067 123.919 573.792C124.339 574.517 124.548 575.362 124.548 576.325C124.548 577.288 124.333 578.138 123.902 578.875C123.483 579.6 122.911 580.161 122.185 580.558C121.46 580.955 120.655 581.153 119.771 581.153ZM119.771 579.793C120.327 579.793 120.848 579.663 121.335 579.402C121.823 579.141 122.214 578.75 122.508 578.229C122.814 577.708 122.967 577.073 122.967 576.325C122.967 575.577 122.82 574.942 122.525 574.421C122.231 573.9 121.845 573.514 121.369 573.265C120.893 573.004 120.378 572.874 119.822 572.874C119.256 572.874 118.734 573.004 118.258 573.265C117.794 573.514 117.42 573.9 117.136 574.421C116.853 574.942 116.711 575.577 116.711 576.325C116.711 577.084 116.847 577.725 117.119 578.246C117.403 578.767 117.777 579.158 118.241 579.419C118.706 579.668 119.216 579.793 119.771 579.793ZM128.129 573.197C128.401 572.664 128.787 572.251 129.285 571.956C129.795 571.661 130.413 571.514 131.138 571.514V573.112H130.73C128.996 573.112 128.129 574.053 128.129 575.934V581H126.582V571.684H128.129V573.197ZM137.014 579.759C138.454 578.603 139.581 577.657 140.397 576.92C141.213 576.172 141.899 575.396 142.454 574.591C143.021 573.775 143.304 572.976 143.304 572.194C143.304 571.457 143.123 570.879 142.76 570.46C142.409 570.029 141.837 569.814 141.043 569.814C140.273 569.814 139.672 570.058 139.241 570.545C138.822 571.021 138.595 571.661 138.561 572.466H137.065C137.111 571.197 137.496 570.216 138.221 569.525C138.947 568.834 139.882 568.488 141.026 568.488C142.194 568.488 143.117 568.811 143.797 569.457C144.489 570.103 144.834 570.993 144.834 572.126C144.834 573.067 144.551 573.985 143.984 574.88C143.429 575.764 142.794 576.546 142.08 577.226C141.366 577.895 140.454 578.677 139.343 579.572H145.191V580.864H137.014V579.759Z" fill="#394253"/>
<rect x="0.5" y="-0.5" width="279" height="169" rx="7.5" transform="matrix(1 0 0 -1 0 958)" fill="white" stroke="#E7E7EF"/>
<path d="M35.45 894.5V887.6L51.25 865H60.8V887.1H64.9V894.5H60.8V901H52.25V894.5H35.45ZM52.85 874.4L44.45 887.1H52.85V874.4ZM69.2879 894.5V887.6L85.0879 865H94.6379V887.1H98.7379V894.5H94.6379V901H86.0879V894.5H69.2879ZM86.6879 874.4L78.2879 887.1H86.6879V874.4ZM112.976 893.1L107.426 907.45H101.976L104.876 893.1H112.976ZM117.281 882.25C117.281 876.517 118.381 872 120.581 868.7C122.815 865.4 126.398 863.75 131.331 863.75C136.265 863.75 139.831 865.4 142.031 868.7C144.265 872 145.381 876.517 145.381 882.25C145.381 888.05 144.265 892.6 142.031 895.9C139.831 899.2 136.265 900.85 131.331 900.85C126.398 900.85 122.815 899.2 120.581 895.9C118.381 892.6 117.281 888.05 117.281 882.25ZM136.981 882.25C136.981 878.883 136.615 876.3 135.881 874.5C135.148 872.667 133.631 871.75 131.331 871.75C129.031 871.75 127.515 872.667 126.781 874.5C126.048 876.3 125.681 878.883 125.681 882.25C125.681 884.517 125.815 886.4 126.081 887.9C126.348 889.367 126.881 890.567 127.681 891.5C128.515 892.4 129.731 892.85 131.331 892.85C132.931 892.85 134.131 892.4 134.931 891.5C135.765 890.567 136.315 889.367 136.581 887.9C136.848 886.4 136.981 884.517 136.981 882.25ZM149.898 882.25C149.898 876.517 150.998 872 153.198 868.7C155.432 865.4 159.015 863.75 163.948 863.75C168.882 863.75 172.448 865.4 174.648 868.7C176.882 872 177.998 876.517 177.998 882.25C177.998 888.05 176.882 892.6 174.648 895.9C172.448 899.2 168.882 900.85 163.948 900.85C159.015 900.85 155.432 899.2 153.198 895.9C150.998 892.6 149.898 888.05 149.898 882.25ZM169.598 882.25C169.598 878.883 169.232 876.3 168.498 874.5C167.765 872.667 166.248 871.75 163.948 871.75C161.648 871.75 160.132 872.667 159.398 874.5C158.665 876.3 158.298 878.883 158.298 882.25C158.298 884.517 158.432 886.4 158.698 887.9C158.965 889.367 159.498 890.567 160.298 891.5C161.132 892.4 162.348 892.85 163.948 892.85C165.548 892.85 166.748 892.4 167.548 891.5C168.382 890.567 168.932 889.367 169.198 887.9C169.465 886.4 169.598 884.517 169.598 882.25ZM181.616 872.45V864.5H195.466V901H186.566V872.45H181.616Z" fill="#394253"/>
<path d="M42.826 819.806C42.826 820.441 42.673 821.036 42.367 821.591C42.0723 822.146 41.602 822.594 40.956 822.934C40.3213 823.274 39.5167 823.444 38.542 823.444H36.553V828H34.173V816.134H38.542C39.46 816.134 40.242 816.293 40.888 816.61C41.534 816.927 42.0157 817.364 42.333 817.919C42.6617 818.474 42.826 819.103 42.826 819.806ZM38.44 821.523C39.0973 821.523 39.5847 821.376 39.902 821.081C40.2193 820.775 40.378 820.35 40.378 819.806C40.378 818.65 39.732 818.072 38.44 818.072H36.553V821.523H38.44ZM46.8958 820.044C47.2018 819.545 47.5984 819.154 48.0858 818.871C48.5844 818.588 49.1511 818.446 49.7858 818.446V820.945H49.1568C48.4088 820.945 47.8421 821.121 47.4568 821.472C47.0828 821.823 46.8958 822.435 46.8958 823.308V828H44.5158V818.582H46.8958V820.044ZM60.1438 823.087C60.1438 823.427 60.1212 823.733 60.0758 824.005H53.1908C53.2475 824.685 53.4855 825.218 53.9048 825.603C54.3242 825.988 54.8398 826.181 55.4518 826.181C56.3358 826.181 56.9648 825.801 57.3388 825.042H59.9058C59.6338 825.949 59.1125 826.697 58.3418 827.286C57.5712 827.864 56.6248 828.153 55.5028 828.153C54.5962 828.153 53.7802 827.955 53.0548 827.558C52.3408 827.15 51.7798 826.578 51.3718 825.841C50.9752 825.104 50.7768 824.254 50.7768 823.291C50.7768 822.316 50.9752 821.461 51.3718 820.724C51.7685 819.987 52.3238 819.421 53.0378 819.024C53.7518 818.627 54.5735 818.429 55.5028 818.429C56.3982 818.429 57.1972 818.622 57.8998 819.007C58.6138 819.392 59.1635 819.942 59.5488 820.656C59.9455 821.359 60.1438 822.169 60.1438 823.087ZM57.6788 822.407C57.6675 821.795 57.4465 821.308 57.0158 820.945C56.5852 820.571 56.0582 820.384 55.4348 820.384C54.8455 820.384 54.3468 820.565 53.9388 820.928C53.5422 821.279 53.2985 821.772 53.2078 822.407H57.6788ZM61.269 823.257C61.269 822.305 61.456 821.461 61.83 820.724C62.2153 819.987 62.7367 819.421 63.394 819.024C64.0513 818.627 64.7823 818.429 65.587 818.429C66.199 818.429 66.7827 818.565 67.338 818.837C67.8933 819.098 68.3353 819.449 68.664 819.891V815.42H71.078V828H68.664V826.606C68.3693 827.071 67.9557 827.445 67.423 827.728C66.8903 828.011 66.2727 828.153 65.57 828.153C64.7767 828.153 64.0513 827.949 63.394 827.541C62.7367 827.133 62.2153 826.561 61.83 825.824C61.456 825.076 61.269 824.22 61.269 823.257ZM68.681 823.291C68.681 822.713 68.5677 822.22 68.341 821.812C68.1143 821.393 67.8083 821.075 67.423 820.86C67.0377 820.633 66.624 820.52 66.182 820.52C65.74 820.52 65.332 820.628 64.958 820.843C64.584 821.058 64.278 821.376 64.04 821.795C63.8133 822.203 63.7 822.69 63.7 823.257C63.7 823.824 63.8133 824.322 64.04 824.753C64.278 825.172 64.584 825.495 64.958 825.722C65.3433 825.949 65.7513 826.062 66.182 826.062C66.624 826.062 67.0377 825.954 67.423 825.739C67.8083 825.512 68.1143 825.195 68.341 824.787C68.5677 824.368 68.681 823.869 68.681 823.291ZM74.6095 817.46C74.1902 817.46 73.8388 817.33 73.5555 817.069C73.2835 816.797 73.1475 816.463 73.1475 816.066C73.1475 815.669 73.2835 815.341 73.5555 815.08C73.8388 814.808 74.1902 814.672 74.6095 814.672C75.0288 814.672 75.3745 814.808 75.6465 815.08C75.9298 815.341 76.0715 815.669 76.0715 816.066C76.0715 816.463 75.9298 816.797 75.6465 817.069C75.3745 817.33 75.0288 817.46 74.6095 817.46ZM75.7825 818.582V828H73.4025V818.582H75.7825ZM77.5219 823.291C77.5219 822.316 77.7203 821.466 78.1169 820.741C78.5136 820.004 79.0633 819.438 79.7659 819.041C80.4686 818.633 81.2733 818.429 82.1799 818.429C83.3473 818.429 84.3106 818.724 85.0699 819.313C85.8406 819.891 86.3563 820.707 86.6169 821.761H84.0499C83.9139 821.353 83.6816 821.036 83.3529 820.809C83.0356 820.571 82.6389 820.452 82.1629 820.452C81.4829 820.452 80.9446 820.701 80.5479 821.2C80.1513 821.687 79.9529 822.384 79.9529 823.291C79.9529 824.186 80.1513 824.883 80.5479 825.382C80.9446 825.869 81.4829 826.113 82.1629 826.113C83.1263 826.113 83.7553 825.682 84.0499 824.821H86.6169C86.3563 825.841 85.8406 826.651 85.0699 827.252C84.2993 827.853 83.3359 828.153 82.1799 828.153C81.2733 828.153 80.4686 827.955 79.7659 827.558C79.0633 827.15 78.5136 826.583 78.1169 825.858C77.7203 825.121 77.5219 824.266 77.5219 823.291ZM91.1315 820.537V825.093C91.1315 825.41 91.2052 825.643 91.3525 825.79C91.5112 825.926 91.7718 825.994 92.1345 825.994H93.2395V828H91.7435C89.7375 828 88.7345 827.025 88.7345 825.076V820.537H87.6125V818.582H88.7345V816.253H91.1315V818.582H93.2395V820.537H91.1315ZM96.1583 817.46C95.739 817.46 95.3877 817.33 95.1043 817.069C94.8323 816.797 94.6963 816.463 94.6963 816.066C94.6963 815.669 94.8323 815.341 95.1043 815.08C95.3877 814.808 95.739 814.672 96.1583 814.672C96.5777 814.672 96.9233 814.808 97.1953 815.08C97.4787 815.341 97.6203 815.669 97.6203 816.066C97.6203 816.463 97.4787 816.797 97.1953 817.069C96.9233 817.33 96.5777 817.46 96.1583 817.46ZM97.3313 818.582V828H94.9513V818.582H97.3313ZM103.865 828.153C102.958 828.153 102.142 827.955 101.417 827.558C100.691 827.15 100.119 826.578 99.6998 825.841C99.2918 825.104 99.0878 824.254 99.0878 823.291C99.0878 822.328 99.2974 821.478 99.7168 820.741C100.147 820.004 100.731 819.438 101.468 819.041C102.204 818.633 103.026 818.429 103.933 818.429C104.839 818.429 105.661 818.633 106.398 819.041C107.134 819.438 107.712 820.004 108.132 820.741C108.562 821.478 108.778 822.328 108.778 823.291C108.778 824.254 108.557 825.104 108.115 825.841C107.684 826.578 107.095 827.15 106.347 827.558C105.61 827.955 104.783 828.153 103.865 828.153ZM103.865 826.079C104.295 826.079 104.698 825.977 105.072 825.773C105.457 825.558 105.763 825.24 105.99 824.821C106.216 824.402 106.33 823.892 106.33 823.291C106.33 822.396 106.092 821.71 105.616 821.234C105.151 820.747 104.579 820.503 103.899 820.503C103.219 820.503 102.646 820.747 102.182 821.234C101.728 821.71 101.502 822.396 101.502 823.291C101.502 824.186 101.723 824.878 102.165 825.365C102.618 825.841 103.185 826.079 103.865 826.079ZM115.743 818.446C116.865 818.446 117.771 818.803 118.463 819.517C119.154 820.22 119.5 821.206 119.5 822.475V828H117.12V822.798C117.12 822.05 116.933 821.478 116.559 821.081C116.185 820.673 115.675 820.469 115.029 820.469C114.371 820.469 113.85 820.673 113.465 821.081C113.091 821.478 112.904 822.05 112.904 822.798V828H110.524V818.582H112.904V819.755C113.221 819.347 113.623 819.03 114.111 818.803C114.609 818.565 115.153 818.446 115.743 818.446ZM125.367 828.153C124.596 828.153 123.905 828.017 123.293 827.745C122.681 827.462 122.194 827.082 121.831 826.606C121.48 826.13 121.287 825.603 121.253 825.025H123.65C123.695 825.388 123.871 825.688 124.177 825.926C124.494 826.164 124.885 826.283 125.35 826.283C125.803 826.283 126.155 826.192 126.404 826.011C126.665 825.83 126.795 825.597 126.795 825.314C126.795 825.008 126.636 824.781 126.319 824.634C126.013 824.475 125.52 824.305 124.84 824.124C124.137 823.954 123.559 823.778 123.106 823.597C122.664 823.416 122.279 823.138 121.95 822.764C121.633 822.39 121.474 821.886 121.474 821.251C121.474 820.73 121.621 820.254 121.916 819.823C122.222 819.392 122.653 819.052 123.208 818.803C123.775 818.554 124.438 818.429 125.197 818.429C126.319 818.429 127.214 818.712 127.883 819.279C128.552 819.834 128.92 820.588 128.988 821.54H126.71C126.676 821.166 126.517 820.871 126.234 820.656C125.962 820.429 125.594 820.316 125.129 820.316C124.698 820.316 124.364 820.395 124.126 820.554C123.899 820.713 123.786 820.934 123.786 821.217C123.786 821.534 123.945 821.778 124.262 821.948C124.579 822.107 125.072 822.271 125.741 822.441C126.421 822.611 126.982 822.787 127.424 822.968C127.866 823.149 128.246 823.433 128.563 823.818C128.892 824.192 129.062 824.691 129.073 825.314C129.073 825.858 128.92 826.345 128.614 826.776C128.319 827.207 127.889 827.547 127.322 827.796C126.767 828.034 126.115 828.153 125.367 828.153ZM137.457 820.044C137.763 819.545 138.16 819.154 138.647 818.871C139.146 818.588 139.713 818.446 140.347 818.446V820.945H139.718C138.97 820.945 138.404 821.121 138.018 821.472C137.644 821.823 137.457 822.435 137.457 823.308V828H135.077V818.582H137.457V820.044ZM150.705 823.087C150.705 823.427 150.683 823.733 150.637 824.005H143.752C143.809 824.685 144.047 825.218 144.466 825.603C144.886 825.988 145.401 826.181 146.013 826.181C146.897 826.181 147.526 825.801 147.9 825.042H150.467C150.195 825.949 149.674 826.697 148.903 827.286C148.133 827.864 147.186 828.153 146.064 828.153C145.158 828.153 144.342 827.955 143.616 827.558C142.902 827.15 142.341 826.578 141.933 825.841C141.537 825.104 141.338 824.254 141.338 823.291C141.338 822.316 141.537 821.461 141.933 820.724C142.33 819.987 142.885 819.421 143.599 819.024C144.313 818.627 145.135 818.429 146.064 818.429C146.96 818.429 147.759 818.622 148.461 819.007C149.175 819.392 149.725 819.942 150.11 820.656C150.507 821.359 150.705 822.169 150.705 823.087ZM148.24 822.407C148.229 821.795 148.008 821.308 147.577 820.945C147.147 820.571 146.62 820.384 145.996 820.384C145.407 820.384 144.908 820.565 144.5 820.928C144.104 821.279 143.86 821.772 143.769 822.407H148.24ZM151.831 823.274C151.831 822.333 152.023 821.5 152.409 820.775C152.805 820.038 153.338 819.466 154.007 819.058C154.675 818.65 155.412 818.446 156.217 818.446C156.885 818.446 157.475 818.576 157.985 818.837C158.506 819.086 158.925 819.409 159.243 819.806V818.582H161.64V832.488H159.243V826.708C158.925 827.116 158.5 827.456 157.968 827.728C157.435 828 156.834 828.136 156.166 828.136C155.372 828.136 154.641 827.932 153.973 827.524C153.315 827.105 152.794 826.527 152.409 825.79C152.023 825.053 151.831 824.215 151.831 823.274ZM159.243 823.291C159.243 822.713 159.124 822.214 158.886 821.795C158.648 821.376 158.336 821.058 157.951 820.843C157.577 820.628 157.174 820.52 156.744 820.52C156.324 820.52 155.922 820.628 155.537 820.843C155.163 821.058 154.857 821.376 154.619 821.795C154.381 822.203 154.262 822.696 154.262 823.274C154.262 823.852 154.381 824.356 154.619 824.787C154.857 825.206 155.163 825.524 155.537 825.739C155.922 825.954 156.324 826.062 156.744 826.062C157.174 826.062 157.577 825.954 157.951 825.739C158.336 825.524 158.648 825.206 158.886 824.787C159.124 824.368 159.243 823.869 159.243 823.291ZM172.855 818.582V828H170.458V826.81C170.152 827.218 169.75 827.541 169.251 827.779C168.764 828.006 168.231 828.119 167.653 828.119C166.916 828.119 166.265 827.966 165.698 827.66C165.131 827.343 164.684 826.884 164.355 826.283C164.038 825.671 163.879 824.946 163.879 824.107V818.582H166.259V823.767C166.259 824.515 166.446 825.093 166.82 825.501C167.194 825.898 167.704 826.096 168.35 826.096C169.007 826.096 169.523 825.898 169.897 825.501C170.271 825.093 170.458 824.515 170.458 823.767V818.582H172.855ZM183.958 823.087C183.958 823.427 183.936 823.733 183.89 824.005H177.005C177.062 824.685 177.3 825.218 177.719 825.603C178.139 825.988 178.654 826.181 179.266 826.181C180.15 826.181 180.779 825.801 181.153 825.042H183.72C183.448 825.949 182.927 826.697 182.156 827.286C181.386 827.864 180.439 828.153 179.317 828.153C178.411 828.153 177.595 827.955 176.869 827.558C176.155 827.15 175.594 826.578 175.186 825.841C174.79 825.104 174.591 824.254 174.591 823.291C174.591 822.316 174.79 821.461 175.186 820.724C175.583 819.987 176.138 819.421 176.852 819.024C177.566 818.627 178.388 818.429 179.317 818.429C180.213 818.429 181.012 818.622 181.714 819.007C182.428 819.392 182.978 819.942 183.363 820.656C183.76 821.359 183.958 822.169 183.958 823.087ZM181.493 822.407C181.482 821.795 181.261 821.308 180.83 820.945C180.4 820.571 179.873 820.384 179.249 820.384C178.66 820.384 178.161 820.565 177.753 820.928C177.357 821.279 177.113 821.772 177.022 822.407H181.493ZM189.299 828.153C188.529 828.153 187.837 828.017 187.225 827.745C186.613 827.462 186.126 827.082 185.763 826.606C185.412 826.13 185.219 825.603 185.185 825.025H187.582C187.628 825.388 187.803 825.688 188.109 825.926C188.427 826.164 188.818 826.283 189.282 826.283C189.736 826.283 190.087 826.192 190.336 826.011C190.597 825.83 190.727 825.597 190.727 825.314C190.727 825.008 190.569 824.781 190.251 824.634C189.945 824.475 189.452 824.305 188.772 824.124C188.07 823.954 187.492 823.778 187.038 823.597C186.596 823.416 186.211 823.138 185.882 822.764C185.565 822.39 185.406 821.886 185.406 821.251C185.406 820.73 185.554 820.254 185.848 819.823C186.154 819.392 186.585 819.052 187.14 818.803C187.707 818.554 188.37 818.429 189.129 818.429C190.251 818.429 191.147 818.712 191.815 819.279C192.484 819.834 192.852 820.588 192.92 821.54H190.642C190.608 821.166 190.45 820.871 190.166 820.656C189.894 820.429 189.526 820.316 189.061 820.316C188.631 820.316 188.296 820.395 188.058 820.554C187.832 820.713 187.718 820.934 187.718 821.217C187.718 821.534 187.877 821.778 188.194 821.948C188.512 822.107 189.005 822.271 189.673 822.441C190.353 822.611 190.914 822.787 191.356 822.968C191.798 823.149 192.178 823.433 192.495 823.818C192.824 824.192 192.994 824.691 193.005 825.314C193.005 825.858 192.852 826.345 192.546 826.776C192.252 827.207 191.821 827.547 191.254 827.796C190.699 828.034 190.047 828.153 189.299 828.153ZM197.73 820.537V825.093C197.73 825.41 197.804 825.643 197.951 825.79C198.11 825.926 198.37 825.994 198.733 825.994H199.838V828H198.342C196.336 828 195.333 827.025 195.333 825.076V820.537H194.211V818.582H195.333V816.253H197.73V818.582H199.838V820.537H197.73ZM205.154 828.153C204.383 828.153 203.692 828.017 203.08 827.745C202.468 827.462 201.981 827.082 201.618 826.606C201.267 826.13 201.074 825.603 201.04 825.025H203.437C203.482 825.388 203.658 825.688 203.964 825.926C204.281 826.164 204.672 826.283 205.137 826.283C205.59 826.283 205.942 826.192 206.191 826.011C206.452 825.83 206.582 825.597 206.582 825.314C206.582 825.008 206.423 824.781 206.106 824.634C205.8 824.475 205.307 824.305 204.627 824.124C203.924 823.954 203.346 823.778 202.893 823.597C202.451 823.416 202.066 823.138 201.737 822.764C201.42 822.39 201.261 821.886 201.261 821.251C201.261 820.73 201.408 820.254 201.703 819.823C202.009 819.392 202.44 819.052 202.995 818.803C203.562 818.554 204.225 818.429 204.984 818.429C206.106 818.429 207.001 818.712 207.67 819.279C208.339 819.834 208.707 820.588 208.775 821.54H206.497C206.463 821.166 206.304 820.871 206.021 820.656C205.749 820.429 205.381 820.316 204.916 820.316C204.485 820.316 204.151 820.395 203.913 820.554C203.686 820.713 203.573 820.934 203.573 821.217C203.573 821.534 203.732 821.778 204.049 821.948C204.366 822.107 204.859 822.271 205.528 822.441C206.208 822.611 206.769 822.787 207.211 822.968C207.653 823.149 208.033 823.433 208.35 823.818C208.679 824.192 208.849 824.691 208.86 825.314C208.86 825.858 208.707 826.345 208.401 826.776C208.106 827.207 207.676 827.547 207.109 827.796C206.554 828.034 205.902 828.153 205.154 828.153Z" fill="#394253"/>
<path d="M36.856 919.401C37.162 918.868 37.6153 918.426 38.216 918.075C38.828 917.712 39.5363 917.531 40.341 917.531C41.1683 917.531 41.9163 917.729 42.585 918.126C43.265 918.523 43.7977 919.084 44.183 919.809C44.5683 920.523 44.761 921.356 44.761 922.308C44.761 923.249 44.5683 924.087 44.183 924.824C43.7977 925.561 43.265 926.133 42.585 926.541C41.9163 926.949 41.1683 927.153 40.341 927.153C39.5477 927.153 38.845 926.977 38.233 926.626C37.6323 926.263 37.1733 925.816 36.856 925.283V931.42H35.309V917.684H36.856V919.401ZM43.18 922.308C43.18 921.605 43.0383 920.993 42.755 920.472C42.4717 919.951 42.0863 919.554 41.599 919.282C41.123 919.01 40.596 918.874 40.018 918.874C39.4513 918.874 38.9243 919.016 38.437 919.299C37.961 919.571 37.5757 919.973 37.281 920.506C36.9977 921.027 36.856 921.634 36.856 922.325C36.856 923.028 36.9977 923.645 37.281 924.178C37.5757 924.699 37.961 925.102 38.437 925.385C38.9243 925.657 39.4513 925.793 40.018 925.793C40.596 925.793 41.123 925.657 41.599 925.385C42.0863 925.102 42.4717 924.699 42.755 924.178C43.0383 923.645 43.18 923.022 43.18 922.308ZM55.2973 921.985C55.2973 922.28 55.2803 922.591 55.2463 922.92H47.8003C47.8569 923.838 48.1686 924.558 48.7353 925.079C49.3133 925.589 50.0103 925.844 50.8263 925.844C51.4949 925.844 52.0503 925.691 52.4923 925.385C52.9456 925.068 53.2629 924.648 53.4443 924.127H55.1103C54.8609 925.022 54.3623 925.753 53.6143 926.32C52.8663 926.875 51.9369 927.153 50.8263 927.153C49.9423 927.153 49.1489 926.955 48.4463 926.558C47.7549 926.161 47.2109 925.6 46.8143 924.875C46.4176 924.138 46.2193 923.288 46.2193 922.325C46.2193 921.362 46.4119 920.517 46.7973 919.792C47.1826 919.067 47.7209 918.511 48.4123 918.126C49.1149 917.729 49.9196 917.531 50.8263 917.531C51.7103 917.531 52.4923 917.724 53.1723 918.109C53.8523 918.494 54.3736 919.027 54.7363 919.707C55.1103 920.376 55.2973 921.135 55.2973 921.985ZM53.6993 921.662C53.6993 921.073 53.5689 920.568 53.3083 920.149C53.0476 919.718 52.6906 919.395 52.2373 919.18C51.7953 918.953 51.3023 918.84 50.7583 918.84C49.9763 918.84 49.3076 919.089 48.7523 919.588C48.2083 920.087 47.8966 920.778 47.8173 921.662H53.6993ZM58.8863 919.197C59.1583 918.664 59.5436 918.251 60.0423 917.956C60.5523 917.661 61.1699 917.514 61.8953 917.514V919.112H61.4873C59.7533 919.112 58.8863 920.053 58.8863 921.934V927H57.3393V917.684H58.8863V919.197ZM67.6353 922.308C67.6353 921.356 67.828 920.523 68.2133 919.809C68.5986 919.084 69.1256 918.523 69.7943 918.126C70.4743 917.729 71.2336 917.531 72.0723 917.531C72.7976 917.531 73.472 917.701 74.0953 918.041C74.7186 918.37 75.1946 918.806 75.5233 919.35V914.42H77.0873V927H75.5233V925.249C75.2173 925.804 74.764 926.263 74.1633 926.626C73.5626 926.977 72.86 927.153 72.0553 927.153C71.228 927.153 70.4743 926.949 69.7943 926.541C69.1256 926.133 68.5986 925.561 68.2133 924.824C67.828 924.087 67.6353 923.249 67.6353 922.308ZM75.5233 922.325C75.5233 921.622 75.3816 921.01 75.0983 920.489C74.815 919.968 74.4296 919.571 73.9423 919.299C73.4663 919.016 72.9393 918.874 72.3613 918.874C71.7833 918.874 71.2563 919.01 70.7803 919.282C70.3043 919.554 69.9246 919.951 69.6413 920.472C69.358 920.993 69.2163 921.605 69.2163 922.308C69.2163 923.022 69.358 923.645 69.6413 924.178C69.9246 924.699 70.3043 925.102 70.7803 925.385C71.2563 925.657 71.7833 925.793 72.3613 925.793C72.9393 925.793 73.4663 925.657 73.9423 925.385C74.4296 925.102 74.815 924.699 75.0983 924.178C75.3816 923.645 75.5233 923.028 75.5233 922.325ZM79.1236 922.308C79.1236 921.356 79.3162 920.523 79.7016 919.809C80.0869 919.084 80.6139 918.523 81.2826 918.126C81.9626 917.729 82.7162 917.531 83.5436 917.531C84.3596 917.531 85.0679 917.707 85.6686 918.058C86.2692 918.409 86.7169 918.851 87.0116 919.384V917.684H88.5756V927H87.0116V925.266C86.7056 925.81 86.2466 926.263 85.6346 926.626C85.0339 926.977 84.3312 927.153 83.5266 927.153C82.6992 927.153 81.9512 926.949 81.2826 926.541C80.6139 926.133 80.0869 925.561 79.7016 924.824C79.3162 924.087 79.1236 923.249 79.1236 922.308ZM87.0116 922.325C87.0116 921.622 86.8699 921.01 86.5866 920.489C86.3032 919.968 85.9179 919.571 85.4306 919.299C84.9546 919.016 84.4276 918.874 83.8496 918.874C83.2716 918.874 82.7446 919.01 82.2686 919.282C81.7926 919.554 81.4129 919.951 81.1296 920.472C80.8462 920.993 80.7046 921.605 80.7046 922.308C80.7046 923.022 80.8462 923.645 81.1296 924.178C81.4129 924.699 81.7926 925.102 82.2686 925.385C82.7446 925.657 83.2716 925.793 83.8496 925.793C84.4276 925.793 84.9546 925.657 85.4306 925.385C85.9179 925.102 86.3032 924.699 86.5866 924.178C86.8699 923.645 87.0116 923.028 87.0116 922.325ZM99.2139 917.684L93.6039 931.386H92.0059L93.8419 926.898L90.0849 917.684H91.8019L94.7259 925.232L97.6159 917.684H99.2139Z" fill="#394253"/>
<path d="M222.966 896.178H220.53V898.67H218.262V896.178H215.826V894.036H218.262V891.53H220.53V894.036H222.966V896.178ZM227.136 892.006V889.78H231.014V900H228.522V892.006H227.136ZM232.567 898.082C232.885 897.83 233.029 897.713 233.001 897.732C233.916 896.976 234.635 896.355 235.157 895.87C235.689 895.385 236.137 894.876 236.501 894.344C236.865 893.812 237.047 893.294 237.047 892.79C237.047 892.407 236.959 892.109 236.781 891.894C236.604 891.679 236.338 891.572 235.983 891.572C235.629 891.572 235.349 891.707 235.143 891.978C234.947 892.239 234.849 892.613 234.849 893.098H232.539C232.558 892.305 232.726 891.642 233.043 891.11C233.37 890.578 233.795 890.186 234.317 889.934C234.849 889.682 235.437 889.556 236.081 889.556C237.192 889.556 238.027 889.841 238.587 890.41C239.157 890.979 239.441 891.721 239.441 892.636C239.441 893.635 239.101 894.563 238.419 895.422C237.738 896.271 236.87 897.102 235.815 897.914H239.595V899.86H232.567V898.082ZM240.454 892.356C240.454 891.6 240.668 891.017 241.098 890.606C241.536 890.195 242.101 889.99 242.792 889.99C243.482 889.99 244.042 890.195 244.472 890.606C244.901 891.017 245.116 891.6 245.116 892.356C245.116 893.112 244.901 893.695 244.472 894.106C244.042 894.517 243.482 894.722 242.792 894.722C242.101 894.722 241.536 894.517 241.098 894.106C240.668 893.695 240.454 893.112 240.454 892.356ZM249.96 890.144L244.57 900H242.26L247.65 890.144H249.96ZM242.778 891.39C242.33 891.39 242.106 891.712 242.106 892.356C242.106 892.991 242.33 893.308 242.778 893.308C242.992 893.308 243.16 893.229 243.282 893.07C243.403 892.911 243.464 892.673 243.464 892.356C243.464 891.712 243.235 891.39 242.778 891.39ZM247.118 897.788C247.118 897.032 247.332 896.449 247.762 896.038C248.191 895.627 248.751 895.422 249.442 895.422C250.132 895.422 250.692 895.627 251.122 896.038C251.551 896.449 251.766 897.032 251.766 897.788C251.766 898.544 251.551 899.127 251.122 899.538C250.692 899.949 250.132 900.154 249.442 900.154C248.751 900.154 248.191 899.949 247.762 899.538C247.332 899.127 247.118 898.544 247.118 897.788ZM249.428 896.822C249.213 896.822 249.045 896.901 248.924 897.06C248.812 897.219 248.756 897.461 248.756 897.788C248.756 898.423 248.98 898.74 249.428 898.74C249.642 898.74 249.81 898.661 249.932 898.502C250.053 898.343 250.114 898.105 250.114 897.788C250.114 897.471 250.053 897.233 249.932 897.074C249.81 896.906 249.642 896.822 249.428 896.822Z" fill="#52DE97"/>
<path d="M38.27 42.119C37.4427 42.119 36.6947 41.9773 36.026 41.694C35.3687 41.4107 34.8473 41.0027 34.462 40.47C34.0767 39.9373 33.8783 39.3083 33.867 38.583H36.417C36.451 39.0703 36.621 39.4557 36.927 39.739C37.2443 40.0223 37.675 40.164 38.219 40.164C38.7743 40.164 39.2107 40.0337 39.528 39.773C39.8453 39.501 40.004 39.1497 40.004 38.719C40.004 38.3677 39.8963 38.0787 39.681 37.852C39.4657 37.6253 39.1937 37.4497 38.865 37.325C38.5477 37.189 38.1057 37.0417 37.539 36.883C36.7683 36.6563 36.1393 36.4353 35.652 36.22C35.176 35.9933 34.7623 35.659 34.411 35.217C34.071 34.7637 33.901 34.163 33.901 33.415C33.901 32.7123 34.0767 32.1003 34.428 31.579C34.7793 31.0577 35.2723 30.661 35.907 30.389C36.5417 30.1057 37.267 29.964 38.083 29.964C39.307 29.964 40.2987 30.2643 41.058 30.865C41.8287 31.4543 42.2537 32.2817 42.333 33.347H39.715C39.6923 32.939 39.5167 32.6047 39.188 32.344C38.8707 32.072 38.4457 31.936 37.913 31.936C37.4483 31.936 37.0743 32.055 36.791 32.293C36.519 32.531 36.383 32.8767 36.383 33.33C36.383 33.6473 36.485 33.9137 36.689 34.129C36.9043 34.333 37.165 34.503 37.471 34.639C37.7883 34.7637 38.2303 34.911 38.797 35.081C39.5677 35.3077 40.1967 35.5343 40.684 35.761C41.1713 35.9877 41.5907 36.3277 41.942 36.781C42.2933 37.2343 42.469 37.8293 42.469 38.566C42.469 39.2007 42.3047 39.79 41.976 40.334C41.6473 40.878 41.1657 41.3143 40.531 41.643C39.8963 41.9603 39.1427 42.119 38.27 42.119ZM47.3034 34.537V39.093C47.3034 39.4103 47.377 39.6427 47.5244 39.79C47.683 39.926 47.9437 39.994 48.3064 39.994H49.4114V42H47.9154C45.9094 42 44.9064 41.0253 44.9064 39.076V34.537H43.7844V32.582H44.9064V30.253H47.3034V32.582H49.4114V34.537H47.3034ZM50.5112 37.257C50.5112 36.305 50.6982 35.4607 51.0722 34.724C51.4575 33.9873 51.9732 33.4207 52.6192 33.024C53.2765 32.6273 54.0075 32.429 54.8122 32.429C55.5149 32.429 56.1269 32.5707 56.6482 32.854C57.1809 33.1373 57.6059 33.4943 57.9232 33.925V32.582H60.3202V42H57.9232V40.623C57.6172 41.065 57.1922 41.4333 56.6482 41.728C56.1155 42.0113 55.4979 42.153 54.7952 42.153C54.0019 42.153 53.2765 41.949 52.6192 41.541C51.9732 41.133 51.4575 40.5607 51.0722 39.824C50.6982 39.076 50.5112 38.2203 50.5112 37.257ZM57.9232 37.291C57.9232 36.713 57.8099 36.22 57.5832 35.812C57.3565 35.3927 57.0505 35.0753 56.6652 34.86C56.2799 34.6333 55.8662 34.52 55.4242 34.52C54.9822 34.52 54.5742 34.6277 54.2002 34.843C53.8262 35.0583 53.5202 35.3757 53.2822 35.795C53.0555 36.203 52.9422 36.6903 52.9422 37.257C52.9422 37.8237 53.0555 38.3223 53.2822 38.753C53.5202 39.1723 53.8262 39.4953 54.2002 39.722C54.5855 39.9487 54.9935 40.062 55.4242 40.062C55.8662 40.062 56.2799 39.9543 56.6652 39.739C57.0505 39.5123 57.3565 39.195 57.5832 38.787C57.8099 38.3677 57.9232 37.869 57.9232 37.291ZM65.4157 34.537V39.093C65.4157 39.4103 65.4893 39.6427 65.6367 39.79C65.7953 39.926 66.056 39.994 66.4187 39.994H67.5237V42H66.0277C64.0217 42 63.0187 41.0253 63.0187 39.076V34.537H61.8967V32.582H63.0187V30.253H65.4157V32.582H67.5237V34.537H65.4157ZM70.4425 31.46C70.0232 31.46 69.6718 31.3297 69.3885 31.069C69.1165 30.797 68.9805 30.4627 68.9805 30.066C68.9805 29.6693 69.1165 29.3407 69.3885 29.08C69.6718 28.808 70.0232 28.672 70.4425 28.672C70.8618 28.672 71.2075 28.808 71.4795 29.08C71.7628 29.3407 71.9045 29.6693 71.9045 30.066C71.9045 30.4627 71.7628 30.797 71.4795 31.069C71.2075 31.3297 70.8618 31.46 70.4425 31.46ZM71.6155 32.582V42H69.2355V32.582H71.6155ZM78.1489 42.153C77.2423 42.153 76.4263 41.9547 75.7009 41.558C74.9756 41.15 74.4033 40.5777 73.9839 39.841C73.5759 39.1043 73.3719 38.2543 73.3719 37.291C73.3719 36.3277 73.5816 35.4777 74.0009 34.741C74.4316 34.0043 75.0153 33.4377 75.7519 33.041C76.4886 32.633 77.3103 32.429 78.2169 32.429C79.1236 32.429 79.9453 32.633 80.6819 33.041C81.4186 33.4377 81.9966 34.0043 82.4159 34.741C82.8466 35.4777 83.0619 36.3277 83.0619 37.291C83.0619 38.2543 82.8409 39.1043 82.3989 39.841C81.9683 40.5777 81.3789 41.15 80.6309 41.558C79.8943 41.9547 79.0669 42.153 78.1489 42.153ZM78.1489 40.079C78.5796 40.079 78.9819 39.977 79.3559 39.773C79.7413 39.5577 80.0473 39.2403 80.2739 38.821C80.5006 38.4017 80.6139 37.8917 80.6139 37.291C80.6139 36.3957 80.3759 35.71 79.8999 35.234C79.4353 34.7467 78.8629 34.503 78.1829 34.503C77.5029 34.503 76.9306 34.7467 76.4659 35.234C76.0126 35.71 75.7859 36.3957 75.7859 37.291C75.7859 38.1863 76.0069 38.8777 76.4489 39.365C76.9023 39.841 77.4689 40.079 78.1489 40.079ZM90.0268 32.446C91.1488 32.446 92.0554 32.803 92.7468 33.517C93.4381 34.2197 93.7838 35.2057 93.7838 36.475V42H91.4038V36.798C91.4038 36.05 91.2168 35.4777 90.8428 35.081C90.4688 34.673 89.9588 34.469 89.3128 34.469C88.6554 34.469 88.1341 34.673 87.7488 35.081C87.3748 35.4777 87.1878 36.05 87.1878 36.798V42H84.8078V32.582H87.1878V33.755C87.5051 33.347 87.9074 33.0297 88.3948 32.803C88.8934 32.565 89.4374 32.446 90.0268 32.446ZM99.651 42.153C98.8804 42.153 98.189 42.017 97.577 41.745C96.965 41.4617 96.4777 41.082 96.115 40.606C95.7637 40.13 95.571 39.603 95.537 39.025H97.934C97.9794 39.3877 98.155 39.688 98.461 39.926C98.7784 40.164 99.1694 40.283 99.634 40.283C100.087 40.283 100.439 40.1923 100.688 40.011C100.949 39.8297 101.079 39.5973 101.079 39.314C101.079 39.008 100.92 38.7813 100.603 38.634C100.297 38.4753 99.804 38.3053 99.124 38.124C98.4214 37.954 97.8434 37.7783 97.39 37.597C96.948 37.4157 96.5627 37.138 96.234 36.764C95.9167 36.39 95.758 35.8857 95.758 35.251C95.758 34.7297 95.9054 34.2537 96.2 33.823C96.506 33.3923 96.9367 33.0523 97.492 32.803C98.0587 32.5537 98.7217 32.429 99.481 32.429C100.603 32.429 101.498 32.7123 102.167 33.279C102.836 33.8343 103.204 34.588 103.272 35.54H100.994C100.96 35.166 100.801 34.8713 100.518 34.656C100.246 34.4293 99.8777 34.316 99.413 34.316C98.9824 34.316 98.648 34.3953 98.41 34.554C98.1834 34.7127 98.07 34.9337 98.07 35.217C98.07 35.5343 98.2287 35.778 98.546 35.948C98.8634 36.1067 99.3564 36.271 100.025 36.441C100.705 36.611 101.266 36.7867 101.708 36.968C102.15 37.1493 102.53 37.4327 102.847 37.818C103.176 38.192 103.346 38.6907 103.357 39.314C103.357 39.858 103.204 40.3453 102.898 40.776C102.603 41.2067 102.173 41.5467 101.606 41.796C101.051 42.034 100.399 42.153 99.651 42.153ZM116.637 39.739H111.911L111.129 42H108.63L112.897 30.117H115.668L119.935 42H117.419L116.637 39.739ZM115.991 37.835L114.274 32.871L112.557 37.835H115.991ZM120.918 37.291C120.918 36.3163 121.117 35.4663 121.513 34.741C121.91 34.0043 122.46 33.4377 123.162 33.041C123.865 32.633 124.67 32.429 125.576 32.429C126.744 32.429 127.707 32.7237 128.466 33.313C129.237 33.891 129.753 34.707 130.013 35.761H127.446C127.31 35.353 127.078 35.0357 126.749 34.809C126.432 34.571 126.035 34.452 125.559 34.452C124.879 34.452 124.341 34.7013 123.944 35.2C123.548 35.6873 123.349 36.3843 123.349 37.291C123.349 38.1863 123.548 38.8833 123.944 39.382C124.341 39.8693 124.879 40.113 125.559 40.113C126.523 40.113 127.152 39.6823 127.446 38.821H130.013C129.753 39.841 129.237 40.6513 128.466 41.252C127.696 41.8527 126.732 42.153 125.576 42.153C124.67 42.153 123.865 41.9547 123.162 41.558C122.46 41.15 121.91 40.5833 121.513 39.858C121.117 39.1213 120.918 38.2657 120.918 37.291ZM134.528 34.537V39.093C134.528 39.4103 134.602 39.6427 134.749 39.79C134.908 39.926 135.168 39.994 135.531 39.994H136.636V42H135.14C133.134 42 132.131 41.0253 132.131 39.076V34.537H131.009V32.582H132.131V30.253H134.528V32.582H136.636V34.537H134.528ZM139.555 31.46C139.135 31.46 138.784 31.3297 138.501 31.069C138.229 30.797 138.093 30.4627 138.093 30.066C138.093 29.6693 138.229 29.3407 138.501 29.08C138.784 28.808 139.135 28.672 139.555 28.672C139.974 28.672 140.32 28.808 140.592 29.08C140.875 29.3407 141.017 29.6693 141.017 30.066C141.017 30.4627 140.875 30.797 140.592 31.069C140.32 31.3297 139.974 31.46 139.555 31.46ZM140.728 32.582V42H138.348V32.582H140.728ZM147.006 39.807L149.386 32.582H151.919L148.434 42H145.544L142.076 32.582H144.626L147.006 39.807ZM152.644 37.257C152.644 36.305 152.831 35.4607 153.205 34.724C153.59 33.9873 154.106 33.4207 154.752 33.024C155.409 32.6273 156.14 32.429 156.945 32.429C157.648 32.429 158.26 32.5707 158.781 32.854C159.314 33.1373 159.739 33.4943 160.056 33.925V32.582H162.453V42H160.056V40.623C159.75 41.065 159.325 41.4333 158.781 41.728C158.248 42.0113 157.631 42.153 156.928 42.153C156.135 42.153 155.409 41.949 154.752 41.541C154.106 41.133 153.59 40.5607 153.205 39.824C152.831 39.076 152.644 38.2203 152.644 37.257ZM160.056 37.291C160.056 36.713 159.943 36.22 159.716 35.812C159.489 35.3927 159.183 35.0753 158.798 34.86C158.413 34.6333 157.999 34.52 157.557 34.52C157.115 34.52 156.707 34.6277 156.333 34.843C155.959 35.0583 155.653 35.3757 155.415 35.795C155.188 36.203 155.075 36.6903 155.075 37.257C155.075 37.8237 155.188 38.3223 155.415 38.753C155.653 39.1723 155.959 39.4953 156.333 39.722C156.718 39.9487 157.126 40.062 157.557 40.062C157.999 40.062 158.413 39.9543 158.798 39.739C159.183 39.5123 159.489 39.195 159.716 38.787C159.943 38.3677 160.056 37.869 160.056 37.291ZM167.548 34.537V39.093C167.548 39.4103 167.622 39.6427 167.769 39.79C167.928 39.926 168.189 39.994 168.551 39.994H169.656V42H168.16C166.154 42 165.151 41.0253 165.151 39.076V34.537H164.029V32.582H165.151V30.253H167.548V32.582H169.656V34.537H167.548ZM172.575 31.46C172.156 31.46 171.805 31.3297 171.521 31.069C171.249 30.797 171.113 30.4627 171.113 30.066C171.113 29.6693 171.249 29.3407 171.521 29.08C171.805 28.808 172.156 28.672 172.575 28.672C172.995 28.672 173.34 28.808 173.612 29.08C173.896 29.3407 174.037 29.6693 174.037 30.066C174.037 30.4627 173.896 30.797 173.612 31.069C173.34 31.3297 172.995 31.46 172.575 31.46ZM173.748 32.582V42H171.368V32.582H173.748ZM180.282 42.153C179.375 42.153 178.559 41.9547 177.834 41.558C177.108 41.15 176.536 40.5777 176.117 39.841C175.709 39.1043 175.505 38.2543 175.505 37.291C175.505 36.3277 175.714 35.4777 176.134 34.741C176.564 34.0043 177.148 33.4377 177.885 33.041C178.621 32.633 179.443 32.429 180.35 32.429C181.256 32.429 182.078 32.633 182.815 33.041C183.551 33.4377 184.129 34.0043 184.549 34.741C184.979 35.4777 185.195 36.3277 185.195 37.291C185.195 38.2543 184.974 39.1043 184.532 39.841C184.101 40.5777 183.512 41.15 182.764 41.558C182.027 41.9547 181.2 42.153 180.282 42.153ZM180.282 40.079C180.712 40.079 181.115 39.977 181.489 39.773C181.874 39.5577 182.18 39.2403 182.407 38.821C182.633 38.4017 182.747 37.8917 182.747 37.291C182.747 36.3957 182.509 35.71 182.033 35.234C181.568 34.7467 180.996 34.503 180.316 34.503C179.636 34.503 179.063 34.7467 178.599 35.234C178.145 35.71 177.919 36.3957 177.919 37.291C177.919 38.1863 178.14 38.8777 178.582 39.365C179.035 39.841 179.602 40.079 180.282 40.079ZM192.16 32.446C193.282 32.446 194.188 32.803 194.88 33.517C195.571 34.2197 195.917 35.2057 195.917 36.475V42H193.537V36.798C193.537 36.05 193.35 35.4777 192.976 35.081C192.602 34.673 192.092 34.469 191.446 34.469C190.788 34.469 190.267 34.673 189.882 35.081C189.508 35.4777 189.321 36.05 189.321 36.798V42H186.941V32.582H189.321V33.755C189.638 33.347 190.04 33.0297 190.528 32.803C191.026 32.565 191.57 32.446 192.16 32.446Z" fill="#394253"/>
<path d="M47.11 348.134V360H44.73V352.282L41.551 360H39.749L36.553 352.282V360H34.173V348.134H36.876L40.65 356.957L44.424 348.134H47.11ZM53.645 360.153C52.7384 360.153 51.9224 359.955 51.197 359.558C50.4717 359.15 49.8994 358.578 49.48 357.841C49.072 357.104 48.868 356.254 48.868 355.291C48.868 354.328 49.0777 353.478 49.497 352.741C49.9277 352.004 50.5114 351.438 51.248 351.041C51.9847 350.633 52.8064 350.429 53.713 350.429C54.6197 350.429 55.4414 350.633 56.178 351.041C56.9147 351.438 57.4927 352.004 57.912 352.741C58.3427 353.478 58.558 354.328 58.558 355.291C58.558 356.254 58.337 357.104 57.895 357.841C57.4644 358.578 56.875 359.15 56.127 359.558C55.3904 359.955 54.563 360.153 53.645 360.153ZM53.645 358.079C54.0757 358.079 54.478 357.977 54.852 357.773C55.2374 357.558 55.5434 357.24 55.77 356.821C55.9967 356.402 56.11 355.892 56.11 355.291C56.11 354.396 55.872 353.71 55.396 353.234C54.9314 352.747 54.359 352.503 53.679 352.503C52.999 352.503 52.4267 352.747 51.962 353.234C51.5087 353.71 51.282 354.396 51.282 355.291C51.282 356.186 51.503 356.878 51.945 357.365C52.3984 357.841 52.965 358.079 53.645 358.079ZM59.6919 355.257C59.6919 354.305 59.8789 353.461 60.2529 352.724C60.6382 351.987 61.1595 351.421 61.8169 351.024C62.4742 350.627 63.2052 350.429 64.0099 350.429C64.6219 350.429 65.2055 350.565 65.7609 350.837C66.3162 351.098 66.7582 351.449 67.0869 351.891V347.42H69.5009V360H67.0869V358.606C66.7922 359.071 66.3785 359.445 65.8459 359.728C65.3132 360.011 64.6955 360.153 63.9929 360.153C63.1995 360.153 62.4742 359.949 61.8169 359.541C61.1595 359.133 60.6382 358.561 60.2529 357.824C59.8789 357.076 59.6919 356.22 59.6919 355.257ZM67.1039 355.291C67.1039 354.713 66.9905 354.22 66.7639 353.812C66.5372 353.393 66.2312 353.075 65.8459 352.86C65.4605 352.633 65.0469 352.52 64.6049 352.52C64.1629 352.52 63.7549 352.628 63.3809 352.843C63.0069 353.058 62.7009 353.376 62.4629 353.795C62.2362 354.203 62.1229 354.69 62.1229 355.257C62.1229 355.824 62.2362 356.322 62.4629 356.753C62.7009 357.172 63.0069 357.495 63.3809 357.722C63.7662 357.949 64.1742 358.062 64.6049 358.062C65.0469 358.062 65.4605 357.954 65.8459 357.739C66.2312 357.512 66.5372 357.195 66.7639 356.787C66.9905 356.368 67.1039 355.869 67.1039 355.291ZM80.5803 355.087C80.5803 355.427 80.5577 355.733 80.5123 356.005H73.6273C73.684 356.685 73.922 357.218 74.3413 357.603C74.7607 357.988 75.2763 358.181 75.8883 358.181C76.7723 358.181 77.4013 357.801 77.7753 357.042H80.3423C80.0703 357.949 79.549 358.697 78.7783 359.286C78.0077 359.864 77.0613 360.153 75.9393 360.153C75.0327 360.153 74.2167 359.955 73.4913 359.558C72.7773 359.15 72.2163 358.578 71.8083 357.841C71.4117 357.104 71.2133 356.254 71.2133 355.291C71.2133 354.316 71.4117 353.461 71.8083 352.724C72.205 351.987 72.7603 351.421 73.4743 351.024C74.1883 350.627 75.01 350.429 75.9393 350.429C76.8347 350.429 77.6337 350.622 78.3363 351.007C79.0503 351.392 79.6 351.942 79.9853 352.656C80.382 353.359 80.5803 354.169 80.5803 355.087ZM78.1153 354.407C78.104 353.795 77.883 353.308 77.4523 352.945C77.0217 352.571 76.4947 352.384 75.8713 352.384C75.282 352.384 74.7833 352.565 74.3753 352.928C73.9787 353.279 73.735 353.772 73.6443 354.407H78.1153ZM84.6975 347.42V360H82.3175V347.42H84.6975ZM95.1968 360.119C94.3694 360.119 93.6214 359.977 92.9528 359.694C92.2954 359.411 91.7741 359.003 91.3888 358.47C91.0034 357.937 90.8051 357.308 90.7938 356.583H93.3438C93.3778 357.07 93.5478 357.456 93.8538 357.739C94.1711 358.022 94.6018 358.164 95.1458 358.164C95.7011 358.164 96.1374 358.034 96.4548 357.773C96.7721 357.501 96.9308 357.15 96.9308 356.719C96.9308 356.368 96.8231 356.079 96.6078 355.852C96.3924 355.625 96.1204 355.45 95.7918 355.325C95.4744 355.189 95.0324 355.042 94.4658 354.883C93.6951 354.656 93.0661 354.435 92.5788 354.22C92.1028 353.993 91.6891 353.659 91.3378 353.217C90.9978 352.764 90.8278 352.163 90.8278 351.415C90.8278 350.712 91.0034 350.1 91.3548 349.579C91.7061 349.058 92.1991 348.661 92.8338 348.389C93.4684 348.106 94.1938 347.964 95.0098 347.964C96.2338 347.964 97.2254 348.264 97.9848 348.865C98.7554 349.454 99.1804 350.282 99.2598 351.347H96.6418C96.6191 350.939 96.4434 350.605 96.1148 350.344C95.7974 350.072 95.3724 349.936 94.8398 349.936C94.3751 349.936 94.0011 350.055 93.7178 350.293C93.4458 350.531 93.3098 350.877 93.3098 351.33C93.3098 351.647 93.4118 351.914 93.6158 352.129C93.8311 352.333 94.0918 352.503 94.3978 352.639C94.7151 352.764 95.1571 352.911 95.7238 353.081C96.4944 353.308 97.1234 353.534 97.6108 353.761C98.0981 353.988 98.5174 354.328 98.8688 354.781C99.2201 355.234 99.3958 355.829 99.3958 356.566C99.3958 357.201 99.2314 357.79 98.9028 358.334C98.5741 358.878 98.0924 359.314 97.4578 359.643C96.8231 359.96 96.0694 360.119 95.1968 360.119ZM104.23 352.537V357.093C104.23 357.41 104.304 357.643 104.451 357.79C104.61 357.926 104.87 357.994 105.233 357.994H106.338V360H104.842C102.836 360 101.833 359.025 101.833 357.076V352.537H100.711V350.582H101.833V348.253H104.23V350.582H106.338V352.537H104.23ZM107.438 355.257C107.438 354.305 107.625 353.461 107.999 352.724C108.384 351.987 108.9 351.421 109.546 351.024C110.203 350.627 110.934 350.429 111.739 350.429C112.442 350.429 113.054 350.571 113.575 350.854C114.108 351.137 114.533 351.494 114.85 351.925V350.582H117.247V360H114.85V358.623C114.544 359.065 114.119 359.433 113.575 359.728C113.042 360.011 112.425 360.153 111.722 360.153C110.929 360.153 110.203 359.949 109.546 359.541C108.9 359.133 108.384 358.561 107.999 357.824C107.625 357.076 107.438 356.22 107.438 355.257ZM114.85 355.291C114.85 354.713 114.737 354.22 114.51 353.812C114.283 353.393 113.977 353.075 113.592 352.86C113.207 352.633 112.793 352.52 112.351 352.52C111.909 352.52 111.501 352.628 111.127 352.843C110.753 353.058 110.447 353.376 110.209 353.795C109.982 354.203 109.869 354.69 109.869 355.257C109.869 355.824 109.982 356.322 110.209 356.753C110.447 357.172 110.753 357.495 111.127 357.722C111.512 357.949 111.92 358.062 112.351 358.062C112.793 358.062 113.207 357.954 113.592 357.739C113.977 357.512 114.283 357.195 114.51 356.787C114.737 356.368 114.85 355.869 114.85 355.291ZM122.342 352.537V357.093C122.342 357.41 122.416 357.643 122.563 357.79C122.722 357.926 122.983 357.994 123.345 357.994H124.45V360H122.954C120.948 360 119.945 359.025 119.945 357.076V352.537H118.823V350.582H119.945V348.253H122.342V350.582H124.45V352.537H122.342ZM134.917 355.087C134.917 355.427 134.895 355.733 134.849 356.005H127.964C128.021 356.685 128.259 357.218 128.678 357.603C129.098 357.988 129.613 358.181 130.225 358.181C131.109 358.181 131.738 357.801 132.112 357.042H134.679C134.407 357.949 133.886 358.697 133.115 359.286C132.345 359.864 131.398 360.153 130.276 360.153C129.37 360.153 128.554 359.955 127.828 359.558C127.114 359.15 126.553 358.578 126.145 357.841C125.749 357.104 125.55 356.254 125.55 355.291C125.55 354.316 125.749 353.461 126.145 352.724C126.542 351.987 127.097 351.421 127.811 351.024C128.525 350.627 129.347 350.429 130.276 350.429C131.172 350.429 131.971 350.622 132.673 351.007C133.387 351.392 133.937 351.942 134.322 352.656C134.719 353.359 134.917 354.169 134.917 355.087ZM132.452 354.407C132.441 353.795 132.22 353.308 131.789 352.945C131.359 352.571 130.832 352.384 130.208 352.384C129.619 352.384 129.12 352.565 128.712 352.928C128.316 353.279 128.072 353.772 127.981 354.407H132.452ZM140.258 360.153C139.488 360.153 138.796 360.017 138.184 359.745C137.572 359.462 137.085 359.082 136.722 358.606C136.371 358.13 136.178 357.603 136.144 357.025H138.541C138.587 357.388 138.762 357.688 139.068 357.926C139.386 358.164 139.777 358.283 140.241 358.283C140.695 358.283 141.046 358.192 141.295 358.011C141.556 357.83 141.686 357.597 141.686 357.314C141.686 357.008 141.528 356.781 141.21 356.634C140.904 356.475 140.411 356.305 139.731 356.124C139.029 355.954 138.451 355.778 137.997 355.597C137.555 355.416 137.17 355.138 136.841 354.764C136.524 354.39 136.365 353.886 136.365 353.251C136.365 352.73 136.513 352.254 136.807 351.823C137.113 351.392 137.544 351.052 138.099 350.803C138.666 350.554 139.329 350.429 140.088 350.429C141.21 350.429 142.106 350.712 142.774 351.279C143.443 351.834 143.811 352.588 143.879 353.54H141.601C141.567 353.166 141.409 352.871 141.125 352.656C140.853 352.429 140.485 352.316 140.02 352.316C139.59 352.316 139.255 352.395 139.017 352.554C138.791 352.713 138.677 352.934 138.677 353.217C138.677 353.534 138.836 353.778 139.153 353.948C139.471 354.107 139.964 354.271 140.632 354.441C141.312 354.611 141.873 354.787 142.315 354.968C142.757 355.149 143.137 355.433 143.454 355.818C143.783 356.192 143.953 356.691 143.964 357.314C143.964 357.858 143.811 358.345 143.505 358.776C143.211 359.207 142.78 359.547 142.213 359.796C141.658 360.034 141.006 360.153 140.258 360.153Z" fill="#394253"/>
<path d="M139.5 69C121.315 69 103.709 75.3948 89.7631 87.0653C75.817 98.7358 66.419 114.939 63.2135 132.839C60.008 150.739 63.1992 169.197 72.2287 184.981C81.2582 200.766 95.5509 212.873 112.606 219.184C129.661 225.494 148.392 225.607 165.521 219.501C182.65 213.395 197.087 201.461 206.305 185.785C215.523 170.11 218.935 151.692 215.945 133.755C212.954 115.817 203.751 99.5027 189.946 87.6658L179.857 99.4327C190.901 108.902 198.263 121.954 200.656 136.304C203.048 150.654 200.319 165.388 192.944 177.928C185.57 190.469 174.02 200.016 160.317 204.901C146.613 209.785 131.629 209.696 117.985 204.647C104.341 199.599 92.9065 189.913 85.683 177.285C78.4594 164.657 75.9064 149.891 78.4708 135.571C81.0352 121.251 88.5536 108.289 99.7105 98.9522C110.867 89.6158 124.952 84.5 139.5 84.5L139.5 69Z" fill="#ADB3C0"/>
<path d="M130.704 69.5008C149.156 67.393 167.751 71.9812 183.104 82.4303C198.458 92.8794 209.548 108.495 214.357 126.433L199.386 130.446C195.538 116.096 186.666 103.604 174.383 95.2443C162.101 86.885 147.225 83.2144 132.463 84.9007L130.704 69.5008Z" fill="#52DE97"/>
</svg>
