<svg width="110" height="27" viewBox="0 0 110 27" fill="none" xmlns="http://www.w3.org/2000/svg">
<path fill-rule="evenodd" clip-rule="evenodd" d="M57.6453 16.6563C57.6453 13.9342 55.729 12.0878 53.1311 12.0878C50.5651 12.0878 48.6489 13.9342 48.6489 16.6563C48.6489 19.378 50.5651 21.2248 53.1311 21.2248C55.729 21.2248 57.6453 19.378 57.6453 16.6563V16.6563ZM61.8355 8.55562V24.7566H57.6453V22.8447C56.4761 24.3027 54.7225 25.2102 52.3512 25.2102C48.0319 25.2102 44.459 21.484 44.459 16.6563C44.459 11.8283 48.0319 8.10205 52.3512 8.10205C54.7225 8.10205 56.4761 9.00951 57.6453 10.4676V8.55562H61.8355Z" fill="white"/>
<path fill-rule="evenodd" clip-rule="evenodd" d="M80.8026 14.8092V24.7563H76.6128V15.3274C76.6128 13.1244 75.2813 11.9902 73.3973 11.9902C71.3509 11.9902 69.8246 13.189 69.8246 16.0081V24.7563H65.6348V8.55562H69.8246V10.3702C70.799 8.91186 72.4879 8.10205 74.664 8.10205C78.1069 8.10205 80.8026 10.4997 80.8026 14.8092" fill="white"/>
<path fill-rule="evenodd" clip-rule="evenodd" d="M89.9936 12.5734V19.3128C89.9936 21.0625 91.2607 21.0949 93.6641 20.9655V24.7566C87.785 25.4045 85.8041 23.6869 85.8041 19.3128V12.5734H82.9785V8.55556H85.8041V5.28323L89.9936 4.01953V8.55556H93.6641V12.5734H89.9936Z" fill="white"/>
<mask id="mask0_137_17773" style="mask-type:alpha" maskUnits="userSpaceOnUse" x="0" y="0" width="110" height="27">
<path fill-rule="evenodd" clip-rule="evenodd" d="M0 26.3049H109.838V0.318359H0V26.3049Z" fill="white"/>
</mask>
<g mask="url(#mask0_137_17773)">
<path fill-rule="evenodd" clip-rule="evenodd" d="M96.62 24.7565H100.81V8.55552H96.62V24.7565ZM96.1328 4.05193C96.1328 2.65846 97.302 1.45996 98.6985 1.45996C100.128 1.45996 101.297 2.65846 101.297 4.05193C101.297 5.44509 100.128 6.61146 98.6985 6.61146C97.302 6.61146 96.1328 5.44509 96.1328 4.05193V4.05193Z" fill="white"/>
<path fill-rule="evenodd" clip-rule="evenodd" d="M104.316 22.4236C104.316 20.9007 105.551 19.6694 107.077 19.6694C108.604 19.6694 109.838 20.9007 109.838 22.4236C109.838 23.9466 108.604 25.1778 107.077 25.1778C105.551 25.1778 104.316 23.9466 104.316 22.4236" fill="#52DE97"/>
<path fill-rule="evenodd" clip-rule="evenodd" d="M21.4708 14.328L19.7832 11.9116C19.7567 11.8741 19.6987 11.8833 19.6853 11.9272L19.1774 13.5984C19.1506 13.6127 19.1356 13.6203 19.1088 13.6346L14.6176 12.2758C14.7841 12.1413 15.0324 11.9727 15.4023 11.773C16.3352 11.2691 16.934 10.5691 17.3198 9.86739H17.3262C17.3632 9.79996 17.3903 9.72712 17.425 9.65841C17.4598 9.58717 17.4942 9.51624 17.5251 9.44562C18.1386 8.10686 18.334 6.54703 17.8248 4.9115C17.1365 2.7009 15.3057 0.967725 13.0394 0.472486C8.8871 -0.434338 5.13339 2.78773 5.13339 6.79449C5.13339 7.73726 5.35116 8.63104 5.72325 9.4434C5.75513 9.51624 5.79052 9.58939 5.82687 9.66287C5.86067 9.7303 5.88713 9.80155 5.92316 9.86739H5.92985C6.31565 10.5691 6.91443 11.2691 7.84704 11.773C8.2169 11.9727 8.46527 12.1413 8.63171 12.2758L4.14084 13.6346C4.11406 13.6203 4.09875 13.6127 4.07197 13.5984L3.56406 11.9272C3.55067 11.8833 3.49264 11.8741 3.46617 11.9116L1.77855 14.328C1.75814 14.3576 1.75209 14.3964 1.76356 14.4305C2.02246 15.2069 2.67194 15.6681 3.51145 15.6681C3.77832 15.6681 4.06623 15.622 4.36754 15.5307L7.88977 14.4651L10.4475 13.6913C10.5505 13.6598 10.6423 13.5923 10.6924 13.4979C10.7791 13.3325 10.8403 13.1566 10.8779 12.9571C10.8814 12.9409 10.8846 12.9244 10.8875 12.9062C10.9376 12.5672 10.8917 12.2272 10.7507 11.8954C10.6991 11.7745 10.6481 11.6686 10.5875 11.5773C10.5243 11.4819 10.436 11.4037 10.3474 11.3324C10.1956 11.21 10.0569 11.1289 9.87806 11.0544C9.72438 10.9905 9.57452 10.918 9.42881 10.8378C9.13898 10.6782 8.86606 10.4879 8.61609 10.2713C8.11423 9.83685 7.70548 9.2974 7.42458 8.69656C7.1373 8.08205 6.98681 7.40742 6.98681 6.7296C6.98681 4.17008 9.08638 2.05426 11.625 2.05426C14.1633 2.05426 16.2625 4.17008 16.2625 6.7296C16.2625 7.41251 16.1098 8.09254 15.8184 8.71024C15.5349 9.31172 15.123 9.85117 14.6183 10.2847C14.4043 10.4682 14.1741 10.633 13.9312 10.7752C13.8074 10.8477 13.6806 10.9145 13.5511 10.9749C13.3856 11.0525 13.2211 11.1082 13.0681 11.2106C12.9163 11.3124 12.7706 11.4298 12.6619 11.5773C12.5968 11.6658 12.5503 11.7745 12.4986 11.8954C12.3577 12.2272 12.3118 12.5672 12.3618 12.9062C12.3647 12.9244 12.3679 12.9409 12.3717 12.9571C12.4093 13.1566 12.4706 13.3328 12.5573 13.4979C12.607 13.5927 12.6992 13.6598 12.8018 13.6913L15.3596 14.4651L18.8821 15.5307C19.1831 15.622 19.471 15.6681 19.7379 15.6681C20.5774 15.6681 21.2269 15.2069 21.4858 14.4305C21.4972 14.3964 21.4912 14.3576 21.4708 14.328" fill="#52DE97"/>
<path fill-rule="evenodd" clip-rule="evenodd" d="M23.0394 18.3971C22.7735 17.9158 22.2879 17.5723 21.596 17.3761L13.9052 15.1947C13.8051 15.1661 13.697 15.1912 13.6199 15.2612L12.8802 15.9288C12.8247 15.9791 12.7523 16.0068 12.6774 16.0068H11.9048H11.6249H11.3453H10.5724C10.4975 16.0068 10.4254 15.9791 10.3696 15.9288L9.63024 15.2612C9.55276 15.1912 9.44499 15.1661 9.34487 15.1947L1.65412 17.3761C0.962235 17.5723 0.476641 17.9158 0.210728 18.3971C-0.00353286 18.7851 -0.0561415 19.2479 0.0608729 19.7072C0.0698005 19.7422 0.0959454 19.7711 0.129424 19.7848L2.8587 20.9067C2.9011 20.9238 2.9451 20.8847 2.93235 20.8408L2.45377 19.1608C2.44548 19.1318 2.46238 19.1013 2.49171 19.093L7.5549 17.6566C7.61708 17.6391 7.6598 17.718 7.61102 17.7603L3.75081 21.093C3.20687 21.5625 2.91226 22.0788 2.87496 22.6271C2.84499 23.0689 2.99357 23.5104 3.29455 23.8774C3.31719 23.9054 3.35322 23.921 3.38925 23.9191L6.33789 23.7846C6.3838 23.7827 6.40708 23.7286 6.37679 23.6939L5.23151 22.3736C5.21174 22.3507 5.21429 22.3157 5.23725 22.2963L9.21734 18.8595C9.26612 18.8172 9.3385 18.8707 9.31203 18.9298L7.22554 23.5778C6.93157 24.2327 6.8831 24.8247 7.08174 25.3371C7.24148 25.7499 7.56351 26.0881 7.99171 26.2938C8.02392 26.3094 8.06345 26.3085 8.09534 26.2916L10.7105 24.9265C10.7513 24.9051 10.7494 24.8463 10.7076 24.8279L9.10989 24.1141C9.08215 24.1017 9.06971 24.0692 9.08215 24.0416L11.5697 18.488C11.5911 18.4406 11.659 18.4406 11.6801 18.488L14.168 24.0416C14.1804 24.0692 14.168 24.1017 14.1402 24.1141L12.5425 24.8279C12.5008 24.8463 12.4988 24.9051 12.5397 24.9265L15.1548 26.2916C15.1867 26.3085 15.2259 26.3094 15.2584 26.2938C15.6866 26.0881 16.0083 25.7499 16.1684 25.3371C16.367 24.8247 16.3186 24.2327 16.0246 23.5778L13.9381 18.9298C13.9116 18.8707 13.9837 18.8172 14.0325 18.8595L18.0129 22.2963C18.0358 22.3157 18.0384 22.3507 18.0186 22.3736L16.873 23.6939C16.843 23.7286 16.8663 23.7827 16.9122 23.7846L19.8609 23.9191C19.8969 23.921 19.9329 23.9054 19.9556 23.8774C20.2566 23.5104 20.4051 23.0689 20.3752 22.6271C20.3379 22.0788 20.0432 21.5625 19.4993 21.093L15.6391 17.7603C15.5903 17.718 15.633 17.6391 15.6952 17.6566L20.7584 19.093C20.7877 19.1013 20.8046 19.1318 20.7964 19.1608L20.3175 20.8408C20.305 20.8847 20.349 20.9238 20.3914 20.9067L23.1207 19.7848C23.1542 19.7711 23.18 19.7422 23.1889 19.7072C23.3059 19.2479 23.2537 18.7851 23.0394 18.3971" fill="#52DE97"/>
</g>
</svg>
