<svg width="24" height="25" viewBox="0 0 24 25" fill="none" xmlns="http://www.w3.org/2000/svg">
<mask id="path-1-inside-1_24_7095" fill="white">
<path d="M24 14.5L11.9999 0.5L0 14.5H4V24.5H20V14.5H24Z"/>
</mask>
<path d="M11.9999 0.5L12.7592 -0.150795L11.9999 -1.03659L11.2406 -0.150788L11.9999 0.5ZM24 14.5V15.5H26.1742L24.7593 13.8492L24 14.5ZM0 14.5L-0.759259 13.8492L-2.17421 15.5H0V14.5ZM20 14.5V13.5H19V14.5H20ZM20 24.5V25.5H21V24.5H20ZM4 24.5H3V25.5H4V24.5ZM4 14.5H5V13.5H4V14.5ZM11.2406 1.15079L23.2407 15.1508L24.7593 13.8492L12.7592 -0.150795L11.2406 1.15079ZM0.759259 15.1508L12.7592 1.15079L11.2406 -0.150788L-0.759259 13.8492L0.759259 15.1508ZM24 13.5H20V15.5H24V13.5ZM19 14.5V24.5H21V14.5H19ZM20 23.5H4V25.5H20V23.5ZM0 15.5H4V13.5H0V15.5ZM5 24.5V14.5H3V24.5H5Z" fill="#52DE97" mask="url(#path-1-inside-1_24_7095)"/>
</svg>
