<svg width="623" height="224" viewBox="0 0 623 224" fill="none" xmlns="http://www.w3.org/2000/svg">
<path d="M0 20C0 8.95431 8.95431 0 20 0H623V224H20C8.95429 224 0 215.046 0 204V20Z" fill="white"/>
<path d="M66.75 47H64.02L53.04 30.35V47H50.31V26.06H53.04L64.02 42.68V26.06H66.75V47ZM86.4038 38.15C86.4038 38.67 86.3738 39.22 86.3138 39.8H73.1738C73.2738 41.42 73.8238 42.69 74.8238 43.61C75.8438 44.51 77.0738 44.96 78.5138 44.96C79.6938 44.96 80.6738 44.69 81.4538 44.15C82.2538 43.59 82.8138 42.85 83.1338 41.93H86.0738C85.6338 43.51 84.7538 44.8 83.4338 45.8C82.1138 46.78 80.4738 47.27 78.5138 47.27C76.9538 47.27 75.5538 46.92 74.3138 46.22C73.0938 45.52 72.1338 44.53 71.4338 43.25C70.7338 41.95 70.3838 40.45 70.3838 38.75C70.3838 37.05 70.7238 35.56 71.4038 34.28C72.0838 33 73.0338 32.02 74.2538 31.34C75.4938 30.64 76.9138 30.29 78.5138 30.29C80.0738 30.29 81.4538 30.63 82.6538 31.31C83.8538 31.99 84.7738 32.93 85.4138 34.13C86.0738 35.31 86.4038 36.65 86.4038 38.15ZM83.5838 37.58C83.5838 36.54 83.3538 35.65 82.8938 34.91C82.4338 34.15 81.8038 33.58 81.0038 33.2C80.2238 32.8 79.3538 32.6 78.3938 32.6C77.0138 32.6 75.8338 33.04 74.8538 33.92C73.8938 34.8 73.3438 36.02 73.2038 37.58H83.5838ZM111.907 30.56L106.777 47H103.957L99.9973 33.95L96.0373 47H93.2173L88.0573 30.56H90.8473L94.6273 44.36L98.7073 30.56H101.497L105.487 44.39L109.207 30.56H111.907ZM142.385 30.26C143.665 30.26 144.805 30.53 145.805 31.07C146.805 31.59 147.595 32.38 148.175 33.44C148.755 34.5 149.045 35.79 149.045 37.31V47H146.345V37.7C146.345 36.06 145.935 34.81 145.115 33.95C144.315 33.07 143.225 32.63 141.845 32.63C140.425 32.63 139.295 33.09 138.455 34.01C137.615 34.91 137.195 36.22 137.195 37.94V47H134.495V37.7C134.495 36.06 134.085 34.81 133.265 33.95C132.465 33.07 131.375 32.63 129.995 32.63C128.575 32.63 127.445 33.09 126.605 34.01C125.765 34.91 125.345 36.22 125.345 37.94V47H122.615V30.56H125.345V32.93C125.885 32.07 126.605 31.41 127.505 30.95C128.425 30.49 129.435 30.26 130.535 30.26C131.915 30.26 133.135 30.57 134.195 31.19C135.255 31.81 136.045 32.72 136.565 33.92C137.025 32.76 137.785 31.86 138.845 31.22C139.905 30.58 141.085 30.26 142.385 30.26ZM160.693 47.27C159.153 47.27 157.753 46.92 156.493 46.22C155.253 45.52 154.273 44.53 153.553 43.25C152.853 41.95 152.503 40.45 152.503 38.75C152.503 37.07 152.863 35.59 153.583 34.31C154.323 33.01 155.323 32.02 156.583 31.34C157.843 30.64 159.253 30.29 160.813 30.29C162.373 30.29 163.783 30.64 165.043 31.34C166.303 32.02 167.293 33 168.013 34.28C168.753 35.56 169.123 37.05 169.123 38.75C169.123 40.45 168.743 41.95 167.983 43.25C167.243 44.53 166.233 45.52 164.953 46.22C163.673 46.92 162.253 47.27 160.693 47.27ZM160.693 44.87C161.673 44.87 162.593 44.64 163.453 44.18C164.313 43.72 165.003 43.03 165.523 42.11C166.063 41.19 166.333 40.07 166.333 38.75C166.333 37.43 166.073 36.31 165.553 35.39C165.033 34.47 164.353 33.79 163.513 33.35C162.673 32.89 161.763 32.66 160.783 32.66C159.783 32.66 158.863 32.89 158.023 33.35C157.203 33.79 156.543 34.47 156.043 35.39C155.543 36.31 155.293 37.43 155.293 38.75C155.293 40.09 155.533 41.22 156.013 42.14C156.513 43.06 157.173 43.75 157.993 44.21C158.813 44.65 159.713 44.87 160.693 44.87ZM171.692 38.72C171.692 37.04 172.032 35.57 172.712 34.31C173.392 33.03 174.322 32.04 175.502 31.34C176.702 30.64 178.042 30.29 179.522 30.29C180.802 30.29 181.992 30.59 183.092 31.19C184.192 31.77 185.032 32.54 185.612 33.5V24.8H188.372V47H185.612V43.91C185.072 44.89 184.272 45.7 183.212 46.34C182.152 46.96 180.912 47.27 179.492 47.27C178.032 47.27 176.702 46.91 175.502 46.19C174.322 45.47 173.392 44.46 172.712 43.16C172.032 41.86 171.692 40.38 171.692 38.72ZM185.612 38.75C185.612 37.51 185.362 36.43 184.862 35.51C184.362 34.59 183.682 33.89 182.822 33.41C181.982 32.91 181.052 32.66 180.032 32.66C179.012 32.66 178.082 32.9 177.242 33.38C176.402 33.86 175.732 34.56 175.232 35.48C174.732 36.4 174.482 37.48 174.482 38.72C174.482 39.98 174.732 41.08 175.232 42.02C175.732 42.94 176.402 43.65 177.242 44.15C178.082 44.63 179.012 44.87 180.032 44.87C181.052 44.87 181.982 44.63 182.822 44.15C183.682 43.65 184.362 42.94 184.862 42.02C185.362 41.08 185.612 39.99 185.612 38.75ZM207.986 38.15C207.986 38.67 207.956 39.22 207.896 39.8H194.756C194.856 41.42 195.406 42.69 196.406 43.61C197.426 44.51 198.656 44.96 200.096 44.96C201.276 44.96 202.256 44.69 203.036 44.15C203.836 43.59 204.396 42.85 204.716 41.93H207.656C207.216 43.51 206.336 44.8 205.016 45.8C203.696 46.78 202.056 47.27 200.096 47.27C198.536 47.27 197.136 46.92 195.896 46.22C194.676 45.52 193.716 44.53 193.016 43.25C192.316 41.95 191.966 40.45 191.966 38.75C191.966 37.05 192.306 35.56 192.986 34.28C193.666 33 194.616 32.02 195.836 31.34C197.076 30.64 198.496 30.29 200.096 30.29C201.656 30.29 203.036 30.63 204.236 31.31C205.436 31.99 206.356 32.93 206.996 34.13C207.656 35.31 207.986 36.65 207.986 38.15ZM205.166 37.58C205.166 36.54 204.936 35.65 204.476 34.91C204.016 34.15 203.386 33.58 202.586 33.2C201.806 32.8 200.936 32.6 199.976 32.6C198.596 32.6 197.416 33.04 196.436 33.92C195.476 34.8 194.926 36.02 194.786 37.58H205.166ZM214.319 24.8V47H211.589V24.8H214.319Z" fill="#394253"/>
<path d="M49.78 102.26C50.2333 101.9 50.44 101.733 50.4 101.76C51.7067 100.68 52.7333 99.7933 53.48 99.1C54.24 98.4067 54.88 97.68 55.4 96.92C55.92 96.16 56.18 95.42 56.18 94.7C56.18 94.1533 56.0533 93.7267 55.8 93.42C55.5467 93.1133 55.1667 92.96 54.66 92.96C54.1533 92.96 53.7533 93.1533 53.46 93.54C53.18 93.9133 53.04 94.4467 53.04 95.14H49.74C49.7667 94.0067 50.0067 93.06 50.46 92.3C50.9267 91.54 51.5333 90.98 52.28 90.62C53.04 90.26 53.88 90.08 54.8 90.08C56.3867 90.08 57.58 90.4867 58.38 91.3C59.1933 92.1133 59.6 93.1733 59.6 94.48C59.6 95.9067 59.1133 97.2333 58.14 98.46C57.1667 99.6733 55.9267 100.86 54.42 102.02H59.82V104.8H49.78V102.26ZM65.3458 101.84L63.1258 107.58H60.9458L62.1058 101.84H65.3458ZM67.188 94.52C67.2413 93.0933 67.708 91.9933 68.588 91.22C69.468 90.4467 70.6613 90.06 72.168 90.06C73.168 90.06 74.0213 90.2333 74.728 90.58C75.448 90.9267 75.988 91.4 76.348 92C76.7213 92.6 76.908 93.2733 76.908 94.02C76.908 94.9 76.688 95.62 76.248 96.18C75.808 96.7267 75.2946 97.1 74.708 97.3V97.38C75.468 97.6333 76.068 98.0533 76.508 98.64C76.948 99.2267 77.168 99.98 77.168 100.9C77.168 101.727 76.9746 102.46 76.588 103.1C76.2146 103.727 75.6613 104.22 74.928 104.58C74.208 104.94 73.348 105.12 72.348 105.12C70.748 105.12 69.468 104.727 68.508 103.94C67.5613 103.153 67.0613 101.967 67.008 100.38H70.328C70.3413 100.967 70.508 101.433 70.828 101.78C71.148 102.113 71.6146 102.28 72.228 102.28C72.748 102.28 73.148 102.133 73.428 101.84C73.7213 101.533 73.868 101.133 73.868 100.64C73.868 100 73.6613 99.54 73.248 99.26C72.848 98.9667 72.2013 98.82 71.308 98.82H70.668V96.04H71.308C71.988 96.04 72.5346 95.9267 72.948 95.7C73.3746 95.46 73.588 95.04 73.588 94.44C73.588 93.96 73.4546 93.5867 73.188 93.32C72.9213 93.0533 72.5546 92.92 72.088 92.92C71.5813 92.92 71.2013 93.0733 70.948 93.38C70.708 93.6867 70.568 94.0667 70.528 94.52H67.188ZM79.0573 102.26C79.5107 101.9 79.7173 101.733 79.6773 101.76C80.984 100.68 82.0107 99.7933 82.7573 99.1C83.5173 98.4067 84.1573 97.68 84.6773 96.92C85.1973 96.16 85.4573 95.42 85.4573 94.7C85.4573 94.1533 85.3307 93.7267 85.0773 93.42C84.824 93.1133 84.444 92.96 83.9373 92.96C83.4307 92.96 83.0307 93.1533 82.7373 93.54C82.4573 93.9133 82.3173 94.4467 82.3173 95.14H79.0173C79.044 94.0067 79.284 93.06 79.7373 92.3C80.204 91.54 80.8107 90.98 81.5573 90.62C82.3173 90.26 83.1573 90.08 84.0773 90.08C85.664 90.08 86.8573 90.4867 87.6573 91.3C88.4707 92.1133 88.8773 93.1733 88.8773 94.48C88.8773 95.9067 88.3907 97.2333 87.4173 98.46C86.444 99.6733 85.204 100.86 83.6973 102.02H89.0973V104.8H79.0573V102.26ZM90.6031 97.5C90.6031 95.2067 91.0431 93.4 91.9231 92.08C92.8165 90.76 94.2498 90.1 96.2231 90.1C98.1965 90.1 99.6231 90.76 100.503 92.08C101.396 93.4 101.843 95.2067 101.843 97.5C101.843 99.82 101.396 101.64 100.503 102.96C99.6231 104.28 98.1965 104.94 96.2231 104.94C94.2498 104.94 92.8165 104.28 91.9231 102.96C91.0431 101.64 90.6031 99.82 90.6031 97.5ZM98.4831 97.5C98.4831 96.1533 98.3365 95.12 98.0431 94.4C97.7498 93.6667 97.1431 93.3 96.2231 93.3C95.3031 93.3 94.6965 93.6667 94.4031 94.4C94.1098 95.12 93.9631 96.1533 93.9631 97.5C93.9631 98.4067 94.0165 99.16 94.1231 99.76C94.2298 100.347 94.4431 100.827 94.7631 101.2C95.0965 101.56 95.5831 101.74 96.2231 101.74C96.8631 101.74 97.3431 101.56 97.6631 101.2C97.9965 100.827 98.2165 100.347 98.3231 99.76C98.4298 99.16 98.4831 98.4067 98.4831 97.5Z" fill="#394253"/>
<path d="M58.375 140H57.01L51.52 131.675V140H50.155V129.53H51.52L57.01 137.84V129.53H58.375V140ZM64.2869 140.135C63.5169 140.135 62.8169 139.96 62.1869 139.61C61.5669 139.26 61.0769 138.765 60.7169 138.125C60.3669 137.475 60.1919 136.725 60.1919 135.875C60.1919 135.035 60.3719 134.295 60.7319 133.655C61.1019 133.005 61.6019 132.51 62.2319 132.17C62.8619 131.82 63.5669 131.645 64.3469 131.645C65.1269 131.645 65.8319 131.82 66.4619 132.17C67.0919 132.51 67.5869 133 67.9469 133.64C68.3169 134.28 68.5019 135.025 68.5019 135.875C68.5019 136.725 68.3119 137.475 67.9319 138.125C67.5619 138.765 67.0569 139.26 66.4169 139.61C65.7769 139.96 65.0669 140.135 64.2869 140.135ZM64.2869 138.935C64.7769 138.935 65.2369 138.82 65.6669 138.59C66.0969 138.36 66.4419 138.015 66.7019 137.555C66.9719 137.095 67.1069 136.535 67.1069 135.875C67.1069 135.215 66.9769 134.655 66.7169 134.195C66.4569 133.735 66.1169 133.395 65.6969 133.175C65.2769 132.945 64.8219 132.83 64.3319 132.83C63.8319 132.83 63.3719 132.945 62.9519 133.175C62.5419 133.395 62.2119 133.735 61.9619 134.195C61.7119 134.655 61.5869 135.215 61.5869 135.875C61.5869 136.545 61.7069 137.11 61.9469 137.57C62.1969 138.03 62.5269 138.375 62.9369 138.605C63.3469 138.825 63.7969 138.935 64.2869 138.935ZM70.7316 140.09C70.4716 140.09 70.2516 140 70.0716 139.82C69.8916 139.64 69.8016 139.42 69.8016 139.16C69.8016 138.9 69.8916 138.68 70.0716 138.5C70.2516 138.32 70.4716 138.23 70.7316 138.23C70.9816 138.23 71.1916 138.32 71.3616 138.5C71.5416 138.68 71.6316 138.9 71.6316 139.16C71.6316 139.42 71.5416 139.64 71.3616 139.82C71.1916 140 70.9816 140.09 70.7316 140.09ZM81.03 140.135C80.26 140.135 79.56 139.96 78.93 139.61C78.31 139.26 77.82 138.765 77.46 138.125C77.11 137.475 76.935 136.725 76.935 135.875C76.935 135.035 77.115 134.295 77.475 133.655C77.845 133.005 78.345 132.51 78.975 132.17C79.605 131.82 80.31 131.645 81.09 131.645C81.87 131.645 82.575 131.82 83.205 132.17C83.835 132.51 84.33 133 84.69 133.64C85.06 134.28 85.245 135.025 85.245 135.875C85.245 136.725 85.055 137.475 84.675 138.125C84.305 138.765 83.8 139.26 83.16 139.61C82.52 139.96 81.81 140.135 81.03 140.135ZM81.03 138.935C81.52 138.935 81.98 138.82 82.41 138.59C82.84 138.36 83.185 138.015 83.445 137.555C83.715 137.095 83.85 136.535 83.85 135.875C83.85 135.215 83.72 134.655 83.46 134.195C83.2 133.735 82.86 133.395 82.44 133.175C82.02 132.945 81.565 132.83 81.075 132.83C80.575 132.83 80.115 132.945 79.695 133.175C79.285 133.395 78.955 133.735 78.705 134.195C78.455 134.655 78.33 135.215 78.33 135.875C78.33 136.545 78.45 137.11 78.69 137.57C78.94 138.03 79.27 138.375 79.68 138.605C80.09 138.825 80.54 138.935 81.03 138.935ZM90.3848 132.905H88.6598V140H87.2948V132.905H86.2298V131.78H87.2948V131.195C87.2948 130.275 87.5298 129.605 87.9998 129.185C88.4798 128.755 89.2448 128.54 90.2948 128.54V129.68C89.6948 129.68 89.2698 129.8 89.0198 130.04C88.7798 130.27 88.6598 130.655 88.6598 131.195V131.78H90.3848V132.905ZM95.4653 135.875C95.4653 135.025 95.6353 134.285 95.9753 133.655C96.3153 133.015 96.7853 132.52 97.3853 132.17C97.9953 131.82 98.6903 131.645 99.4703 131.645C100.48 131.645 101.31 131.89 101.96 132.38C102.62 132.87 103.055 133.55 103.265 134.42H101.795C101.655 133.92 101.38 133.525 100.97 133.235C100.57 132.945 100.07 132.8 99.4703 132.8C98.6903 132.8 98.0603 133.07 97.5803 133.61C97.1003 134.14 96.8603 134.895 96.8603 135.875C96.8603 136.865 97.1003 137.63 97.5803 138.17C98.0603 138.71 98.6903 138.98 99.4703 138.98C100.07 138.98 100.57 138.84 100.97 138.56C101.37 138.28 101.645 137.88 101.795 137.36H103.265C103.045 138.2 102.605 138.875 101.945 139.385C101.285 139.885 100.46 140.135 99.4703 140.135C98.6903 140.135 97.9953 139.96 97.3853 139.61C96.7853 139.26 96.3153 138.765 95.9753 138.125C95.6353 137.485 95.4653 136.735 95.4653 135.875ZM106.452 128.9V140H105.087V128.9H106.452ZM116.068 131.78V140H114.703V138.785C114.443 139.205 114.078 139.535 113.608 139.775C113.148 140.005 112.638 140.12 112.078 140.12C111.438 140.12 110.863 139.99 110.353 139.73C109.843 139.46 109.438 139.06 109.138 138.53C108.848 138 108.703 137.355 108.703 136.595V131.78H110.053V136.415C110.053 137.225 110.258 137.85 110.668 138.29C111.078 138.72 111.638 138.935 112.348 138.935C113.078 138.935 113.653 138.71 114.073 138.26C114.493 137.81 114.703 137.155 114.703 136.295V131.78H116.068ZM121.283 140.135C120.653 140.135 120.088 140.03 119.588 139.82C119.088 139.6 118.693 139.3 118.403 138.92C118.113 138.53 117.953 138.085 117.923 137.585H119.333C119.373 137.995 119.563 138.33 119.903 138.59C120.253 138.85 120.708 138.98 121.268 138.98C121.788 138.98 122.198 138.865 122.498 138.635C122.798 138.405 122.948 138.115 122.948 137.765C122.948 137.405 122.788 137.14 122.468 136.97C122.148 136.79 121.653 136.615 120.983 136.445C120.373 136.285 119.873 136.125 119.483 135.965C119.103 135.795 118.773 135.55 118.493 135.23C118.223 134.9 118.088 134.47 118.088 133.94C118.088 133.52 118.213 133.135 118.463 132.785C118.713 132.435 119.068 132.16 119.528 131.96C119.988 131.75 120.513 131.645 121.103 131.645C122.013 131.645 122.748 131.875 123.308 132.335C123.868 132.795 124.168 133.425 124.208 134.225H122.843C122.813 133.795 122.638 133.45 122.318 133.19C122.008 132.93 121.588 132.8 121.058 132.8C120.568 132.8 120.178 132.905 119.888 133.115C119.598 133.325 119.453 133.6 119.453 133.94C119.453 134.21 119.538 134.435 119.708 134.615C119.888 134.785 120.108 134.925 120.368 135.035C120.638 135.135 121.008 135.25 121.478 135.38C122.068 135.54 122.548 135.7 122.918 135.86C123.288 136.01 123.603 136.24 123.863 136.55C124.133 136.86 124.273 137.265 124.283 137.765C124.283 138.215 124.158 138.62 123.908 138.98C123.658 139.34 123.303 139.625 122.843 139.835C122.393 140.035 121.873 140.135 121.283 140.135ZM127.875 132.905V137.75C127.875 138.15 127.96 138.435 128.13 138.605C128.3 138.765 128.595 138.845 129.015 138.845H130.02V140H128.79C128.03 140 127.46 139.825 127.08 139.475C126.7 139.125 126.51 138.55 126.51 137.75V132.905H125.445V131.78H126.51V129.71H127.875V131.78H130.02V132.905H127.875ZM139.174 135.575C139.174 135.835 139.159 136.11 139.129 136.4H132.559C132.609 137.21 132.884 137.845 133.384 138.305C133.894 138.755 134.509 138.98 135.229 138.98C135.819 138.98 136.309 138.845 136.699 138.575C137.099 138.295 137.379 137.925 137.539 137.465H139.009C138.789 138.255 138.349 138.9 137.689 139.4C137.029 139.89 136.209 140.135 135.229 140.135C134.449 140.135 133.749 139.96 133.129 139.61C132.519 139.26 132.039 138.765 131.689 138.125C131.339 137.475 131.164 136.725 131.164 135.875C131.164 135.025 131.334 134.28 131.674 133.64C132.014 133 132.489 132.51 133.099 132.17C133.719 131.82 134.429 131.645 135.229 131.645C136.009 131.645 136.699 131.815 137.299 132.155C137.899 132.495 138.359 132.965 138.679 133.565C139.009 134.155 139.174 134.825 139.174 135.575ZM137.764 135.29C137.764 134.77 137.649 134.325 137.419 133.955C137.189 133.575 136.874 133.29 136.474 133.1C136.084 132.9 135.649 132.8 135.169 132.8C134.479 132.8 133.889 133.02 133.399 133.46C132.919 133.9 132.644 134.51 132.574 135.29H137.764ZM142.34 133.115C142.58 132.645 142.92 132.28 143.36 132.02C143.81 131.76 144.355 131.63 144.995 131.63V133.04H144.635C143.105 133.04 142.34 133.87 142.34 135.53V140H140.975V131.78H142.34V133.115ZM149.481 140.135C148.851 140.135 148.286 140.03 147.786 139.82C147.286 139.6 146.891 139.3 146.601 138.92C146.311 138.53 146.151 138.085 146.121 137.585H147.531C147.571 137.995 147.761 138.33 148.101 138.59C148.451 138.85 148.906 138.98 149.466 138.98C149.986 138.98 150.396 138.865 150.696 138.635C150.996 138.405 151.146 138.115 151.146 137.765C151.146 137.405 150.986 137.14 150.666 136.97C150.346 136.79 149.851 136.615 149.181 136.445C148.571 136.285 148.071 136.125 147.681 135.965C147.301 135.795 146.971 135.55 146.691 135.23C146.421 134.9 146.286 134.47 146.286 133.94C146.286 133.52 146.411 133.135 146.661 132.785C146.911 132.435 147.266 132.16 147.726 131.96C148.186 131.75 148.711 131.645 149.301 131.645C150.211 131.645 150.946 131.875 151.506 132.335C152.066 132.795 152.366 133.425 152.406 134.225H151.041C151.011 133.795 150.836 133.45 150.516 133.19C150.206 132.93 149.786 132.8 149.256 132.8C148.766 132.8 148.376 132.905 148.086 133.115C147.796 133.325 147.651 133.6 147.651 133.94C147.651 134.21 147.736 134.435 147.906 134.615C148.086 134.785 148.306 134.925 148.566 135.035C148.836 135.135 149.206 135.25 149.676 135.38C150.266 135.54 150.746 135.7 151.116 135.86C151.486 136.01 151.801 136.24 152.061 136.55C152.331 136.86 152.471 137.265 152.481 137.765C152.481 138.215 152.356 138.62 152.106 138.98C151.856 139.34 151.501 139.625 151.041 139.835C150.591 140.035 150.071 140.135 149.481 140.135Z" fill="#394253" fill-opacity="0.8"/>
<path d="M49.98 162.4V159.64L56.3 150.6H60.12V159.44H61.76V162.4H60.12V165H56.7V162.4H49.98ZM56.94 154.36L53.58 159.44H56.94V154.36Z" fill="#394253"/>
<path d="M58.375 81H57.01L51.52 72.675V81H50.155V70.53H51.52L57.01 78.84V70.53H58.375V81ZM64.2869 81.135C63.5169 81.135 62.8169 80.96 62.1869 80.61C61.5669 80.26 61.0769 79.765 60.7169 79.125C60.3669 78.475 60.1919 77.725 60.1919 76.875C60.1919 76.035 60.3719 75.295 60.7319 74.655C61.1019 74.005 61.6019 73.51 62.2319 73.17C62.8619 72.82 63.5669 72.645 64.3469 72.645C65.1269 72.645 65.8319 72.82 66.4619 73.17C67.0919 73.51 67.5869 74 67.9469 74.64C68.3169 75.28 68.5019 76.025 68.5019 76.875C68.5019 77.725 68.3119 78.475 67.9319 79.125C67.5619 79.765 67.0569 80.26 66.4169 80.61C65.7769 80.96 65.0669 81.135 64.2869 81.135ZM64.2869 79.935C64.7769 79.935 65.2369 79.82 65.6669 79.59C66.0969 79.36 66.4419 79.015 66.7019 78.555C66.9719 78.095 67.1069 77.535 67.1069 76.875C67.1069 76.215 66.9769 75.655 66.7169 75.195C66.4569 74.735 66.1169 74.395 65.6969 74.175C65.2769 73.945 64.8219 73.83 64.3319 73.83C63.8319 73.83 63.3719 73.945 62.9519 74.175C62.5419 74.395 62.2119 74.735 61.9619 75.195C61.7119 75.655 61.5869 76.215 61.5869 76.875C61.5869 77.545 61.7069 78.11 61.9469 78.57C62.1969 79.03 62.5269 79.375 62.9369 79.605C63.3469 79.825 63.7969 79.935 64.2869 79.935ZM70.7316 81.09C70.4716 81.09 70.2516 81 70.0716 80.82C69.8916 80.64 69.8016 80.42 69.8016 80.16C69.8016 79.9 69.8916 79.68 70.0716 79.5C70.2516 79.32 70.4716 79.23 70.7316 79.23C70.9816 79.23 71.1916 79.32 71.3616 79.5C71.5416 79.68 71.6316 79.9 71.6316 80.16C71.6316 80.42 71.5416 80.64 71.3616 80.82C71.1916 81 70.9816 81.09 70.7316 81.09ZM81.03 81.135C80.26 81.135 79.56 80.96 78.93 80.61C78.31 80.26 77.82 79.765 77.46 79.125C77.11 78.475 76.935 77.725 76.935 76.875C76.935 76.035 77.115 75.295 77.475 74.655C77.845 74.005 78.345 73.51 78.975 73.17C79.605 72.82 80.31 72.645 81.09 72.645C81.87 72.645 82.575 72.82 83.205 73.17C83.835 73.51 84.33 74 84.69 74.64C85.06 75.28 85.245 76.025 85.245 76.875C85.245 77.725 85.055 78.475 84.675 79.125C84.305 79.765 83.8 80.26 83.16 80.61C82.52 80.96 81.81 81.135 81.03 81.135ZM81.03 79.935C81.52 79.935 81.98 79.82 82.41 79.59C82.84 79.36 83.185 79.015 83.445 78.555C83.715 78.095 83.85 77.535 83.85 76.875C83.85 76.215 83.72 75.655 83.46 75.195C83.2 74.735 82.86 74.395 82.44 74.175C82.02 73.945 81.565 73.83 81.075 73.83C80.575 73.83 80.115 73.945 79.695 74.175C79.285 74.395 78.955 74.735 78.705 75.195C78.455 75.655 78.33 76.215 78.33 76.875C78.33 77.545 78.45 78.11 78.69 78.57C78.94 79.03 79.27 79.375 79.68 79.605C80.09 79.825 80.54 79.935 81.03 79.935ZM90.3848 73.905H88.6598V81H87.2948V73.905H86.2298V72.78H87.2948V72.195C87.2948 71.275 87.5298 70.605 87.9998 70.185C88.4798 69.755 89.2448 69.54 90.2948 69.54V70.68C89.6948 70.68 89.2698 70.8 89.0198 71.04C88.7798 71.27 88.6598 71.655 88.6598 72.195V72.78H90.3848V73.905ZM98.8853 81.135C98.2553 81.135 97.6903 81.03 97.1903 80.82C96.6903 80.6 96.2953 80.3 96.0053 79.92C95.7153 79.53 95.5553 79.085 95.5253 78.585H96.9353C96.9753 78.995 97.1653 79.33 97.5053 79.59C97.8553 79.85 98.3103 79.98 98.8703 79.98C99.3903 79.98 99.8003 79.865 100.1 79.635C100.4 79.405 100.55 79.115 100.55 78.765C100.55 78.405 100.39 78.14 100.07 77.97C99.7503 77.79 99.2553 77.615 98.5853 77.445C97.9753 77.285 97.4753 77.125 97.0853 76.965C96.7053 76.795 96.3753 76.55 96.0953 76.23C95.8253 75.9 95.6903 75.47 95.6903 74.94C95.6903 74.52 95.8153 74.135 96.0653 73.785C96.3153 73.435 96.6703 73.16 97.1303 72.96C97.5903 72.75 98.1153 72.645 98.7053 72.645C99.6153 72.645 100.35 72.875 100.91 73.335C101.47 73.795 101.77 74.425 101.81 75.225H100.445C100.415 74.795 100.24 74.45 99.9203 74.19C99.6103 73.93 99.1903 73.8 98.6603 73.8C98.1703 73.8 97.7803 73.905 97.4903 74.115C97.2003 74.325 97.0553 74.6 97.0553 74.94C97.0553 75.21 97.1403 75.435 97.3103 75.615C97.4903 75.785 97.7103 75.925 97.9703 76.035C98.2403 76.135 98.6103 76.25 99.0803 76.38C99.6703 76.54 100.15 76.7 100.52 76.86C100.89 77.01 101.205 77.24 101.465 77.55C101.735 77.86 101.875 78.265 101.885 78.765C101.885 79.215 101.76 79.62 101.51 79.98C101.26 80.34 100.905 80.625 100.445 80.835C99.9953 81.035 99.4753 81.135 98.8853 81.135ZM103.302 76.86C103.302 76.02 103.472 75.285 103.812 74.655C104.152 74.015 104.617 73.52 105.207 73.17C105.807 72.82 106.472 72.645 107.202 72.645C107.922 72.645 108.547 72.8 109.077 73.11C109.607 73.42 110.002 73.81 110.262 74.28V72.78H111.642V81H110.262V79.47C109.992 79.95 109.587 80.35 109.047 80.67C108.517 80.98 107.897 81.135 107.187 81.135C106.457 81.135 105.797 80.955 105.207 80.595C104.617 80.235 104.152 79.73 103.812 79.08C103.472 78.43 103.302 77.69 103.302 76.86ZM110.262 76.875C110.262 76.255 110.137 75.715 109.887 75.255C109.637 74.795 109.297 74.445 108.867 74.205C108.447 73.955 107.982 73.83 107.472 73.83C106.962 73.83 106.497 73.95 106.077 74.19C105.657 74.43 105.322 74.78 105.072 75.24C104.822 75.7 104.697 76.24 104.697 76.86C104.697 77.49 104.822 78.04 105.072 78.51C105.322 78.97 105.657 79.325 106.077 79.575C106.497 79.815 106.962 79.935 107.472 79.935C107.982 79.935 108.447 79.815 108.867 79.575C109.297 79.325 109.637 78.97 109.887 78.51C110.137 78.04 110.262 77.495 110.262 76.875ZM123.834 72.63C124.474 72.63 125.044 72.765 125.544 73.035C126.044 73.295 126.439 73.69 126.729 74.22C127.019 74.75 127.164 75.395 127.164 76.155V81H125.814V76.35C125.814 75.53 125.609 74.905 125.199 74.475C124.799 74.035 124.254 73.815 123.564 73.815C122.854 73.815 122.289 74.045 121.869 74.505C121.449 74.955 121.239 75.61 121.239 76.47V81H119.889V76.35C119.889 75.53 119.684 74.905 119.274 74.475C118.874 74.035 118.329 73.815 117.639 73.815C116.929 73.815 116.364 74.045 115.944 74.505C115.524 74.955 115.314 75.61 115.314 76.47V81H113.949V72.78H115.314V73.965C115.584 73.535 115.944 73.205 116.394 72.975C116.854 72.745 117.359 72.63 117.909 72.63C118.599 72.63 119.209 72.785 119.739 73.095C120.269 73.405 120.664 73.86 120.924 74.46C121.154 73.88 121.534 73.43 122.064 73.11C122.594 72.79 123.184 72.63 123.834 72.63ZM130.768 74.295C131.038 73.825 131.438 73.435 131.968 73.125C132.508 72.805 133.133 72.645 133.843 72.645C134.573 72.645 135.233 72.82 135.823 73.17C136.423 73.52 136.893 74.015 137.233 74.655C137.573 75.285 137.743 76.02 137.743 76.86C137.743 77.69 137.573 78.43 137.233 79.08C136.893 79.73 136.423 80.235 135.823 80.595C135.233 80.955 134.573 81.135 133.843 81.135C133.143 81.135 132.523 80.98 131.983 80.67C131.453 80.35 131.048 79.955 130.768 79.485V84.9H129.403V72.78H130.768V74.295ZM136.348 76.86C136.348 76.24 136.223 75.7 135.973 75.24C135.723 74.78 135.383 74.43 134.953 74.19C134.533 73.95 134.068 73.83 133.558 73.83C133.058 73.83 132.593 73.955 132.163 74.205C131.743 74.445 131.403 74.8 131.143 75.27C130.893 75.73 130.768 76.265 130.768 76.875C130.768 77.495 130.893 78.04 131.143 78.51C131.403 78.97 131.743 79.325 132.163 79.575C132.593 79.815 133.058 79.935 133.558 79.935C134.068 79.935 134.533 79.815 134.953 79.575C135.383 79.325 135.723 78.97 135.973 78.51C136.223 78.04 136.348 77.49 136.348 76.86ZM140.905 69.9V81H139.54V69.9H140.905ZM150.731 76.575C150.731 76.835 150.716 77.11 150.686 77.4H144.116C144.166 78.21 144.441 78.845 144.941 79.305C145.451 79.755 146.066 79.98 146.786 79.98C147.376 79.98 147.866 79.845 148.256 79.575C148.656 79.295 148.936 78.925 149.096 78.465H150.566C150.346 79.255 149.906 79.9 149.246 80.4C148.586 80.89 147.766 81.135 146.786 81.135C146.006 81.135 145.306 80.96 144.686 80.61C144.076 80.26 143.596 79.765 143.246 79.125C142.896 78.475 142.721 77.725 142.721 76.875C142.721 76.025 142.891 75.28 143.231 74.64C143.571 74 144.046 73.51 144.656 73.17C145.276 72.82 145.986 72.645 146.786 72.645C147.566 72.645 148.256 72.815 148.856 73.155C149.456 73.495 149.916 73.965 150.236 74.565C150.566 75.155 150.731 75.825 150.731 76.575ZM149.321 76.29C149.321 75.77 149.206 75.325 148.976 74.955C148.746 74.575 148.431 74.29 148.031 74.1C147.641 73.9 147.206 73.8 146.726 73.8C146.036 73.8 145.446 74.02 144.956 74.46C144.476 74.9 144.201 75.51 144.131 76.29H149.321ZM155.443 81.135C154.813 81.135 154.248 81.03 153.748 80.82C153.248 80.6 152.853 80.3 152.563 79.92C152.273 79.53 152.113 79.085 152.083 78.585H153.493C153.533 78.995 153.723 79.33 154.063 79.59C154.413 79.85 154.868 79.98 155.428 79.98C155.948 79.98 156.358 79.865 156.658 79.635C156.958 79.405 157.108 79.115 157.108 78.765C157.108 78.405 156.948 78.14 156.628 77.97C156.308 77.79 155.813 77.615 155.143 77.445C154.533 77.285 154.033 77.125 153.643 76.965C153.263 76.795 152.933 76.55 152.653 76.23C152.383 75.9 152.248 75.47 152.248 74.94C152.248 74.52 152.373 74.135 152.623 73.785C152.873 73.435 153.228 73.16 153.688 72.96C154.148 72.75 154.673 72.645 155.263 72.645C156.173 72.645 156.908 72.875 157.468 73.335C158.028 73.795 158.328 74.425 158.368 75.225H157.003C156.973 74.795 156.798 74.45 156.478 74.19C156.168 73.93 155.748 73.8 155.218 73.8C154.728 73.8 154.338 73.905 154.048 74.115C153.758 74.325 153.613 74.6 153.613 74.94C153.613 75.21 153.698 75.435 153.868 75.615C154.048 75.785 154.268 75.925 154.528 76.035C154.798 76.135 155.168 76.25 155.638 76.38C156.228 76.54 156.708 76.7 157.078 76.86C157.448 77.01 157.763 77.24 158.023 77.55C158.293 77.86 158.433 78.265 158.443 78.765C158.443 79.215 158.318 79.62 158.068 79.98C157.818 80.34 157.463 80.625 157.003 80.835C156.553 81.035 156.033 81.135 155.443 81.135Z" fill="#394253" fill-opacity="0.8"/>
<path d="M54.772 199L52.614 195.295H51.184V199H50.001V189.939H52.926C53.6107 189.939 54.187 190.056 54.655 190.29C55.1317 190.524 55.487 190.84 55.721 191.239C55.955 191.638 56.072 192.093 56.072 192.604C56.072 193.228 55.89 193.778 55.526 194.255C55.1707 194.732 54.6333 195.048 53.914 195.204L56.189 199H54.772ZM51.184 194.346H52.926C53.5673 194.346 54.0483 194.19 54.369 193.878C54.6897 193.557 54.85 193.133 54.85 192.604C54.85 192.067 54.6897 191.651 54.369 191.356C54.057 191.061 53.576 190.914 52.926 190.914H51.184V194.346ZM64.4102 195.165C64.4102 195.39 64.3972 195.629 64.3712 195.88H58.6772C58.7205 196.582 58.9588 197.132 59.3922 197.531C59.8342 197.921 60.3672 198.116 60.9912 198.116C61.5025 198.116 61.9272 197.999 62.2652 197.765C62.6118 197.522 62.8545 197.202 62.9932 196.803H64.2672C64.0765 197.488 63.6952 198.047 63.1232 198.48C62.5512 198.905 61.8405 199.117 60.9912 199.117C60.3152 199.117 59.7085 198.965 59.1712 198.662C58.6425 198.359 58.2265 197.93 57.9232 197.375C57.6198 196.812 57.4682 196.162 57.4682 195.425C57.4682 194.688 57.6155 194.043 57.9102 193.488C58.2048 192.933 58.6165 192.509 59.1452 192.214C59.6825 191.911 60.2978 191.759 60.9912 191.759C61.6672 191.759 62.2652 191.906 62.7852 192.201C63.3052 192.496 63.7038 192.903 63.9812 193.423C64.2672 193.934 64.4102 194.515 64.4102 195.165ZM63.1882 194.918C63.1882 194.467 63.0885 194.082 62.8892 193.761C62.6898 193.432 62.4168 193.185 62.0702 193.02C61.7322 192.847 61.3552 192.76 60.9392 192.76C60.3412 192.76 59.8298 192.951 59.4052 193.332C58.9892 193.713 58.7508 194.242 58.6902 194.918H63.1882ZM65.5297 195.425C65.5297 194.688 65.677 194.047 65.9717 193.501C66.2664 192.946 66.6737 192.517 67.1937 192.214C67.7224 191.911 68.3247 191.759 69.0007 191.759C69.876 191.759 70.5954 191.971 71.1587 192.396C71.7307 192.821 72.1077 193.41 72.2897 194.164H71.0157C70.8944 193.731 70.656 193.388 70.3007 193.137C69.954 192.886 69.5207 192.76 69.0007 192.76C68.3247 192.76 67.7787 192.994 67.3627 193.462C66.9467 193.921 66.7387 194.576 66.7387 195.425C66.7387 196.283 66.9467 196.946 67.3627 197.414C67.7787 197.882 68.3247 198.116 69.0007 198.116C69.5207 198.116 69.954 197.995 70.3007 197.752C70.6474 197.509 70.8857 197.163 71.0157 196.712H72.2897C72.099 197.44 71.7177 198.025 71.1457 198.467C70.5737 198.9 69.8587 199.117 69.0007 199.117C68.3247 199.117 67.7224 198.965 67.1937 198.662C66.6737 198.359 66.2664 197.93 65.9717 197.375C65.677 196.82 65.5297 196.17 65.5297 195.425ZM76.9752 199.117C76.3079 199.117 75.7012 198.965 75.1552 198.662C74.6179 198.359 74.1932 197.93 73.8812 197.375C73.5779 196.812 73.4262 196.162 73.4262 195.425C73.4262 194.697 73.5822 194.056 73.8942 193.501C74.2149 192.938 74.6482 192.509 75.1942 192.214C75.7402 191.911 76.3512 191.759 77.0272 191.759C77.7032 191.759 78.3142 191.911 78.8602 192.214C79.4062 192.509 79.8352 192.933 80.1472 193.488C80.4679 194.043 80.6282 194.688 80.6282 195.425C80.6282 196.162 80.4635 196.812 80.1342 197.375C79.8135 197.93 79.3759 198.359 78.8212 198.662C78.2665 198.965 77.6512 199.117 76.9752 199.117ZM76.9752 198.077C77.3999 198.077 77.7985 197.977 78.1712 197.778C78.5439 197.579 78.8429 197.28 79.0682 196.881C79.3022 196.482 79.4192 195.997 79.4192 195.425C79.4192 194.853 79.3065 194.368 79.0812 193.969C78.8559 193.57 78.5612 193.276 78.1972 193.085C77.8332 192.886 77.4389 192.786 77.0142 192.786C76.5809 192.786 76.1822 192.886 75.8182 193.085C75.4629 193.276 75.1769 193.57 74.9602 193.969C74.7435 194.368 74.6352 194.853 74.6352 195.425C74.6352 196.006 74.7392 196.495 74.9472 196.894C75.1639 197.293 75.4499 197.592 75.8052 197.791C76.1605 197.982 76.5505 198.077 76.9752 198.077ZM90.7506 191.746C91.3053 191.746 91.7993 191.863 92.2326 192.097C92.666 192.322 93.0083 192.665 93.2596 193.124C93.511 193.583 93.6366 194.142 93.6366 194.801V199H92.4666V194.97C92.4666 194.259 92.289 193.718 91.9336 193.345C91.587 192.964 91.1146 192.773 90.5166 192.773C89.9013 192.773 89.4116 192.972 89.0476 193.371C88.6836 193.761 88.5016 194.329 88.5016 195.074V199H87.3316V194.97C87.3316 194.259 87.154 193.718 86.7986 193.345C86.452 192.964 85.9796 192.773 85.3816 192.773C84.7663 192.773 84.2766 192.972 83.9126 193.371C83.5486 193.761 83.3666 194.329 83.3666 195.074V199H82.1836V191.876H83.3666V192.903C83.6006 192.53 83.9126 192.244 84.3026 192.045C84.7013 191.846 85.139 191.746 85.6156 191.746C86.2136 191.746 86.7423 191.88 87.2016 192.149C87.661 192.418 88.0033 192.812 88.2286 193.332C88.428 192.829 88.7573 192.439 89.2166 192.162C89.676 191.885 90.1873 191.746 90.7506 191.746ZM104.144 191.746C104.699 191.746 105.193 191.863 105.626 192.097C106.06 192.322 106.402 192.665 106.653 193.124C106.905 193.583 107.03 194.142 107.03 194.801V199H105.86V194.97C105.86 194.259 105.683 193.718 105.327 193.345C104.981 192.964 104.508 192.773 103.91 192.773C103.295 192.773 102.805 192.972 102.441 193.371C102.077 193.761 101.895 194.329 101.895 195.074V199H100.725V194.97C100.725 194.259 100.548 193.718 100.192 193.345C99.8455 192.964 99.3732 192.773 98.7752 192.773C98.1598 192.773 97.6702 192.972 97.3062 193.371C96.9422 193.761 96.7602 194.329 96.7602 195.074V199H95.5772V191.876H96.7602V192.903C96.9942 192.53 97.3062 192.244 97.6962 192.045C98.0948 191.846 98.5325 191.746 99.0092 191.746C99.6072 191.746 100.136 191.88 100.595 192.149C101.055 192.418 101.397 192.812 101.622 193.332C101.822 192.829 102.151 192.439 102.61 192.162C103.07 191.885 103.581 191.746 104.144 191.746ZM115.471 195.165C115.471 195.39 115.458 195.629 115.432 195.88H109.738C109.781 196.582 110.019 197.132 110.453 197.531C110.895 197.921 111.428 198.116 112.052 198.116C112.563 198.116 112.988 197.999 113.326 197.765C113.672 197.522 113.915 197.202 114.054 196.803H115.328C115.137 197.488 114.756 198.047 114.184 198.48C113.612 198.905 112.901 199.117 112.052 199.117C111.376 199.117 110.769 198.965 110.232 198.662C109.703 198.359 109.287 197.93 108.984 197.375C108.68 196.812 108.529 196.162 108.529 195.425C108.529 194.688 108.676 194.043 108.971 193.488C109.265 192.933 109.677 192.509 110.206 192.214C110.743 191.911 111.358 191.759 112.052 191.759C112.728 191.759 113.326 191.906 113.846 192.201C114.366 192.496 114.764 192.903 115.042 193.423C115.328 193.934 115.471 194.515 115.471 195.165ZM114.249 194.918C114.249 194.467 114.149 194.082 113.95 193.761C113.75 193.432 113.477 193.185 113.131 193.02C112.793 192.847 112.416 192.76 112 192.76C111.402 192.76 110.89 192.951 110.466 193.332C110.05 193.713 109.811 194.242 109.751 194.918H114.249ZM120.503 191.746C121.37 191.746 122.072 192.01 122.609 192.539C123.147 193.059 123.415 193.813 123.415 194.801V199H122.245V194.97C122.245 194.259 122.068 193.718 121.712 193.345C121.357 192.964 120.872 192.773 120.256 192.773C119.632 192.773 119.134 192.968 118.761 193.358C118.397 193.748 118.215 194.316 118.215 195.061V199H117.032V191.876H118.215V192.89C118.449 192.526 118.766 192.244 119.164 192.045C119.572 191.846 120.018 191.746 120.503 191.746ZM124.906 195.412C124.906 194.684 125.053 194.047 125.348 193.501C125.642 192.946 126.045 192.517 126.557 192.214C127.077 191.911 127.657 191.759 128.299 191.759C128.853 191.759 129.369 191.889 129.846 192.149C130.322 192.4 130.686 192.734 130.938 193.15V189.38H132.134V199H130.938V197.661C130.704 198.086 130.357 198.437 129.898 198.714C129.438 198.983 128.901 199.117 128.286 199.117C127.653 199.117 127.077 198.961 126.557 198.649C126.045 198.337 125.642 197.899 125.348 197.336C125.053 196.773 124.906 196.131 124.906 195.412ZM130.938 195.425C130.938 194.888 130.829 194.42 130.613 194.021C130.396 193.622 130.101 193.319 129.729 193.111C129.365 192.894 128.962 192.786 128.52 192.786C128.078 192.786 127.675 192.89 127.311 193.098C126.947 193.306 126.656 193.609 126.44 194.008C126.223 194.407 126.115 194.875 126.115 195.412C126.115 195.958 126.223 196.435 126.44 196.842C126.656 197.241 126.947 197.548 127.311 197.765C127.675 197.973 128.078 198.077 128.52 198.077C128.962 198.077 129.365 197.973 129.729 197.765C130.101 197.548 130.396 197.241 130.613 196.842C130.829 196.435 130.938 195.962 130.938 195.425ZM140.633 195.165C140.633 195.39 140.62 195.629 140.594 195.88H134.9C134.943 196.582 135.182 197.132 135.615 197.531C136.057 197.921 136.59 198.116 137.214 198.116C137.725 198.116 138.15 197.999 138.488 197.765C138.835 197.522 139.077 197.202 139.216 196.803H140.49C140.299 197.488 139.918 198.047 139.346 198.48C138.774 198.905 138.063 199.117 137.214 199.117C136.538 199.117 135.931 198.965 135.394 198.662C134.865 198.359 134.449 197.93 134.146 197.375C133.843 196.812 133.691 196.162 133.691 195.425C133.691 194.688 133.838 194.043 134.133 193.488C134.428 192.933 134.839 192.509 135.368 192.214C135.905 191.911 136.521 191.759 137.214 191.759C137.89 191.759 138.488 191.906 139.008 192.201C139.528 192.496 139.927 192.903 140.204 193.423C140.49 193.934 140.633 194.515 140.633 195.165ZM139.411 194.918C139.411 194.467 139.311 194.082 139.112 193.761C138.913 193.432 138.64 193.185 138.293 193.02C137.955 192.847 137.578 192.76 137.162 192.76C136.564 192.76 136.053 192.951 135.628 193.332C135.212 193.713 134.974 194.242 134.913 194.918H139.411ZM141.752 195.412C141.752 194.684 141.9 194.047 142.194 193.501C142.489 192.946 142.892 192.517 143.403 192.214C143.923 191.911 144.504 191.759 145.145 191.759C145.7 191.759 146.216 191.889 146.692 192.149C147.169 192.4 147.533 192.734 147.784 193.15V189.38H148.98V199H147.784V197.661C147.55 198.086 147.204 198.437 146.744 198.714C146.285 198.983 145.748 199.117 145.132 199.117C144.5 199.117 143.923 198.961 143.403 198.649C142.892 198.337 142.489 197.899 142.194 197.336C141.9 196.773 141.752 196.131 141.752 195.412ZM147.784 195.425C147.784 194.888 147.676 194.42 147.459 194.021C147.243 193.622 146.948 193.319 146.575 193.111C146.211 192.894 145.808 192.786 145.366 192.786C144.924 192.786 144.521 192.89 144.157 193.098C143.793 193.306 143.503 193.609 143.286 194.008C143.07 194.407 142.961 194.875 142.961 195.412C142.961 195.958 143.07 196.435 143.286 196.842C143.503 197.241 143.793 197.548 144.157 197.765C144.521 197.973 144.924 198.077 145.366 198.077C145.808 198.077 146.211 197.973 146.575 197.765C146.948 197.548 147.243 197.241 147.459 196.842C147.676 196.435 147.784 195.962 147.784 195.425Z" fill="#394253" fill-opacity="0.8"/>
<path d="M175.874 199.091C175.276 199.091 174.739 198.987 174.262 198.779C173.794 198.562 173.426 198.268 173.157 197.895C172.888 197.514 172.75 197.076 172.741 196.582H174.002C174.045 197.007 174.219 197.366 174.522 197.661C174.834 197.947 175.285 198.09 175.874 198.09C176.437 198.09 176.879 197.951 177.2 197.674C177.529 197.388 177.694 197.024 177.694 196.582C177.694 196.235 177.599 195.954 177.408 195.737C177.217 195.52 176.979 195.356 176.693 195.243C176.407 195.13 176.021 195.009 175.536 194.879C174.938 194.723 174.457 194.567 174.093 194.411C173.738 194.255 173.43 194.012 173.17 193.683C172.919 193.345 172.793 192.894 172.793 192.331C172.793 191.837 172.919 191.399 173.17 191.018C173.421 190.637 173.772 190.342 174.223 190.134C174.682 189.926 175.207 189.822 175.796 189.822C176.645 189.822 177.339 190.034 177.876 190.459C178.422 190.884 178.73 191.447 178.799 192.149H177.499C177.456 191.802 177.274 191.499 176.953 191.239C176.632 190.97 176.208 190.836 175.679 190.836C175.185 190.836 174.782 190.966 174.47 191.226C174.158 191.477 174.002 191.833 174.002 192.292C174.002 192.621 174.093 192.89 174.275 193.098C174.466 193.306 174.695 193.466 174.964 193.579C175.241 193.683 175.627 193.804 176.121 193.943C176.719 194.108 177.2 194.272 177.564 194.437C177.928 194.593 178.24 194.84 178.5 195.178C178.76 195.507 178.89 195.958 178.89 196.53C178.89 196.972 178.773 197.388 178.539 197.778C178.305 198.168 177.958 198.484 177.499 198.727C177.04 198.97 176.498 199.091 175.874 199.091ZM186.949 191.876V199H185.766V197.947C185.541 198.311 185.224 198.597 184.817 198.805C184.418 199.004 183.976 199.104 183.491 199.104C182.936 199.104 182.438 198.991 181.996 198.766C181.554 198.532 181.203 198.185 180.943 197.726C180.692 197.267 180.566 196.708 180.566 196.049V191.876H181.736V195.893C181.736 196.595 181.914 197.137 182.269 197.518C182.624 197.891 183.11 198.077 183.725 198.077C184.358 198.077 184.856 197.882 185.22 197.492C185.584 197.102 185.766 196.534 185.766 195.789V191.876H186.949ZM190.129 193.189C190.363 192.782 190.71 192.444 191.169 192.175C191.637 191.898 192.179 191.759 192.794 191.759C193.427 191.759 193.999 191.911 194.51 192.214C195.03 192.517 195.438 192.946 195.732 193.501C196.027 194.047 196.174 194.684 196.174 195.412C196.174 196.131 196.027 196.773 195.732 197.336C195.438 197.899 195.03 198.337 194.51 198.649C193.999 198.961 193.427 199.117 192.794 199.117C192.188 199.117 191.65 198.983 191.182 198.714C190.723 198.437 190.372 198.094 190.129 197.687V202.38H188.946V191.876H190.129V193.189ZM194.965 195.412C194.965 194.875 194.857 194.407 194.64 194.008C194.424 193.609 194.129 193.306 193.756 193.098C193.392 192.89 192.989 192.786 192.547 192.786C192.114 192.786 191.711 192.894 191.338 193.111C190.974 193.319 190.68 193.627 190.454 194.034C190.238 194.433 190.129 194.896 190.129 195.425C190.129 195.962 190.238 196.435 190.454 196.842C190.68 197.241 190.974 197.548 191.338 197.765C191.711 197.973 192.114 198.077 192.547 198.077C192.989 198.077 193.392 197.973 193.756 197.765C194.129 197.548 194.424 197.241 194.64 196.842C194.857 196.435 194.965 195.958 194.965 195.412ZM204.231 195.165C204.231 195.39 204.218 195.629 204.192 195.88H198.498C198.542 196.582 198.78 197.132 199.213 197.531C199.655 197.921 200.188 198.116 200.812 198.116C201.324 198.116 201.748 197.999 202.086 197.765C202.433 197.522 202.676 197.202 202.814 196.803H204.088C203.898 197.488 203.516 198.047 202.944 198.48C202.372 198.905 201.662 199.117 200.812 199.117C200.136 199.117 199.53 198.965 198.992 198.662C198.464 198.359 198.048 197.93 197.744 197.375C197.441 196.812 197.289 196.162 197.289 195.425C197.289 194.688 197.437 194.043 197.731 193.488C198.026 192.933 198.438 192.509 198.966 192.214C199.504 191.911 200.119 191.759 200.812 191.759C201.488 191.759 202.086 191.906 202.606 192.201C203.126 192.496 203.525 192.903 203.802 193.423C204.088 193.934 204.231 194.515 204.231 195.165ZM203.009 194.918C203.009 194.467 202.91 194.082 202.71 193.761C202.511 193.432 202.238 193.185 201.891 193.02C201.553 192.847 201.176 192.76 200.76 192.76C200.162 192.76 199.651 192.951 199.226 193.332C198.81 193.713 198.572 194.242 198.511 194.918H203.009ZM206.976 193.033C207.184 192.626 207.479 192.309 207.86 192.084C208.25 191.859 208.722 191.746 209.277 191.746V192.968H208.965C207.639 192.968 206.976 193.687 206.976 195.126V199H205.793V191.876H206.976V193.033ZM213.295 197.908L215.505 191.876H216.766L213.971 199H212.593L209.798 191.876H211.072L213.295 197.908ZM218.541 190.719C218.315 190.719 218.125 190.641 217.969 190.485C217.813 190.329 217.735 190.138 217.735 189.913C217.735 189.688 217.813 189.497 217.969 189.341C218.125 189.185 218.315 189.107 218.541 189.107C218.757 189.107 218.939 189.185 219.087 189.341C219.243 189.497 219.321 189.688 219.321 189.913C219.321 190.138 219.243 190.329 219.087 190.485C218.939 190.641 218.757 190.719 218.541 190.719ZM219.113 191.876V199H217.93V191.876H219.113ZM223.651 199.117C223.105 199.117 222.615 199.026 222.182 198.844C221.749 198.653 221.406 198.393 221.155 198.064C220.904 197.726 220.765 197.34 220.739 196.907H221.961C221.996 197.262 222.16 197.553 222.455 197.778C222.758 198.003 223.153 198.116 223.638 198.116C224.089 198.116 224.444 198.016 224.704 197.817C224.964 197.618 225.094 197.366 225.094 197.063C225.094 196.751 224.955 196.521 224.678 196.374C224.401 196.218 223.972 196.066 223.391 195.919C222.862 195.78 222.429 195.642 222.091 195.503C221.762 195.356 221.476 195.143 221.233 194.866C220.999 194.58 220.882 194.207 220.882 193.748C220.882 193.384 220.99 193.05 221.207 192.747C221.424 192.444 221.731 192.205 222.13 192.032C222.529 191.85 222.984 191.759 223.495 191.759C224.284 191.759 224.921 191.958 225.406 192.357C225.891 192.756 226.151 193.302 226.186 193.995H225.003C224.977 193.622 224.825 193.323 224.548 193.098C224.279 192.873 223.915 192.76 223.456 192.76C223.031 192.76 222.693 192.851 222.442 193.033C222.191 193.215 222.065 193.453 222.065 193.748C222.065 193.982 222.139 194.177 222.286 194.333C222.442 194.48 222.633 194.602 222.858 194.697C223.092 194.784 223.413 194.883 223.82 194.996C224.331 195.135 224.747 195.273 225.068 195.412C225.389 195.542 225.662 195.741 225.887 196.01C226.121 196.279 226.242 196.63 226.251 197.063C226.251 197.453 226.143 197.804 225.926 198.116C225.709 198.428 225.402 198.675 225.003 198.857C224.613 199.03 224.162 199.117 223.651 199.117ZM234.421 195.165C234.421 195.39 234.408 195.629 234.382 195.88H228.688C228.731 196.582 228.97 197.132 229.403 197.531C229.845 197.921 230.378 198.116 231.002 198.116C231.513 198.116 231.938 197.999 232.276 197.765C232.623 197.522 232.865 197.202 233.004 196.803H234.278C234.087 197.488 233.706 198.047 233.134 198.48C232.562 198.905 231.851 199.117 231.002 199.117C230.326 199.117 229.719 198.965 229.182 198.662C228.653 198.359 228.237 197.93 227.934 197.375C227.631 196.812 227.479 196.162 227.479 195.425C227.479 194.688 227.626 194.043 227.921 193.488C228.216 192.933 228.627 192.509 229.156 192.214C229.693 191.911 230.309 191.759 231.002 191.759C231.678 191.759 232.276 191.906 232.796 192.201C233.316 192.496 233.715 192.903 233.992 193.423C234.278 193.934 234.421 194.515 234.421 195.165ZM233.199 194.918C233.199 194.467 233.099 194.082 232.9 193.761C232.701 193.432 232.428 193.185 232.081 193.02C231.743 192.847 231.366 192.76 230.95 192.76C230.352 192.76 229.841 192.951 229.416 193.332C229 193.713 228.762 194.242 228.701 194.918H233.199ZM235.54 195.412C235.54 194.684 235.688 194.047 235.982 193.501C236.277 192.946 236.68 192.517 237.191 192.214C237.711 191.911 238.292 191.759 238.933 191.759C239.488 191.759 240.004 191.889 240.48 192.149C240.957 192.4 241.321 192.734 241.572 193.15V189.38H242.768V199H241.572V197.661C241.338 198.086 240.992 198.437 240.532 198.714C240.073 198.983 239.536 199.117 238.92 199.117C238.288 199.117 237.711 198.961 237.191 198.649C236.68 198.337 236.277 197.899 235.982 197.336C235.688 196.773 235.54 196.131 235.54 195.412ZM241.572 195.425C241.572 194.888 241.464 194.42 241.247 194.021C241.031 193.622 240.736 193.319 240.363 193.111C239.999 192.894 239.596 192.786 239.154 192.786C238.712 192.786 238.309 192.89 237.945 193.098C237.581 193.306 237.291 193.609 237.074 194.008C236.858 194.407 236.749 194.875 236.749 195.412C236.749 195.958 236.858 196.435 237.074 196.842C237.291 197.241 237.581 197.548 237.945 197.765C238.309 197.973 238.712 198.077 239.154 198.077C239.596 198.077 239.999 197.973 240.363 197.765C240.736 197.548 241.031 197.241 241.247 196.842C241.464 196.435 241.572 195.962 241.572 195.425ZM249.708 193.735V194.736H244.521V193.735H249.708ZM258.428 195.165C258.428 195.39 258.415 195.629 258.389 195.88H252.695C252.738 196.582 252.976 197.132 253.41 197.531C253.852 197.921 254.385 198.116 255.009 198.116C255.52 198.116 255.945 197.999 256.283 197.765C256.629 197.522 256.872 197.202 257.011 196.803H258.285C258.094 197.488 257.713 198.047 257.141 198.48C256.569 198.905 255.858 199.117 255.009 199.117C254.333 199.117 253.726 198.965 253.189 198.662C252.66 198.359 252.244 197.93 251.941 197.375C251.637 196.812 251.486 196.162 251.486 195.425C251.486 194.688 251.633 194.043 251.928 193.488C252.222 192.933 252.634 192.509 253.163 192.214C253.7 191.911 254.315 191.759 255.009 191.759C255.685 191.759 256.283 191.906 256.803 192.201C257.323 192.496 257.721 192.903 257.999 193.423C258.285 193.934 258.428 194.515 258.428 195.165ZM257.206 194.918C257.206 194.467 257.106 194.082 256.907 193.761C256.707 193.432 256.434 193.185 256.088 193.02C255.75 192.847 255.373 192.76 254.957 192.76C254.359 192.76 253.847 192.951 253.423 193.332C253.007 193.713 252.768 194.242 252.708 194.918H257.206ZM262.888 192.851H261.393V199H260.21V192.851H259.287V191.876H260.21V191.369C260.21 190.572 260.414 189.991 260.821 189.627C261.237 189.254 261.9 189.068 262.81 189.068V190.056C262.29 190.056 261.922 190.16 261.705 190.368C261.497 190.567 261.393 190.901 261.393 191.369V191.876H262.888V192.851ZM263.826 195.412C263.826 194.684 263.973 194.047 264.268 193.501C264.562 192.946 264.965 192.517 265.477 192.214C265.997 191.911 266.577 191.759 267.219 191.759C267.773 191.759 268.289 191.889 268.766 192.149C269.242 192.4 269.606 192.734 269.858 193.15V189.38H271.054V199H269.858V197.661C269.624 198.086 269.277 198.437 268.818 198.714C268.358 198.983 267.821 199.117 267.206 199.117C266.573 199.117 265.997 198.961 265.477 198.649C264.965 198.337 264.562 197.899 264.268 197.336C263.973 196.773 263.826 196.131 263.826 195.412ZM269.858 195.425C269.858 194.888 269.749 194.42 269.533 194.021C269.316 193.622 269.021 193.319 268.649 193.111C268.285 192.894 267.882 192.786 267.44 192.786C266.998 192.786 266.595 192.89 266.231 193.098C265.867 193.306 265.576 193.609 265.36 194.008C265.143 194.407 265.035 194.875 265.035 195.412C265.035 195.958 265.143 196.435 265.36 196.842C265.576 197.241 265.867 197.548 266.231 197.765C266.595 197.973 266.998 198.077 267.44 198.077C267.882 198.077 268.285 197.973 268.649 197.765C269.021 197.548 269.316 197.241 269.533 196.842C269.749 196.435 269.858 195.962 269.858 195.425ZM277.993 193.735V194.736H272.806V193.735H277.993ZM279.771 195.412C279.771 194.684 279.918 194.047 280.213 193.501C280.508 192.946 280.911 192.517 281.422 192.214C281.942 191.911 282.523 191.759 283.164 191.759C283.719 191.759 284.234 191.889 284.711 192.149C285.188 192.4 285.552 192.734 285.803 193.15V189.38H286.999V199H285.803V197.661C285.569 198.086 285.222 198.437 284.763 198.714C284.304 198.983 283.766 199.117 283.151 199.117C282.518 199.117 281.942 198.961 281.422 198.649C280.911 198.337 280.508 197.899 280.213 197.336C279.918 196.773 279.771 196.131 279.771 195.412ZM285.803 195.425C285.803 194.888 285.695 194.42 285.478 194.021C285.261 193.622 284.967 193.319 284.594 193.111C284.23 192.894 283.827 192.786 283.385 192.786C282.943 192.786 282.54 192.89 282.176 193.098C281.812 193.306 281.522 193.609 281.305 194.008C281.088 194.407 280.98 194.875 280.98 195.412C280.98 195.958 281.088 196.435 281.305 196.842C281.522 197.241 281.812 197.548 282.176 197.765C282.54 197.973 282.943 198.077 283.385 198.077C283.827 198.077 284.23 197.973 284.594 197.765C284.967 197.548 285.261 197.241 285.478 196.842C285.695 196.435 285.803 195.962 285.803 195.425ZM288.556 195.412C288.556 194.684 288.703 194.047 288.998 193.501C289.293 192.946 289.696 192.517 290.207 192.214C290.727 191.911 291.303 191.759 291.936 191.759C292.56 191.759 293.102 191.893 293.561 192.162C294.02 192.431 294.363 192.769 294.588 193.176V191.876H295.784V199H294.588V197.674C294.354 198.09 294.003 198.437 293.535 198.714C293.076 198.983 292.538 199.117 291.923 199.117C291.29 199.117 290.718 198.961 290.207 198.649C289.696 198.337 289.293 197.899 288.998 197.336C288.703 196.773 288.556 196.131 288.556 195.412ZM294.588 195.425C294.588 194.888 294.48 194.42 294.263 194.021C294.046 193.622 293.752 193.319 293.379 193.111C293.015 192.894 292.612 192.786 292.17 192.786C291.728 192.786 291.325 192.89 290.961 193.098C290.597 193.306 290.307 193.609 290.09 194.008C289.873 194.407 289.765 194.875 289.765 195.412C289.765 195.958 289.873 196.435 290.09 196.842C290.307 197.241 290.597 197.548 290.961 197.765C291.325 197.973 291.728 198.077 292.17 198.077C292.612 198.077 293.015 197.973 293.379 197.765C293.752 197.548 294.046 197.241 294.263 196.842C294.48 196.435 294.588 195.962 294.588 195.425ZM299.226 192.851V197.05C299.226 197.397 299.3 197.644 299.447 197.791C299.595 197.93 299.85 197.999 300.214 197.999H301.085V199H300.019C299.361 199 298.867 198.848 298.537 198.545C298.208 198.242 298.043 197.743 298.043 197.05V192.851H297.12V191.876H298.043V190.082H299.226V191.876H301.085V192.851H299.226ZM302.077 195.412C302.077 194.684 302.224 194.047 302.519 193.501C302.813 192.946 303.216 192.517 303.728 192.214C304.248 191.911 304.824 191.759 305.457 191.759C306.081 191.759 306.622 191.893 307.082 192.162C307.541 192.431 307.883 192.769 308.109 193.176V191.876H309.305V199H308.109V197.674C307.875 198.09 307.524 198.437 307.056 198.714C306.596 198.983 306.059 199.117 305.444 199.117C304.811 199.117 304.239 198.961 303.728 198.649C303.216 198.337 302.813 197.899 302.519 197.336C302.224 196.773 302.077 196.131 302.077 195.412ZM308.109 195.425C308.109 194.888 308 194.42 307.784 194.021C307.567 193.622 307.272 193.319 306.9 193.111C306.536 192.894 306.133 192.786 305.691 192.786C305.249 192.786 304.846 192.89 304.482 193.098C304.118 193.306 303.827 193.609 303.611 194.008C303.394 194.407 303.286 194.875 303.286 195.412C303.286 195.958 303.394 196.435 303.611 196.842C303.827 197.241 304.118 197.548 304.482 197.765C304.846 197.973 305.249 198.077 305.691 198.077C306.133 198.077 306.536 197.973 306.9 197.765C307.272 197.548 307.567 197.241 307.784 196.842C308 196.435 308.109 195.962 308.109 195.425ZM316.244 193.735V194.736H311.057V193.735H316.244ZM322.442 199L319.647 195.854V199H318.464V189.38H319.647V195.035L322.39 191.876H324.041L320.687 195.425L324.054 199H322.442ZM326.337 193.189C326.571 192.782 326.918 192.444 327.377 192.175C327.845 191.898 328.387 191.759 329.002 191.759C329.635 191.759 330.207 191.911 330.718 192.214C331.238 192.517 331.646 192.946 331.94 193.501C332.235 194.047 332.382 194.684 332.382 195.412C332.382 196.131 332.235 196.773 331.94 197.336C331.646 197.899 331.238 198.337 330.718 198.649C330.207 198.961 329.635 199.117 329.002 199.117C328.396 199.117 327.858 198.983 327.39 198.714C326.931 198.437 326.58 198.094 326.337 197.687V202.38H325.154V191.876H326.337V193.189ZM331.173 195.412C331.173 194.875 331.065 194.407 330.848 194.008C330.632 193.609 330.337 193.306 329.964 193.098C329.6 192.89 329.197 192.786 328.755 192.786C328.322 192.786 327.919 192.894 327.546 193.111C327.182 193.319 326.888 193.627 326.662 194.034C326.446 194.433 326.337 194.896 326.337 195.425C326.337 195.962 326.446 196.435 326.662 196.842C326.888 197.241 327.182 197.548 327.546 197.765C327.919 197.973 328.322 198.077 328.755 198.077C329.197 198.077 329.6 197.973 329.964 197.765C330.337 197.548 330.632 197.241 330.848 196.842C331.065 196.435 331.173 195.958 331.173 195.412ZM334.55 190.719C334.325 190.719 334.134 190.641 333.978 190.485C333.822 190.329 333.744 190.138 333.744 189.913C333.744 189.688 333.822 189.497 333.978 189.341C334.134 189.185 334.325 189.107 334.55 189.107C334.767 189.107 334.949 189.185 335.096 189.341C335.252 189.497 335.33 189.688 335.33 189.913C335.33 190.138 335.252 190.329 335.096 190.485C334.949 190.641 334.767 190.719 334.55 190.719ZM335.122 191.876V199H333.939V191.876H335.122ZM342.079 193.735V194.736H336.892V193.735H342.079ZM343.961 198.051C345.062 197.167 345.924 196.443 346.548 195.88C347.172 195.308 347.696 194.714 348.121 194.099C348.554 193.475 348.771 192.864 348.771 192.266C348.771 191.703 348.632 191.261 348.355 190.94C348.086 190.611 347.649 190.446 347.042 190.446C346.453 190.446 345.993 190.632 345.664 191.005C345.343 191.369 345.17 191.859 345.144 192.474H344C344.035 191.503 344.329 190.754 344.884 190.225C345.439 189.696 346.154 189.432 347.029 189.432C347.922 189.432 348.628 189.679 349.148 190.173C349.677 190.667 349.941 191.347 349.941 192.214C349.941 192.933 349.724 193.635 349.291 194.32C348.866 194.996 348.381 195.594 347.835 196.114C347.289 196.625 346.591 197.223 345.742 197.908H350.214V198.896H343.961V198.051ZM351.295 196.907V196.01L355.858 189.692H357.275V195.88H358.575V196.907H357.275V199H356.105V196.907H351.295ZM356.157 190.927L352.66 195.88H356.157V190.927ZM359.757 194.203C359.757 192.712 360 191.551 360.485 190.719C360.971 189.878 361.82 189.458 363.033 189.458C364.238 189.458 365.083 189.878 365.568 190.719C366.054 191.551 366.296 192.712 366.296 194.203C366.296 195.72 366.054 196.898 365.568 197.739C365.083 198.58 364.238 199 363.033 199C361.82 199 360.971 198.58 360.485 197.739C360 196.898 359.757 195.72 359.757 194.203ZM365.126 194.203C365.126 193.449 365.074 192.812 364.97 192.292C364.875 191.763 364.671 191.339 364.359 191.018C364.056 190.697 363.614 190.537 363.033 190.537C362.444 190.537 361.993 190.697 361.681 191.018C361.378 191.339 361.174 191.763 361.07 192.292C360.975 192.812 360.927 193.449 360.927 194.203C360.927 194.983 360.975 195.637 361.07 196.166C361.174 196.695 361.378 197.119 361.681 197.44C361.993 197.761 362.444 197.921 363.033 197.921C363.614 197.921 364.056 197.761 364.359 197.44C364.671 197.119 364.875 196.695 364.97 196.166C365.074 195.637 365.126 194.983 365.126 194.203ZM373.055 193.735V194.736H367.868V193.735H373.055ZM374.768 190.68V189.601H377.212V199H376.016V190.68H374.768ZM379.101 198.051C380.202 197.167 381.064 196.443 381.688 195.88C382.312 195.308 382.837 194.714 383.261 194.099C383.695 193.475 383.911 192.864 383.911 192.266C383.911 191.703 383.773 191.261 383.495 190.94C383.227 190.611 382.789 190.446 382.182 190.446C381.593 190.446 381.134 190.632 380.804 191.005C380.484 191.369 380.31 191.859 380.284 192.474H379.14C379.175 191.503 379.47 190.754 380.024 190.225C380.579 189.696 381.294 189.432 382.169 189.432C383.062 189.432 383.768 189.679 384.288 190.173C384.817 190.667 385.081 191.347 385.081 192.214C385.081 192.933 384.865 193.635 384.431 194.32C384.007 194.996 383.521 195.594 382.975 196.114C382.429 196.625 381.732 197.223 380.882 197.908H385.354V198.896H379.101V198.051ZM386.696 191.967C386.757 191.17 387.064 190.546 387.619 190.095C388.174 189.644 388.893 189.419 389.777 189.419C390.366 189.419 390.873 189.527 391.298 189.744C391.731 189.952 392.056 190.238 392.273 190.602C392.498 190.966 392.611 191.378 392.611 191.837C392.611 192.374 392.455 192.838 392.143 193.228C391.84 193.618 391.441 193.869 390.947 193.982V194.047C391.51 194.186 391.957 194.459 392.286 194.866C392.615 195.273 392.78 195.806 392.78 196.465C392.78 196.959 392.667 197.405 392.442 197.804C392.217 198.194 391.879 198.502 391.428 198.727C390.977 198.952 390.436 199.065 389.803 199.065C388.884 199.065 388.13 198.827 387.541 198.35C386.952 197.865 386.622 197.18 386.553 196.296H387.697C387.758 196.816 387.97 197.241 388.334 197.57C388.698 197.899 389.183 198.064 389.79 198.064C390.397 198.064 390.856 197.908 391.168 197.596C391.489 197.275 391.649 196.864 391.649 196.361C391.649 195.711 391.432 195.243 390.999 194.957C390.566 194.671 389.911 194.528 389.036 194.528H388.737V193.54H389.049C389.846 193.531 390.449 193.401 390.856 193.15C391.263 192.89 391.467 192.491 391.467 191.954C391.467 191.495 391.315 191.126 391.012 190.849C390.717 190.572 390.293 190.433 389.738 190.433C389.201 190.433 388.767 190.572 388.438 190.849C388.109 191.126 387.914 191.499 387.853 191.967H386.696ZM394.065 190.68V189.601H396.509V199H395.313V190.68H394.065ZM398.398 198.051C399.499 197.167 400.361 196.443 400.985 195.88C401.609 195.308 402.134 194.714 402.558 194.099C402.992 193.475 403.208 192.864 403.208 192.266C403.208 191.703 403.07 191.261 402.792 190.94C402.524 190.611 402.086 190.446 401.479 190.446C400.89 190.446 400.431 190.632 400.101 191.005C399.781 191.369 399.607 191.859 399.581 192.474H398.437C398.472 191.503 398.767 190.754 399.321 190.225C399.876 189.696 400.591 189.432 401.466 189.432C402.359 189.432 403.065 189.679 403.585 190.173C404.114 190.667 404.378 191.347 404.378 192.214C404.378 192.933 404.162 193.635 403.728 194.32C403.304 194.996 402.818 195.594 402.272 196.114C401.726 196.625 401.029 197.223 400.179 197.908H404.651V198.896H398.398V198.051ZM405.993 191.967C406.054 191.17 406.361 190.546 406.916 190.095C407.471 189.644 408.19 189.419 409.074 189.419C409.663 189.419 410.17 189.527 410.595 189.744C411.028 189.952 411.353 190.238 411.57 190.602C411.795 190.966 411.908 191.378 411.908 191.837C411.908 192.374 411.752 192.838 411.44 193.228C411.137 193.618 410.738 193.869 410.244 193.982V194.047C410.807 194.186 411.254 194.459 411.583 194.866C411.912 195.273 412.077 195.806 412.077 196.465C412.077 196.959 411.964 197.405 411.739 197.804C411.514 198.194 411.176 198.502 410.725 198.727C410.274 198.952 409.733 199.065 409.1 199.065C408.181 199.065 407.427 198.827 406.838 198.35C406.249 197.865 405.919 197.18 405.85 196.296H406.994C407.055 196.816 407.267 197.241 407.631 197.57C407.995 197.899 408.48 198.064 409.087 198.064C409.694 198.064 410.153 197.908 410.465 197.596C410.786 197.275 410.946 196.864 410.946 196.361C410.946 195.711 410.729 195.243 410.296 194.957C409.863 194.671 409.208 194.528 408.333 194.528H408.034V193.54H408.346C409.143 193.531 409.746 193.401 410.153 193.15C410.56 192.89 410.764 192.491 410.764 191.954C410.764 191.495 410.612 191.126 410.309 190.849C410.014 190.572 409.59 190.433 409.035 190.433C408.498 190.433 408.064 190.572 407.735 190.849C407.406 191.126 407.211 191.499 407.15 191.967H405.993ZM418.913 191.837C418.722 190.875 418.129 190.394 417.132 190.394C416.361 190.394 415.784 190.693 415.403 191.291C415.022 191.88 414.835 192.855 414.844 194.216C415.043 193.765 415.373 193.414 415.832 193.163C416.3 192.903 416.82 192.773 417.392 192.773C418.285 192.773 418.995 193.05 419.524 193.605C420.061 194.16 420.33 194.927 420.33 195.906C420.33 196.495 420.213 197.024 419.979 197.492C419.754 197.96 419.407 198.333 418.939 198.61C418.48 198.887 417.921 199.026 417.262 199.026C416.369 199.026 415.672 198.827 415.169 198.428C414.666 198.029 414.315 197.479 414.116 196.777C413.917 196.075 413.817 195.208 413.817 194.177C413.817 190.996 414.926 189.406 417.145 189.406C417.994 189.406 418.662 189.636 419.147 190.095C419.632 190.554 419.918 191.135 420.005 191.837H418.913ZM417.145 193.774C416.772 193.774 416.421 193.852 416.092 194.008C415.763 194.155 415.494 194.385 415.286 194.697C415.087 195 414.987 195.373 414.987 195.815C414.987 196.474 415.178 197.011 415.559 197.427C415.94 197.834 416.486 198.038 417.197 198.038C417.804 198.038 418.285 197.852 418.64 197.479C419.004 197.098 419.186 196.586 419.186 195.945C419.186 195.269 419.013 194.74 418.666 194.359C418.319 193.969 417.812 193.774 417.145 193.774ZM421.9 191.967C421.961 191.17 422.268 190.546 422.823 190.095C423.378 189.644 424.097 189.419 424.981 189.419C425.57 189.419 426.077 189.527 426.502 189.744C426.935 189.952 427.26 190.238 427.477 190.602C427.702 190.966 427.815 191.378 427.815 191.837C427.815 192.374 427.659 192.838 427.347 193.228C427.044 193.618 426.645 193.869 426.151 193.982V194.047C426.714 194.186 427.161 194.459 427.49 194.866C427.819 195.273 427.984 195.806 427.984 196.465C427.984 196.959 427.871 197.405 427.646 197.804C427.421 198.194 427.083 198.502 426.632 198.727C426.181 198.952 425.64 199.065 425.007 199.065C424.088 199.065 423.334 198.827 422.745 198.35C422.156 197.865 421.826 197.18 421.757 196.296H422.901C422.962 196.816 423.174 197.241 423.538 197.57C423.902 197.899 424.387 198.064 424.994 198.064C425.601 198.064 426.06 197.908 426.372 197.596C426.693 197.275 426.853 196.864 426.853 196.361C426.853 195.711 426.636 195.243 426.203 194.957C425.77 194.671 425.115 194.528 424.24 194.528H423.941V193.54H424.253C425.05 193.531 425.653 193.401 426.06 193.15C426.467 192.89 426.671 192.491 426.671 191.954C426.671 191.495 426.519 191.126 426.216 190.849C425.921 190.572 425.497 190.433 424.942 190.433C424.405 190.433 423.971 190.572 423.642 190.849C423.313 191.126 423.118 191.499 423.057 191.967H421.9ZM435.574 190.628H431.011V193.592C431.211 193.315 431.505 193.089 431.895 192.916C432.285 192.734 432.706 192.643 433.156 192.643C433.876 192.643 434.461 192.795 434.911 193.098C435.362 193.393 435.683 193.778 435.873 194.255C436.073 194.723 436.172 195.221 436.172 195.75C436.172 196.374 436.055 196.933 435.821 197.427C435.587 197.921 435.228 198.311 434.742 198.597C434.266 198.883 433.672 199.026 432.961 199.026C432.051 199.026 431.315 198.792 430.751 198.324C430.188 197.856 429.846 197.232 429.724 196.452H430.881C430.994 196.946 431.232 197.332 431.596 197.609C431.96 197.886 432.42 198.025 432.974 198.025C433.659 198.025 434.175 197.821 434.521 197.414C434.868 196.998 435.041 196.452 435.041 195.776C435.041 195.1 434.868 194.58 434.521 194.216C434.175 193.843 433.663 193.657 432.987 193.657C432.528 193.657 432.125 193.77 431.778 193.995C431.44 194.212 431.193 194.511 431.037 194.892H429.919V189.588H435.574V190.628ZM442.983 191.837C442.793 190.875 442.199 190.394 441.202 190.394C440.431 190.394 439.855 190.693 439.473 191.291C439.092 191.88 438.906 192.855 438.914 194.216C439.114 193.765 439.443 193.414 439.902 193.163C440.37 192.903 440.89 192.773 441.462 192.773C442.355 192.773 443.066 193.05 443.594 193.605C444.132 194.16 444.4 194.927 444.4 195.906C444.4 196.495 444.283 197.024 444.049 197.492C443.824 197.96 443.477 198.333 443.009 198.61C442.55 198.887 441.991 199.026 441.332 199.026C440.44 199.026 439.742 198.827 439.239 198.428C438.737 198.029 438.386 197.479 438.186 196.777C437.987 196.075 437.887 195.208 437.887 194.177C437.887 190.996 438.997 189.406 441.215 189.406C442.065 189.406 442.732 189.636 443.217 190.095C443.703 190.554 443.989 191.135 444.075 191.837H442.983ZM441.215 193.774C440.843 193.774 440.492 193.852 440.162 194.008C439.833 194.155 439.564 194.385 439.356 194.697C439.157 195 439.057 195.373 439.057 195.815C439.057 196.474 439.248 197.011 439.629 197.427C440.011 197.834 440.557 198.038 441.267 198.038C441.874 198.038 442.355 197.852 442.71 197.479C443.074 197.098 443.256 196.586 443.256 195.945C443.256 195.269 443.083 194.74 442.736 194.359C442.39 193.969 441.883 193.774 441.215 193.774ZM445.97 191.967C446.031 191.17 446.339 190.546 446.893 190.095C447.448 189.644 448.167 189.419 449.051 189.419C449.641 189.419 450.148 189.527 450.572 189.744C451.006 189.952 451.331 190.238 451.547 190.602C451.773 190.966 451.885 191.378 451.885 191.837C451.885 192.374 451.729 192.838 451.417 193.228C451.114 193.618 450.715 193.869 450.221 193.982V194.047C450.785 194.186 451.231 194.459 451.56 194.866C451.89 195.273 452.054 195.806 452.054 196.465C452.054 196.959 451.942 197.405 451.716 197.804C451.491 198.194 451.153 198.502 450.702 198.727C450.252 198.952 449.71 199.065 449.077 199.065C448.159 199.065 447.405 198.827 446.815 198.35C446.226 197.865 445.897 197.18 445.827 196.296H446.971C447.032 196.816 447.244 197.241 447.608 197.57C447.972 197.899 448.458 198.064 449.064 198.064C449.671 198.064 450.13 197.908 450.442 197.596C450.763 197.275 450.923 196.864 450.923 196.361C450.923 195.711 450.707 195.243 450.273 194.957C449.84 194.671 449.186 194.528 448.31 194.528H448.011V193.54H448.323C449.121 193.531 449.723 193.401 450.13 193.15C450.538 192.89 450.741 192.491 450.741 191.954C450.741 191.495 450.59 191.126 450.286 190.849C449.992 190.572 449.567 190.433 449.012 190.433C448.475 190.433 448.042 190.572 447.712 190.849C447.383 191.126 447.188 191.499 447.127 191.967H445.97ZM458.891 191.837C458.7 190.875 458.106 190.394 457.11 190.394C456.338 190.394 455.762 190.693 455.381 191.291C454.999 191.88 454.813 192.855 454.822 194.216C455.021 193.765 455.35 193.414 455.81 193.163C456.278 192.903 456.798 192.773 457.37 192.773C458.262 192.773 458.973 193.05 459.502 193.605C460.039 194.16 460.308 194.927 460.308 195.906C460.308 196.495 460.191 197.024 459.957 197.492C459.731 197.96 459.385 198.333 458.917 198.61C458.457 198.887 457.898 199.026 457.24 199.026C456.347 199.026 455.649 198.827 455.147 198.428C454.644 198.029 454.293 197.479 454.094 196.777C453.894 196.075 453.795 195.208 453.795 194.177C453.795 190.996 454.904 189.406 457.123 189.406C457.972 189.406 458.639 189.636 459.125 190.095C459.61 190.554 459.896 191.135 459.983 191.837H458.891ZM457.123 193.774C456.75 193.774 456.399 193.852 456.07 194.008C455.74 194.155 455.472 194.385 455.264 194.697C455.064 195 454.965 195.373 454.965 195.815C454.965 196.474 455.155 197.011 455.537 197.427C455.918 197.834 456.464 198.038 457.175 198.038C457.781 198.038 458.262 197.852 458.618 197.479C458.982 197.098 459.164 196.586 459.164 195.945C459.164 195.269 458.99 194.74 458.644 194.359C458.297 193.969 457.79 193.774 457.123 193.774ZM467.897 190.628H463.334V193.592C463.533 193.315 463.828 193.089 464.218 192.916C464.608 192.734 465.028 192.643 465.479 192.643C466.198 192.643 466.783 192.795 467.234 193.098C467.684 193.393 468.005 193.778 468.196 194.255C468.395 194.723 468.495 195.221 468.495 195.75C468.495 196.374 468.378 196.933 468.144 197.427C467.91 197.921 467.55 198.311 467.065 198.597C466.588 198.883 465.994 199.026 465.284 199.026C464.374 199.026 463.637 198.792 463.074 198.324C462.51 197.856 462.168 197.232 462.047 196.452H463.204C463.316 196.946 463.555 197.332 463.919 197.609C464.283 197.886 464.742 198.025 465.297 198.025C465.981 198.025 466.497 197.821 466.844 197.414C467.19 196.998 467.364 196.452 467.364 195.776C467.364 195.1 467.19 194.58 466.844 194.216C466.497 193.843 465.986 193.657 465.31 193.657C464.85 193.657 464.447 193.77 464.101 193.995C463.763 194.212 463.516 194.511 463.36 194.892H462.242V189.588H467.897V190.628ZM470.041 191.967C470.101 191.17 470.409 190.546 470.964 190.095C471.518 189.644 472.238 189.419 473.122 189.419C473.711 189.419 474.218 189.527 474.643 189.744C475.076 189.952 475.401 190.238 475.618 190.602C475.843 190.966 475.956 191.378 475.956 191.837C475.956 192.374 475.8 192.838 475.488 193.228C475.184 193.618 474.786 193.869 474.292 193.982V194.047C474.855 194.186 475.301 194.459 475.631 194.866C475.96 195.273 476.125 195.806 476.125 196.465C476.125 196.959 476.012 197.405 475.787 197.804C475.561 198.194 475.223 198.502 474.773 198.727C474.322 198.952 473.78 199.065 473.148 199.065C472.229 199.065 471.475 198.827 470.886 198.35C470.296 197.865 469.967 197.18 469.898 196.296H471.042C471.102 196.816 471.315 197.241 471.679 197.57C472.043 197.899 472.528 198.064 473.135 198.064C473.741 198.064 474.201 197.908 474.513 197.596C474.833 197.275 474.994 196.864 474.994 196.361C474.994 195.711 474.777 195.243 474.344 194.957C473.91 194.671 473.256 194.528 472.381 194.528H472.082V193.54H472.394C473.191 193.531 473.793 193.401 474.201 193.15C474.608 192.89 474.812 192.491 474.812 191.954C474.812 191.495 474.66 191.126 474.357 190.849C474.062 190.572 473.637 190.433 473.083 190.433C472.545 190.433 472.112 190.572 471.783 190.849C471.453 191.126 471.258 191.499 471.198 191.967H470.041ZM482.961 191.837C482.77 190.875 482.177 190.394 481.18 190.394C480.409 190.394 479.832 190.693 479.451 191.291C479.07 191.88 478.883 192.855 478.892 194.216C479.091 193.765 479.421 193.414 479.88 193.163C480.348 192.903 480.868 192.773 481.44 192.773C482.333 192.773 483.043 193.05 483.572 193.605C484.109 194.16 484.378 194.927 484.378 195.906C484.378 196.495 484.261 197.024 484.027 197.492C483.802 197.96 483.455 198.333 482.987 198.61C482.528 198.887 481.969 199.026 481.31 199.026C480.417 199.026 479.72 198.827 479.217 198.428C478.714 198.029 478.363 197.479 478.164 196.777C477.965 196.075 477.865 195.208 477.865 194.177C477.865 190.996 478.974 189.406 481.193 189.406C482.042 189.406 482.71 189.636 483.195 190.095C483.68 190.554 483.966 191.135 484.053 191.837H482.961ZM481.193 193.774C480.82 193.774 480.469 193.852 480.14 194.008C479.811 194.155 479.542 194.385 479.334 194.697C479.135 195 479.035 195.373 479.035 195.815C479.035 196.474 479.226 197.011 479.607 197.427C479.988 197.834 480.534 198.038 481.245 198.038C481.852 198.038 482.333 197.852 482.688 197.479C483.052 197.098 483.234 196.586 483.234 195.945C483.234 195.269 483.061 194.74 482.714 194.359C482.367 193.969 481.86 193.774 481.193 193.774ZM485.662 190.68V189.601H488.106V199H486.91V190.68H485.662ZM491.854 194.112C491.369 193.921 490.996 193.644 490.736 193.28C490.476 192.916 490.346 192.474 490.346 191.954C490.346 191.486 490.463 191.066 490.697 190.693C490.931 190.312 491.278 190.013 491.737 189.796C492.205 189.571 492.768 189.458 493.427 189.458C494.086 189.458 494.645 189.571 495.104 189.796C495.572 190.013 495.923 190.312 496.157 190.693C496.4 191.066 496.521 191.486 496.521 191.954C496.521 192.457 496.387 192.899 496.118 193.28C495.849 193.653 495.481 193.93 495.013 194.112C495.55 194.277 495.975 194.567 496.287 194.983C496.608 195.39 496.768 195.884 496.768 196.465C496.768 197.028 496.629 197.522 496.352 197.947C496.075 198.363 495.68 198.688 495.169 198.922C494.666 199.147 494.086 199.26 493.427 199.26C492.768 199.26 492.188 199.147 491.685 198.922C491.191 198.688 490.805 198.363 490.528 197.947C490.251 197.522 490.112 197.028 490.112 196.465C490.112 195.884 490.268 195.386 490.58 194.97C490.892 194.554 491.317 194.268 491.854 194.112ZM495.377 192.097C495.377 191.568 495.204 191.161 494.857 190.875C494.51 190.589 494.034 190.446 493.427 190.446C492.829 190.446 492.357 190.589 492.01 190.875C491.663 191.161 491.49 191.573 491.49 192.11C491.49 192.595 491.668 192.985 492.023 193.28C492.387 193.575 492.855 193.722 493.427 193.722C494.008 193.722 494.476 193.575 494.831 193.28C495.195 192.977 495.377 192.582 495.377 192.097ZM493.427 194.632C492.786 194.632 492.261 194.784 491.854 195.087C491.447 195.382 491.243 195.828 491.243 196.426C491.243 196.981 491.438 197.427 491.828 197.765C492.227 198.103 492.76 198.272 493.427 198.272C494.094 198.272 494.623 198.103 495.013 197.765C495.403 197.427 495.598 196.981 495.598 196.426C495.598 195.845 495.399 195.403 495 195.1C494.601 194.788 494.077 194.632 493.427 194.632ZM498.196 198.051C499.297 197.167 500.159 196.443 500.783 195.88C501.407 195.308 501.932 194.714 502.356 194.099C502.79 193.475 503.006 192.864 503.006 192.266C503.006 191.703 502.868 191.261 502.59 190.94C502.322 190.611 501.884 190.446 501.277 190.446C500.688 190.446 500.229 190.632 499.899 191.005C499.579 191.369 499.405 191.859 499.379 192.474H498.235C498.27 191.503 498.565 190.754 499.119 190.225C499.674 189.696 500.389 189.432 501.264 189.432C502.157 189.432 502.863 189.679 503.383 190.173C503.912 190.667 504.176 191.347 504.176 192.214C504.176 192.933 503.96 193.635 503.526 194.32C503.102 194.996 502.616 195.594 502.07 196.114C501.524 196.625 500.827 197.223 499.977 197.908H504.449V198.896H498.196V198.051ZM505.791 191.967C505.851 191.17 506.159 190.546 506.714 190.095C507.268 189.644 507.988 189.419 508.872 189.419C509.461 189.419 509.968 189.527 510.393 189.744C510.826 189.952 511.151 190.238 511.368 190.602C511.593 190.966 511.706 191.378 511.706 191.837C511.706 192.374 511.55 192.838 511.238 193.228C510.934 193.618 510.536 193.869 510.042 193.982V194.047C510.605 194.186 511.051 194.459 511.381 194.866C511.71 195.273 511.875 195.806 511.875 196.465C511.875 196.959 511.762 197.405 511.537 197.804C511.311 198.194 510.973 198.502 510.523 198.727C510.072 198.952 509.53 199.065 508.898 199.065C507.979 199.065 507.225 198.827 506.636 198.35C506.046 197.865 505.717 197.18 505.648 196.296H506.792C506.852 196.816 507.065 197.241 507.429 197.57C507.793 197.899 508.278 198.064 508.885 198.064C509.491 198.064 509.951 197.908 510.263 197.596C510.583 197.275 510.744 196.864 510.744 196.361C510.744 195.711 510.527 195.243 510.094 194.957C509.66 194.671 509.006 194.528 508.131 194.528H507.832V193.54H508.144C508.941 193.531 509.543 193.401 509.951 193.15C510.358 192.89 510.562 192.491 510.562 191.954C510.562 191.495 510.41 191.126 510.107 190.849C509.812 190.572 509.387 190.433 508.833 190.433C508.295 190.433 507.862 190.572 507.533 190.849C507.203 191.126 507.008 191.499 506.948 191.967H505.791ZM513.16 190.68V189.601H515.604V199H514.408V190.68H513.16ZM517.493 198.051C518.594 197.167 519.456 196.443 520.08 195.88C520.704 195.308 521.228 194.714 521.653 194.099C522.086 193.475 522.303 192.864 522.303 192.266C522.303 191.703 522.164 191.261 521.887 190.94C521.618 190.611 521.181 190.446 520.574 190.446C519.985 190.446 519.525 190.632 519.196 191.005C518.875 191.369 518.702 191.859 518.676 192.474H517.532C517.567 191.503 517.861 190.754 518.416 190.225C518.971 189.696 519.686 189.432 520.561 189.432C521.454 189.432 522.16 189.679 522.68 190.173C523.209 190.667 523.473 191.347 523.473 192.214C523.473 192.933 523.256 193.635 522.823 194.32C522.398 194.996 521.913 195.594 521.367 196.114C520.821 196.625 520.123 197.223 519.274 197.908H523.746V198.896H517.493V198.051ZM525.088 191.967C525.148 191.17 525.456 190.546 526.011 190.095C526.565 189.644 527.285 189.419 528.169 189.419C528.758 189.419 529.265 189.527 529.69 189.744C530.123 189.952 530.448 190.238 530.665 190.602C530.89 190.966 531.003 191.378 531.003 191.837C531.003 192.374 530.847 192.838 530.535 193.228C530.231 193.618 529.833 193.869 529.339 193.982V194.047C529.902 194.186 530.348 194.459 530.678 194.866C531.007 195.273 531.172 195.806 531.172 196.465C531.172 196.959 531.059 197.405 530.834 197.804C530.608 198.194 530.27 198.502 529.82 198.727C529.369 198.952 528.827 199.065 528.195 199.065C527.276 199.065 526.522 198.827 525.933 198.35C525.343 197.865 525.014 197.18 524.945 196.296H526.089C526.149 196.816 526.362 197.241 526.726 197.57C527.09 197.899 527.575 198.064 528.182 198.064C528.788 198.064 529.248 197.908 529.56 197.596C529.88 197.275 530.041 196.864 530.041 196.361C530.041 195.711 529.824 195.243 529.391 194.957C528.957 194.671 528.303 194.528 527.428 194.528H527.129V193.54H527.441C528.238 193.531 528.84 193.401 529.248 193.15C529.655 192.89 529.859 192.491 529.859 191.954C529.859 191.495 529.707 191.126 529.404 190.849C529.109 190.572 528.684 190.433 528.13 190.433C527.592 190.433 527.159 190.572 526.83 190.849C526.5 191.126 526.305 191.499 526.245 191.967H525.088ZM533.341 199.078C533.116 199.078 532.925 199 532.769 198.844C532.613 198.688 532.535 198.497 532.535 198.272C532.535 198.047 532.613 197.856 532.769 197.7C532.925 197.544 533.116 197.466 533.341 197.466C533.558 197.466 533.74 197.544 533.887 197.7C534.043 197.856 534.121 198.047 534.121 198.272C534.121 198.497 534.043 198.688 533.887 198.844C533.74 199 533.558 199.078 533.341 199.078ZM535.251 195.425C535.251 194.688 535.399 194.047 535.693 193.501C535.988 192.946 536.395 192.517 536.915 192.214C537.444 191.911 538.046 191.759 538.722 191.759C539.598 191.759 540.317 191.971 540.88 192.396C541.452 192.821 541.829 193.41 542.011 194.164H540.737C540.616 193.731 540.378 193.388 540.022 193.137C539.676 192.886 539.242 192.76 538.722 192.76C538.046 192.76 537.5 192.994 537.084 193.462C536.668 193.921 536.46 194.576 536.46 195.425C536.46 196.283 536.668 196.946 537.084 197.414C537.5 197.882 538.046 198.116 538.722 198.116C539.242 198.116 539.676 197.995 540.022 197.752C540.369 197.509 540.607 197.163 540.737 196.712H542.011C541.821 197.44 541.439 198.025 540.867 198.467C540.295 198.9 539.58 199.117 538.722 199.117C538.046 199.117 537.444 198.965 536.915 198.662C536.395 198.359 535.988 197.93 535.693 197.375C535.399 196.82 535.251 196.17 535.251 195.425ZM546.112 199.117C545.566 199.117 545.076 199.026 544.643 198.844C544.21 198.653 543.867 198.393 543.616 198.064C543.365 197.726 543.226 197.34 543.2 196.907H544.422C544.457 197.262 544.621 197.553 544.916 197.778C545.219 198.003 545.614 198.116 546.099 198.116C546.55 198.116 546.905 198.016 547.165 197.817C547.425 197.618 547.555 197.366 547.555 197.063C547.555 196.751 547.416 196.521 547.139 196.374C546.862 196.218 546.433 196.066 545.852 195.919C545.323 195.78 544.89 195.642 544.552 195.503C544.223 195.356 543.937 195.143 543.694 194.866C543.46 194.58 543.343 194.207 543.343 193.748C543.343 193.384 543.451 193.05 543.668 192.747C543.885 192.444 544.192 192.205 544.591 192.032C544.99 191.85 545.445 191.759 545.956 191.759C546.745 191.759 547.382 191.958 547.867 192.357C548.352 192.756 548.612 193.302 548.647 193.995H547.464C547.438 193.622 547.286 193.323 547.009 193.098C546.74 192.873 546.376 192.76 545.917 192.76C545.492 192.76 545.154 192.851 544.903 193.033C544.652 193.215 544.526 193.453 544.526 193.748C544.526 193.982 544.6 194.177 544.747 194.333C544.903 194.48 545.094 194.602 545.319 194.697C545.553 194.784 545.874 194.883 546.281 194.996C546.792 195.135 547.208 195.273 547.529 195.412C547.85 195.542 548.123 195.741 548.348 196.01C548.582 196.279 548.703 196.63 548.712 197.063C548.712 197.453 548.604 197.804 548.387 198.116C548.17 198.428 547.863 198.675 547.464 198.857C547.074 199.03 546.623 199.117 546.112 199.117ZM553.034 197.908L555.244 191.876H556.505L553.71 199H552.332L549.537 191.876H550.811L553.034 197.908Z" fill="#ADB3C0"/>
<path d="M347.64 164.82C347.64 152.058 350.153 139.421 355.037 127.631C359.921 115.84 367.079 105.127 376.103 96.1032C385.127 87.0792 395.84 79.921 407.631 75.0372C419.421 70.1534 432.058 67.6398 444.82 67.6398C457.582 67.6398 470.219 70.1534 482.009 75.0372C493.8 79.921 504.513 87.0792 513.537 96.1032C522.561 105.127 529.719 115.84 534.603 127.631C539.486 139.421 542 152.058 542 164.82L444.82 164.82L347.64 164.82Z" fill="#ADB3C0"/>
<path opacity="0.8" d="M513.536 96.1031C499.946 82.5122 482.63 73.2567 463.779 69.507C444.928 65.7572 425.388 67.6817 407.631 75.0371C389.873 82.3924 374.696 94.8482 364.017 110.829C353.339 126.811 347.64 145.599 347.64 164.82L444.82 164.82L513.536 96.1031Z" fill="#52DE97"/>
<path d="M352.284 164.821C352.284 140.279 362.034 116.742 379.387 99.3884C396.741 82.0346 420.278 72.2854 444.82 72.2854C469.362 72.2854 492.899 82.0346 510.252 99.3884C527.606 116.742 537.355 140.279 537.355 164.821L444.82 164.821L352.284 164.821Z" fill="white"/>
<path d="M336.907 161.679C336.907 160.647 337.075 159.843 337.411 159.267C337.747 158.685 338.335 158.394 339.175 158.394C340.009 158.394 340.594 158.685 340.93 159.267C341.266 159.843 341.434 160.647 341.434 161.679C341.434 162.729 341.266 163.545 340.93 164.127C340.594 164.709 340.009 165 339.175 165C338.335 165 337.747 164.709 337.411 164.127C337.075 163.545 336.907 162.729 336.907 161.679ZM340.624 161.679C340.624 161.157 340.588 160.716 340.516 160.356C340.45 159.99 340.309 159.696 340.093 159.474C339.883 159.252 339.577 159.141 339.175 159.141C338.767 159.141 338.455 159.252 338.239 159.474C338.029 159.696 337.888 159.99 337.816 160.356C337.75 160.716 337.717 161.157 337.717 161.679C337.717 162.219 337.75 162.672 337.816 163.038C337.888 163.404 338.029 163.698 338.239 163.92C338.455 164.142 338.767 164.253 339.175 164.253C339.577 164.253 339.883 164.142 340.093 163.92C340.309 163.698 340.45 163.404 340.516 163.038C340.588 162.672 340.624 162.219 340.624 161.679Z" fill="#ADB3C0"/>
<path d="M547.342 159.24V158.493H549.034V165H548.206V159.24H547.342ZM550.441 161.679C550.441 160.647 550.609 159.843 550.945 159.267C551.281 158.685 551.869 158.394 552.709 158.394C553.543 158.394 554.128 158.685 554.464 159.267C554.8 159.843 554.968 160.647 554.968 161.679C554.968 162.729 554.8 163.545 554.464 164.127C554.128 164.709 553.543 165 552.709 165C551.869 165 551.281 164.709 550.945 164.127C550.609 163.545 550.441 162.729 550.441 161.679ZM554.158 161.679C554.158 161.157 554.122 160.716 554.05 160.356C553.984 159.99 553.843 159.696 553.627 159.474C553.417 159.252 553.111 159.141 552.709 159.141C552.301 159.141 551.989 159.252 551.773 159.474C551.563 159.696 551.422 159.99 551.35 160.356C551.284 160.716 551.251 161.157 551.251 161.679C551.251 162.219 551.284 162.672 551.35 163.038C551.422 163.404 551.563 163.698 551.773 163.92C551.989 164.142 552.301 164.253 552.709 164.253C553.111 164.253 553.417 164.142 553.627 163.92C553.843 163.698 553.984 163.404 554.05 163.038C554.122 162.672 554.158 162.219 554.158 161.679ZM556.092 161.679C556.092 160.647 556.26 159.843 556.596 159.267C556.932 158.685 557.52 158.394 558.36 158.394C559.194 158.394 559.779 158.685 560.115 159.267C560.451 159.843 560.619 160.647 560.619 161.679C560.619 162.729 560.451 163.545 560.115 164.127C559.779 164.709 559.194 165 558.36 165C557.52 165 556.932 164.709 556.596 164.127C556.26 163.545 556.092 162.729 556.092 161.679ZM559.809 161.679C559.809 161.157 559.773 160.716 559.701 160.356C559.635 159.99 559.494 159.696 559.278 159.474C559.068 159.252 558.762 159.141 558.36 159.141C557.952 159.141 557.64 159.252 557.424 159.474C557.214 159.696 557.073 159.99 557.001 160.356C556.935 160.716 556.902 161.157 556.902 161.679C556.902 162.219 556.935 162.672 557.001 163.038C557.073 163.404 557.214 163.698 557.424 163.92C557.64 164.142 557.952 164.253 558.36 164.253C558.762 164.253 559.068 164.142 559.278 163.92C559.494 163.698 559.635 163.404 559.701 163.038C559.773 162.672 559.809 162.219 559.809 161.679Z" fill="#ADB3C0"/>
<path d="M398.62 121.329C398.62 117.201 399.412 113.949 400.996 111.573C402.604 109.197 405.184 108.009 408.736 108.009C412.288 108.009 414.856 109.197 416.44 111.573C418.048 113.949 418.852 117.201 418.852 121.329C418.852 125.505 418.048 128.781 416.44 131.157C414.856 133.533 412.288 134.721 408.736 134.721C405.184 134.721 402.604 133.533 400.996 131.157C399.412 128.781 398.62 125.505 398.62 121.329ZM412.804 121.329C412.804 118.905 412.54 117.045 412.012 115.749C411.484 114.429 410.392 113.769 408.736 113.769C407.08 113.769 405.988 114.429 405.46 115.749C404.932 117.045 404.668 118.905 404.668 121.329C404.668 122.961 404.764 124.317 404.956 125.397C405.148 126.453 405.532 127.317 406.108 127.989C406.708 128.637 407.584 128.961 408.736 128.961C409.888 128.961 410.752 128.637 411.328 127.989C411.928 127.317 412.324 126.453 412.516 125.397C412.708 124.317 412.804 122.961 412.804 121.329ZM425.596 135.117C424.516 135.117 423.628 134.805 422.932 134.181C422.26 133.533 421.924 132.741 421.924 131.805C421.924 130.845 422.26 130.041 422.932 129.393C423.628 128.745 424.516 128.421 425.596 128.421C426.652 128.421 427.516 128.745 428.188 129.393C428.884 130.041 429.232 130.845 429.232 131.805C429.232 132.741 428.884 133.533 428.188 134.181C427.516 134.805 426.652 135.117 425.596 135.117ZM436.585 120.717C434.329 119.517 433.201 117.633 433.201 115.065C433.201 113.769 433.537 112.593 434.209 111.537C434.881 110.457 435.901 109.605 437.269 108.981C438.637 108.333 440.317 108.009 442.309 108.009C444.301 108.009 445.969 108.333 447.313 108.981C448.681 109.605 449.701 110.457 450.373 111.537C451.045 112.593 451.381 113.769 451.381 115.065C451.381 116.361 451.069 117.489 450.445 118.449C449.845 119.409 449.029 120.165 447.997 120.717C449.293 121.341 450.289 122.205 450.985 123.309C451.681 124.389 452.029 125.661 452.029 127.125C452.029 128.829 451.597 130.305 450.733 131.553C449.869 132.777 448.693 133.713 447.205 134.361C445.741 135.009 444.109 135.333 442.309 135.333C440.509 135.333 438.865 135.009 437.377 134.361C435.913 133.713 434.749 132.777 433.885 131.553C433.021 130.305 432.589 128.829 432.589 127.125C432.589 125.637 432.937 124.353 433.633 123.273C434.329 122.169 435.313 121.317 436.585 120.717ZM445.405 116.001C445.405 115.017 445.117 114.261 444.541 113.733C443.989 113.181 443.245 112.905 442.309 112.905C441.373 112.905 440.617 113.181 440.041 113.733C439.489 114.285 439.213 115.053 439.213 116.037C439.213 116.973 439.501 117.717 440.077 118.269C440.653 118.797 441.397 119.061 442.309 119.061C443.221 119.061 443.965 118.785 444.541 118.233C445.117 117.681 445.405 116.937 445.405 116.001ZM442.309 123.381C441.181 123.381 440.269 123.693 439.573 124.317C438.877 124.917 438.529 125.757 438.529 126.837C438.529 127.845 438.865 128.673 439.537 129.321C440.233 129.969 441.157 130.293 442.309 130.293C443.461 130.293 444.361 129.969 445.009 129.321C445.681 128.673 446.017 127.845 446.017 126.837C446.017 125.781 445.669 124.941 444.973 124.317C444.301 123.693 443.413 123.381 442.309 123.381ZM455.752 130.149V125.181L467.128 108.909H474.004V124.821H476.956V130.149H474.004V134.829H467.848V130.149H455.752ZM468.28 115.677L462.232 124.821H468.28V115.677ZM479.324 114.273V108.549H489.296V134.829H482.888V114.273H479.324Z" fill="#394253"/>
<path d="M387.47 164.934C386.78 164.934 386.16 164.814 385.61 164.574C385.07 164.324 384.645 163.984 384.335 163.554C384.025 163.114 383.865 162.609 383.855 162.039H385.31C385.36 162.529 385.56 162.944 385.91 163.284C386.27 163.614 386.79 163.779 387.47 163.779C388.12 163.779 388.63 163.619 389 163.299C389.38 162.969 389.57 162.549 389.57 162.039C389.57 161.639 389.46 161.314 389.24 161.064C389.02 160.814 388.745 160.624 388.415 160.494C388.085 160.364 387.64 160.224 387.08 160.074C386.39 159.894 385.835 159.714 385.415 159.534C385.005 159.354 384.65 159.074 384.35 158.694C384.06 158.304 383.915 157.784 383.915 157.134C383.915 156.564 384.06 156.059 384.35 155.619C384.64 155.179 385.045 154.839 385.565 154.599C386.095 154.359 386.7 154.239 387.38 154.239C388.36 154.239 389.16 154.484 389.78 154.974C390.41 155.464 390.765 156.114 390.845 156.924H389.345C389.295 156.524 389.085 156.174 388.715 155.874C388.345 155.564 387.855 155.409 387.245 155.409C386.675 155.409 386.21 155.559 385.85 155.859C385.49 156.149 385.31 156.559 385.31 157.089C385.31 157.469 385.415 157.779 385.625 158.019C385.845 158.259 386.11 158.444 386.42 158.574C386.74 158.694 387.185 158.834 387.755 158.994C388.445 159.184 389 159.374 389.42 159.564C389.84 159.744 390.2 160.029 390.5 160.419C390.8 160.799 390.95 161.319 390.95 161.979C390.95 162.489 390.815 162.969 390.545 163.419C390.275 163.869 389.875 164.234 389.345 164.514C388.815 164.794 388.19 164.934 387.47 164.934ZM393.664 155.274C393.404 155.274 393.184 155.184 393.004 155.004C392.824 154.824 392.734 154.604 392.734 154.344C392.734 154.084 392.824 153.864 393.004 153.684C393.184 153.504 393.404 153.414 393.664 153.414C393.914 153.414 394.124 153.504 394.294 153.684C394.474 153.864 394.564 154.084 394.564 154.344C394.564 154.604 394.474 154.824 394.294 155.004C394.124 155.184 393.914 155.274 393.664 155.274ZM394.324 156.609V164.829H392.959V156.609H394.324ZM398.015 153.729V164.829H396.65V153.729H398.015ZM404.422 156.459C405.042 156.459 405.602 156.594 406.102 156.864C406.602 157.124 406.992 157.519 407.272 158.049C407.562 158.579 407.707 159.224 407.707 159.984V164.829H406.357V160.179C406.357 159.359 406.152 158.734 405.742 158.304C405.332 157.864 404.772 157.644 404.062 157.644C403.342 157.644 402.767 157.869 402.337 158.319C401.917 158.769 401.707 159.424 401.707 160.284V164.829H400.342V153.729H401.707V157.779C401.977 157.359 402.347 157.034 402.817 156.804C403.297 156.574 403.832 156.459 404.422 156.459ZM413.521 164.964C412.751 164.964 412.051 164.789 411.421 164.439C410.801 164.089 410.311 163.594 409.951 162.954C409.601 162.304 409.426 161.554 409.426 160.704C409.426 159.864 409.606 159.124 409.966 158.484C410.336 157.834 410.836 157.339 411.466 156.999C412.096 156.649 412.801 156.474 413.581 156.474C414.361 156.474 415.066 156.649 415.696 156.999C416.326 157.339 416.821 157.829 417.181 158.469C417.551 159.109 417.736 159.854 417.736 160.704C417.736 161.554 417.546 162.304 417.166 162.954C416.796 163.594 416.291 164.089 415.651 164.439C415.011 164.789 414.301 164.964 413.521 164.964ZM413.521 163.764C414.011 163.764 414.471 163.649 414.901 163.419C415.331 163.189 415.676 162.844 415.936 162.384C416.206 161.924 416.341 161.364 416.341 160.704C416.341 160.044 416.211 159.484 415.951 159.024C415.691 158.564 415.351 158.224 414.931 158.004C414.511 157.774 414.056 157.659 413.566 157.659C413.066 157.659 412.606 157.774 412.186 158.004C411.776 158.224 411.446 158.564 411.196 159.024C410.946 159.484 410.821 160.044 410.821 160.704C410.821 161.374 410.941 161.939 411.181 162.399C411.431 162.859 411.761 163.204 412.171 163.434C412.581 163.654 413.031 163.764 413.521 163.764ZM426.821 156.609V164.829H425.456V163.614C425.196 164.034 424.831 164.364 424.361 164.604C423.901 164.834 423.391 164.949 422.831 164.949C422.191 164.949 421.616 164.819 421.106 164.559C420.596 164.289 420.191 163.889 419.891 163.359C419.601 162.829 419.456 162.184 419.456 161.424V156.609H420.806V161.244C420.806 162.054 421.011 162.679 421.421 163.119C421.831 163.549 422.391 163.764 423.101 163.764C423.831 163.764 424.406 163.539 424.826 163.089C425.246 162.639 425.456 161.984 425.456 161.124V156.609H426.821ZM436.626 160.404C436.626 160.664 436.611 160.939 436.581 161.229H430.011C430.061 162.039 430.336 162.674 430.836 163.134C431.346 163.584 431.961 163.809 432.681 163.809C433.271 163.809 433.761 163.674 434.151 163.404C434.551 163.124 434.831 162.754 434.991 162.294H436.461C436.241 163.084 435.801 163.729 435.141 164.229C434.481 164.719 433.661 164.964 432.681 164.964C431.901 164.964 431.201 164.789 430.581 164.439C429.971 164.089 429.491 163.594 429.141 162.954C428.791 162.304 428.616 161.554 428.616 160.704C428.616 159.854 428.786 159.109 429.126 158.469C429.466 157.829 429.941 157.339 430.551 156.999C431.171 156.649 431.881 156.474 432.681 156.474C433.461 156.474 434.151 156.644 434.751 156.984C435.351 157.324 435.811 157.794 436.131 158.394C436.461 158.984 436.626 159.654 436.626 160.404ZM435.216 160.119C435.216 159.599 435.101 159.154 434.871 158.784C434.641 158.404 434.326 158.119 433.926 157.929C433.536 157.729 433.101 157.629 432.621 157.629C431.931 157.629 431.341 157.849 430.851 158.289C430.371 158.729 430.096 159.339 430.026 160.119H435.216ZM440.092 157.734V162.579C440.092 162.979 440.177 163.264 440.347 163.434C440.517 163.594 440.812 163.674 441.232 163.674H442.237V164.829H441.007C440.247 164.829 439.677 164.654 439.297 164.304C438.917 163.954 438.727 163.379 438.727 162.579V157.734H437.662V156.609H438.727V154.539H440.092V156.609H442.237V157.734H440.092ZM445.556 157.734V162.579C445.556 162.979 445.641 163.264 445.811 163.434C445.981 163.594 446.276 163.674 446.696 163.674H447.701V164.829H446.471C445.711 164.829 445.141 164.654 444.761 164.304C444.381 163.954 444.191 163.379 444.191 162.579V157.734H443.126V156.609H444.191V154.539H445.556V156.609H447.701V157.734H445.556ZM456.855 160.404C456.855 160.664 456.84 160.939 456.81 161.229H450.24C450.29 162.039 450.565 162.674 451.065 163.134C451.575 163.584 452.19 163.809 452.91 163.809C453.5 163.809 453.99 163.674 454.38 163.404C454.78 163.124 455.06 162.754 455.22 162.294H456.69C456.47 163.084 456.03 163.729 455.37 164.229C454.71 164.719 453.89 164.964 452.91 164.964C452.13 164.964 451.43 164.789 450.81 164.439C450.2 164.089 449.72 163.594 449.37 162.954C449.02 162.304 448.845 161.554 448.845 160.704C448.845 159.854 449.015 159.109 449.355 158.469C449.695 157.829 450.17 157.339 450.78 156.999C451.4 156.649 452.11 156.474 452.91 156.474C453.69 156.474 454.38 156.644 454.98 156.984C455.58 157.324 456.04 157.794 456.36 158.394C456.69 158.984 456.855 159.654 456.855 160.404ZM455.445 160.119C455.445 159.599 455.33 159.154 455.1 158.784C454.87 158.404 454.555 158.119 454.155 157.929C453.765 157.729 453.33 157.629 452.85 157.629C452.16 157.629 451.57 157.849 451.08 158.289C450.6 158.729 450.325 159.339 450.255 160.119H455.445ZM465.566 164.964C464.936 164.964 464.371 164.859 463.871 164.649C463.371 164.429 462.976 164.129 462.686 163.749C462.396 163.359 462.236 162.914 462.206 162.414H463.616C463.656 162.824 463.846 163.159 464.186 163.419C464.536 163.679 464.991 163.809 465.551 163.809C466.071 163.809 466.481 163.694 466.781 163.464C467.081 163.234 467.231 162.944 467.231 162.594C467.231 162.234 467.071 161.969 466.751 161.799C466.431 161.619 465.936 161.444 465.266 161.274C464.656 161.114 464.156 160.954 463.766 160.794C463.386 160.624 463.056 160.379 462.776 160.059C462.506 159.729 462.371 159.299 462.371 158.769C462.371 158.349 462.496 157.964 462.746 157.614C462.996 157.264 463.351 156.989 463.811 156.789C464.271 156.579 464.796 156.474 465.386 156.474C466.296 156.474 467.031 156.704 467.591 157.164C468.151 157.624 468.451 158.254 468.491 159.054H467.126C467.096 158.624 466.921 158.279 466.601 158.019C466.291 157.759 465.871 157.629 465.341 157.629C464.851 157.629 464.461 157.734 464.171 157.944C463.881 158.154 463.736 158.429 463.736 158.769C463.736 159.039 463.821 159.264 463.991 159.444C464.171 159.614 464.391 159.754 464.651 159.864C464.921 159.964 465.291 160.079 465.761 160.209C466.351 160.369 466.831 160.529 467.201 160.689C467.571 160.839 467.886 161.069 468.146 161.379C468.416 161.689 468.556 162.094 468.566 162.594C468.566 163.044 468.441 163.449 468.191 163.809C467.941 164.169 467.586 164.454 467.126 164.664C466.676 164.864 466.156 164.964 465.566 164.964ZM469.983 160.704C469.983 159.854 470.153 159.114 470.493 158.484C470.833 157.844 471.303 157.349 471.903 156.999C472.513 156.649 473.208 156.474 473.988 156.474C474.998 156.474 475.828 156.719 476.478 157.209C477.138 157.699 477.573 158.379 477.783 159.249H476.313C476.173 158.749 475.898 158.354 475.488 158.064C475.088 157.774 474.588 157.629 473.988 157.629C473.208 157.629 472.578 157.899 472.098 158.439C471.618 158.969 471.378 159.724 471.378 160.704C471.378 161.694 471.618 162.459 472.098 162.999C472.578 163.539 473.208 163.809 473.988 163.809C474.588 163.809 475.088 163.669 475.488 163.389C475.888 163.109 476.163 162.709 476.313 162.189H477.783C477.563 163.029 477.123 163.704 476.463 164.214C475.803 164.714 474.978 164.964 473.988 164.964C473.208 164.964 472.513 164.789 471.903 164.439C471.303 164.089 470.833 163.594 470.493 162.954C470.153 162.314 469.983 161.564 469.983 160.704ZM483.189 164.964C482.419 164.964 481.719 164.789 481.089 164.439C480.469 164.089 479.979 163.594 479.619 162.954C479.269 162.304 479.094 161.554 479.094 160.704C479.094 159.864 479.274 159.124 479.634 158.484C480.004 157.834 480.504 157.339 481.134 156.999C481.764 156.649 482.469 156.474 483.249 156.474C484.029 156.474 484.734 156.649 485.364 156.999C485.994 157.339 486.489 157.829 486.849 158.469C487.219 159.109 487.404 159.854 487.404 160.704C487.404 161.554 487.214 162.304 486.834 162.954C486.464 163.594 485.959 164.089 485.319 164.439C484.679 164.789 483.969 164.964 483.189 164.964ZM483.189 163.764C483.679 163.764 484.139 163.649 484.569 163.419C484.999 163.189 485.344 162.844 485.604 162.384C485.874 161.924 486.009 161.364 486.009 160.704C486.009 160.044 485.879 159.484 485.619 159.024C485.359 158.564 485.019 158.224 484.599 158.004C484.179 157.774 483.724 157.659 483.234 157.659C482.734 157.659 482.274 157.774 481.854 158.004C481.444 158.224 481.114 158.564 480.864 159.024C480.614 159.484 480.489 160.044 480.489 160.704C480.489 161.374 480.609 161.939 480.849 162.399C481.099 162.859 481.429 163.204 481.839 163.434C482.249 163.654 482.699 163.764 483.189 163.764ZM490.564 157.944C490.804 157.474 491.144 157.109 491.584 156.849C492.034 156.589 492.579 156.459 493.219 156.459V157.869H492.859C491.329 157.869 490.564 158.699 490.564 160.359V164.829H489.199V156.609H490.564V157.944ZM502.295 160.404C502.295 160.664 502.28 160.939 502.25 161.229H495.68C495.73 162.039 496.005 162.674 496.505 163.134C497.015 163.584 497.63 163.809 498.35 163.809C498.94 163.809 499.43 163.674 499.82 163.404C500.22 163.124 500.5 162.754 500.66 162.294H502.13C501.91 163.084 501.47 163.729 500.81 164.229C500.15 164.719 499.33 164.964 498.35 164.964C497.57 164.964 496.87 164.789 496.25 164.439C495.64 164.089 495.16 163.594 494.81 162.954C494.46 162.304 494.285 161.554 494.285 160.704C494.285 159.854 494.455 159.109 494.795 158.469C495.135 157.829 495.61 157.339 496.22 156.999C496.84 156.649 497.55 156.474 498.35 156.474C499.13 156.474 499.82 156.644 500.42 156.984C501.02 157.324 501.48 157.794 501.8 158.394C502.13 158.984 502.295 159.654 502.295 160.404ZM500.885 160.119C500.885 159.599 500.77 159.154 500.54 158.784C500.31 158.404 499.995 158.119 499.595 157.929C499.205 157.729 498.77 157.629 498.29 157.629C497.6 157.629 497.01 157.849 496.52 158.289C496.04 158.729 495.765 159.339 495.695 160.119H500.885Z" fill="#394253" fill-opacity="0.8"/>
<rect width="11.4286" height="11.4286" transform="translate(514.738 153.938)" fill="#394253"/>
<rect width="11.4286" height="11.4286" transform="translate(514.738 153.938)" fill="white"/>
<rect x="515.309" y="154.51" width="10.2857" height="10.2857" rx="5.14286" stroke="#52DE97" stroke-width="1.14286"/>
<path d="M520.452 158.08L520.452 162.918M520.452 157.355L520.452 156.387" stroke="#52DE97" stroke-width="1.14286"/>
</svg>
