<svg width="623" height="236" viewBox="0 0 623 236" fill="none" xmlns="http://www.w3.org/2000/svg">
<g filter="url(#filter0_d_137_16640)">
<rect x="6" y="4" width="611" height="224" rx="20" fill="#F9F9F9"/>
<path d="M77.52 30.24V51H74.79V35.52L67.89 51H65.97L59.04 35.49V51H56.31V30.24H59.25L66.93 47.4L74.61 30.24H77.52ZM89.3198 51.27C87.7798 51.27 86.3798 50.92 85.1198 50.22C83.8798 49.52 82.8998 48.53 82.1798 47.25C81.4798 45.95 81.1298 44.45 81.1298 42.75C81.1298 41.07 81.4898 39.59 82.2098 38.31C82.9498 37.01 83.9498 36.02 85.2098 35.34C86.4698 34.64 87.8798 34.29 89.4398 34.29C90.9998 34.29 92.4098 34.64 93.6698 35.34C94.9298 36.02 95.9198 37 96.6398 38.28C97.3798 39.56 97.7498 41.05 97.7498 42.75C97.7498 44.45 97.3698 45.95 96.6098 47.25C95.8698 48.53 94.8598 49.52 93.5798 50.22C92.2998 50.92 90.8798 51.27 89.3198 51.27ZM89.3198 48.87C90.2998 48.87 91.2198 48.64 92.0798 48.18C92.9398 47.72 93.6298 47.03 94.1498 46.11C94.6898 45.19 94.9598 44.07 94.9598 42.75C94.9598 41.43 94.6998 40.31 94.1798 39.39C93.6598 38.47 92.9798 37.79 92.1398 37.35C91.2998 36.89 90.3898 36.66 89.4098 36.66C88.4098 36.66 87.4898 36.89 86.6498 37.35C85.8298 37.79 85.1698 38.47 84.6698 39.39C84.1698 40.31 83.9198 41.43 83.9198 42.75C83.9198 44.09 84.1598 45.22 84.6398 46.14C85.1398 47.06 85.7998 47.75 86.6198 48.21C87.4398 48.65 88.3398 48.87 89.3198 48.87ZM100.319 42.72C100.319 41.04 100.659 39.57 101.339 38.31C102.019 37.03 102.949 36.04 104.129 35.34C105.329 34.64 106.669 34.29 108.149 34.29C109.429 34.29 110.619 34.59 111.719 35.19C112.819 35.77 113.659 36.54 114.239 37.5V28.8H116.999V51H114.239V47.91C113.699 48.89 112.899 49.7 111.839 50.34C110.779 50.96 109.539 51.27 108.119 51.27C106.659 51.27 105.329 50.91 104.129 50.19C102.949 49.47 102.019 48.46 101.339 47.16C100.659 45.86 100.319 44.38 100.319 42.72ZM114.239 42.75C114.239 41.51 113.989 40.43 113.489 39.51C112.989 38.59 112.309 37.89 111.449 37.41C110.609 36.91 109.679 36.66 108.659 36.66C107.639 36.66 106.709 36.9 105.869 37.38C105.029 37.86 104.359 38.56 103.859 39.48C103.359 40.4 103.109 41.48 103.109 42.72C103.109 43.98 103.359 45.08 103.859 46.02C104.359 46.94 105.029 47.65 105.869 48.15C106.709 48.63 107.639 48.87 108.659 48.87C109.679 48.87 110.609 48.63 111.449 48.15C112.309 47.65 112.989 46.94 113.489 46.02C113.989 45.08 114.239 43.99 114.239 42.75ZM136.613 42.15C136.613 42.67 136.583 43.22 136.523 43.8H123.383C123.483 45.42 124.033 46.69 125.033 47.61C126.053 48.51 127.283 48.96 128.723 48.96C129.903 48.96 130.883 48.69 131.663 48.15C132.463 47.59 133.023 46.85 133.343 45.93H136.283C135.843 47.51 134.963 48.8 133.643 49.8C132.323 50.78 130.683 51.27 128.723 51.27C127.163 51.27 125.763 50.92 124.523 50.22C123.303 49.52 122.343 48.53 121.643 47.25C120.943 45.95 120.593 44.45 120.593 42.75C120.593 41.05 120.933 39.56 121.613 38.28C122.293 37 123.243 36.02 124.463 35.34C125.703 34.64 127.123 34.29 128.723 34.29C130.283 34.29 131.663 34.63 132.863 35.31C134.063 35.99 134.983 36.93 135.623 38.13C136.283 39.31 136.613 40.65 136.613 42.15ZM133.793 41.58C133.793 40.54 133.563 39.65 133.103 38.91C132.643 38.15 132.013 37.58 131.213 37.2C130.433 36.8 129.563 36.6 128.603 36.6C127.223 36.6 126.043 37.04 125.063 37.92C124.103 38.8 123.553 40.02 123.413 41.58H133.793ZM142.946 28.8V51H140.216V28.8H142.946ZM154.817 48.81C157.357 46.77 159.347 45.1 160.787 43.8C162.227 42.48 163.437 41.11 164.417 39.69C165.417 38.25 165.917 36.84 165.917 35.46C165.917 34.16 165.597 33.14 164.957 32.4C164.337 31.64 163.327 31.26 161.927 31.26C160.567 31.26 159.507 31.69 158.747 32.55C158.007 33.39 157.607 34.52 157.547 35.94H154.907C154.987 33.7 155.667 31.97 156.947 30.75C158.227 29.53 159.877 28.92 161.897 28.92C163.957 28.92 165.587 29.49 166.787 30.63C168.007 31.77 168.617 33.34 168.617 35.34C168.617 37 168.117 38.62 167.117 40.2C166.137 41.76 165.017 43.14 163.757 44.34C162.497 45.52 160.887 46.9 158.927 48.48H169.247V50.76H154.817V48.81Z" fill="#394253"/>
<path d="M55.78 106.26C56.2333 105.9 56.44 105.733 56.4 105.76C57.7067 104.68 58.7333 103.793 59.48 103.1C60.24 102.407 60.88 101.68 61.4 100.92C61.92 100.16 62.18 99.42 62.18 98.7C62.18 98.1533 62.0533 97.7267 61.8 97.42C61.5467 97.1133 61.1667 96.96 60.66 96.96C60.1533 96.96 59.7533 97.1533 59.46 97.54C59.18 97.9133 59.04 98.4467 59.04 99.14H55.74C55.7667 98.0067 56.0067 97.06 56.46 96.3C56.9267 95.54 57.5333 94.98 58.28 94.62C59.04 94.26 59.88 94.08 60.8 94.08C62.3867 94.08 63.58 94.4867 64.38 95.3C65.1933 96.1133 65.6 97.1733 65.6 98.48C65.6 99.9067 65.1133 101.233 64.14 102.46C63.1667 103.673 61.9267 104.86 60.42 106.02H65.82V108.8H55.78V106.26ZM71.3458 105.84L69.1258 111.58H66.9458L68.1058 105.84H71.3458ZM73.148 106.4V103.64L79.468 94.6H83.288V103.44H84.928V106.4H83.288V109H79.868V106.4H73.148ZM80.108 98.36L76.748 103.44H80.108V98.36ZM86.4831 106.26C86.9365 105.9 87.1431 105.733 87.1031 105.76C88.4098 104.68 89.4365 103.793 90.1831 103.1C90.9431 102.407 91.5831 101.68 92.1031 100.92C92.6231 100.16 92.8831 99.42 92.8831 98.7C92.8831 98.1533 92.7565 97.7267 92.5031 97.42C92.2498 97.1133 91.8698 96.96 91.3631 96.96C90.8565 96.96 90.4565 97.1533 90.1631 97.54C89.8831 97.9133 89.7431 98.4467 89.7431 99.14H86.4431C86.4698 98.0067 86.7098 97.06 87.1631 96.3C87.6298 95.54 88.2365 94.98 88.9831 94.62C89.7431 94.26 90.5831 94.08 91.5031 94.08C93.0898 94.08 94.2831 94.4867 95.0831 95.3C95.8965 96.1133 96.3031 97.1733 96.3031 98.48C96.3031 99.9067 95.8165 101.233 94.8431 102.46C93.8698 103.673 92.6298 104.86 91.1231 106.02H96.5231V108.8H86.4831V106.26ZM107.349 96.96L102.329 109H98.8289L103.909 97.34H97.6889V94.42H107.349V96.96Z" fill="#394253"/>
<path d="M64.375 144H63.01L57.52 135.675V144H56.155V133.53H57.52L63.01 141.84V133.53H64.375V144ZM70.2869 144.135C69.5169 144.135 68.8169 143.96 68.1869 143.61C67.5669 143.26 67.0769 142.765 66.7169 142.125C66.3669 141.475 66.1919 140.725 66.1919 139.875C66.1919 139.035 66.3719 138.295 66.7319 137.655C67.1019 137.005 67.6019 136.51 68.2319 136.17C68.8619 135.82 69.5669 135.645 70.3469 135.645C71.1269 135.645 71.8319 135.82 72.4619 136.17C73.0919 136.51 73.5869 137 73.9469 137.64C74.3169 138.28 74.5019 139.025 74.5019 139.875C74.5019 140.725 74.3119 141.475 73.9319 142.125C73.5619 142.765 73.0569 143.26 72.4169 143.61C71.7769 143.96 71.0669 144.135 70.2869 144.135ZM70.2869 142.935C70.7769 142.935 71.2369 142.82 71.6669 142.59C72.0969 142.36 72.4419 142.015 72.7019 141.555C72.9719 141.095 73.1069 140.535 73.1069 139.875C73.1069 139.215 72.9769 138.655 72.7169 138.195C72.4569 137.735 72.1169 137.395 71.6969 137.175C71.2769 136.945 70.8219 136.83 70.3319 136.83C69.8319 136.83 69.3719 136.945 68.9519 137.175C68.5419 137.395 68.2119 137.735 67.9619 138.195C67.7119 138.655 67.5869 139.215 67.5869 139.875C67.5869 140.545 67.7069 141.11 67.9469 141.57C68.1969 142.03 68.5269 142.375 68.9369 142.605C69.3469 142.825 69.7969 142.935 70.2869 142.935ZM76.7316 144.09C76.4716 144.09 76.2516 144 76.0716 143.82C75.8916 143.64 75.8016 143.42 75.8016 143.16C75.8016 142.9 75.8916 142.68 76.0716 142.5C76.2516 142.32 76.4716 142.23 76.7316 142.23C76.9816 142.23 77.1916 142.32 77.3616 142.5C77.5416 142.68 77.6316 142.9 77.6316 143.16C77.6316 143.42 77.5416 143.64 77.3616 143.82C77.1916 144 76.9816 144.09 76.7316 144.09ZM87.03 144.135C86.26 144.135 85.56 143.96 84.93 143.61C84.31 143.26 83.82 142.765 83.46 142.125C83.11 141.475 82.935 140.725 82.935 139.875C82.935 139.035 83.115 138.295 83.475 137.655C83.845 137.005 84.345 136.51 84.975 136.17C85.605 135.82 86.31 135.645 87.09 135.645C87.87 135.645 88.575 135.82 89.205 136.17C89.835 136.51 90.33 137 90.69 137.64C91.06 138.28 91.245 139.025 91.245 139.875C91.245 140.725 91.055 141.475 90.675 142.125C90.305 142.765 89.8 143.26 89.16 143.61C88.52 143.96 87.81 144.135 87.03 144.135ZM87.03 142.935C87.52 142.935 87.98 142.82 88.41 142.59C88.84 142.36 89.185 142.015 89.445 141.555C89.715 141.095 89.85 140.535 89.85 139.875C89.85 139.215 89.72 138.655 89.46 138.195C89.2 137.735 88.86 137.395 88.44 137.175C88.02 136.945 87.565 136.83 87.075 136.83C86.575 136.83 86.115 136.945 85.695 137.175C85.285 137.395 84.955 137.735 84.705 138.195C84.455 138.655 84.33 139.215 84.33 139.875C84.33 140.545 84.45 141.11 84.69 141.57C84.94 142.03 85.27 142.375 85.68 142.605C86.09 142.825 86.54 142.935 87.03 142.935ZM96.3848 136.905H94.6598V144H93.2948V136.905H92.2298V135.78H93.2948V135.195C93.2948 134.275 93.5298 133.605 93.9998 133.185C94.4798 132.755 95.2448 132.54 96.2948 132.54V133.68C95.6948 133.68 95.2698 133.8 95.0198 134.04C94.7798 134.27 94.6598 134.655 94.6598 135.195V135.78H96.3848V136.905ZM101.465 139.875C101.465 139.025 101.635 138.285 101.975 137.655C102.315 137.015 102.785 136.52 103.385 136.17C103.995 135.82 104.69 135.645 105.47 135.645C106.48 135.645 107.31 135.89 107.96 136.38C108.62 136.87 109.055 137.55 109.265 138.42H107.795C107.655 137.92 107.38 137.525 106.97 137.235C106.57 136.945 106.07 136.8 105.47 136.8C104.69 136.8 104.06 137.07 103.58 137.61C103.1 138.14 102.86 138.895 102.86 139.875C102.86 140.865 103.1 141.63 103.58 142.17C104.06 142.71 104.69 142.98 105.47 142.98C106.07 142.98 106.57 142.84 106.97 142.56C107.37 142.28 107.645 141.88 107.795 141.36H109.265C109.045 142.2 108.605 142.875 107.945 143.385C107.285 143.885 106.46 144.135 105.47 144.135C104.69 144.135 103.995 143.96 103.385 143.61C102.785 143.26 102.315 142.765 101.975 142.125C101.635 141.485 101.465 140.735 101.465 139.875ZM112.452 132.9V144H111.087V132.9H112.452ZM122.068 135.78V144H120.703V142.785C120.443 143.205 120.078 143.535 119.608 143.775C119.148 144.005 118.638 144.12 118.078 144.12C117.438 144.12 116.863 143.99 116.353 143.73C115.843 143.46 115.438 143.06 115.138 142.53C114.848 142 114.703 141.355 114.703 140.595V135.78H116.053V140.415C116.053 141.225 116.258 141.85 116.668 142.29C117.078 142.72 117.638 142.935 118.348 142.935C119.078 142.935 119.653 142.71 120.073 142.26C120.493 141.81 120.703 141.155 120.703 140.295V135.78H122.068ZM127.283 144.135C126.653 144.135 126.088 144.03 125.588 143.82C125.088 143.6 124.693 143.3 124.403 142.92C124.113 142.53 123.953 142.085 123.923 141.585H125.333C125.373 141.995 125.563 142.33 125.903 142.59C126.253 142.85 126.708 142.98 127.268 142.98C127.788 142.98 128.198 142.865 128.498 142.635C128.798 142.405 128.948 142.115 128.948 141.765C128.948 141.405 128.788 141.14 128.468 140.97C128.148 140.79 127.653 140.615 126.983 140.445C126.373 140.285 125.873 140.125 125.483 139.965C125.103 139.795 124.773 139.55 124.493 139.23C124.223 138.9 124.088 138.47 124.088 137.94C124.088 137.52 124.213 137.135 124.463 136.785C124.713 136.435 125.068 136.16 125.528 135.96C125.988 135.75 126.513 135.645 127.103 135.645C128.013 135.645 128.748 135.875 129.308 136.335C129.868 136.795 130.168 137.425 130.208 138.225H128.843C128.813 137.795 128.638 137.45 128.318 137.19C128.008 136.93 127.588 136.8 127.058 136.8C126.568 136.8 126.178 136.905 125.888 137.115C125.598 137.325 125.453 137.6 125.453 137.94C125.453 138.21 125.538 138.435 125.708 138.615C125.888 138.785 126.108 138.925 126.368 139.035C126.638 139.135 127.008 139.25 127.478 139.38C128.068 139.54 128.548 139.7 128.918 139.86C129.288 140.01 129.603 140.24 129.863 140.55C130.133 140.86 130.273 141.265 130.283 141.765C130.283 142.215 130.158 142.62 129.908 142.98C129.658 143.34 129.303 143.625 128.843 143.835C128.393 144.035 127.873 144.135 127.283 144.135ZM133.875 136.905V141.75C133.875 142.15 133.96 142.435 134.13 142.605C134.3 142.765 134.595 142.845 135.015 142.845H136.02V144H134.79C134.03 144 133.46 143.825 133.08 143.475C132.7 143.125 132.51 142.55 132.51 141.75V136.905H131.445V135.78H132.51V133.71H133.875V135.78H136.02V136.905H133.875ZM145.174 139.575C145.174 139.835 145.159 140.11 145.129 140.4H138.559C138.609 141.21 138.884 141.845 139.384 142.305C139.894 142.755 140.509 142.98 141.229 142.98C141.819 142.98 142.309 142.845 142.699 142.575C143.099 142.295 143.379 141.925 143.539 141.465H145.009C144.789 142.255 144.349 142.9 143.689 143.4C143.029 143.89 142.209 144.135 141.229 144.135C140.449 144.135 139.749 143.96 139.129 143.61C138.519 143.26 138.039 142.765 137.689 142.125C137.339 141.475 137.164 140.725 137.164 139.875C137.164 139.025 137.334 138.28 137.674 137.64C138.014 137 138.489 136.51 139.099 136.17C139.719 135.82 140.429 135.645 141.229 135.645C142.009 135.645 142.699 135.815 143.299 136.155C143.899 136.495 144.359 136.965 144.679 137.565C145.009 138.155 145.174 138.825 145.174 139.575ZM143.764 139.29C143.764 138.77 143.649 138.325 143.419 137.955C143.189 137.575 142.874 137.29 142.474 137.1C142.084 136.9 141.649 136.8 141.169 136.8C140.479 136.8 139.889 137.02 139.399 137.46C138.919 137.9 138.644 138.51 138.574 139.29H143.764ZM148.34 137.115C148.58 136.645 148.92 136.28 149.36 136.02C149.81 135.76 150.355 135.63 150.995 135.63V137.04H150.635C149.105 137.04 148.34 137.87 148.34 139.53V144H146.975V135.78H148.34V137.115ZM155.481 144.135C154.851 144.135 154.286 144.03 153.786 143.82C153.286 143.6 152.891 143.3 152.601 142.92C152.311 142.53 152.151 142.085 152.121 141.585H153.531C153.571 141.995 153.761 142.33 154.101 142.59C154.451 142.85 154.906 142.98 155.466 142.98C155.986 142.98 156.396 142.865 156.696 142.635C156.996 142.405 157.146 142.115 157.146 141.765C157.146 141.405 156.986 141.14 156.666 140.97C156.346 140.79 155.851 140.615 155.181 140.445C154.571 140.285 154.071 140.125 153.681 139.965C153.301 139.795 152.971 139.55 152.691 139.23C152.421 138.9 152.286 138.47 152.286 137.94C152.286 137.52 152.411 137.135 152.661 136.785C152.911 136.435 153.266 136.16 153.726 135.96C154.186 135.75 154.711 135.645 155.301 135.645C156.211 135.645 156.946 135.875 157.506 136.335C158.066 136.795 158.366 137.425 158.406 138.225H157.041C157.011 137.795 156.836 137.45 156.516 137.19C156.206 136.93 155.786 136.8 155.256 136.8C154.766 136.8 154.376 136.905 154.086 137.115C153.796 137.325 153.651 137.6 153.651 137.94C153.651 138.21 153.736 138.435 153.906 138.615C154.086 138.785 154.306 138.925 154.566 139.035C154.836 139.135 155.206 139.25 155.676 139.38C156.266 139.54 156.746 139.7 157.116 139.86C157.486 140.01 157.801 140.24 158.061 140.55C158.331 140.86 158.471 141.265 158.481 141.765C158.481 142.215 158.356 142.62 158.106 142.98C157.856 143.34 157.501 143.625 157.041 143.835C156.591 144.035 156.071 144.135 155.481 144.135Z" fill="#394253" fill-opacity="0.8"/>
<path d="M56.02 158.52C56.0733 157.093 56.54 155.993 57.42 155.22C58.3 154.447 59.4933 154.06 61 154.06C62 154.06 62.8533 154.233 63.56 154.58C64.28 154.927 64.82 155.4 65.18 156C65.5533 156.6 65.74 157.273 65.74 158.02C65.74 158.9 65.52 159.62 65.08 160.18C64.64 160.727 64.1267 161.1 63.54 161.3V161.38C64.3 161.633 64.9 162.053 65.34 162.64C65.78 163.227 66 163.98 66 164.9C66 165.727 65.8067 166.46 65.42 167.1C65.0467 167.727 64.4933 168.22 63.76 168.58C63.04 168.94 62.18 169.12 61.18 169.12C59.58 169.12 58.3 168.727 57.34 167.94C56.3933 167.153 55.8933 165.967 55.84 164.38H59.16C59.1733 164.967 59.34 165.433 59.66 165.78C59.98 166.113 60.4467 166.28 61.06 166.28C61.58 166.28 61.98 166.133 62.26 165.84C62.5533 165.533 62.7 165.133 62.7 164.64C62.7 164 62.4933 163.54 62.08 163.26C61.68 162.967 61.0333 162.82 60.14 162.82H59.5V160.04H60.14C60.82 160.04 61.3667 159.927 61.78 159.7C62.2067 159.46 62.42 159.04 62.42 158.44C62.42 157.96 62.2867 157.587 62.02 157.32C61.7533 157.053 61.3867 156.92 60.92 156.92C60.4133 156.92 60.0333 157.073 59.78 157.38C59.54 157.687 59.4 158.067 59.36 158.52H56.02Z" fill="#394253"/>
<path d="M64.375 85H63.01L57.52 76.675V85H56.155V74.53H57.52L63.01 82.84V74.53H64.375V85ZM70.2869 85.135C69.5169 85.135 68.8169 84.96 68.1869 84.61C67.5669 84.26 67.0769 83.765 66.7169 83.125C66.3669 82.475 66.1919 81.725 66.1919 80.875C66.1919 80.035 66.3719 79.295 66.7319 78.655C67.1019 78.005 67.6019 77.51 68.2319 77.17C68.8619 76.82 69.5669 76.645 70.3469 76.645C71.1269 76.645 71.8319 76.82 72.4619 77.17C73.0919 77.51 73.5869 78 73.9469 78.64C74.3169 79.28 74.5019 80.025 74.5019 80.875C74.5019 81.725 74.3119 82.475 73.9319 83.125C73.5619 83.765 73.0569 84.26 72.4169 84.61C71.7769 84.96 71.0669 85.135 70.2869 85.135ZM70.2869 83.935C70.7769 83.935 71.2369 83.82 71.6669 83.59C72.0969 83.36 72.4419 83.015 72.7019 82.555C72.9719 82.095 73.1069 81.535 73.1069 80.875C73.1069 80.215 72.9769 79.655 72.7169 79.195C72.4569 78.735 72.1169 78.395 71.6969 78.175C71.2769 77.945 70.8219 77.83 70.3319 77.83C69.8319 77.83 69.3719 77.945 68.9519 78.175C68.5419 78.395 68.2119 78.735 67.9619 79.195C67.7119 79.655 67.5869 80.215 67.5869 80.875C67.5869 81.545 67.7069 82.11 67.9469 82.57C68.1969 83.03 68.5269 83.375 68.9369 83.605C69.3469 83.825 69.7969 83.935 70.2869 83.935ZM76.7316 85.09C76.4716 85.09 76.2516 85 76.0716 84.82C75.8916 84.64 75.8016 84.42 75.8016 84.16C75.8016 83.9 75.8916 83.68 76.0716 83.5C76.2516 83.32 76.4716 83.23 76.7316 83.23C76.9816 83.23 77.1916 83.32 77.3616 83.5C77.5416 83.68 77.6316 83.9 77.6316 84.16C77.6316 84.42 77.5416 84.64 77.3616 84.82C77.1916 85 76.9816 85.09 76.7316 85.09ZM87.03 85.135C86.26 85.135 85.56 84.96 84.93 84.61C84.31 84.26 83.82 83.765 83.46 83.125C83.11 82.475 82.935 81.725 82.935 80.875C82.935 80.035 83.115 79.295 83.475 78.655C83.845 78.005 84.345 77.51 84.975 77.17C85.605 76.82 86.31 76.645 87.09 76.645C87.87 76.645 88.575 76.82 89.205 77.17C89.835 77.51 90.33 78 90.69 78.64C91.06 79.28 91.245 80.025 91.245 80.875C91.245 81.725 91.055 82.475 90.675 83.125C90.305 83.765 89.8 84.26 89.16 84.61C88.52 84.96 87.81 85.135 87.03 85.135ZM87.03 83.935C87.52 83.935 87.98 83.82 88.41 83.59C88.84 83.36 89.185 83.015 89.445 82.555C89.715 82.095 89.85 81.535 89.85 80.875C89.85 80.215 89.72 79.655 89.46 79.195C89.2 78.735 88.86 78.395 88.44 78.175C88.02 77.945 87.565 77.83 87.075 77.83C86.575 77.83 86.115 77.945 85.695 78.175C85.285 78.395 84.955 78.735 84.705 79.195C84.455 79.655 84.33 80.215 84.33 80.875C84.33 81.545 84.45 82.11 84.69 82.57C84.94 83.03 85.27 83.375 85.68 83.605C86.09 83.825 86.54 83.935 87.03 83.935ZM96.3848 77.905H94.6598V85H93.2948V77.905H92.2298V76.78H93.2948V76.195C93.2948 75.275 93.5298 74.605 93.9998 74.185C94.4798 73.755 95.2448 73.54 96.2948 73.54V74.68C95.6948 74.68 95.2698 74.8 95.0198 75.04C94.7798 75.27 94.6598 75.655 94.6598 76.195V76.78H96.3848V77.905ZM104.885 85.135C104.255 85.135 103.69 85.03 103.19 84.82C102.69 84.6 102.295 84.3 102.005 83.92C101.715 83.53 101.555 83.085 101.525 82.585H102.935C102.975 82.995 103.165 83.33 103.505 83.59C103.855 83.85 104.31 83.98 104.87 83.98C105.39 83.98 105.8 83.865 106.1 83.635C106.4 83.405 106.55 83.115 106.55 82.765C106.55 82.405 106.39 82.14 106.07 81.97C105.75 81.79 105.255 81.615 104.585 81.445C103.975 81.285 103.475 81.125 103.085 80.965C102.705 80.795 102.375 80.55 102.095 80.23C101.825 79.9 101.69 79.47 101.69 78.94C101.69 78.52 101.815 78.135 102.065 77.785C102.315 77.435 102.67 77.16 103.13 76.96C103.59 76.75 104.115 76.645 104.705 76.645C105.615 76.645 106.35 76.875 106.91 77.335C107.47 77.795 107.77 78.425 107.81 79.225H106.445C106.415 78.795 106.24 78.45 105.92 78.19C105.61 77.93 105.19 77.8 104.66 77.8C104.17 77.8 103.78 77.905 103.49 78.115C103.2 78.325 103.055 78.6 103.055 78.94C103.055 79.21 103.14 79.435 103.31 79.615C103.49 79.785 103.71 79.925 103.97 80.035C104.24 80.135 104.61 80.25 105.08 80.38C105.67 80.54 106.15 80.7 106.52 80.86C106.89 81.01 107.205 81.24 107.465 81.55C107.735 81.86 107.875 82.265 107.885 82.765C107.885 83.215 107.76 83.62 107.51 83.98C107.26 84.34 106.905 84.625 106.445 84.835C105.995 85.035 105.475 85.135 104.885 85.135ZM109.302 80.86C109.302 80.02 109.472 79.285 109.812 78.655C110.152 78.015 110.617 77.52 111.207 77.17C111.807 76.82 112.472 76.645 113.202 76.645C113.922 76.645 114.547 76.8 115.077 77.11C115.607 77.42 116.002 77.81 116.262 78.28V76.78H117.642V85H116.262V83.47C115.992 83.95 115.587 84.35 115.047 84.67C114.517 84.98 113.897 85.135 113.187 85.135C112.457 85.135 111.797 84.955 111.207 84.595C110.617 84.235 110.152 83.73 109.812 83.08C109.472 82.43 109.302 81.69 109.302 80.86ZM116.262 80.875C116.262 80.255 116.137 79.715 115.887 79.255C115.637 78.795 115.297 78.445 114.867 78.205C114.447 77.955 113.982 77.83 113.472 77.83C112.962 77.83 112.497 77.95 112.077 78.19C111.657 78.43 111.322 78.78 111.072 79.24C110.822 79.7 110.697 80.24 110.697 80.86C110.697 81.49 110.822 82.04 111.072 82.51C111.322 82.97 111.657 83.325 112.077 83.575C112.497 83.815 112.962 83.935 113.472 83.935C113.982 83.935 114.447 83.815 114.867 83.575C115.297 83.325 115.637 82.97 115.887 82.51C116.137 82.04 116.262 81.495 116.262 80.875ZM129.834 76.63C130.474 76.63 131.044 76.765 131.544 77.035C132.044 77.295 132.439 77.69 132.729 78.22C133.019 78.75 133.164 79.395 133.164 80.155V85H131.814V80.35C131.814 79.53 131.609 78.905 131.199 78.475C130.799 78.035 130.254 77.815 129.564 77.815C128.854 77.815 128.289 78.045 127.869 78.505C127.449 78.955 127.239 79.61 127.239 80.47V85H125.889V80.35C125.889 79.53 125.684 78.905 125.274 78.475C124.874 78.035 124.329 77.815 123.639 77.815C122.929 77.815 122.364 78.045 121.944 78.505C121.524 78.955 121.314 79.61 121.314 80.47V85H119.949V76.78H121.314V77.965C121.584 77.535 121.944 77.205 122.394 76.975C122.854 76.745 123.359 76.63 123.909 76.63C124.599 76.63 125.209 76.785 125.739 77.095C126.269 77.405 126.664 77.86 126.924 78.46C127.154 77.88 127.534 77.43 128.064 77.11C128.594 76.79 129.184 76.63 129.834 76.63ZM136.768 78.295C137.038 77.825 137.438 77.435 137.968 77.125C138.508 76.805 139.133 76.645 139.843 76.645C140.573 76.645 141.233 76.82 141.823 77.17C142.423 77.52 142.893 78.015 143.233 78.655C143.573 79.285 143.743 80.02 143.743 80.86C143.743 81.69 143.573 82.43 143.233 83.08C142.893 83.73 142.423 84.235 141.823 84.595C141.233 84.955 140.573 85.135 139.843 85.135C139.143 85.135 138.523 84.98 137.983 84.67C137.453 84.35 137.048 83.955 136.768 83.485V88.9H135.403V76.78H136.768V78.295ZM142.348 80.86C142.348 80.24 142.223 79.7 141.973 79.24C141.723 78.78 141.383 78.43 140.953 78.19C140.533 77.95 140.068 77.83 139.558 77.83C139.058 77.83 138.593 77.955 138.163 78.205C137.743 78.445 137.403 78.8 137.143 79.27C136.893 79.73 136.768 80.265 136.768 80.875C136.768 81.495 136.893 82.04 137.143 82.51C137.403 82.97 137.743 83.325 138.163 83.575C138.593 83.815 139.058 83.935 139.558 83.935C140.068 83.935 140.533 83.815 140.953 83.575C141.383 83.325 141.723 82.97 141.973 82.51C142.223 82.04 142.348 81.49 142.348 80.86ZM146.905 73.9V85H145.54V73.9H146.905ZM156.731 80.575C156.731 80.835 156.716 81.11 156.686 81.4H150.116C150.166 82.21 150.441 82.845 150.941 83.305C151.451 83.755 152.066 83.98 152.786 83.98C153.376 83.98 153.866 83.845 154.256 83.575C154.656 83.295 154.936 82.925 155.096 82.465H156.566C156.346 83.255 155.906 83.9 155.246 84.4C154.586 84.89 153.766 85.135 152.786 85.135C152.006 85.135 151.306 84.96 150.686 84.61C150.076 84.26 149.596 83.765 149.246 83.125C148.896 82.475 148.721 81.725 148.721 80.875C148.721 80.025 148.891 79.28 149.231 78.64C149.571 78 150.046 77.51 150.656 77.17C151.276 76.82 151.986 76.645 152.786 76.645C153.566 76.645 154.256 76.815 154.856 77.155C155.456 77.495 155.916 77.965 156.236 78.565C156.566 79.155 156.731 79.825 156.731 80.575ZM155.321 80.29C155.321 79.77 155.206 79.325 154.976 78.955C154.746 78.575 154.431 78.29 154.031 78.1C153.641 77.9 153.206 77.8 152.726 77.8C152.036 77.8 151.446 78.02 150.956 78.46C150.476 78.9 150.201 79.51 150.131 80.29H155.321ZM161.443 85.135C160.813 85.135 160.248 85.03 159.748 84.82C159.248 84.6 158.853 84.3 158.563 83.92C158.273 83.53 158.113 83.085 158.083 82.585H159.493C159.533 82.995 159.723 83.33 160.063 83.59C160.413 83.85 160.868 83.98 161.428 83.98C161.948 83.98 162.358 83.865 162.658 83.635C162.958 83.405 163.108 83.115 163.108 82.765C163.108 82.405 162.948 82.14 162.628 81.97C162.308 81.79 161.813 81.615 161.143 81.445C160.533 81.285 160.033 81.125 159.643 80.965C159.263 80.795 158.933 80.55 158.653 80.23C158.383 79.9 158.248 79.47 158.248 78.94C158.248 78.52 158.373 78.135 158.623 77.785C158.873 77.435 159.228 77.16 159.688 76.96C160.148 76.75 160.673 76.645 161.263 76.645C162.173 76.645 162.908 76.875 163.468 77.335C164.028 77.795 164.328 78.425 164.368 79.225H163.003C162.973 78.795 162.798 78.45 162.478 78.19C162.168 77.93 161.748 77.8 161.218 77.8C160.728 77.8 160.338 77.905 160.048 78.115C159.758 78.325 159.613 78.6 159.613 78.94C159.613 79.21 159.698 79.435 159.868 79.615C160.048 79.785 160.268 79.925 160.528 80.035C160.798 80.135 161.168 80.25 161.638 80.38C162.228 80.54 162.708 80.7 163.078 80.86C163.448 81.01 163.763 81.24 164.023 81.55C164.293 81.86 164.433 82.265 164.443 82.765C164.443 83.215 164.318 83.62 164.068 83.98C163.818 84.34 163.463 84.625 163.003 84.835C162.553 85.035 162.033 85.135 161.443 85.135Z" fill="#394253" fill-opacity="0.8"/>
<path d="M60.772 203L58.614 199.295H57.184V203H56.001V193.939H58.926C59.6107 193.939 60.187 194.056 60.655 194.29C61.1317 194.524 61.487 194.84 61.721 195.239C61.955 195.638 62.072 196.093 62.072 196.604C62.072 197.228 61.89 197.778 61.526 198.255C61.1707 198.732 60.6333 199.048 59.914 199.204L62.189 203H60.772ZM57.184 198.346H58.926C59.5673 198.346 60.0483 198.19 60.369 197.878C60.6897 197.557 60.85 197.133 60.85 196.604C60.85 196.067 60.6897 195.651 60.369 195.356C60.057 195.061 59.576 194.914 58.926 194.914H57.184V198.346ZM70.4102 199.165C70.4102 199.39 70.3972 199.629 70.3712 199.88H64.6772C64.7205 200.582 64.9588 201.132 65.3922 201.531C65.8342 201.921 66.3672 202.116 66.9912 202.116C67.5025 202.116 67.9272 201.999 68.2652 201.765C68.6118 201.522 68.8545 201.202 68.9932 200.803H70.2672C70.0765 201.488 69.6952 202.047 69.1232 202.48C68.5512 202.905 67.8405 203.117 66.9912 203.117C66.3152 203.117 65.7085 202.965 65.1712 202.662C64.6425 202.359 64.2265 201.93 63.9232 201.375C63.6198 200.812 63.4682 200.162 63.4682 199.425C63.4682 198.688 63.6155 198.043 63.9102 197.488C64.2048 196.933 64.6165 196.509 65.1452 196.214C65.6825 195.911 66.2978 195.759 66.9912 195.759C67.6672 195.759 68.2652 195.906 68.7852 196.201C69.3052 196.496 69.7038 196.903 69.9812 197.423C70.2672 197.934 70.4102 198.515 70.4102 199.165ZM69.1882 198.918C69.1882 198.467 69.0885 198.082 68.8892 197.761C68.6898 197.432 68.4168 197.185 68.0702 197.02C67.7322 196.847 67.3552 196.76 66.9392 196.76C66.3412 196.76 65.8298 196.951 65.4052 197.332C64.9892 197.713 64.7508 198.242 64.6902 198.918H69.1882ZM71.5297 199.425C71.5297 198.688 71.677 198.047 71.9717 197.501C72.2664 196.946 72.6737 196.517 73.1937 196.214C73.7224 195.911 74.3247 195.759 75.0007 195.759C75.876 195.759 76.5954 195.971 77.1587 196.396C77.7307 196.821 78.1077 197.41 78.2897 198.164H77.0157C76.8944 197.731 76.656 197.388 76.3007 197.137C75.954 196.886 75.5207 196.76 75.0007 196.76C74.3247 196.76 73.7787 196.994 73.3627 197.462C72.9467 197.921 72.7387 198.576 72.7387 199.425C72.7387 200.283 72.9467 200.946 73.3627 201.414C73.7787 201.882 74.3247 202.116 75.0007 202.116C75.5207 202.116 75.954 201.995 76.3007 201.752C76.6474 201.509 76.8857 201.163 77.0157 200.712H78.2897C78.099 201.44 77.7177 202.025 77.1457 202.467C76.5737 202.9 75.8587 203.117 75.0007 203.117C74.3247 203.117 73.7224 202.965 73.1937 202.662C72.6737 202.359 72.2664 201.93 71.9717 201.375C71.677 200.82 71.5297 200.17 71.5297 199.425ZM82.9752 203.117C82.3079 203.117 81.7012 202.965 81.1552 202.662C80.6179 202.359 80.1932 201.93 79.8812 201.375C79.5779 200.812 79.4262 200.162 79.4262 199.425C79.4262 198.697 79.5822 198.056 79.8942 197.501C80.2149 196.938 80.6482 196.509 81.1942 196.214C81.7402 195.911 82.3512 195.759 83.0272 195.759C83.7032 195.759 84.3142 195.911 84.8602 196.214C85.4062 196.509 85.8352 196.933 86.1472 197.488C86.4679 198.043 86.6282 198.688 86.6282 199.425C86.6282 200.162 86.4635 200.812 86.1342 201.375C85.8135 201.93 85.3759 202.359 84.8212 202.662C84.2665 202.965 83.6512 203.117 82.9752 203.117ZM82.9752 202.077C83.3999 202.077 83.7985 201.977 84.1712 201.778C84.5439 201.579 84.8429 201.28 85.0682 200.881C85.3022 200.482 85.4192 199.997 85.4192 199.425C85.4192 198.853 85.3065 198.368 85.0812 197.969C84.8559 197.57 84.5612 197.276 84.1972 197.085C83.8332 196.886 83.4389 196.786 83.0142 196.786C82.5809 196.786 82.1822 196.886 81.8182 197.085C81.4629 197.276 81.1769 197.57 80.9602 197.969C80.7435 198.368 80.6352 198.853 80.6352 199.425C80.6352 200.006 80.7392 200.495 80.9472 200.894C81.1639 201.293 81.4499 201.592 81.8052 201.791C82.1605 201.982 82.5505 202.077 82.9752 202.077ZM96.7506 195.746C97.3053 195.746 97.7993 195.863 98.2326 196.097C98.666 196.322 99.0083 196.665 99.2596 197.124C99.511 197.583 99.6366 198.142 99.6366 198.801V203H98.4666V198.97C98.4666 198.259 98.289 197.718 97.9336 197.345C97.587 196.964 97.1146 196.773 96.5166 196.773C95.9013 196.773 95.4116 196.972 95.0476 197.371C94.6836 197.761 94.5016 198.329 94.5016 199.074V203H93.3316V198.97C93.3316 198.259 93.154 197.718 92.7986 197.345C92.452 196.964 91.9796 196.773 91.3816 196.773C90.7663 196.773 90.2766 196.972 89.9126 197.371C89.5486 197.761 89.3666 198.329 89.3666 199.074V203H88.1836V195.876H89.3666V196.903C89.6006 196.53 89.9126 196.244 90.3026 196.045C90.7013 195.846 91.139 195.746 91.6156 195.746C92.2136 195.746 92.7423 195.88 93.2016 196.149C93.661 196.418 94.0033 196.812 94.2286 197.332C94.428 196.829 94.7573 196.439 95.2166 196.162C95.676 195.885 96.1873 195.746 96.7506 195.746ZM110.144 195.746C110.699 195.746 111.193 195.863 111.626 196.097C112.06 196.322 112.402 196.665 112.653 197.124C112.905 197.583 113.03 198.142 113.03 198.801V203H111.86V198.97C111.86 198.259 111.683 197.718 111.327 197.345C110.981 196.964 110.508 196.773 109.91 196.773C109.295 196.773 108.805 196.972 108.441 197.371C108.077 197.761 107.895 198.329 107.895 199.074V203H106.725V198.97C106.725 198.259 106.548 197.718 106.192 197.345C105.846 196.964 105.373 196.773 104.775 196.773C104.16 196.773 103.67 196.972 103.306 197.371C102.942 197.761 102.76 198.329 102.76 199.074V203H101.577V195.876H102.76V196.903C102.994 196.53 103.306 196.244 103.696 196.045C104.095 195.846 104.533 195.746 105.009 195.746C105.607 195.746 106.136 195.88 106.595 196.149C107.055 196.418 107.397 196.812 107.622 197.332C107.822 196.829 108.151 196.439 108.61 196.162C109.07 195.885 109.581 195.746 110.144 195.746ZM121.471 199.165C121.471 199.39 121.458 199.629 121.432 199.88H115.738C115.781 200.582 116.019 201.132 116.453 201.531C116.895 201.921 117.428 202.116 118.052 202.116C118.563 202.116 118.988 201.999 119.326 201.765C119.672 201.522 119.915 201.202 120.054 200.803H121.328C121.137 201.488 120.756 202.047 120.184 202.48C119.612 202.905 118.901 203.117 118.052 203.117C117.376 203.117 116.769 202.965 116.232 202.662C115.703 202.359 115.287 201.93 114.984 201.375C114.68 200.812 114.529 200.162 114.529 199.425C114.529 198.688 114.676 198.043 114.971 197.488C115.265 196.933 115.677 196.509 116.206 196.214C116.743 195.911 117.358 195.759 118.052 195.759C118.728 195.759 119.326 195.906 119.846 196.201C120.366 196.496 120.764 196.903 121.042 197.423C121.328 197.934 121.471 198.515 121.471 199.165ZM120.249 198.918C120.249 198.467 120.149 198.082 119.95 197.761C119.75 197.432 119.477 197.185 119.131 197.02C118.793 196.847 118.416 196.76 118 196.76C117.402 196.76 116.89 196.951 116.466 197.332C116.05 197.713 115.811 198.242 115.751 198.918H120.249ZM126.503 195.746C127.37 195.746 128.072 196.01 128.609 196.539C129.147 197.059 129.415 197.813 129.415 198.801V203H128.245V198.97C128.245 198.259 128.068 197.718 127.712 197.345C127.357 196.964 126.872 196.773 126.256 196.773C125.632 196.773 125.134 196.968 124.761 197.358C124.397 197.748 124.215 198.316 124.215 199.061V203H123.032V195.876H124.215V196.89C124.449 196.526 124.766 196.244 125.164 196.045C125.572 195.846 126.018 195.746 126.503 195.746ZM130.906 199.412C130.906 198.684 131.053 198.047 131.348 197.501C131.642 196.946 132.045 196.517 132.557 196.214C133.077 195.911 133.657 195.759 134.299 195.759C134.853 195.759 135.369 195.889 135.846 196.149C136.322 196.4 136.686 196.734 136.938 197.15V193.38H138.134V203H136.938V201.661C136.704 202.086 136.357 202.437 135.898 202.714C135.438 202.983 134.901 203.117 134.286 203.117C133.653 203.117 133.077 202.961 132.557 202.649C132.045 202.337 131.642 201.899 131.348 201.336C131.053 200.773 130.906 200.131 130.906 199.412ZM136.938 199.425C136.938 198.888 136.829 198.42 136.613 198.021C136.396 197.622 136.101 197.319 135.729 197.111C135.365 196.894 134.962 196.786 134.52 196.786C134.078 196.786 133.675 196.89 133.311 197.098C132.947 197.306 132.656 197.609 132.44 198.008C132.223 198.407 132.115 198.875 132.115 199.412C132.115 199.958 132.223 200.435 132.44 200.842C132.656 201.241 132.947 201.548 133.311 201.765C133.675 201.973 134.078 202.077 134.52 202.077C134.962 202.077 135.365 201.973 135.729 201.765C136.101 201.548 136.396 201.241 136.613 200.842C136.829 200.435 136.938 199.962 136.938 199.425ZM146.633 199.165C146.633 199.39 146.62 199.629 146.594 199.88H140.9C140.943 200.582 141.182 201.132 141.615 201.531C142.057 201.921 142.59 202.116 143.214 202.116C143.725 202.116 144.15 201.999 144.488 201.765C144.835 201.522 145.077 201.202 145.216 200.803H146.49C146.299 201.488 145.918 202.047 145.346 202.48C144.774 202.905 144.063 203.117 143.214 203.117C142.538 203.117 141.931 202.965 141.394 202.662C140.865 202.359 140.449 201.93 140.146 201.375C139.843 200.812 139.691 200.162 139.691 199.425C139.691 198.688 139.838 198.043 140.133 197.488C140.428 196.933 140.839 196.509 141.368 196.214C141.905 195.911 142.521 195.759 143.214 195.759C143.89 195.759 144.488 195.906 145.008 196.201C145.528 196.496 145.927 196.903 146.204 197.423C146.49 197.934 146.633 198.515 146.633 199.165ZM145.411 198.918C145.411 198.467 145.311 198.082 145.112 197.761C144.913 197.432 144.64 197.185 144.293 197.02C143.955 196.847 143.578 196.76 143.162 196.76C142.564 196.76 142.053 196.951 141.628 197.332C141.212 197.713 140.974 198.242 140.913 198.918H145.411ZM147.752 199.412C147.752 198.684 147.9 198.047 148.194 197.501C148.489 196.946 148.892 196.517 149.403 196.214C149.923 195.911 150.504 195.759 151.145 195.759C151.7 195.759 152.216 195.889 152.692 196.149C153.169 196.4 153.533 196.734 153.784 197.15V193.38H154.98V203H153.784V201.661C153.55 202.086 153.204 202.437 152.744 202.714C152.285 202.983 151.748 203.117 151.132 203.117C150.5 203.117 149.923 202.961 149.403 202.649C148.892 202.337 148.489 201.899 148.194 201.336C147.9 200.773 147.752 200.131 147.752 199.412ZM153.784 199.425C153.784 198.888 153.676 198.42 153.459 198.021C153.243 197.622 152.948 197.319 152.575 197.111C152.211 196.894 151.808 196.786 151.366 196.786C150.924 196.786 150.521 196.89 150.157 197.098C149.793 197.306 149.503 197.609 149.286 198.008C149.07 198.407 148.961 198.875 148.961 199.412C148.961 199.958 149.07 200.435 149.286 200.842C149.503 201.241 149.793 201.548 150.157 201.765C150.521 201.973 150.924 202.077 151.366 202.077C151.808 202.077 152.211 201.973 152.575 201.765C152.948 201.548 153.243 201.241 153.459 200.842C153.676 200.435 153.784 199.962 153.784 199.425Z" fill="#394253"/>
<path d="M189.512 44.727V51H188.693V44.727H189.512ZM193.811 45.978C194.411 45.978 194.897 46.161 195.269 46.527C195.641 46.887 195.827 47.409 195.827 48.093V51H195.017V48.21C195.017 47.718 194.894 47.343 194.648 47.085C194.402 46.821 194.066 46.689 193.64 46.689C193.208 46.689 192.863 46.824 192.605 47.094C192.353 47.364 192.227 47.757 192.227 48.273V51H191.408V46.068H192.227V46.77C192.389 46.518 192.608 46.323 192.884 46.185C193.166 46.047 193.475 45.978 193.811 45.978ZM204.272 49.605H201.536L201.032 51H200.168L202.436 44.763H203.381L205.64 51H204.776L204.272 49.605ZM204.038 48.939L202.904 45.771L201.77 48.939H204.038ZM209.532 45.978C210.132 45.978 210.618 46.161 210.99 46.527C211.362 46.887 211.548 47.409 211.548 48.093V51H210.738V48.21C210.738 47.718 210.615 47.343 210.369 47.085C210.123 46.821 209.787 46.689 209.361 46.689C208.929 46.689 208.584 46.824 208.326 47.094C208.074 47.364 207.948 47.757 207.948 48.273V51H207.129V46.068H207.948V46.77C208.11 46.518 208.329 46.323 208.605 46.185C208.887 46.047 209.196 45.978 209.532 45.978ZM213.079 48.516C213.079 48.012 213.181 47.571 213.385 47.193C213.589 46.809 213.868 46.512 214.222 46.302C214.582 46.092 214.981 45.987 215.419 45.987C215.851 45.987 216.226 46.08 216.544 46.266C216.862 46.452 217.099 46.686 217.255 46.968V46.068H218.083V51H217.255V50.082C217.093 50.37 216.85 50.61 216.526 50.802C216.208 50.988 215.836 51.081 215.41 51.081C214.972 51.081 214.576 50.973 214.222 50.757C213.868 50.541 213.589 50.238 213.385 49.848C213.181 49.458 213.079 49.014 213.079 48.516ZM217.255 48.525C217.255 48.153 217.18 47.829 217.03 47.553C216.88 47.277 216.676 47.067 216.418 46.923C216.166 46.773 215.887 46.698 215.581 46.698C215.275 46.698 214.996 46.77 214.744 46.914C214.492 47.058 214.291 47.268 214.141 47.544C213.991 47.82 213.916 48.144 213.916 48.516C213.916 48.894 213.991 49.224 214.141 49.506C214.291 49.782 214.492 49.995 214.744 50.145C214.996 50.289 215.275 50.361 215.581 50.361C215.887 50.361 216.166 50.289 216.418 50.145C216.676 49.995 216.88 49.782 217.03 49.506C217.18 49.224 217.255 48.897 217.255 48.525ZM220.786 44.34V51H219.967V44.34H220.786ZM226.93 46.068L223.96 53.322H223.114L224.086 50.946L222.097 46.068H223.006L224.554 50.064L226.084 46.068H226.93ZM230 51.081C229.622 51.081 229.283 51.018 228.983 50.892C228.683 50.76 228.446 50.58 228.272 50.352C228.098 50.118 228.002 49.851 227.984 49.551H228.83C228.854 49.797 228.968 49.998 229.172 50.154C229.382 50.31 229.655 50.388 229.991 50.388C230.303 50.388 230.549 50.319 230.729 50.181C230.909 50.043 230.999 49.869 230.999 49.659C230.999 49.443 230.903 49.284 230.711 49.182C230.519 49.074 230.222 48.969 229.82 48.867C229.454 48.771 229.154 48.675 228.92 48.579C228.692 48.477 228.494 48.33 228.326 48.138C228.164 47.94 228.083 47.682 228.083 47.364C228.083 47.112 228.158 46.881 228.308 46.671C228.458 46.461 228.671 46.296 228.947 46.176C229.223 46.05 229.538 45.987 229.892 45.987C230.438 45.987 230.879 46.125 231.215 46.401C231.551 46.677 231.731 47.055 231.755 47.535H230.936C230.918 47.277 230.813 47.07 230.621 46.914C230.435 46.758 230.183 46.68 229.865 46.68C229.571 46.68 229.337 46.743 229.163 46.869C228.989 46.995 228.902 47.16 228.902 47.364C228.902 47.526 228.953 47.661 229.055 47.769C229.163 47.871 229.295 47.955 229.451 48.021C229.613 48.081 229.835 48.15 230.117 48.228C230.471 48.324 230.759 48.42 230.981 48.516C231.203 48.606 231.392 48.744 231.548 48.93C231.71 49.116 231.794 49.359 231.8 49.659C231.8 49.929 231.725 50.172 231.575 50.388C231.425 50.604 231.212 50.775 230.936 50.901C230.666 51.021 230.354 51.081 230 51.081ZM233.879 45.267C233.723 45.267 233.591 45.213 233.483 45.105C233.375 44.997 233.321 44.865 233.321 44.709C233.321 44.553 233.375 44.421 233.483 44.313C233.591 44.205 233.723 44.151 233.879 44.151C234.029 44.151 234.155 44.205 234.257 44.313C234.365 44.421 234.419 44.553 234.419 44.709C234.419 44.865 234.365 44.997 234.257 45.105C234.155 45.213 234.029 45.267 233.879 45.267ZM234.275 46.068V51H233.456V46.068H234.275ZM237.917 51.081C237.539 51.081 237.2 51.018 236.9 50.892C236.6 50.76 236.363 50.58 236.189 50.352C236.015 50.118 235.919 49.851 235.901 49.551H236.747C236.771 49.797 236.885 49.998 237.089 50.154C237.299 50.31 237.572 50.388 237.908 50.388C238.22 50.388 238.466 50.319 238.646 50.181C238.826 50.043 238.916 49.869 238.916 49.659C238.916 49.443 238.82 49.284 238.628 49.182C238.436 49.074 238.139 48.969 237.737 48.867C237.371 48.771 237.071 48.675 236.837 48.579C236.609 48.477 236.411 48.33 236.243 48.138C236.081 47.94 236 47.682 236 47.364C236 47.112 236.075 46.881 236.225 46.671C236.375 46.461 236.588 46.296 236.864 46.176C237.14 46.05 237.455 45.987 237.809 45.987C238.355 45.987 238.796 46.125 239.132 46.401C239.468 46.677 239.648 47.055 239.672 47.535H238.853C238.835 47.277 238.73 47.07 238.538 46.914C238.352 46.758 238.1 46.68 237.782 46.68C237.488 46.68 237.254 46.743 237.08 46.869C236.906 46.995 236.819 47.16 236.819 47.364C236.819 47.526 236.87 47.661 236.972 47.769C237.08 47.871 237.212 47.955 237.368 48.021C237.53 48.081 237.752 48.15 238.034 48.228C238.388 48.324 238.676 48.42 238.898 48.516C239.12 48.606 239.309 48.744 239.465 48.93C239.627 49.116 239.711 49.359 239.717 49.659C239.717 49.929 239.642 50.172 239.492 50.388C239.342 50.604 239.129 50.775 238.853 50.901C238.583 51.021 238.271 51.081 237.917 51.081Z" fill="#394253"/>
<rect x="189" y="29" width="10" height="10" fill="#13115B"/>
<path d="M353.64 168.82C353.64 156.058 356.153 143.421 361.037 131.631C365.921 119.84 373.079 109.127 382.103 100.103C391.127 91.0792 401.84 83.921 413.631 79.0372C425.421 74.1534 438.058 71.6398 450.82 71.6398C463.582 71.6398 476.219 74.1534 488.009 79.0372C499.8 83.921 510.513 91.0792 519.537 100.103C528.561 109.127 535.719 119.84 540.603 131.631C545.486 143.421 548 156.058 548 168.82L450.82 168.82L353.64 168.82Z" fill="#ADB3C0"/>
<path opacity="0.8" d="M519.536 100.103C505.946 86.5122 488.63 77.2567 469.779 73.507C450.928 69.7572 431.388 71.6817 413.631 79.0371C395.873 86.3924 380.696 98.8482 370.017 114.829C359.339 130.811 353.64 149.599 353.64 168.82L450.82 168.82L519.536 100.103Z" fill="#52DE97"/>
<path d="M358.284 168.821C358.284 144.279 368.034 120.742 385.387 103.388C402.741 86.0346 426.278 76.2854 450.82 76.2854C475.362 76.2854 498.899 86.0346 516.252 103.388C533.606 120.742 543.355 144.279 543.355 168.821L450.82 168.821L358.284 168.821Z" fill="#F9F9F9"/>
<path d="M342.907 165.679C342.907 164.647 343.075 163.843 343.411 163.267C343.747 162.685 344.335 162.394 345.175 162.394C346.009 162.394 346.594 162.685 346.93 163.267C347.266 163.843 347.434 164.647 347.434 165.679C347.434 166.729 347.266 167.545 346.93 168.127C346.594 168.709 346.009 169 345.175 169C344.335 169 343.747 168.709 343.411 168.127C343.075 167.545 342.907 166.729 342.907 165.679ZM346.624 165.679C346.624 165.157 346.588 164.716 346.516 164.356C346.45 163.99 346.309 163.696 346.093 163.474C345.883 163.252 345.577 163.141 345.175 163.141C344.767 163.141 344.455 163.252 344.239 163.474C344.029 163.696 343.888 163.99 343.816 164.356C343.75 164.716 343.717 165.157 343.717 165.679C343.717 166.219 343.75 166.672 343.816 167.038C343.888 167.404 344.029 167.698 344.239 167.92C344.455 168.142 344.767 168.253 345.175 168.253C345.577 168.253 345.883 168.142 346.093 167.92C346.309 167.698 346.45 167.404 346.516 167.038C346.588 166.672 346.624 166.219 346.624 165.679Z" fill="#ADB3C0"/>
<path d="M553.342 163.24V162.493H555.034V169H554.206V163.24H553.342ZM556.441 165.679C556.441 164.647 556.609 163.843 556.945 163.267C557.281 162.685 557.869 162.394 558.709 162.394C559.543 162.394 560.128 162.685 560.464 163.267C560.8 163.843 560.968 164.647 560.968 165.679C560.968 166.729 560.8 167.545 560.464 168.127C560.128 168.709 559.543 169 558.709 169C557.869 169 557.281 168.709 556.945 168.127C556.609 167.545 556.441 166.729 556.441 165.679ZM560.158 165.679C560.158 165.157 560.122 164.716 560.05 164.356C559.984 163.99 559.843 163.696 559.627 163.474C559.417 163.252 559.111 163.141 558.709 163.141C558.301 163.141 557.989 163.252 557.773 163.474C557.563 163.696 557.422 163.99 557.35 164.356C557.284 164.716 557.251 165.157 557.251 165.679C557.251 166.219 557.284 166.672 557.35 167.038C557.422 167.404 557.563 167.698 557.773 167.92C557.989 168.142 558.301 168.253 558.709 168.253C559.111 168.253 559.417 168.142 559.627 167.92C559.843 167.698 559.984 167.404 560.05 167.038C560.122 166.672 560.158 166.219 560.158 165.679ZM562.092 165.679C562.092 164.647 562.26 163.843 562.596 163.267C562.932 162.685 563.52 162.394 564.36 162.394C565.194 162.394 565.779 162.685 566.115 163.267C566.451 163.843 566.619 164.647 566.619 165.679C566.619 166.729 566.451 167.545 566.115 168.127C565.779 168.709 565.194 169 564.36 169C563.52 169 562.932 168.709 562.596 168.127C562.26 167.545 562.092 166.729 562.092 165.679ZM565.809 165.679C565.809 165.157 565.773 164.716 565.701 164.356C565.635 163.99 565.494 163.696 565.278 163.474C565.068 163.252 564.762 163.141 564.36 163.141C563.952 163.141 563.64 163.252 563.424 163.474C563.214 163.696 563.073 163.99 563.001 164.356C562.935 164.716 562.902 165.157 562.902 165.679C562.902 166.219 562.935 166.672 563.001 167.038C563.073 167.404 563.214 167.698 563.424 167.92C563.64 168.142 563.952 168.253 564.36 168.253C564.762 168.253 565.068 168.142 565.278 167.92C565.494 167.698 565.635 167.404 565.701 167.038C565.773 166.672 565.809 166.219 565.809 165.679Z" fill="#ADB3C0"/>
<path d="M404.62 125.329C404.62 121.201 405.412 117.949 406.996 115.573C408.604 113.197 411.184 112.009 414.736 112.009C418.288 112.009 420.856 113.197 422.44 115.573C424.048 117.949 424.852 121.201 424.852 125.329C424.852 129.505 424.048 132.781 422.44 135.157C420.856 137.533 418.288 138.721 414.736 138.721C411.184 138.721 408.604 137.533 406.996 135.157C405.412 132.781 404.62 129.505 404.62 125.329ZM418.804 125.329C418.804 122.905 418.54 121.045 418.012 119.749C417.484 118.429 416.392 117.769 414.736 117.769C413.08 117.769 411.988 118.429 411.46 119.749C410.932 121.045 410.668 122.905 410.668 125.329C410.668 126.961 410.764 128.317 410.956 129.397C411.148 130.453 411.532 131.317 412.108 131.989C412.708 132.637 413.584 132.961 414.736 132.961C415.888 132.961 416.752 132.637 417.328 131.989C417.928 131.317 418.324 130.453 418.516 129.397C418.708 128.317 418.804 126.961 418.804 125.329ZM431.596 139.117C430.516 139.117 429.628 138.805 428.932 138.181C428.26 137.533 427.924 136.741 427.924 135.805C427.924 134.845 428.26 134.041 428.932 133.393C429.628 132.745 430.516 132.421 431.596 132.421C432.652 132.421 433.516 132.745 434.188 133.393C434.884 134.041 435.232 134.845 435.232 135.805C435.232 136.741 434.884 137.533 434.188 138.181C433.516 138.805 432.652 139.117 431.596 139.117ZM442.585 124.717C440.329 123.517 439.201 121.633 439.201 119.065C439.201 117.769 439.537 116.593 440.209 115.537C440.881 114.457 441.901 113.605 443.269 112.981C444.637 112.333 446.317 112.009 448.309 112.009C450.301 112.009 451.969 112.333 453.313 112.981C454.681 113.605 455.701 114.457 456.373 115.537C457.045 116.593 457.381 117.769 457.381 119.065C457.381 120.361 457.069 121.489 456.445 122.449C455.845 123.409 455.029 124.165 453.997 124.717C455.293 125.341 456.289 126.205 456.985 127.309C457.681 128.389 458.029 129.661 458.029 131.125C458.029 132.829 457.597 134.305 456.733 135.553C455.869 136.777 454.693 137.713 453.205 138.361C451.741 139.009 450.109 139.333 448.309 139.333C446.509 139.333 444.865 139.009 443.377 138.361C441.913 137.713 440.749 136.777 439.885 135.553C439.021 134.305 438.589 132.829 438.589 131.125C438.589 129.637 438.937 128.353 439.633 127.273C440.329 126.169 441.313 125.317 442.585 124.717ZM451.405 120.001C451.405 119.017 451.117 118.261 450.541 117.733C449.989 117.181 449.245 116.905 448.309 116.905C447.373 116.905 446.617 117.181 446.041 117.733C445.489 118.285 445.213 119.053 445.213 120.037C445.213 120.973 445.501 121.717 446.077 122.269C446.653 122.797 447.397 123.061 448.309 123.061C449.221 123.061 449.965 122.785 450.541 122.233C451.117 121.681 451.405 120.937 451.405 120.001ZM448.309 127.381C447.181 127.381 446.269 127.693 445.573 128.317C444.877 128.917 444.529 129.757 444.529 130.837C444.529 131.845 444.865 132.673 445.537 133.321C446.233 133.969 447.157 134.293 448.309 134.293C449.461 134.293 450.361 133.969 451.009 133.321C451.681 132.673 452.017 131.845 452.017 130.837C452.017 129.781 451.669 128.941 450.973 128.317C450.301 127.693 449.413 127.381 448.309 127.381ZM461.824 119.965C461.92 117.397 462.76 115.417 464.344 114.025C465.928 112.633 468.076 111.937 470.788 111.937C472.588 111.937 474.124 112.249 475.396 112.873C476.692 113.497 477.664 114.349 478.312 115.429C478.984 116.509 479.32 117.721 479.32 119.065C479.32 120.649 478.924 121.945 478.132 122.953C477.34 123.937 476.416 124.609 475.36 124.969V125.113C476.728 125.569 477.808 126.325 478.6 127.381C479.392 128.437 479.788 129.793 479.788 131.449C479.788 132.937 479.44 134.257 478.744 135.409C478.072 136.537 477.076 137.425 475.756 138.073C474.46 138.721 472.912 139.045 471.112 139.045C468.232 139.045 465.928 138.337 464.2 136.921C462.496 135.505 461.596 133.369 461.5 130.513H467.476C467.5 131.569 467.8 132.409 468.376 133.033C468.952 133.633 469.792 133.933 470.896 133.933C471.832 133.933 472.552 133.669 473.056 133.141C473.584 132.589 473.848 131.869 473.848 130.981C473.848 129.829 473.476 129.001 472.732 128.497C472.012 127.969 470.848 127.705 469.24 127.705H468.088V122.701H469.24C470.464 122.701 471.448 122.497 472.192 122.089C472.96 121.657 473.344 120.901 473.344 119.821C473.344 118.957 473.104 118.285 472.624 117.805C472.144 117.325 471.484 117.085 470.644 117.085C469.732 117.085 469.048 117.361 468.592 117.913C468.16 118.465 467.908 119.149 467.836 119.965H461.824ZM490.029 131.125C490.389 133.021 491.493 133.969 493.341 133.969C494.613 133.969 495.513 133.405 496.041 132.277C496.569 131.149 496.833 129.313 496.833 126.769C496.305 127.513 495.585 128.089 494.673 128.497C493.761 128.905 492.741 129.109 491.613 129.109C490.077 129.109 488.709 128.797 487.509 128.173C486.309 127.525 485.361 126.577 484.665 125.329C483.993 124.057 483.657 122.521 483.657 120.721C483.657 118.945 484.017 117.397 484.737 116.077C485.481 114.757 486.525 113.737 487.869 113.017C489.237 112.297 490.845 111.937 492.693 111.937C496.245 111.937 498.729 113.041 500.145 115.249C501.561 117.457 502.269 120.709 502.269 125.005C502.269 128.125 501.981 130.705 501.405 132.745C500.853 134.761 499.905 136.297 498.561 137.353C497.241 138.409 495.429 138.937 493.125 138.937C491.301 138.937 489.741 138.577 488.445 137.857C487.173 137.137 486.189 136.189 485.493 135.013C484.821 133.837 484.437 132.541 484.341 131.125H490.029ZM493.017 124.249C494.025 124.249 494.829 123.949 495.429 123.349C496.029 122.725 496.329 121.885 496.329 120.829C496.329 119.677 496.017 118.789 495.393 118.165C494.769 117.541 493.929 117.229 492.873 117.229C491.817 117.229 490.977 117.553 490.353 118.201C489.753 118.825 489.453 119.689 489.453 120.793C489.453 121.825 489.753 122.665 490.353 123.313C490.977 123.937 491.865 124.249 493.017 124.249Z" fill="#394253"/>
<path d="M393.47 168.934C392.78 168.934 392.16 168.814 391.61 168.574C391.07 168.324 390.645 167.984 390.335 167.554C390.025 167.114 389.865 166.609 389.855 166.039H391.31C391.36 166.529 391.56 166.944 391.91 167.284C392.27 167.614 392.79 167.779 393.47 167.779C394.12 167.779 394.63 167.619 395 167.299C395.38 166.969 395.57 166.549 395.57 166.039C395.57 165.639 395.46 165.314 395.24 165.064C395.02 164.814 394.745 164.624 394.415 164.494C394.085 164.364 393.64 164.224 393.08 164.074C392.39 163.894 391.835 163.714 391.415 163.534C391.005 163.354 390.65 163.074 390.35 162.694C390.06 162.304 389.915 161.784 389.915 161.134C389.915 160.564 390.06 160.059 390.35 159.619C390.64 159.179 391.045 158.839 391.565 158.599C392.095 158.359 392.7 158.239 393.38 158.239C394.36 158.239 395.16 158.484 395.78 158.974C396.41 159.464 396.765 160.114 396.845 160.924H395.345C395.295 160.524 395.085 160.174 394.715 159.874C394.345 159.564 393.855 159.409 393.245 159.409C392.675 159.409 392.21 159.559 391.85 159.859C391.49 160.149 391.31 160.559 391.31 161.089C391.31 161.469 391.415 161.779 391.625 162.019C391.845 162.259 392.11 162.444 392.42 162.574C392.74 162.694 393.185 162.834 393.755 162.994C394.445 163.184 395 163.374 395.42 163.564C395.84 163.744 396.2 164.029 396.5 164.419C396.8 164.799 396.95 165.319 396.95 165.979C396.95 166.489 396.815 166.969 396.545 167.419C396.275 167.869 395.875 168.234 395.345 168.514C394.815 168.794 394.19 168.934 393.47 168.934ZM399.664 159.274C399.404 159.274 399.184 159.184 399.004 159.004C398.824 158.824 398.734 158.604 398.734 158.344C398.734 158.084 398.824 157.864 399.004 157.684C399.184 157.504 399.404 157.414 399.664 157.414C399.914 157.414 400.124 157.504 400.294 157.684C400.474 157.864 400.564 158.084 400.564 158.344C400.564 158.604 400.474 158.824 400.294 159.004C400.124 159.184 399.914 159.274 399.664 159.274ZM400.324 160.609V168.829H398.959V160.609H400.324ZM404.015 157.729V168.829H402.65V157.729H404.015ZM410.422 160.459C411.042 160.459 411.602 160.594 412.102 160.864C412.602 161.124 412.992 161.519 413.272 162.049C413.562 162.579 413.707 163.224 413.707 163.984V168.829H412.357V164.179C412.357 163.359 412.152 162.734 411.742 162.304C411.332 161.864 410.772 161.644 410.062 161.644C409.342 161.644 408.767 161.869 408.337 162.319C407.917 162.769 407.707 163.424 407.707 164.284V168.829H406.342V157.729H407.707V161.779C407.977 161.359 408.347 161.034 408.817 160.804C409.297 160.574 409.832 160.459 410.422 160.459ZM419.521 168.964C418.751 168.964 418.051 168.789 417.421 168.439C416.801 168.089 416.311 167.594 415.951 166.954C415.601 166.304 415.426 165.554 415.426 164.704C415.426 163.864 415.606 163.124 415.966 162.484C416.336 161.834 416.836 161.339 417.466 160.999C418.096 160.649 418.801 160.474 419.581 160.474C420.361 160.474 421.066 160.649 421.696 160.999C422.326 161.339 422.821 161.829 423.181 162.469C423.551 163.109 423.736 163.854 423.736 164.704C423.736 165.554 423.546 166.304 423.166 166.954C422.796 167.594 422.291 168.089 421.651 168.439C421.011 168.789 420.301 168.964 419.521 168.964ZM419.521 167.764C420.011 167.764 420.471 167.649 420.901 167.419C421.331 167.189 421.676 166.844 421.936 166.384C422.206 165.924 422.341 165.364 422.341 164.704C422.341 164.044 422.211 163.484 421.951 163.024C421.691 162.564 421.351 162.224 420.931 162.004C420.511 161.774 420.056 161.659 419.566 161.659C419.066 161.659 418.606 161.774 418.186 162.004C417.776 162.224 417.446 162.564 417.196 163.024C416.946 163.484 416.821 164.044 416.821 164.704C416.821 165.374 416.941 165.939 417.181 166.399C417.431 166.859 417.761 167.204 418.171 167.434C418.581 167.654 419.031 167.764 419.521 167.764ZM432.821 160.609V168.829H431.456V167.614C431.196 168.034 430.831 168.364 430.361 168.604C429.901 168.834 429.391 168.949 428.831 168.949C428.191 168.949 427.616 168.819 427.106 168.559C426.596 168.289 426.191 167.889 425.891 167.359C425.601 166.829 425.456 166.184 425.456 165.424V160.609H426.806V165.244C426.806 166.054 427.011 166.679 427.421 167.119C427.831 167.549 428.391 167.764 429.101 167.764C429.831 167.764 430.406 167.539 430.826 167.089C431.246 166.639 431.456 165.984 431.456 165.124V160.609H432.821ZM442.626 164.404C442.626 164.664 442.611 164.939 442.581 165.229H436.011C436.061 166.039 436.336 166.674 436.836 167.134C437.346 167.584 437.961 167.809 438.681 167.809C439.271 167.809 439.761 167.674 440.151 167.404C440.551 167.124 440.831 166.754 440.991 166.294H442.461C442.241 167.084 441.801 167.729 441.141 168.229C440.481 168.719 439.661 168.964 438.681 168.964C437.901 168.964 437.201 168.789 436.581 168.439C435.971 168.089 435.491 167.594 435.141 166.954C434.791 166.304 434.616 165.554 434.616 164.704C434.616 163.854 434.786 163.109 435.126 162.469C435.466 161.829 435.941 161.339 436.551 160.999C437.171 160.649 437.881 160.474 438.681 160.474C439.461 160.474 440.151 160.644 440.751 160.984C441.351 161.324 441.811 161.794 442.131 162.394C442.461 162.984 442.626 163.654 442.626 164.404ZM441.216 164.119C441.216 163.599 441.101 163.154 440.871 162.784C440.641 162.404 440.326 162.119 439.926 161.929C439.536 161.729 439.101 161.629 438.621 161.629C437.931 161.629 437.341 161.849 436.851 162.289C436.371 162.729 436.096 163.339 436.026 164.119H441.216ZM446.092 161.734V166.579C446.092 166.979 446.177 167.264 446.347 167.434C446.517 167.594 446.812 167.674 447.232 167.674H448.237V168.829H447.007C446.247 168.829 445.677 168.654 445.297 168.304C444.917 167.954 444.727 167.379 444.727 166.579V161.734H443.662V160.609H444.727V158.539H446.092V160.609H448.237V161.734H446.092ZM451.556 161.734V166.579C451.556 166.979 451.641 167.264 451.811 167.434C451.981 167.594 452.276 167.674 452.696 167.674H453.701V168.829H452.471C451.711 168.829 451.141 168.654 450.761 168.304C450.381 167.954 450.191 167.379 450.191 166.579V161.734H449.126V160.609H450.191V158.539H451.556V160.609H453.701V161.734H451.556ZM462.855 164.404C462.855 164.664 462.84 164.939 462.81 165.229H456.24C456.29 166.039 456.565 166.674 457.065 167.134C457.575 167.584 458.19 167.809 458.91 167.809C459.5 167.809 459.99 167.674 460.38 167.404C460.78 167.124 461.06 166.754 461.22 166.294H462.69C462.47 167.084 462.03 167.729 461.37 168.229C460.71 168.719 459.89 168.964 458.91 168.964C458.13 168.964 457.43 168.789 456.81 168.439C456.2 168.089 455.72 167.594 455.37 166.954C455.02 166.304 454.845 165.554 454.845 164.704C454.845 163.854 455.015 163.109 455.355 162.469C455.695 161.829 456.17 161.339 456.78 160.999C457.4 160.649 458.11 160.474 458.91 160.474C459.69 160.474 460.38 160.644 460.98 160.984C461.58 161.324 462.04 161.794 462.36 162.394C462.69 162.984 462.855 163.654 462.855 164.404ZM461.445 164.119C461.445 163.599 461.33 163.154 461.1 162.784C460.87 162.404 460.555 162.119 460.155 161.929C459.765 161.729 459.33 161.629 458.85 161.629C458.16 161.629 457.57 161.849 457.08 162.289C456.6 162.729 456.325 163.339 456.255 164.119H461.445ZM471.971 168.934C471.281 168.934 470.661 168.814 470.111 168.574C469.571 168.324 469.146 167.984 468.836 167.554C468.526 167.114 468.366 166.609 468.356 166.039H469.811C469.861 166.529 470.061 166.944 470.411 167.284C470.771 167.614 471.291 167.779 471.971 167.779C472.621 167.779 473.131 167.619 473.501 167.299C473.881 166.969 474.071 166.549 474.071 166.039C474.071 165.639 473.961 165.314 473.741 165.064C473.521 164.814 473.246 164.624 472.916 164.494C472.586 164.364 472.141 164.224 471.581 164.074C470.891 163.894 470.336 163.714 469.916 163.534C469.506 163.354 469.151 163.074 468.851 162.694C468.561 162.304 468.416 161.784 468.416 161.134C468.416 160.564 468.561 160.059 468.851 159.619C469.141 159.179 469.546 158.839 470.066 158.599C470.596 158.359 471.201 158.239 471.881 158.239C472.861 158.239 473.661 158.484 474.281 158.974C474.911 159.464 475.266 160.114 475.346 160.924H473.846C473.796 160.524 473.586 160.174 473.216 159.874C472.846 159.564 472.356 159.409 471.746 159.409C471.176 159.409 470.711 159.559 470.351 159.859C469.991 160.149 469.811 160.559 469.811 161.089C469.811 161.469 469.916 161.779 470.126 162.019C470.346 162.259 470.611 162.444 470.921 162.574C471.241 162.694 471.686 162.834 472.256 162.994C472.946 163.184 473.501 163.374 473.921 163.564C474.341 163.744 474.701 164.029 475.001 164.419C475.301 164.799 475.451 165.319 475.451 165.979C475.451 166.489 475.316 166.969 475.046 167.419C474.776 167.869 474.376 168.234 473.846 168.514C473.316 168.794 472.691 168.934 471.971 168.934ZM476.95 164.704C476.95 163.854 477.12 163.114 477.46 162.484C477.8 161.844 478.27 161.349 478.87 160.999C479.48 160.649 480.175 160.474 480.955 160.474C481.965 160.474 482.795 160.719 483.445 161.209C484.105 161.699 484.54 162.379 484.75 163.249H483.28C483.14 162.749 482.865 162.354 482.455 162.064C482.055 161.774 481.555 161.629 480.955 161.629C480.175 161.629 479.545 161.899 479.065 162.439C478.585 162.969 478.345 163.724 478.345 164.704C478.345 165.694 478.585 166.459 479.065 166.999C479.545 167.539 480.175 167.809 480.955 167.809C481.555 167.809 482.055 167.669 482.455 167.389C482.855 167.109 483.13 166.709 483.28 166.189H484.75C484.53 167.029 484.09 167.704 483.43 168.214C482.77 168.714 481.945 168.964 480.955 168.964C480.175 168.964 479.48 168.789 478.87 168.439C478.27 168.089 477.8 167.594 477.46 166.954C477.12 166.314 476.95 165.564 476.95 164.704ZM490.156 168.964C489.386 168.964 488.686 168.789 488.056 168.439C487.436 168.089 486.946 167.594 486.586 166.954C486.236 166.304 486.061 165.554 486.061 164.704C486.061 163.864 486.241 163.124 486.601 162.484C486.971 161.834 487.471 161.339 488.101 160.999C488.731 160.649 489.436 160.474 490.216 160.474C490.996 160.474 491.701 160.649 492.331 160.999C492.961 161.339 493.456 161.829 493.816 162.469C494.186 163.109 494.371 163.854 494.371 164.704C494.371 165.554 494.181 166.304 493.801 166.954C493.431 167.594 492.926 168.089 492.286 168.439C491.646 168.789 490.936 168.964 490.156 168.964ZM490.156 167.764C490.646 167.764 491.106 167.649 491.536 167.419C491.966 167.189 492.311 166.844 492.571 166.384C492.841 165.924 492.976 165.364 492.976 164.704C492.976 164.044 492.846 163.484 492.586 163.024C492.326 162.564 491.986 162.224 491.566 162.004C491.146 161.774 490.691 161.659 490.201 161.659C489.701 161.659 489.241 161.774 488.821 162.004C488.411 162.224 488.081 162.564 487.831 163.024C487.581 163.484 487.456 164.044 487.456 164.704C487.456 165.374 487.576 165.939 487.816 166.399C488.066 166.859 488.396 167.204 488.806 167.434C489.216 167.654 489.666 167.764 490.156 167.764ZM497.531 161.944C497.771 161.474 498.111 161.109 498.551 160.849C499.001 160.589 499.546 160.459 500.186 160.459V161.869H499.826C498.296 161.869 497.531 162.699 497.531 164.359V168.829H496.166V160.609H497.531V161.944ZM509.261 164.404C509.261 164.664 509.246 164.939 509.216 165.229H502.646C502.696 166.039 502.971 166.674 503.471 167.134C503.981 167.584 504.596 167.809 505.316 167.809C505.906 167.809 506.396 167.674 506.786 167.404C507.186 167.124 507.466 166.754 507.626 166.294H509.096C508.876 167.084 508.436 167.729 507.776 168.229C507.116 168.719 506.296 168.964 505.316 168.964C504.536 168.964 503.836 168.789 503.216 168.439C502.606 168.089 502.126 167.594 501.776 166.954C501.426 166.304 501.251 165.554 501.251 164.704C501.251 163.854 501.421 163.109 501.761 162.469C502.101 161.829 502.576 161.339 503.186 160.999C503.806 160.649 504.516 160.474 505.316 160.474C506.096 160.474 506.786 160.644 507.386 160.984C507.986 161.324 508.446 161.794 508.766 162.394C509.096 162.984 509.261 163.654 509.261 164.404ZM507.851 164.119C507.851 163.599 507.736 163.154 507.506 162.784C507.276 162.404 506.961 162.119 506.561 161.929C506.171 161.729 505.736 161.629 505.256 161.629C504.566 161.629 503.976 161.849 503.486 162.289C503.006 162.729 502.731 163.339 502.661 164.119H507.851Z" fill="#394253"/>
<rect width="11.4286" height="11.4286" transform="translate(520.738 157.938)" fill="#394253"/>
<rect width="11.4286" height="11.4286" transform="translate(520.738 157.938)" fill="white"/>
<rect x="521.31" y="158.51" width="10.2857" height="10.2857" rx="5.14286" stroke="#52DE97" stroke-width="1.14286"/>
<path d="M526.452 162.08L526.452 166.918M526.452 161.355L526.452 160.387" stroke="#52DE97" stroke-width="1.14286"/>
<path d="M534.081 85.5355C536.034 87.4881 535.681 91.0075 533.728 92.9601C532.236 94.4523 527.656 94.9027 525.579 95.0321C525.009 95.0676 524.549 94.6075 524.585 94.0381C524.714 91.9612 525.165 87.3812 526.657 85.889C528.609 83.9364 532.129 83.5829 534.081 85.5355Z" fill="#E7E7EF"/>
</g>
<defs>
<filter id="filter0_d_137_16640" x="0" y="0" width="623" height="236" filterUnits="userSpaceOnUse" color-interpolation-filters="sRGB">
<feFlood flood-opacity="0" result="BackgroundImageFix"/>
<feColorMatrix in="SourceAlpha" type="matrix" values="0 0 0 0 0 0 0 0 0 0 0 0 0 0 0 0 0 0 127 0" result="hardAlpha"/>
<feOffset dy="2"/>
<feGaussianBlur stdDeviation="3"/>
<feColorMatrix type="matrix" values="0 0 0 0 0.313854 0 0 0 0 0.402307 0 0 0 0 0.575 0 0 0 0.29 0"/>
<feBlend mode="normal" in2="BackgroundImageFix" result="effect1_dropShadow_137_16640"/>
<feBlend mode="normal" in="SourceGraphic" in2="effect1_dropShadow_137_16640" result="shape"/>
</filter>
</defs>
</svg>
