<svg width="623" height="224" viewBox="0 0 623 224" fill="none" xmlns="http://www.w3.org/2000/svg">
<path d="M0 20C0 8.95431 8.95431 0 20 0H623V224H20C8.95429 224 0 215.046 0 204V20Z" fill="white"/>
<path d="M71.52 26.24V47H68.79V31.52L61.89 47H59.97L53.04 31.49V47H50.31V26.24H53.25L60.93 43.4L68.61 26.24H71.52ZM83.3198 47.27C81.7798 47.27 80.3798 46.92 79.1198 46.22C77.8798 45.52 76.8998 44.53 76.1798 43.25C75.4798 41.95 75.1298 40.45 75.1298 38.75C75.1298 37.07 75.4898 35.59 76.2098 34.31C76.9498 33.01 77.9498 32.02 79.2098 31.34C80.4698 30.64 81.8798 30.29 83.4398 30.29C84.9998 30.29 86.4098 30.64 87.6698 31.34C88.9298 32.02 89.9198 33 90.6398 34.28C91.3798 35.56 91.7498 37.05 91.7498 38.75C91.7498 40.45 91.3698 41.95 90.6098 43.25C89.8698 44.53 88.8598 45.52 87.5798 46.22C86.2998 46.92 84.8798 47.27 83.3198 47.27ZM83.3198 44.87C84.2998 44.87 85.2198 44.64 86.0798 44.18C86.9398 43.72 87.6298 43.03 88.1498 42.11C88.6898 41.19 88.9598 40.07 88.9598 38.75C88.9598 37.43 88.6998 36.31 88.1798 35.39C87.6598 34.47 86.9798 33.79 86.1398 33.35C85.2998 32.89 84.3898 32.66 83.4098 32.66C82.4098 32.66 81.4898 32.89 80.6498 33.35C79.8298 33.79 79.1698 34.47 78.6698 35.39C78.1698 36.31 77.9198 37.43 77.9198 38.75C77.9198 40.09 78.1598 41.22 78.6398 42.14C79.1398 43.06 79.7998 43.75 80.6198 44.21C81.4398 44.65 82.3398 44.87 83.3198 44.87ZM94.3193 38.72C94.3193 37.04 94.6593 35.57 95.3393 34.31C96.0193 33.03 96.9493 32.04 98.1293 31.34C99.3293 30.64 100.669 30.29 102.149 30.29C103.429 30.29 104.619 30.59 105.719 31.19C106.819 31.77 107.659 32.54 108.239 33.5V24.8H110.999V47H108.239V43.91C107.699 44.89 106.899 45.7 105.839 46.34C104.779 46.96 103.539 47.27 102.119 47.27C100.659 47.27 99.3293 46.91 98.1293 46.19C96.9493 45.47 96.0193 44.46 95.3393 43.16C94.6593 41.86 94.3193 40.38 94.3193 38.72ZM108.239 38.75C108.239 37.51 107.989 36.43 107.489 35.51C106.989 34.59 106.309 33.89 105.449 33.41C104.609 32.91 103.679 32.66 102.659 32.66C101.639 32.66 100.709 32.9 99.8693 33.38C99.0293 33.86 98.3593 34.56 97.8593 35.48C97.3593 36.4 97.1093 37.48 97.1093 38.72C97.1093 39.98 97.3593 41.08 97.8593 42.02C98.3593 42.94 99.0293 43.65 99.8693 44.15C100.709 44.63 101.639 44.87 102.659 44.87C103.679 44.87 104.609 44.63 105.449 44.15C106.309 43.65 106.989 42.94 107.489 42.02C107.989 41.08 108.239 39.99 108.239 38.75ZM130.613 38.15C130.613 38.67 130.583 39.22 130.523 39.8H117.383C117.483 41.42 118.033 42.69 119.033 43.61C120.053 44.51 121.283 44.96 122.723 44.96C123.903 44.96 124.883 44.69 125.663 44.15C126.463 43.59 127.023 42.85 127.343 41.93H130.283C129.843 43.51 128.963 44.8 127.643 45.8C126.323 46.78 124.683 47.27 122.723 47.27C121.163 47.27 119.763 46.92 118.523 46.22C117.303 45.52 116.343 44.53 115.643 43.25C114.943 41.95 114.593 40.45 114.593 38.75C114.593 37.05 114.933 35.56 115.613 34.28C116.293 33 117.243 32.02 118.463 31.34C119.703 30.64 121.123 30.29 122.723 30.29C124.283 30.29 125.663 30.63 126.863 31.31C128.063 31.99 128.983 32.93 129.623 34.13C130.283 35.31 130.613 36.65 130.613 38.15ZM127.793 37.58C127.793 36.54 127.563 35.65 127.103 34.91C126.643 34.15 126.013 33.58 125.213 33.2C124.433 32.8 123.563 32.6 122.603 32.6C121.223 32.6 120.043 33.04 119.063 33.92C118.103 34.8 117.553 36.02 117.413 37.58H127.793ZM136.946 24.8V47H134.216V24.8H136.946ZM148.427 27.8V25.31H154.067V47H151.307V27.8H148.427Z" fill="#394253"/>
<path d="M49.78 102.26C50.2333 101.9 50.44 101.733 50.4 101.76C51.7067 100.68 52.7333 99.7933 53.48 99.1C54.24 98.4067 54.88 97.68 55.4 96.92C55.92 96.16 56.18 95.42 56.18 94.7C56.18 94.1533 56.0533 93.7267 55.8 93.42C55.5467 93.1133 55.1667 92.96 54.66 92.96C54.1533 92.96 53.7533 93.1533 53.46 93.54C53.18 93.9133 53.04 94.4467 53.04 95.14H49.74C49.7667 94.0067 50.0067 93.06 50.46 92.3C50.9267 91.54 51.5333 90.98 52.28 90.62C53.04 90.26 53.88 90.08 54.8 90.08C56.3867 90.08 57.58 90.4867 58.38 91.3C59.1933 92.1133 59.6 93.1733 59.6 94.48C59.6 95.9067 59.1133 97.2333 58.14 98.46C57.1667 99.6733 55.9267 100.86 54.42 102.02H59.82V104.8H49.78V102.26ZM65.3458 101.84L63.1258 107.58H60.9458L62.1058 101.84H65.3458ZM66.708 93.58V90.4H72.248V105H68.688V93.58H66.708ZM74.4675 102.26C74.9208 101.9 75.1275 101.733 75.0875 101.76C76.3942 100.68 77.4208 99.7933 78.1675 99.1C78.9275 98.4067 79.5675 97.68 80.0875 96.92C80.6075 96.16 80.8675 95.42 80.8675 94.7C80.8675 94.1533 80.7408 93.7267 80.4875 93.42C80.2342 93.1133 79.8542 92.96 79.3475 92.96C78.8408 92.96 78.4408 93.1533 78.1475 93.54C77.8675 93.9133 77.7275 94.4467 77.7275 95.14H74.4275C74.4542 94.0067 74.6942 93.06 75.1475 92.3C75.6142 91.54 76.2208 90.98 76.9675 90.62C77.7275 90.26 78.5675 90.08 79.4875 90.08C81.0742 90.08 82.2675 90.4867 83.0675 91.3C83.8808 92.1133 84.2875 93.1733 84.2875 94.48C84.2875 95.9067 83.8008 97.2333 82.8275 98.46C81.8542 99.6733 80.6142 100.86 79.1075 102.02H84.5075V104.8H74.4675V102.26ZM95.3333 92.96L90.3133 105H86.8133L91.8933 93.34H85.6733V90.42H95.3333V92.96Z" fill="#394253"/>
<path d="M58.375 140H57.01L51.52 131.675V140H50.155V129.53H51.52L57.01 137.84V129.53H58.375V140ZM64.2869 140.135C63.5169 140.135 62.8169 139.96 62.1869 139.61C61.5669 139.26 61.0769 138.765 60.7169 138.125C60.3669 137.475 60.1919 136.725 60.1919 135.875C60.1919 135.035 60.3719 134.295 60.7319 133.655C61.1019 133.005 61.6019 132.51 62.2319 132.17C62.8619 131.82 63.5669 131.645 64.3469 131.645C65.1269 131.645 65.8319 131.82 66.4619 132.17C67.0919 132.51 67.5869 133 67.9469 133.64C68.3169 134.28 68.5019 135.025 68.5019 135.875C68.5019 136.725 68.3119 137.475 67.9319 138.125C67.5619 138.765 67.0569 139.26 66.4169 139.61C65.7769 139.96 65.0669 140.135 64.2869 140.135ZM64.2869 138.935C64.7769 138.935 65.2369 138.82 65.6669 138.59C66.0969 138.36 66.4419 138.015 66.7019 137.555C66.9719 137.095 67.1069 136.535 67.1069 135.875C67.1069 135.215 66.9769 134.655 66.7169 134.195C66.4569 133.735 66.1169 133.395 65.6969 133.175C65.2769 132.945 64.8219 132.83 64.3319 132.83C63.8319 132.83 63.3719 132.945 62.9519 133.175C62.5419 133.395 62.2119 133.735 61.9619 134.195C61.7119 134.655 61.5869 135.215 61.5869 135.875C61.5869 136.545 61.7069 137.11 61.9469 137.57C62.1969 138.03 62.5269 138.375 62.9369 138.605C63.3469 138.825 63.7969 138.935 64.2869 138.935ZM70.7316 140.09C70.4716 140.09 70.2516 140 70.0716 139.82C69.8916 139.64 69.8016 139.42 69.8016 139.16C69.8016 138.9 69.8916 138.68 70.0716 138.5C70.2516 138.32 70.4716 138.23 70.7316 138.23C70.9816 138.23 71.1916 138.32 71.3616 138.5C71.5416 138.68 71.6316 138.9 71.6316 139.16C71.6316 139.42 71.5416 139.64 71.3616 139.82C71.1916 140 70.9816 140.09 70.7316 140.09ZM81.03 140.135C80.26 140.135 79.56 139.96 78.93 139.61C78.31 139.26 77.82 138.765 77.46 138.125C77.11 137.475 76.935 136.725 76.935 135.875C76.935 135.035 77.115 134.295 77.475 133.655C77.845 133.005 78.345 132.51 78.975 132.17C79.605 131.82 80.31 131.645 81.09 131.645C81.87 131.645 82.575 131.82 83.205 132.17C83.835 132.51 84.33 133 84.69 133.64C85.06 134.28 85.245 135.025 85.245 135.875C85.245 136.725 85.055 137.475 84.675 138.125C84.305 138.765 83.8 139.26 83.16 139.61C82.52 139.96 81.81 140.135 81.03 140.135ZM81.03 138.935C81.52 138.935 81.98 138.82 82.41 138.59C82.84 138.36 83.185 138.015 83.445 137.555C83.715 137.095 83.85 136.535 83.85 135.875C83.85 135.215 83.72 134.655 83.46 134.195C83.2 133.735 82.86 133.395 82.44 133.175C82.02 132.945 81.565 132.83 81.075 132.83C80.575 132.83 80.115 132.945 79.695 133.175C79.285 133.395 78.955 133.735 78.705 134.195C78.455 134.655 78.33 135.215 78.33 135.875C78.33 136.545 78.45 137.11 78.69 137.57C78.94 138.03 79.27 138.375 79.68 138.605C80.09 138.825 80.54 138.935 81.03 138.935ZM90.3848 132.905H88.6598V140H87.2948V132.905H86.2298V131.78H87.2948V131.195C87.2948 130.275 87.5298 129.605 87.9998 129.185C88.4798 128.755 89.2448 128.54 90.2948 128.54V129.68C89.6948 129.68 89.2698 129.8 89.0198 130.04C88.7798 130.27 88.6598 130.655 88.6598 131.195V131.78H90.3848V132.905ZM95.4653 134.765C95.4653 133.745 95.6953 132.83 96.1553 132.02C96.6153 131.2 97.2403 130.56 98.0303 130.1C98.8303 129.64 99.7153 129.41 100.685 129.41C101.825 129.41 102.82 129.685 103.67 130.235C104.52 130.785 105.14 131.565 105.53 132.575H103.895C103.605 131.945 103.185 131.46 102.635 131.12C102.095 130.78 101.445 130.61 100.685 130.61C99.9553 130.61 99.3003 130.78 98.7203 131.12C98.1403 131.46 97.6853 131.945 97.3553 132.575C97.0253 133.195 96.8603 133.925 96.8603 134.765C96.8603 135.595 97.0253 136.325 97.3553 136.955C97.6853 137.575 98.1403 138.055 98.7203 138.395C99.3003 138.735 99.9553 138.905 100.685 138.905C101.445 138.905 102.095 138.74 102.635 138.41C103.185 138.07 103.605 137.585 103.895 136.955H105.53C105.14 137.955 104.52 138.73 103.67 139.28C102.82 139.82 101.825 140.09 100.685 140.09C99.7153 140.09 98.8303 139.865 98.0303 139.415C97.2403 138.955 96.6153 138.32 96.1553 137.51C95.6953 136.7 95.4653 135.785 95.4653 134.765ZM108.927 128.9V140H107.562V128.9H108.927ZM118.544 131.78V140H117.179V138.785C116.919 139.205 116.554 139.535 116.084 139.775C115.624 140.005 115.114 140.12 114.554 140.12C113.914 140.12 113.339 139.99 112.829 139.73C112.319 139.46 111.914 139.06 111.614 138.53C111.324 138 111.179 137.355 111.179 136.595V131.78H112.529V136.415C112.529 137.225 112.734 137.85 113.144 138.29C113.554 138.72 114.114 138.935 114.824 138.935C115.554 138.935 116.129 138.71 116.549 138.26C116.969 137.81 117.179 137.155 117.179 136.295V131.78H118.544ZM123.758 140.135C123.128 140.135 122.563 140.03 122.063 139.82C121.563 139.6 121.168 139.3 120.878 138.92C120.588 138.53 120.428 138.085 120.398 137.585H121.808C121.848 137.995 122.038 138.33 122.378 138.59C122.728 138.85 123.183 138.98 123.743 138.98C124.263 138.98 124.673 138.865 124.973 138.635C125.273 138.405 125.423 138.115 125.423 137.765C125.423 137.405 125.263 137.14 124.943 136.97C124.623 136.79 124.128 136.615 123.458 136.445C122.848 136.285 122.348 136.125 121.958 135.965C121.578 135.795 121.248 135.55 120.968 135.23C120.698 134.9 120.563 134.47 120.563 133.94C120.563 133.52 120.688 133.135 120.938 132.785C121.188 132.435 121.543 132.16 122.003 131.96C122.463 131.75 122.988 131.645 123.578 131.645C124.488 131.645 125.223 131.875 125.783 132.335C126.343 132.795 126.643 133.425 126.683 134.225H125.318C125.288 133.795 125.113 133.45 124.793 133.19C124.483 132.93 124.063 132.8 123.533 132.8C123.043 132.8 122.653 132.905 122.363 133.115C122.073 133.325 121.928 133.6 121.928 133.94C121.928 134.21 122.013 134.435 122.183 134.615C122.363 134.785 122.583 134.925 122.843 135.035C123.113 135.135 123.483 135.25 123.953 135.38C124.543 135.54 125.023 135.7 125.393 135.86C125.763 136.01 126.078 136.24 126.338 136.55C126.608 136.86 126.748 137.265 126.758 137.765C126.758 138.215 126.633 138.62 126.383 138.98C126.133 139.34 125.778 139.625 125.318 139.835C124.868 140.035 124.348 140.135 123.758 140.135ZM130.35 132.905V137.75C130.35 138.15 130.435 138.435 130.605 138.605C130.775 138.765 131.07 138.845 131.49 138.845H132.495V140H131.265C130.505 140 129.935 139.825 129.555 139.475C129.175 139.125 128.985 138.55 128.985 137.75V132.905H127.92V131.78H128.985V129.71H130.35V131.78H132.495V132.905H130.35ZM141.649 135.575C141.649 135.835 141.634 136.11 141.604 136.4H135.034C135.084 137.21 135.359 137.845 135.859 138.305C136.369 138.755 136.984 138.98 137.704 138.98C138.294 138.98 138.784 138.845 139.174 138.575C139.574 138.295 139.854 137.925 140.014 137.465H141.484C141.264 138.255 140.824 138.9 140.164 139.4C139.504 139.89 138.684 140.135 137.704 140.135C136.924 140.135 136.224 139.96 135.604 139.61C134.994 139.26 134.514 138.765 134.164 138.125C133.814 137.475 133.639 136.725 133.639 135.875C133.639 135.025 133.809 134.28 134.149 133.64C134.489 133 134.964 132.51 135.574 132.17C136.194 131.82 136.904 131.645 137.704 131.645C138.484 131.645 139.174 131.815 139.774 132.155C140.374 132.495 140.834 132.965 141.154 133.565C141.484 134.155 141.649 134.825 141.649 135.575ZM140.239 135.29C140.239 134.77 140.124 134.325 139.894 133.955C139.664 133.575 139.349 133.29 138.949 133.1C138.559 132.9 138.124 132.8 137.644 132.8C136.954 132.8 136.364 133.02 135.874 133.46C135.394 133.9 135.119 134.51 135.049 135.29H140.239ZM144.816 133.115C145.056 132.645 145.396 132.28 145.836 132.02C146.286 131.76 146.831 131.63 147.471 131.63V133.04H147.111C145.581 133.04 144.816 133.87 144.816 135.53V140H143.451V131.78H144.816V133.115ZM151.957 140.135C151.327 140.135 150.762 140.03 150.262 139.82C149.762 139.6 149.367 139.3 149.077 138.92C148.787 138.53 148.627 138.085 148.597 137.585H150.007C150.047 137.995 150.237 138.33 150.577 138.59C150.927 138.85 151.382 138.98 151.942 138.98C152.462 138.98 152.872 138.865 153.172 138.635C153.472 138.405 153.622 138.115 153.622 137.765C153.622 137.405 153.462 137.14 153.142 136.97C152.822 136.79 152.327 136.615 151.657 136.445C151.047 136.285 150.547 136.125 150.157 135.965C149.777 135.795 149.447 135.55 149.167 135.23C148.897 134.9 148.762 134.47 148.762 133.94C148.762 133.52 148.887 133.135 149.137 132.785C149.387 132.435 149.742 132.16 150.202 131.96C150.662 131.75 151.187 131.645 151.777 131.645C152.687 131.645 153.422 131.875 153.982 132.335C154.542 132.795 154.842 133.425 154.882 134.225H153.517C153.487 133.795 153.312 133.45 152.992 133.19C152.682 132.93 152.262 132.8 151.732 132.8C151.242 132.8 150.852 132.905 150.562 133.115C150.272 133.325 150.127 133.6 150.127 133.94C150.127 134.21 150.212 134.435 150.382 134.615C150.562 134.785 150.782 134.925 151.042 135.035C151.312 135.135 151.682 135.25 152.152 135.38C152.742 135.54 153.222 135.7 153.592 135.86C153.962 136.01 154.277 136.24 154.537 136.55C154.807 136.86 154.947 137.265 154.957 137.765C154.957 138.215 154.832 138.62 154.582 138.98C154.332 139.34 153.977 139.625 153.517 139.835C153.067 140.035 152.547 140.135 151.957 140.135Z" fill="#394253" fill-opacity="0.8"/>
<path d="M50.02 154.52C50.0733 153.093 50.54 151.993 51.42 151.22C52.3 150.447 53.4933 150.06 55 150.06C56 150.06 56.8533 150.233 57.56 150.58C58.28 150.927 58.82 151.4 59.18 152C59.5533 152.6 59.74 153.273 59.74 154.02C59.74 154.9 59.52 155.62 59.08 156.18C58.64 156.727 58.1267 157.1 57.54 157.3V157.38C58.3 157.633 58.9 158.053 59.34 158.64C59.78 159.227 60 159.98 60 160.9C60 161.727 59.8067 162.46 59.42 163.1C59.0467 163.727 58.4933 164.22 57.76 164.58C57.04 164.94 56.18 165.12 55.18 165.12C53.58 165.12 52.3 164.727 51.34 163.94C50.3933 163.153 49.8933 161.967 49.84 160.38H53.16C53.1733 160.967 53.34 161.433 53.66 161.78C53.98 162.113 54.4467 162.28 55.06 162.28C55.58 162.28 55.98 162.133 56.26 161.84C56.5533 161.533 56.7 161.133 56.7 160.64C56.7 160 56.4933 159.54 56.08 159.26C55.68 158.967 55.0333 158.82 54.14 158.82H53.5V156.04H54.14C54.82 156.04 55.3667 155.927 55.78 155.7C56.2067 155.46 56.42 155.04 56.42 154.44C56.42 153.96 56.2867 153.587 56.02 153.32C55.7533 153.053 55.3867 152.92 54.92 152.92C54.4133 152.92 54.0333 153.073 53.78 153.38C53.54 153.687 53.4 154.067 53.36 154.52H50.02Z" fill="#394253"/>
<path d="M58.375 81H57.01L51.52 72.675V81H50.155V70.53H51.52L57.01 78.84V70.53H58.375V81ZM64.2869 81.135C63.5169 81.135 62.8169 80.96 62.1869 80.61C61.5669 80.26 61.0769 79.765 60.7169 79.125C60.3669 78.475 60.1919 77.725 60.1919 76.875C60.1919 76.035 60.3719 75.295 60.7319 74.655C61.1019 74.005 61.6019 73.51 62.2319 73.17C62.8619 72.82 63.5669 72.645 64.3469 72.645C65.1269 72.645 65.8319 72.82 66.4619 73.17C67.0919 73.51 67.5869 74 67.9469 74.64C68.3169 75.28 68.5019 76.025 68.5019 76.875C68.5019 77.725 68.3119 78.475 67.9319 79.125C67.5619 79.765 67.0569 80.26 66.4169 80.61C65.7769 80.96 65.0669 81.135 64.2869 81.135ZM64.2869 79.935C64.7769 79.935 65.2369 79.82 65.6669 79.59C66.0969 79.36 66.4419 79.015 66.7019 78.555C66.9719 78.095 67.1069 77.535 67.1069 76.875C67.1069 76.215 66.9769 75.655 66.7169 75.195C66.4569 74.735 66.1169 74.395 65.6969 74.175C65.2769 73.945 64.8219 73.83 64.3319 73.83C63.8319 73.83 63.3719 73.945 62.9519 74.175C62.5419 74.395 62.2119 74.735 61.9619 75.195C61.7119 75.655 61.5869 76.215 61.5869 76.875C61.5869 77.545 61.7069 78.11 61.9469 78.57C62.1969 79.03 62.5269 79.375 62.9369 79.605C63.3469 79.825 63.7969 79.935 64.2869 79.935ZM70.7316 81.09C70.4716 81.09 70.2516 81 70.0716 80.82C69.8916 80.64 69.8016 80.42 69.8016 80.16C69.8016 79.9 69.8916 79.68 70.0716 79.5C70.2516 79.32 70.4716 79.23 70.7316 79.23C70.9816 79.23 71.1916 79.32 71.3616 79.5C71.5416 79.68 71.6316 79.9 71.6316 80.16C71.6316 80.42 71.5416 80.64 71.3616 80.82C71.1916 81 70.9816 81.09 70.7316 81.09ZM81.03 81.135C80.26 81.135 79.56 80.96 78.93 80.61C78.31 80.26 77.82 79.765 77.46 79.125C77.11 78.475 76.935 77.725 76.935 76.875C76.935 76.035 77.115 75.295 77.475 74.655C77.845 74.005 78.345 73.51 78.975 73.17C79.605 72.82 80.31 72.645 81.09 72.645C81.87 72.645 82.575 72.82 83.205 73.17C83.835 73.51 84.33 74 84.69 74.64C85.06 75.28 85.245 76.025 85.245 76.875C85.245 77.725 85.055 78.475 84.675 79.125C84.305 79.765 83.8 80.26 83.16 80.61C82.52 80.96 81.81 81.135 81.03 81.135ZM81.03 79.935C81.52 79.935 81.98 79.82 82.41 79.59C82.84 79.36 83.185 79.015 83.445 78.555C83.715 78.095 83.85 77.535 83.85 76.875C83.85 76.215 83.72 75.655 83.46 75.195C83.2 74.735 82.86 74.395 82.44 74.175C82.02 73.945 81.565 73.83 81.075 73.83C80.575 73.83 80.115 73.945 79.695 74.175C79.285 74.395 78.955 74.735 78.705 75.195C78.455 75.655 78.33 76.215 78.33 76.875C78.33 77.545 78.45 78.11 78.69 78.57C78.94 79.03 79.27 79.375 79.68 79.605C80.09 79.825 80.54 79.935 81.03 79.935ZM90.3848 73.905H88.6598V81H87.2948V73.905H86.2298V72.78H87.2948V72.195C87.2948 71.275 87.5298 70.605 87.9998 70.185C88.4798 69.755 89.2448 69.54 90.2948 69.54V70.68C89.6948 70.68 89.2698 70.8 89.0198 71.04C88.7798 71.27 88.6598 71.655 88.6598 72.195V72.78H90.3848V73.905ZM99.2903 81.105C98.6003 81.105 97.9803 80.985 97.4303 80.745C96.8903 80.495 96.4653 80.155 96.1553 79.725C95.8453 79.285 95.6853 78.78 95.6753 78.21H97.1303C97.1803 78.7 97.3803 79.115 97.7303 79.455C98.0903 79.785 98.6103 79.95 99.2903 79.95C99.9403 79.95 100.45 79.79 100.82 79.47C101.2 79.14 101.39 78.72 101.39 78.21C101.39 77.81 101.28 77.485 101.06 77.235C100.84 76.985 100.565 76.795 100.235 76.665C99.9053 76.535 99.4603 76.395 98.9003 76.245C98.2103 76.065 97.6553 75.885 97.2353 75.705C96.8253 75.525 96.4703 75.245 96.1703 74.865C95.8803 74.475 95.7353 73.955 95.7353 73.305C95.7353 72.735 95.8803 72.23 96.1703 71.79C96.4603 71.35 96.8653 71.01 97.3853 70.77C97.9153 70.53 98.5203 70.41 99.2003 70.41C100.18 70.41 100.98 70.655 101.6 71.145C102.23 71.635 102.585 72.285 102.665 73.095H101.165C101.115 72.695 100.905 72.345 100.535 72.045C100.165 71.735 99.6753 71.58 99.0653 71.58C98.4953 71.58 98.0303 71.73 97.6703 72.03C97.3103 72.32 97.1303 72.73 97.1303 73.26C97.1303 73.64 97.2353 73.95 97.4453 74.19C97.6653 74.43 97.9303 74.615 98.2403 74.745C98.5603 74.865 99.0053 75.005 99.5753 75.165C100.265 75.355 100.82 75.545 101.24 75.735C101.66 75.915 102.02 76.2 102.32 76.59C102.62 76.97 102.77 77.49 102.77 78.15C102.77 78.66 102.635 79.14 102.365 79.59C102.095 80.04 101.695 80.405 101.165 80.685C100.635 80.965 100.01 81.105 99.2903 81.105ZM104.269 76.86C104.269 76.02 104.439 75.285 104.779 74.655C105.119 74.015 105.584 73.52 106.174 73.17C106.774 72.82 107.439 72.645 108.169 72.645C108.889 72.645 109.514 72.8 110.044 73.11C110.574 73.42 110.969 73.81 111.229 74.28V72.78H112.609V81H111.229V79.47C110.959 79.95 110.554 80.35 110.014 80.67C109.484 80.98 108.864 81.135 108.154 81.135C107.424 81.135 106.764 80.955 106.174 80.595C105.584 80.235 105.119 79.73 104.779 79.08C104.439 78.43 104.269 77.69 104.269 76.86ZM111.229 76.875C111.229 76.255 111.104 75.715 110.854 75.255C110.604 74.795 110.264 74.445 109.834 74.205C109.414 73.955 108.949 73.83 108.439 73.83C107.929 73.83 107.464 73.95 107.044 74.19C106.624 74.43 106.289 74.78 106.039 75.24C105.789 75.7 105.664 76.24 105.664 76.86C105.664 77.49 105.789 78.04 106.039 78.51C106.289 78.97 106.624 79.325 107.044 79.575C107.464 79.815 107.929 79.935 108.439 79.935C108.949 79.935 109.414 79.815 109.834 79.575C110.264 79.325 110.604 78.97 110.854 78.51C111.104 78.04 111.229 77.495 111.229 76.875ZM124.801 72.63C125.441 72.63 126.011 72.765 126.511 73.035C127.011 73.295 127.406 73.69 127.696 74.22C127.986 74.75 128.131 75.395 128.131 76.155V81H126.781V76.35C126.781 75.53 126.576 74.905 126.166 74.475C125.766 74.035 125.221 73.815 124.531 73.815C123.821 73.815 123.256 74.045 122.836 74.505C122.416 74.955 122.206 75.61 122.206 76.47V81H120.856V76.35C120.856 75.53 120.651 74.905 120.241 74.475C119.841 74.035 119.296 73.815 118.606 73.815C117.896 73.815 117.331 74.045 116.911 74.505C116.491 74.955 116.281 75.61 116.281 76.47V81H114.916V72.78H116.281V73.965C116.551 73.535 116.911 73.205 117.361 72.975C117.821 72.745 118.326 72.63 118.876 72.63C119.566 72.63 120.176 72.785 120.706 73.095C121.236 73.405 121.631 73.86 121.891 74.46C122.121 73.88 122.501 73.43 123.031 73.11C123.561 72.79 124.151 72.63 124.801 72.63ZM131.735 74.295C132.005 73.825 132.405 73.435 132.935 73.125C133.475 72.805 134.1 72.645 134.81 72.645C135.54 72.645 136.2 72.82 136.79 73.17C137.39 73.52 137.86 74.015 138.2 74.655C138.54 75.285 138.71 76.02 138.71 76.86C138.71 77.69 138.54 78.43 138.2 79.08C137.86 79.73 137.39 80.235 136.79 80.595C136.2 80.955 135.54 81.135 134.81 81.135C134.11 81.135 133.49 80.98 132.95 80.67C132.42 80.35 132.015 79.955 131.735 79.485V84.9H130.37V72.78H131.735V74.295ZM137.315 76.86C137.315 76.24 137.19 75.7 136.94 75.24C136.69 74.78 136.35 74.43 135.92 74.19C135.5 73.95 135.035 73.83 134.525 73.83C134.025 73.83 133.56 73.955 133.13 74.205C132.71 74.445 132.37 74.8 132.11 75.27C131.86 75.73 131.735 76.265 131.735 76.875C131.735 77.495 131.86 78.04 132.11 78.51C132.37 78.97 132.71 79.325 133.13 79.575C133.56 79.815 134.025 79.935 134.525 79.935C135.035 79.935 135.5 79.815 135.92 79.575C136.35 79.325 136.69 78.97 136.94 78.51C137.19 78.04 137.315 77.49 137.315 76.86ZM141.872 69.9V81H140.507V69.9H141.872ZM151.698 76.575C151.698 76.835 151.683 77.11 151.653 77.4H145.083C145.133 78.21 145.408 78.845 145.908 79.305C146.418 79.755 147.033 79.98 147.753 79.98C148.343 79.98 148.833 79.845 149.223 79.575C149.623 79.295 149.903 78.925 150.063 78.465H151.533C151.313 79.255 150.873 79.9 150.213 80.4C149.553 80.89 148.733 81.135 147.753 81.135C146.973 81.135 146.273 80.96 145.653 80.61C145.043 80.26 144.563 79.765 144.213 79.125C143.863 78.475 143.688 77.725 143.688 76.875C143.688 76.025 143.858 75.28 144.198 74.64C144.538 74 145.013 73.51 145.623 73.17C146.243 72.82 146.953 72.645 147.753 72.645C148.533 72.645 149.223 72.815 149.823 73.155C150.423 73.495 150.883 73.965 151.203 74.565C151.533 75.155 151.698 75.825 151.698 76.575ZM150.288 76.29C150.288 75.77 150.173 75.325 149.943 74.955C149.713 74.575 149.398 74.29 148.998 74.1C148.608 73.9 148.173 73.8 147.693 73.8C147.003 73.8 146.413 74.02 145.923 74.46C145.443 74.9 145.168 75.51 145.098 76.29H150.288ZM156.41 81.135C155.78 81.135 155.215 81.03 154.715 80.82C154.215 80.6 153.82 80.3 153.53 79.92C153.24 79.53 153.08 79.085 153.05 78.585H154.46C154.5 78.995 154.69 79.33 155.03 79.59C155.38 79.85 155.835 79.98 156.395 79.98C156.915 79.98 157.325 79.865 157.625 79.635C157.925 79.405 158.075 79.115 158.075 78.765C158.075 78.405 157.915 78.14 157.595 77.97C157.275 77.79 156.78 77.615 156.11 77.445C155.5 77.285 155 77.125 154.61 76.965C154.23 76.795 153.9 76.55 153.62 76.23C153.35 75.9 153.215 75.47 153.215 74.94C153.215 74.52 153.34 74.135 153.59 73.785C153.84 73.435 154.195 73.16 154.655 72.96C155.115 72.75 155.64 72.645 156.23 72.645C157.14 72.645 157.875 72.875 158.435 73.335C158.995 73.795 159.295 74.425 159.335 75.225H157.97C157.94 74.795 157.765 74.45 157.445 74.19C157.135 73.93 156.715 73.8 156.185 73.8C155.695 73.8 155.305 73.905 155.015 74.115C154.725 74.325 154.58 74.6 154.58 74.94C154.58 75.21 154.665 75.435 154.835 75.615C155.015 75.785 155.235 75.925 155.495 76.035C155.765 76.135 156.135 76.25 156.605 76.38C157.195 76.54 157.675 76.7 158.045 76.86C158.415 77.01 158.73 77.24 158.99 77.55C159.26 77.86 159.4 78.265 159.41 78.765C159.41 79.215 159.285 79.62 159.035 79.98C158.785 80.34 158.43 80.625 157.97 80.835C157.52 81.035 157 81.135 156.41 81.135Z" fill="#394253" fill-opacity="0.8"/>
<path d="M54.772 199L52.614 195.295H51.184V199H50.001V189.939H52.926C53.6107 189.939 54.187 190.056 54.655 190.29C55.1317 190.524 55.487 190.84 55.721 191.239C55.955 191.638 56.072 192.093 56.072 192.604C56.072 193.228 55.89 193.778 55.526 194.255C55.1707 194.732 54.6333 195.048 53.914 195.204L56.189 199H54.772ZM51.184 194.346H52.926C53.5673 194.346 54.0483 194.19 54.369 193.878C54.6897 193.557 54.85 193.133 54.85 192.604C54.85 192.067 54.6897 191.651 54.369 191.356C54.057 191.061 53.576 190.914 52.926 190.914H51.184V194.346ZM64.4102 195.165C64.4102 195.39 64.3972 195.629 64.3712 195.88H58.6772C58.7205 196.582 58.9588 197.132 59.3922 197.531C59.8342 197.921 60.3672 198.116 60.9912 198.116C61.5025 198.116 61.9272 197.999 62.2652 197.765C62.6118 197.522 62.8545 197.202 62.9932 196.803H64.2672C64.0765 197.488 63.6952 198.047 63.1232 198.48C62.5512 198.905 61.8405 199.117 60.9912 199.117C60.3152 199.117 59.7085 198.965 59.1712 198.662C58.6425 198.359 58.2265 197.93 57.9232 197.375C57.6198 196.812 57.4682 196.162 57.4682 195.425C57.4682 194.688 57.6155 194.043 57.9102 193.488C58.2048 192.933 58.6165 192.509 59.1452 192.214C59.6825 191.911 60.2978 191.759 60.9912 191.759C61.6672 191.759 62.2652 191.906 62.7852 192.201C63.3052 192.496 63.7038 192.903 63.9812 193.423C64.2672 193.934 64.4102 194.515 64.4102 195.165ZM63.1882 194.918C63.1882 194.467 63.0885 194.082 62.8892 193.761C62.6898 193.432 62.4168 193.185 62.0702 193.02C61.7322 192.847 61.3552 192.76 60.9392 192.76C60.3412 192.76 59.8298 192.951 59.4052 193.332C58.9892 193.713 58.7508 194.242 58.6902 194.918H63.1882ZM65.5297 195.425C65.5297 194.688 65.677 194.047 65.9717 193.501C66.2664 192.946 66.6737 192.517 67.1937 192.214C67.7224 191.911 68.3247 191.759 69.0007 191.759C69.876 191.759 70.5954 191.971 71.1587 192.396C71.7307 192.821 72.1077 193.41 72.2897 194.164H71.0157C70.8944 193.731 70.656 193.388 70.3007 193.137C69.954 192.886 69.5207 192.76 69.0007 192.76C68.3247 192.76 67.7787 192.994 67.3627 193.462C66.9467 193.921 66.7387 194.576 66.7387 195.425C66.7387 196.283 66.9467 196.946 67.3627 197.414C67.7787 197.882 68.3247 198.116 69.0007 198.116C69.5207 198.116 69.954 197.995 70.3007 197.752C70.6474 197.509 70.8857 197.163 71.0157 196.712H72.2897C72.099 197.44 71.7177 198.025 71.1457 198.467C70.5737 198.9 69.8587 199.117 69.0007 199.117C68.3247 199.117 67.7224 198.965 67.1937 198.662C66.6737 198.359 66.2664 197.93 65.9717 197.375C65.677 196.82 65.5297 196.17 65.5297 195.425ZM76.9752 199.117C76.3079 199.117 75.7012 198.965 75.1552 198.662C74.6179 198.359 74.1932 197.93 73.8812 197.375C73.5779 196.812 73.4262 196.162 73.4262 195.425C73.4262 194.697 73.5822 194.056 73.8942 193.501C74.2149 192.938 74.6482 192.509 75.1942 192.214C75.7402 191.911 76.3512 191.759 77.0272 191.759C77.7032 191.759 78.3142 191.911 78.8602 192.214C79.4062 192.509 79.8352 192.933 80.1472 193.488C80.4679 194.043 80.6282 194.688 80.6282 195.425C80.6282 196.162 80.4635 196.812 80.1342 197.375C79.8135 197.93 79.3759 198.359 78.8212 198.662C78.2665 198.965 77.6512 199.117 76.9752 199.117ZM76.9752 198.077C77.3999 198.077 77.7985 197.977 78.1712 197.778C78.5439 197.579 78.8429 197.28 79.0682 196.881C79.3022 196.482 79.4192 195.997 79.4192 195.425C79.4192 194.853 79.3065 194.368 79.0812 193.969C78.8559 193.57 78.5612 193.276 78.1972 193.085C77.8332 192.886 77.4389 192.786 77.0142 192.786C76.5809 192.786 76.1822 192.886 75.8182 193.085C75.4629 193.276 75.1769 193.57 74.9602 193.969C74.7435 194.368 74.6352 194.853 74.6352 195.425C74.6352 196.006 74.7392 196.495 74.9472 196.894C75.1639 197.293 75.4499 197.592 75.8052 197.791C76.1605 197.982 76.5505 198.077 76.9752 198.077ZM90.7506 191.746C91.3053 191.746 91.7993 191.863 92.2326 192.097C92.666 192.322 93.0083 192.665 93.2596 193.124C93.511 193.583 93.6366 194.142 93.6366 194.801V199H92.4666V194.97C92.4666 194.259 92.289 193.718 91.9336 193.345C91.587 192.964 91.1146 192.773 90.5166 192.773C89.9013 192.773 89.4116 192.972 89.0476 193.371C88.6836 193.761 88.5016 194.329 88.5016 195.074V199H87.3316V194.97C87.3316 194.259 87.154 193.718 86.7986 193.345C86.452 192.964 85.9796 192.773 85.3816 192.773C84.7663 192.773 84.2766 192.972 83.9126 193.371C83.5486 193.761 83.3666 194.329 83.3666 195.074V199H82.1836V191.876H83.3666V192.903C83.6006 192.53 83.9126 192.244 84.3026 192.045C84.7013 191.846 85.139 191.746 85.6156 191.746C86.2136 191.746 86.7423 191.88 87.2016 192.149C87.661 192.418 88.0033 192.812 88.2286 193.332C88.428 192.829 88.7573 192.439 89.2166 192.162C89.676 191.885 90.1873 191.746 90.7506 191.746ZM104.144 191.746C104.699 191.746 105.193 191.863 105.626 192.097C106.06 192.322 106.402 192.665 106.653 193.124C106.905 193.583 107.03 194.142 107.03 194.801V199H105.86V194.97C105.86 194.259 105.683 193.718 105.327 193.345C104.981 192.964 104.508 192.773 103.91 192.773C103.295 192.773 102.805 192.972 102.441 193.371C102.077 193.761 101.895 194.329 101.895 195.074V199H100.725V194.97C100.725 194.259 100.548 193.718 100.192 193.345C99.8455 192.964 99.3732 192.773 98.7752 192.773C98.1598 192.773 97.6702 192.972 97.3062 193.371C96.9422 193.761 96.7602 194.329 96.7602 195.074V199H95.5772V191.876H96.7602V192.903C96.9942 192.53 97.3062 192.244 97.6962 192.045C98.0948 191.846 98.5325 191.746 99.0092 191.746C99.6072 191.746 100.136 191.88 100.595 192.149C101.055 192.418 101.397 192.812 101.622 193.332C101.822 192.829 102.151 192.439 102.61 192.162C103.07 191.885 103.581 191.746 104.144 191.746ZM115.471 195.165C115.471 195.39 115.458 195.629 115.432 195.88H109.738C109.781 196.582 110.019 197.132 110.453 197.531C110.895 197.921 111.428 198.116 112.052 198.116C112.563 198.116 112.988 197.999 113.326 197.765C113.672 197.522 113.915 197.202 114.054 196.803H115.328C115.137 197.488 114.756 198.047 114.184 198.48C113.612 198.905 112.901 199.117 112.052 199.117C111.376 199.117 110.769 198.965 110.232 198.662C109.703 198.359 109.287 197.93 108.984 197.375C108.68 196.812 108.529 196.162 108.529 195.425C108.529 194.688 108.676 194.043 108.971 193.488C109.265 192.933 109.677 192.509 110.206 192.214C110.743 191.911 111.358 191.759 112.052 191.759C112.728 191.759 113.326 191.906 113.846 192.201C114.366 192.496 114.764 192.903 115.042 193.423C115.328 193.934 115.471 194.515 115.471 195.165ZM114.249 194.918C114.249 194.467 114.149 194.082 113.95 193.761C113.75 193.432 113.477 193.185 113.131 193.02C112.793 192.847 112.416 192.76 112 192.76C111.402 192.76 110.89 192.951 110.466 193.332C110.05 193.713 109.811 194.242 109.751 194.918H114.249ZM120.503 191.746C121.37 191.746 122.072 192.01 122.609 192.539C123.147 193.059 123.415 193.813 123.415 194.801V199H122.245V194.97C122.245 194.259 122.068 193.718 121.712 193.345C121.357 192.964 120.872 192.773 120.256 192.773C119.632 192.773 119.134 192.968 118.761 193.358C118.397 193.748 118.215 194.316 118.215 195.061V199H117.032V191.876H118.215V192.89C118.449 192.526 118.766 192.244 119.164 192.045C119.572 191.846 120.018 191.746 120.503 191.746ZM124.906 195.412C124.906 194.684 125.053 194.047 125.348 193.501C125.642 192.946 126.045 192.517 126.557 192.214C127.077 191.911 127.657 191.759 128.299 191.759C128.853 191.759 129.369 191.889 129.846 192.149C130.322 192.4 130.686 192.734 130.938 193.15V189.38H132.134V199H130.938V197.661C130.704 198.086 130.357 198.437 129.898 198.714C129.438 198.983 128.901 199.117 128.286 199.117C127.653 199.117 127.077 198.961 126.557 198.649C126.045 198.337 125.642 197.899 125.348 197.336C125.053 196.773 124.906 196.131 124.906 195.412ZM130.938 195.425C130.938 194.888 130.829 194.42 130.613 194.021C130.396 193.622 130.101 193.319 129.729 193.111C129.365 192.894 128.962 192.786 128.52 192.786C128.078 192.786 127.675 192.89 127.311 193.098C126.947 193.306 126.656 193.609 126.44 194.008C126.223 194.407 126.115 194.875 126.115 195.412C126.115 195.958 126.223 196.435 126.44 196.842C126.656 197.241 126.947 197.548 127.311 197.765C127.675 197.973 128.078 198.077 128.52 198.077C128.962 198.077 129.365 197.973 129.729 197.765C130.101 197.548 130.396 197.241 130.613 196.842C130.829 196.435 130.938 195.962 130.938 195.425ZM140.633 195.165C140.633 195.39 140.62 195.629 140.594 195.88H134.9C134.943 196.582 135.182 197.132 135.615 197.531C136.057 197.921 136.59 198.116 137.214 198.116C137.725 198.116 138.15 197.999 138.488 197.765C138.835 197.522 139.077 197.202 139.216 196.803H140.49C140.299 197.488 139.918 198.047 139.346 198.48C138.774 198.905 138.063 199.117 137.214 199.117C136.538 199.117 135.931 198.965 135.394 198.662C134.865 198.359 134.449 197.93 134.146 197.375C133.843 196.812 133.691 196.162 133.691 195.425C133.691 194.688 133.838 194.043 134.133 193.488C134.428 192.933 134.839 192.509 135.368 192.214C135.905 191.911 136.521 191.759 137.214 191.759C137.89 191.759 138.488 191.906 139.008 192.201C139.528 192.496 139.927 192.903 140.204 193.423C140.49 193.934 140.633 194.515 140.633 195.165ZM139.411 194.918C139.411 194.467 139.311 194.082 139.112 193.761C138.913 193.432 138.64 193.185 138.293 193.02C137.955 192.847 137.578 192.76 137.162 192.76C136.564 192.76 136.053 192.951 135.628 193.332C135.212 193.713 134.974 194.242 134.913 194.918H139.411ZM141.752 195.412C141.752 194.684 141.9 194.047 142.194 193.501C142.489 192.946 142.892 192.517 143.403 192.214C143.923 191.911 144.504 191.759 145.145 191.759C145.7 191.759 146.216 191.889 146.692 192.149C147.169 192.4 147.533 192.734 147.784 193.15V189.38H148.98V199H147.784V197.661C147.55 198.086 147.204 198.437 146.744 198.714C146.285 198.983 145.748 199.117 145.132 199.117C144.5 199.117 143.923 198.961 143.403 198.649C142.892 198.337 142.489 197.899 142.194 197.336C141.9 196.773 141.752 196.131 141.752 195.412ZM147.784 195.425C147.784 194.888 147.676 194.42 147.459 194.021C147.243 193.622 146.948 193.319 146.575 193.111C146.211 192.894 145.808 192.786 145.366 192.786C144.924 192.786 144.521 192.89 144.157 193.098C143.793 193.306 143.503 193.609 143.286 194.008C143.07 194.407 142.961 194.875 142.961 195.412C142.961 195.958 143.07 196.435 143.286 196.842C143.503 197.241 143.793 197.548 144.157 197.765C144.521 197.973 144.924 198.077 145.366 198.077C145.808 198.077 146.211 197.973 146.575 197.765C146.948 197.548 147.243 197.241 147.459 196.842C147.676 196.435 147.784 195.962 147.784 195.425Z" fill="#394253" fill-opacity="0.8"/>
<path d="M175.874 199.091C175.276 199.091 174.739 198.987 174.262 198.779C173.794 198.562 173.426 198.268 173.157 197.895C172.888 197.514 172.75 197.076 172.741 196.582H174.002C174.045 197.007 174.219 197.366 174.522 197.661C174.834 197.947 175.285 198.09 175.874 198.09C176.437 198.09 176.879 197.951 177.2 197.674C177.529 197.388 177.694 197.024 177.694 196.582C177.694 196.235 177.599 195.954 177.408 195.737C177.217 195.52 176.979 195.356 176.693 195.243C176.407 195.13 176.021 195.009 175.536 194.879C174.938 194.723 174.457 194.567 174.093 194.411C173.738 194.255 173.43 194.012 173.17 193.683C172.919 193.345 172.793 192.894 172.793 192.331C172.793 191.837 172.919 191.399 173.17 191.018C173.421 190.637 173.772 190.342 174.223 190.134C174.682 189.926 175.207 189.822 175.796 189.822C176.645 189.822 177.339 190.034 177.876 190.459C178.422 190.884 178.73 191.447 178.799 192.149H177.499C177.456 191.802 177.274 191.499 176.953 191.239C176.632 190.97 176.208 190.836 175.679 190.836C175.185 190.836 174.782 190.966 174.47 191.226C174.158 191.477 174.002 191.833 174.002 192.292C174.002 192.621 174.093 192.89 174.275 193.098C174.466 193.306 174.695 193.466 174.964 193.579C175.241 193.683 175.627 193.804 176.121 193.943C176.719 194.108 177.2 194.272 177.564 194.437C177.928 194.593 178.24 194.84 178.5 195.178C178.76 195.507 178.89 195.958 178.89 196.53C178.89 196.972 178.773 197.388 178.539 197.778C178.305 198.168 177.958 198.484 177.499 198.727C177.04 198.97 176.498 199.091 175.874 199.091ZM186.949 191.876V199H185.766V197.947C185.541 198.311 185.224 198.597 184.817 198.805C184.418 199.004 183.976 199.104 183.491 199.104C182.936 199.104 182.438 198.991 181.996 198.766C181.554 198.532 181.203 198.185 180.943 197.726C180.692 197.267 180.566 196.708 180.566 196.049V191.876H181.736V195.893C181.736 196.595 181.914 197.137 182.269 197.518C182.624 197.891 183.11 198.077 183.725 198.077C184.358 198.077 184.856 197.882 185.22 197.492C185.584 197.102 185.766 196.534 185.766 195.789V191.876H186.949ZM190.129 193.189C190.363 192.782 190.71 192.444 191.169 192.175C191.637 191.898 192.179 191.759 192.794 191.759C193.427 191.759 193.999 191.911 194.51 192.214C195.03 192.517 195.438 192.946 195.732 193.501C196.027 194.047 196.174 194.684 196.174 195.412C196.174 196.131 196.027 196.773 195.732 197.336C195.438 197.899 195.03 198.337 194.51 198.649C193.999 198.961 193.427 199.117 192.794 199.117C192.188 199.117 191.65 198.983 191.182 198.714C190.723 198.437 190.372 198.094 190.129 197.687V202.38H188.946V191.876H190.129V193.189ZM194.965 195.412C194.965 194.875 194.857 194.407 194.64 194.008C194.424 193.609 194.129 193.306 193.756 193.098C193.392 192.89 192.989 192.786 192.547 192.786C192.114 192.786 191.711 192.894 191.338 193.111C190.974 193.319 190.68 193.627 190.454 194.034C190.238 194.433 190.129 194.896 190.129 195.425C190.129 195.962 190.238 196.435 190.454 196.842C190.68 197.241 190.974 197.548 191.338 197.765C191.711 197.973 192.114 198.077 192.547 198.077C192.989 198.077 193.392 197.973 193.756 197.765C194.129 197.548 194.424 197.241 194.64 196.842C194.857 196.435 194.965 195.958 194.965 195.412ZM204.231 195.165C204.231 195.39 204.218 195.629 204.192 195.88H198.498C198.542 196.582 198.78 197.132 199.213 197.531C199.655 197.921 200.188 198.116 200.812 198.116C201.324 198.116 201.748 197.999 202.086 197.765C202.433 197.522 202.676 197.202 202.814 196.803H204.088C203.898 197.488 203.516 198.047 202.944 198.48C202.372 198.905 201.662 199.117 200.812 199.117C200.136 199.117 199.53 198.965 198.992 198.662C198.464 198.359 198.048 197.93 197.744 197.375C197.441 196.812 197.289 196.162 197.289 195.425C197.289 194.688 197.437 194.043 197.731 193.488C198.026 192.933 198.438 192.509 198.966 192.214C199.504 191.911 200.119 191.759 200.812 191.759C201.488 191.759 202.086 191.906 202.606 192.201C203.126 192.496 203.525 192.903 203.802 193.423C204.088 193.934 204.231 194.515 204.231 195.165ZM203.009 194.918C203.009 194.467 202.91 194.082 202.71 193.761C202.511 193.432 202.238 193.185 201.891 193.02C201.553 192.847 201.176 192.76 200.76 192.76C200.162 192.76 199.651 192.951 199.226 193.332C198.81 193.713 198.572 194.242 198.511 194.918H203.009ZM206.976 193.033C207.184 192.626 207.479 192.309 207.86 192.084C208.25 191.859 208.722 191.746 209.277 191.746V192.968H208.965C207.639 192.968 206.976 193.687 206.976 195.126V199H205.793V191.876H206.976V193.033ZM213.295 197.908L215.505 191.876H216.766L213.971 199H212.593L209.798 191.876H211.072L213.295 197.908ZM218.541 190.719C218.315 190.719 218.125 190.641 217.969 190.485C217.813 190.329 217.735 190.138 217.735 189.913C217.735 189.688 217.813 189.497 217.969 189.341C218.125 189.185 218.315 189.107 218.541 189.107C218.757 189.107 218.939 189.185 219.087 189.341C219.243 189.497 219.321 189.688 219.321 189.913C219.321 190.138 219.243 190.329 219.087 190.485C218.939 190.641 218.757 190.719 218.541 190.719ZM219.113 191.876V199H217.93V191.876H219.113ZM223.651 199.117C223.105 199.117 222.615 199.026 222.182 198.844C221.749 198.653 221.406 198.393 221.155 198.064C220.904 197.726 220.765 197.34 220.739 196.907H221.961C221.996 197.262 222.16 197.553 222.455 197.778C222.758 198.003 223.153 198.116 223.638 198.116C224.089 198.116 224.444 198.016 224.704 197.817C224.964 197.618 225.094 197.366 225.094 197.063C225.094 196.751 224.955 196.521 224.678 196.374C224.401 196.218 223.972 196.066 223.391 195.919C222.862 195.78 222.429 195.642 222.091 195.503C221.762 195.356 221.476 195.143 221.233 194.866C220.999 194.58 220.882 194.207 220.882 193.748C220.882 193.384 220.99 193.05 221.207 192.747C221.424 192.444 221.731 192.205 222.13 192.032C222.529 191.85 222.984 191.759 223.495 191.759C224.284 191.759 224.921 191.958 225.406 192.357C225.891 192.756 226.151 193.302 226.186 193.995H225.003C224.977 193.622 224.825 193.323 224.548 193.098C224.279 192.873 223.915 192.76 223.456 192.76C223.031 192.76 222.693 192.851 222.442 193.033C222.191 193.215 222.065 193.453 222.065 193.748C222.065 193.982 222.139 194.177 222.286 194.333C222.442 194.48 222.633 194.602 222.858 194.697C223.092 194.784 223.413 194.883 223.82 194.996C224.331 195.135 224.747 195.273 225.068 195.412C225.389 195.542 225.662 195.741 225.887 196.01C226.121 196.279 226.242 196.63 226.251 197.063C226.251 197.453 226.143 197.804 225.926 198.116C225.709 198.428 225.402 198.675 225.003 198.857C224.613 199.03 224.162 199.117 223.651 199.117ZM234.421 195.165C234.421 195.39 234.408 195.629 234.382 195.88H228.688C228.731 196.582 228.97 197.132 229.403 197.531C229.845 197.921 230.378 198.116 231.002 198.116C231.513 198.116 231.938 197.999 232.276 197.765C232.623 197.522 232.865 197.202 233.004 196.803H234.278C234.087 197.488 233.706 198.047 233.134 198.48C232.562 198.905 231.851 199.117 231.002 199.117C230.326 199.117 229.719 198.965 229.182 198.662C228.653 198.359 228.237 197.93 227.934 197.375C227.631 196.812 227.479 196.162 227.479 195.425C227.479 194.688 227.626 194.043 227.921 193.488C228.216 192.933 228.627 192.509 229.156 192.214C229.693 191.911 230.309 191.759 231.002 191.759C231.678 191.759 232.276 191.906 232.796 192.201C233.316 192.496 233.715 192.903 233.992 193.423C234.278 193.934 234.421 194.515 234.421 195.165ZM233.199 194.918C233.199 194.467 233.099 194.082 232.9 193.761C232.701 193.432 232.428 193.185 232.081 193.02C231.743 192.847 231.366 192.76 230.95 192.76C230.352 192.76 229.841 192.951 229.416 193.332C229 193.713 228.762 194.242 228.701 194.918H233.199ZM235.54 195.412C235.54 194.684 235.688 194.047 235.982 193.501C236.277 192.946 236.68 192.517 237.191 192.214C237.711 191.911 238.292 191.759 238.933 191.759C239.488 191.759 240.004 191.889 240.48 192.149C240.957 192.4 241.321 192.734 241.572 193.15V189.38H242.768V199H241.572V197.661C241.338 198.086 240.992 198.437 240.532 198.714C240.073 198.983 239.536 199.117 238.92 199.117C238.288 199.117 237.711 198.961 237.191 198.649C236.68 198.337 236.277 197.899 235.982 197.336C235.688 196.773 235.54 196.131 235.54 195.412ZM241.572 195.425C241.572 194.888 241.464 194.42 241.247 194.021C241.031 193.622 240.736 193.319 240.363 193.111C239.999 192.894 239.596 192.786 239.154 192.786C238.712 192.786 238.309 192.89 237.945 193.098C237.581 193.306 237.291 193.609 237.074 194.008C236.858 194.407 236.749 194.875 236.749 195.412C236.749 195.958 236.858 196.435 237.074 196.842C237.291 197.241 237.581 197.548 237.945 197.765C238.309 197.973 238.712 198.077 239.154 198.077C239.596 198.077 239.999 197.973 240.363 197.765C240.736 197.548 241.031 197.241 241.247 196.842C241.464 196.435 241.572 195.962 241.572 195.425ZM249.708 193.735V194.736H244.521V193.735H249.708ZM253.111 190.901V193.93H256.413V194.905H253.111V198.025H256.803V199H251.928V189.926H256.803V190.901H253.111ZM263.715 189.939V190.901H259.776V193.956H262.974V194.918H259.776V199H258.593V189.939H263.715ZM267.965 189.939C268.953 189.939 269.806 190.125 270.526 190.498C271.254 190.862 271.808 191.386 272.19 192.071C272.58 192.756 272.775 193.562 272.775 194.489C272.775 195.416 272.58 196.222 272.19 196.907C271.808 197.583 271.254 198.103 270.526 198.467C269.806 198.822 268.953 199 267.965 199H265.144V189.939H267.965ZM267.965 198.025C269.135 198.025 270.027 197.717 270.643 197.102C271.258 196.478 271.566 195.607 271.566 194.489C271.566 193.362 271.254 192.483 270.63 191.85C270.014 191.217 269.126 190.901 267.965 190.901H266.327V198.025H267.965ZM279.275 193.735V194.736H274.088V193.735H279.275ZM284.316 189.939C285.304 189.939 286.158 190.125 286.877 190.498C287.605 190.862 288.16 191.386 288.541 192.071C288.931 192.756 289.126 193.562 289.126 194.489C289.126 195.416 288.931 196.222 288.541 196.907C288.16 197.583 287.605 198.103 286.877 198.467C286.158 198.822 285.304 199 284.316 199H281.495V189.939H284.316ZM284.316 198.025C285.486 198.025 286.379 197.717 286.994 197.102C287.609 196.478 287.917 195.607 287.917 194.489C287.917 193.362 287.605 192.483 286.981 191.85C286.366 191.217 285.477 190.901 284.316 190.901H282.678V198.025H284.316ZM290.245 195.412C290.245 194.684 290.392 194.047 290.687 193.501C290.981 192.946 291.384 192.517 291.896 192.214C292.416 191.911 292.992 191.759 293.625 191.759C294.249 191.759 294.79 191.893 295.25 192.162C295.709 192.431 296.051 192.769 296.277 193.176V191.876H297.473V199H296.277V197.674C296.043 198.09 295.692 198.437 295.224 198.714C294.764 198.983 294.227 199.117 293.612 199.117C292.979 199.117 292.407 198.961 291.896 198.649C291.384 198.337 290.981 197.899 290.687 197.336C290.392 196.773 290.245 196.131 290.245 195.412ZM296.277 195.425C296.277 194.888 296.168 194.42 295.952 194.021C295.735 193.622 295.44 193.319 295.068 193.111C294.704 192.894 294.301 192.786 293.859 192.786C293.417 192.786 293.014 192.89 292.65 193.098C292.286 193.306 291.995 193.609 291.779 194.008C291.562 194.407 291.454 194.875 291.454 195.412C291.454 195.958 291.562 196.435 291.779 196.842C291.995 197.241 292.286 197.548 292.65 197.765C293.014 197.973 293.417 198.077 293.859 198.077C294.301 198.077 294.704 197.973 295.068 197.765C295.44 197.548 295.735 197.241 295.952 196.842C296.168 196.435 296.277 195.962 296.277 195.425ZM300.915 192.851V197.05C300.915 197.397 300.988 197.644 301.136 197.791C301.283 197.93 301.539 197.999 301.903 197.999H302.774V199H301.708C301.049 199 300.555 198.848 300.226 198.545C299.896 198.242 299.732 197.743 299.732 197.05V192.851H298.809V191.876H299.732V190.082H300.915V191.876H302.774V192.851H300.915ZM303.765 195.412C303.765 194.684 303.912 194.047 304.207 193.501C304.502 192.946 304.905 192.517 305.416 192.214C305.936 191.911 306.512 191.759 307.145 191.759C307.769 191.759 308.311 191.893 308.77 192.162C309.229 192.431 309.572 192.769 309.797 193.176V191.876H310.993V199H309.797V197.674C309.563 198.09 309.212 198.437 308.744 198.714C308.285 198.983 307.747 199.117 307.132 199.117C306.499 199.117 305.927 198.961 305.416 198.649C304.905 198.337 304.502 197.899 304.207 197.336C303.912 196.773 303.765 196.131 303.765 195.412ZM309.797 195.425C309.797 194.888 309.689 194.42 309.472 194.021C309.255 193.622 308.961 193.319 308.588 193.111C308.224 192.894 307.821 192.786 307.379 192.786C306.937 192.786 306.534 192.89 306.17 193.098C305.806 193.306 305.516 193.609 305.299 194.008C305.082 194.407 304.974 194.875 304.974 195.412C304.974 195.958 305.082 196.435 305.299 196.842C305.516 197.241 305.806 197.548 306.17 197.765C306.534 197.973 306.937 198.077 307.379 198.077C307.821 198.077 308.224 197.973 308.588 197.765C308.961 197.548 309.255 197.241 309.472 196.842C309.689 196.435 309.797 195.962 309.797 195.425ZM317.932 193.735V194.736H312.745V193.735H317.932ZM325.066 199L321.335 194.866V199H320.152V189.939H321.335V194.138L325.079 189.939H326.574L322.466 194.476L326.613 199H325.066ZM329.118 193.189C329.352 192.782 329.698 192.444 330.158 192.175C330.626 191.898 331.167 191.759 331.783 191.759C332.415 191.759 332.987 191.911 333.499 192.214C334.019 192.517 334.426 192.946 334.721 193.501C335.015 194.047 335.163 194.684 335.163 195.412C335.163 196.131 335.015 196.773 334.721 197.336C334.426 197.899 334.019 198.337 333.499 198.649C332.987 198.961 332.415 199.117 331.783 199.117C331.176 199.117 330.639 198.983 330.171 198.714C329.711 198.437 329.36 198.094 329.118 197.687V202.38H327.935V191.876H329.118V193.189ZM333.954 195.412C333.954 194.875 333.845 194.407 333.629 194.008C333.412 193.609 333.117 193.306 332.745 193.098C332.381 192.89 331.978 192.786 331.536 192.786C331.102 192.786 330.699 192.894 330.327 193.111C329.963 193.319 329.668 193.627 329.443 194.034C329.226 194.433 329.118 194.896 329.118 195.425C329.118 195.962 329.226 196.435 329.443 196.842C329.668 197.241 329.963 197.548 330.327 197.765C330.699 197.973 331.102 198.077 331.536 198.077C331.978 198.077 332.381 197.973 332.745 197.765C333.117 197.548 333.412 197.241 333.629 196.842C333.845 196.435 333.954 195.958 333.954 195.412ZM337.331 190.719C337.105 190.719 336.915 190.641 336.759 190.485C336.603 190.329 336.525 190.138 336.525 189.913C336.525 189.688 336.603 189.497 336.759 189.341C336.915 189.185 337.105 189.107 337.331 189.107C337.547 189.107 337.729 189.185 337.877 189.341C338.033 189.497 338.111 189.688 338.111 189.913C338.111 190.138 338.033 190.329 337.877 190.485C337.729 190.641 337.547 190.719 337.331 190.719ZM337.903 191.876V199H336.72V191.876H337.903ZM344.859 193.735V194.736H339.672V193.735H344.859ZM346.741 198.051C347.842 197.167 348.704 196.443 349.328 195.88C349.952 195.308 350.476 194.714 350.901 194.099C351.334 193.475 351.551 192.864 351.551 192.266C351.551 191.703 351.412 191.261 351.135 190.94C350.866 190.611 350.429 190.446 349.822 190.446C349.233 190.446 348.773 190.632 348.444 191.005C348.123 191.369 347.95 191.859 347.924 192.474H346.78C346.815 191.503 347.109 190.754 347.664 190.225C348.219 189.696 348.934 189.432 349.809 189.432C350.702 189.432 351.408 189.679 351.928 190.173C352.457 190.667 352.721 191.347 352.721 192.214C352.721 192.933 352.504 193.635 352.071 194.32C351.646 194.996 351.161 195.594 350.615 196.114C350.069 196.625 349.371 197.223 348.522 197.908H352.994V198.896H346.741V198.051ZM354.076 196.907V196.01L358.639 189.692H360.056V195.88H361.356V196.907H360.056V199H358.886V196.907H354.076ZM358.938 190.927L355.441 195.88H358.938V190.927ZM362.537 194.203C362.537 192.712 362.78 191.551 363.265 190.719C363.751 189.878 364.6 189.458 365.813 189.458C367.018 189.458 367.863 189.878 368.348 190.719C368.834 191.551 369.076 192.712 369.076 194.203C369.076 195.72 368.834 196.898 368.348 197.739C367.863 198.58 367.018 199 365.813 199C364.6 199 363.751 198.58 363.265 197.739C362.78 196.898 362.537 195.72 362.537 194.203ZM367.906 194.203C367.906 193.449 367.854 192.812 367.75 192.292C367.655 191.763 367.451 191.339 367.139 191.018C366.836 190.697 366.394 190.537 365.813 190.537C365.224 190.537 364.773 190.697 364.461 191.018C364.158 191.339 363.954 191.763 363.85 192.292C363.755 192.812 363.707 193.449 363.707 194.203C363.707 194.983 363.755 195.637 363.85 196.166C363.954 196.695 364.158 197.119 364.461 197.44C364.773 197.761 365.224 197.921 365.813 197.921C366.394 197.921 366.836 197.761 367.139 197.44C367.451 197.119 367.655 196.695 367.75 196.166C367.854 195.637 367.906 194.983 367.906 194.203ZM375.836 193.735V194.736H370.649V193.735H375.836ZM377.549 190.68V189.601H379.993V199H378.797V190.68H377.549ZM381.882 198.051C382.982 197.167 383.845 196.443 384.469 195.88C385.093 195.308 385.617 194.714 386.042 194.099C386.475 193.475 386.692 192.864 386.692 192.266C386.692 191.703 386.553 191.261 386.276 190.94C386.007 190.611 385.569 190.446 384.963 190.446C384.373 190.446 383.914 190.632 383.585 191.005C383.264 191.369 383.091 191.859 383.065 192.474H381.921C381.955 191.503 382.25 190.754 382.805 190.225C383.359 189.696 384.074 189.432 384.95 189.432C385.842 189.432 386.549 189.679 387.069 190.173C387.597 190.667 387.862 191.347 387.862 192.214C387.862 192.933 387.645 193.635 387.212 194.32C386.787 194.996 386.302 195.594 385.756 196.114C385.21 196.625 384.512 197.223 383.663 197.908H388.135V198.896H381.882V198.051ZM389.476 191.967C389.537 191.17 389.845 190.546 390.399 190.095C390.954 189.644 391.673 189.419 392.557 189.419C393.147 189.419 393.654 189.527 394.078 189.744C394.512 189.952 394.837 190.238 395.053 190.602C395.279 190.966 395.391 191.378 395.391 191.837C395.391 192.374 395.235 192.838 394.923 193.228C394.62 193.618 394.221 193.869 393.727 193.982V194.047C394.291 194.186 394.737 194.459 395.066 194.866C395.396 195.273 395.56 195.806 395.56 196.465C395.56 196.959 395.448 197.405 395.222 197.804C394.997 198.194 394.659 198.502 394.208 198.727C393.758 198.952 393.216 199.065 392.583 199.065C391.665 199.065 390.911 198.827 390.321 198.35C389.732 197.865 389.403 197.18 389.333 196.296H390.477C390.538 196.816 390.75 197.241 391.114 197.57C391.478 197.899 391.964 198.064 392.57 198.064C393.177 198.064 393.636 197.908 393.948 197.596C394.269 197.275 394.429 196.864 394.429 196.361C394.429 195.711 394.213 195.243 393.779 194.957C393.346 194.671 392.692 194.528 391.816 194.528H391.517V193.54H391.829C392.627 193.531 393.229 193.401 393.636 193.15C394.044 192.89 394.247 192.491 394.247 191.954C394.247 191.495 394.096 191.126 393.792 190.849C393.498 190.572 393.073 190.433 392.518 190.433C391.981 190.433 391.548 190.572 391.218 190.849C390.889 191.126 390.694 191.499 390.633 191.967H389.476ZM396.846 190.68V189.601H399.29V199H398.094V190.68H396.846ZM401.179 198.051C402.279 197.167 403.142 196.443 403.766 195.88C404.39 195.308 404.914 194.714 405.339 194.099C405.772 193.475 405.989 192.864 405.989 192.266C405.989 191.703 405.85 191.261 405.573 190.94C405.304 190.611 404.866 190.446 404.26 190.446C403.67 190.446 403.211 190.632 402.882 191.005C402.561 191.369 402.388 191.859 402.362 192.474H401.218C401.252 191.503 401.547 190.754 402.102 190.225C402.656 189.696 403.371 189.432 404.247 189.432C405.139 189.432 405.846 189.679 406.366 190.173C406.894 190.667 407.159 191.347 407.159 192.214C407.159 192.933 406.942 193.635 406.509 194.32C406.084 194.996 405.599 195.594 405.053 196.114C404.507 196.625 403.809 197.223 402.96 197.908H407.432V198.896H401.179V198.051ZM408.773 191.967C408.834 191.17 409.141 190.546 409.696 190.095C410.251 189.644 410.97 189.419 411.854 189.419C412.443 189.419 412.95 189.527 413.375 189.744C413.808 189.952 414.133 190.238 414.35 190.602C414.575 190.966 414.688 191.378 414.688 191.837C414.688 192.374 414.532 192.838 414.22 193.228C413.917 193.618 413.518 193.869 413.024 193.982V194.047C413.587 194.186 414.034 194.459 414.363 194.866C414.692 195.273 414.857 195.806 414.857 196.465C414.857 196.959 414.744 197.405 414.519 197.804C414.294 198.194 413.956 198.502 413.505 198.727C413.054 198.952 412.513 199.065 411.88 199.065C410.961 199.065 410.207 198.827 409.618 198.35C409.029 197.865 408.699 197.18 408.63 196.296H409.774C409.835 196.816 410.047 197.241 410.411 197.57C410.775 197.899 411.26 198.064 411.867 198.064C412.474 198.064 412.933 197.908 413.245 197.596C413.566 197.275 413.726 196.864 413.726 196.361C413.726 195.711 413.509 195.243 413.076 194.957C412.643 194.671 411.988 194.528 411.113 194.528H410.814V193.54H411.126C411.923 193.531 412.526 193.401 412.933 193.15C413.34 192.89 413.544 192.491 413.544 191.954C413.544 191.495 413.392 191.126 413.089 190.849C412.794 190.572 412.37 190.433 411.815 190.433C411.278 190.433 410.844 190.572 410.515 190.849C410.186 191.126 409.991 191.499 409.93 191.967H408.773ZM421.693 191.837C421.503 190.875 420.909 190.394 419.912 190.394C419.141 190.394 418.565 190.693 418.183 191.291C417.802 191.88 417.616 192.855 417.624 194.216C417.824 193.765 418.153 193.414 418.612 193.163C419.08 192.903 419.6 192.773 420.172 192.773C421.065 192.773 421.776 193.05 422.304 193.605C422.842 194.16 423.11 194.927 423.11 195.906C423.11 196.495 422.993 197.024 422.759 197.492C422.534 197.96 422.187 198.333 421.719 198.61C421.26 198.887 420.701 199.026 420.042 199.026C419.15 199.026 418.452 198.827 417.949 198.428C417.447 198.029 417.096 197.479 416.896 196.777C416.697 196.075 416.597 195.208 416.597 194.177C416.597 190.996 417.707 189.406 419.925 189.406C420.775 189.406 421.442 189.636 421.927 190.095C422.413 190.554 422.699 191.135 422.785 191.837H421.693ZM419.925 193.774C419.553 193.774 419.202 193.852 418.872 194.008C418.543 194.155 418.274 194.385 418.066 194.697C417.867 195 417.767 195.373 417.767 195.815C417.767 196.474 417.958 197.011 418.339 197.427C418.721 197.834 419.267 198.038 419.977 198.038C420.584 198.038 421.065 197.852 421.42 197.479C421.784 197.098 421.966 196.586 421.966 195.945C421.966 195.269 421.793 194.74 421.446 194.359C421.1 193.969 420.593 193.774 419.925 193.774ZM424.68 191.967C424.741 191.17 425.049 190.546 425.603 190.095C426.158 189.644 426.877 189.419 427.761 189.419C428.351 189.419 428.858 189.527 429.282 189.744C429.716 189.952 430.041 190.238 430.257 190.602C430.483 190.966 430.595 191.378 430.595 191.837C430.595 192.374 430.439 192.838 430.127 193.228C429.824 193.618 429.425 193.869 428.931 193.982V194.047C429.495 194.186 429.941 194.459 430.27 194.866C430.6 195.273 430.764 195.806 430.764 196.465C430.764 196.959 430.652 197.405 430.426 197.804C430.201 198.194 429.863 198.502 429.412 198.727C428.962 198.952 428.42 199.065 427.787 199.065C426.869 199.065 426.115 198.827 425.525 198.35C424.936 197.865 424.607 197.18 424.537 196.296H425.681C425.742 196.816 425.954 197.241 426.318 197.57C426.682 197.899 427.168 198.064 427.774 198.064C428.381 198.064 428.84 197.908 429.152 197.596C429.473 197.275 429.633 196.864 429.633 196.361C429.633 195.711 429.417 195.243 428.983 194.957C428.55 194.671 427.896 194.528 427.02 194.528H426.721V193.54H427.033C427.831 193.531 428.433 193.401 428.84 193.15C429.248 192.89 429.451 192.491 429.451 191.954C429.451 191.495 429.3 191.126 428.996 190.849C428.702 190.572 428.277 190.433 427.722 190.433C427.185 190.433 426.752 190.572 426.422 190.849C426.093 191.126 425.898 191.499 425.837 191.967H424.68ZM438.355 190.628H433.792V193.592C433.991 193.315 434.286 193.089 434.676 192.916C435.066 192.734 435.486 192.643 435.937 192.643C436.656 192.643 437.241 192.795 437.692 193.098C438.142 193.393 438.463 193.778 438.654 194.255C438.853 194.723 438.953 195.221 438.953 195.75C438.953 196.374 438.836 196.933 438.602 197.427C438.368 197.921 438.008 198.311 437.523 198.597C437.046 198.883 436.452 199.026 435.742 199.026C434.832 199.026 434.095 198.792 433.532 198.324C432.968 197.856 432.626 197.232 432.505 196.452H433.662C433.774 196.946 434.013 197.332 434.377 197.609C434.741 197.886 435.2 198.025 435.755 198.025C436.439 198.025 436.955 197.821 437.302 197.414C437.648 196.998 437.822 196.452 437.822 195.776C437.822 195.1 437.648 194.58 437.302 194.216C436.955 193.843 436.444 193.657 435.768 193.657C435.308 193.657 434.905 193.77 434.559 193.995C434.221 194.212 433.974 194.511 433.818 194.892H432.7V189.588H438.355V190.628ZM445.764 191.837C445.573 190.875 444.979 190.394 443.983 190.394C443.211 190.394 442.635 190.693 442.254 191.291C441.872 191.88 441.686 192.855 441.695 194.216C441.894 193.765 442.223 193.414 442.683 193.163C443.151 192.903 443.671 192.773 444.243 192.773C445.135 192.773 445.846 193.05 446.375 193.605C446.912 194.16 447.181 194.927 447.181 195.906C447.181 196.495 447.064 197.024 446.83 197.492C446.604 197.96 446.258 198.333 445.79 198.61C445.33 198.887 444.771 199.026 444.113 199.026C443.22 199.026 442.522 198.827 442.02 198.428C441.517 198.029 441.166 197.479 440.967 196.777C440.767 196.075 440.668 195.208 440.668 194.177C440.668 190.996 441.777 189.406 443.996 189.406C444.845 189.406 445.512 189.636 445.998 190.095C446.483 190.554 446.769 191.135 446.856 191.837H445.764ZM443.996 193.774C443.623 193.774 443.272 193.852 442.943 194.008C442.613 194.155 442.345 194.385 442.137 194.697C441.937 195 441.838 195.373 441.838 195.815C441.838 196.474 442.028 197.011 442.41 197.427C442.791 197.834 443.337 198.038 444.048 198.038C444.654 198.038 445.135 197.852 445.491 197.479C445.855 197.098 446.037 196.586 446.037 195.945C446.037 195.269 445.863 194.74 445.517 194.359C445.17 193.969 444.663 193.774 443.996 193.774ZM448.751 191.967C448.811 191.17 449.119 190.546 449.674 190.095C450.228 189.644 450.948 189.419 451.832 189.419C452.421 189.419 452.928 189.527 453.353 189.744C453.786 189.952 454.111 190.238 454.328 190.602C454.553 190.966 454.666 191.378 454.666 191.837C454.666 192.374 454.51 192.838 454.198 193.228C453.894 193.618 453.496 193.869 453.002 193.982V194.047C453.565 194.186 454.011 194.459 454.341 194.866C454.67 195.273 454.835 195.806 454.835 196.465C454.835 196.959 454.722 197.405 454.497 197.804C454.271 198.194 453.933 198.502 453.483 198.727C453.032 198.952 452.49 199.065 451.858 199.065C450.939 199.065 450.185 198.827 449.596 198.35C449.006 197.865 448.677 197.18 448.608 196.296H449.752C449.812 196.816 450.025 197.241 450.389 197.57C450.753 197.899 451.238 198.064 451.845 198.064C452.451 198.064 452.911 197.908 453.223 197.596C453.543 197.275 453.704 196.864 453.704 196.361C453.704 195.711 453.487 195.243 453.054 194.957C452.62 194.671 451.966 194.528 451.091 194.528H450.792V193.54H451.104C451.901 193.531 452.503 193.401 452.911 193.15C453.318 192.89 453.522 192.491 453.522 191.954C453.522 191.495 453.37 191.126 453.067 190.849C452.772 190.572 452.347 190.433 451.793 190.433C451.255 190.433 450.822 190.572 450.493 190.849C450.163 191.126 449.968 191.499 449.908 191.967H448.751ZM461.671 191.837C461.48 190.875 460.887 190.394 459.89 190.394C459.119 190.394 458.542 190.693 458.161 191.291C457.78 191.88 457.593 192.855 457.602 194.216C457.801 193.765 458.131 193.414 458.59 193.163C459.058 192.903 459.578 192.773 460.15 192.773C461.043 192.773 461.753 193.05 462.282 193.605C462.819 194.16 463.088 194.927 463.088 195.906C463.088 196.495 462.971 197.024 462.737 197.492C462.512 197.96 462.165 198.333 461.697 198.61C461.238 198.887 460.679 199.026 460.02 199.026C459.127 199.026 458.43 198.827 457.927 198.428C457.424 198.029 457.073 197.479 456.874 196.777C456.675 196.075 456.575 195.208 456.575 194.177C456.575 190.996 457.684 189.406 459.903 189.406C460.752 189.406 461.42 189.636 461.905 190.095C462.39 190.554 462.676 191.135 462.763 191.837H461.671ZM459.903 193.774C459.53 193.774 459.179 193.852 458.85 194.008C458.521 194.155 458.252 194.385 458.044 194.697C457.845 195 457.745 195.373 457.745 195.815C457.745 196.474 457.936 197.011 458.317 197.427C458.698 197.834 459.244 198.038 459.955 198.038C460.562 198.038 461.043 197.852 461.398 197.479C461.762 197.098 461.944 196.586 461.944 195.945C461.944 195.269 461.771 194.74 461.424 194.359C461.077 193.969 460.57 193.774 459.903 193.774ZM470.677 190.628H466.114V193.592C466.313 193.315 466.608 193.089 466.998 192.916C467.388 192.734 467.808 192.643 468.259 192.643C468.978 192.643 469.563 192.795 470.014 193.098C470.465 193.393 470.785 193.778 470.976 194.255C471.175 194.723 471.275 195.221 471.275 195.75C471.275 196.374 471.158 196.933 470.924 197.427C470.69 197.921 470.33 198.311 469.845 198.597C469.368 198.883 468.775 199.026 468.064 199.026C467.154 199.026 466.417 198.792 465.854 198.324C465.291 197.856 464.948 197.232 464.827 196.452H465.984C466.097 196.946 466.335 197.332 466.699 197.609C467.063 197.886 467.522 198.025 468.077 198.025C468.762 198.025 469.277 197.821 469.624 197.414C469.971 196.998 470.144 196.452 470.144 195.776C470.144 195.1 469.971 194.58 469.624 194.216C469.277 193.843 468.766 193.657 468.09 193.657C467.631 193.657 467.228 193.77 466.881 193.995C466.543 194.212 466.296 194.511 466.14 194.892H465.022V189.588H470.677V190.628ZM472.821 191.967C472.882 191.17 473.189 190.546 473.744 190.095C474.299 189.644 475.018 189.419 475.902 189.419C476.491 189.419 476.998 189.527 477.423 189.744C477.856 189.952 478.181 190.238 478.398 190.602C478.623 190.966 478.736 191.378 478.736 191.837C478.736 192.374 478.58 192.838 478.268 193.228C477.965 193.618 477.566 193.869 477.072 193.982V194.047C477.635 194.186 478.082 194.459 478.411 194.866C478.74 195.273 478.905 195.806 478.905 196.465C478.905 196.959 478.792 197.405 478.567 197.804C478.342 198.194 478.004 198.502 477.553 198.727C477.102 198.952 476.561 199.065 475.928 199.065C475.009 199.065 474.255 198.827 473.666 198.35C473.077 197.865 472.747 197.18 472.678 196.296H473.822C473.883 196.816 474.095 197.241 474.459 197.57C474.823 197.899 475.308 198.064 475.915 198.064C476.522 198.064 476.981 197.908 477.293 197.596C477.614 197.275 477.774 196.864 477.774 196.361C477.774 195.711 477.557 195.243 477.124 194.957C476.691 194.671 476.036 194.528 475.161 194.528H474.862V193.54H475.174C475.971 193.531 476.574 193.401 476.981 193.15C477.388 192.89 477.592 192.491 477.592 191.954C477.592 191.495 477.44 191.126 477.137 190.849C476.842 190.572 476.418 190.433 475.863 190.433C475.326 190.433 474.892 190.572 474.563 190.849C474.234 191.126 474.039 191.499 473.978 191.967H472.821ZM485.741 191.837C485.551 190.875 484.957 190.394 483.96 190.394C483.189 190.394 482.613 190.693 482.231 191.291C481.85 191.88 481.664 192.855 481.672 194.216C481.872 193.765 482.201 193.414 482.66 193.163C483.128 192.903 483.648 192.773 484.22 192.773C485.113 192.773 485.824 193.05 486.352 193.605C486.89 194.16 487.158 194.927 487.158 195.906C487.158 196.495 487.041 197.024 486.807 197.492C486.582 197.96 486.235 198.333 485.767 198.61C485.308 198.887 484.749 199.026 484.09 199.026C483.198 199.026 482.5 198.827 481.997 198.428C481.495 198.029 481.144 197.479 480.944 196.777C480.745 196.075 480.645 195.208 480.645 194.177C480.645 190.996 481.755 189.406 483.973 189.406C484.823 189.406 485.49 189.636 485.975 190.095C486.461 190.554 486.747 191.135 486.833 191.837H485.741ZM483.973 193.774C483.601 193.774 483.25 193.852 482.92 194.008C482.591 194.155 482.322 194.385 482.114 194.697C481.915 195 481.815 195.373 481.815 195.815C481.815 196.474 482.006 197.011 482.387 197.427C482.769 197.834 483.315 198.038 484.025 198.038C484.632 198.038 485.113 197.852 485.468 197.479C485.832 197.098 486.014 196.586 486.014 195.945C486.014 195.269 485.841 194.74 485.494 194.359C485.148 193.969 484.641 193.774 483.973 193.774ZM488.442 190.68V189.601H490.886V199H489.69V190.68H488.442ZM494.634 194.112C494.149 193.921 493.776 193.644 493.516 193.28C493.256 192.916 493.126 192.474 493.126 191.954C493.126 191.486 493.243 191.066 493.477 190.693C493.711 190.312 494.058 190.013 494.517 189.796C494.985 189.571 495.549 189.458 496.207 189.458C496.866 189.458 497.425 189.571 497.884 189.796C498.352 190.013 498.703 190.312 498.937 190.693C499.18 191.066 499.301 191.486 499.301 191.954C499.301 192.457 499.167 192.899 498.898 193.28C498.63 193.653 498.261 193.93 497.793 194.112C498.331 194.277 498.755 194.567 499.067 194.983C499.388 195.39 499.548 195.884 499.548 196.465C499.548 197.028 499.41 197.522 499.132 197.947C498.855 198.363 498.461 198.688 497.949 198.922C497.447 199.147 496.866 199.26 496.207 199.26C495.549 199.26 494.968 199.147 494.465 198.922C493.971 198.688 493.586 198.363 493.308 197.947C493.031 197.522 492.892 197.028 492.892 196.465C492.892 195.884 493.048 195.386 493.36 194.97C493.672 194.554 494.097 194.268 494.634 194.112ZM498.157 192.097C498.157 191.568 497.984 191.161 497.637 190.875C497.291 190.589 496.814 190.446 496.207 190.446C495.609 190.446 495.137 190.589 494.79 190.875C494.444 191.161 494.27 191.573 494.27 192.11C494.27 192.595 494.448 192.985 494.803 193.28C495.167 193.575 495.635 193.722 496.207 193.722C496.788 193.722 497.256 193.575 497.611 193.28C497.975 192.977 498.157 192.582 498.157 192.097ZM496.207 194.632C495.566 194.632 495.042 194.784 494.634 195.087C494.227 195.382 494.023 195.828 494.023 196.426C494.023 196.981 494.218 197.427 494.608 197.765C495.007 198.103 495.54 198.272 496.207 198.272C496.875 198.272 497.403 198.103 497.793 197.765C498.183 197.427 498.378 196.981 498.378 196.426C498.378 195.845 498.179 195.403 497.78 195.1C497.382 194.788 496.857 194.632 496.207 194.632ZM500.976 198.051C502.077 197.167 502.939 196.443 503.563 195.88C504.187 195.308 504.712 194.714 505.136 194.099C505.57 193.475 505.786 192.864 505.786 192.266C505.786 191.703 505.648 191.261 505.37 190.94C505.102 190.611 504.664 190.446 504.057 190.446C503.468 190.446 503.009 190.632 502.679 191.005C502.359 191.369 502.185 191.859 502.159 192.474H501.015C501.05 191.503 501.345 190.754 501.899 190.225C502.454 189.696 503.169 189.432 504.044 189.432C504.937 189.432 505.643 189.679 506.163 190.173C506.692 190.667 506.956 191.347 506.956 192.214C506.956 192.933 506.74 193.635 506.306 194.32C505.882 194.996 505.396 195.594 504.85 196.114C504.304 196.625 503.607 197.223 502.757 197.908H507.229V198.896H500.976V198.051ZM508.571 191.967C508.632 191.17 508.939 190.546 509.494 190.095C510.049 189.644 510.768 189.419 511.652 189.419C512.241 189.419 512.748 189.527 513.173 189.744C513.606 189.952 513.931 190.238 514.148 190.602C514.373 190.966 514.486 191.378 514.486 191.837C514.486 192.374 514.33 192.838 514.018 193.228C513.715 193.618 513.316 193.869 512.822 193.982V194.047C513.385 194.186 513.832 194.459 514.161 194.866C514.49 195.273 514.655 195.806 514.655 196.465C514.655 196.959 514.542 197.405 514.317 197.804C514.092 198.194 513.754 198.502 513.303 198.727C512.852 198.952 512.311 199.065 511.678 199.065C510.759 199.065 510.005 198.827 509.416 198.35C508.827 197.865 508.497 197.18 508.428 196.296H509.572C509.633 196.816 509.845 197.241 510.209 197.57C510.573 197.899 511.058 198.064 511.665 198.064C512.272 198.064 512.731 197.908 513.043 197.596C513.364 197.275 513.524 196.864 513.524 196.361C513.524 195.711 513.307 195.243 512.874 194.957C512.441 194.671 511.786 194.528 510.911 194.528H510.612V193.54H510.924C511.721 193.531 512.324 193.401 512.731 193.15C513.138 192.89 513.342 192.491 513.342 191.954C513.342 191.495 513.19 191.126 512.887 190.849C512.592 190.572 512.168 190.433 511.613 190.433C511.076 190.433 510.642 190.572 510.313 190.849C509.984 191.126 509.789 191.499 509.728 191.967H508.571ZM515.94 190.68V189.601H518.384V199H517.188V190.68H515.94ZM520.273 198.051C521.374 197.167 522.236 196.443 522.86 195.88C523.484 195.308 524.009 194.714 524.433 194.099C524.867 193.475 525.083 192.864 525.083 192.266C525.083 191.703 524.945 191.261 524.667 190.94C524.399 190.611 523.961 190.446 523.354 190.446C522.765 190.446 522.306 190.632 521.976 191.005C521.656 191.369 521.482 191.859 521.456 192.474H520.312C520.347 191.503 520.642 190.754 521.196 190.225C521.751 189.696 522.466 189.432 523.341 189.432C524.234 189.432 524.94 189.679 525.46 190.173C525.989 190.667 526.253 191.347 526.253 192.214C526.253 192.933 526.037 193.635 525.603 194.32C525.179 194.996 524.693 195.594 524.147 196.114C523.601 196.625 522.904 197.223 522.054 197.908H526.526V198.896H520.273V198.051ZM527.868 191.967C527.929 191.17 528.236 190.546 528.791 190.095C529.346 189.644 530.065 189.419 530.949 189.419C531.538 189.419 532.045 189.527 532.47 189.744C532.903 189.952 533.228 190.238 533.445 190.602C533.67 190.966 533.783 191.378 533.783 191.837C533.783 192.374 533.627 192.838 533.315 193.228C533.012 193.618 532.613 193.869 532.119 193.982V194.047C532.682 194.186 533.129 194.459 533.458 194.866C533.787 195.273 533.952 195.806 533.952 196.465C533.952 196.959 533.839 197.405 533.614 197.804C533.389 198.194 533.051 198.502 532.6 198.727C532.149 198.952 531.608 199.065 530.975 199.065C530.056 199.065 529.302 198.827 528.713 198.35C528.124 197.865 527.794 197.18 527.725 196.296H528.869C528.93 196.816 529.142 197.241 529.506 197.57C529.87 197.899 530.355 198.064 530.962 198.064C531.569 198.064 532.028 197.908 532.34 197.596C532.661 197.275 532.821 196.864 532.821 196.361C532.821 195.711 532.604 195.243 532.171 194.957C531.738 194.671 531.083 194.528 530.208 194.528H529.909V193.54H530.221C531.018 193.531 531.621 193.401 532.028 193.15C532.435 192.89 532.639 192.491 532.639 191.954C532.639 191.495 532.487 191.126 532.184 190.849C531.889 190.572 531.465 190.433 530.91 190.433C530.373 190.433 529.939 190.572 529.61 190.849C529.281 191.126 529.086 191.499 529.025 191.967H527.868ZM536.121 199.078C535.896 199.078 535.705 199 535.549 198.844C535.393 198.688 535.315 198.497 535.315 198.272C535.315 198.047 535.393 197.856 535.549 197.7C535.705 197.544 535.896 197.466 536.121 197.466C536.338 197.466 536.52 197.544 536.667 197.7C536.823 197.856 536.901 198.047 536.901 198.272C536.901 198.497 536.823 198.688 536.667 198.844C536.52 199 536.338 199.078 536.121 199.078ZM538.032 194.463C538.032 193.579 538.231 192.786 538.63 192.084C539.028 191.373 539.57 190.819 540.255 190.42C540.948 190.021 541.715 189.822 542.556 189.822C543.544 189.822 544.406 190.06 545.143 190.537C545.879 191.014 546.417 191.69 546.755 192.565H545.338C545.086 192.019 544.722 191.599 544.246 191.304C543.778 191.009 543.214 190.862 542.556 190.862C541.923 190.862 541.355 191.009 540.853 191.304C540.35 191.599 539.956 192.019 539.67 192.565C539.384 193.102 539.241 193.735 539.241 194.463C539.241 195.182 539.384 195.815 539.67 196.361C539.956 196.898 540.35 197.314 540.853 197.609C541.355 197.904 541.923 198.051 542.556 198.051C543.214 198.051 543.778 197.908 544.246 197.622C544.722 197.327 545.086 196.907 545.338 196.361H546.755C546.417 197.228 545.879 197.899 545.143 198.376C544.406 198.844 543.544 199.078 542.556 199.078C541.715 199.078 540.948 198.883 540.255 198.493C539.57 198.094 539.028 197.544 538.63 196.842C538.231 196.14 538.032 195.347 538.032 194.463ZM551.038 199.117C550.492 199.117 550.002 199.026 549.569 198.844C549.135 198.653 548.793 198.393 548.542 198.064C548.29 197.726 548.152 197.34 548.126 196.907H549.348C549.382 197.262 549.547 197.553 549.842 197.778C550.145 198.003 550.539 198.116 551.025 198.116C551.475 198.116 551.831 198.016 552.091 197.817C552.351 197.618 552.481 197.366 552.481 197.063C552.481 196.751 552.342 196.521 552.065 196.374C551.787 196.218 551.358 196.066 550.778 195.919C550.249 195.78 549.816 195.642 549.478 195.503C549.148 195.356 548.862 195.143 548.62 194.866C548.386 194.58 548.269 194.207 548.269 193.748C548.269 193.384 548.377 193.05 548.594 192.747C548.81 192.444 549.118 192.205 549.517 192.032C549.915 191.85 550.37 191.759 550.882 191.759C551.67 191.759 552.307 191.958 552.793 192.357C553.278 192.756 553.538 193.302 553.573 193.995H552.39C552.364 193.622 552.212 193.323 551.935 193.098C551.666 192.873 551.302 192.76 550.843 192.76C550.418 192.76 550.08 192.851 549.829 193.033C549.577 193.215 549.452 193.453 549.452 193.748C549.452 193.982 549.525 194.177 549.673 194.333C549.829 194.48 550.019 194.602 550.245 194.697C550.479 194.784 550.799 194.883 551.207 194.996C551.718 195.135 552.134 195.273 552.455 195.412C552.775 195.542 553.048 195.741 553.274 196.01C553.508 196.279 553.629 196.63 553.638 197.063C553.638 197.453 553.529 197.804 553.313 198.116C553.096 198.428 552.788 198.675 552.39 198.857C552 199.03 551.549 199.117 551.038 199.117ZM557.96 197.908L560.17 191.876H561.431L558.636 199H557.258L554.463 191.876H555.737L557.96 197.908Z" fill="#ADB3C0"/>
<path d="M183.512 46.334H185.708V47H182.693V40.727H183.512V46.334ZM187.501 41.267C187.345 41.267 187.213 41.213 187.105 41.105C186.997 40.997 186.943 40.865 186.943 40.709C186.943 40.553 186.997 40.421 187.105 40.313C187.213 40.205 187.345 40.151 187.501 40.151C187.651 40.151 187.777 40.205 187.879 40.313C187.987 40.421 188.041 40.553 188.041 40.709C188.041 40.865 187.987 40.997 187.879 41.105C187.777 41.213 187.651 41.267 187.501 41.267ZM187.897 42.068V47H187.078V42.068H187.897ZM191.629 46.244L193.159 42.068H194.032L192.097 47H191.143L189.208 42.068H190.09L191.629 46.244ZM199.838 44.345C199.838 44.501 199.829 44.666 199.811 44.84H195.869C195.899 45.326 196.064 45.707 196.364 45.983C196.67 46.253 197.039 46.388 197.471 46.388C197.825 46.388 198.119 46.307 198.353 46.145C198.593 45.977 198.761 45.755 198.857 45.479H199.739C199.607 45.953 199.343 46.34 198.947 46.64C198.551 46.934 198.059 47.081 197.471 47.081C197.003 47.081 196.583 46.976 196.211 46.766C195.845 46.556 195.557 46.259 195.347 45.875C195.137 45.485 195.032 45.035 195.032 44.525C195.032 44.015 195.134 43.568 195.338 43.184C195.542 42.8 195.827 42.506 196.193 42.302C196.565 42.092 196.991 41.987 197.471 41.987C197.939 41.987 198.353 42.089 198.713 42.293C199.073 42.497 199.349 42.779 199.541 43.139C199.739 43.493 199.838 43.895 199.838 44.345ZM198.992 44.174C198.992 43.862 198.923 43.595 198.785 43.373C198.647 43.145 198.458 42.974 198.218 42.86C197.984 42.74 197.723 42.68 197.435 42.68C197.021 42.68 196.667 42.812 196.373 43.076C196.085 43.34 195.92 43.706 195.878 44.174H198.992Z" fill="#394253"/>
<rect x="183" y="25" width="10" height="10" fill="#52DE97"/>
<path d="M347.64 164.82C347.64 152.058 350.153 139.421 355.037 127.631C359.921 115.84 367.079 105.127 376.103 96.1032C385.127 87.0792 395.84 79.9209 407.631 75.0372C419.421 70.1534 432.058 67.6398 444.82 67.6398C457.582 67.6398 470.219 70.1535 482.009 75.0372C493.8 79.921 504.513 87.0792 513.537 96.1032C522.561 105.127 529.719 115.84 534.603 127.631C539.486 139.421 542 152.058 542 164.82L444.82 164.82L347.64 164.82Z" fill="#ADB3C0"/>
<path opacity="0.8" d="M513.536 96.1031C499.946 82.5122 482.63 73.2567 463.779 69.507C444.928 65.7572 425.388 67.6817 407.631 75.0371C389.873 82.3924 374.696 94.8482 364.017 110.829C353.339 126.811 347.64 145.599 347.64 164.82L444.82 164.82L513.536 96.1031Z" fill="#52DE97"/>
<path d="M352.284 164.821C352.284 140.279 362.034 116.742 379.387 99.3884C396.741 82.0346 420.278 72.2854 444.82 72.2854C469.362 72.2854 492.899 82.0346 510.253 99.3884C527.606 116.742 537.356 140.279 537.356 164.821L444.82 164.821L352.284 164.821Z" fill="white"/>
<path d="M336.907 161.679C336.907 160.647 337.075 159.843 337.411 159.267C337.747 158.685 338.335 158.394 339.175 158.394C340.009 158.394 340.594 158.685 340.93 159.267C341.266 159.843 341.434 160.647 341.434 161.679C341.434 162.729 341.266 163.545 340.93 164.127C340.594 164.709 340.009 165 339.175 165C338.335 165 337.747 164.709 337.411 164.127C337.075 163.545 336.907 162.729 336.907 161.679ZM340.624 161.679C340.624 161.157 340.588 160.716 340.516 160.356C340.45 159.99 340.309 159.696 340.093 159.474C339.883 159.252 339.577 159.141 339.175 159.141C338.767 159.141 338.455 159.252 338.239 159.474C338.029 159.696 337.888 159.99 337.816 160.356C337.75 160.716 337.717 161.157 337.717 161.679C337.717 162.219 337.75 162.672 337.816 163.038C337.888 163.404 338.029 163.698 338.239 163.92C338.455 164.142 338.767 164.253 339.175 164.253C339.577 164.253 339.883 164.142 340.093 163.92C340.309 163.698 340.45 163.404 340.516 163.038C340.588 162.672 340.624 162.219 340.624 161.679Z" fill="#ADB3C0"/>
<path d="M547.342 159.24V158.493H549.034V165H548.206V159.24H547.342ZM550.441 161.679C550.441 160.647 550.609 159.843 550.945 159.267C551.281 158.685 551.869 158.394 552.709 158.394C553.543 158.394 554.128 158.685 554.464 159.267C554.8 159.843 554.968 160.647 554.968 161.679C554.968 162.729 554.8 163.545 554.464 164.127C554.128 164.709 553.543 165 552.709 165C551.869 165 551.281 164.709 550.945 164.127C550.609 163.545 550.441 162.729 550.441 161.679ZM554.158 161.679C554.158 161.157 554.122 160.716 554.05 160.356C553.984 159.99 553.843 159.696 553.627 159.474C553.417 159.252 553.111 159.141 552.709 159.141C552.301 159.141 551.989 159.252 551.773 159.474C551.563 159.696 551.422 159.99 551.35 160.356C551.284 160.716 551.251 161.157 551.251 161.679C551.251 162.219 551.284 162.672 551.35 163.038C551.422 163.404 551.563 163.698 551.773 163.92C551.989 164.142 552.301 164.253 552.709 164.253C553.111 164.253 553.417 164.142 553.627 163.92C553.843 163.698 553.984 163.404 554.05 163.038C554.122 162.672 554.158 162.219 554.158 161.679ZM556.092 161.679C556.092 160.647 556.26 159.843 556.596 159.267C556.932 158.685 557.52 158.394 558.36 158.394C559.194 158.394 559.779 158.685 560.115 159.267C560.451 159.843 560.619 160.647 560.619 161.679C560.619 162.729 560.451 163.545 560.115 164.127C559.779 164.709 559.194 165 558.36 165C557.52 165 556.932 164.709 556.596 164.127C556.26 163.545 556.092 162.729 556.092 161.679ZM559.809 161.679C559.809 161.157 559.773 160.716 559.701 160.356C559.635 159.99 559.494 159.696 559.278 159.474C559.068 159.252 558.762 159.141 558.36 159.141C557.952 159.141 557.64 159.252 557.424 159.474C557.214 159.696 557.073 159.99 557.001 160.356C556.935 160.716 556.902 161.157 556.902 161.679C556.902 162.219 556.935 162.672 557.001 163.038C557.073 163.404 557.214 163.698 557.424 163.92C557.64 164.142 557.952 164.253 558.36 164.253C558.762 164.253 559.068 164.142 559.278 163.92C559.494 163.698 559.635 163.404 559.701 163.038C559.773 162.672 559.809 162.219 559.809 161.679Z" fill="#ADB3C0"/>
<path d="M398.62 121.329C398.62 117.201 399.412 113.949 400.996 111.573C402.604 109.197 405.184 108.009 408.736 108.009C412.288 108.009 414.856 109.197 416.44 111.573C418.048 113.949 418.852 117.201 418.852 121.329C418.852 125.505 418.048 128.781 416.44 131.157C414.856 133.533 412.288 134.721 408.736 134.721C405.184 134.721 402.604 133.533 400.996 131.157C399.412 128.781 398.62 125.505 398.62 121.329ZM412.804 121.329C412.804 118.905 412.54 117.045 412.012 115.749C411.484 114.429 410.392 113.769 408.736 113.769C407.08 113.769 405.988 114.429 405.46 115.749C404.932 117.045 404.668 118.905 404.668 121.329C404.668 122.961 404.764 124.317 404.956 125.397C405.148 126.453 405.532 127.317 406.108 127.989C406.708 128.637 407.584 128.961 408.736 128.961C409.888 128.961 410.752 128.637 411.328 127.989C411.928 127.317 412.324 126.453 412.516 125.397C412.708 124.317 412.804 122.961 412.804 121.329ZM425.596 135.117C424.516 135.117 423.628 134.805 422.932 134.181C422.26 133.533 421.924 132.741 421.924 131.805C421.924 130.845 422.26 130.041 422.932 129.393C423.628 128.745 424.516 128.421 425.596 128.421C426.652 128.421 427.516 128.745 428.188 129.393C428.884 130.041 429.232 130.845 429.232 131.805C429.232 132.741 428.884 133.533 428.188 134.181C427.516 134.805 426.652 135.117 425.596 135.117ZM436.585 120.717C434.329 119.517 433.201 117.633 433.201 115.065C433.201 113.769 433.537 112.593 434.209 111.537C434.881 110.457 435.901 109.605 437.269 108.981C438.637 108.333 440.317 108.009 442.309 108.009C444.301 108.009 445.969 108.333 447.313 108.981C448.681 109.605 449.701 110.457 450.373 111.537C451.045 112.593 451.381 113.769 451.381 115.065C451.381 116.361 451.069 117.489 450.445 118.449C449.845 119.409 449.029 120.165 447.997 120.717C449.293 121.341 450.289 122.205 450.985 123.309C451.681 124.389 452.029 125.661 452.029 127.125C452.029 128.829 451.597 130.305 450.733 131.553C449.869 132.777 448.693 133.713 447.205 134.361C445.741 135.009 444.109 135.333 442.309 135.333C440.509 135.333 438.865 135.009 437.377 134.361C435.913 133.713 434.749 132.777 433.885 131.553C433.021 130.305 432.589 128.829 432.589 127.125C432.589 125.637 432.937 124.353 433.633 123.273C434.329 122.169 435.313 121.317 436.585 120.717ZM445.405 116.001C445.405 115.017 445.117 114.261 444.541 113.733C443.989 113.181 443.245 112.905 442.309 112.905C441.373 112.905 440.617 113.181 440.041 113.733C439.489 114.285 439.213 115.053 439.213 116.037C439.213 116.973 439.501 117.717 440.077 118.269C440.653 118.797 441.397 119.061 442.309 119.061C443.221 119.061 443.965 118.785 444.541 118.233C445.117 117.681 445.405 116.937 445.405 116.001ZM442.309 123.381C441.181 123.381 440.269 123.693 439.573 124.317C438.877 124.917 438.529 125.757 438.529 126.837C438.529 127.845 438.865 128.673 439.537 129.321C440.233 129.969 441.157 130.293 442.309 130.293C443.461 130.293 444.361 129.969 445.009 129.321C445.681 128.673 446.017 127.845 446.017 126.837C446.017 125.781 445.669 124.941 444.973 124.317C444.301 123.693 443.413 123.381 442.309 123.381ZM455.752 130.149V125.181L467.128 108.909H474.004V124.821H476.956V130.149H474.004V134.829H467.848V130.149H455.752ZM468.28 115.677L462.232 124.821H468.28V115.677ZM479.324 114.273V108.549H489.296V134.829H482.888V114.273H479.324Z" fill="#394253"/>
<path d="M387.47 164.934C386.78 164.934 386.16 164.814 385.61 164.574C385.07 164.324 384.645 163.984 384.335 163.554C384.025 163.114 383.865 162.609 383.855 162.039H385.31C385.36 162.529 385.56 162.944 385.91 163.284C386.27 163.614 386.79 163.779 387.47 163.779C388.12 163.779 388.63 163.619 389 163.299C389.38 162.969 389.57 162.549 389.57 162.039C389.57 161.639 389.46 161.314 389.24 161.064C389.02 160.814 388.745 160.624 388.415 160.494C388.085 160.364 387.64 160.224 387.08 160.074C386.39 159.894 385.835 159.714 385.415 159.534C385.005 159.354 384.65 159.074 384.35 158.694C384.06 158.304 383.915 157.784 383.915 157.134C383.915 156.564 384.06 156.059 384.35 155.619C384.64 155.179 385.045 154.839 385.565 154.599C386.095 154.359 386.7 154.239 387.38 154.239C388.36 154.239 389.16 154.484 389.78 154.974C390.41 155.464 390.765 156.114 390.845 156.924H389.345C389.295 156.524 389.085 156.174 388.715 155.874C388.345 155.564 387.855 155.409 387.245 155.409C386.675 155.409 386.21 155.559 385.85 155.859C385.49 156.149 385.31 156.559 385.31 157.089C385.31 157.469 385.415 157.779 385.625 158.019C385.845 158.259 386.11 158.444 386.42 158.574C386.74 158.694 387.185 158.834 387.755 158.994C388.445 159.184 389 159.374 389.42 159.564C389.84 159.744 390.2 160.029 390.5 160.419C390.8 160.799 390.95 161.319 390.95 161.979C390.95 162.489 390.815 162.969 390.545 163.419C390.275 163.869 389.875 164.234 389.345 164.514C388.815 164.794 388.19 164.934 387.47 164.934ZM393.664 155.274C393.404 155.274 393.184 155.184 393.004 155.004C392.824 154.824 392.734 154.604 392.734 154.344C392.734 154.084 392.824 153.864 393.004 153.684C393.184 153.504 393.404 153.414 393.664 153.414C393.914 153.414 394.124 153.504 394.294 153.684C394.474 153.864 394.564 154.084 394.564 154.344C394.564 154.604 394.474 154.824 394.294 155.004C394.124 155.184 393.914 155.274 393.664 155.274ZM394.324 156.609V164.829H392.959V156.609H394.324ZM398.015 153.729V164.829H396.65V153.729H398.015ZM404.422 156.459C405.042 156.459 405.602 156.594 406.102 156.864C406.602 157.124 406.992 157.519 407.272 158.049C407.562 158.579 407.707 159.224 407.707 159.984V164.829H406.357V160.179C406.357 159.359 406.152 158.734 405.742 158.304C405.332 157.864 404.772 157.644 404.062 157.644C403.342 157.644 402.767 157.869 402.337 158.319C401.917 158.769 401.707 159.424 401.707 160.284V164.829H400.342V153.729H401.707V157.779C401.977 157.359 402.347 157.034 402.817 156.804C403.297 156.574 403.832 156.459 404.422 156.459ZM413.521 164.964C412.751 164.964 412.051 164.789 411.421 164.439C410.801 164.089 410.311 163.594 409.951 162.954C409.601 162.304 409.426 161.554 409.426 160.704C409.426 159.864 409.606 159.124 409.966 158.484C410.336 157.834 410.836 157.339 411.466 156.999C412.096 156.649 412.801 156.474 413.581 156.474C414.361 156.474 415.066 156.649 415.696 156.999C416.326 157.339 416.821 157.829 417.181 158.469C417.551 159.109 417.736 159.854 417.736 160.704C417.736 161.554 417.546 162.304 417.166 162.954C416.796 163.594 416.291 164.089 415.651 164.439C415.011 164.789 414.301 164.964 413.521 164.964ZM413.521 163.764C414.011 163.764 414.471 163.649 414.901 163.419C415.331 163.189 415.676 162.844 415.936 162.384C416.206 161.924 416.341 161.364 416.341 160.704C416.341 160.044 416.211 159.484 415.951 159.024C415.691 158.564 415.351 158.224 414.931 158.004C414.511 157.774 414.056 157.659 413.566 157.659C413.066 157.659 412.606 157.774 412.186 158.004C411.776 158.224 411.446 158.564 411.196 159.024C410.946 159.484 410.821 160.044 410.821 160.704C410.821 161.374 410.941 161.939 411.181 162.399C411.431 162.859 411.761 163.204 412.171 163.434C412.581 163.654 413.031 163.764 413.521 163.764ZM426.821 156.609V164.829H425.456V163.614C425.196 164.034 424.831 164.364 424.361 164.604C423.901 164.834 423.391 164.949 422.831 164.949C422.191 164.949 421.616 164.819 421.106 164.559C420.596 164.289 420.191 163.889 419.891 163.359C419.601 162.829 419.456 162.184 419.456 161.424V156.609H420.806V161.244C420.806 162.054 421.011 162.679 421.421 163.119C421.831 163.549 422.391 163.764 423.101 163.764C423.831 163.764 424.406 163.539 424.826 163.089C425.246 162.639 425.456 161.984 425.456 161.124V156.609H426.821ZM436.626 160.404C436.626 160.664 436.611 160.939 436.581 161.229H430.011C430.061 162.039 430.336 162.674 430.836 163.134C431.346 163.584 431.961 163.809 432.681 163.809C433.271 163.809 433.761 163.674 434.151 163.404C434.551 163.124 434.831 162.754 434.991 162.294H436.461C436.241 163.084 435.801 163.729 435.141 164.229C434.481 164.719 433.661 164.964 432.681 164.964C431.901 164.964 431.201 164.789 430.581 164.439C429.971 164.089 429.491 163.594 429.141 162.954C428.791 162.304 428.616 161.554 428.616 160.704C428.616 159.854 428.786 159.109 429.126 158.469C429.466 157.829 429.941 157.339 430.551 156.999C431.171 156.649 431.881 156.474 432.681 156.474C433.461 156.474 434.151 156.644 434.751 156.984C435.351 157.324 435.811 157.794 436.131 158.394C436.461 158.984 436.626 159.654 436.626 160.404ZM435.216 160.119C435.216 159.599 435.101 159.154 434.871 158.784C434.641 158.404 434.326 158.119 433.926 157.929C433.536 157.729 433.101 157.629 432.621 157.629C431.931 157.629 431.341 157.849 430.851 158.289C430.371 158.729 430.096 159.339 430.026 160.119H435.216ZM440.092 157.734V162.579C440.092 162.979 440.177 163.264 440.347 163.434C440.517 163.594 440.812 163.674 441.232 163.674H442.237V164.829H441.007C440.247 164.829 439.677 164.654 439.297 164.304C438.917 163.954 438.727 163.379 438.727 162.579V157.734H437.662V156.609H438.727V154.539H440.092V156.609H442.237V157.734H440.092ZM445.556 157.734V162.579C445.556 162.979 445.641 163.264 445.811 163.434C445.981 163.594 446.276 163.674 446.696 163.674H447.701V164.829H446.471C445.711 164.829 445.141 164.654 444.761 164.304C444.381 163.954 444.191 163.379 444.191 162.579V157.734H443.126V156.609H444.191V154.539H445.556V156.609H447.701V157.734H445.556ZM456.855 160.404C456.855 160.664 456.84 160.939 456.81 161.229H450.24C450.29 162.039 450.565 162.674 451.065 163.134C451.575 163.584 452.19 163.809 452.91 163.809C453.5 163.809 453.99 163.674 454.38 163.404C454.78 163.124 455.06 162.754 455.22 162.294H456.69C456.47 163.084 456.03 163.729 455.37 164.229C454.71 164.719 453.89 164.964 452.91 164.964C452.13 164.964 451.43 164.789 450.81 164.439C450.2 164.089 449.72 163.594 449.37 162.954C449.02 162.304 448.845 161.554 448.845 160.704C448.845 159.854 449.015 159.109 449.355 158.469C449.695 157.829 450.17 157.339 450.78 156.999C451.4 156.649 452.11 156.474 452.91 156.474C453.69 156.474 454.38 156.644 454.98 156.984C455.58 157.324 456.04 157.794 456.36 158.394C456.69 158.984 456.855 159.654 456.855 160.404ZM455.445 160.119C455.445 159.599 455.33 159.154 455.1 158.784C454.87 158.404 454.555 158.119 454.155 157.929C453.765 157.729 453.33 157.629 452.85 157.629C452.16 157.629 451.57 157.849 451.08 158.289C450.6 158.729 450.325 159.339 450.255 160.119H455.445ZM465.971 164.934C465.281 164.934 464.661 164.814 464.111 164.574C463.571 164.324 463.146 163.984 462.836 163.554C462.526 163.114 462.366 162.609 462.356 162.039H463.811C463.861 162.529 464.061 162.944 464.411 163.284C464.771 163.614 465.291 163.779 465.971 163.779C466.621 163.779 467.131 163.619 467.501 163.299C467.881 162.969 468.071 162.549 468.071 162.039C468.071 161.639 467.961 161.314 467.741 161.064C467.521 160.814 467.246 160.624 466.916 160.494C466.586 160.364 466.141 160.224 465.581 160.074C464.891 159.894 464.336 159.714 463.916 159.534C463.506 159.354 463.151 159.074 462.851 158.694C462.561 158.304 462.416 157.784 462.416 157.134C462.416 156.564 462.561 156.059 462.851 155.619C463.141 155.179 463.546 154.839 464.066 154.599C464.596 154.359 465.201 154.239 465.881 154.239C466.861 154.239 467.661 154.484 468.281 154.974C468.911 155.464 469.266 156.114 469.346 156.924H467.846C467.796 156.524 467.586 156.174 467.216 155.874C466.846 155.564 466.356 155.409 465.746 155.409C465.176 155.409 464.711 155.559 464.351 155.859C463.991 156.149 463.811 156.559 463.811 157.089C463.811 157.469 463.916 157.779 464.126 158.019C464.346 158.259 464.611 158.444 464.921 158.574C465.241 158.694 465.686 158.834 466.256 158.994C466.946 159.184 467.501 159.374 467.921 159.564C468.341 159.744 468.701 160.029 469.001 160.419C469.301 160.799 469.451 161.319 469.451 161.979C469.451 162.489 469.316 162.969 469.046 163.419C468.776 163.869 468.376 164.234 467.846 164.514C467.316 164.794 466.691 164.934 465.971 164.934ZM470.95 160.704C470.95 159.854 471.12 159.114 471.46 158.484C471.8 157.844 472.27 157.349 472.87 156.999C473.48 156.649 474.175 156.474 474.955 156.474C475.965 156.474 476.795 156.719 477.445 157.209C478.105 157.699 478.54 158.379 478.75 159.249H477.28C477.14 158.749 476.865 158.354 476.455 158.064C476.055 157.774 475.555 157.629 474.955 157.629C474.175 157.629 473.545 157.899 473.065 158.439C472.585 158.969 472.345 159.724 472.345 160.704C472.345 161.694 472.585 162.459 473.065 162.999C473.545 163.539 474.175 163.809 474.955 163.809C475.555 163.809 476.055 163.669 476.455 163.389C476.855 163.109 477.13 162.709 477.28 162.189H478.75C478.53 163.029 478.09 163.704 477.43 164.214C476.77 164.714 475.945 164.964 474.955 164.964C474.175 164.964 473.48 164.789 472.87 164.439C472.27 164.089 471.8 163.594 471.46 162.954C471.12 162.314 470.95 161.564 470.95 160.704ZM484.156 164.964C483.386 164.964 482.686 164.789 482.056 164.439C481.436 164.089 480.946 163.594 480.586 162.954C480.236 162.304 480.061 161.554 480.061 160.704C480.061 159.864 480.241 159.124 480.601 158.484C480.971 157.834 481.471 157.339 482.101 156.999C482.731 156.649 483.436 156.474 484.216 156.474C484.996 156.474 485.701 156.649 486.331 156.999C486.961 157.339 487.456 157.829 487.816 158.469C488.186 159.109 488.371 159.854 488.371 160.704C488.371 161.554 488.181 162.304 487.801 162.954C487.431 163.594 486.926 164.089 486.286 164.439C485.646 164.789 484.936 164.964 484.156 164.964ZM484.156 163.764C484.646 163.764 485.106 163.649 485.536 163.419C485.966 163.189 486.311 162.844 486.571 162.384C486.841 161.924 486.976 161.364 486.976 160.704C486.976 160.044 486.846 159.484 486.586 159.024C486.326 158.564 485.986 158.224 485.566 158.004C485.146 157.774 484.691 157.659 484.201 157.659C483.701 157.659 483.241 157.774 482.821 158.004C482.411 158.224 482.081 158.564 481.831 159.024C481.581 159.484 481.456 160.044 481.456 160.704C481.456 161.374 481.576 161.939 481.816 162.399C482.066 162.859 482.396 163.204 482.806 163.434C483.216 163.654 483.666 163.764 484.156 163.764ZM491.531 157.944C491.771 157.474 492.111 157.109 492.551 156.849C493.001 156.589 493.546 156.459 494.186 156.459V157.869H493.826C492.296 157.869 491.531 158.699 491.531 160.359V164.829H490.166V156.609H491.531V157.944ZM503.261 160.404C503.261 160.664 503.246 160.939 503.216 161.229H496.646C496.696 162.039 496.971 162.674 497.471 163.134C497.981 163.584 498.596 163.809 499.316 163.809C499.906 163.809 500.396 163.674 500.786 163.404C501.186 163.124 501.466 162.754 501.626 162.294H503.096C502.876 163.084 502.436 163.729 501.776 164.229C501.116 164.719 500.296 164.964 499.316 164.964C498.536 164.964 497.836 164.789 497.216 164.439C496.606 164.089 496.126 163.594 495.776 162.954C495.426 162.304 495.251 161.554 495.251 160.704C495.251 159.854 495.421 159.109 495.761 158.469C496.101 157.829 496.576 157.339 497.186 156.999C497.806 156.649 498.516 156.474 499.316 156.474C500.096 156.474 500.786 156.644 501.386 156.984C501.986 157.324 502.446 157.794 502.766 158.394C503.096 158.984 503.261 159.654 503.261 160.404ZM501.851 160.119C501.851 159.599 501.736 159.154 501.506 158.784C501.276 158.404 500.961 158.119 500.561 157.929C500.171 157.729 499.736 157.629 499.256 157.629C498.566 157.629 497.976 157.849 497.486 158.289C497.006 158.729 496.731 159.339 496.661 160.119H501.851Z" fill="#394253" fill-opacity="0.8"/>
<rect width="11.4286" height="11.4286" transform="translate(514.738 153.938)" fill="#394253"/>
<rect width="11.4286" height="11.4286" transform="translate(514.738 153.938)" fill="white"/>
<rect x="515.309" y="154.51" width="10.2857" height="10.2857" rx="5.14286" stroke="#52DE97" stroke-width="1.14286"/>
<path d="M520.452 158.081L520.452 162.918M520.452 157.355L520.452 156.387" stroke="#52DE97" stroke-width="1.14286"/>
<path d="M528.081 81.5355C530.034 83.4881 529.681 87.0075 527.728 88.9601C526.236 90.4523 521.656 90.9027 519.579 91.0321C519.009 91.0676 518.549 90.6075 518.585 90.0381C518.714 87.9612 519.165 83.3812 520.657 81.889C522.609 79.9364 526.129 79.5829 528.081 81.5355Z" fill="#E7E7EF"/>
<path d="M0 14C0 6.26801 6.26801 0 14 0V223C6.26801 223 0 216.732 0 209V14Z" fill="url(#paint0_linear_24_6891)"/>
<defs>
<linearGradient id="paint0_linear_24_6891" x1="9.65517" y1="-7.47857e-08" x2="9.65517" y2="223" gradientUnits="userSpaceOnUse">
<stop stop-color="#52DE97"/>
<stop offset="1" stop-color="#00818A"/>
</linearGradient>
</defs>
</svg>
