<svg width="37" height="12" viewBox="0 0 37 12" fill="none" xmlns="http://www.w3.org/2000/svg">
<path d="M7.96422 7.17864H5.52822V9.67064H3.26022V7.17864H0.824219V5.03664H3.26022V2.53064H5.52822V5.03664H7.96422V7.17864Z" fill="#52DE97"/>
<path d="M12.134 3.00664V0.780641H16.012V11.0006H13.52V3.00664H12.134Z" fill="#52DE97"/>
<path d="M17.5657 9.08264C17.883 8.83064 18.0277 8.71397 17.9997 8.73264C18.9144 7.97664 19.633 7.35597 20.1557 6.87064C20.6877 6.38531 21.1357 5.87664 21.4997 5.34464C21.8637 4.81264 22.0457 4.29464 22.0457 3.79064C22.0457 3.40797 21.957 3.10931 21.7797 2.89464C21.6024 2.67997 21.3364 2.57264 20.9817 2.57264C20.627 2.57264 20.347 2.70797 20.1417 2.97864C19.9457 3.23997 19.8477 3.61331 19.8477 4.09864H17.5377C17.5564 3.30531 17.7244 2.64264 18.0417 2.11064C18.3684 1.57864 18.793 1.18664 19.3157 0.934641C19.8477 0.682641 20.4357 0.556641 21.0797 0.556641C22.1904 0.556641 23.0257 0.841307 23.5857 1.41064C24.155 1.97997 24.4397 2.72197 24.4397 3.63664C24.4397 4.63531 24.099 5.56397 23.4177 6.42264C22.7364 7.27197 21.8684 8.10264 20.8137 8.91464H24.5937V10.8606H17.5657V9.08264Z" fill="#52DE97"/>
<path d="M25.4517 3.35664C25.4517 2.60064 25.6664 2.01731 26.0958 1.60664C26.5344 1.19597 27.0991 0.990641 27.7897 0.990641C28.4804 0.990641 29.0404 1.19597 29.4697 1.60664C29.8991 2.01731 30.1138 2.60064 30.1138 3.35664C30.1138 4.11264 29.8991 4.69597 29.4697 5.10664C29.0404 5.51731 28.4804 5.72264 27.7897 5.72264C27.0991 5.72264 26.5344 5.51731 26.0958 5.10664C25.6664 4.69597 25.4517 4.11264 25.4517 3.35664ZM34.9578 1.14464L29.5678 11.0006H27.2577L32.6478 1.14464H34.9578ZM27.7757 2.39064C27.3277 2.39064 27.1038 2.71264 27.1038 3.35664C27.1038 3.99131 27.3277 4.30864 27.7757 4.30864C27.9904 4.30864 28.1584 4.22931 28.2798 4.07064C28.4011 3.91197 28.4618 3.67397 28.4618 3.35664C28.4618 2.71264 28.2331 2.39064 27.7757 2.39064ZM32.1157 8.78864C32.1157 8.03264 32.3304 7.44931 32.7598 7.03864C33.1891 6.62797 33.7491 6.42264 34.4398 6.42264C35.1304 6.42264 35.6904 6.62797 36.1198 7.03864C36.5491 7.44931 36.7638 8.03264 36.7638 8.78864C36.7638 9.54464 36.5491 10.128 36.1198 10.5386C35.6904 10.9493 35.1304 11.1546 34.4398 11.1546C33.7491 11.1546 33.1891 10.9493 32.7598 10.5386C32.3304 10.128 32.1157 9.54464 32.1157 8.78864ZM34.4258 7.82264C34.2111 7.82264 34.0431 7.90197 33.9217 8.06064C33.8097 8.21931 33.7537 8.46197 33.7537 8.78864C33.7537 9.42331 33.9777 9.74064 34.4258 9.74064C34.6404 9.74064 34.8084 9.66131 34.9297 9.50264C35.0511 9.34398 35.1118 9.10597 35.1118 8.78864C35.1118 8.47131 35.0511 8.23331 34.9297 8.07464C34.8084 7.90664 34.6404 7.82264 34.4258 7.82264Z" fill="#52DE97"/>
</svg>
