<svg width="200" height="35" viewBox="0 0 200 35" fill="none" xmlns="http://www.w3.org/2000/svg">
<rect width="200" height="35" rx="6" fill="#52DE97"/>
<path d="M39.5 8.5H24.5V26.5H39.5V8.5Z" stroke="#13115B"/>
<path d="M25 14.5H39" stroke="#13115B"/>
<path d="M28 11.5H30" stroke="#13115B"/>
<path d="M25 20.5H39" stroke="#13115B"/>
<path d="M28 17.5H30" stroke="#13115B"/>
<path d="M28 23.5H30" stroke="#13115B"/>
<path d="M52.6014 12.545C53.7414 12.545 54.7264 12.76 55.5564 13.19C56.3964 13.61 57.0364 14.215 57.4764 15.005C57.9264 15.795 58.1514 16.725 58.1514 17.795C58.1514 18.865 57.9264 19.795 57.4764 20.585C57.0364 21.365 56.3964 21.965 55.5564 22.385C54.7264 22.795 53.7414 23 52.6014 23H49.3464V12.545H52.6014ZM52.6014 21.875C53.9514 21.875 54.9814 21.52 55.6914 20.81C56.4014 20.09 56.7564 19.085 56.7564 17.795C56.7564 16.495 56.3964 15.48 55.6764 14.75C54.9664 14.02 53.9414 13.655 52.6014 13.655H50.7114V21.875H52.6014ZM59.4419 18.86C59.4419 18.02 59.6119 17.285 59.9519 16.655C60.2919 16.015 60.7569 15.52 61.3469 15.17C61.9469 14.82 62.6119 14.645 63.3419 14.645C64.0619 14.645 64.6869 14.8 65.2169 15.11C65.7469 15.42 66.1419 15.81 66.4019 16.28V14.78H67.7819V23H66.4019V21.47C66.1319 21.95 65.7269 22.35 65.1869 22.67C64.6569 22.98 64.0369 23.135 63.3269 23.135C62.5969 23.135 61.9369 22.955 61.3469 22.595C60.7569 22.235 60.2919 21.73 59.9519 21.08C59.6119 20.43 59.4419 19.69 59.4419 18.86ZM66.4019 18.875C66.4019 18.255 66.2769 17.715 66.0269 17.255C65.7769 16.795 65.4369 16.445 65.0069 16.205C64.5869 15.955 64.1219 15.83 63.6119 15.83C63.1019 15.83 62.6369 15.95 62.2169 16.19C61.7969 16.43 61.4619 16.78 61.2119 17.24C60.9619 17.7 60.8369 18.24 60.8369 18.86C60.8369 19.49 60.9619 20.04 61.2119 20.51C61.4619 20.97 61.7969 21.325 62.2169 21.575C62.6369 21.815 63.1019 21.935 63.6119 21.935C64.1219 21.935 64.5869 21.815 65.0069 21.575C65.4369 21.325 65.7769 20.97 66.0269 20.51C66.2769 20.04 66.4019 19.495 66.4019 18.875ZM71.7536 15.905V20.75C71.7536 21.15 71.8386 21.435 72.0086 21.605C72.1786 21.765 72.4736 21.845 72.8936 21.845H73.8986V23H72.6686C71.9086 23 71.3386 22.825 70.9586 22.475C70.5786 22.125 70.3886 21.55 70.3886 20.75V15.905H69.3236V14.78H70.3886V12.71H71.7536V14.78H73.8986V15.905H71.7536ZM75.0425 18.86C75.0425 18.02 75.2125 17.285 75.5525 16.655C75.8925 16.015 76.3575 15.52 76.9475 15.17C77.5475 14.82 78.2125 14.645 78.9425 14.645C79.6625 14.645 80.2875 14.8 80.8175 15.11C81.3475 15.42 81.7425 15.81 82.0025 16.28V14.78H83.3825V23H82.0025V21.47C81.7325 21.95 81.3275 22.35 80.7875 22.67C80.2575 22.98 79.6375 23.135 78.9275 23.135C78.1975 23.135 77.5375 22.955 76.9475 22.595C76.3575 22.235 75.8925 21.73 75.5525 21.08C75.2125 20.43 75.0425 19.69 75.0425 18.86ZM82.0025 18.875C82.0025 18.255 81.8775 17.715 81.6275 17.255C81.3775 16.795 81.0375 16.445 80.6075 16.205C80.1875 15.955 79.7225 15.83 79.2125 15.83C78.7025 15.83 78.2375 15.95 77.8175 16.19C77.3975 16.43 77.0625 16.78 76.8125 17.24C76.5625 17.7 76.4375 18.24 76.4375 18.86C76.4375 19.49 76.5625 20.04 76.8125 20.51C77.0625 20.97 77.3975 21.325 77.8175 21.575C78.2375 21.815 78.7025 21.935 79.2125 21.935C79.7225 21.935 80.1875 21.815 80.6075 21.575C81.0375 21.325 81.3775 20.97 81.6275 20.51C81.8775 20.04 82.0025 19.495 82.0025 18.875ZM89.1782 17.765C89.1782 16.745 89.4082 15.83 89.8682 15.02C90.3282 14.2 90.9532 13.56 91.7432 13.1C92.5432 12.64 93.4282 12.41 94.3982 12.41C95.5382 12.41 96.5332 12.685 97.3832 13.235C98.2332 13.785 98.8532 14.565 99.2432 15.575H97.6082C97.3182 14.945 96.8982 14.46 96.3482 14.12C95.8082 13.78 95.1582 13.61 94.3982 13.61C93.6682 13.61 93.0132 13.78 92.4332 14.12C91.8532 14.46 91.3982 14.945 91.0682 15.575C90.7382 16.195 90.5732 16.925 90.5732 17.765C90.5732 18.595 90.7382 19.325 91.0682 19.955C91.3982 20.575 91.8532 21.055 92.4332 21.395C93.0132 21.735 93.6682 21.905 94.3982 21.905C95.1582 21.905 95.8082 21.74 96.3482 21.41C96.8982 21.07 97.3182 20.585 97.6082 19.955H99.2432C98.8532 20.955 98.2332 21.73 97.3832 22.28C96.5332 22.82 95.5382 23.09 94.3982 23.09C93.4282 23.09 92.5432 22.865 91.7432 22.415C90.9532 21.955 90.3282 21.32 89.8682 20.51C89.4082 19.7 89.1782 18.785 89.1782 17.765ZM104.86 23.135C104.09 23.135 103.39 22.96 102.76 22.61C102.14 22.26 101.65 21.765 101.29 21.125C100.94 20.475 100.765 19.725 100.765 18.875C100.765 18.035 100.945 17.295 101.305 16.655C101.675 16.005 102.175 15.51 102.805 15.17C103.435 14.82 104.14 14.645 104.92 14.645C105.7 14.645 106.405 14.82 107.035 15.17C107.665 15.51 108.16 16 108.52 16.64C108.89 17.28 109.075 18.025 109.075 18.875C109.075 19.725 108.885 20.475 108.505 21.125C108.135 21.765 107.63 22.26 106.99 22.61C106.35 22.96 105.64 23.135 104.86 23.135ZM104.86 21.935C105.35 21.935 105.81 21.82 106.24 21.59C106.67 21.36 107.015 21.015 107.275 20.555C107.545 20.095 107.68 19.535 107.68 18.875C107.68 18.215 107.55 17.655 107.29 17.195C107.03 16.735 106.69 16.395 106.27 16.175C105.85 15.945 105.395 15.83 104.905 15.83C104.405 15.83 103.945 15.945 103.525 16.175C103.115 16.395 102.785 16.735 102.535 17.195C102.285 17.655 102.16 18.215 102.16 18.875C102.16 19.545 102.28 20.11 102.52 20.57C102.77 21.03 103.1 21.375 103.51 21.605C103.92 21.825 104.37 21.935 104.86 21.935ZM114.875 14.63C115.875 14.63 116.685 14.935 117.305 15.545C117.925 16.145 118.235 17.015 118.235 18.155V23H116.885V18.35C116.885 17.53 116.68 16.905 116.27 16.475C115.86 16.035 115.3 15.815 114.59 15.815C113.87 15.815 113.295 16.04 112.865 16.49C112.445 16.94 112.235 17.595 112.235 18.455V23H110.87V14.78H112.235V15.95C112.505 15.53 112.87 15.205 113.33 14.975C113.8 14.745 114.315 14.63 114.875 14.63ZM124.47 14.63C125.47 14.63 126.28 14.935 126.9 15.545C127.52 16.145 127.83 17.015 127.83 18.155V23H126.48V18.35C126.48 17.53 126.275 16.905 125.865 16.475C125.455 16.035 124.895 15.815 124.185 15.815C123.465 15.815 122.89 16.04 122.46 16.49C122.04 16.94 121.83 17.595 121.83 18.455V23H120.465V14.78H121.83V15.95C122.1 15.53 122.465 15.205 122.925 14.975C123.395 14.745 123.91 14.63 124.47 14.63ZM137.559 18.575C137.559 18.835 137.544 19.11 137.514 19.4H130.944C130.994 20.21 131.269 20.845 131.769 21.305C132.279 21.755 132.894 21.98 133.614 21.98C134.204 21.98 134.694 21.845 135.084 21.575C135.484 21.295 135.764 20.925 135.924 20.465H137.394C137.174 21.255 136.734 21.9 136.074 22.4C135.414 22.89 134.594 23.135 133.614 23.135C132.834 23.135 132.134 22.96 131.514 22.61C130.904 22.26 130.424 21.765 130.074 21.125C129.724 20.475 129.549 19.725 129.549 18.875C129.549 18.025 129.719 17.28 130.059 16.64C130.399 16 130.874 15.51 131.484 15.17C132.104 14.82 132.814 14.645 133.614 14.645C134.394 14.645 135.084 14.815 135.684 15.155C136.284 15.495 136.744 15.965 137.064 16.565C137.394 17.155 137.559 17.825 137.559 18.575ZM136.149 18.29C136.149 17.77 136.034 17.325 135.804 16.955C135.574 16.575 135.259 16.29 134.859 16.1C134.469 15.9 134.034 15.8 133.554 15.8C132.864 15.8 132.274 16.02 131.784 16.46C131.304 16.9 131.029 17.51 130.959 18.29H136.149ZM138.851 18.875C138.851 18.025 139.021 17.285 139.361 16.655C139.701 16.015 140.171 15.52 140.771 15.17C141.381 14.82 142.076 14.645 142.856 14.645C143.866 14.645 144.696 14.89 145.346 15.38C146.006 15.87 146.441 16.55 146.651 17.42H145.181C145.041 16.92 144.766 16.525 144.356 16.235C143.956 15.945 143.456 15.8 142.856 15.8C142.076 15.8 141.446 16.07 140.966 16.61C140.486 17.14 140.246 17.895 140.246 18.875C140.246 19.865 140.486 20.63 140.966 21.17C141.446 21.71 142.076 21.98 142.856 21.98C143.456 21.98 143.956 21.84 144.356 21.56C144.756 21.28 145.031 20.88 145.181 20.36H146.651C146.431 21.2 145.991 21.875 145.331 22.385C144.671 22.885 143.846 23.135 142.856 23.135C142.076 23.135 141.381 22.96 140.771 22.61C140.171 22.26 139.701 21.765 139.361 21.125C139.021 20.485 138.851 19.735 138.851 18.875ZM150.137 15.905V20.75C150.137 21.15 150.222 21.435 150.392 21.605C150.562 21.765 150.857 21.845 151.277 21.845H152.282V23H151.052C150.292 23 149.722 22.825 149.342 22.475C148.962 22.125 148.772 21.55 148.772 20.75V15.905H147.707V14.78H148.772V12.71H150.137V14.78H152.282V15.905H150.137ZM157.521 23.135C156.751 23.135 156.051 22.96 155.421 22.61C154.801 22.26 154.311 21.765 153.951 21.125C153.601 20.475 153.426 19.725 153.426 18.875C153.426 18.035 153.606 17.295 153.966 16.655C154.336 16.005 154.836 15.51 155.466 15.17C156.096 14.82 156.801 14.645 157.581 14.645C158.361 14.645 159.066 14.82 159.696 15.17C160.326 15.51 160.821 16 161.181 16.64C161.551 17.28 161.736 18.025 161.736 18.875C161.736 19.725 161.546 20.475 161.166 21.125C160.796 21.765 160.291 22.26 159.651 22.61C159.011 22.96 158.301 23.135 157.521 23.135ZM157.521 21.935C158.011 21.935 158.471 21.82 158.901 21.59C159.331 21.36 159.676 21.015 159.936 20.555C160.206 20.095 160.341 19.535 160.341 18.875C160.341 18.215 160.211 17.655 159.951 17.195C159.691 16.735 159.351 16.395 158.931 16.175C158.511 15.945 158.056 15.83 157.566 15.83C157.066 15.83 156.606 15.945 156.186 16.175C155.776 16.395 155.446 16.735 155.196 17.195C154.946 17.655 154.821 18.215 154.821 18.875C154.821 19.545 154.941 20.11 155.181 20.57C155.431 21.03 155.761 21.375 156.171 21.605C156.581 21.825 157.031 21.935 157.521 21.935ZM164.896 16.115C165.136 15.645 165.476 15.28 165.916 15.02C166.366 14.76 166.911 14.63 167.551 14.63V16.04H167.191C165.661 16.04 164.896 16.87 164.896 18.53V23H163.531V14.78H164.896V16.115ZM172.037 23.135C171.407 23.135 170.842 23.03 170.342 22.82C169.842 22.6 169.447 22.3 169.157 21.92C168.867 21.53 168.707 21.085 168.677 20.585H170.087C170.127 20.995 170.317 21.33 170.657 21.59C171.007 21.85 171.462 21.98 172.022 21.98C172.542 21.98 172.952 21.865 173.252 21.635C173.552 21.405 173.702 21.115 173.702 20.765C173.702 20.405 173.542 20.14 173.222 19.97C172.902 19.79 172.407 19.615 171.737 19.445C171.127 19.285 170.627 19.125 170.237 18.965C169.857 18.795 169.527 18.55 169.247 18.23C168.977 17.9 168.842 17.47 168.842 16.94C168.842 16.52 168.967 16.135 169.217 15.785C169.467 15.435 169.822 15.16 170.282 14.96C170.742 14.75 171.267 14.645 171.857 14.645C172.767 14.645 173.502 14.875 174.062 15.335C174.622 15.795 174.922 16.425 174.962 17.225H173.597C173.567 16.795 173.392 16.45 173.072 16.19C172.762 15.93 172.342 15.8 171.812 15.8C171.322 15.8 170.932 15.905 170.642 16.115C170.352 16.325 170.207 16.6 170.207 16.94C170.207 17.21 170.292 17.435 170.462 17.615C170.642 17.785 170.862 17.925 171.122 18.035C171.392 18.135 171.762 18.25 172.232 18.38C172.822 18.54 173.302 18.7 173.672 18.86C174.042 19.01 174.357 19.24 174.617 19.55C174.887 19.86 175.027 20.265 175.037 20.765C175.037 21.215 174.912 21.62 174.662 21.98C174.412 22.34 174.057 22.625 173.597 22.835C173.147 23.035 172.627 23.135 172.037 23.135Z" fill="#13115B"/>
</svg>
