<svg width="200" height="35" viewBox="0 0 200 35" fill="none" xmlns="http://www.w3.org/2000/svg">
<path d="M-0.000366211 0H194C197.313 0 200 2.68629 200 6V29C200 32.3137 197.313 35 194 35H-0.000366211V0Z" fill="url(#paint0_linear_40_10367)"/>
<path d="M39.6312 8H26.9996V23.1579H39.6312V8Z" stroke="white"/>
<path d="M27.4207 13.0526H39.2102" stroke="white"/>
<path d="M29.947 10.5263H31.6312" stroke="white"/>
<path d="M27.4207 18.1053H39.2102" stroke="white"/>
<path d="M29.947 15.5789H31.6312" stroke="white"/>
<path d="M29.947 20.6316H31.6312" stroke="white"/>
<circle cx="39.9996" cy="22" r="4.5" fill="#52DE97" stroke="#394253"/>
<path d="M57.5609 12.242C58.6249 12.242 59.5443 12.4427 60.3189 12.844C61.1029 13.236 61.7003 13.8007 62.1109 14.538C62.5309 15.2753 62.7409 16.1433 62.7409 17.142C62.7409 18.1407 62.5309 19.0087 62.1109 19.746C61.7003 20.474 61.1029 21.034 60.3189 21.426C59.5443 21.8087 58.6249 22 57.5609 22H54.5229V12.242H57.5609ZM57.5609 20.95C58.8209 20.95 59.7823 20.6187 60.4449 19.956C61.1076 19.284 61.4389 18.346 61.4389 17.142C61.4389 15.9287 61.1029 14.9813 60.4309 14.3C59.7683 13.6187 58.8116 13.278 57.5609 13.278H55.7969V20.95H57.5609ZM63.9454 18.136C63.9454 17.352 64.1041 16.666 64.4214 16.078C64.7387 15.4807 65.1727 15.0187 65.7234 14.692C66.2834 14.3653 66.9041 14.202 67.5854 14.202C68.2574 14.202 68.8407 14.3467 69.3354 14.636C69.8301 14.9253 70.1987 15.2893 70.4414 15.728V14.328H71.7294V22H70.4414V20.572C70.1894 21.02 69.8114 21.3933 69.3074 21.692C68.8127 21.9813 68.2341 22.126 67.5714 22.126C66.8901 22.126 66.2741 21.958 65.7234 21.622C65.1727 21.286 64.7387 20.8147 64.4214 20.208C64.1041 19.6013 63.9454 18.9107 63.9454 18.136ZM70.4414 18.15C70.4414 17.5713 70.3247 17.0673 70.0914 16.638C69.8581 16.2087 69.5407 15.882 69.1394 15.658C68.7474 15.4247 68.3134 15.308 67.8374 15.308C67.3614 15.308 66.9274 15.42 66.5354 15.644C66.1434 15.868 65.8307 16.1947 65.5974 16.624C65.3641 17.0533 65.2474 17.5573 65.2474 18.136C65.2474 18.724 65.3641 19.2373 65.5974 19.676C65.8307 20.1053 66.1434 20.4367 66.5354 20.67C66.9274 20.894 67.3614 21.006 67.8374 21.006C68.3134 21.006 68.7474 20.894 69.1394 20.67C69.5407 20.4367 69.8581 20.1053 70.0914 19.676C70.3247 19.2373 70.4414 18.7287 70.4414 18.15ZM75.4363 15.378V19.9C75.4363 20.2733 75.5157 20.5393 75.6743 20.698C75.833 20.8473 76.1083 20.922 76.5003 20.922H77.4383V22H76.2903C75.581 22 75.049 21.8367 74.6943 21.51C74.3397 21.1833 74.1623 20.6467 74.1623 19.9V15.378H73.1683V14.328H74.1623V12.396H75.4363V14.328H77.4383V15.378H75.4363ZM78.5059 18.136C78.5059 17.352 78.6646 16.666 78.9819 16.078C79.2993 15.4807 79.7333 15.0187 80.2839 14.692C80.8439 14.3653 81.4646 14.202 82.1459 14.202C82.8179 14.202 83.4013 14.3467 83.8959 14.636C84.3906 14.9253 84.7593 15.2893 85.0019 15.728V14.328H86.2899V22H85.0019V20.572C84.7499 21.02 84.3719 21.3933 83.8679 21.692C83.3733 21.9813 82.7946 22.126 82.1319 22.126C81.4506 22.126 80.8346 21.958 80.2839 21.622C79.7333 21.286 79.2993 20.8147 78.9819 20.208C78.6646 19.6013 78.5059 18.9107 78.5059 18.136ZM85.0019 18.15C85.0019 17.5713 84.8853 17.0673 84.6519 16.638C84.4186 16.2087 84.1013 15.882 83.6999 15.658C83.3079 15.4247 82.8739 15.308 82.3979 15.308C81.9219 15.308 81.4879 15.42 81.0959 15.644C80.7039 15.868 80.3913 16.1947 80.1579 16.624C79.9246 17.0533 79.8079 17.5573 79.8079 18.136C79.8079 18.724 79.9246 19.2373 80.1579 19.676C80.3913 20.1053 80.7039 20.4367 81.0959 20.67C81.4879 20.894 81.9219 21.006 82.3979 21.006C82.8739 21.006 83.3079 20.894 83.6999 20.67C84.1013 20.4367 84.4186 20.1053 84.6519 19.676C84.8853 19.2373 85.0019 18.7287 85.0019 18.15ZM91.6993 17.114C91.6993 16.162 91.914 15.308 92.3433 14.552C92.7726 13.7867 93.356 13.1893 94.0933 12.76C94.84 12.3307 95.666 12.116 96.5713 12.116C97.6353 12.116 98.564 12.3727 99.3573 12.886C100.151 13.3993 100.729 14.1273 101.093 15.07H99.5673C99.2966 14.482 98.9046 14.0293 98.3913 13.712C97.8873 13.3947 97.2806 13.236 96.5713 13.236C95.89 13.236 95.2786 13.3947 94.7373 13.712C94.196 14.0293 93.7713 14.482 93.4633 15.07C93.1553 15.6487 93.0013 16.33 93.0013 17.114C93.0013 17.8887 93.1553 18.57 93.4633 19.158C93.7713 19.7367 94.196 20.1847 94.7373 20.502C95.2786 20.8193 95.89 20.978 96.5713 20.978C97.2806 20.978 97.8873 20.824 98.3913 20.516C98.9046 20.1987 99.2966 19.746 99.5673 19.158H101.093C100.729 20.0913 100.151 20.8147 99.3573 21.328C98.564 21.832 97.6353 22.084 96.5713 22.084C95.666 22.084 94.84 21.874 94.0933 21.454C93.356 21.0247 92.7726 20.432 92.3433 19.676C91.914 18.92 91.6993 18.066 91.6993 17.114ZM106.336 22.126C105.617 22.126 104.964 21.9627 104.376 21.636C103.797 21.3093 103.34 20.8473 103.004 20.25C102.677 19.6433 102.514 18.9433 102.514 18.15C102.514 17.366 102.682 16.6753 103.018 16.078C103.363 15.4713 103.83 15.0093 104.418 14.692C105.006 14.3653 105.664 14.202 106.392 14.202C107.12 14.202 107.778 14.3653 108.366 14.692C108.954 15.0093 109.416 15.4667 109.752 16.064C110.097 16.6613 110.27 17.3567 110.27 18.15C110.27 18.9433 110.092 19.6433 109.738 20.25C109.392 20.8473 108.921 21.3093 108.324 21.636C107.726 21.9627 107.064 22.126 106.336 22.126ZM106.336 21.006C106.793 21.006 107.222 20.8987 107.624 20.684C108.025 20.4693 108.347 20.1473 108.59 19.718C108.842 19.2887 108.968 18.766 108.968 18.15C108.968 17.534 108.846 17.0113 108.604 16.582C108.361 16.1527 108.044 15.8353 107.652 15.63C107.26 15.4153 106.835 15.308 106.378 15.308C105.911 15.308 105.482 15.4153 105.09 15.63C104.707 15.8353 104.399 16.1527 104.166 16.582C103.932 17.0113 103.816 17.534 103.816 18.15C103.816 18.7753 103.928 19.3027 104.152 19.732C104.385 20.1613 104.693 20.4833 105.076 20.698C105.458 20.9033 105.878 21.006 106.336 21.006ZM115.683 14.188C116.616 14.188 117.372 14.4727 117.951 15.042C118.529 15.602 118.819 16.414 118.819 17.478V22H117.559V17.66C117.559 16.8947 117.367 16.3113 116.985 15.91C116.602 15.4993 116.079 15.294 115.417 15.294C114.745 15.294 114.208 15.504 113.807 15.924C113.415 16.344 113.219 16.9553 113.219 17.758V22H111.945V14.328H113.219V15.42C113.471 15.028 113.811 14.7247 114.241 14.51C114.679 14.2953 115.16 14.188 115.683 14.188ZM124.638 14.188C125.571 14.188 126.327 14.4727 126.906 15.042C127.485 15.602 127.774 16.414 127.774 17.478V22H126.514V17.66C126.514 16.8947 126.323 16.3113 125.94 15.91C125.557 15.4993 125.035 15.294 124.372 15.294C123.7 15.294 123.163 15.504 122.762 15.924C122.37 16.344 122.174 16.9553 122.174 17.758V22H120.9V14.328H122.174V15.42C122.426 15.028 122.767 14.7247 123.196 14.51C123.635 14.2953 124.115 14.188 124.638 14.188ZM136.855 17.87C136.855 18.1127 136.841 18.3693 136.813 18.64H130.681C130.728 19.396 130.984 19.9887 131.451 20.418C131.927 20.838 132.501 21.048 133.173 21.048C133.724 21.048 134.181 20.922 134.545 20.67C134.918 20.4087 135.18 20.0633 135.329 19.634H136.701C136.496 20.3713 136.085 20.9733 135.469 21.44C134.853 21.8973 134.088 22.126 133.173 22.126C132.445 22.126 131.792 21.9627 131.213 21.636C130.644 21.3093 130.196 20.8473 129.869 20.25C129.542 19.6433 129.379 18.9433 129.379 18.15C129.379 17.3567 129.538 16.6613 129.855 16.064C130.172 15.4667 130.616 15.0093 131.185 14.692C131.764 14.3653 132.426 14.202 133.173 14.202C133.901 14.202 134.545 14.3607 135.105 14.678C135.665 14.9953 136.094 15.434 136.393 15.994C136.701 16.5447 136.855 17.17 136.855 17.87ZM135.539 17.604C135.539 17.1187 135.432 16.7033 135.217 16.358C135.002 16.0033 134.708 15.7373 134.335 15.56C133.971 15.3733 133.565 15.28 133.117 15.28C132.473 15.28 131.922 15.4853 131.465 15.896C131.017 16.3067 130.76 16.876 130.695 17.604H135.539ZM138.061 18.15C138.061 17.3567 138.219 16.666 138.537 16.078C138.854 15.4807 139.293 15.0187 139.853 14.692C140.422 14.3653 141.071 14.202 141.799 14.202C142.741 14.202 143.516 14.4307 144.123 14.888C144.739 15.3453 145.145 15.98 145.341 16.792H143.969C143.838 16.3253 143.581 15.9567 143.199 15.686C142.825 15.4153 142.359 15.28 141.799 15.28C141.071 15.28 140.483 15.532 140.035 16.036C139.587 16.5307 139.363 17.2353 139.363 18.15C139.363 19.074 139.587 19.788 140.035 20.292C140.483 20.796 141.071 21.048 141.799 21.048C142.359 21.048 142.825 20.9173 143.199 20.656C143.572 20.3947 143.829 20.0213 143.969 19.536H145.341C145.135 20.32 144.725 20.95 144.109 21.426C143.493 21.8927 142.723 22.126 141.799 22.126C141.071 22.126 140.422 21.9627 139.853 21.636C139.293 21.3093 138.854 20.8473 138.537 20.25C138.219 19.6527 138.061 18.9527 138.061 18.15ZM148.595 15.378V19.9C148.595 20.2733 148.674 20.5393 148.833 20.698C148.991 20.8473 149.267 20.922 149.659 20.922H150.597V22H149.449C148.739 22 148.207 21.8367 147.853 21.51C147.498 21.1833 147.321 20.6467 147.321 19.9V15.378H146.327V14.328H147.321V12.396H148.595V14.328H150.597V15.378H148.595ZM155.486 22.126C154.767 22.126 154.114 21.9627 153.526 21.636C152.947 21.3093 152.49 20.8473 152.154 20.25C151.827 19.6433 151.664 18.9433 151.664 18.15C151.664 17.366 151.832 16.6753 152.168 16.078C152.513 15.4713 152.98 15.0093 153.568 14.692C154.156 14.3653 154.814 14.202 155.542 14.202C156.27 14.202 156.928 14.3653 157.516 14.692C158.104 15.0093 158.566 15.4667 158.902 16.064C159.247 16.6613 159.42 17.3567 159.42 18.15C159.42 18.9433 159.243 19.6433 158.888 20.25C158.543 20.8473 158.071 21.3093 157.474 21.636C156.877 21.9627 156.214 22.126 155.486 22.126ZM155.486 21.006C155.943 21.006 156.373 20.8987 156.774 20.684C157.175 20.4693 157.497 20.1473 157.74 19.718C157.992 19.2887 158.118 18.766 158.118 18.15C158.118 17.534 157.997 17.0113 157.754 16.582C157.511 16.1527 157.194 15.8353 156.802 15.63C156.41 15.4153 155.985 15.308 155.528 15.308C155.061 15.308 154.632 15.4153 154.24 15.63C153.857 15.8353 153.549 16.1527 153.316 16.582C153.083 17.0113 152.966 17.534 152.966 18.15C152.966 18.7753 153.078 19.3027 153.302 19.732C153.535 20.1613 153.843 20.4833 154.226 20.698C154.609 20.9033 155.029 21.006 155.486 21.006ZM162.369 15.574C162.593 15.1353 162.911 14.7947 163.321 14.552C163.741 14.3093 164.25 14.188 164.847 14.188V15.504H164.511C163.083 15.504 162.369 16.2787 162.369 17.828V22H161.095V14.328H162.369V15.574ZM169.034 22.126C168.446 22.126 167.919 22.028 167.452 21.832C166.985 21.6267 166.617 21.3467 166.346 20.992C166.075 20.628 165.926 20.2127 165.898 19.746H167.214C167.251 20.1287 167.429 20.4413 167.746 20.684C168.073 20.9267 168.497 21.048 169.02 21.048C169.505 21.048 169.888 20.9407 170.168 20.726C170.448 20.5113 170.588 20.2407 170.588 19.914C170.588 19.578 170.439 19.3307 170.14 19.172C169.841 19.004 169.379 18.8407 168.754 18.682C168.185 18.5327 167.718 18.3833 167.354 18.234C166.999 18.0753 166.691 17.8467 166.43 17.548C166.178 17.24 166.052 16.8387 166.052 16.344C166.052 15.952 166.169 15.5927 166.402 15.266C166.635 14.9393 166.967 14.6827 167.396 14.496C167.825 14.3 168.315 14.202 168.866 14.202C169.715 14.202 170.401 14.4167 170.924 14.846C171.447 15.2753 171.727 15.8633 171.764 16.61H170.49C170.462 16.2087 170.299 15.8867 170 15.644C169.711 15.4013 169.319 15.28 168.824 15.28C168.367 15.28 168.003 15.378 167.732 15.574C167.461 15.77 167.326 16.0267 167.326 16.344C167.326 16.596 167.405 16.806 167.564 16.974C167.732 17.1327 167.937 17.2633 168.18 17.366C168.432 17.4593 168.777 17.5667 169.216 17.688C169.767 17.8373 170.215 17.9867 170.56 18.136C170.905 18.276 171.199 18.4907 171.442 18.78C171.694 19.0693 171.825 19.4473 171.834 19.914C171.834 20.334 171.717 20.712 171.484 21.048C171.251 21.384 170.919 21.65 170.49 21.846C170.07 22.0327 169.585 22.126 169.034 22.126Z" fill="white"/>
<defs>
<linearGradient id="paint0_linear_40_10367" x1="223.797" y1="17.637" x2="-30.9057" y2="17.637" gradientUnits="userSpaceOnUse">
<stop stop-color="#091733"/>
<stop offset="1" stop-color="#394253"/>
</linearGradient>
</defs>
</svg>
