<svg width="106" height="26" viewBox="0 0 106 26" fill="none" xmlns="http://www.w3.org/2000/svg">
<path d="M0 3H20V23H0V3Z" fill="#B1A5FF"/>
<path d="M38.5515 18.9999L35.7295 14.1549H33.8595V18.9999H32.3125V7.15092H36.1375C37.0328 7.15092 37.7865 7.30392 38.3985 7.60992C39.0218 7.91592 39.4865 8.32959 39.7925 8.85092C40.0985 9.37226 40.2515 9.96726 40.2515 10.6359C40.2515 11.4519 40.0135 12.1716 39.5375 12.7949C39.0728 13.4183 38.3702 13.8319 37.4295 14.0359L40.4045 18.9999H38.5515ZM33.8595 12.9139H36.1375C36.9762 12.9139 37.6052 12.7099 38.0245 12.3019C38.4438 11.8826 38.6535 11.3273 38.6535 10.6359C38.6535 9.93325 38.4438 9.38925 38.0245 9.00392C37.6165 8.61859 36.9875 8.42592 36.1375 8.42592H33.8595V12.9139Z" fill="#394253"/>
<path d="M51.1553 13.9849C51.1553 14.2796 51.1383 14.5913 51.1043 14.9199H43.6583C43.7149 15.8379 44.0266 16.5576 44.5933 17.0789C45.1713 17.5889 45.8683 17.8439 46.6843 17.8439C47.3529 17.8439 47.9083 17.6909 48.3503 17.3849C48.8036 17.0676 49.1209 16.6483 49.3023 16.1269H50.9683C50.7189 17.0223 50.2203 17.7533 49.4723 18.3199C48.7243 18.8753 47.7949 19.1529 46.6843 19.1529C45.8003 19.1529 45.0069 18.9546 44.3043 18.5579C43.6129 18.1613 43.0689 17.6003 42.6723 16.8749C42.2756 16.1383 42.0773 15.2883 42.0773 14.3249C42.0773 13.3616 42.2699 12.5173 42.6553 11.7919C43.0406 11.0666 43.5789 10.5113 44.2703 10.1259C44.9729 9.72925 45.7776 9.53092 46.6843 9.53092C47.5683 9.53092 48.3503 9.72359 49.0303 10.1089C49.7103 10.4943 50.2316 11.0269 50.5943 11.7069C50.9683 12.3756 51.1553 13.1349 51.1553 13.9849ZM49.5573 13.6619C49.5573 13.0726 49.4269 12.5683 49.1663 12.1489C48.9056 11.7183 48.5486 11.3953 48.0953 11.1799C47.6533 10.9533 47.1603 10.8399 46.6163 10.8399C45.8343 10.8399 45.1656 11.0893 44.6103 11.5879C44.0663 12.0866 43.7546 12.7779 43.6753 13.6619H49.5573Z" fill="#394253"/>
<path d="M52.6193 14.3079C52.6193 13.3559 52.8119 12.5229 53.1973 11.8089C53.5826 11.0836 54.1096 10.5226 54.7783 10.1259C55.4583 9.72925 56.2119 9.53092 57.0393 9.53092C57.8553 9.53092 58.5636 9.70659 59.1643 10.0579C59.7649 10.4093 60.2126 10.8513 60.5073 11.3839V9.68392H62.0713V18.9999H60.5073V17.2659C60.2013 17.8099 59.7423 18.2633 59.1303 18.6259C58.5296 18.9773 57.8269 19.1529 57.0223 19.1529C56.1949 19.1529 55.4469 18.9489 54.7783 18.5409C54.1096 18.1329 53.5826 17.5606 53.1973 16.8239C52.8119 16.0873 52.6193 15.2486 52.6193 14.3079ZM60.5073 14.3249C60.5073 13.6223 60.3656 13.0103 60.0823 12.4889C59.7989 11.9676 59.4136 11.5709 58.9263 11.2989C58.4503 11.0156 57.9233 10.8739 57.3453 10.8739C56.7673 10.8739 56.2403 11.0099 55.7643 11.2819C55.2883 11.5539 54.9086 11.9506 54.6253 12.4719C54.3419 12.9933 54.2003 13.6053 54.2003 14.3079C54.2003 15.0219 54.3419 15.6453 54.6253 16.1779C54.9086 16.6993 55.2883 17.1016 55.7643 17.3849C56.2403 17.6569 56.7673 17.7929 57.3453 17.7929C57.9233 17.7929 58.4503 17.6569 58.9263 17.3849C59.4136 17.1016 59.7989 16.6993 60.0823 16.1779C60.3656 15.6453 60.5073 15.0276 60.5073 14.3249Z" fill="#394253"/>
<path d="M64.1075 14.3079C64.1075 13.3559 64.3002 12.5229 64.6855 11.8089C65.0709 11.0836 65.5979 10.5226 66.2665 10.1259C66.9465 9.72925 67.7059 9.53092 68.5445 9.53092C69.2699 9.53092 69.9442 9.70092 70.5675 10.0409C71.1909 10.3696 71.6669 10.8059 71.9955 11.3499V6.41992H73.5595V18.9999H71.9955V17.2489C71.6895 17.8043 71.2362 18.2633 70.6355 18.6259C70.0349 18.9773 69.3322 19.1529 68.5275 19.1529C67.7002 19.1529 66.9465 18.9489 66.2665 18.5409C65.5979 18.1329 65.0709 17.5606 64.6855 16.8239C64.3002 16.0873 64.1075 15.2486 64.1075 14.3079ZM71.9955 14.3249C71.9955 13.6223 71.8539 13.0103 71.5705 12.4889C71.2872 11.9676 70.9019 11.5709 70.4145 11.2989C69.9385 11.0156 69.4115 10.8739 68.8335 10.8739C68.2555 10.8739 67.7285 11.0099 67.2525 11.2819C66.7765 11.5539 66.3969 11.9506 66.1135 12.4719C65.8302 12.9933 65.6885 13.6053 65.6885 14.3079C65.6885 15.0219 65.8302 15.6453 66.1135 16.1779C66.3969 16.6993 66.7765 17.1016 67.2525 17.3849C67.7285 17.6569 68.2555 17.7929 68.8335 17.7929C69.4115 17.7929 69.9385 17.6569 70.4145 17.3849C70.9019 17.1016 71.2872 16.6993 71.5705 16.1779C71.8539 15.6453 71.9955 15.0276 71.9955 14.3249Z" fill="#394253"/>
<path d="M84.1978 9.68392L78.5878 23.3859H76.9898L78.8258 18.8979L75.0688 9.68392H76.7858L79.7098 17.2319L82.5998 9.68392H84.1978Z" fill="#394253"/>
<path d="M89.6222 8.11992V6.70892H92.8182V18.9999H91.2542V8.11992H89.6222Z" fill="#394253"/>
<path d="M95.2885 17.7589C96.7278 16.6029 97.8555 15.6566 98.6715 14.9199C99.4875 14.1719 100.173 13.3956 100.728 12.5909C101.295 11.7749 101.578 10.9759 101.578 10.1939C101.578 9.45726 101.397 8.87926 101.034 8.45992C100.683 8.02925 100.111 7.81392 99.3175 7.81392C98.5468 7.81392 97.9461 8.05759 97.5155 8.54492C97.0961 9.02092 96.8695 9.66125 96.8355 10.4659H95.3395C95.3848 9.19659 95.7701 8.21625 96.4955 7.52492C97.2208 6.83359 98.1558 6.48792 99.3005 6.48792C100.468 6.48792 101.391 6.81092 102.071 7.45692C102.763 8.10292 103.108 8.99259 103.108 10.1259C103.108 11.0666 102.825 11.9846 102.258 12.8799C101.703 13.7639 101.068 14.5459 100.354 15.2259C99.6405 15.8946 98.7281 16.6766 97.6175 17.5719H103.465V18.8639H95.2885V17.7589Z" fill="#394253"/>
</svg>
