<svg width="288" height="17" viewBox="0 0 288 17" fill="none" xmlns="http://www.w3.org/2000/svg">
<path d="M0.613281 2.80042V0.607422H4.71028V13.0004H2.26228V2.80042H0.613281Z" fill="#13115B"/>
<path d="M17.1765 1.13442V13.0004H14.7965V7.95142H9.71346V13.0004H7.33346V1.13442H9.71346V6.01342H14.7965V1.13442H17.1765Z" fill="#13115B"/>
<path d="M31.1104 2.80042V0.607422H35.2074V13.0004H32.7594V2.80042H31.1104Z" fill="#13115B"/>
<path d="M41.9785 1.13442C43.2252 1.13442 44.3189 1.37809 45.2595 1.86542C46.2115 2.35275 46.9425 3.04976 47.4525 3.95642C47.9739 4.85176 48.2345 5.89442 48.2345 7.08442C48.2345 8.27442 47.9739 9.31709 47.4525 10.2124C46.9425 11.0964 46.2115 11.7821 45.2595 12.2694C44.3189 12.7568 43.2252 13.0004 41.9785 13.0004H37.8305V1.13442H41.9785ZM41.8935 10.9774C43.1402 10.9774 44.1035 10.6374 44.7835 9.95742C45.4635 9.27742 45.8035 8.31976 45.8035 7.08442C45.8035 5.84909 45.4635 4.88576 44.7835 4.19442C44.1035 3.49176 43.1402 3.14042 41.8935 3.14042H40.2105V10.9774H41.8935Z" fill="#13115B"/>
<path d="M61.6074 2.80042V0.607422H65.7044V13.0004H63.2564V2.80042H61.6074Z" fill="#13115B"/>
<path d="M84.1886 1.13442L80.8736 13.0004H78.0686L75.8416 4.55142L73.5126 13.0004L70.7246 13.0174L67.5286 1.13442H70.0786L72.1696 10.3484L74.5836 1.13442H77.2356L79.5136 10.2974L81.6216 1.13442H84.1886Z" fill="#13115B"/>
<path d="M97.334 2.80042V0.607422H101.431V13.0004H98.983V2.80042H97.334Z" fill="#13115B"/>
<path d="M116.991 1.13442V13.0004H114.611V5.28242L111.432 13.0004H109.63L106.434 5.28242V13.0004H104.054V1.13442H106.757L110.531 9.95742L114.305 1.13442H116.991Z" fill="#13115B"/>
<path d="M130.936 2.80042V0.607422H135.033V13.0004H132.585V2.80042H130.936Z" fill="#13115B"/>
<path d="M147.091 1.13442L143.079 8.86942V13.0004H140.699V8.86942L136.67 1.13442H139.356L141.906 6.55742L144.439 1.13442H147.091Z" fill="#13115B"/>
<path d="M182.623 6.37842C182.875 6.00509 183.22 5.70176 183.659 5.46842C184.107 5.23509 184.615 5.11842 185.185 5.11842C185.847 5.11842 186.445 5.28176 186.977 5.60842C187.518 5.93509 187.943 6.40176 188.251 7.00842C188.568 7.60576 188.727 8.30109 188.727 9.09442C188.727 9.88776 188.568 10.5924 188.251 11.2084C187.943 11.8151 187.518 12.2864 186.977 12.6224C186.445 12.9584 185.847 13.1264 185.185 13.1264C184.606 13.1264 184.097 13.0144 183.659 12.7904C183.229 12.5571 182.884 12.2584 182.623 11.8944V13.0004H180.663V2.64042H182.623V6.37842ZM186.725 9.09442C186.725 8.62776 186.627 8.22642 186.431 7.89042C186.244 7.54509 185.992 7.28376 185.675 7.10642C185.367 6.92909 185.031 6.84042 184.667 6.84042C184.312 6.84042 183.976 6.93376 183.659 7.12042C183.351 7.29776 183.099 7.55909 182.903 7.90442C182.716 8.24975 182.623 8.65576 182.623 9.12242C182.623 9.58909 182.716 9.99509 182.903 10.3404C183.099 10.6858 183.351 10.9518 183.659 11.1384C183.976 11.3158 184.312 11.4044 184.667 11.4044C185.031 11.4044 185.367 11.3111 185.675 11.1244C185.992 10.9378 186.244 10.6718 186.431 10.3264C186.627 9.98109 186.725 9.57042 186.725 9.09442Z" fill="#13115B"/>
<path d="M197.571 5.24442L192.769 16.6684H190.683L192.363 12.8044L189.255 5.24442H191.453L193.455 10.6624L195.485 5.24442H197.571Z" fill="#13115B"/>
<path d="M201.459 9.09442C201.459 8.31042 201.613 7.61509 201.921 7.00842C202.239 6.40176 202.668 5.93509 203.209 5.60842C203.751 5.28176 204.353 5.11842 205.015 5.11842C205.519 5.11842 206 5.23042 206.457 5.45442C206.915 5.66909 207.279 5.95842 207.549 6.32242V2.64042H209.537V13.0004H207.549V11.8524C207.307 12.2351 206.966 12.5431 206.527 12.7764C206.089 13.0098 205.58 13.1264 205.001 13.1264C204.348 13.1264 203.751 12.9584 203.209 12.6224C202.668 12.2864 202.239 11.8151 201.921 11.2084C201.613 10.5924 201.459 9.88776 201.459 9.09442ZM207.563 9.12242C207.563 8.64642 207.47 8.24042 207.283 7.90442C207.097 7.55909 206.845 7.29776 206.527 7.12042C206.21 6.93376 205.869 6.84042 205.505 6.84042C205.141 6.84042 204.805 6.92909 204.497 7.10642C204.189 7.28376 203.937 7.54509 203.741 7.89042C203.555 8.22642 203.461 8.62776 203.461 9.09442C203.461 9.56109 203.555 9.97176 203.741 10.3264C203.937 10.6718 204.189 10.9378 204.497 11.1244C204.815 11.3111 205.151 11.4044 205.505 11.4044C205.869 11.4044 206.21 11.3158 206.527 11.1384C206.845 10.9518 207.097 10.6904 207.283 10.3544C207.47 10.0091 207.563 9.59842 207.563 9.12242Z" fill="#13115B"/>
<path d="M218.662 8.95442C218.662 9.23442 218.643 9.48642 218.606 9.71042H212.936C212.982 10.2704 213.178 10.7091 213.524 11.0264C213.869 11.3438 214.294 11.5024 214.798 11.5024C215.526 11.5024 216.044 11.1898 216.352 10.5644H218.466C218.242 11.3111 217.812 11.9271 217.178 12.4124C216.543 12.8884 215.764 13.1264 214.84 13.1264C214.093 13.1264 213.421 12.9631 212.824 12.6364C212.236 12.3004 211.774 11.8291 211.438 11.2224C211.111 10.6158 210.948 9.91576 210.948 9.12242C210.948 8.31976 211.111 7.61509 211.438 7.00842C211.764 6.40176 212.222 5.93509 212.81 5.60842C213.398 5.28176 214.074 5.11842 214.84 5.11842C215.577 5.11842 216.235 5.27709 216.814 5.59442C217.402 5.91176 217.854 6.36442 218.172 6.95242C218.498 7.53109 218.662 8.19842 218.662 8.95442ZM216.632 8.39442C216.622 7.89042 216.44 7.48909 216.086 7.19042C215.731 6.88242 215.297 6.72842 214.784 6.72842C214.298 6.72842 213.888 6.87776 213.552 7.17642C213.225 7.46576 213.024 7.87176 212.95 8.39442H216.632Z" fill="#13115B"/>
<path d="M222.052 6.36442C222.304 6.00976 222.65 5.71576 223.088 5.48242C223.536 5.23976 224.045 5.11842 224.614 5.11842C225.277 5.11842 225.874 5.28176 226.406 5.60842C226.948 5.93509 227.372 6.40176 227.68 7.00842C227.998 7.60576 228.156 8.30109 228.156 9.09442C228.156 9.88776 227.998 10.5924 227.68 11.2084C227.372 11.8151 226.948 12.2864 226.406 12.6224C225.874 12.9584 225.277 13.1264 224.614 13.1264C224.045 13.1264 223.541 13.0098 223.102 12.7764C222.673 12.5431 222.323 12.2491 222.052 11.8944V16.6964H220.092V5.24442H222.052V6.36442ZM226.154 9.09442C226.154 8.62776 226.056 8.22642 225.86 7.89042C225.674 7.54509 225.422 7.28376 225.104 7.10642C224.796 6.92909 224.46 6.84042 224.096 6.84042C223.742 6.84042 223.406 6.93376 223.088 7.12042C222.78 7.29776 222.528 7.55909 222.332 7.90442C222.146 8.24975 222.052 8.65576 222.052 9.12242C222.052 9.58909 222.146 9.99509 222.332 10.3404C222.528 10.6858 222.78 10.9518 223.088 11.1384C223.406 11.3158 223.742 11.4044 224.096 11.4044C224.46 11.4044 224.796 11.3111 225.104 11.1244C225.422 10.9378 225.674 10.6718 225.86 10.3264C226.056 9.98109 226.154 9.57042 226.154 9.09442Z" fill="#13115B"/>
<path d="M231.541 2.64042V13.0004H229.581V2.64042H231.541Z" fill="#13115B"/>
<path d="M236.921 13.1264C236.174 13.1264 235.502 12.9631 234.905 12.6364C234.308 12.3004 233.836 11.8291 233.491 11.2224C233.155 10.6158 232.987 9.91576 232.987 9.12242C232.987 8.32909 233.16 7.62909 233.505 7.02242C233.86 6.41576 234.34 5.94909 234.947 5.62242C235.554 5.28642 236.23 5.11842 236.977 5.11842C237.724 5.11842 238.4 5.28642 239.007 5.62242C239.614 5.94909 240.09 6.41576 240.435 7.02242C240.79 7.62909 240.967 8.32909 240.967 9.12242C240.967 9.91576 240.785 10.6158 240.421 11.2224C240.066 11.8291 239.581 12.3004 238.965 12.6364C238.358 12.9631 237.677 13.1264 236.921 13.1264ZM236.921 11.4184C237.276 11.4184 237.607 11.3344 237.915 11.1664C238.232 10.9891 238.484 10.7278 238.671 10.3824C238.858 10.0371 238.951 9.61709 238.951 9.12242C238.951 8.38509 238.755 7.82042 238.363 7.42842C237.98 7.02709 237.509 6.82642 236.949 6.82642C236.389 6.82642 235.918 7.02709 235.535 7.42842C235.162 7.82042 234.975 8.38509 234.975 9.12242C234.975 9.85976 235.157 10.4291 235.521 10.8304C235.894 11.2224 236.361 11.4184 236.921 11.4184Z" fill="#13115B"/>
<path d="M249.825 5.24442L245.023 16.6684H242.937L244.617 12.8044L241.509 5.24442H243.707L245.709 10.6624L247.739 5.24442H249.825Z" fill="#13115B"/>
<path d="M260.513 5.13242C261.465 5.13242 262.231 5.42642 262.809 6.01442C263.397 6.59309 263.691 7.40509 263.691 8.45042V13.0004H261.731V8.71642C261.731 8.10976 261.577 7.64776 261.269 7.33042C260.961 7.00376 260.541 6.84042 260.009 6.84042C259.477 6.84042 259.053 7.00376 258.735 7.33042C258.427 7.64776 258.273 8.10976 258.273 8.71642V13.0004H256.313V8.71642C256.313 8.10976 256.159 7.64776 255.851 7.33042C255.543 7.00376 255.123 6.84042 254.591 6.84042C254.05 6.84042 253.621 7.00376 253.303 7.33042C252.995 7.64776 252.841 8.10976 252.841 8.71642V13.0004H250.881V5.24442H252.841V6.18242C253.093 5.85576 253.415 5.59909 253.807 5.41242C254.209 5.22575 254.647 5.13242 255.123 5.13242C255.73 5.13242 256.271 5.26309 256.747 5.52442C257.223 5.77642 257.592 6.14042 257.853 6.61642C258.105 6.16842 258.469 5.80909 258.945 5.53842C259.431 5.26776 259.953 5.13242 260.513 5.13242Z" fill="#13115B"/>
<path d="M272.761 8.95442C272.761 9.23442 272.743 9.48642 272.705 9.71042H267.035C267.082 10.2704 267.278 10.7091 267.623 11.0264C267.969 11.3438 268.393 11.5024 268.897 11.5024C269.625 11.5024 270.143 11.1898 270.451 10.5644H272.565C272.341 11.3111 271.912 11.9271 271.277 12.4124C270.643 12.8884 269.863 13.1264 268.939 13.1264C268.193 13.1264 267.521 12.9631 266.923 12.6364C266.335 12.3004 265.873 11.8291 265.537 11.2224C265.211 10.6158 265.047 9.91576 265.047 9.12242C265.047 8.31976 265.211 7.61509 265.537 7.00842C265.864 6.40176 266.321 5.93509 266.909 5.60842C267.497 5.28176 268.174 5.11842 268.939 5.11842C269.677 5.11842 270.335 5.27709 270.913 5.59442C271.501 5.91176 271.954 6.36442 272.271 6.95242C272.598 7.53109 272.761 8.19842 272.761 8.95442ZM270.731 8.39442C270.722 7.89042 270.54 7.48909 270.185 7.19042C269.831 6.88242 269.397 6.72842 268.883 6.72842C268.398 6.72842 267.987 6.87776 267.651 7.17642C267.325 7.46576 267.124 7.87176 267.049 8.39442H270.731Z" fill="#13115B"/>
<path d="M278.49 5.13242C279.414 5.13242 280.161 5.42642 280.73 6.01442C281.299 6.59309 281.584 7.40509 281.584 8.45042V13.0004H279.624V8.71642C279.624 8.10042 279.47 7.62909 279.162 7.30242C278.854 6.96642 278.434 6.79842 277.902 6.79842C277.361 6.79842 276.931 6.96642 276.614 7.30242C276.306 7.62909 276.152 8.10042 276.152 8.71642V13.0004H274.192V5.24442H276.152V6.21042C276.413 5.87442 276.745 5.61309 277.146 5.42642C277.557 5.23042 278.005 5.13242 278.49 5.13242Z" fill="#13115B"/>
<path d="M285.73 6.85442V10.6064C285.73 10.8678 285.79 11.0591 285.912 11.1804C286.042 11.2924 286.257 11.3484 286.556 11.3484H287.466V13.0004H286.234C284.582 13.0004 283.756 12.1978 283.756 10.5924V6.85442H282.832V5.24442H283.756V3.32642H285.73V5.24442H287.466V6.85442H285.73Z" fill="#13115B"/>
<path d="M30.4984 14.7004H48.8465V15.5504H30.4984V14.7004Z" fill="#13115B"/>
</svg>
