<svg width="155" height="155" viewBox="0 0 155 155" fill="none" xmlns="http://www.w3.org/2000/svg">
<path d="M77.4997 4.57509e-05C87.7016 4.5305e-05 97.8032 2.0143 107.225 5.92724C116.647 9.84019 125.203 15.5748 132.403 22.8022C139.604 30.0296 145.306 38.6074 149.184 48.0437C153.061 57.48 155.037 67.5891 154.999 77.7909C154.961 87.9927 152.909 98.0867 148.96 107.494C145.012 116.9 139.245 125.435 131.991 132.608C124.737 139.782 116.138 145.452 106.687 149.294C97.236 153.136 87.1196 155.074 76.918 154.998L77.0343 139.498C85.1956 139.56 93.2887 138.009 100.849 134.935C108.41 131.861 115.289 127.325 121.093 121.587C126.896 115.848 131.51 109.02 134.668 101.495C137.827 93.9693 139.469 85.8942 139.499 77.7327C139.53 69.5712 137.949 61.484 134.847 53.935C131.745 46.386 127.183 39.5237 121.423 33.7418C115.662 27.9599 108.817 23.3721 101.28 20.2418C93.7425 17.1114 85.6613 15.5 77.4997 15.5L77.4997 4.57509e-05Z" fill="#C6D4ED"/>
<path d="M62.7807 1.4107C57.3421 2.46285 52.032 4.09504 46.9414 6.27931L53.0533 20.5234C57.1258 18.776 61.3738 17.4703 65.7247 16.6285L62.7807 1.4107Z" fill="#FF3C78"/>
<path d="M46.9329 6.28203C28.0449 14.3888 13.1509 29.6668 5.52734 48.755L19.9218 54.5039C26.0206 39.2333 37.9358 27.0109 53.0463 20.5255L46.9329 6.28203Z" fill="#B1A5FF"/>
<path d="M77.4995 -0.000778841C72.561 -0.000778626 67.6338 0.471252 62.7852 1.40889L65.728 16.627C69.607 15.8768 73.5487 15.4992 77.4995 15.4992L77.4995 -0.000778841Z" fill="#C6D4ED"/>
<path d="M5.52092 48.772C0.842265 60.4949 -0.902364 73.183 0.438684 85.7335C1.77973 98.284 6.16587 110.317 13.2158 120.787C20.2658 131.256 29.7662 139.846 40.8912 145.808C52.0162 151.77 64.429 154.925 77.0508 154.998L77.1406 139.498C67.0432 139.44 57.1129 136.916 48.2129 132.146C39.3129 127.376 31.7126 120.505 26.0727 112.129C20.4327 103.754 16.9238 94.1271 15.851 84.0867C14.7781 74.0463 16.1738 63.8958 19.9167 54.5175L5.52092 48.772Z" fill="#13115B"/>
</svg>
