<svg width="124" height="18" viewBox="0 0 124 18" fill="none" xmlns="http://www.w3.org/2000/svg">
<path d="M2.39075 11.7415H6.53875V12.9995H0.84375V1.1505H2.39075V11.7415Z" fill="#13115B"/>
<path d="M7.60364 8.3075C7.60364 7.3555 7.79631 6.5225 8.18164 5.8085C8.56697 5.08317 9.09397 4.52217 9.76264 4.1255C10.4426 3.72883 11.1963 3.5305 12.0236 3.5305C12.8396 3.5305 13.548 3.70617 14.1486 4.0575C14.7493 4.40883 15.197 4.85083 15.4916 5.3835V3.6835H17.0556V12.9995H15.4916V11.2655C15.1856 11.8095 14.7266 12.2628 14.1146 12.6255C13.514 12.9768 12.8113 13.1525 12.0066 13.1525C11.1793 13.1525 10.4313 12.9485 9.76264 12.5405C9.09397 12.1325 8.56697 11.5602 8.18164 10.8235C7.79631 10.0868 7.60364 9.24817 7.60364 8.3075ZM15.4916 8.3245C15.4916 7.62183 15.35 7.00983 15.0666 6.4885C14.7833 5.96717 14.398 5.5705 13.9106 5.2985C13.4346 5.01517 12.9076 4.8735 12.3296 4.8735C11.7516 4.8735 11.2246 5.0095 10.7486 5.2815C10.2726 5.5535 9.89297 5.95017 9.60964 6.4715C9.3263 6.99283 9.18464 7.60483 9.18464 8.3075C9.18464 9.0215 9.3263 9.64483 9.60964 10.1775C9.89297 10.6988 10.2726 11.1012 10.7486 11.3845C11.2246 11.6565 11.7516 11.7925 12.3296 11.7925C12.9076 11.7925 13.4346 11.6565 13.9106 11.3845C14.398 11.1012 14.7833 10.6988 15.0666 10.1775C15.35 9.64483 15.4916 9.02717 15.4916 8.3245Z" fill="#13115B"/>
<path d="M22.9679 13.1525C22.2539 13.1525 21.6136 13.0335 21.0469 12.7955C20.4802 12.5462 20.0326 12.2062 19.7039 11.7755C19.3753 11.3335 19.1939 10.8292 19.1599 10.2625H20.7579C20.8033 10.7272 21.0186 11.1068 21.4039 11.4015C21.8006 11.6962 22.3163 11.8435 22.9509 11.8435C23.5403 11.8435 24.0049 11.7132 24.3449 11.4525C24.6849 11.1918 24.8549 10.8632 24.8549 10.4665C24.8549 10.0585 24.6736 9.75817 24.3109 9.5655C23.9482 9.3615 23.3873 9.16317 22.6279 8.9705C21.9366 8.78917 21.3699 8.60783 20.9279 8.4265C20.4973 8.23383 20.1233 7.95617 19.8059 7.5935C19.4999 7.2195 19.3469 6.73217 19.3469 6.1315C19.3469 5.6555 19.4886 5.21917 19.7719 4.8225C20.0553 4.42583 20.4576 4.11417 20.9789 3.8875C21.5003 3.6495 22.0953 3.5305 22.7639 3.5305C23.7953 3.5305 24.6283 3.79117 25.2629 4.3125C25.8976 4.83383 26.2376 5.54783 26.2829 6.4545H24.7359C24.7019 5.96717 24.5036 5.57617 24.1409 5.2815C23.7896 4.98683 23.3136 4.8395 22.7129 4.8395C22.1576 4.8395 21.7156 4.9585 21.3869 5.1965C21.0583 5.4345 20.8939 5.74617 20.8939 6.1315C20.8939 6.4375 20.9903 6.6925 21.1829 6.8965C21.3869 7.08917 21.6363 7.24783 21.9309 7.3725C22.2369 7.48583 22.6563 7.61617 23.1889 7.7635C23.8576 7.94483 24.4016 8.12617 24.8209 8.3075C25.2403 8.4775 25.5973 8.73817 25.8919 9.0895C26.1979 9.44083 26.3566 9.89983 26.3679 10.4665C26.3679 10.9765 26.2263 11.4355 25.9429 11.8435C25.6596 12.2515 25.2573 12.5745 24.7359 12.8125C24.2259 13.0392 23.6366 13.1525 22.9679 13.1525Z" fill="#13115B"/>
<path d="M30.4388 4.9585V10.4495C30.4388 10.9028 30.5351 11.2258 30.7278 11.4185C30.9204 11.5998 31.2548 11.6905 31.7308 11.6905H32.8698V12.9995H31.4758C30.6144 12.9995 29.9684 12.8012 29.5378 12.4045C29.1071 12.0078 28.8918 11.3562 28.8918 10.4495V4.9585H27.6848V3.6835H28.8918V1.3375H30.4388V3.6835H32.8698V4.9585H30.4388Z" fill="#13115B"/>
<path d="M40.8234 5.4005C41.1294 4.86783 41.5827 4.42583 42.1834 4.0745C42.7954 3.71183 43.5037 3.5305 44.3084 3.5305C45.1357 3.5305 45.8837 3.72883 46.5524 4.1255C47.2324 4.52217 47.765 5.08317 48.1504 5.8085C48.5357 6.5225 48.7284 7.3555 48.7284 8.3075C48.7284 9.24817 48.5357 10.0868 48.1504 10.8235C47.765 11.5602 47.2324 12.1325 46.5524 12.5405C45.8837 12.9485 45.1357 13.1525 44.3084 13.1525C43.515 13.1525 42.8124 12.9768 42.2004 12.6255C41.5997 12.2628 41.1407 11.8152 40.8234 11.2825V17.4195H39.2764V3.6835H40.8234V5.4005ZM47.1474 8.3075C47.1474 7.60483 47.0057 6.99283 46.7224 6.4715C46.439 5.95017 46.0537 5.5535 45.5664 5.2815C45.0904 5.0095 44.5634 4.8735 43.9854 4.8735C43.4187 4.8735 42.8917 5.01517 42.4044 5.2985C41.9284 5.5705 41.543 5.97283 41.2484 6.5055C40.965 7.02683 40.8234 7.63317 40.8234 8.3245C40.8234 9.02717 40.965 9.64483 41.2484 10.1775C41.543 10.6988 41.9284 11.1012 42.4044 11.3845C42.8917 11.6565 43.4187 11.7925 43.9854 11.7925C44.5634 11.7925 45.0904 11.6565 45.5664 11.3845C46.0537 11.1012 46.439 10.6988 46.7224 10.1775C47.0057 9.64483 47.1474 9.0215 47.1474 8.3075Z" fill="#13115B"/>
<path d="M52.3116 5.1965C52.5836 4.66383 52.969 4.25017 53.4676 3.9555C53.9776 3.66083 54.5953 3.5135 55.3206 3.5135V5.1115H54.9126C53.1786 5.1115 52.3116 6.05217 52.3116 7.9335V12.9995H50.7646V3.6835H52.3116V5.1965Z" fill="#13115B"/>
<path d="M65.6064 7.9845C65.6064 8.27917 65.5894 8.59083 65.5555 8.9195H58.1094C58.1661 9.8375 58.4778 10.5572 59.0444 11.0785C59.6224 11.5885 60.3194 11.8435 61.1354 11.8435C61.8041 11.8435 62.3594 11.6905 62.8014 11.3845C63.2548 11.0672 63.5721 10.6478 63.7534 10.1265H65.4194C65.1701 11.0218 64.6714 11.7528 63.9234 12.3195C63.1754 12.8748 62.2461 13.1525 61.1354 13.1525C60.2514 13.1525 59.4581 12.9542 58.7554 12.5575C58.0641 12.1608 57.5201 11.5998 57.1234 10.8745C56.7268 10.1378 56.5284 9.28783 56.5284 8.3245C56.5284 7.36117 56.7211 6.51683 57.1064 5.7915C57.4918 5.06617 58.0301 4.51083 58.7214 4.1255C59.4241 3.72883 60.2288 3.5305 61.1354 3.5305C62.0194 3.5305 62.8014 3.72317 63.4814 4.1085C64.1614 4.49383 64.6828 5.0265 65.0454 5.7065C65.4194 6.37517 65.6064 7.1345 65.6064 7.9845ZM64.0084 7.6615C64.0084 7.07217 63.8781 6.56783 63.6174 6.1485C63.3568 5.71783 62.9998 5.39483 62.5464 5.1795C62.1044 4.95283 61.6114 4.8395 61.0674 4.8395C60.2854 4.8395 59.6168 5.08883 59.0614 5.5875C58.5174 6.08617 58.2058 6.7775 58.1264 7.6615H64.0084Z" fill="#13115B"/>
<path d="M67.0704 8.3075C67.0704 7.3555 67.2631 6.5225 67.6484 5.8085C68.0338 5.08317 68.5608 4.52217 69.2294 4.1255C69.9094 3.72883 70.6688 3.5305 71.5074 3.5305C72.2328 3.5305 72.9071 3.7005 73.5304 4.0405C74.1538 4.36917 74.6298 4.8055 74.9584 5.3495V0.419501H76.5224V12.9995H74.9584V11.2485C74.6524 11.8038 74.1991 12.2628 73.5984 12.6255C72.9978 12.9768 72.2951 13.1525 71.4904 13.1525C70.6631 13.1525 69.9094 12.9485 69.2294 12.5405C68.5608 12.1325 68.0338 11.5602 67.6484 10.8235C67.2631 10.0868 67.0704 9.24817 67.0704 8.3075ZM74.9584 8.3245C74.9584 7.62183 74.8168 7.00983 74.5334 6.4885C74.2501 5.96717 73.8648 5.5705 73.3774 5.2985C72.9014 5.01517 72.3744 4.8735 71.7964 4.8735C71.2184 4.8735 70.6914 5.0095 70.2154 5.2815C69.7394 5.5535 69.3598 5.95017 69.0764 6.4715C68.7931 6.99283 68.6514 7.60483 68.6514 8.3075C68.6514 9.0215 68.7931 9.64483 69.0764 10.1775C69.3598 10.6988 69.7394 11.1012 70.2154 11.3845C70.6914 11.6565 71.2184 11.7925 71.7964 11.7925C72.3744 11.7925 72.9014 11.6565 73.3774 11.3845C73.8648 11.1012 74.2501 10.6988 74.5334 10.1775C74.8168 9.64483 74.9584 9.02717 74.9584 8.3245Z" fill="#13115B"/>
<path d="M79.9357 2.1705C79.641 2.1705 79.3917 2.0685 79.1877 1.8645C78.9837 1.6605 78.8817 1.41117 78.8817 1.1165C78.8817 0.821834 78.9837 0.5725 79.1877 0.3685C79.3917 0.1645 79.641 0.0625 79.9357 0.0625C80.219 0.0625 80.4571 0.1645 80.6497 0.3685C80.8537 0.5725 80.9557 0.821834 80.9557 1.1165C80.9557 1.41117 80.8537 1.6605 80.6497 1.8645C80.4571 2.0685 80.219 2.1705 79.9357 2.1705ZM80.6837 3.6835V12.9995H79.1367V3.6835H80.6837Z" fill="#13115B"/>
<path d="M82.7423 8.3245C82.7423 7.36117 82.935 6.5225 83.3203 5.8085C83.7056 5.08317 84.2383 4.52217 84.9183 4.1255C85.6096 3.72883 86.3973 3.5305 87.2813 3.5305C88.426 3.5305 89.3666 3.80817 90.1033 4.3635C90.8513 4.91883 91.3443 5.6895 91.5823 6.6755H89.9163C89.7576 6.10883 89.446 5.66117 88.9813 5.3325C88.528 5.00383 87.9613 4.8395 87.2813 4.8395C86.3973 4.8395 85.6833 5.1455 85.1393 5.7575C84.5953 6.35817 84.3233 7.21383 84.3233 8.3245C84.3233 9.4465 84.5953 10.3135 85.1393 10.9255C85.6833 11.5375 86.3973 11.8435 87.2813 11.8435C87.9613 11.8435 88.528 11.6848 88.9813 11.3675C89.4346 11.0502 89.7463 10.5968 89.9163 10.0075H91.5823C91.333 10.9595 90.8343 11.7245 90.0863 12.3025C89.3383 12.8692 88.4033 13.1525 87.2813 13.1525C86.3973 13.1525 85.6096 12.9542 84.9183 12.5575C84.2383 12.1608 83.7056 11.5998 83.3203 10.8745C82.935 10.1492 82.7423 9.29917 82.7423 8.3245Z" fill="#13115B"/>
<path d="M95.5335 4.9585V10.4495C95.5335 10.9028 95.6298 11.2258 95.8225 11.4185C96.0151 11.5998 96.3495 11.6905 96.8255 11.6905H97.9645V12.9995H96.5705C95.7091 12.9995 95.0631 12.8012 94.6325 12.4045C94.2018 12.0078 93.9865 11.3562 93.9865 10.4495V4.9585H92.7795V3.6835H93.9865V1.3375H95.5335V3.6835H97.9645V4.9585H95.5335Z" fill="#13115B"/>
<path d="M100.638 2.1705C100.343 2.1705 100.094 2.0685 99.8899 1.8645C99.6859 1.6605 99.5839 1.41117 99.5839 1.1165C99.5839 0.821834 99.6859 0.5725 99.8899 0.3685C100.094 0.1645 100.343 0.0625 100.638 0.0625C100.921 0.0625 101.159 0.1645 101.352 0.3685C101.556 0.5725 101.658 0.821834 101.658 1.1165C101.658 1.41117 101.556 1.6605 101.352 1.8645C101.159 2.0685 100.921 2.1705 100.638 2.1705ZM101.386 3.6835V12.9995H99.8389V3.6835H101.386Z" fill="#13115B"/>
<path d="M108.085 13.1525C107.213 13.1525 106.419 12.9542 105.705 12.5575C105.003 12.1608 104.447 11.5998 104.039 10.8745C103.643 10.1378 103.444 9.28783 103.444 8.3245C103.444 7.3725 103.648 6.53383 104.056 5.8085C104.476 5.07183 105.042 4.51083 105.756 4.1255C106.47 3.72883 107.269 3.5305 108.153 3.5305C109.037 3.5305 109.836 3.72883 110.55 4.1255C111.264 4.51083 111.825 5.06617 112.233 5.7915C112.653 6.51683 112.862 7.36117 112.862 8.3245C112.862 9.28783 112.647 10.1378 112.216 10.8745C111.797 11.5998 111.225 12.1608 110.499 12.5575C109.774 12.9542 108.969 13.1525 108.085 13.1525ZM108.085 11.7925C108.641 11.7925 109.162 11.6622 109.649 11.4015C110.137 11.1408 110.528 10.7498 110.822 10.2285C111.128 9.70717 111.281 9.0725 111.281 8.3245C111.281 7.5765 111.134 6.94183 110.839 6.4205C110.545 5.89917 110.159 5.51383 109.683 5.2645C109.207 5.00383 108.692 4.8735 108.136 4.8735C107.57 4.8735 107.048 5.00383 106.572 5.2645C106.108 5.51383 105.734 5.89917 105.45 6.4205C105.167 6.94183 105.025 7.5765 105.025 8.3245C105.025 9.08383 105.161 9.72417 105.433 10.2455C105.717 10.7668 106.091 11.1578 106.555 11.4185C107.02 11.6678 107.53 11.7925 108.085 11.7925Z" fill="#13115B"/>
<path d="M119.435 3.5135C120.569 3.5135 121.487 3.85917 122.189 4.5505C122.892 5.2305 123.243 6.2165 123.243 7.5085V12.9995H121.713V7.7295C121.713 6.80017 121.481 6.09183 121.016 5.6045C120.552 5.10583 119.917 4.8565 119.112 4.8565C118.296 4.8565 117.645 5.1115 117.157 5.6215C116.681 6.1315 116.443 6.87383 116.443 7.8485V12.9995H114.896V3.6835H116.443V5.0095C116.749 4.5335 117.163 4.16517 117.684 3.9045C118.217 3.64383 118.801 3.5135 119.435 3.5135Z" fill="#13115B"/>
</svg>
