<svg width="110" height="27" viewBox="0 0 110 27" fill="none" xmlns="http://www.w3.org/2000/svg">
<path fill-rule="evenodd" clip-rule="evenodd" d="M57.6449 16.6561C57.6449 13.934 55.7287 12.0876 53.1308 12.0876C50.5647 12.0876 48.6485 13.934 48.6485 16.6561C48.6485 19.3778 50.5647 21.2246 53.1308 21.2246C55.7287 21.2246 57.6449 19.3778 57.6449 16.6561V16.6561ZM61.8351 8.55544V24.7565H57.6449V22.8445C56.4757 24.3026 54.7221 25.21 52.3509 25.21C48.0315 25.21 44.4586 21.4838 44.4586 16.6561C44.4586 11.8281 48.0315 8.10187 52.3509 8.10187C54.7221 8.10187 56.4757 9.00933 57.6449 10.4674V8.55544H61.8351Z" fill="white"/>
<path fill-rule="evenodd" clip-rule="evenodd" d="M80.8025 14.8092V24.7563H76.6126V15.3273C76.6126 13.1244 75.2812 11.9901 73.3971 11.9901C71.3508 11.9901 69.8245 13.1889 69.8245 16.008V24.7563H65.6346V8.55556H69.8245V10.3702C70.7989 8.9118 72.4878 8.10199 74.6639 8.10199C78.1067 8.10199 80.8025 10.4996 80.8025 14.8092" fill="white"/>
<path fill-rule="evenodd" clip-rule="evenodd" d="M89.9935 12.5733V19.3126C89.9935 21.0624 91.2606 21.0948 93.664 20.9653V24.7565C87.7849 25.4044 85.804 23.6868 85.804 19.3126V12.5733H82.9784V8.55544H85.804V5.28311L89.9935 4.01941V8.55544H93.664V12.5733H89.9935Z" fill="white"/>
<mask id="mask0_40_10740" style="mask-type:alpha" maskUnits="userSpaceOnUse" x="0" y="0" width="110" height="27">
<path fill-rule="evenodd" clip-rule="evenodd" d="M0 26.3047H109.838V0.318237H0V26.3047Z" fill="white"/>
</mask>
<g mask="url(#mask0_40_10740)">
<path fill-rule="evenodd" clip-rule="evenodd" d="M96.6195 24.7563H100.81V8.55533H96.6195V24.7563ZM96.1323 4.05175C96.1323 2.65827 97.3015 1.45978 98.698 1.45978C100.127 1.45978 101.297 2.65827 101.297 4.05175C101.297 5.44491 100.127 6.61128 98.698 6.61128C97.3015 6.61128 96.1323 5.44491 96.1323 4.05175V4.05175Z" fill="white"/>
<path fill-rule="evenodd" clip-rule="evenodd" d="M104.317 22.4233C104.317 20.9004 105.551 19.6691 107.078 19.6691C108.604 19.6691 109.838 20.9004 109.838 22.4233C109.838 23.9462 108.604 25.1775 107.078 25.1775C105.551 25.1775 104.317 23.9462 104.317 22.4233" fill="#52DE97"/>
<path fill-rule="evenodd" clip-rule="evenodd" d="M21.471 14.3277L19.7834 11.9113C19.7569 11.8738 19.6989 11.883 19.6855 11.9269L19.1776 13.5981C19.1508 13.6124 19.1358 13.62 19.1091 13.6343L14.6179 12.2755C14.7843 12.141 15.0327 11.9724 15.4025 11.7727C16.3355 11.2688 16.9342 10.5688 17.32 9.86708H17.3264C17.3634 9.79965 17.3905 9.72681 17.4253 9.65811C17.46 9.58686 17.4944 9.51593 17.5254 9.44532C18.1388 8.10655 18.3343 6.54673 17.8251 4.9112C17.1367 2.7006 15.3059 0.96742 13.0396 0.472181C8.88734 -0.434643 5.13363 2.78743 5.13363 6.79419C5.13363 7.73695 5.3514 8.63074 5.72349 9.44309C5.75537 9.51593 5.79076 9.58909 5.82711 9.66256C5.86091 9.72999 5.88737 9.80124 5.9234 9.86708H5.9301C6.3159 10.5688 6.91468 11.2688 7.84729 11.7727C8.21714 11.9724 8.46552 12.141 8.63195 12.2755L4.14108 13.6343C4.1143 13.62 4.099 13.6124 4.07221 13.5981L3.5643 11.9269C3.55091 11.883 3.49288 11.8738 3.46642 11.9113L1.77879 14.3277C1.75839 14.3573 1.75233 14.3961 1.76381 14.4301C2.02271 15.2066 2.67219 15.6678 3.51169 15.6678C3.77856 15.6678 4.06648 15.6216 4.36778 15.5304L7.89001 14.4648L10.4478 13.6909C10.5507 13.6595 10.6426 13.592 10.6926 13.4976C10.7793 13.3322 10.8406 13.1563 10.8782 12.9568C10.8817 12.9406 10.8849 12.9241 10.8878 12.9059C10.9378 12.5669 10.8919 12.2269 10.751 11.8951C10.6993 11.7742 10.6483 11.6683 10.5877 11.577C10.5246 11.4816 10.4363 11.4034 10.3476 11.3321C10.1959 11.2097 10.0572 11.1286 9.8783 11.0541C9.72462 10.9902 9.57476 10.9177 9.42905 10.8375C9.13923 10.6778 8.8663 10.4876 8.61633 10.271C8.11448 9.83655 7.70572 9.2971 7.42482 8.69626C7.13755 8.08174 6.98705 7.40711 6.98705 6.7293C6.98705 4.16977 9.08662 2.05395 11.6252 2.05395C14.1635 2.05395 16.2628 4.16977 16.2628 6.7293C16.2628 7.4122 16.11 8.09224 15.8186 8.70994C15.5352 9.31141 15.1232 9.85086 14.6185 10.2844C14.4046 10.4679 14.1744 10.6327 13.9314 10.7749C13.8077 10.8474 13.6808 10.9142 13.5513 10.9746C13.3859 11.0522 13.2213 11.1079 13.0683 11.2103C12.9165 11.3121 12.7708 11.4295 12.6621 11.577C12.5971 11.6655 12.5505 11.7742 12.4989 11.8951C12.3579 12.2269 12.312 12.5669 12.3621 12.9059C12.3649 12.9241 12.3681 12.9406 12.372 12.9568C12.4096 13.1563 12.4708 13.3325 12.5575 13.4976C12.6073 13.5923 12.6994 13.6595 12.8021 13.6909L15.3598 14.4648L18.8824 15.5304C19.1833 15.6216 19.4713 15.6678 19.7381 15.6678C20.5776 15.6678 21.2271 15.2066 21.486 14.4301C21.4975 14.3961 21.4914 14.3573 21.471 14.3277" fill="#52DE97"/>
<path fill-rule="evenodd" clip-rule="evenodd" d="M23.0393 18.3968C22.7734 17.9156 22.2878 17.5721 21.5959 17.3758L13.9051 15.1945C13.805 15.1658 13.6969 15.191 13.6198 15.2609L12.8801 15.9286C12.8246 15.9788 12.7522 16.0065 12.6773 16.0065H11.9047H11.6248H11.3452H10.5723C10.4974 16.0065 10.4253 15.9788 10.3695 15.9286L9.63011 15.2609C9.55264 15.191 9.44487 15.1658 9.34475 15.1945L1.654 17.3758C0.962113 17.5721 0.476519 17.9156 0.210606 18.3968C-0.00365493 18.7849 -0.0562636 19.2477 0.0607509 19.707C0.0696784 19.7419 0.0958233 19.7709 0.129302 19.7846L2.85858 20.9064C2.90098 20.9236 2.94498 20.8845 2.93223 20.8406L2.45365 19.1605C2.44536 19.1316 2.46226 19.101 2.49159 19.0928L7.55478 17.6563C7.61695 17.6389 7.65968 17.7177 7.6109 17.76L3.75069 21.0928C3.20675 21.5623 2.91214 22.0785 2.87484 22.6269C2.84487 23.0687 2.99345 23.5102 3.29443 23.8772C3.31707 23.9052 3.3531 23.9208 3.38913 23.9189L6.33777 23.7843C6.38368 23.7824 6.40695 23.7283 6.37666 23.6937L5.23139 22.3734C5.21162 22.3505 5.21417 22.3155 5.23713 22.2961L9.21721 18.8593C9.266 18.817 9.33837 18.8704 9.31191 18.9296L7.22542 23.5776C6.93145 24.2325 6.88298 24.8244 7.08162 25.3368C7.24136 25.7497 7.56339 26.0878 7.99159 26.2936C8.02379 26.3092 8.06333 26.3082 8.09521 26.2914L10.7103 24.9262C10.7512 24.9049 10.7492 24.8461 10.7075 24.8276L9.10977 24.1139C9.08203 24.1014 9.06959 24.069 9.08203 24.0413L11.5696 18.4878C11.591 18.4404 11.6589 18.4404 11.6799 18.4878L14.1679 24.0413C14.1803 24.069 14.1679 24.1014 14.1401 24.1139L12.5424 24.8276C12.5006 24.8461 12.4987 24.9049 12.5395 24.9262L15.1547 26.2914C15.1865 26.3082 15.2258 26.3092 15.2583 26.2936C15.6865 26.0878 16.0082 25.7497 16.1683 25.3368C16.3669 24.8244 16.3184 24.2325 16.0245 23.5776L13.938 18.9296C13.9115 18.8704 13.9836 18.817 14.0323 18.8593L18.0128 22.2961C18.0357 22.3155 18.0383 22.3505 18.0185 22.3734L16.8729 23.6937C16.8429 23.7283 16.8662 23.7824 16.9121 23.7843L19.8608 23.9189C19.8968 23.9208 19.9328 23.9052 19.9554 23.8772C20.2564 23.5102 20.405 23.0687 20.375 22.6269C20.3377 22.0785 20.0431 21.5623 19.4992 21.0928L15.639 17.76C15.5902 17.7177 15.6329 17.6389 15.6951 17.6563L20.7583 19.0928C20.7876 19.101 20.8045 19.1316 20.7962 19.1605L20.3173 20.8406C20.3049 20.8845 20.3489 20.9236 20.3913 20.9064L23.1206 19.7846C23.1541 19.7709 23.1799 19.7419 23.1888 19.707C23.3058 19.2477 23.2535 18.7849 23.0393 18.3968" fill="#52DE97"/>
</g>
</svg>
