<svg width="623" height="236" viewBox="0 0 623 236" fill="none" xmlns="http://www.w3.org/2000/svg">
<g filter="url(#filter0_d_13_4482)">
<rect x="6" y="4" width="611" height="224" rx="20" fill="#F9F9F9"/>
<path d="M77.52 30.24V51H74.79V35.52L67.89 51H65.97L59.04 35.49V51H56.31V30.24H59.25L66.93 47.4L74.61 30.24H77.52ZM89.3198 51.27C87.7798 51.27 86.3798 50.92 85.1198 50.22C83.8798 49.52 82.8998 48.53 82.1798 47.25C81.4798 45.95 81.1298 44.45 81.1298 42.75C81.1298 41.07 81.4898 39.59 82.2098 38.31C82.9498 37.01 83.9498 36.02 85.2098 35.34C86.4698 34.64 87.8798 34.29 89.4398 34.29C90.9998 34.29 92.4098 34.64 93.6698 35.34C94.9298 36.02 95.9198 37 96.6398 38.28C97.3798 39.56 97.7498 41.05 97.7498 42.75C97.7498 44.45 97.3698 45.95 96.6098 47.25C95.8698 48.53 94.8598 49.52 93.5798 50.22C92.2998 50.92 90.8798 51.27 89.3198 51.27ZM89.3198 48.87C90.2998 48.87 91.2198 48.64 92.0798 48.18C92.9398 47.72 93.6298 47.03 94.1498 46.11C94.6898 45.19 94.9598 44.07 94.9598 42.75C94.9598 41.43 94.6998 40.31 94.1798 39.39C93.6598 38.47 92.9798 37.79 92.1398 37.35C91.2998 36.89 90.3898 36.66 89.4098 36.66C88.4098 36.66 87.4898 36.89 86.6498 37.35C85.8298 37.79 85.1698 38.47 84.6698 39.39C84.1698 40.31 83.9198 41.43 83.9198 42.75C83.9198 44.09 84.1598 45.22 84.6398 46.14C85.1398 47.06 85.7998 47.75 86.6198 48.21C87.4398 48.65 88.3398 48.87 89.3198 48.87ZM100.319 42.72C100.319 41.04 100.659 39.57 101.339 38.31C102.019 37.03 102.949 36.04 104.129 35.34C105.329 34.64 106.669 34.29 108.149 34.29C109.429 34.29 110.619 34.59 111.719 35.19C112.819 35.77 113.659 36.54 114.239 37.5V28.8H116.999V51H114.239V47.91C113.699 48.89 112.899 49.7 111.839 50.34C110.779 50.96 109.539 51.27 108.119 51.27C106.659 51.27 105.329 50.91 104.129 50.19C102.949 49.47 102.019 48.46 101.339 47.16C100.659 45.86 100.319 44.38 100.319 42.72ZM114.239 42.75C114.239 41.51 113.989 40.43 113.489 39.51C112.989 38.59 112.309 37.89 111.449 37.41C110.609 36.91 109.679 36.66 108.659 36.66C107.639 36.66 106.709 36.9 105.869 37.38C105.029 37.86 104.359 38.56 103.859 39.48C103.359 40.4 103.109 41.48 103.109 42.72C103.109 43.98 103.359 45.08 103.859 46.02C104.359 46.94 105.029 47.65 105.869 48.15C106.709 48.63 107.639 48.87 108.659 48.87C109.679 48.87 110.609 48.63 111.449 48.15C112.309 47.65 112.989 46.94 113.489 46.02C113.989 45.08 114.239 43.99 114.239 42.75ZM136.613 42.15C136.613 42.67 136.583 43.22 136.523 43.8H123.383C123.483 45.42 124.033 46.69 125.033 47.61C126.053 48.51 127.283 48.96 128.723 48.96C129.903 48.96 130.883 48.69 131.663 48.15C132.463 47.59 133.023 46.85 133.343 45.93H136.283C135.843 47.51 134.963 48.8 133.643 49.8C132.323 50.78 130.683 51.27 128.723 51.27C127.163 51.27 125.763 50.92 124.523 50.22C123.303 49.52 122.343 48.53 121.643 47.25C120.943 45.95 120.593 44.45 120.593 42.75C120.593 41.05 120.933 39.56 121.613 38.28C122.293 37 123.243 36.02 124.463 35.34C125.703 34.64 127.123 34.29 128.723 34.29C130.283 34.29 131.663 34.63 132.863 35.31C134.063 35.99 134.983 36.93 135.623 38.13C136.283 39.31 136.613 40.65 136.613 42.15ZM133.793 41.58C133.793 40.54 133.563 39.65 133.103 38.91C132.643 38.15 132.013 37.58 131.213 37.2C130.433 36.8 129.563 36.6 128.603 36.6C127.223 36.6 126.043 37.04 125.063 37.92C124.103 38.8 123.553 40.02 123.413 41.58H133.793ZM142.946 28.8V51H140.216V28.8H142.946ZM154.817 48.81C157.357 46.77 159.347 45.1 160.787 43.8C162.227 42.48 163.437 41.11 164.417 39.69C165.417 38.25 165.917 36.84 165.917 35.46C165.917 34.16 165.597 33.14 164.957 32.4C164.337 31.64 163.327 31.26 161.927 31.26C160.567 31.26 159.507 31.69 158.747 32.55C158.007 33.39 157.607 34.52 157.547 35.94H154.907C154.987 33.7 155.667 31.97 156.947 30.75C158.227 29.53 159.877 28.92 161.897 28.92C163.957 28.92 165.587 29.49 166.787 30.63C168.007 31.77 168.617 33.34 168.617 35.34C168.617 37 168.117 38.62 167.117 40.2C166.137 41.76 165.017 43.14 163.757 44.34C162.497 45.52 160.887 46.9 158.927 48.48H169.247V50.76H154.817V48.81Z" fill="#394253"/>
<path d="M55.78 106.26C56.2333 105.9 56.44 105.733 56.4 105.76C57.7067 104.68 58.7333 103.793 59.48 103.1C60.24 102.407 60.88 101.68 61.4 100.92C61.92 100.16 62.18 99.42 62.18 98.7C62.18 98.1533 62.0533 97.7267 61.8 97.42C61.5467 97.1133 61.1667 96.96 60.66 96.96C60.1533 96.96 59.7533 97.1533 59.46 97.54C59.18 97.9133 59.04 98.4467 59.04 99.14H55.74C55.7667 98.0067 56.0067 97.06 56.46 96.3C56.9267 95.54 57.5333 94.98 58.28 94.62C59.04 94.26 59.88 94.08 60.8 94.08C62.3867 94.08 63.58 94.4867 64.38 95.3C65.1933 96.1133 65.6 97.1733 65.6 98.48C65.6 99.9067 65.1133 101.233 64.14 102.46C63.1667 103.673 61.9267 104.86 60.42 106.02H65.82V108.8H55.78V106.26ZM71.3458 105.84L69.1258 111.58H66.9458L68.1058 105.84H71.3458ZM73.068 101.5C73.068 99.2067 73.508 97.4 74.388 96.08C75.2813 94.76 76.7146 94.1 78.688 94.1C80.6613 94.1 82.088 94.76 82.968 96.08C83.8613 97.4 84.308 99.2067 84.308 101.5C84.308 103.82 83.8613 105.64 82.968 106.96C82.088 108.28 80.6613 108.94 78.688 108.94C76.7146 108.94 75.2813 108.28 74.388 106.96C73.508 105.64 73.068 103.82 73.068 101.5ZM80.948 101.5C80.948 100.153 80.8013 99.12 80.508 98.4C80.2146 97.6667 79.608 97.3 78.688 97.3C77.768 97.3 77.1613 97.6667 76.868 98.4C76.5746 99.12 76.428 100.153 76.428 101.5C76.428 102.407 76.4813 103.16 76.588 103.76C76.6946 104.347 76.908 104.827 77.228 105.2C77.5613 105.56 78.048 105.74 78.688 105.74C79.328 105.74 79.808 105.56 80.128 105.2C80.4613 104.827 80.6813 104.347 80.788 103.76C80.8946 103.16 80.948 102.407 80.948 101.5ZM86.1148 101.5C86.1148 99.2067 86.5548 97.4 87.4348 96.08C88.3282 94.76 89.7615 94.1 91.7348 94.1C93.7082 94.1 95.1348 94.76 96.0148 96.08C96.9082 97.4 97.3548 99.2067 97.3548 101.5C97.3548 103.82 96.9082 105.64 96.0148 106.96C95.1348 108.28 93.7082 108.94 91.7348 108.94C89.7615 108.94 88.3282 108.28 87.4348 106.96C86.5548 105.64 86.1148 103.82 86.1148 101.5ZM93.9948 101.5C93.9948 100.153 93.8482 99.12 93.5548 98.4C93.2615 97.6667 92.6548 97.3 91.7348 97.3C90.8148 97.3 90.2082 97.6667 89.9148 98.4C89.6215 99.12 89.4748 100.153 89.4748 101.5C89.4748 102.407 89.5282 103.16 89.6348 103.76C89.7415 104.347 89.9548 104.827 90.2748 105.2C90.6082 105.56 91.0948 105.74 91.7348 105.74C92.3748 105.74 92.8548 105.56 93.1748 105.2C93.5082 104.827 93.7282 104.347 93.8348 103.76C93.9415 103.16 93.9948 102.407 93.9948 101.5ZM108.482 96.96L103.462 109H99.9617L105.042 97.34H98.8217V94.42H108.482V96.96Z" fill="#394253"/>
<path d="M64.375 144H63.01L57.52 135.675V144H56.155V133.53H57.52L63.01 141.84V133.53H64.375V144ZM70.2869 144.135C69.5169 144.135 68.8169 143.96 68.1869 143.61C67.5669 143.26 67.0769 142.765 66.7169 142.125C66.3669 141.475 66.1919 140.725 66.1919 139.875C66.1919 139.035 66.3719 138.295 66.7319 137.655C67.1019 137.005 67.6019 136.51 68.2319 136.17C68.8619 135.82 69.5669 135.645 70.3469 135.645C71.1269 135.645 71.8319 135.82 72.4619 136.17C73.0919 136.51 73.5869 137 73.9469 137.64C74.3169 138.28 74.5019 139.025 74.5019 139.875C74.5019 140.725 74.3119 141.475 73.9319 142.125C73.5619 142.765 73.0569 143.26 72.4169 143.61C71.7769 143.96 71.0669 144.135 70.2869 144.135ZM70.2869 142.935C70.7769 142.935 71.2369 142.82 71.6669 142.59C72.0969 142.36 72.4419 142.015 72.7019 141.555C72.9719 141.095 73.1069 140.535 73.1069 139.875C73.1069 139.215 72.9769 138.655 72.7169 138.195C72.4569 137.735 72.1169 137.395 71.6969 137.175C71.2769 136.945 70.8219 136.83 70.3319 136.83C69.8319 136.83 69.3719 136.945 68.9519 137.175C68.5419 137.395 68.2119 137.735 67.9619 138.195C67.7119 138.655 67.5869 139.215 67.5869 139.875C67.5869 140.545 67.7069 141.11 67.9469 141.57C68.1969 142.03 68.5269 142.375 68.9369 142.605C69.3469 142.825 69.7969 142.935 70.2869 142.935ZM76.7316 144.09C76.4716 144.09 76.2516 144 76.0716 143.82C75.8916 143.64 75.8016 143.42 75.8016 143.16C75.8016 142.9 75.8916 142.68 76.0716 142.5C76.2516 142.32 76.4716 142.23 76.7316 142.23C76.9816 142.23 77.1916 142.32 77.3616 142.5C77.5416 142.68 77.6316 142.9 77.6316 143.16C77.6316 143.42 77.5416 143.64 77.3616 143.82C77.1916 144 76.9816 144.09 76.7316 144.09ZM87.03 144.135C86.26 144.135 85.56 143.96 84.93 143.61C84.31 143.26 83.82 142.765 83.46 142.125C83.11 141.475 82.935 140.725 82.935 139.875C82.935 139.035 83.115 138.295 83.475 137.655C83.845 137.005 84.345 136.51 84.975 136.17C85.605 135.82 86.31 135.645 87.09 135.645C87.87 135.645 88.575 135.82 89.205 136.17C89.835 136.51 90.33 137 90.69 137.64C91.06 138.28 91.245 139.025 91.245 139.875C91.245 140.725 91.055 141.475 90.675 142.125C90.305 142.765 89.8 143.26 89.16 143.61C88.52 143.96 87.81 144.135 87.03 144.135ZM87.03 142.935C87.52 142.935 87.98 142.82 88.41 142.59C88.84 142.36 89.185 142.015 89.445 141.555C89.715 141.095 89.85 140.535 89.85 139.875C89.85 139.215 89.72 138.655 89.46 138.195C89.2 137.735 88.86 137.395 88.44 137.175C88.02 136.945 87.565 136.83 87.075 136.83C86.575 136.83 86.115 136.945 85.695 137.175C85.285 137.395 84.955 137.735 84.705 138.195C84.455 138.655 84.33 139.215 84.33 139.875C84.33 140.545 84.45 141.11 84.69 141.57C84.94 142.03 85.27 142.375 85.68 142.605C86.09 142.825 86.54 142.935 87.03 142.935ZM96.3848 136.905H94.6598V144H93.2948V136.905H92.2298V135.78H93.2948V135.195C93.2948 134.275 93.5298 133.605 93.9998 133.185C94.4798 132.755 95.2448 132.54 96.2948 132.54V133.68C95.6948 133.68 95.2698 133.8 95.0198 134.04C94.7798 134.27 94.6598 134.655 94.6598 135.195V135.78H96.3848V136.905ZM101.465 138.765C101.465 137.745 101.695 136.83 102.155 136.02C102.615 135.2 103.24 134.56 104.03 134.1C104.83 133.64 105.715 133.41 106.685 133.41C107.825 133.41 108.82 133.685 109.67 134.235C110.52 134.785 111.14 135.565 111.53 136.575H109.895C109.605 135.945 109.185 135.46 108.635 135.12C108.095 134.78 107.445 134.61 106.685 134.61C105.955 134.61 105.3 134.78 104.72 135.12C104.14 135.46 103.685 135.945 103.355 136.575C103.025 137.195 102.86 137.925 102.86 138.765C102.86 139.595 103.025 140.325 103.355 140.955C103.685 141.575 104.14 142.055 104.72 142.395C105.3 142.735 105.955 142.905 106.685 142.905C107.445 142.905 108.095 142.74 108.635 142.41C109.185 142.07 109.605 141.585 109.895 140.955H111.53C111.14 141.955 110.52 142.73 109.67 143.28C108.82 143.82 107.825 144.09 106.685 144.09C105.715 144.09 104.83 143.865 104.03 143.415C103.24 142.955 102.615 142.32 102.155 141.51C101.695 140.7 101.465 139.785 101.465 138.765ZM114.927 132.9V144H113.562V132.9H114.927ZM124.544 135.78V144H123.179V142.785C122.919 143.205 122.554 143.535 122.084 143.775C121.624 144.005 121.114 144.12 120.554 144.12C119.914 144.12 119.339 143.99 118.829 143.73C118.319 143.46 117.914 143.06 117.614 142.53C117.324 142 117.179 141.355 117.179 140.595V135.78H118.529V140.415C118.529 141.225 118.734 141.85 119.144 142.29C119.554 142.72 120.114 142.935 120.824 142.935C121.554 142.935 122.129 142.71 122.549 142.26C122.969 141.81 123.179 141.155 123.179 140.295V135.78H124.544ZM129.758 144.135C129.128 144.135 128.563 144.03 128.063 143.82C127.563 143.6 127.168 143.3 126.878 142.92C126.588 142.53 126.428 142.085 126.398 141.585H127.808C127.848 141.995 128.038 142.33 128.378 142.59C128.728 142.85 129.183 142.98 129.743 142.98C130.263 142.98 130.673 142.865 130.973 142.635C131.273 142.405 131.423 142.115 131.423 141.765C131.423 141.405 131.263 141.14 130.943 140.97C130.623 140.79 130.128 140.615 129.458 140.445C128.848 140.285 128.348 140.125 127.958 139.965C127.578 139.795 127.248 139.55 126.968 139.23C126.698 138.9 126.563 138.47 126.563 137.94C126.563 137.52 126.688 137.135 126.938 136.785C127.188 136.435 127.543 136.16 128.003 135.96C128.463 135.75 128.988 135.645 129.578 135.645C130.488 135.645 131.223 135.875 131.783 136.335C132.343 136.795 132.643 137.425 132.683 138.225H131.318C131.288 137.795 131.113 137.45 130.793 137.19C130.483 136.93 130.063 136.8 129.533 136.8C129.043 136.8 128.653 136.905 128.363 137.115C128.073 137.325 127.928 137.6 127.928 137.94C127.928 138.21 128.013 138.435 128.183 138.615C128.363 138.785 128.583 138.925 128.843 139.035C129.113 139.135 129.483 139.25 129.953 139.38C130.543 139.54 131.023 139.7 131.393 139.86C131.763 140.01 132.078 140.24 132.338 140.55C132.608 140.86 132.748 141.265 132.758 141.765C132.758 142.215 132.633 142.62 132.383 142.98C132.133 143.34 131.778 143.625 131.318 143.835C130.868 144.035 130.348 144.135 129.758 144.135ZM136.35 136.905V141.75C136.35 142.15 136.435 142.435 136.605 142.605C136.775 142.765 137.07 142.845 137.49 142.845H138.495V144H137.265C136.505 144 135.935 143.825 135.555 143.475C135.175 143.125 134.985 142.55 134.985 141.75V136.905H133.92V135.78H134.985V133.71H136.35V135.78H138.495V136.905H136.35ZM147.649 139.575C147.649 139.835 147.634 140.11 147.604 140.4H141.034C141.084 141.21 141.359 141.845 141.859 142.305C142.369 142.755 142.984 142.98 143.704 142.98C144.294 142.98 144.784 142.845 145.174 142.575C145.574 142.295 145.854 141.925 146.014 141.465H147.484C147.264 142.255 146.824 142.9 146.164 143.4C145.504 143.89 144.684 144.135 143.704 144.135C142.924 144.135 142.224 143.96 141.604 143.61C140.994 143.26 140.514 142.765 140.164 142.125C139.814 141.475 139.639 140.725 139.639 139.875C139.639 139.025 139.809 138.28 140.149 137.64C140.489 137 140.964 136.51 141.574 136.17C142.194 135.82 142.904 135.645 143.704 135.645C144.484 135.645 145.174 135.815 145.774 136.155C146.374 136.495 146.834 136.965 147.154 137.565C147.484 138.155 147.649 138.825 147.649 139.575ZM146.239 139.29C146.239 138.77 146.124 138.325 145.894 137.955C145.664 137.575 145.349 137.29 144.949 137.1C144.559 136.9 144.124 136.8 143.644 136.8C142.954 136.8 142.364 137.02 141.874 137.46C141.394 137.9 141.119 138.51 141.049 139.29H146.239ZM150.816 137.115C151.056 136.645 151.396 136.28 151.836 136.02C152.286 135.76 152.831 135.63 153.471 135.63V137.04H153.111C151.581 137.04 150.816 137.87 150.816 139.53V144H149.451V135.78H150.816V137.115ZM157.957 144.135C157.327 144.135 156.762 144.03 156.262 143.82C155.762 143.6 155.367 143.3 155.077 142.92C154.787 142.53 154.627 142.085 154.597 141.585H156.007C156.047 141.995 156.237 142.33 156.577 142.59C156.927 142.85 157.382 142.98 157.942 142.98C158.462 142.98 158.872 142.865 159.172 142.635C159.472 142.405 159.622 142.115 159.622 141.765C159.622 141.405 159.462 141.14 159.142 140.97C158.822 140.79 158.327 140.615 157.657 140.445C157.047 140.285 156.547 140.125 156.157 139.965C155.777 139.795 155.447 139.55 155.167 139.23C154.897 138.9 154.762 138.47 154.762 137.94C154.762 137.52 154.887 137.135 155.137 136.785C155.387 136.435 155.742 136.16 156.202 135.96C156.662 135.75 157.187 135.645 157.777 135.645C158.687 135.645 159.422 135.875 159.982 136.335C160.542 136.795 160.842 137.425 160.882 138.225H159.517C159.487 137.795 159.312 137.45 158.992 137.19C158.682 136.93 158.262 136.8 157.732 136.8C157.242 136.8 156.852 136.905 156.562 137.115C156.272 137.325 156.127 137.6 156.127 137.94C156.127 138.21 156.212 138.435 156.382 138.615C156.562 138.785 156.782 138.925 157.042 139.035C157.312 139.135 157.682 139.25 158.152 139.38C158.742 139.54 159.222 139.7 159.592 139.86C159.962 140.01 160.277 140.24 160.537 140.55C160.807 140.86 160.947 141.265 160.957 141.765C160.957 142.215 160.832 142.62 160.582 142.98C160.332 143.34 159.977 143.625 159.517 143.835C159.067 144.035 158.547 144.135 157.957 144.135Z" fill="#394253" fill-opacity="0.8"/>
<path d="M66.18 157.38H59.94V160.14C60.2067 159.847 60.58 159.607 61.06 159.42C61.54 159.233 62.06 159.14 62.62 159.14C63.62 159.14 64.4467 159.367 65.1 159.82C65.7667 160.273 66.2533 160.86 66.56 161.58C66.8667 162.3 67.02 163.08 67.02 163.92C67.02 165.48 66.58 166.72 65.7 167.64C64.82 168.547 63.58 169 61.98 169C60.9133 169 59.9867 168.82 59.2 168.46C58.4133 168.087 57.8067 167.573 57.38 166.92C56.9533 166.267 56.72 165.513 56.68 164.66H60.02C60.1 165.073 60.2933 165.42 60.6 165.7C60.9067 165.967 61.3267 166.1 61.86 166.1C62.4867 166.1 62.9533 165.9 63.26 165.5C63.5667 165.1 63.72 164.567 63.72 163.9C63.72 163.247 63.56 162.747 63.24 162.4C62.92 162.053 62.4533 161.88 61.84 161.88C61.3867 161.88 61.0133 161.993 60.72 162.22C60.4267 162.433 60.2333 162.72 60.14 163.08H56.84V154.38H66.18V157.38Z" fill="#394253"/>
<path d="M64.375 85H63.01L57.52 76.675V85H56.155V74.53H57.52L63.01 82.84V74.53H64.375V85ZM70.2869 85.135C69.5169 85.135 68.8169 84.96 68.1869 84.61C67.5669 84.26 67.0769 83.765 66.7169 83.125C66.3669 82.475 66.1919 81.725 66.1919 80.875C66.1919 80.035 66.3719 79.295 66.7319 78.655C67.1019 78.005 67.6019 77.51 68.2319 77.17C68.8619 76.82 69.5669 76.645 70.3469 76.645C71.1269 76.645 71.8319 76.82 72.4619 77.17C73.0919 77.51 73.5869 78 73.9469 78.64C74.3169 79.28 74.5019 80.025 74.5019 80.875C74.5019 81.725 74.3119 82.475 73.9319 83.125C73.5619 83.765 73.0569 84.26 72.4169 84.61C71.7769 84.96 71.0669 85.135 70.2869 85.135ZM70.2869 83.935C70.7769 83.935 71.2369 83.82 71.6669 83.59C72.0969 83.36 72.4419 83.015 72.7019 82.555C72.9719 82.095 73.1069 81.535 73.1069 80.875C73.1069 80.215 72.9769 79.655 72.7169 79.195C72.4569 78.735 72.1169 78.395 71.6969 78.175C71.2769 77.945 70.8219 77.83 70.3319 77.83C69.8319 77.83 69.3719 77.945 68.9519 78.175C68.5419 78.395 68.2119 78.735 67.9619 79.195C67.7119 79.655 67.5869 80.215 67.5869 80.875C67.5869 81.545 67.7069 82.11 67.9469 82.57C68.1969 83.03 68.5269 83.375 68.9369 83.605C69.3469 83.825 69.7969 83.935 70.2869 83.935ZM76.7316 85.09C76.4716 85.09 76.2516 85 76.0716 84.82C75.8916 84.64 75.8016 84.42 75.8016 84.16C75.8016 83.9 75.8916 83.68 76.0716 83.5C76.2516 83.32 76.4716 83.23 76.7316 83.23C76.9816 83.23 77.1916 83.32 77.3616 83.5C77.5416 83.68 77.6316 83.9 77.6316 84.16C77.6316 84.42 77.5416 84.64 77.3616 84.82C77.1916 85 76.9816 85.09 76.7316 85.09ZM87.03 85.135C86.26 85.135 85.56 84.96 84.93 84.61C84.31 84.26 83.82 83.765 83.46 83.125C83.11 82.475 82.935 81.725 82.935 80.875C82.935 80.035 83.115 79.295 83.475 78.655C83.845 78.005 84.345 77.51 84.975 77.17C85.605 76.82 86.31 76.645 87.09 76.645C87.87 76.645 88.575 76.82 89.205 77.17C89.835 77.51 90.33 78 90.69 78.64C91.06 79.28 91.245 80.025 91.245 80.875C91.245 81.725 91.055 82.475 90.675 83.125C90.305 83.765 89.8 84.26 89.16 84.61C88.52 84.96 87.81 85.135 87.03 85.135ZM87.03 83.935C87.52 83.935 87.98 83.82 88.41 83.59C88.84 83.36 89.185 83.015 89.445 82.555C89.715 82.095 89.85 81.535 89.85 80.875C89.85 80.215 89.72 79.655 89.46 79.195C89.2 78.735 88.86 78.395 88.44 78.175C88.02 77.945 87.565 77.83 87.075 77.83C86.575 77.83 86.115 77.945 85.695 78.175C85.285 78.395 84.955 78.735 84.705 79.195C84.455 79.655 84.33 80.215 84.33 80.875C84.33 81.545 84.45 82.11 84.69 82.57C84.94 83.03 85.27 83.375 85.68 83.605C86.09 83.825 86.54 83.935 87.03 83.935ZM96.3848 77.905H94.6598V85H93.2948V77.905H92.2298V76.78H93.2948V76.195C93.2948 75.275 93.5298 74.605 93.9998 74.185C94.4798 73.755 95.2448 73.54 96.2948 73.54V74.68C95.6948 74.68 95.2698 74.8 95.0198 75.04C94.7798 75.27 94.6598 75.655 94.6598 76.195V76.78H96.3848V77.905ZM105.29 85.105C104.6 85.105 103.98 84.985 103.43 84.745C102.89 84.495 102.465 84.155 102.155 83.725C101.845 83.285 101.685 82.78 101.675 82.21H103.13C103.18 82.7 103.38 83.115 103.73 83.455C104.09 83.785 104.61 83.95 105.29 83.95C105.94 83.95 106.45 83.79 106.82 83.47C107.2 83.14 107.39 82.72 107.39 82.21C107.39 81.81 107.28 81.485 107.06 81.235C106.84 80.985 106.565 80.795 106.235 80.665C105.905 80.535 105.46 80.395 104.9 80.245C104.21 80.065 103.655 79.885 103.235 79.705C102.825 79.525 102.47 79.245 102.17 78.865C101.88 78.475 101.735 77.955 101.735 77.305C101.735 76.735 101.88 76.23 102.17 75.79C102.46 75.35 102.865 75.01 103.385 74.77C103.915 74.53 104.52 74.41 105.2 74.41C106.18 74.41 106.98 74.655 107.6 75.145C108.23 75.635 108.585 76.285 108.665 77.095H107.165C107.115 76.695 106.905 76.345 106.535 76.045C106.165 75.735 105.675 75.58 105.065 75.58C104.495 75.58 104.03 75.73 103.67 76.03C103.31 76.32 103.13 76.73 103.13 77.26C103.13 77.64 103.235 77.95 103.445 78.19C103.665 78.43 103.93 78.615 104.24 78.745C104.56 78.865 105.005 79.005 105.575 79.165C106.265 79.355 106.82 79.545 107.24 79.735C107.66 79.915 108.02 80.2 108.32 80.59C108.62 80.97 108.77 81.49 108.77 82.15C108.77 82.66 108.635 83.14 108.365 83.59C108.095 84.04 107.695 84.405 107.165 84.685C106.635 84.965 106.01 85.105 105.29 85.105ZM110.269 80.86C110.269 80.02 110.439 79.285 110.779 78.655C111.119 78.015 111.584 77.52 112.174 77.17C112.774 76.82 113.439 76.645 114.169 76.645C114.889 76.645 115.514 76.8 116.044 77.11C116.574 77.42 116.969 77.81 117.229 78.28V76.78H118.609V85H117.229V83.47C116.959 83.95 116.554 84.35 116.014 84.67C115.484 84.98 114.864 85.135 114.154 85.135C113.424 85.135 112.764 84.955 112.174 84.595C111.584 84.235 111.119 83.73 110.779 83.08C110.439 82.43 110.269 81.69 110.269 80.86ZM117.229 80.875C117.229 80.255 117.104 79.715 116.854 79.255C116.604 78.795 116.264 78.445 115.834 78.205C115.414 77.955 114.949 77.83 114.439 77.83C113.929 77.83 113.464 77.95 113.044 78.19C112.624 78.43 112.289 78.78 112.039 79.24C111.789 79.7 111.664 80.24 111.664 80.86C111.664 81.49 111.789 82.04 112.039 82.51C112.289 82.97 112.624 83.325 113.044 83.575C113.464 83.815 113.929 83.935 114.439 83.935C114.949 83.935 115.414 83.815 115.834 83.575C116.264 83.325 116.604 82.97 116.854 82.51C117.104 82.04 117.229 81.495 117.229 80.875ZM130.801 76.63C131.441 76.63 132.011 76.765 132.511 77.035C133.011 77.295 133.406 77.69 133.696 78.22C133.986 78.75 134.131 79.395 134.131 80.155V85H132.781V80.35C132.781 79.53 132.576 78.905 132.166 78.475C131.766 78.035 131.221 77.815 130.531 77.815C129.821 77.815 129.256 78.045 128.836 78.505C128.416 78.955 128.206 79.61 128.206 80.47V85H126.856V80.35C126.856 79.53 126.651 78.905 126.241 78.475C125.841 78.035 125.296 77.815 124.606 77.815C123.896 77.815 123.331 78.045 122.911 78.505C122.491 78.955 122.281 79.61 122.281 80.47V85H120.916V76.78H122.281V77.965C122.551 77.535 122.911 77.205 123.361 76.975C123.821 76.745 124.326 76.63 124.876 76.63C125.566 76.63 126.176 76.785 126.706 77.095C127.236 77.405 127.631 77.86 127.891 78.46C128.121 77.88 128.501 77.43 129.031 77.11C129.561 76.79 130.151 76.63 130.801 76.63ZM137.735 78.295C138.005 77.825 138.405 77.435 138.935 77.125C139.475 76.805 140.1 76.645 140.81 76.645C141.54 76.645 142.2 76.82 142.79 77.17C143.39 77.52 143.86 78.015 144.2 78.655C144.54 79.285 144.71 80.02 144.71 80.86C144.71 81.69 144.54 82.43 144.2 83.08C143.86 83.73 143.39 84.235 142.79 84.595C142.2 84.955 141.54 85.135 140.81 85.135C140.11 85.135 139.49 84.98 138.95 84.67C138.42 84.35 138.015 83.955 137.735 83.485V88.9H136.37V76.78H137.735V78.295ZM143.315 80.86C143.315 80.24 143.19 79.7 142.94 79.24C142.69 78.78 142.35 78.43 141.92 78.19C141.5 77.95 141.035 77.83 140.525 77.83C140.025 77.83 139.56 77.955 139.13 78.205C138.71 78.445 138.37 78.8 138.11 79.27C137.86 79.73 137.735 80.265 137.735 80.875C137.735 81.495 137.86 82.04 138.11 82.51C138.37 82.97 138.71 83.325 139.13 83.575C139.56 83.815 140.025 83.935 140.525 83.935C141.035 83.935 141.5 83.815 141.92 83.575C142.35 83.325 142.69 82.97 142.94 82.51C143.19 82.04 143.315 81.49 143.315 80.86ZM147.872 73.9V85H146.507V73.9H147.872ZM157.698 80.575C157.698 80.835 157.683 81.11 157.653 81.4H151.083C151.133 82.21 151.408 82.845 151.908 83.305C152.418 83.755 153.033 83.98 153.753 83.98C154.343 83.98 154.833 83.845 155.223 83.575C155.623 83.295 155.903 82.925 156.063 82.465H157.533C157.313 83.255 156.873 83.9 156.213 84.4C155.553 84.89 154.733 85.135 153.753 85.135C152.973 85.135 152.273 84.96 151.653 84.61C151.043 84.26 150.563 83.765 150.213 83.125C149.863 82.475 149.688 81.725 149.688 80.875C149.688 80.025 149.858 79.28 150.198 78.64C150.538 78 151.013 77.51 151.623 77.17C152.243 76.82 152.953 76.645 153.753 76.645C154.533 76.645 155.223 76.815 155.823 77.155C156.423 77.495 156.883 77.965 157.203 78.565C157.533 79.155 157.698 79.825 157.698 80.575ZM156.288 80.29C156.288 79.77 156.173 79.325 155.943 78.955C155.713 78.575 155.398 78.29 154.998 78.1C154.608 77.9 154.173 77.8 153.693 77.8C153.003 77.8 152.413 78.02 151.923 78.46C151.443 78.9 151.168 79.51 151.098 80.29H156.288ZM162.41 85.135C161.78 85.135 161.215 85.03 160.715 84.82C160.215 84.6 159.82 84.3 159.53 83.92C159.24 83.53 159.08 83.085 159.05 82.585H160.46C160.5 82.995 160.69 83.33 161.03 83.59C161.38 83.85 161.835 83.98 162.395 83.98C162.915 83.98 163.325 83.865 163.625 83.635C163.925 83.405 164.075 83.115 164.075 82.765C164.075 82.405 163.915 82.14 163.595 81.97C163.275 81.79 162.78 81.615 162.11 81.445C161.5 81.285 161 81.125 160.61 80.965C160.23 80.795 159.9 80.55 159.62 80.23C159.35 79.9 159.215 79.47 159.215 78.94C159.215 78.52 159.34 78.135 159.59 77.785C159.84 77.435 160.195 77.16 160.655 76.96C161.115 76.75 161.64 76.645 162.23 76.645C163.14 76.645 163.875 76.875 164.435 77.335C164.995 77.795 165.295 78.425 165.335 79.225H163.97C163.94 78.795 163.765 78.45 163.445 78.19C163.135 77.93 162.715 77.8 162.185 77.8C161.695 77.8 161.305 77.905 161.015 78.115C160.725 78.325 160.58 78.6 160.58 78.94C160.58 79.21 160.665 79.435 160.835 79.615C161.015 79.785 161.235 79.925 161.495 80.035C161.765 80.135 162.135 80.25 162.605 80.38C163.195 80.54 163.675 80.7 164.045 80.86C164.415 81.01 164.73 81.24 164.99 81.55C165.26 81.86 165.4 82.265 165.41 82.765C165.41 83.215 165.285 83.62 165.035 83.98C164.785 84.34 164.43 84.625 163.97 84.835C163.52 85.035 163 85.135 162.41 85.135Z" fill="#394253" fill-opacity="0.8"/>
<path d="M60.772 203L58.614 199.295H57.184V203H56.001V193.939H58.926C59.6107 193.939 60.187 194.056 60.655 194.29C61.1317 194.524 61.487 194.84 61.721 195.239C61.955 195.638 62.072 196.093 62.072 196.604C62.072 197.228 61.89 197.778 61.526 198.255C61.1707 198.732 60.6333 199.048 59.914 199.204L62.189 203H60.772ZM57.184 198.346H58.926C59.5673 198.346 60.0483 198.19 60.369 197.878C60.6897 197.557 60.85 197.133 60.85 196.604C60.85 196.067 60.6897 195.651 60.369 195.356C60.057 195.061 59.576 194.914 58.926 194.914H57.184V198.346ZM70.4102 199.165C70.4102 199.39 70.3972 199.629 70.3712 199.88H64.6772C64.7205 200.582 64.9588 201.132 65.3922 201.531C65.8342 201.921 66.3672 202.116 66.9912 202.116C67.5025 202.116 67.9272 201.999 68.2652 201.765C68.6118 201.522 68.8545 201.202 68.9932 200.803H70.2672C70.0765 201.488 69.6952 202.047 69.1232 202.48C68.5512 202.905 67.8405 203.117 66.9912 203.117C66.3152 203.117 65.7085 202.965 65.1712 202.662C64.6425 202.359 64.2265 201.93 63.9232 201.375C63.6198 200.812 63.4682 200.162 63.4682 199.425C63.4682 198.688 63.6155 198.043 63.9102 197.488C64.2048 196.933 64.6165 196.509 65.1452 196.214C65.6825 195.911 66.2978 195.759 66.9912 195.759C67.6672 195.759 68.2652 195.906 68.7852 196.201C69.3052 196.496 69.7038 196.903 69.9812 197.423C70.2672 197.934 70.4102 198.515 70.4102 199.165ZM69.1882 198.918C69.1882 198.467 69.0885 198.082 68.8892 197.761C68.6898 197.432 68.4168 197.185 68.0702 197.02C67.7322 196.847 67.3552 196.76 66.9392 196.76C66.3412 196.76 65.8298 196.951 65.4052 197.332C64.9892 197.713 64.7508 198.242 64.6902 198.918H69.1882ZM71.5297 199.425C71.5297 198.688 71.677 198.047 71.9717 197.501C72.2664 196.946 72.6737 196.517 73.1937 196.214C73.7224 195.911 74.3247 195.759 75.0007 195.759C75.876 195.759 76.5954 195.971 77.1587 196.396C77.7307 196.821 78.1077 197.41 78.2897 198.164H77.0157C76.8944 197.731 76.656 197.388 76.3007 197.137C75.954 196.886 75.5207 196.76 75.0007 196.76C74.3247 196.76 73.7787 196.994 73.3627 197.462C72.9467 197.921 72.7387 198.576 72.7387 199.425C72.7387 200.283 72.9467 200.946 73.3627 201.414C73.7787 201.882 74.3247 202.116 75.0007 202.116C75.5207 202.116 75.954 201.995 76.3007 201.752C76.6474 201.509 76.8857 201.163 77.0157 200.712H78.2897C78.099 201.44 77.7177 202.025 77.1457 202.467C76.5737 202.9 75.8587 203.117 75.0007 203.117C74.3247 203.117 73.7224 202.965 73.1937 202.662C72.6737 202.359 72.2664 201.93 71.9717 201.375C71.677 200.82 71.5297 200.17 71.5297 199.425ZM82.9752 203.117C82.3079 203.117 81.7012 202.965 81.1552 202.662C80.6179 202.359 80.1932 201.93 79.8812 201.375C79.5779 200.812 79.4262 200.162 79.4262 199.425C79.4262 198.697 79.5822 198.056 79.8942 197.501C80.2149 196.938 80.6482 196.509 81.1942 196.214C81.7402 195.911 82.3512 195.759 83.0272 195.759C83.7032 195.759 84.3142 195.911 84.8602 196.214C85.4062 196.509 85.8352 196.933 86.1472 197.488C86.4679 198.043 86.6282 198.688 86.6282 199.425C86.6282 200.162 86.4635 200.812 86.1342 201.375C85.8135 201.93 85.3759 202.359 84.8212 202.662C84.2665 202.965 83.6512 203.117 82.9752 203.117ZM82.9752 202.077C83.3999 202.077 83.7985 201.977 84.1712 201.778C84.5439 201.579 84.8429 201.28 85.0682 200.881C85.3022 200.482 85.4192 199.997 85.4192 199.425C85.4192 198.853 85.3065 198.368 85.0812 197.969C84.8559 197.57 84.5612 197.276 84.1972 197.085C83.8332 196.886 83.4389 196.786 83.0142 196.786C82.5809 196.786 82.1822 196.886 81.8182 197.085C81.4629 197.276 81.1769 197.57 80.9602 197.969C80.7435 198.368 80.6352 198.853 80.6352 199.425C80.6352 200.006 80.7392 200.495 80.9472 200.894C81.1639 201.293 81.4499 201.592 81.8052 201.791C82.1605 201.982 82.5505 202.077 82.9752 202.077ZM96.7506 195.746C97.3053 195.746 97.7993 195.863 98.2326 196.097C98.666 196.322 99.0083 196.665 99.2596 197.124C99.511 197.583 99.6366 198.142 99.6366 198.801V203H98.4666V198.97C98.4666 198.259 98.289 197.718 97.9336 197.345C97.587 196.964 97.1146 196.773 96.5166 196.773C95.9013 196.773 95.4116 196.972 95.0476 197.371C94.6836 197.761 94.5016 198.329 94.5016 199.074V203H93.3316V198.97C93.3316 198.259 93.154 197.718 92.7986 197.345C92.452 196.964 91.9796 196.773 91.3816 196.773C90.7663 196.773 90.2766 196.972 89.9126 197.371C89.5486 197.761 89.3666 198.329 89.3666 199.074V203H88.1836V195.876H89.3666V196.903C89.6006 196.53 89.9126 196.244 90.3026 196.045C90.7013 195.846 91.139 195.746 91.6156 195.746C92.2136 195.746 92.7423 195.88 93.2016 196.149C93.661 196.418 94.0033 196.812 94.2286 197.332C94.428 196.829 94.7573 196.439 95.2166 196.162C95.676 195.885 96.1873 195.746 96.7506 195.746ZM110.144 195.746C110.699 195.746 111.193 195.863 111.626 196.097C112.06 196.322 112.402 196.665 112.653 197.124C112.905 197.583 113.03 198.142 113.03 198.801V203H111.86V198.97C111.86 198.259 111.683 197.718 111.327 197.345C110.981 196.964 110.508 196.773 109.91 196.773C109.295 196.773 108.805 196.972 108.441 197.371C108.077 197.761 107.895 198.329 107.895 199.074V203H106.725V198.97C106.725 198.259 106.548 197.718 106.192 197.345C105.846 196.964 105.373 196.773 104.775 196.773C104.16 196.773 103.67 196.972 103.306 197.371C102.942 197.761 102.76 198.329 102.76 199.074V203H101.577V195.876H102.76V196.903C102.994 196.53 103.306 196.244 103.696 196.045C104.095 195.846 104.533 195.746 105.009 195.746C105.607 195.746 106.136 195.88 106.595 196.149C107.055 196.418 107.397 196.812 107.622 197.332C107.822 196.829 108.151 196.439 108.61 196.162C109.07 195.885 109.581 195.746 110.144 195.746ZM121.471 199.165C121.471 199.39 121.458 199.629 121.432 199.88H115.738C115.781 200.582 116.019 201.132 116.453 201.531C116.895 201.921 117.428 202.116 118.052 202.116C118.563 202.116 118.988 201.999 119.326 201.765C119.672 201.522 119.915 201.202 120.054 200.803H121.328C121.137 201.488 120.756 202.047 120.184 202.48C119.612 202.905 118.901 203.117 118.052 203.117C117.376 203.117 116.769 202.965 116.232 202.662C115.703 202.359 115.287 201.93 114.984 201.375C114.68 200.812 114.529 200.162 114.529 199.425C114.529 198.688 114.676 198.043 114.971 197.488C115.265 196.933 115.677 196.509 116.206 196.214C116.743 195.911 117.358 195.759 118.052 195.759C118.728 195.759 119.326 195.906 119.846 196.201C120.366 196.496 120.764 196.903 121.042 197.423C121.328 197.934 121.471 198.515 121.471 199.165ZM120.249 198.918C120.249 198.467 120.149 198.082 119.95 197.761C119.75 197.432 119.477 197.185 119.131 197.02C118.793 196.847 118.416 196.76 118 196.76C117.402 196.76 116.89 196.951 116.466 197.332C116.05 197.713 115.811 198.242 115.751 198.918H120.249ZM126.503 195.746C127.37 195.746 128.072 196.01 128.609 196.539C129.147 197.059 129.415 197.813 129.415 198.801V203H128.245V198.97C128.245 198.259 128.068 197.718 127.712 197.345C127.357 196.964 126.872 196.773 126.256 196.773C125.632 196.773 125.134 196.968 124.761 197.358C124.397 197.748 124.215 198.316 124.215 199.061V203H123.032V195.876H124.215V196.89C124.449 196.526 124.766 196.244 125.164 196.045C125.572 195.846 126.018 195.746 126.503 195.746ZM130.906 199.412C130.906 198.684 131.053 198.047 131.348 197.501C131.642 196.946 132.045 196.517 132.557 196.214C133.077 195.911 133.657 195.759 134.299 195.759C134.853 195.759 135.369 195.889 135.846 196.149C136.322 196.4 136.686 196.734 136.938 197.15V193.38H138.134V203H136.938V201.661C136.704 202.086 136.357 202.437 135.898 202.714C135.438 202.983 134.901 203.117 134.286 203.117C133.653 203.117 133.077 202.961 132.557 202.649C132.045 202.337 131.642 201.899 131.348 201.336C131.053 200.773 130.906 200.131 130.906 199.412ZM136.938 199.425C136.938 198.888 136.829 198.42 136.613 198.021C136.396 197.622 136.101 197.319 135.729 197.111C135.365 196.894 134.962 196.786 134.52 196.786C134.078 196.786 133.675 196.89 133.311 197.098C132.947 197.306 132.656 197.609 132.44 198.008C132.223 198.407 132.115 198.875 132.115 199.412C132.115 199.958 132.223 200.435 132.44 200.842C132.656 201.241 132.947 201.548 133.311 201.765C133.675 201.973 134.078 202.077 134.52 202.077C134.962 202.077 135.365 201.973 135.729 201.765C136.101 201.548 136.396 201.241 136.613 200.842C136.829 200.435 136.938 199.962 136.938 199.425ZM146.633 199.165C146.633 199.39 146.62 199.629 146.594 199.88H140.9C140.943 200.582 141.182 201.132 141.615 201.531C142.057 201.921 142.59 202.116 143.214 202.116C143.725 202.116 144.15 201.999 144.488 201.765C144.835 201.522 145.077 201.202 145.216 200.803H146.49C146.299 201.488 145.918 202.047 145.346 202.48C144.774 202.905 144.063 203.117 143.214 203.117C142.538 203.117 141.931 202.965 141.394 202.662C140.865 202.359 140.449 201.93 140.146 201.375C139.843 200.812 139.691 200.162 139.691 199.425C139.691 198.688 139.838 198.043 140.133 197.488C140.428 196.933 140.839 196.509 141.368 196.214C141.905 195.911 142.521 195.759 143.214 195.759C143.89 195.759 144.488 195.906 145.008 196.201C145.528 196.496 145.927 196.903 146.204 197.423C146.49 197.934 146.633 198.515 146.633 199.165ZM145.411 198.918C145.411 198.467 145.311 198.082 145.112 197.761C144.913 197.432 144.64 197.185 144.293 197.02C143.955 196.847 143.578 196.76 143.162 196.76C142.564 196.76 142.053 196.951 141.628 197.332C141.212 197.713 140.974 198.242 140.913 198.918H145.411ZM147.752 199.412C147.752 198.684 147.9 198.047 148.194 197.501C148.489 196.946 148.892 196.517 149.403 196.214C149.923 195.911 150.504 195.759 151.145 195.759C151.7 195.759 152.216 195.889 152.692 196.149C153.169 196.4 153.533 196.734 153.784 197.15V193.38H154.98V203H153.784V201.661C153.55 202.086 153.204 202.437 152.744 202.714C152.285 202.983 151.748 203.117 151.132 203.117C150.5 203.117 149.923 202.961 149.403 202.649C148.892 202.337 148.489 201.899 148.194 201.336C147.9 200.773 147.752 200.131 147.752 199.412ZM153.784 199.425C153.784 198.888 153.676 198.42 153.459 198.021C153.243 197.622 152.948 197.319 152.575 197.111C152.211 196.894 151.808 196.786 151.366 196.786C150.924 196.786 150.521 196.89 150.157 197.098C149.793 197.306 149.503 197.609 149.286 198.008C149.07 198.407 148.961 198.875 148.961 199.412C148.961 199.958 149.07 200.435 149.286 200.842C149.503 201.241 149.793 201.548 150.157 201.765C150.521 201.973 150.924 202.077 151.366 202.077C151.808 202.077 152.211 201.973 152.575 201.765C152.948 201.548 153.243 201.241 153.459 200.842C153.676 200.435 153.784 199.962 153.784 199.425Z" fill="#394253" fill-opacity="0.8"/>
<path d="M181.874 203.091C181.276 203.091 180.739 202.987 180.262 202.779C179.794 202.562 179.426 202.268 179.157 201.895C178.888 201.514 178.75 201.076 178.741 200.582H180.002C180.045 201.007 180.219 201.366 180.522 201.661C180.834 201.947 181.285 202.09 181.874 202.09C182.437 202.09 182.879 201.951 183.2 201.674C183.529 201.388 183.694 201.024 183.694 200.582C183.694 200.235 183.599 199.954 183.408 199.737C183.217 199.52 182.979 199.356 182.693 199.243C182.407 199.13 182.021 199.009 181.536 198.879C180.938 198.723 180.457 198.567 180.093 198.411C179.738 198.255 179.43 198.012 179.17 197.683C178.919 197.345 178.793 196.894 178.793 196.331C178.793 195.837 178.919 195.399 179.17 195.018C179.421 194.637 179.772 194.342 180.223 194.134C180.682 193.926 181.207 193.822 181.796 193.822C182.645 193.822 183.339 194.034 183.876 194.459C184.422 194.884 184.73 195.447 184.799 196.149H183.499C183.456 195.802 183.274 195.499 182.953 195.239C182.632 194.97 182.208 194.836 181.679 194.836C181.185 194.836 180.782 194.966 180.47 195.226C180.158 195.477 180.002 195.833 180.002 196.292C180.002 196.621 180.093 196.89 180.275 197.098C180.466 197.306 180.695 197.466 180.964 197.579C181.241 197.683 181.627 197.804 182.121 197.943C182.719 198.108 183.2 198.272 183.564 198.437C183.928 198.593 184.24 198.84 184.5 199.178C184.76 199.507 184.89 199.958 184.89 200.53C184.89 200.972 184.773 201.388 184.539 201.778C184.305 202.168 183.958 202.484 183.499 202.727C183.04 202.97 182.498 203.091 181.874 203.091ZM192.949 195.876V203H191.766V201.947C191.541 202.311 191.224 202.597 190.817 202.805C190.418 203.004 189.976 203.104 189.491 203.104C188.936 203.104 188.438 202.991 187.996 202.766C187.554 202.532 187.203 202.185 186.943 201.726C186.692 201.267 186.566 200.708 186.566 200.049V195.876H187.736V199.893C187.736 200.595 187.914 201.137 188.269 201.518C188.624 201.891 189.11 202.077 189.725 202.077C190.358 202.077 190.856 201.882 191.22 201.492C191.584 201.102 191.766 200.534 191.766 199.789V195.876H192.949ZM196.129 197.189C196.363 196.782 196.71 196.444 197.169 196.175C197.637 195.898 198.179 195.759 198.794 195.759C199.427 195.759 199.999 195.911 200.51 196.214C201.03 196.517 201.438 196.946 201.732 197.501C202.027 198.047 202.174 198.684 202.174 199.412C202.174 200.131 202.027 200.773 201.732 201.336C201.438 201.899 201.03 202.337 200.51 202.649C199.999 202.961 199.427 203.117 198.794 203.117C198.188 203.117 197.65 202.983 197.182 202.714C196.723 202.437 196.372 202.094 196.129 201.687V206.38H194.946V195.876H196.129V197.189ZM200.965 199.412C200.965 198.875 200.857 198.407 200.64 198.008C200.424 197.609 200.129 197.306 199.756 197.098C199.392 196.89 198.989 196.786 198.547 196.786C198.114 196.786 197.711 196.894 197.338 197.111C196.974 197.319 196.68 197.627 196.454 198.034C196.238 198.433 196.129 198.896 196.129 199.425C196.129 199.962 196.238 200.435 196.454 200.842C196.68 201.241 196.974 201.548 197.338 201.765C197.711 201.973 198.114 202.077 198.547 202.077C198.989 202.077 199.392 201.973 199.756 201.765C200.129 201.548 200.424 201.241 200.64 200.842C200.857 200.435 200.965 199.958 200.965 199.412ZM210.231 199.165C210.231 199.39 210.218 199.629 210.192 199.88H204.498C204.542 200.582 204.78 201.132 205.213 201.531C205.655 201.921 206.188 202.116 206.812 202.116C207.324 202.116 207.748 201.999 208.086 201.765C208.433 201.522 208.676 201.202 208.814 200.803H210.088C209.898 201.488 209.516 202.047 208.944 202.48C208.372 202.905 207.662 203.117 206.812 203.117C206.136 203.117 205.53 202.965 204.992 202.662C204.464 202.359 204.048 201.93 203.744 201.375C203.441 200.812 203.289 200.162 203.289 199.425C203.289 198.688 203.437 198.043 203.731 197.488C204.026 196.933 204.438 196.509 204.966 196.214C205.504 195.911 206.119 195.759 206.812 195.759C207.488 195.759 208.086 195.906 208.606 196.201C209.126 196.496 209.525 196.903 209.802 197.423C210.088 197.934 210.231 198.515 210.231 199.165ZM209.009 198.918C209.009 198.467 208.91 198.082 208.71 197.761C208.511 197.432 208.238 197.185 207.891 197.02C207.553 196.847 207.176 196.76 206.76 196.76C206.162 196.76 205.651 196.951 205.226 197.332C204.81 197.713 204.572 198.242 204.511 198.918H209.009ZM212.976 197.033C213.184 196.626 213.479 196.309 213.86 196.084C214.25 195.859 214.722 195.746 215.277 195.746V196.968H214.965C213.639 196.968 212.976 197.687 212.976 199.126V203H211.793V195.876H212.976V197.033ZM219.295 201.908L221.505 195.876H222.766L219.971 203H218.593L215.798 195.876H217.072L219.295 201.908ZM224.541 194.719C224.315 194.719 224.125 194.641 223.969 194.485C223.813 194.329 223.735 194.138 223.735 193.913C223.735 193.688 223.813 193.497 223.969 193.341C224.125 193.185 224.315 193.107 224.541 193.107C224.757 193.107 224.939 193.185 225.087 193.341C225.243 193.497 225.321 193.688 225.321 193.913C225.321 194.138 225.243 194.329 225.087 194.485C224.939 194.641 224.757 194.719 224.541 194.719ZM225.113 195.876V203H223.93V195.876H225.113ZM229.651 203.117C229.105 203.117 228.615 203.026 228.182 202.844C227.749 202.653 227.406 202.393 227.155 202.064C226.904 201.726 226.765 201.34 226.739 200.907H227.961C227.996 201.262 228.16 201.553 228.455 201.778C228.758 202.003 229.153 202.116 229.638 202.116C230.089 202.116 230.444 202.016 230.704 201.817C230.964 201.618 231.094 201.366 231.094 201.063C231.094 200.751 230.955 200.521 230.678 200.374C230.401 200.218 229.972 200.066 229.391 199.919C228.862 199.78 228.429 199.642 228.091 199.503C227.762 199.356 227.476 199.143 227.233 198.866C226.999 198.58 226.882 198.207 226.882 197.748C226.882 197.384 226.99 197.05 227.207 196.747C227.424 196.444 227.731 196.205 228.13 196.032C228.529 195.85 228.984 195.759 229.495 195.759C230.284 195.759 230.921 195.958 231.406 196.357C231.891 196.756 232.151 197.302 232.186 197.995H231.003C230.977 197.622 230.825 197.323 230.548 197.098C230.279 196.873 229.915 196.76 229.456 196.76C229.031 196.76 228.693 196.851 228.442 197.033C228.191 197.215 228.065 197.453 228.065 197.748C228.065 197.982 228.139 198.177 228.286 198.333C228.442 198.48 228.633 198.602 228.858 198.697C229.092 198.784 229.413 198.883 229.82 198.996C230.331 199.135 230.747 199.273 231.068 199.412C231.389 199.542 231.662 199.741 231.887 200.01C232.121 200.279 232.242 200.63 232.251 201.063C232.251 201.453 232.143 201.804 231.926 202.116C231.709 202.428 231.402 202.675 231.003 202.857C230.613 203.03 230.162 203.117 229.651 203.117ZM240.421 199.165C240.421 199.39 240.408 199.629 240.382 199.88H234.688C234.731 200.582 234.97 201.132 235.403 201.531C235.845 201.921 236.378 202.116 237.002 202.116C237.513 202.116 237.938 201.999 238.276 201.765C238.623 201.522 238.865 201.202 239.004 200.803H240.278C240.087 201.488 239.706 202.047 239.134 202.48C238.562 202.905 237.851 203.117 237.002 203.117C236.326 203.117 235.719 202.965 235.182 202.662C234.653 202.359 234.237 201.93 233.934 201.375C233.631 200.812 233.479 200.162 233.479 199.425C233.479 198.688 233.626 198.043 233.921 197.488C234.216 196.933 234.627 196.509 235.156 196.214C235.693 195.911 236.309 195.759 237.002 195.759C237.678 195.759 238.276 195.906 238.796 196.201C239.316 196.496 239.715 196.903 239.992 197.423C240.278 197.934 240.421 198.515 240.421 199.165ZM239.199 198.918C239.199 198.467 239.099 198.082 238.9 197.761C238.701 197.432 238.428 197.185 238.081 197.02C237.743 196.847 237.366 196.76 236.95 196.76C236.352 196.76 235.841 196.951 235.416 197.332C235 197.713 234.762 198.242 234.701 198.918H239.199ZM241.54 199.412C241.54 198.684 241.688 198.047 241.982 197.501C242.277 196.946 242.68 196.517 243.191 196.214C243.711 195.911 244.292 195.759 244.933 195.759C245.488 195.759 246.004 195.889 246.48 196.149C246.957 196.4 247.321 196.734 247.572 197.15V193.38H248.768V203H247.572V201.661C247.338 202.086 246.992 202.437 246.532 202.714C246.073 202.983 245.536 203.117 244.92 203.117C244.288 203.117 243.711 202.961 243.191 202.649C242.68 202.337 242.277 201.899 241.982 201.336C241.688 200.773 241.54 200.131 241.54 199.412ZM247.572 199.425C247.572 198.888 247.464 198.42 247.247 198.021C247.031 197.622 246.736 197.319 246.363 197.111C245.999 196.894 245.596 196.786 245.154 196.786C244.712 196.786 244.309 196.89 243.945 197.098C243.581 197.306 243.291 197.609 243.074 198.008C242.858 198.407 242.749 198.875 242.749 199.412C242.749 199.958 242.858 200.435 243.074 200.842C243.291 201.241 243.581 201.548 243.945 201.765C244.309 201.973 244.712 202.077 245.154 202.077C245.596 202.077 245.999 201.973 246.363 201.765C246.736 201.548 247.031 201.241 247.247 200.842C247.464 200.435 247.572 199.962 247.572 199.425ZM255.708 197.735V198.736H250.521V197.735H255.708ZM259.111 194.901V197.93H262.413V198.905H259.111V202.025H262.803V203H257.928V193.926H262.803V194.901H259.111ZM269.715 193.939V194.901H265.776V197.956H268.974V198.918H265.776V203H264.593V193.939H269.715ZM273.965 193.939C274.953 193.939 275.806 194.125 276.526 194.498C277.254 194.862 277.808 195.386 278.19 196.071C278.58 196.756 278.775 197.562 278.775 198.489C278.775 199.416 278.58 200.222 278.19 200.907C277.808 201.583 277.254 202.103 276.526 202.467C275.806 202.822 274.953 203 273.965 203H271.144V193.939H273.965ZM273.965 202.025C275.135 202.025 276.027 201.717 276.643 201.102C277.258 200.478 277.566 199.607 277.566 198.489C277.566 197.362 277.254 196.483 276.63 195.85C276.014 195.217 275.126 194.901 273.965 194.901H272.327V202.025H273.965ZM285.275 197.735V198.736H280.088V197.735H285.275ZM290.316 193.939C291.304 193.939 292.158 194.125 292.877 194.498C293.605 194.862 294.16 195.386 294.541 196.071C294.931 196.756 295.126 197.562 295.126 198.489C295.126 199.416 294.931 200.222 294.541 200.907C294.16 201.583 293.605 202.103 292.877 202.467C292.158 202.822 291.304 203 290.316 203H287.495V193.939H290.316ZM290.316 202.025C291.486 202.025 292.379 201.717 292.994 201.102C293.609 200.478 293.917 199.607 293.917 198.489C293.917 197.362 293.605 196.483 292.981 195.85C292.366 195.217 291.477 194.901 290.316 194.901H288.678V202.025H290.316ZM296.245 199.412C296.245 198.684 296.392 198.047 296.687 197.501C296.981 196.946 297.384 196.517 297.896 196.214C298.416 195.911 298.992 195.759 299.625 195.759C300.249 195.759 300.79 195.893 301.25 196.162C301.709 196.431 302.051 196.769 302.277 197.176V195.876H303.473V203H302.277V201.674C302.043 202.09 301.692 202.437 301.224 202.714C300.764 202.983 300.227 203.117 299.612 203.117C298.979 203.117 298.407 202.961 297.896 202.649C297.384 202.337 296.981 201.899 296.687 201.336C296.392 200.773 296.245 200.131 296.245 199.412ZM302.277 199.425C302.277 198.888 302.168 198.42 301.952 198.021C301.735 197.622 301.44 197.319 301.068 197.111C300.704 196.894 300.301 196.786 299.859 196.786C299.417 196.786 299.014 196.89 298.65 197.098C298.286 197.306 297.995 197.609 297.779 198.008C297.562 198.407 297.454 198.875 297.454 199.412C297.454 199.958 297.562 200.435 297.779 200.842C297.995 201.241 298.286 201.548 298.65 201.765C299.014 201.973 299.417 202.077 299.859 202.077C300.301 202.077 300.704 201.973 301.068 201.765C301.44 201.548 301.735 201.241 301.952 200.842C302.168 200.435 302.277 199.962 302.277 199.425ZM306.915 196.851V201.05C306.915 201.397 306.988 201.644 307.136 201.791C307.283 201.93 307.539 201.999 307.903 201.999H308.774V203H307.708C307.049 203 306.555 202.848 306.226 202.545C305.896 202.242 305.732 201.743 305.732 201.05V196.851H304.809V195.876H305.732V194.082H306.915V195.876H308.774V196.851H306.915ZM309.765 199.412C309.765 198.684 309.912 198.047 310.207 197.501C310.502 196.946 310.905 196.517 311.416 196.214C311.936 195.911 312.512 195.759 313.145 195.759C313.769 195.759 314.311 195.893 314.77 196.162C315.229 196.431 315.572 196.769 315.797 197.176V195.876H316.993V203H315.797V201.674C315.563 202.09 315.212 202.437 314.744 202.714C314.285 202.983 313.747 203.117 313.132 203.117C312.499 203.117 311.927 202.961 311.416 202.649C310.905 202.337 310.502 201.899 310.207 201.336C309.912 200.773 309.765 200.131 309.765 199.412ZM315.797 199.425C315.797 198.888 315.689 198.42 315.472 198.021C315.255 197.622 314.961 197.319 314.588 197.111C314.224 196.894 313.821 196.786 313.379 196.786C312.937 196.786 312.534 196.89 312.17 197.098C311.806 197.306 311.516 197.609 311.299 198.008C311.082 198.407 310.974 198.875 310.974 199.412C310.974 199.958 311.082 200.435 311.299 200.842C311.516 201.241 311.806 201.548 312.17 201.765C312.534 201.973 312.937 202.077 313.379 202.077C313.821 202.077 314.224 201.973 314.588 201.765C314.961 201.548 315.255 201.241 315.472 200.842C315.689 200.435 315.797 199.962 315.797 199.425ZM323.932 197.735V198.736H318.745V197.735H323.932ZM331.066 203L327.335 198.866V203H326.152V193.939H327.335V198.138L331.079 193.939H332.574L328.466 198.476L332.613 203H331.066ZM335.118 197.189C335.352 196.782 335.698 196.444 336.158 196.175C336.626 195.898 337.167 195.759 337.783 195.759C338.415 195.759 338.987 195.911 339.499 196.214C340.019 196.517 340.426 196.946 340.721 197.501C341.015 198.047 341.163 198.684 341.163 199.412C341.163 200.131 341.015 200.773 340.721 201.336C340.426 201.899 340.019 202.337 339.499 202.649C338.987 202.961 338.415 203.117 337.783 203.117C337.176 203.117 336.639 202.983 336.171 202.714C335.711 202.437 335.36 202.094 335.118 201.687V206.38H333.935V195.876H335.118V197.189ZM339.954 199.412C339.954 198.875 339.845 198.407 339.629 198.008C339.412 197.609 339.117 197.306 338.745 197.098C338.381 196.89 337.978 196.786 337.536 196.786C337.102 196.786 336.699 196.894 336.327 197.111C335.963 197.319 335.668 197.627 335.443 198.034C335.226 198.433 335.118 198.896 335.118 199.425C335.118 199.962 335.226 200.435 335.443 200.842C335.668 201.241 335.963 201.548 336.327 201.765C336.699 201.973 337.102 202.077 337.536 202.077C337.978 202.077 338.381 201.973 338.745 201.765C339.117 201.548 339.412 201.241 339.629 200.842C339.845 200.435 339.954 199.958 339.954 199.412ZM343.331 194.719C343.105 194.719 342.915 194.641 342.759 194.485C342.603 194.329 342.525 194.138 342.525 193.913C342.525 193.688 342.603 193.497 342.759 193.341C342.915 193.185 343.105 193.107 343.331 193.107C343.547 193.107 343.729 193.185 343.877 193.341C344.033 193.497 344.111 193.688 344.111 193.913C344.111 194.138 344.033 194.329 343.877 194.485C343.729 194.641 343.547 194.719 343.331 194.719ZM343.903 195.876V203H342.72V195.876H343.903ZM350.859 197.735V198.736H345.672V197.735H350.859ZM352.741 202.051C353.842 201.167 354.704 200.443 355.328 199.88C355.952 199.308 356.476 198.714 356.901 198.099C357.334 197.475 357.551 196.864 357.551 196.266C357.551 195.703 357.412 195.261 357.135 194.94C356.866 194.611 356.429 194.446 355.822 194.446C355.233 194.446 354.773 194.632 354.444 195.005C354.123 195.369 353.95 195.859 353.924 196.474H352.78C352.815 195.503 353.109 194.754 353.664 194.225C354.219 193.696 354.934 193.432 355.809 193.432C356.702 193.432 357.408 193.679 357.928 194.173C358.457 194.667 358.721 195.347 358.721 196.214C358.721 196.933 358.504 197.635 358.071 198.32C357.646 198.996 357.161 199.594 356.615 200.114C356.069 200.625 355.371 201.223 354.522 201.908H358.994V202.896H352.741V202.051ZM360.076 200.907V200.01L364.639 193.692H366.056V199.88H367.356V200.907H366.056V203H364.886V200.907H360.076ZM364.938 194.927L361.441 199.88H364.938V194.927ZM368.537 198.203C368.537 196.712 368.78 195.551 369.265 194.719C369.751 193.878 370.6 193.458 371.813 193.458C373.018 193.458 373.863 193.878 374.348 194.719C374.834 195.551 375.076 196.712 375.076 198.203C375.076 199.72 374.834 200.898 374.348 201.739C373.863 202.58 373.018 203 371.813 203C370.6 203 369.751 202.58 369.265 201.739C368.78 200.898 368.537 199.72 368.537 198.203ZM373.906 198.203C373.906 197.449 373.854 196.812 373.75 196.292C373.655 195.763 373.451 195.339 373.139 195.018C372.836 194.697 372.394 194.537 371.813 194.537C371.224 194.537 370.773 194.697 370.461 195.018C370.158 195.339 369.954 195.763 369.85 196.292C369.755 196.812 369.707 197.449 369.707 198.203C369.707 198.983 369.755 199.637 369.85 200.166C369.954 200.695 370.158 201.119 370.461 201.44C370.773 201.761 371.224 201.921 371.813 201.921C372.394 201.921 372.836 201.761 373.139 201.44C373.451 201.119 373.655 200.695 373.75 200.166C373.854 199.637 373.906 198.983 373.906 198.203ZM381.836 197.735V198.736H376.649V197.735H381.836ZM383.549 194.68V193.601H385.993V203H384.797V194.68H383.549ZM387.882 202.051C388.982 201.167 389.845 200.443 390.469 199.88C391.093 199.308 391.617 198.714 392.042 198.099C392.475 197.475 392.692 196.864 392.692 196.266C392.692 195.703 392.553 195.261 392.276 194.94C392.007 194.611 391.569 194.446 390.963 194.446C390.373 194.446 389.914 194.632 389.585 195.005C389.264 195.369 389.091 195.859 389.065 196.474H387.921C387.955 195.503 388.25 194.754 388.805 194.225C389.359 193.696 390.074 193.432 390.95 193.432C391.842 193.432 392.549 193.679 393.069 194.173C393.597 194.667 393.862 195.347 393.862 196.214C393.862 196.933 393.645 197.635 393.212 198.32C392.787 198.996 392.302 199.594 391.756 200.114C391.21 200.625 390.512 201.223 389.663 201.908H394.135V202.896H387.882V202.051ZM395.476 195.967C395.537 195.17 395.845 194.546 396.399 194.095C396.954 193.644 397.673 193.419 398.557 193.419C399.147 193.419 399.654 193.527 400.078 193.744C400.512 193.952 400.837 194.238 401.053 194.602C401.279 194.966 401.391 195.378 401.391 195.837C401.391 196.374 401.235 196.838 400.923 197.228C400.62 197.618 400.221 197.869 399.727 197.982V198.047C400.291 198.186 400.737 198.459 401.066 198.866C401.396 199.273 401.56 199.806 401.56 200.465C401.56 200.959 401.448 201.405 401.222 201.804C400.997 202.194 400.659 202.502 400.208 202.727C399.758 202.952 399.216 203.065 398.583 203.065C397.665 203.065 396.911 202.827 396.321 202.35C395.732 201.865 395.403 201.18 395.333 200.296H396.477C396.538 200.816 396.75 201.241 397.114 201.57C397.478 201.899 397.964 202.064 398.57 202.064C399.177 202.064 399.636 201.908 399.948 201.596C400.269 201.275 400.429 200.864 400.429 200.361C400.429 199.711 400.213 199.243 399.779 198.957C399.346 198.671 398.692 198.528 397.816 198.528H397.517V197.54H397.829C398.627 197.531 399.229 197.401 399.636 197.15C400.044 196.89 400.247 196.491 400.247 195.954C400.247 195.495 400.096 195.126 399.792 194.849C399.498 194.572 399.073 194.433 398.518 194.433C397.981 194.433 397.548 194.572 397.218 194.849C396.889 195.126 396.694 195.499 396.633 195.967H395.476ZM402.846 194.68V193.601H405.29V203H404.094V194.68H402.846ZM407.179 202.051C408.279 201.167 409.142 200.443 409.766 199.88C410.39 199.308 410.914 198.714 411.339 198.099C411.772 197.475 411.989 196.864 411.989 196.266C411.989 195.703 411.85 195.261 411.573 194.94C411.304 194.611 410.866 194.446 410.26 194.446C409.67 194.446 409.211 194.632 408.882 195.005C408.561 195.369 408.388 195.859 408.362 196.474H407.218C407.252 195.503 407.547 194.754 408.102 194.225C408.656 193.696 409.371 193.432 410.247 193.432C411.139 193.432 411.846 193.679 412.366 194.173C412.894 194.667 413.159 195.347 413.159 196.214C413.159 196.933 412.942 197.635 412.509 198.32C412.084 198.996 411.599 199.594 411.053 200.114C410.507 200.625 409.809 201.223 408.96 201.908H413.432V202.896H407.179V202.051ZM414.773 195.967C414.834 195.17 415.141 194.546 415.696 194.095C416.251 193.644 416.97 193.419 417.854 193.419C418.443 193.419 418.95 193.527 419.375 193.744C419.808 193.952 420.133 194.238 420.35 194.602C420.575 194.966 420.688 195.378 420.688 195.837C420.688 196.374 420.532 196.838 420.22 197.228C419.917 197.618 419.518 197.869 419.024 197.982V198.047C419.587 198.186 420.034 198.459 420.363 198.866C420.692 199.273 420.857 199.806 420.857 200.465C420.857 200.959 420.744 201.405 420.519 201.804C420.294 202.194 419.956 202.502 419.505 202.727C419.054 202.952 418.513 203.065 417.88 203.065C416.961 203.065 416.207 202.827 415.618 202.35C415.029 201.865 414.699 201.18 414.63 200.296H415.774C415.835 200.816 416.047 201.241 416.411 201.57C416.775 201.899 417.26 202.064 417.867 202.064C418.474 202.064 418.933 201.908 419.245 201.596C419.566 201.275 419.726 200.864 419.726 200.361C419.726 199.711 419.509 199.243 419.076 198.957C418.643 198.671 417.988 198.528 417.113 198.528H416.814V197.54H417.126C417.923 197.531 418.526 197.401 418.933 197.15C419.34 196.89 419.544 196.491 419.544 195.954C419.544 195.495 419.392 195.126 419.089 194.849C418.794 194.572 418.37 194.433 417.815 194.433C417.278 194.433 416.844 194.572 416.515 194.849C416.186 195.126 415.991 195.499 415.93 195.967H414.773ZM427.693 195.837C427.503 194.875 426.909 194.394 425.912 194.394C425.141 194.394 424.565 194.693 424.183 195.291C423.802 195.88 423.616 196.855 423.624 198.216C423.824 197.765 424.153 197.414 424.612 197.163C425.08 196.903 425.6 196.773 426.172 196.773C427.065 196.773 427.776 197.05 428.304 197.605C428.842 198.16 429.11 198.927 429.11 199.906C429.11 200.495 428.993 201.024 428.759 201.492C428.534 201.96 428.187 202.333 427.719 202.61C427.26 202.887 426.701 203.026 426.042 203.026C425.15 203.026 424.452 202.827 423.949 202.428C423.447 202.029 423.096 201.479 422.896 200.777C422.697 200.075 422.597 199.208 422.597 198.177C422.597 194.996 423.707 193.406 425.925 193.406C426.775 193.406 427.442 193.636 427.927 194.095C428.413 194.554 428.699 195.135 428.785 195.837H427.693ZM425.925 197.774C425.553 197.774 425.202 197.852 424.872 198.008C424.543 198.155 424.274 198.385 424.066 198.697C423.867 199 423.767 199.373 423.767 199.815C423.767 200.474 423.958 201.011 424.339 201.427C424.721 201.834 425.267 202.038 425.977 202.038C426.584 202.038 427.065 201.852 427.42 201.479C427.784 201.098 427.966 200.586 427.966 199.945C427.966 199.269 427.793 198.74 427.446 198.359C427.1 197.969 426.593 197.774 425.925 197.774ZM430.68 195.967C430.741 195.17 431.049 194.546 431.603 194.095C432.158 193.644 432.877 193.419 433.761 193.419C434.351 193.419 434.858 193.527 435.282 193.744C435.716 193.952 436.041 194.238 436.257 194.602C436.483 194.966 436.595 195.378 436.595 195.837C436.595 196.374 436.439 196.838 436.127 197.228C435.824 197.618 435.425 197.869 434.931 197.982V198.047C435.495 198.186 435.941 198.459 436.27 198.866C436.6 199.273 436.764 199.806 436.764 200.465C436.764 200.959 436.652 201.405 436.426 201.804C436.201 202.194 435.863 202.502 435.412 202.727C434.962 202.952 434.42 203.065 433.787 203.065C432.869 203.065 432.115 202.827 431.525 202.35C430.936 201.865 430.607 201.18 430.537 200.296H431.681C431.742 200.816 431.954 201.241 432.318 201.57C432.682 201.899 433.168 202.064 433.774 202.064C434.381 202.064 434.84 201.908 435.152 201.596C435.473 201.275 435.633 200.864 435.633 200.361C435.633 199.711 435.417 199.243 434.983 198.957C434.55 198.671 433.896 198.528 433.02 198.528H432.721V197.54H433.033C433.831 197.531 434.433 197.401 434.84 197.15C435.248 196.89 435.451 196.491 435.451 195.954C435.451 195.495 435.3 195.126 434.996 194.849C434.702 194.572 434.277 194.433 433.722 194.433C433.185 194.433 432.752 194.572 432.422 194.849C432.093 195.126 431.898 195.499 431.837 195.967H430.68ZM444.355 194.628H439.792V197.592C439.991 197.315 440.286 197.089 440.676 196.916C441.066 196.734 441.486 196.643 441.937 196.643C442.656 196.643 443.241 196.795 443.692 197.098C444.142 197.393 444.463 197.778 444.654 198.255C444.853 198.723 444.953 199.221 444.953 199.75C444.953 200.374 444.836 200.933 444.602 201.427C444.368 201.921 444.008 202.311 443.523 202.597C443.046 202.883 442.452 203.026 441.742 203.026C440.832 203.026 440.095 202.792 439.532 202.324C438.968 201.856 438.626 201.232 438.505 200.452H439.662C439.774 200.946 440.013 201.332 440.377 201.609C440.741 201.886 441.2 202.025 441.755 202.025C442.439 202.025 442.955 201.821 443.302 201.414C443.648 200.998 443.822 200.452 443.822 199.776C443.822 199.1 443.648 198.58 443.302 198.216C442.955 197.843 442.444 197.657 441.768 197.657C441.308 197.657 440.905 197.77 440.559 197.995C440.221 198.212 439.974 198.511 439.818 198.892H438.7V193.588H444.355V194.628ZM451.764 195.837C451.573 194.875 450.979 194.394 449.983 194.394C449.211 194.394 448.635 194.693 448.254 195.291C447.872 195.88 447.686 196.855 447.695 198.216C447.894 197.765 448.223 197.414 448.683 197.163C449.151 196.903 449.671 196.773 450.243 196.773C451.135 196.773 451.846 197.05 452.375 197.605C452.912 198.16 453.181 198.927 453.181 199.906C453.181 200.495 453.064 201.024 452.83 201.492C452.604 201.96 452.258 202.333 451.79 202.61C451.33 202.887 450.771 203.026 450.113 203.026C449.22 203.026 448.522 202.827 448.02 202.428C447.517 202.029 447.166 201.479 446.967 200.777C446.767 200.075 446.668 199.208 446.668 198.177C446.668 194.996 447.777 193.406 449.996 193.406C450.845 193.406 451.512 193.636 451.998 194.095C452.483 194.554 452.769 195.135 452.856 195.837H451.764ZM449.996 197.774C449.623 197.774 449.272 197.852 448.943 198.008C448.613 198.155 448.345 198.385 448.137 198.697C447.937 199 447.838 199.373 447.838 199.815C447.838 200.474 448.028 201.011 448.41 201.427C448.791 201.834 449.337 202.038 450.048 202.038C450.654 202.038 451.135 201.852 451.491 201.479C451.855 201.098 452.037 200.586 452.037 199.945C452.037 199.269 451.863 198.74 451.517 198.359C451.17 197.969 450.663 197.774 449.996 197.774ZM454.751 195.967C454.811 195.17 455.119 194.546 455.674 194.095C456.228 193.644 456.948 193.419 457.832 193.419C458.421 193.419 458.928 193.527 459.353 193.744C459.786 193.952 460.111 194.238 460.328 194.602C460.553 194.966 460.666 195.378 460.666 195.837C460.666 196.374 460.51 196.838 460.198 197.228C459.894 197.618 459.496 197.869 459.002 197.982V198.047C459.565 198.186 460.011 198.459 460.341 198.866C460.67 199.273 460.835 199.806 460.835 200.465C460.835 200.959 460.722 201.405 460.497 201.804C460.271 202.194 459.933 202.502 459.483 202.727C459.032 202.952 458.49 203.065 457.858 203.065C456.939 203.065 456.185 202.827 455.596 202.35C455.006 201.865 454.677 201.18 454.608 200.296H455.752C455.812 200.816 456.025 201.241 456.389 201.57C456.753 201.899 457.238 202.064 457.845 202.064C458.451 202.064 458.911 201.908 459.223 201.596C459.543 201.275 459.704 200.864 459.704 200.361C459.704 199.711 459.487 199.243 459.054 198.957C458.62 198.671 457.966 198.528 457.091 198.528H456.792V197.54H457.104C457.901 197.531 458.503 197.401 458.911 197.15C459.318 196.89 459.522 196.491 459.522 195.954C459.522 195.495 459.37 195.126 459.067 194.849C458.772 194.572 458.347 194.433 457.793 194.433C457.255 194.433 456.822 194.572 456.493 194.849C456.163 195.126 455.968 195.499 455.908 195.967H454.751ZM467.671 195.837C467.48 194.875 466.887 194.394 465.89 194.394C465.119 194.394 464.542 194.693 464.161 195.291C463.78 195.88 463.593 196.855 463.602 198.216C463.801 197.765 464.131 197.414 464.59 197.163C465.058 196.903 465.578 196.773 466.15 196.773C467.043 196.773 467.753 197.05 468.282 197.605C468.819 198.16 469.088 198.927 469.088 199.906C469.088 200.495 468.971 201.024 468.737 201.492C468.512 201.96 468.165 202.333 467.697 202.61C467.238 202.887 466.679 203.026 466.02 203.026C465.127 203.026 464.43 202.827 463.927 202.428C463.424 202.029 463.073 201.479 462.874 200.777C462.675 200.075 462.575 199.208 462.575 198.177C462.575 194.996 463.684 193.406 465.903 193.406C466.752 193.406 467.42 193.636 467.905 194.095C468.39 194.554 468.676 195.135 468.763 195.837H467.671ZM465.903 197.774C465.53 197.774 465.179 197.852 464.85 198.008C464.521 198.155 464.252 198.385 464.044 198.697C463.845 199 463.745 199.373 463.745 199.815C463.745 200.474 463.936 201.011 464.317 201.427C464.698 201.834 465.244 202.038 465.955 202.038C466.562 202.038 467.043 201.852 467.398 201.479C467.762 201.098 467.944 200.586 467.944 199.945C467.944 199.269 467.771 198.74 467.424 198.359C467.077 197.969 466.57 197.774 465.903 197.774ZM476.677 194.628H472.114V197.592C472.313 197.315 472.608 197.089 472.998 196.916C473.388 196.734 473.808 196.643 474.259 196.643C474.978 196.643 475.563 196.795 476.014 197.098C476.465 197.393 476.785 197.778 476.976 198.255C477.175 198.723 477.275 199.221 477.275 199.75C477.275 200.374 477.158 200.933 476.924 201.427C476.69 201.921 476.33 202.311 475.845 202.597C475.368 202.883 474.775 203.026 474.064 203.026C473.154 203.026 472.417 202.792 471.854 202.324C471.291 201.856 470.948 201.232 470.827 200.452H471.984C472.097 200.946 472.335 201.332 472.699 201.609C473.063 201.886 473.522 202.025 474.077 202.025C474.762 202.025 475.277 201.821 475.624 201.414C475.971 200.998 476.144 200.452 476.144 199.776C476.144 199.1 475.971 198.58 475.624 198.216C475.277 197.843 474.766 197.657 474.09 197.657C473.631 197.657 473.228 197.77 472.881 197.995C472.543 198.212 472.296 198.511 472.14 198.892H471.022V193.588H476.677V194.628ZM478.821 195.967C478.882 195.17 479.189 194.546 479.744 194.095C480.299 193.644 481.018 193.419 481.902 193.419C482.491 193.419 482.998 193.527 483.423 193.744C483.856 193.952 484.181 194.238 484.398 194.602C484.623 194.966 484.736 195.378 484.736 195.837C484.736 196.374 484.58 196.838 484.268 197.228C483.965 197.618 483.566 197.869 483.072 197.982V198.047C483.635 198.186 484.082 198.459 484.411 198.866C484.74 199.273 484.905 199.806 484.905 200.465C484.905 200.959 484.792 201.405 484.567 201.804C484.342 202.194 484.004 202.502 483.553 202.727C483.102 202.952 482.561 203.065 481.928 203.065C481.009 203.065 480.255 202.827 479.666 202.35C479.077 201.865 478.747 201.18 478.678 200.296H479.822C479.883 200.816 480.095 201.241 480.459 201.57C480.823 201.899 481.308 202.064 481.915 202.064C482.522 202.064 482.981 201.908 483.293 201.596C483.614 201.275 483.774 200.864 483.774 200.361C483.774 199.711 483.557 199.243 483.124 198.957C482.691 198.671 482.036 198.528 481.161 198.528H480.862V197.54H481.174C481.971 197.531 482.574 197.401 482.981 197.15C483.388 196.89 483.592 196.491 483.592 195.954C483.592 195.495 483.44 195.126 483.137 194.849C482.842 194.572 482.418 194.433 481.863 194.433C481.326 194.433 480.892 194.572 480.563 194.849C480.234 195.126 480.039 195.499 479.978 195.967H478.821ZM491.741 195.837C491.551 194.875 490.957 194.394 489.96 194.394C489.189 194.394 488.613 194.693 488.231 195.291C487.85 195.88 487.664 196.855 487.672 198.216C487.872 197.765 488.201 197.414 488.66 197.163C489.128 196.903 489.648 196.773 490.22 196.773C491.113 196.773 491.824 197.05 492.352 197.605C492.89 198.16 493.158 198.927 493.158 199.906C493.158 200.495 493.041 201.024 492.807 201.492C492.582 201.96 492.235 202.333 491.767 202.61C491.308 202.887 490.749 203.026 490.09 203.026C489.198 203.026 488.5 202.827 487.997 202.428C487.495 202.029 487.144 201.479 486.944 200.777C486.745 200.075 486.645 199.208 486.645 198.177C486.645 194.996 487.755 193.406 489.973 193.406C490.823 193.406 491.49 193.636 491.975 194.095C492.461 194.554 492.747 195.135 492.833 195.837H491.741ZM489.973 197.774C489.601 197.774 489.25 197.852 488.92 198.008C488.591 198.155 488.322 198.385 488.114 198.697C487.915 199 487.815 199.373 487.815 199.815C487.815 200.474 488.006 201.011 488.387 201.427C488.769 201.834 489.315 202.038 490.025 202.038C490.632 202.038 491.113 201.852 491.468 201.479C491.832 201.098 492.014 200.586 492.014 199.945C492.014 199.269 491.841 198.74 491.494 198.359C491.148 197.969 490.641 197.774 489.973 197.774ZM494.442 194.68V193.601H496.886V203H495.69V194.68H494.442ZM500.634 198.112C500.149 197.921 499.776 197.644 499.516 197.28C499.256 196.916 499.126 196.474 499.126 195.954C499.126 195.486 499.243 195.066 499.477 194.693C499.711 194.312 500.058 194.013 500.517 193.796C500.985 193.571 501.549 193.458 502.207 193.458C502.866 193.458 503.425 193.571 503.884 193.796C504.352 194.013 504.703 194.312 504.937 194.693C505.18 195.066 505.301 195.486 505.301 195.954C505.301 196.457 505.167 196.899 504.898 197.28C504.63 197.653 504.261 197.93 503.793 198.112C504.331 198.277 504.755 198.567 505.067 198.983C505.388 199.39 505.548 199.884 505.548 200.465C505.548 201.028 505.41 201.522 505.132 201.947C504.855 202.363 504.461 202.688 503.949 202.922C503.447 203.147 502.866 203.26 502.207 203.26C501.549 203.26 500.968 203.147 500.465 202.922C499.971 202.688 499.586 202.363 499.308 201.947C499.031 201.522 498.892 201.028 498.892 200.465C498.892 199.884 499.048 199.386 499.36 198.97C499.672 198.554 500.097 198.268 500.634 198.112ZM504.157 196.097C504.157 195.568 503.984 195.161 503.637 194.875C503.291 194.589 502.814 194.446 502.207 194.446C501.609 194.446 501.137 194.589 500.79 194.875C500.444 195.161 500.27 195.573 500.27 196.11C500.27 196.595 500.448 196.985 500.803 197.28C501.167 197.575 501.635 197.722 502.207 197.722C502.788 197.722 503.256 197.575 503.611 197.28C503.975 196.977 504.157 196.582 504.157 196.097ZM502.207 198.632C501.566 198.632 501.042 198.784 500.634 199.087C500.227 199.382 500.023 199.828 500.023 200.426C500.023 200.981 500.218 201.427 500.608 201.765C501.007 202.103 501.54 202.272 502.207 202.272C502.875 202.272 503.403 202.103 503.793 201.765C504.183 201.427 504.378 200.981 504.378 200.426C504.378 199.845 504.179 199.403 503.78 199.1C503.382 198.788 502.857 198.632 502.207 198.632ZM506.976 202.051C508.077 201.167 508.939 200.443 509.563 199.88C510.187 199.308 510.712 198.714 511.136 198.099C511.57 197.475 511.786 196.864 511.786 196.266C511.786 195.703 511.648 195.261 511.37 194.94C511.102 194.611 510.664 194.446 510.057 194.446C509.468 194.446 509.009 194.632 508.679 195.005C508.359 195.369 508.185 195.859 508.159 196.474H507.015C507.05 195.503 507.345 194.754 507.899 194.225C508.454 193.696 509.169 193.432 510.044 193.432C510.937 193.432 511.643 193.679 512.163 194.173C512.692 194.667 512.956 195.347 512.956 196.214C512.956 196.933 512.74 197.635 512.306 198.32C511.882 198.996 511.396 199.594 510.85 200.114C510.304 200.625 509.607 201.223 508.757 201.908H513.229V202.896H506.976V202.051ZM514.571 195.967C514.632 195.17 514.939 194.546 515.494 194.095C516.049 193.644 516.768 193.419 517.652 193.419C518.241 193.419 518.748 193.527 519.173 193.744C519.606 193.952 519.931 194.238 520.148 194.602C520.373 194.966 520.486 195.378 520.486 195.837C520.486 196.374 520.33 196.838 520.018 197.228C519.715 197.618 519.316 197.869 518.822 197.982V198.047C519.385 198.186 519.832 198.459 520.161 198.866C520.49 199.273 520.655 199.806 520.655 200.465C520.655 200.959 520.542 201.405 520.317 201.804C520.092 202.194 519.754 202.502 519.303 202.727C518.852 202.952 518.311 203.065 517.678 203.065C516.759 203.065 516.005 202.827 515.416 202.35C514.827 201.865 514.497 201.18 514.428 200.296H515.572C515.633 200.816 515.845 201.241 516.209 201.57C516.573 201.899 517.058 202.064 517.665 202.064C518.272 202.064 518.731 201.908 519.043 201.596C519.364 201.275 519.524 200.864 519.524 200.361C519.524 199.711 519.307 199.243 518.874 198.957C518.441 198.671 517.786 198.528 516.911 198.528H516.612V197.54H516.924C517.721 197.531 518.324 197.401 518.731 197.15C519.138 196.89 519.342 196.491 519.342 195.954C519.342 195.495 519.19 195.126 518.887 194.849C518.592 194.572 518.168 194.433 517.613 194.433C517.076 194.433 516.642 194.572 516.313 194.849C515.984 195.126 515.789 195.499 515.728 195.967H514.571ZM521.94 194.68V193.601H524.384V203H523.188V194.68H521.94ZM526.273 202.051C527.374 201.167 528.236 200.443 528.86 199.88C529.484 199.308 530.009 198.714 530.433 198.099C530.867 197.475 531.083 196.864 531.083 196.266C531.083 195.703 530.945 195.261 530.667 194.94C530.399 194.611 529.961 194.446 529.354 194.446C528.765 194.446 528.306 194.632 527.976 195.005C527.656 195.369 527.482 195.859 527.456 196.474H526.312C526.347 195.503 526.642 194.754 527.196 194.225C527.751 193.696 528.466 193.432 529.341 193.432C530.234 193.432 530.94 193.679 531.46 194.173C531.989 194.667 532.253 195.347 532.253 196.214C532.253 196.933 532.037 197.635 531.603 198.32C531.179 198.996 530.693 199.594 530.147 200.114C529.601 200.625 528.904 201.223 528.054 201.908H532.526V202.896H526.273V202.051ZM533.868 195.967C533.929 195.17 534.236 194.546 534.791 194.095C535.346 193.644 536.065 193.419 536.949 193.419C537.538 193.419 538.045 193.527 538.47 193.744C538.903 193.952 539.228 194.238 539.445 194.602C539.67 194.966 539.783 195.378 539.783 195.837C539.783 196.374 539.627 196.838 539.315 197.228C539.012 197.618 538.613 197.869 538.119 197.982V198.047C538.682 198.186 539.129 198.459 539.458 198.866C539.787 199.273 539.952 199.806 539.952 200.465C539.952 200.959 539.839 201.405 539.614 201.804C539.389 202.194 539.051 202.502 538.6 202.727C538.149 202.952 537.608 203.065 536.975 203.065C536.056 203.065 535.302 202.827 534.713 202.35C534.124 201.865 533.794 201.18 533.725 200.296H534.869C534.93 200.816 535.142 201.241 535.506 201.57C535.87 201.899 536.355 202.064 536.962 202.064C537.569 202.064 538.028 201.908 538.34 201.596C538.661 201.275 538.821 200.864 538.821 200.361C538.821 199.711 538.604 199.243 538.171 198.957C537.738 198.671 537.083 198.528 536.208 198.528H535.909V197.54H536.221C537.018 197.531 537.621 197.401 538.028 197.15C538.435 196.89 538.639 196.491 538.639 195.954C538.639 195.495 538.487 195.126 538.184 194.849C537.889 194.572 537.465 194.433 536.91 194.433C536.373 194.433 535.939 194.572 535.61 194.849C535.281 195.126 535.086 195.499 535.025 195.967H533.868ZM542.121 203.078C541.896 203.078 541.705 203 541.549 202.844C541.393 202.688 541.315 202.497 541.315 202.272C541.315 202.047 541.393 201.856 541.549 201.7C541.705 201.544 541.896 201.466 542.121 201.466C542.338 201.466 542.52 201.544 542.667 201.7C542.823 201.856 542.901 202.047 542.901 202.272C542.901 202.497 542.823 202.688 542.667 202.844C542.52 203 542.338 203.078 542.121 203.078ZM544.032 198.463C544.032 197.579 544.231 196.786 544.63 196.084C545.028 195.373 545.57 194.819 546.255 194.42C546.948 194.021 547.715 193.822 548.556 193.822C549.544 193.822 550.406 194.06 551.143 194.537C551.879 195.014 552.417 195.69 552.755 196.565H551.338C551.086 196.019 550.722 195.599 550.246 195.304C549.778 195.009 549.214 194.862 548.556 194.862C547.923 194.862 547.355 195.009 546.853 195.304C546.35 195.599 545.956 196.019 545.67 196.565C545.384 197.102 545.241 197.735 545.241 198.463C545.241 199.182 545.384 199.815 545.67 200.361C545.956 200.898 546.35 201.314 546.853 201.609C547.355 201.904 547.923 202.051 548.556 202.051C549.214 202.051 549.778 201.908 550.246 201.622C550.722 201.327 551.086 200.907 551.338 200.361H552.755C552.417 201.228 551.879 201.899 551.143 202.376C550.406 202.844 549.544 203.078 548.556 203.078C547.715 203.078 546.948 202.883 546.255 202.493C545.57 202.094 545.028 201.544 544.63 200.842C544.231 200.14 544.032 199.347 544.032 198.463ZM557.038 203.117C556.492 203.117 556.002 203.026 555.569 202.844C555.135 202.653 554.793 202.393 554.542 202.064C554.29 201.726 554.152 201.34 554.126 200.907H555.348C555.382 201.262 555.547 201.553 555.842 201.778C556.145 202.003 556.539 202.116 557.025 202.116C557.475 202.116 557.831 202.016 558.091 201.817C558.351 201.618 558.481 201.366 558.481 201.063C558.481 200.751 558.342 200.521 558.065 200.374C557.787 200.218 557.358 200.066 556.778 199.919C556.249 199.78 555.816 199.642 555.478 199.503C555.148 199.356 554.862 199.143 554.62 198.866C554.386 198.58 554.269 198.207 554.269 197.748C554.269 197.384 554.377 197.05 554.594 196.747C554.81 196.444 555.118 196.205 555.517 196.032C555.915 195.85 556.37 195.759 556.882 195.759C557.67 195.759 558.307 195.958 558.793 196.357C559.278 196.756 559.538 197.302 559.573 197.995H558.39C558.364 197.622 558.212 197.323 557.935 197.098C557.666 196.873 557.302 196.76 556.843 196.76C556.418 196.76 556.08 196.851 555.829 197.033C555.577 197.215 555.452 197.453 555.452 197.748C555.452 197.982 555.525 198.177 555.673 198.333C555.829 198.48 556.019 198.602 556.245 198.697C556.479 198.784 556.799 198.883 557.207 198.996C557.718 199.135 558.134 199.273 558.455 199.412C558.775 199.542 559.048 199.741 559.274 200.01C559.508 200.279 559.629 200.63 559.638 201.063C559.638 201.453 559.529 201.804 559.313 202.116C559.096 202.428 558.788 202.675 558.39 202.857C558 203.03 557.549 203.117 557.038 203.117ZM563.96 201.908L566.17 195.876H567.431L564.636 203H563.258L560.463 195.876H561.737L563.96 201.908Z" fill="#ADB3C0"/>
<path d="M190.646 44.727C191.33 44.727 191.921 44.856 192.419 45.114C192.923 45.366 193.307 45.729 193.571 46.203C193.841 46.677 193.976 47.235 193.976 47.877C193.976 48.519 193.841 49.077 193.571 49.551C193.307 50.019 192.923 50.379 192.419 50.631C191.921 50.877 191.33 51 190.646 51H188.693V44.727H190.646ZM190.646 50.325C191.456 50.325 192.074 50.112 192.5 49.686C192.926 49.254 193.139 48.651 193.139 47.877C193.139 47.097 192.923 46.488 192.491 46.05C192.065 45.612 191.45 45.393 190.646 45.393H189.512V50.325H190.646ZM196.375 46.869C196.519 46.587 196.723 46.368 196.987 46.212C197.257 46.056 197.584 45.978 197.968 45.978V46.824H197.752C196.834 46.824 196.375 47.322 196.375 48.318V51H195.556V46.068H196.375V46.869ZM199.108 48.516C199.108 48.012 199.21 47.571 199.414 47.193C199.618 46.809 199.897 46.512 200.251 46.302C200.611 46.092 201.01 45.987 201.448 45.987C201.88 45.987 202.255 46.08 202.573 46.266C202.891 46.452 203.128 46.686 203.284 46.968V46.068H204.112V51H203.284V50.082C203.122 50.37 202.879 50.61 202.555 50.802C202.237 50.988 201.865 51.081 201.439 51.081C201.001 51.081 200.605 50.973 200.251 50.757C199.897 50.541 199.618 50.238 199.414 49.848C199.21 49.458 199.108 49.014 199.108 48.516ZM203.284 48.525C203.284 48.153 203.209 47.829 203.059 47.553C202.909 47.277 202.705 47.067 202.447 46.923C202.195 46.773 201.916 46.698 201.61 46.698C201.304 46.698 201.025 46.77 200.773 46.914C200.521 47.058 200.32 47.268 200.17 47.544C200.02 47.82 199.945 48.144 199.945 48.516C199.945 48.894 200.02 49.224 200.17 49.506C200.32 49.782 200.521 49.995 200.773 50.145C201.025 50.289 201.304 50.361 201.61 50.361C201.916 50.361 202.195 50.289 202.447 50.145C202.705 49.995 202.909 49.782 203.059 49.506C203.209 49.224 203.284 48.897 203.284 48.525ZM208.003 46.743H206.968V51H206.149V46.743H205.51V46.068H206.149V45.717C206.149 45.165 206.29 44.763 206.572 44.511C206.86 44.253 207.319 44.124 207.949 44.124V44.808C207.589 44.808 207.334 44.88 207.184 45.024C207.04 45.162 206.968 45.393 206.968 45.717V46.068H208.003V46.743ZM210.457 46.743V49.65C210.457 49.89 210.508 50.061 210.61 50.163C210.712 50.259 210.889 50.307 211.141 50.307H211.744V51H211.006C210.55 51 210.208 50.895 209.98 50.685C209.752 50.475 209.638 50.13 209.638 49.65V46.743H208.999V46.068H209.638V44.826H210.457V46.068H211.744V46.743H210.457Z" fill="#394253"/>
<rect x="189" y="29" width="10" height="10" fill="#C6D4ED"/>
<path d="M353.64 168.82C353.64 156.058 356.153 143.421 361.037 131.631C365.921 119.84 373.079 109.127 382.103 100.103C391.127 91.0792 401.84 83.9209 413.631 79.0372C425.421 74.1534 438.058 71.6398 450.82 71.6398C463.582 71.6398 476.219 74.1535 488.009 79.0372C499.8 83.921 510.513 91.0792 519.537 100.103C528.561 109.127 535.719 119.84 540.603 131.631C545.486 143.421 548 156.058 548 168.82L450.82 168.82L353.64 168.82Z" fill="#ADB3C0"/>
<path opacity="0.8" d="M510.458 92.0916C496.08 80.9161 478.85 74.0054 460.735 72.1476C442.619 70.2899 424.345 73.5597 407.998 81.5843C391.651 89.609 377.887 102.065 368.276 117.534C358.665 133.002 353.594 150.859 353.641 169.07L450.821 168.821L510.458 92.0916Z" fill="#52DE97"/>
<path d="M358.29 169.601C358.187 157.377 360.507 145.253 365.116 133.931C369.726 122.608 376.533 112.311 385.145 103.634C393.757 94.9578 404.003 88.0736 415.291 83.3796C426.579 78.6856 438.685 76.2748 450.91 76.2864C463.135 76.298 475.236 78.7319 486.515 83.4473C497.794 88.1628 508.027 95.0664 516.622 103.759C525.218 112.452 532.006 122.762 536.594 134.094C541.182 145.425 543.479 157.553 543.352 169.777L450.822 168.822L358.29 169.601Z" fill="#F9F9F9"/>
<path d="M342.907 165.679C342.907 164.647 343.075 163.843 343.411 163.267C343.747 162.685 344.335 162.394 345.175 162.394C346.009 162.394 346.594 162.685 346.93 163.267C347.266 163.843 347.434 164.647 347.434 165.679C347.434 166.729 347.266 167.545 346.93 168.127C346.594 168.709 346.009 169 345.175 169C344.335 169 343.747 168.709 343.411 168.127C343.075 167.545 342.907 166.729 342.907 165.679ZM346.624 165.679C346.624 165.157 346.588 164.716 346.516 164.356C346.45 163.99 346.309 163.696 346.093 163.474C345.883 163.252 345.577 163.141 345.175 163.141C344.767 163.141 344.455 163.252 344.239 163.474C344.029 163.696 343.888 163.99 343.816 164.356C343.75 164.716 343.717 165.157 343.717 165.679C343.717 166.219 343.75 166.672 343.816 167.038C343.888 167.404 344.029 167.698 344.239 167.92C344.455 168.142 344.767 168.253 345.175 168.253C345.577 168.253 345.883 168.142 346.093 167.92C346.309 167.698 346.45 167.404 346.516 167.038C346.588 166.672 346.624 166.219 346.624 165.679Z" fill="#ADB3C0"/>
<path d="M553.342 163.24V162.493H555.034V169H554.206V163.24H553.342ZM556.441 165.679C556.441 164.647 556.609 163.843 556.945 163.267C557.281 162.685 557.869 162.394 558.709 162.394C559.543 162.394 560.128 162.685 560.464 163.267C560.8 163.843 560.968 164.647 560.968 165.679C560.968 166.729 560.8 167.545 560.464 168.127C560.128 168.709 559.543 169 558.709 169C557.869 169 557.281 168.709 556.945 168.127C556.609 167.545 556.441 166.729 556.441 165.679ZM560.158 165.679C560.158 165.157 560.122 164.716 560.05 164.356C559.984 163.99 559.843 163.696 559.627 163.474C559.417 163.252 559.111 163.141 558.709 163.141C558.301 163.141 557.989 163.252 557.773 163.474C557.563 163.696 557.422 163.99 557.35 164.356C557.284 164.716 557.251 165.157 557.251 165.679C557.251 166.219 557.284 166.672 557.35 167.038C557.422 167.404 557.563 167.698 557.773 167.92C557.989 168.142 558.301 168.253 558.709 168.253C559.111 168.253 559.417 168.142 559.627 167.92C559.843 167.698 559.984 167.404 560.05 167.038C560.122 166.672 560.158 166.219 560.158 165.679ZM562.092 165.679C562.092 164.647 562.26 163.843 562.596 163.267C562.932 162.685 563.52 162.394 564.36 162.394C565.194 162.394 565.779 162.685 566.115 163.267C566.451 163.843 566.619 164.647 566.619 165.679C566.619 166.729 566.451 167.545 566.115 168.127C565.779 168.709 565.194 169 564.36 169C563.52 169 562.932 168.709 562.596 168.127C562.26 167.545 562.092 166.729 562.092 165.679ZM565.809 165.679C565.809 165.157 565.773 164.716 565.701 164.356C565.635 163.99 565.494 163.696 565.278 163.474C565.068 163.252 564.762 163.141 564.36 163.141C563.952 163.141 563.64 163.252 563.424 163.474C563.214 163.696 563.073 163.99 563.001 164.356C562.935 164.716 562.902 165.157 562.902 165.679C562.902 166.219 562.935 166.672 563.001 167.038C563.073 167.404 563.214 167.698 563.424 167.92C563.64 168.142 563.952 168.253 564.36 168.253C564.762 168.253 565.068 168.142 565.278 167.92C565.494 167.698 565.635 167.404 565.701 167.038C565.773 166.672 565.809 166.219 565.809 165.679Z" fill="#ADB3C0"/>
<path d="M404.62 125.33C404.62 121.202 405.412 117.95 406.996 115.574C408.604 113.198 411.184 112.01 414.736 112.01C418.288 112.01 420.856 113.198 422.44 115.574C424.048 117.95 424.852 121.202 424.852 125.33C424.852 129.506 424.048 132.782 422.44 135.158C420.856 137.534 418.288 138.722 414.736 138.722C411.184 138.722 408.604 137.534 406.996 135.158C405.412 132.782 404.62 129.506 404.62 125.33ZM418.804 125.33C418.804 122.906 418.54 121.046 418.012 119.75C417.484 118.43 416.392 117.77 414.736 117.77C413.08 117.77 411.988 118.43 411.46 119.75C410.932 121.046 410.668 122.906 410.668 125.33C410.668 126.962 410.764 128.318 410.956 129.398C411.148 130.454 411.532 131.318 412.108 131.99C412.708 132.638 413.584 132.962 414.736 132.962C415.888 132.962 416.752 132.638 417.328 131.99C417.928 131.318 418.324 130.454 418.516 129.398C418.708 128.318 418.804 126.962 418.804 125.33ZM431.596 139.118C430.516 139.118 429.628 138.806 428.932 138.182C428.26 137.534 427.924 136.742 427.924 135.806C427.924 134.846 428.26 134.042 428.932 133.394C429.628 132.746 430.516 132.422 431.596 132.422C432.652 132.422 433.516 132.746 434.188 133.394C434.884 134.042 435.232 134.846 435.232 135.806C435.232 136.742 434.884 137.534 434.188 138.182C433.516 138.806 432.652 139.118 431.596 139.118ZM442.585 124.718C440.329 123.518 439.201 121.634 439.201 119.066C439.201 117.77 439.537 116.594 440.209 115.538C440.881 114.458 441.901 113.606 443.269 112.982C444.637 112.334 446.317 112.01 448.309 112.01C450.301 112.01 451.969 112.334 453.313 112.982C454.681 113.606 455.701 114.458 456.373 115.538C457.045 116.594 457.381 117.77 457.381 119.066C457.381 120.362 457.069 121.49 456.445 122.45C455.845 123.41 455.029 124.166 453.997 124.718C455.293 125.342 456.289 126.206 456.985 127.31C457.681 128.39 458.029 129.662 458.029 131.126C458.029 132.83 457.597 134.306 456.733 135.554C455.869 136.778 454.693 137.714 453.205 138.362C451.741 139.01 450.109 139.334 448.309 139.334C446.509 139.334 444.865 139.01 443.377 138.362C441.913 137.714 440.749 136.778 439.885 135.554C439.021 134.306 438.589 132.83 438.589 131.126C438.589 129.638 438.937 128.354 439.633 127.274C440.329 126.17 441.313 125.318 442.585 124.718ZM451.405 120.002C451.405 119.018 451.117 118.262 450.541 117.734C449.989 117.182 449.245 116.906 448.309 116.906C447.373 116.906 446.617 117.182 446.041 117.734C445.489 118.286 445.213 119.054 445.213 120.038C445.213 120.974 445.501 121.718 446.077 122.27C446.653 122.798 447.397 123.062 448.309 123.062C449.221 123.062 449.965 122.786 450.541 122.234C451.117 121.682 451.405 120.938 451.405 120.002ZM448.309 127.382C447.181 127.382 446.269 127.694 445.573 128.318C444.877 128.918 444.529 129.758 444.529 130.838C444.529 131.846 444.865 132.674 445.537 133.322C446.233 133.97 447.157 134.294 448.309 134.294C449.461 134.294 450.361 133.97 451.009 133.322C451.681 132.674 452.017 131.846 452.017 130.838C452.017 129.782 451.669 128.942 450.973 128.318C450.301 127.694 449.413 127.382 448.309 127.382ZM460.96 118.274V112.55H470.932V138.83H464.524V118.274H460.96ZM474.495 118.274V112.55H484.467V138.83H478.059V118.274H474.495Z" fill="#394253"/>
<path d="M393.47 168.935C392.78 168.935 392.16 168.815 391.61 168.575C391.07 168.325 390.645 167.985 390.335 167.555C390.025 167.115 389.865 166.61 389.855 166.04H391.31C391.36 166.53 391.56 166.945 391.91 167.285C392.27 167.615 392.79 167.78 393.47 167.78C394.12 167.78 394.63 167.62 395 167.3C395.38 166.97 395.57 166.55 395.57 166.04C395.57 165.64 395.46 165.315 395.24 165.065C395.02 164.815 394.745 164.625 394.415 164.495C394.085 164.365 393.64 164.225 393.08 164.075C392.39 163.895 391.835 163.715 391.415 163.535C391.005 163.355 390.65 163.075 390.35 162.695C390.06 162.305 389.915 161.785 389.915 161.135C389.915 160.565 390.06 160.06 390.35 159.62C390.64 159.18 391.045 158.84 391.565 158.6C392.095 158.36 392.7 158.24 393.38 158.24C394.36 158.24 395.16 158.485 395.78 158.975C396.41 159.465 396.765 160.115 396.845 160.925H395.345C395.295 160.525 395.085 160.175 394.715 159.875C394.345 159.565 393.855 159.41 393.245 159.41C392.675 159.41 392.21 159.56 391.85 159.86C391.49 160.15 391.31 160.56 391.31 161.09C391.31 161.47 391.415 161.78 391.625 162.02C391.845 162.26 392.11 162.445 392.42 162.575C392.74 162.695 393.185 162.835 393.755 162.995C394.445 163.185 395 163.375 395.42 163.565C395.84 163.745 396.2 164.03 396.5 164.42C396.8 164.8 396.95 165.32 396.95 165.98C396.95 166.49 396.815 166.97 396.545 167.42C396.275 167.87 395.875 168.235 395.345 168.515C394.815 168.795 394.19 168.935 393.47 168.935ZM399.664 159.275C399.404 159.275 399.184 159.185 399.004 159.005C398.824 158.825 398.734 158.605 398.734 158.345C398.734 158.085 398.824 157.865 399.004 157.685C399.184 157.505 399.404 157.415 399.664 157.415C399.914 157.415 400.124 157.505 400.294 157.685C400.474 157.865 400.564 158.085 400.564 158.345C400.564 158.605 400.474 158.825 400.294 159.005C400.124 159.185 399.914 159.275 399.664 159.275ZM400.324 160.61V168.83H398.959V160.61H400.324ZM404.015 157.73V168.83H402.65V157.73H404.015ZM410.422 160.46C411.042 160.46 411.602 160.595 412.102 160.865C412.602 161.125 412.992 161.52 413.272 162.05C413.562 162.58 413.707 163.225 413.707 163.985V168.83H412.357V164.18C412.357 163.36 412.152 162.735 411.742 162.305C411.332 161.865 410.772 161.645 410.062 161.645C409.342 161.645 408.767 161.87 408.337 162.32C407.917 162.77 407.707 163.425 407.707 164.285V168.83H406.342V157.73H407.707V161.78C407.977 161.36 408.347 161.035 408.817 160.805C409.297 160.575 409.832 160.46 410.422 160.46ZM419.521 168.965C418.751 168.965 418.051 168.79 417.421 168.44C416.801 168.09 416.311 167.595 415.951 166.955C415.601 166.305 415.426 165.555 415.426 164.705C415.426 163.865 415.606 163.125 415.966 162.485C416.336 161.835 416.836 161.34 417.466 161C418.096 160.65 418.801 160.475 419.581 160.475C420.361 160.475 421.066 160.65 421.696 161C422.326 161.34 422.821 161.83 423.181 162.47C423.551 163.11 423.736 163.855 423.736 164.705C423.736 165.555 423.546 166.305 423.166 166.955C422.796 167.595 422.291 168.09 421.651 168.44C421.011 168.79 420.301 168.965 419.521 168.965ZM419.521 167.765C420.011 167.765 420.471 167.65 420.901 167.42C421.331 167.19 421.676 166.845 421.936 166.385C422.206 165.925 422.341 165.365 422.341 164.705C422.341 164.045 422.211 163.485 421.951 163.025C421.691 162.565 421.351 162.225 420.931 162.005C420.511 161.775 420.056 161.66 419.566 161.66C419.066 161.66 418.606 161.775 418.186 162.005C417.776 162.225 417.446 162.565 417.196 163.025C416.946 163.485 416.821 164.045 416.821 164.705C416.821 165.375 416.941 165.94 417.181 166.4C417.431 166.86 417.761 167.205 418.171 167.435C418.581 167.655 419.031 167.765 419.521 167.765ZM432.821 160.61V168.83H431.456V167.615C431.196 168.035 430.831 168.365 430.361 168.605C429.901 168.835 429.391 168.95 428.831 168.95C428.191 168.95 427.616 168.82 427.106 168.56C426.596 168.29 426.191 167.89 425.891 167.36C425.601 166.83 425.456 166.185 425.456 165.425V160.61H426.806V165.245C426.806 166.055 427.011 166.68 427.421 167.12C427.831 167.55 428.391 167.765 429.101 167.765C429.831 167.765 430.406 167.54 430.826 167.09C431.246 166.64 431.456 165.985 431.456 165.125V160.61H432.821ZM442.626 164.405C442.626 164.665 442.611 164.94 442.581 165.23H436.011C436.061 166.04 436.336 166.675 436.836 167.135C437.346 167.585 437.961 167.81 438.681 167.81C439.271 167.81 439.761 167.675 440.151 167.405C440.551 167.125 440.831 166.755 440.991 166.295H442.461C442.241 167.085 441.801 167.73 441.141 168.23C440.481 168.72 439.661 168.965 438.681 168.965C437.901 168.965 437.201 168.79 436.581 168.44C435.971 168.09 435.491 167.595 435.141 166.955C434.791 166.305 434.616 165.555 434.616 164.705C434.616 163.855 434.786 163.11 435.126 162.47C435.466 161.83 435.941 161.34 436.551 161C437.171 160.65 437.881 160.475 438.681 160.475C439.461 160.475 440.151 160.645 440.751 160.985C441.351 161.325 441.811 161.795 442.131 162.395C442.461 162.985 442.626 163.655 442.626 164.405ZM441.216 164.12C441.216 163.6 441.101 163.155 440.871 162.785C440.641 162.405 440.326 162.12 439.926 161.93C439.536 161.73 439.101 161.63 438.621 161.63C437.931 161.63 437.341 161.85 436.851 162.29C436.371 162.73 436.096 163.34 436.026 164.12H441.216ZM446.092 161.735V166.58C446.092 166.98 446.177 167.265 446.347 167.435C446.517 167.595 446.812 167.675 447.232 167.675H448.237V168.83H447.007C446.247 168.83 445.677 168.655 445.297 168.305C444.917 167.955 444.727 167.38 444.727 166.58V161.735H443.662V160.61H444.727V158.54H446.092V160.61H448.237V161.735H446.092ZM451.556 161.735V166.58C451.556 166.98 451.641 167.265 451.811 167.435C451.981 167.595 452.276 167.675 452.696 167.675H453.701V168.83H452.471C451.711 168.83 451.141 168.655 450.761 168.305C450.381 167.955 450.191 167.38 450.191 166.58V161.735H449.126V160.61H450.191V158.54H451.556V160.61H453.701V161.735H451.556ZM462.855 164.405C462.855 164.665 462.84 164.94 462.81 165.23H456.24C456.29 166.04 456.565 166.675 457.065 167.135C457.575 167.585 458.19 167.81 458.91 167.81C459.5 167.81 459.99 167.675 460.38 167.405C460.78 167.125 461.06 166.755 461.22 166.295H462.69C462.47 167.085 462.03 167.73 461.37 168.23C460.71 168.72 459.89 168.965 458.91 168.965C458.13 168.965 457.43 168.79 456.81 168.44C456.2 168.09 455.72 167.595 455.37 166.955C455.02 166.305 454.845 165.555 454.845 164.705C454.845 163.855 455.015 163.11 455.355 162.47C455.695 161.83 456.17 161.34 456.78 161C457.4 160.65 458.11 160.475 458.91 160.475C459.69 160.475 460.38 160.645 460.98 160.985C461.58 161.325 462.04 161.795 462.36 162.395C462.69 162.985 462.855 163.655 462.855 164.405ZM461.445 164.12C461.445 163.6 461.33 163.155 461.1 162.785C460.87 162.405 460.555 162.12 460.155 161.93C459.765 161.73 459.33 161.63 458.85 161.63C458.16 161.63 457.57 161.85 457.08 162.29C456.6 162.73 456.325 163.34 456.255 164.12H461.445ZM471.971 168.935C471.281 168.935 470.661 168.815 470.111 168.575C469.571 168.325 469.146 167.985 468.836 167.555C468.526 167.115 468.366 166.61 468.356 166.04H469.811C469.861 166.53 470.061 166.945 470.411 167.285C470.771 167.615 471.291 167.78 471.971 167.78C472.621 167.78 473.131 167.62 473.501 167.3C473.881 166.97 474.071 166.55 474.071 166.04C474.071 165.64 473.961 165.315 473.741 165.065C473.521 164.815 473.246 164.625 472.916 164.495C472.586 164.365 472.141 164.225 471.581 164.075C470.891 163.895 470.336 163.715 469.916 163.535C469.506 163.355 469.151 163.075 468.851 162.695C468.561 162.305 468.416 161.785 468.416 161.135C468.416 160.565 468.561 160.06 468.851 159.62C469.141 159.18 469.546 158.84 470.066 158.6C470.596 158.36 471.201 158.24 471.881 158.24C472.861 158.24 473.661 158.485 474.281 158.975C474.911 159.465 475.266 160.115 475.346 160.925H473.846C473.796 160.525 473.586 160.175 473.216 159.875C472.846 159.565 472.356 159.41 471.746 159.41C471.176 159.41 470.711 159.56 470.351 159.86C469.991 160.15 469.811 160.56 469.811 161.09C469.811 161.47 469.916 161.78 470.126 162.02C470.346 162.26 470.611 162.445 470.921 162.575C471.241 162.695 471.686 162.835 472.256 162.995C472.946 163.185 473.501 163.375 473.921 163.565C474.341 163.745 474.701 164.03 475.001 164.42C475.301 164.8 475.451 165.32 475.451 165.98C475.451 166.49 475.316 166.97 475.046 167.42C474.776 167.87 474.376 168.235 473.846 168.515C473.316 168.795 472.691 168.935 471.971 168.935ZM476.95 164.705C476.95 163.855 477.12 163.115 477.46 162.485C477.8 161.845 478.27 161.35 478.87 161C479.48 160.65 480.175 160.475 480.955 160.475C481.965 160.475 482.795 160.72 483.445 161.21C484.105 161.7 484.54 162.38 484.75 163.25H483.28C483.14 162.75 482.865 162.355 482.455 162.065C482.055 161.775 481.555 161.63 480.955 161.63C480.175 161.63 479.545 161.9 479.065 162.44C478.585 162.97 478.345 163.725 478.345 164.705C478.345 165.695 478.585 166.46 479.065 167C479.545 167.54 480.175 167.81 480.955 167.81C481.555 167.81 482.055 167.67 482.455 167.39C482.855 167.11 483.13 166.71 483.28 166.19H484.75C484.53 167.03 484.09 167.705 483.43 168.215C482.77 168.715 481.945 168.965 480.955 168.965C480.175 168.965 479.48 168.79 478.87 168.44C478.27 168.09 477.8 167.595 477.46 166.955C477.12 166.315 476.95 165.565 476.95 164.705ZM490.156 168.965C489.386 168.965 488.686 168.79 488.056 168.44C487.436 168.09 486.946 167.595 486.586 166.955C486.236 166.305 486.061 165.555 486.061 164.705C486.061 163.865 486.241 163.125 486.601 162.485C486.971 161.835 487.471 161.34 488.101 161C488.731 160.65 489.436 160.475 490.216 160.475C490.996 160.475 491.701 160.65 492.331 161C492.961 161.34 493.456 161.83 493.816 162.47C494.186 163.11 494.371 163.855 494.371 164.705C494.371 165.555 494.181 166.305 493.801 166.955C493.431 167.595 492.926 168.09 492.286 168.44C491.646 168.79 490.936 168.965 490.156 168.965ZM490.156 167.765C490.646 167.765 491.106 167.65 491.536 167.42C491.966 167.19 492.311 166.845 492.571 166.385C492.841 165.925 492.976 165.365 492.976 164.705C492.976 164.045 492.846 163.485 492.586 163.025C492.326 162.565 491.986 162.225 491.566 162.005C491.146 161.775 490.691 161.66 490.201 161.66C489.701 161.66 489.241 161.775 488.821 162.005C488.411 162.225 488.081 162.565 487.831 163.025C487.581 163.485 487.456 164.045 487.456 164.705C487.456 165.375 487.576 165.94 487.816 166.4C488.066 166.86 488.396 167.205 488.806 167.435C489.216 167.655 489.666 167.765 490.156 167.765ZM497.531 161.945C497.771 161.475 498.111 161.11 498.551 160.85C499.001 160.59 499.546 160.46 500.186 160.46V161.87H499.826C498.296 161.87 497.531 162.7 497.531 164.36V168.83H496.166V160.61H497.531V161.945ZM509.261 164.405C509.261 164.665 509.246 164.94 509.216 165.23H502.646C502.696 166.04 502.971 166.675 503.471 167.135C503.981 167.585 504.596 167.81 505.316 167.81C505.906 167.81 506.396 167.675 506.786 167.405C507.186 167.125 507.466 166.755 507.626 166.295H509.096C508.876 167.085 508.436 167.73 507.776 168.23C507.116 168.72 506.296 168.965 505.316 168.965C504.536 168.965 503.836 168.79 503.216 168.44C502.606 168.09 502.126 167.595 501.776 166.955C501.426 166.305 501.251 165.555 501.251 164.705C501.251 163.855 501.421 163.11 501.761 162.47C502.101 161.83 502.576 161.34 503.186 161C503.806 160.65 504.516 160.475 505.316 160.475C506.096 160.475 506.786 160.645 507.386 160.985C507.986 161.325 508.446 161.795 508.766 162.395C509.096 162.985 509.261 163.655 509.261 164.405ZM507.851 164.12C507.851 163.6 507.736 163.155 507.506 162.785C507.276 162.405 506.961 162.12 506.561 161.93C506.171 161.73 505.736 161.63 505.256 161.63C504.566 161.63 503.976 161.85 503.486 162.29C503.006 162.73 502.731 163.34 502.661 164.12H507.851Z" fill="#394253" fill-opacity="0.8"/>
<rect width="11.4286" height="11.4286" transform="translate(520.738 157.939)" fill="#394253"/>
<rect width="11.4286" height="11.4286" transform="translate(520.738 157.939)" fill="white"/>
<rect x="521.31" y="158.511" width="10.2857" height="10.2857" rx="5.14286" stroke="#52DE97" stroke-width="1.14286"/>
<path d="M526.453 162.082L526.453 166.919M526.453 161.356L526.453 160.389" stroke="#52DE97" stroke-width="1.14286"/>
<path d="M521.826 79.2959C523.878 81.1447 523.707 84.6777 521.858 86.7289C520.446 88.2965 515.895 88.9837 513.828 89.2207C513.261 89.2856 512.778 88.85 512.783 88.2795C512.805 86.1987 513.017 81.6016 514.43 80.034C516.279 77.9828 519.775 77.4472 521.826 79.2959Z" fill="#E7E7EF"/>
</g>
<defs>
<filter id="filter0_d_13_4482" x="0" y="0" width="623" height="236" filterUnits="userSpaceOnUse" color-interpolation-filters="sRGB">
<feFlood flood-opacity="0" result="BackgroundImageFix"/>
<feColorMatrix in="SourceAlpha" type="matrix" values="0 0 0 0 0 0 0 0 0 0 0 0 0 0 0 0 0 0 127 0" result="hardAlpha"/>
<feOffset dy="2"/>
<feGaussianBlur stdDeviation="3"/>
<feColorMatrix type="matrix" values="0 0 0 0 0.313854 0 0 0 0 0.402307 0 0 0 0 0.575 0 0 0 0.29 0"/>
<feBlend mode="normal" in2="BackgroundImageFix" result="effect1_dropShadow_13_4482"/>
<feBlend mode="normal" in="SourceGraphic" in2="effect1_dropShadow_13_4482" result="shape"/>
</filter>
</defs>
</svg>
