<svg width="623" height="236" viewBox="0 0 623 236" fill="none" xmlns="http://www.w3.org/2000/svg">
<g filter="url(#filter0_d_13_4439)">
<rect x="6" y="4" width="611" height="224" rx="20" fill="#F9F9F9"/>
<path d="M77.52 30.24V51H74.79V35.52L67.89 51H65.97L59.04 35.49V51H56.31V30.24H59.25L66.93 47.4L74.61 30.24H77.52ZM89.3198 51.27C87.7798 51.27 86.3798 50.92 85.1198 50.22C83.8798 49.52 82.8998 48.53 82.1798 47.25C81.4798 45.95 81.1298 44.45 81.1298 42.75C81.1298 41.07 81.4898 39.59 82.2098 38.31C82.9498 37.01 83.9498 36.02 85.2098 35.34C86.4698 34.64 87.8798 34.29 89.4398 34.29C90.9998 34.29 92.4098 34.64 93.6698 35.34C94.9298 36.02 95.9198 37 96.6398 38.28C97.3798 39.56 97.7498 41.05 97.7498 42.75C97.7498 44.45 97.3698 45.95 96.6098 47.25C95.8698 48.53 94.8598 49.52 93.5798 50.22C92.2998 50.92 90.8798 51.27 89.3198 51.27ZM89.3198 48.87C90.2998 48.87 91.2198 48.64 92.0798 48.18C92.9398 47.72 93.6298 47.03 94.1498 46.11C94.6898 45.19 94.9598 44.07 94.9598 42.75C94.9598 41.43 94.6998 40.31 94.1798 39.39C93.6598 38.47 92.9798 37.79 92.1398 37.35C91.2998 36.89 90.3898 36.66 89.4098 36.66C88.4098 36.66 87.4898 36.89 86.6498 37.35C85.8298 37.79 85.1698 38.47 84.6698 39.39C84.1698 40.31 83.9198 41.43 83.9198 42.75C83.9198 44.09 84.1598 45.22 84.6398 46.14C85.1398 47.06 85.7998 47.75 86.6198 48.21C87.4398 48.65 88.3398 48.87 89.3198 48.87ZM100.319 42.72C100.319 41.04 100.659 39.57 101.339 38.31C102.019 37.03 102.949 36.04 104.129 35.34C105.329 34.64 106.669 34.29 108.149 34.29C109.429 34.29 110.619 34.59 111.719 35.19C112.819 35.77 113.659 36.54 114.239 37.5V28.8H116.999V51H114.239V47.91C113.699 48.89 112.899 49.7 111.839 50.34C110.779 50.96 109.539 51.27 108.119 51.27C106.659 51.27 105.329 50.91 104.129 50.19C102.949 49.47 102.019 48.46 101.339 47.16C100.659 45.86 100.319 44.38 100.319 42.72ZM114.239 42.75C114.239 41.51 113.989 40.43 113.489 39.51C112.989 38.59 112.309 37.89 111.449 37.41C110.609 36.91 109.679 36.66 108.659 36.66C107.639 36.66 106.709 36.9 105.869 37.38C105.029 37.86 104.359 38.56 103.859 39.48C103.359 40.4 103.109 41.48 103.109 42.72C103.109 43.98 103.359 45.08 103.859 46.02C104.359 46.94 105.029 47.65 105.869 48.15C106.709 48.63 107.639 48.87 108.659 48.87C109.679 48.87 110.609 48.63 111.449 48.15C112.309 47.65 112.989 46.94 113.489 46.02C113.989 45.08 114.239 43.99 114.239 42.75ZM136.613 42.15C136.613 42.67 136.583 43.22 136.523 43.8H123.383C123.483 45.42 124.033 46.69 125.033 47.61C126.053 48.51 127.283 48.96 128.723 48.96C129.903 48.96 130.883 48.69 131.663 48.15C132.463 47.59 133.023 46.85 133.343 45.93H136.283C135.843 47.51 134.963 48.8 133.643 49.8C132.323 50.78 130.683 51.27 128.723 51.27C127.163 51.27 125.763 50.92 124.523 50.22C123.303 49.52 122.343 48.53 121.643 47.25C120.943 45.95 120.593 44.45 120.593 42.75C120.593 41.05 120.933 39.56 121.613 38.28C122.293 37 123.243 36.02 124.463 35.34C125.703 34.64 127.123 34.29 128.723 34.29C130.283 34.29 131.663 34.63 132.863 35.31C134.063 35.99 134.983 36.93 135.623 38.13C136.283 39.31 136.613 40.65 136.613 42.15ZM133.793 41.58C133.793 40.54 133.563 39.65 133.103 38.91C132.643 38.15 132.013 37.58 131.213 37.2C130.433 36.8 129.563 36.6 128.603 36.6C127.223 36.6 126.043 37.04 125.063 37.92C124.103 38.8 123.553 40.02 123.413 41.58H133.793ZM142.946 28.8V51H140.216V28.8H142.946ZM155.087 34.77C155.227 32.93 155.937 31.49 157.217 30.45C158.497 29.41 160.157 28.89 162.197 28.89C163.557 28.89 164.727 29.14 165.707 29.64C166.707 30.12 167.457 30.78 167.957 31.62C168.477 32.46 168.737 33.41 168.737 34.47C168.737 35.71 168.377 36.78 167.657 37.68C166.957 38.58 166.037 39.16 164.897 39.42V39.57C166.197 39.89 167.227 40.52 167.987 41.46C168.747 42.4 169.127 43.63 169.127 45.15C169.127 46.29 168.867 47.32 168.347 48.24C167.827 49.14 167.047 49.85 166.007 50.37C164.967 50.89 163.717 51.15 162.257 51.15C160.137 51.15 158.397 50.6 157.037 49.5C155.677 48.38 154.917 46.8 154.757 44.76H157.397C157.537 45.96 158.027 46.94 158.867 47.7C159.707 48.46 160.827 48.84 162.227 48.84C163.627 48.84 164.687 48.48 165.407 47.76C166.147 47.02 166.517 46.07 166.517 44.91C166.517 43.41 166.017 42.33 165.017 41.67C164.017 41.01 162.507 40.68 160.487 40.68H159.797V38.4H160.517C162.357 38.38 163.747 38.08 164.687 37.5C165.627 36.9 166.097 35.98 166.097 34.74C166.097 33.68 165.747 32.83 165.047 32.19C164.367 31.55 163.387 31.23 162.107 31.23C160.867 31.23 159.867 31.55 159.107 32.19C158.347 32.83 157.897 33.69 157.757 34.77H155.087Z" fill="#394253"/>
<path d="M55.78 106.26C56.2333 105.9 56.44 105.733 56.4 105.76C57.7067 104.68 58.7333 103.793 59.48 103.1C60.24 102.407 60.88 101.68 61.4 100.92C61.92 100.16 62.18 99.42 62.18 98.7C62.18 98.1533 62.0533 97.7267 61.8 97.42C61.5467 97.1133 61.1667 96.96 60.66 96.96C60.1533 96.96 59.7533 97.1533 59.46 97.54C59.18 97.9133 59.04 98.4467 59.04 99.14H55.74C55.7667 98.0067 56.0067 97.06 56.46 96.3C56.9267 95.54 57.5333 94.98 58.28 94.62C59.04 94.26 59.88 94.08 60.8 94.08C62.3867 94.08 63.58 94.4867 64.38 95.3C65.1933 96.1133 65.6 97.1733 65.6 98.48C65.6 99.9067 65.1133 101.233 64.14 102.46C63.1667 103.673 61.9267 104.86 60.42 106.02H65.82V108.8H55.78V106.26ZM71.3458 105.84L69.1258 111.58H66.9458L68.1058 105.84H71.3458ZM73.148 106.4V103.64L79.468 94.6H83.288V103.44H84.928V106.4H83.288V109H79.868V106.4H73.148ZM80.108 98.36L76.748 103.44H80.108V98.36ZM86.4831 106.26C86.9365 105.9 87.1431 105.733 87.1031 105.76C88.4098 104.68 89.4365 103.793 90.1831 103.1C90.9431 102.407 91.5831 101.68 92.1031 100.92C92.6231 100.16 92.8831 99.42 92.8831 98.7C92.8831 98.1533 92.7565 97.7267 92.5031 97.42C92.2498 97.1133 91.8698 96.96 91.3631 96.96C90.8565 96.96 90.4565 97.1533 90.1631 97.54C89.8831 97.9133 89.7431 98.4467 89.7431 99.14H86.4431C86.4698 98.0067 86.7098 97.06 87.1631 96.3C87.6298 95.54 88.2365 94.98 88.9831 94.62C89.7431 94.26 90.5831 94.08 91.5031 94.08C93.0898 94.08 94.2831 94.4867 95.0831 95.3C95.8965 96.1133 96.3031 97.1733 96.3031 98.48C96.3031 99.9067 95.8165 101.233 94.8431 102.46C93.8698 103.673 92.6298 104.86 91.1231 106.02H96.5231V108.8H86.4831V106.26ZM107.349 96.96L102.329 109H98.8289L103.909 97.34H97.6889V94.42H107.349V96.96Z" fill="#394253"/>
<path d="M64.375 144H63.01L57.52 135.675V144H56.155V133.53H57.52L63.01 141.84V133.53H64.375V144ZM70.2869 144.135C69.5169 144.135 68.8169 143.96 68.1869 143.61C67.5669 143.26 67.0769 142.765 66.7169 142.125C66.3669 141.475 66.1919 140.725 66.1919 139.875C66.1919 139.035 66.3719 138.295 66.7319 137.655C67.1019 137.005 67.6019 136.51 68.2319 136.17C68.8619 135.82 69.5669 135.645 70.3469 135.645C71.1269 135.645 71.8319 135.82 72.4619 136.17C73.0919 136.51 73.5869 137 73.9469 137.64C74.3169 138.28 74.5019 139.025 74.5019 139.875C74.5019 140.725 74.3119 141.475 73.9319 142.125C73.5619 142.765 73.0569 143.26 72.4169 143.61C71.7769 143.96 71.0669 144.135 70.2869 144.135ZM70.2869 142.935C70.7769 142.935 71.2369 142.82 71.6669 142.59C72.0969 142.36 72.4419 142.015 72.7019 141.555C72.9719 141.095 73.1069 140.535 73.1069 139.875C73.1069 139.215 72.9769 138.655 72.7169 138.195C72.4569 137.735 72.1169 137.395 71.6969 137.175C71.2769 136.945 70.8219 136.83 70.3319 136.83C69.8319 136.83 69.3719 136.945 68.9519 137.175C68.5419 137.395 68.2119 137.735 67.9619 138.195C67.7119 138.655 67.5869 139.215 67.5869 139.875C67.5869 140.545 67.7069 141.11 67.9469 141.57C68.1969 142.03 68.5269 142.375 68.9369 142.605C69.3469 142.825 69.7969 142.935 70.2869 142.935ZM76.7316 144.09C76.4716 144.09 76.2516 144 76.0716 143.82C75.8916 143.64 75.8016 143.42 75.8016 143.16C75.8016 142.9 75.8916 142.68 76.0716 142.5C76.2516 142.32 76.4716 142.23 76.7316 142.23C76.9816 142.23 77.1916 142.32 77.3616 142.5C77.5416 142.68 77.6316 142.9 77.6316 143.16C77.6316 143.42 77.5416 143.64 77.3616 143.82C77.1916 144 76.9816 144.09 76.7316 144.09ZM87.03 144.135C86.26 144.135 85.56 143.96 84.93 143.61C84.31 143.26 83.82 142.765 83.46 142.125C83.11 141.475 82.935 140.725 82.935 139.875C82.935 139.035 83.115 138.295 83.475 137.655C83.845 137.005 84.345 136.51 84.975 136.17C85.605 135.82 86.31 135.645 87.09 135.645C87.87 135.645 88.575 135.82 89.205 136.17C89.835 136.51 90.33 137 90.69 137.64C91.06 138.28 91.245 139.025 91.245 139.875C91.245 140.725 91.055 141.475 90.675 142.125C90.305 142.765 89.8 143.26 89.16 143.61C88.52 143.96 87.81 144.135 87.03 144.135ZM87.03 142.935C87.52 142.935 87.98 142.82 88.41 142.59C88.84 142.36 89.185 142.015 89.445 141.555C89.715 141.095 89.85 140.535 89.85 139.875C89.85 139.215 89.72 138.655 89.46 138.195C89.2 137.735 88.86 137.395 88.44 137.175C88.02 136.945 87.565 136.83 87.075 136.83C86.575 136.83 86.115 136.945 85.695 137.175C85.285 137.395 84.955 137.735 84.705 138.195C84.455 138.655 84.33 139.215 84.33 139.875C84.33 140.545 84.45 141.11 84.69 141.57C84.94 142.03 85.27 142.375 85.68 142.605C86.09 142.825 86.54 142.935 87.03 142.935ZM96.3848 136.905H94.6598V144H93.2948V136.905H92.2298V135.78H93.2948V135.195C93.2948 134.275 93.5298 133.605 93.9998 133.185C94.4798 132.755 95.2448 132.54 96.2948 132.54V133.68C95.6948 133.68 95.2698 133.8 95.0198 134.04C94.7798 134.27 94.6598 134.655 94.6598 135.195V135.78H96.3848V136.905ZM101.465 138.765C101.465 137.745 101.695 136.83 102.155 136.02C102.615 135.2 103.24 134.56 104.03 134.1C104.83 133.64 105.715 133.41 106.685 133.41C107.825 133.41 108.82 133.685 109.67 134.235C110.52 134.785 111.14 135.565 111.53 136.575H109.895C109.605 135.945 109.185 135.46 108.635 135.12C108.095 134.78 107.445 134.61 106.685 134.61C105.955 134.61 105.3 134.78 104.72 135.12C104.14 135.46 103.685 135.945 103.355 136.575C103.025 137.195 102.86 137.925 102.86 138.765C102.86 139.595 103.025 140.325 103.355 140.955C103.685 141.575 104.14 142.055 104.72 142.395C105.3 142.735 105.955 142.905 106.685 142.905C107.445 142.905 108.095 142.74 108.635 142.41C109.185 142.07 109.605 141.585 109.895 140.955H111.53C111.14 141.955 110.52 142.73 109.67 143.28C108.82 143.82 107.825 144.09 106.685 144.09C105.715 144.09 104.83 143.865 104.03 143.415C103.24 142.955 102.615 142.32 102.155 141.51C101.695 140.7 101.465 139.785 101.465 138.765ZM114.927 132.9V144H113.562V132.9H114.927ZM124.544 135.78V144H123.179V142.785C122.919 143.205 122.554 143.535 122.084 143.775C121.624 144.005 121.114 144.12 120.554 144.12C119.914 144.12 119.339 143.99 118.829 143.73C118.319 143.46 117.914 143.06 117.614 142.53C117.324 142 117.179 141.355 117.179 140.595V135.78H118.529V140.415C118.529 141.225 118.734 141.85 119.144 142.29C119.554 142.72 120.114 142.935 120.824 142.935C121.554 142.935 122.129 142.71 122.549 142.26C122.969 141.81 123.179 141.155 123.179 140.295V135.78H124.544ZM129.758 144.135C129.128 144.135 128.563 144.03 128.063 143.82C127.563 143.6 127.168 143.3 126.878 142.92C126.588 142.53 126.428 142.085 126.398 141.585H127.808C127.848 141.995 128.038 142.33 128.378 142.59C128.728 142.85 129.183 142.98 129.743 142.98C130.263 142.98 130.673 142.865 130.973 142.635C131.273 142.405 131.423 142.115 131.423 141.765C131.423 141.405 131.263 141.14 130.943 140.97C130.623 140.79 130.128 140.615 129.458 140.445C128.848 140.285 128.348 140.125 127.958 139.965C127.578 139.795 127.248 139.55 126.968 139.23C126.698 138.9 126.563 138.47 126.563 137.94C126.563 137.52 126.688 137.135 126.938 136.785C127.188 136.435 127.543 136.16 128.003 135.96C128.463 135.75 128.988 135.645 129.578 135.645C130.488 135.645 131.223 135.875 131.783 136.335C132.343 136.795 132.643 137.425 132.683 138.225H131.318C131.288 137.795 131.113 137.45 130.793 137.19C130.483 136.93 130.063 136.8 129.533 136.8C129.043 136.8 128.653 136.905 128.363 137.115C128.073 137.325 127.928 137.6 127.928 137.94C127.928 138.21 128.013 138.435 128.183 138.615C128.363 138.785 128.583 138.925 128.843 139.035C129.113 139.135 129.483 139.25 129.953 139.38C130.543 139.54 131.023 139.7 131.393 139.86C131.763 140.01 132.078 140.24 132.338 140.55C132.608 140.86 132.748 141.265 132.758 141.765C132.758 142.215 132.633 142.62 132.383 142.98C132.133 143.34 131.778 143.625 131.318 143.835C130.868 144.035 130.348 144.135 129.758 144.135ZM136.35 136.905V141.75C136.35 142.15 136.435 142.435 136.605 142.605C136.775 142.765 137.07 142.845 137.49 142.845H138.495V144H137.265C136.505 144 135.935 143.825 135.555 143.475C135.175 143.125 134.985 142.55 134.985 141.75V136.905H133.92V135.78H134.985V133.71H136.35V135.78H138.495V136.905H136.35ZM147.649 139.575C147.649 139.835 147.634 140.11 147.604 140.4H141.034C141.084 141.21 141.359 141.845 141.859 142.305C142.369 142.755 142.984 142.98 143.704 142.98C144.294 142.98 144.784 142.845 145.174 142.575C145.574 142.295 145.854 141.925 146.014 141.465H147.484C147.264 142.255 146.824 142.9 146.164 143.4C145.504 143.89 144.684 144.135 143.704 144.135C142.924 144.135 142.224 143.96 141.604 143.61C140.994 143.26 140.514 142.765 140.164 142.125C139.814 141.475 139.639 140.725 139.639 139.875C139.639 139.025 139.809 138.28 140.149 137.64C140.489 137 140.964 136.51 141.574 136.17C142.194 135.82 142.904 135.645 143.704 135.645C144.484 135.645 145.174 135.815 145.774 136.155C146.374 136.495 146.834 136.965 147.154 137.565C147.484 138.155 147.649 138.825 147.649 139.575ZM146.239 139.29C146.239 138.77 146.124 138.325 145.894 137.955C145.664 137.575 145.349 137.29 144.949 137.1C144.559 136.9 144.124 136.8 143.644 136.8C142.954 136.8 142.364 137.02 141.874 137.46C141.394 137.9 141.119 138.51 141.049 139.29H146.239ZM150.816 137.115C151.056 136.645 151.396 136.28 151.836 136.02C152.286 135.76 152.831 135.63 153.471 135.63V137.04H153.111C151.581 137.04 150.816 137.87 150.816 139.53V144H149.451V135.78H150.816V137.115ZM157.957 144.135C157.327 144.135 156.762 144.03 156.262 143.82C155.762 143.6 155.367 143.3 155.077 142.92C154.787 142.53 154.627 142.085 154.597 141.585H156.007C156.047 141.995 156.237 142.33 156.577 142.59C156.927 142.85 157.382 142.98 157.942 142.98C158.462 142.98 158.872 142.865 159.172 142.635C159.472 142.405 159.622 142.115 159.622 141.765C159.622 141.405 159.462 141.14 159.142 140.97C158.822 140.79 158.327 140.615 157.657 140.445C157.047 140.285 156.547 140.125 156.157 139.965C155.777 139.795 155.447 139.55 155.167 139.23C154.897 138.9 154.762 138.47 154.762 137.94C154.762 137.52 154.887 137.135 155.137 136.785C155.387 136.435 155.742 136.16 156.202 135.96C156.662 135.75 157.187 135.645 157.777 135.645C158.687 135.645 159.422 135.875 159.982 136.335C160.542 136.795 160.842 137.425 160.882 138.225H159.517C159.487 137.795 159.312 137.45 158.992 137.19C158.682 136.93 158.262 136.8 157.732 136.8C157.242 136.8 156.852 136.905 156.562 137.115C156.272 137.325 156.127 137.6 156.127 137.94C156.127 138.21 156.212 138.435 156.382 138.615C156.562 138.785 156.782 138.925 157.042 139.035C157.312 139.135 157.682 139.25 158.152 139.38C158.742 139.54 159.222 139.7 159.592 139.86C159.962 140.01 160.277 140.24 160.537 140.55C160.807 140.86 160.947 141.265 160.957 141.765C160.957 142.215 160.832 142.62 160.582 142.98C160.332 143.34 159.977 143.625 159.517 143.835C159.067 144.035 158.547 144.135 157.957 144.135Z" fill="#394253" fill-opacity="0.8"/>
<path d="M56.02 158.52C56.0733 157.093 56.54 155.993 57.42 155.22C58.3 154.447 59.4933 154.06 61 154.06C62 154.06 62.8533 154.233 63.56 154.58C64.28 154.927 64.82 155.4 65.18 156C65.5533 156.6 65.74 157.273 65.74 158.02C65.74 158.9 65.52 159.62 65.08 160.18C64.64 160.727 64.1267 161.1 63.54 161.3V161.38C64.3 161.633 64.9 162.053 65.34 162.64C65.78 163.227 66 163.98 66 164.9C66 165.727 65.8067 166.46 65.42 167.1C65.0467 167.727 64.4933 168.22 63.76 168.58C63.04 168.94 62.18 169.12 61.18 169.12C59.58 169.12 58.3 168.727 57.34 167.94C56.3933 167.153 55.8933 165.967 55.84 164.38H59.16C59.1733 164.967 59.34 165.433 59.66 165.78C59.98 166.113 60.4467 166.28 61.06 166.28C61.58 166.28 61.98 166.133 62.26 165.84C62.5533 165.533 62.7 165.133 62.7 164.64C62.7 164 62.4933 163.54 62.08 163.26C61.68 162.967 61.0333 162.82 60.14 162.82H59.5V160.04H60.14C60.82 160.04 61.3667 159.927 61.78 159.7C62.2067 159.46 62.42 159.04 62.42 158.44C62.42 157.96 62.2867 157.587 62.02 157.32C61.7533 157.053 61.3867 156.92 60.92 156.92C60.4133 156.92 60.0333 157.073 59.78 157.38C59.54 157.687 59.4 158.067 59.36 158.52H56.02Z" fill="#394253"/>
<path d="M64.375 85H63.01L57.52 76.675V85H56.155V74.53H57.52L63.01 82.84V74.53H64.375V85ZM70.2869 85.135C69.5169 85.135 68.8169 84.96 68.1869 84.61C67.5669 84.26 67.0769 83.765 66.7169 83.125C66.3669 82.475 66.1919 81.725 66.1919 80.875C66.1919 80.035 66.3719 79.295 66.7319 78.655C67.1019 78.005 67.6019 77.51 68.2319 77.17C68.8619 76.82 69.5669 76.645 70.3469 76.645C71.1269 76.645 71.8319 76.82 72.4619 77.17C73.0919 77.51 73.5869 78 73.9469 78.64C74.3169 79.28 74.5019 80.025 74.5019 80.875C74.5019 81.725 74.3119 82.475 73.9319 83.125C73.5619 83.765 73.0569 84.26 72.4169 84.61C71.7769 84.96 71.0669 85.135 70.2869 85.135ZM70.2869 83.935C70.7769 83.935 71.2369 83.82 71.6669 83.59C72.0969 83.36 72.4419 83.015 72.7019 82.555C72.9719 82.095 73.1069 81.535 73.1069 80.875C73.1069 80.215 72.9769 79.655 72.7169 79.195C72.4569 78.735 72.1169 78.395 71.6969 78.175C71.2769 77.945 70.8219 77.83 70.3319 77.83C69.8319 77.83 69.3719 77.945 68.9519 78.175C68.5419 78.395 68.2119 78.735 67.9619 79.195C67.7119 79.655 67.5869 80.215 67.5869 80.875C67.5869 81.545 67.7069 82.11 67.9469 82.57C68.1969 83.03 68.5269 83.375 68.9369 83.605C69.3469 83.825 69.7969 83.935 70.2869 83.935ZM76.7316 85.09C76.4716 85.09 76.2516 85 76.0716 84.82C75.8916 84.64 75.8016 84.42 75.8016 84.16C75.8016 83.9 75.8916 83.68 76.0716 83.5C76.2516 83.32 76.4716 83.23 76.7316 83.23C76.9816 83.23 77.1916 83.32 77.3616 83.5C77.5416 83.68 77.6316 83.9 77.6316 84.16C77.6316 84.42 77.5416 84.64 77.3616 84.82C77.1916 85 76.9816 85.09 76.7316 85.09ZM87.03 85.135C86.26 85.135 85.56 84.96 84.93 84.61C84.31 84.26 83.82 83.765 83.46 83.125C83.11 82.475 82.935 81.725 82.935 80.875C82.935 80.035 83.115 79.295 83.475 78.655C83.845 78.005 84.345 77.51 84.975 77.17C85.605 76.82 86.31 76.645 87.09 76.645C87.87 76.645 88.575 76.82 89.205 77.17C89.835 77.51 90.33 78 90.69 78.64C91.06 79.28 91.245 80.025 91.245 80.875C91.245 81.725 91.055 82.475 90.675 83.125C90.305 83.765 89.8 84.26 89.16 84.61C88.52 84.96 87.81 85.135 87.03 85.135ZM87.03 83.935C87.52 83.935 87.98 83.82 88.41 83.59C88.84 83.36 89.185 83.015 89.445 82.555C89.715 82.095 89.85 81.535 89.85 80.875C89.85 80.215 89.72 79.655 89.46 79.195C89.2 78.735 88.86 78.395 88.44 78.175C88.02 77.945 87.565 77.83 87.075 77.83C86.575 77.83 86.115 77.945 85.695 78.175C85.285 78.395 84.955 78.735 84.705 79.195C84.455 79.655 84.33 80.215 84.33 80.875C84.33 81.545 84.45 82.11 84.69 82.57C84.94 83.03 85.27 83.375 85.68 83.605C86.09 83.825 86.54 83.935 87.03 83.935ZM96.3848 77.905H94.6598V85H93.2948V77.905H92.2298V76.78H93.2948V76.195C93.2948 75.275 93.5298 74.605 93.9998 74.185C94.4798 73.755 95.2448 73.54 96.2948 73.54V74.68C95.6948 74.68 95.2698 74.8 95.0198 75.04C94.7798 75.27 94.6598 75.655 94.6598 76.195V76.78H96.3848V77.905ZM105.29 85.105C104.6 85.105 103.98 84.985 103.43 84.745C102.89 84.495 102.465 84.155 102.155 83.725C101.845 83.285 101.685 82.78 101.675 82.21H103.13C103.18 82.7 103.38 83.115 103.73 83.455C104.09 83.785 104.61 83.95 105.29 83.95C105.94 83.95 106.45 83.79 106.82 83.47C107.2 83.14 107.39 82.72 107.39 82.21C107.39 81.81 107.28 81.485 107.06 81.235C106.84 80.985 106.565 80.795 106.235 80.665C105.905 80.535 105.46 80.395 104.9 80.245C104.21 80.065 103.655 79.885 103.235 79.705C102.825 79.525 102.47 79.245 102.17 78.865C101.88 78.475 101.735 77.955 101.735 77.305C101.735 76.735 101.88 76.23 102.17 75.79C102.46 75.35 102.865 75.01 103.385 74.77C103.915 74.53 104.52 74.41 105.2 74.41C106.18 74.41 106.98 74.655 107.6 75.145C108.23 75.635 108.585 76.285 108.665 77.095H107.165C107.115 76.695 106.905 76.345 106.535 76.045C106.165 75.735 105.675 75.58 105.065 75.58C104.495 75.58 104.03 75.73 103.67 76.03C103.31 76.32 103.13 76.73 103.13 77.26C103.13 77.64 103.235 77.95 103.445 78.19C103.665 78.43 103.93 78.615 104.24 78.745C104.56 78.865 105.005 79.005 105.575 79.165C106.265 79.355 106.82 79.545 107.24 79.735C107.66 79.915 108.02 80.2 108.32 80.59C108.62 80.97 108.77 81.49 108.77 82.15C108.77 82.66 108.635 83.14 108.365 83.59C108.095 84.04 107.695 84.405 107.165 84.685C106.635 84.965 106.01 85.105 105.29 85.105ZM110.269 80.86C110.269 80.02 110.439 79.285 110.779 78.655C111.119 78.015 111.584 77.52 112.174 77.17C112.774 76.82 113.439 76.645 114.169 76.645C114.889 76.645 115.514 76.8 116.044 77.11C116.574 77.42 116.969 77.81 117.229 78.28V76.78H118.609V85H117.229V83.47C116.959 83.95 116.554 84.35 116.014 84.67C115.484 84.98 114.864 85.135 114.154 85.135C113.424 85.135 112.764 84.955 112.174 84.595C111.584 84.235 111.119 83.73 110.779 83.08C110.439 82.43 110.269 81.69 110.269 80.86ZM117.229 80.875C117.229 80.255 117.104 79.715 116.854 79.255C116.604 78.795 116.264 78.445 115.834 78.205C115.414 77.955 114.949 77.83 114.439 77.83C113.929 77.83 113.464 77.95 113.044 78.19C112.624 78.43 112.289 78.78 112.039 79.24C111.789 79.7 111.664 80.24 111.664 80.86C111.664 81.49 111.789 82.04 112.039 82.51C112.289 82.97 112.624 83.325 113.044 83.575C113.464 83.815 113.929 83.935 114.439 83.935C114.949 83.935 115.414 83.815 115.834 83.575C116.264 83.325 116.604 82.97 116.854 82.51C117.104 82.04 117.229 81.495 117.229 80.875ZM130.801 76.63C131.441 76.63 132.011 76.765 132.511 77.035C133.011 77.295 133.406 77.69 133.696 78.22C133.986 78.75 134.131 79.395 134.131 80.155V85H132.781V80.35C132.781 79.53 132.576 78.905 132.166 78.475C131.766 78.035 131.221 77.815 130.531 77.815C129.821 77.815 129.256 78.045 128.836 78.505C128.416 78.955 128.206 79.61 128.206 80.47V85H126.856V80.35C126.856 79.53 126.651 78.905 126.241 78.475C125.841 78.035 125.296 77.815 124.606 77.815C123.896 77.815 123.331 78.045 122.911 78.505C122.491 78.955 122.281 79.61 122.281 80.47V85H120.916V76.78H122.281V77.965C122.551 77.535 122.911 77.205 123.361 76.975C123.821 76.745 124.326 76.63 124.876 76.63C125.566 76.63 126.176 76.785 126.706 77.095C127.236 77.405 127.631 77.86 127.891 78.46C128.121 77.88 128.501 77.43 129.031 77.11C129.561 76.79 130.151 76.63 130.801 76.63ZM137.735 78.295C138.005 77.825 138.405 77.435 138.935 77.125C139.475 76.805 140.1 76.645 140.81 76.645C141.54 76.645 142.2 76.82 142.79 77.17C143.39 77.52 143.86 78.015 144.2 78.655C144.54 79.285 144.71 80.02 144.71 80.86C144.71 81.69 144.54 82.43 144.2 83.08C143.86 83.73 143.39 84.235 142.79 84.595C142.2 84.955 141.54 85.135 140.81 85.135C140.11 85.135 139.49 84.98 138.95 84.67C138.42 84.35 138.015 83.955 137.735 83.485V88.9H136.37V76.78H137.735V78.295ZM143.315 80.86C143.315 80.24 143.19 79.7 142.94 79.24C142.69 78.78 142.35 78.43 141.92 78.19C141.5 77.95 141.035 77.83 140.525 77.83C140.025 77.83 139.56 77.955 139.13 78.205C138.71 78.445 138.37 78.8 138.11 79.27C137.86 79.73 137.735 80.265 137.735 80.875C137.735 81.495 137.86 82.04 138.11 82.51C138.37 82.97 138.71 83.325 139.13 83.575C139.56 83.815 140.025 83.935 140.525 83.935C141.035 83.935 141.5 83.815 141.92 83.575C142.35 83.325 142.69 82.97 142.94 82.51C143.19 82.04 143.315 81.49 143.315 80.86ZM147.872 73.9V85H146.507V73.9H147.872ZM157.698 80.575C157.698 80.835 157.683 81.11 157.653 81.4H151.083C151.133 82.21 151.408 82.845 151.908 83.305C152.418 83.755 153.033 83.98 153.753 83.98C154.343 83.98 154.833 83.845 155.223 83.575C155.623 83.295 155.903 82.925 156.063 82.465H157.533C157.313 83.255 156.873 83.9 156.213 84.4C155.553 84.89 154.733 85.135 153.753 85.135C152.973 85.135 152.273 84.96 151.653 84.61C151.043 84.26 150.563 83.765 150.213 83.125C149.863 82.475 149.688 81.725 149.688 80.875C149.688 80.025 149.858 79.28 150.198 78.64C150.538 78 151.013 77.51 151.623 77.17C152.243 76.82 152.953 76.645 153.753 76.645C154.533 76.645 155.223 76.815 155.823 77.155C156.423 77.495 156.883 77.965 157.203 78.565C157.533 79.155 157.698 79.825 157.698 80.575ZM156.288 80.29C156.288 79.77 156.173 79.325 155.943 78.955C155.713 78.575 155.398 78.29 154.998 78.1C154.608 77.9 154.173 77.8 153.693 77.8C153.003 77.8 152.413 78.02 151.923 78.46C151.443 78.9 151.168 79.51 151.098 80.29H156.288ZM162.41 85.135C161.78 85.135 161.215 85.03 160.715 84.82C160.215 84.6 159.82 84.3 159.53 83.92C159.24 83.53 159.08 83.085 159.05 82.585H160.46C160.5 82.995 160.69 83.33 161.03 83.59C161.38 83.85 161.835 83.98 162.395 83.98C162.915 83.98 163.325 83.865 163.625 83.635C163.925 83.405 164.075 83.115 164.075 82.765C164.075 82.405 163.915 82.14 163.595 81.97C163.275 81.79 162.78 81.615 162.11 81.445C161.5 81.285 161 81.125 160.61 80.965C160.23 80.795 159.9 80.55 159.62 80.23C159.35 79.9 159.215 79.47 159.215 78.94C159.215 78.52 159.34 78.135 159.59 77.785C159.84 77.435 160.195 77.16 160.655 76.96C161.115 76.75 161.64 76.645 162.23 76.645C163.14 76.645 163.875 76.875 164.435 77.335C164.995 77.795 165.295 78.425 165.335 79.225H163.97C163.94 78.795 163.765 78.45 163.445 78.19C163.135 77.93 162.715 77.8 162.185 77.8C161.695 77.8 161.305 77.905 161.015 78.115C160.725 78.325 160.58 78.6 160.58 78.94C160.58 79.21 160.665 79.435 160.835 79.615C161.015 79.785 161.235 79.925 161.495 80.035C161.765 80.135 162.135 80.25 162.605 80.38C163.195 80.54 163.675 80.7 164.045 80.86C164.415 81.01 164.73 81.24 164.99 81.55C165.26 81.86 165.4 82.265 165.41 82.765C165.41 83.215 165.285 83.62 165.035 83.98C164.785 84.34 164.43 84.625 163.97 84.835C163.52 85.035 163 85.135 162.41 85.135Z" fill="#394253" fill-opacity="0.8"/>
<path d="M60.772 203L58.614 199.295H57.184V203H56.001V193.939H58.926C59.6107 193.939 60.187 194.056 60.655 194.29C61.1317 194.524 61.487 194.84 61.721 195.239C61.955 195.638 62.072 196.093 62.072 196.604C62.072 197.228 61.89 197.778 61.526 198.255C61.1707 198.732 60.6333 199.048 59.914 199.204L62.189 203H60.772ZM57.184 198.346H58.926C59.5673 198.346 60.0483 198.19 60.369 197.878C60.6897 197.557 60.85 197.133 60.85 196.604C60.85 196.067 60.6897 195.651 60.369 195.356C60.057 195.061 59.576 194.914 58.926 194.914H57.184V198.346ZM70.4102 199.165C70.4102 199.39 70.3972 199.629 70.3712 199.88H64.6772C64.7205 200.582 64.9588 201.132 65.3922 201.531C65.8342 201.921 66.3672 202.116 66.9912 202.116C67.5025 202.116 67.9272 201.999 68.2652 201.765C68.6118 201.522 68.8545 201.202 68.9932 200.803H70.2672C70.0765 201.488 69.6952 202.047 69.1232 202.48C68.5512 202.905 67.8405 203.117 66.9912 203.117C66.3152 203.117 65.7085 202.965 65.1712 202.662C64.6425 202.359 64.2265 201.93 63.9232 201.375C63.6198 200.812 63.4682 200.162 63.4682 199.425C63.4682 198.688 63.6155 198.043 63.9102 197.488C64.2048 196.933 64.6165 196.509 65.1452 196.214C65.6825 195.911 66.2978 195.759 66.9912 195.759C67.6672 195.759 68.2652 195.906 68.7852 196.201C69.3052 196.496 69.7038 196.903 69.9812 197.423C70.2672 197.934 70.4102 198.515 70.4102 199.165ZM69.1882 198.918C69.1882 198.467 69.0885 198.082 68.8892 197.761C68.6898 197.432 68.4168 197.185 68.0702 197.02C67.7322 196.847 67.3552 196.76 66.9392 196.76C66.3412 196.76 65.8298 196.951 65.4052 197.332C64.9892 197.713 64.7508 198.242 64.6902 198.918H69.1882ZM71.5297 199.425C71.5297 198.688 71.677 198.047 71.9717 197.501C72.2664 196.946 72.6737 196.517 73.1937 196.214C73.7224 195.911 74.3247 195.759 75.0007 195.759C75.876 195.759 76.5954 195.971 77.1587 196.396C77.7307 196.821 78.1077 197.41 78.2897 198.164H77.0157C76.8944 197.731 76.656 197.388 76.3007 197.137C75.954 196.886 75.5207 196.76 75.0007 196.76C74.3247 196.76 73.7787 196.994 73.3627 197.462C72.9467 197.921 72.7387 198.576 72.7387 199.425C72.7387 200.283 72.9467 200.946 73.3627 201.414C73.7787 201.882 74.3247 202.116 75.0007 202.116C75.5207 202.116 75.954 201.995 76.3007 201.752C76.6474 201.509 76.8857 201.163 77.0157 200.712H78.2897C78.099 201.44 77.7177 202.025 77.1457 202.467C76.5737 202.9 75.8587 203.117 75.0007 203.117C74.3247 203.117 73.7224 202.965 73.1937 202.662C72.6737 202.359 72.2664 201.93 71.9717 201.375C71.677 200.82 71.5297 200.17 71.5297 199.425ZM82.9752 203.117C82.3079 203.117 81.7012 202.965 81.1552 202.662C80.6179 202.359 80.1932 201.93 79.8812 201.375C79.5779 200.812 79.4262 200.162 79.4262 199.425C79.4262 198.697 79.5822 198.056 79.8942 197.501C80.2149 196.938 80.6482 196.509 81.1942 196.214C81.7402 195.911 82.3512 195.759 83.0272 195.759C83.7032 195.759 84.3142 195.911 84.8602 196.214C85.4062 196.509 85.8352 196.933 86.1472 197.488C86.4679 198.043 86.6282 198.688 86.6282 199.425C86.6282 200.162 86.4635 200.812 86.1342 201.375C85.8135 201.93 85.3759 202.359 84.8212 202.662C84.2665 202.965 83.6512 203.117 82.9752 203.117ZM82.9752 202.077C83.3999 202.077 83.7985 201.977 84.1712 201.778C84.5439 201.579 84.8429 201.28 85.0682 200.881C85.3022 200.482 85.4192 199.997 85.4192 199.425C85.4192 198.853 85.3065 198.368 85.0812 197.969C84.8559 197.57 84.5612 197.276 84.1972 197.085C83.8332 196.886 83.4389 196.786 83.0142 196.786C82.5809 196.786 82.1822 196.886 81.8182 197.085C81.4629 197.276 81.1769 197.57 80.9602 197.969C80.7435 198.368 80.6352 198.853 80.6352 199.425C80.6352 200.006 80.7392 200.495 80.9472 200.894C81.1639 201.293 81.4499 201.592 81.8052 201.791C82.1605 201.982 82.5505 202.077 82.9752 202.077ZM96.7506 195.746C97.3053 195.746 97.7993 195.863 98.2326 196.097C98.666 196.322 99.0083 196.665 99.2596 197.124C99.511 197.583 99.6366 198.142 99.6366 198.801V203H98.4666V198.97C98.4666 198.259 98.289 197.718 97.9336 197.345C97.587 196.964 97.1146 196.773 96.5166 196.773C95.9013 196.773 95.4116 196.972 95.0476 197.371C94.6836 197.761 94.5016 198.329 94.5016 199.074V203H93.3316V198.97C93.3316 198.259 93.154 197.718 92.7986 197.345C92.452 196.964 91.9796 196.773 91.3816 196.773C90.7663 196.773 90.2766 196.972 89.9126 197.371C89.5486 197.761 89.3666 198.329 89.3666 199.074V203H88.1836V195.876H89.3666V196.903C89.6006 196.53 89.9126 196.244 90.3026 196.045C90.7013 195.846 91.139 195.746 91.6156 195.746C92.2136 195.746 92.7423 195.88 93.2016 196.149C93.661 196.418 94.0033 196.812 94.2286 197.332C94.428 196.829 94.7573 196.439 95.2166 196.162C95.676 195.885 96.1873 195.746 96.7506 195.746ZM110.144 195.746C110.699 195.746 111.193 195.863 111.626 196.097C112.06 196.322 112.402 196.665 112.653 197.124C112.905 197.583 113.03 198.142 113.03 198.801V203H111.86V198.97C111.86 198.259 111.683 197.718 111.327 197.345C110.981 196.964 110.508 196.773 109.91 196.773C109.295 196.773 108.805 196.972 108.441 197.371C108.077 197.761 107.895 198.329 107.895 199.074V203H106.725V198.97C106.725 198.259 106.548 197.718 106.192 197.345C105.846 196.964 105.373 196.773 104.775 196.773C104.16 196.773 103.67 196.972 103.306 197.371C102.942 197.761 102.76 198.329 102.76 199.074V203H101.577V195.876H102.76V196.903C102.994 196.53 103.306 196.244 103.696 196.045C104.095 195.846 104.533 195.746 105.009 195.746C105.607 195.746 106.136 195.88 106.595 196.149C107.055 196.418 107.397 196.812 107.622 197.332C107.822 196.829 108.151 196.439 108.61 196.162C109.07 195.885 109.581 195.746 110.144 195.746ZM121.471 199.165C121.471 199.39 121.458 199.629 121.432 199.88H115.738C115.781 200.582 116.019 201.132 116.453 201.531C116.895 201.921 117.428 202.116 118.052 202.116C118.563 202.116 118.988 201.999 119.326 201.765C119.672 201.522 119.915 201.202 120.054 200.803H121.328C121.137 201.488 120.756 202.047 120.184 202.48C119.612 202.905 118.901 203.117 118.052 203.117C117.376 203.117 116.769 202.965 116.232 202.662C115.703 202.359 115.287 201.93 114.984 201.375C114.68 200.812 114.529 200.162 114.529 199.425C114.529 198.688 114.676 198.043 114.971 197.488C115.265 196.933 115.677 196.509 116.206 196.214C116.743 195.911 117.358 195.759 118.052 195.759C118.728 195.759 119.326 195.906 119.846 196.201C120.366 196.496 120.764 196.903 121.042 197.423C121.328 197.934 121.471 198.515 121.471 199.165ZM120.249 198.918C120.249 198.467 120.149 198.082 119.95 197.761C119.75 197.432 119.477 197.185 119.131 197.02C118.793 196.847 118.416 196.76 118 196.76C117.402 196.76 116.89 196.951 116.466 197.332C116.05 197.713 115.811 198.242 115.751 198.918H120.249ZM126.503 195.746C127.37 195.746 128.072 196.01 128.609 196.539C129.147 197.059 129.415 197.813 129.415 198.801V203H128.245V198.97C128.245 198.259 128.068 197.718 127.712 197.345C127.357 196.964 126.872 196.773 126.256 196.773C125.632 196.773 125.134 196.968 124.761 197.358C124.397 197.748 124.215 198.316 124.215 199.061V203H123.032V195.876H124.215V196.89C124.449 196.526 124.766 196.244 125.164 196.045C125.572 195.846 126.018 195.746 126.503 195.746ZM130.906 199.412C130.906 198.684 131.053 198.047 131.348 197.501C131.642 196.946 132.045 196.517 132.557 196.214C133.077 195.911 133.657 195.759 134.299 195.759C134.853 195.759 135.369 195.889 135.846 196.149C136.322 196.4 136.686 196.734 136.938 197.15V193.38H138.134V203H136.938V201.661C136.704 202.086 136.357 202.437 135.898 202.714C135.438 202.983 134.901 203.117 134.286 203.117C133.653 203.117 133.077 202.961 132.557 202.649C132.045 202.337 131.642 201.899 131.348 201.336C131.053 200.773 130.906 200.131 130.906 199.412ZM136.938 199.425C136.938 198.888 136.829 198.42 136.613 198.021C136.396 197.622 136.101 197.319 135.729 197.111C135.365 196.894 134.962 196.786 134.52 196.786C134.078 196.786 133.675 196.89 133.311 197.098C132.947 197.306 132.656 197.609 132.44 198.008C132.223 198.407 132.115 198.875 132.115 199.412C132.115 199.958 132.223 200.435 132.44 200.842C132.656 201.241 132.947 201.548 133.311 201.765C133.675 201.973 134.078 202.077 134.52 202.077C134.962 202.077 135.365 201.973 135.729 201.765C136.101 201.548 136.396 201.241 136.613 200.842C136.829 200.435 136.938 199.962 136.938 199.425ZM146.633 199.165C146.633 199.39 146.62 199.629 146.594 199.88H140.9C140.943 200.582 141.182 201.132 141.615 201.531C142.057 201.921 142.59 202.116 143.214 202.116C143.725 202.116 144.15 201.999 144.488 201.765C144.835 201.522 145.077 201.202 145.216 200.803H146.49C146.299 201.488 145.918 202.047 145.346 202.48C144.774 202.905 144.063 203.117 143.214 203.117C142.538 203.117 141.931 202.965 141.394 202.662C140.865 202.359 140.449 201.93 140.146 201.375C139.843 200.812 139.691 200.162 139.691 199.425C139.691 198.688 139.838 198.043 140.133 197.488C140.428 196.933 140.839 196.509 141.368 196.214C141.905 195.911 142.521 195.759 143.214 195.759C143.89 195.759 144.488 195.906 145.008 196.201C145.528 196.496 145.927 196.903 146.204 197.423C146.49 197.934 146.633 198.515 146.633 199.165ZM145.411 198.918C145.411 198.467 145.311 198.082 145.112 197.761C144.913 197.432 144.64 197.185 144.293 197.02C143.955 196.847 143.578 196.76 143.162 196.76C142.564 196.76 142.053 196.951 141.628 197.332C141.212 197.713 140.974 198.242 140.913 198.918H145.411ZM147.752 199.412C147.752 198.684 147.9 198.047 148.194 197.501C148.489 196.946 148.892 196.517 149.403 196.214C149.923 195.911 150.504 195.759 151.145 195.759C151.7 195.759 152.216 195.889 152.692 196.149C153.169 196.4 153.533 196.734 153.784 197.15V193.38H154.98V203H153.784V201.661C153.55 202.086 153.204 202.437 152.744 202.714C152.285 202.983 151.748 203.117 151.132 203.117C150.5 203.117 149.923 202.961 149.403 202.649C148.892 202.337 148.489 201.899 148.194 201.336C147.9 200.773 147.752 200.131 147.752 199.412ZM153.784 199.425C153.784 198.888 153.676 198.42 153.459 198.021C153.243 197.622 152.948 197.319 152.575 197.111C152.211 196.894 151.808 196.786 151.366 196.786C150.924 196.786 150.521 196.89 150.157 197.098C149.793 197.306 149.503 197.609 149.286 198.008C149.07 198.407 148.961 198.875 148.961 199.412C148.961 199.958 149.07 200.435 149.286 200.842C149.503 201.241 149.793 201.548 150.157 201.765C150.521 201.973 150.924 202.077 151.366 202.077C151.808 202.077 152.211 201.973 152.575 201.765C152.948 201.548 153.243 201.241 153.459 200.842C153.676 200.435 153.784 199.962 153.784 199.425Z" fill="#394253"/>
<path d="M189.512 44.727V51H188.693V44.727H189.512ZM193.811 45.978C194.411 45.978 194.897 46.161 195.269 46.527C195.641 46.887 195.827 47.409 195.827 48.093V51H195.017V48.21C195.017 47.718 194.894 47.343 194.648 47.085C194.402 46.821 194.066 46.689 193.64 46.689C193.208 46.689 192.863 46.824 192.605 47.094C192.353 47.364 192.227 47.757 192.227 48.273V51H191.408V46.068H192.227V46.77C192.389 46.518 192.608 46.323 192.884 46.185C193.166 46.047 193.475 45.978 193.811 45.978ZM204.272 49.605H201.536L201.032 51H200.168L202.436 44.763H203.381L205.64 51H204.776L204.272 49.605ZM204.038 48.939L202.904 45.771L201.77 48.939H204.038ZM209.532 45.978C210.132 45.978 210.618 46.161 210.99 46.527C211.362 46.887 211.548 47.409 211.548 48.093V51H210.738V48.21C210.738 47.718 210.615 47.343 210.369 47.085C210.123 46.821 209.787 46.689 209.361 46.689C208.929 46.689 208.584 46.824 208.326 47.094C208.074 47.364 207.948 47.757 207.948 48.273V51H207.129V46.068H207.948V46.77C208.11 46.518 208.329 46.323 208.605 46.185C208.887 46.047 209.196 45.978 209.532 45.978ZM213.079 48.516C213.079 48.012 213.181 47.571 213.385 47.193C213.589 46.809 213.868 46.512 214.222 46.302C214.582 46.092 214.981 45.987 215.419 45.987C215.851 45.987 216.226 46.08 216.544 46.266C216.862 46.452 217.099 46.686 217.255 46.968V46.068H218.083V51H217.255V50.082C217.093 50.37 216.85 50.61 216.526 50.802C216.208 50.988 215.836 51.081 215.41 51.081C214.972 51.081 214.576 50.973 214.222 50.757C213.868 50.541 213.589 50.238 213.385 49.848C213.181 49.458 213.079 49.014 213.079 48.516ZM217.255 48.525C217.255 48.153 217.18 47.829 217.03 47.553C216.88 47.277 216.676 47.067 216.418 46.923C216.166 46.773 215.887 46.698 215.581 46.698C215.275 46.698 214.996 46.77 214.744 46.914C214.492 47.058 214.291 47.268 214.141 47.544C213.991 47.82 213.916 48.144 213.916 48.516C213.916 48.894 213.991 49.224 214.141 49.506C214.291 49.782 214.492 49.995 214.744 50.145C214.996 50.289 215.275 50.361 215.581 50.361C215.887 50.361 216.166 50.289 216.418 50.145C216.676 49.995 216.88 49.782 217.03 49.506C217.18 49.224 217.255 48.897 217.255 48.525ZM220.786 44.34V51H219.967V44.34H220.786ZM226.93 46.068L223.96 53.322H223.114L224.086 50.946L222.097 46.068H223.006L224.554 50.064L226.084 46.068H226.93ZM230 51.081C229.622 51.081 229.283 51.018 228.983 50.892C228.683 50.76 228.446 50.58 228.272 50.352C228.098 50.118 228.002 49.851 227.984 49.551H228.83C228.854 49.797 228.968 49.998 229.172 50.154C229.382 50.31 229.655 50.388 229.991 50.388C230.303 50.388 230.549 50.319 230.729 50.181C230.909 50.043 230.999 49.869 230.999 49.659C230.999 49.443 230.903 49.284 230.711 49.182C230.519 49.074 230.222 48.969 229.82 48.867C229.454 48.771 229.154 48.675 228.92 48.579C228.692 48.477 228.494 48.33 228.326 48.138C228.164 47.94 228.083 47.682 228.083 47.364C228.083 47.112 228.158 46.881 228.308 46.671C228.458 46.461 228.671 46.296 228.947 46.176C229.223 46.05 229.538 45.987 229.892 45.987C230.438 45.987 230.879 46.125 231.215 46.401C231.551 46.677 231.731 47.055 231.755 47.535H230.936C230.918 47.277 230.813 47.07 230.621 46.914C230.435 46.758 230.183 46.68 229.865 46.68C229.571 46.68 229.337 46.743 229.163 46.869C228.989 46.995 228.902 47.16 228.902 47.364C228.902 47.526 228.953 47.661 229.055 47.769C229.163 47.871 229.295 47.955 229.451 48.021C229.613 48.081 229.835 48.15 230.117 48.228C230.471 48.324 230.759 48.42 230.981 48.516C231.203 48.606 231.392 48.744 231.548 48.93C231.71 49.116 231.794 49.359 231.8 49.659C231.8 49.929 231.725 50.172 231.575 50.388C231.425 50.604 231.212 50.775 230.936 50.901C230.666 51.021 230.354 51.081 230 51.081ZM233.879 45.267C233.723 45.267 233.591 45.213 233.483 45.105C233.375 44.997 233.321 44.865 233.321 44.709C233.321 44.553 233.375 44.421 233.483 44.313C233.591 44.205 233.723 44.151 233.879 44.151C234.029 44.151 234.155 44.205 234.257 44.313C234.365 44.421 234.419 44.553 234.419 44.709C234.419 44.865 234.365 44.997 234.257 45.105C234.155 45.213 234.029 45.267 233.879 45.267ZM234.275 46.068V51H233.456V46.068H234.275ZM237.917 51.081C237.539 51.081 237.2 51.018 236.9 50.892C236.6 50.76 236.363 50.58 236.189 50.352C236.015 50.118 235.919 49.851 235.901 49.551H236.747C236.771 49.797 236.885 49.998 237.089 50.154C237.299 50.31 237.572 50.388 237.908 50.388C238.22 50.388 238.466 50.319 238.646 50.181C238.826 50.043 238.916 49.869 238.916 49.659C238.916 49.443 238.82 49.284 238.628 49.182C238.436 49.074 238.139 48.969 237.737 48.867C237.371 48.771 237.071 48.675 236.837 48.579C236.609 48.477 236.411 48.33 236.243 48.138C236.081 47.94 236 47.682 236 47.364C236 47.112 236.075 46.881 236.225 46.671C236.375 46.461 236.588 46.296 236.864 46.176C237.14 46.05 237.455 45.987 237.809 45.987C238.355 45.987 238.796 46.125 239.132 46.401C239.468 46.677 239.648 47.055 239.672 47.535H238.853C238.835 47.277 238.73 47.07 238.538 46.914C238.352 46.758 238.1 46.68 237.782 46.68C237.488 46.68 237.254 46.743 237.08 46.869C236.906 46.995 236.819 47.16 236.819 47.364C236.819 47.526 236.87 47.661 236.972 47.769C237.08 47.871 237.212 47.955 237.368 48.021C237.53 48.081 237.752 48.15 238.034 48.228C238.388 48.324 238.676 48.42 238.898 48.516C239.12 48.606 239.309 48.744 239.465 48.93C239.627 49.116 239.711 49.359 239.717 49.659C239.717 49.929 239.642 50.172 239.492 50.388C239.342 50.604 239.129 50.775 238.853 50.901C238.583 51.021 238.271 51.081 237.917 51.081Z" fill="#394253"/>
<rect x="189" y="29" width="10" height="10" fill="#13115B"/>
<path d="M353.64 168.82C353.64 156.058 356.153 143.421 361.037 131.631C365.921 119.84 373.079 109.127 382.103 100.103C391.127 91.0792 401.84 83.9209 413.631 79.0372C425.421 74.1534 438.058 71.6398 450.82 71.6398C463.582 71.6398 476.219 74.1535 488.009 79.0372C499.8 83.921 510.513 91.0792 519.537 100.103C528.561 109.127 535.719 119.84 540.603 131.631C545.486 143.421 548 156.058 548 168.82L450.82 168.82L353.64 168.82Z" fill="#ADB3C0"/>
<path opacity="0.8" d="M519.537 100.104C505.947 86.5132 488.631 77.2576 469.78 73.5079C450.929 69.7582 431.389 71.6827 413.631 79.038C395.874 86.3934 380.697 98.8492 370.018 114.83C359.34 130.812 353.641 149.6 353.641 168.821L450.821 168.821L519.537 100.104Z" fill="#52DE97"/>
<path d="M358.286 168.822C358.286 144.28 368.036 120.743 385.389 103.389C402.743 86.0356 426.28 76.2864 450.822 76.2864C475.364 76.2864 498.901 86.0356 516.254 103.389C533.608 120.743 543.357 144.28 543.357 168.822L450.822 168.822L358.286 168.822Z" fill="#F9F9F9"/>
<path d="M342.907 165.679C342.907 164.647 343.075 163.843 343.411 163.267C343.747 162.685 344.335 162.394 345.175 162.394C346.009 162.394 346.594 162.685 346.93 163.267C347.266 163.843 347.434 164.647 347.434 165.679C347.434 166.729 347.266 167.545 346.93 168.127C346.594 168.709 346.009 169 345.175 169C344.335 169 343.747 168.709 343.411 168.127C343.075 167.545 342.907 166.729 342.907 165.679ZM346.624 165.679C346.624 165.157 346.588 164.716 346.516 164.356C346.45 163.99 346.309 163.696 346.093 163.474C345.883 163.252 345.577 163.141 345.175 163.141C344.767 163.141 344.455 163.252 344.239 163.474C344.029 163.696 343.888 163.99 343.816 164.356C343.75 164.716 343.717 165.157 343.717 165.679C343.717 166.219 343.75 166.672 343.816 167.038C343.888 167.404 344.029 167.698 344.239 167.92C344.455 168.142 344.767 168.253 345.175 168.253C345.577 168.253 345.883 168.142 346.093 167.92C346.309 167.698 346.45 167.404 346.516 167.038C346.588 166.672 346.624 166.219 346.624 165.679Z" fill="#ADB3C0"/>
<path d="M553.342 163.24V162.493H555.034V169H554.206V163.24H553.342ZM556.441 165.679C556.441 164.647 556.609 163.843 556.945 163.267C557.281 162.685 557.869 162.394 558.709 162.394C559.543 162.394 560.128 162.685 560.464 163.267C560.8 163.843 560.968 164.647 560.968 165.679C560.968 166.729 560.8 167.545 560.464 168.127C560.128 168.709 559.543 169 558.709 169C557.869 169 557.281 168.709 556.945 168.127C556.609 167.545 556.441 166.729 556.441 165.679ZM560.158 165.679C560.158 165.157 560.122 164.716 560.05 164.356C559.984 163.99 559.843 163.696 559.627 163.474C559.417 163.252 559.111 163.141 558.709 163.141C558.301 163.141 557.989 163.252 557.773 163.474C557.563 163.696 557.422 163.99 557.35 164.356C557.284 164.716 557.251 165.157 557.251 165.679C557.251 166.219 557.284 166.672 557.35 167.038C557.422 167.404 557.563 167.698 557.773 167.92C557.989 168.142 558.301 168.253 558.709 168.253C559.111 168.253 559.417 168.142 559.627 167.92C559.843 167.698 559.984 167.404 560.05 167.038C560.122 166.672 560.158 166.219 560.158 165.679ZM562.092 165.679C562.092 164.647 562.26 163.843 562.596 163.267C562.932 162.685 563.52 162.394 564.36 162.394C565.194 162.394 565.779 162.685 566.115 163.267C566.451 163.843 566.619 164.647 566.619 165.679C566.619 166.729 566.451 167.545 566.115 168.127C565.779 168.709 565.194 169 564.36 169C563.52 169 562.932 168.709 562.596 168.127C562.26 167.545 562.092 166.729 562.092 165.679ZM565.809 165.679C565.809 165.157 565.773 164.716 565.701 164.356C565.635 163.99 565.494 163.696 565.278 163.474C565.068 163.252 564.762 163.141 564.36 163.141C563.952 163.141 563.64 163.252 563.424 163.474C563.214 163.696 563.073 163.99 563.001 164.356C562.935 164.716 562.902 165.157 562.902 165.679C562.902 166.219 562.935 166.672 563.001 167.038C563.073 167.404 563.214 167.698 563.424 167.92C563.64 168.142 563.952 168.253 564.36 168.253C564.762 168.253 565.068 168.142 565.278 167.92C565.494 167.698 565.635 167.404 565.701 167.038C565.773 166.672 565.809 166.219 565.809 165.679Z" fill="#ADB3C0"/>
<path d="M404.62 125.33C404.62 121.202 405.412 117.95 406.996 115.574C408.604 113.198 411.184 112.01 414.736 112.01C418.288 112.01 420.856 113.198 422.44 115.574C424.048 117.95 424.852 121.202 424.852 125.33C424.852 129.506 424.048 132.782 422.44 135.158C420.856 137.534 418.288 138.722 414.736 138.722C411.184 138.722 408.604 137.534 406.996 135.158C405.412 132.782 404.62 129.506 404.62 125.33ZM418.804 125.33C418.804 122.906 418.54 121.046 418.012 119.75C417.484 118.43 416.392 117.77 414.736 117.77C413.08 117.77 411.988 118.43 411.46 119.75C410.932 121.046 410.668 122.906 410.668 125.33C410.668 126.962 410.764 128.318 410.956 129.398C411.148 130.454 411.532 131.318 412.108 131.99C412.708 132.638 413.584 132.962 414.736 132.962C415.888 132.962 416.752 132.638 417.328 131.99C417.928 131.318 418.324 130.454 418.516 129.398C418.708 128.318 418.804 126.962 418.804 125.33ZM431.596 139.118C430.516 139.118 429.628 138.806 428.932 138.182C428.26 137.534 427.924 136.742 427.924 135.806C427.924 134.846 428.26 134.042 428.932 133.394C429.628 132.746 430.516 132.422 431.596 132.422C432.652 132.422 433.516 132.746 434.188 133.394C434.884 134.042 435.232 134.846 435.232 135.806C435.232 136.742 434.884 137.534 434.188 138.182C433.516 138.806 432.652 139.118 431.596 139.118ZM442.585 124.718C440.329 123.518 439.201 121.634 439.201 119.066C439.201 117.77 439.537 116.594 440.209 115.538C440.881 114.458 441.901 113.606 443.269 112.982C444.637 112.334 446.317 112.01 448.309 112.01C450.301 112.01 451.969 112.334 453.313 112.982C454.681 113.606 455.701 114.458 456.373 115.538C457.045 116.594 457.381 117.77 457.381 119.066C457.381 120.362 457.069 121.49 456.445 122.45C455.845 123.41 455.029 124.166 453.997 124.718C455.293 125.342 456.289 126.206 456.985 127.31C457.681 128.39 458.029 129.662 458.029 131.126C458.029 132.83 457.597 134.306 456.733 135.554C455.869 136.778 454.693 137.714 453.205 138.362C451.741 139.01 450.109 139.334 448.309 139.334C446.509 139.334 444.865 139.01 443.377 138.362C441.913 137.714 440.749 136.778 439.885 135.554C439.021 134.306 438.589 132.83 438.589 131.126C438.589 129.638 438.937 128.354 439.633 127.274C440.329 126.17 441.313 125.318 442.585 124.718ZM451.405 120.002C451.405 119.018 451.117 118.262 450.541 117.734C449.989 117.182 449.245 116.906 448.309 116.906C447.373 116.906 446.617 117.182 446.041 117.734C445.489 118.286 445.213 119.054 445.213 120.038C445.213 120.974 445.501 121.718 446.077 122.27C446.653 122.798 447.397 123.062 448.309 123.062C449.221 123.062 449.965 122.786 450.541 122.234C451.117 121.682 451.405 120.938 451.405 120.002ZM448.309 127.382C447.181 127.382 446.269 127.694 445.573 128.318C444.877 128.918 444.529 129.758 444.529 130.838C444.529 131.846 444.865 132.674 445.537 133.322C446.233 133.97 447.157 134.294 448.309 134.294C449.461 134.294 450.361 133.97 451.009 133.322C451.681 132.674 452.017 131.846 452.017 130.838C452.017 129.782 451.669 128.942 450.973 128.318C450.301 127.694 449.413 127.382 448.309 127.382ZM461.824 119.966C461.92 117.398 462.76 115.418 464.344 114.026C465.928 112.634 468.076 111.938 470.788 111.938C472.588 111.938 474.124 112.25 475.396 112.874C476.692 113.498 477.664 114.35 478.312 115.43C478.984 116.51 479.32 117.722 479.32 119.066C479.32 120.65 478.924 121.946 478.132 122.954C477.34 123.938 476.416 124.61 475.36 124.97V125.114C476.728 125.57 477.808 126.326 478.6 127.382C479.392 128.438 479.788 129.794 479.788 131.45C479.788 132.938 479.44 134.258 478.744 135.41C478.072 136.538 477.076 137.426 475.756 138.074C474.46 138.722 472.912 139.046 471.112 139.046C468.232 139.046 465.928 138.338 464.2 136.922C462.496 135.506 461.596 133.37 461.5 130.514H467.476C467.5 131.57 467.8 132.41 468.376 133.034C468.952 133.634 469.792 133.934 470.896 133.934C471.832 133.934 472.552 133.67 473.056 133.142C473.584 132.59 473.848 131.87 473.848 130.982C473.848 129.83 473.476 129.002 472.732 128.498C472.012 127.97 470.848 127.706 469.24 127.706H468.088V122.702H469.24C470.464 122.702 471.448 122.498 472.192 122.09C472.96 121.658 473.344 120.902 473.344 119.822C473.344 118.958 473.104 118.286 472.624 117.806C472.144 117.326 471.484 117.086 470.644 117.086C469.732 117.086 469.048 117.362 468.592 117.914C468.16 118.466 467.908 119.15 467.836 119.966H461.824ZM490.029 131.126C490.389 133.022 491.493 133.97 493.341 133.97C494.613 133.97 495.513 133.406 496.041 132.278C496.569 131.15 496.833 129.314 496.833 126.77C496.305 127.514 495.585 128.09 494.673 128.498C493.761 128.906 492.741 129.11 491.613 129.11C490.077 129.11 488.709 128.798 487.509 128.174C486.309 127.526 485.361 126.578 484.665 125.33C483.993 124.058 483.657 122.522 483.657 120.722C483.657 118.946 484.017 117.398 484.737 116.078C485.481 114.758 486.525 113.738 487.869 113.018C489.237 112.298 490.845 111.938 492.693 111.938C496.245 111.938 498.729 113.042 500.145 115.25C501.561 117.458 502.269 120.71 502.269 125.006C502.269 128.126 501.981 130.706 501.405 132.746C500.853 134.762 499.905 136.298 498.561 137.354C497.241 138.41 495.429 138.938 493.125 138.938C491.301 138.938 489.741 138.578 488.445 137.858C487.173 137.138 486.189 136.19 485.493 135.014C484.821 133.838 484.437 132.542 484.341 131.126H490.029ZM493.017 124.25C494.025 124.25 494.829 123.95 495.429 123.35C496.029 122.726 496.329 121.886 496.329 120.83C496.329 119.678 496.017 118.79 495.393 118.166C494.769 117.542 493.929 117.23 492.873 117.23C491.817 117.23 490.977 117.554 490.353 118.202C489.753 118.826 489.453 119.69 489.453 120.794C489.453 121.826 489.753 122.666 490.353 123.314C490.977 123.938 491.865 124.25 493.017 124.25Z" fill="#394253"/>
<path d="M393.47 168.935C392.78 168.935 392.16 168.815 391.61 168.575C391.07 168.325 390.645 167.985 390.335 167.555C390.025 167.115 389.865 166.61 389.855 166.04H391.31C391.36 166.53 391.56 166.945 391.91 167.285C392.27 167.615 392.79 167.78 393.47 167.78C394.12 167.78 394.63 167.62 395 167.3C395.38 166.97 395.57 166.55 395.57 166.04C395.57 165.64 395.46 165.315 395.24 165.065C395.02 164.815 394.745 164.625 394.415 164.495C394.085 164.365 393.64 164.225 393.08 164.075C392.39 163.895 391.835 163.715 391.415 163.535C391.005 163.355 390.65 163.075 390.35 162.695C390.06 162.305 389.915 161.785 389.915 161.135C389.915 160.565 390.06 160.06 390.35 159.62C390.64 159.18 391.045 158.84 391.565 158.6C392.095 158.36 392.7 158.24 393.38 158.24C394.36 158.24 395.16 158.485 395.78 158.975C396.41 159.465 396.765 160.115 396.845 160.925H395.345C395.295 160.525 395.085 160.175 394.715 159.875C394.345 159.565 393.855 159.41 393.245 159.41C392.675 159.41 392.21 159.56 391.85 159.86C391.49 160.15 391.31 160.56 391.31 161.09C391.31 161.47 391.415 161.78 391.625 162.02C391.845 162.26 392.11 162.445 392.42 162.575C392.74 162.695 393.185 162.835 393.755 162.995C394.445 163.185 395 163.375 395.42 163.565C395.84 163.745 396.2 164.03 396.5 164.42C396.8 164.8 396.95 165.32 396.95 165.98C396.95 166.49 396.815 166.97 396.545 167.42C396.275 167.87 395.875 168.235 395.345 168.515C394.815 168.795 394.19 168.935 393.47 168.935ZM399.664 159.275C399.404 159.275 399.184 159.185 399.004 159.005C398.824 158.825 398.734 158.605 398.734 158.345C398.734 158.085 398.824 157.865 399.004 157.685C399.184 157.505 399.404 157.415 399.664 157.415C399.914 157.415 400.124 157.505 400.294 157.685C400.474 157.865 400.564 158.085 400.564 158.345C400.564 158.605 400.474 158.825 400.294 159.005C400.124 159.185 399.914 159.275 399.664 159.275ZM400.324 160.61V168.83H398.959V160.61H400.324ZM404.015 157.73V168.83H402.65V157.73H404.015ZM410.422 160.46C411.042 160.46 411.602 160.595 412.102 160.865C412.602 161.125 412.992 161.52 413.272 162.05C413.562 162.58 413.707 163.225 413.707 163.985V168.83H412.357V164.18C412.357 163.36 412.152 162.735 411.742 162.305C411.332 161.865 410.772 161.645 410.062 161.645C409.342 161.645 408.767 161.87 408.337 162.32C407.917 162.77 407.707 163.425 407.707 164.285V168.83H406.342V157.73H407.707V161.78C407.977 161.36 408.347 161.035 408.817 160.805C409.297 160.575 409.832 160.46 410.422 160.46ZM419.521 168.965C418.751 168.965 418.051 168.79 417.421 168.44C416.801 168.09 416.311 167.595 415.951 166.955C415.601 166.305 415.426 165.555 415.426 164.705C415.426 163.865 415.606 163.125 415.966 162.485C416.336 161.835 416.836 161.34 417.466 161C418.096 160.65 418.801 160.475 419.581 160.475C420.361 160.475 421.066 160.65 421.696 161C422.326 161.34 422.821 161.83 423.181 162.47C423.551 163.11 423.736 163.855 423.736 164.705C423.736 165.555 423.546 166.305 423.166 166.955C422.796 167.595 422.291 168.09 421.651 168.44C421.011 168.79 420.301 168.965 419.521 168.965ZM419.521 167.765C420.011 167.765 420.471 167.65 420.901 167.42C421.331 167.19 421.676 166.845 421.936 166.385C422.206 165.925 422.341 165.365 422.341 164.705C422.341 164.045 422.211 163.485 421.951 163.025C421.691 162.565 421.351 162.225 420.931 162.005C420.511 161.775 420.056 161.66 419.566 161.66C419.066 161.66 418.606 161.775 418.186 162.005C417.776 162.225 417.446 162.565 417.196 163.025C416.946 163.485 416.821 164.045 416.821 164.705C416.821 165.375 416.941 165.94 417.181 166.4C417.431 166.86 417.761 167.205 418.171 167.435C418.581 167.655 419.031 167.765 419.521 167.765ZM432.821 160.61V168.83H431.456V167.615C431.196 168.035 430.831 168.365 430.361 168.605C429.901 168.835 429.391 168.95 428.831 168.95C428.191 168.95 427.616 168.82 427.106 168.56C426.596 168.29 426.191 167.89 425.891 167.36C425.601 166.83 425.456 166.185 425.456 165.425V160.61H426.806V165.245C426.806 166.055 427.011 166.68 427.421 167.12C427.831 167.55 428.391 167.765 429.101 167.765C429.831 167.765 430.406 167.54 430.826 167.09C431.246 166.64 431.456 165.985 431.456 165.125V160.61H432.821ZM442.626 164.405C442.626 164.665 442.611 164.94 442.581 165.23H436.011C436.061 166.04 436.336 166.675 436.836 167.135C437.346 167.585 437.961 167.81 438.681 167.81C439.271 167.81 439.761 167.675 440.151 167.405C440.551 167.125 440.831 166.755 440.991 166.295H442.461C442.241 167.085 441.801 167.73 441.141 168.23C440.481 168.72 439.661 168.965 438.681 168.965C437.901 168.965 437.201 168.79 436.581 168.44C435.971 168.09 435.491 167.595 435.141 166.955C434.791 166.305 434.616 165.555 434.616 164.705C434.616 163.855 434.786 163.11 435.126 162.47C435.466 161.83 435.941 161.34 436.551 161C437.171 160.65 437.881 160.475 438.681 160.475C439.461 160.475 440.151 160.645 440.751 160.985C441.351 161.325 441.811 161.795 442.131 162.395C442.461 162.985 442.626 163.655 442.626 164.405ZM441.216 164.12C441.216 163.6 441.101 163.155 440.871 162.785C440.641 162.405 440.326 162.12 439.926 161.93C439.536 161.73 439.101 161.63 438.621 161.63C437.931 161.63 437.341 161.85 436.851 162.29C436.371 162.73 436.096 163.34 436.026 164.12H441.216ZM446.092 161.735V166.58C446.092 166.98 446.177 167.265 446.347 167.435C446.517 167.595 446.812 167.675 447.232 167.675H448.237V168.83H447.007C446.247 168.83 445.677 168.655 445.297 168.305C444.917 167.955 444.727 167.38 444.727 166.58V161.735H443.662V160.61H444.727V158.54H446.092V160.61H448.237V161.735H446.092ZM451.556 161.735V166.58C451.556 166.98 451.641 167.265 451.811 167.435C451.981 167.595 452.276 167.675 452.696 167.675H453.701V168.83H452.471C451.711 168.83 451.141 168.655 450.761 168.305C450.381 167.955 450.191 167.38 450.191 166.58V161.735H449.126V160.61H450.191V158.54H451.556V160.61H453.701V161.735H451.556ZM462.855 164.405C462.855 164.665 462.84 164.94 462.81 165.23H456.24C456.29 166.04 456.565 166.675 457.065 167.135C457.575 167.585 458.19 167.81 458.91 167.81C459.5 167.81 459.99 167.675 460.38 167.405C460.78 167.125 461.06 166.755 461.22 166.295H462.69C462.47 167.085 462.03 167.73 461.37 168.23C460.71 168.72 459.89 168.965 458.91 168.965C458.13 168.965 457.43 168.79 456.81 168.44C456.2 168.09 455.72 167.595 455.37 166.955C455.02 166.305 454.845 165.555 454.845 164.705C454.845 163.855 455.015 163.11 455.355 162.47C455.695 161.83 456.17 161.34 456.78 161C457.4 160.65 458.11 160.475 458.91 160.475C459.69 160.475 460.38 160.645 460.98 160.985C461.58 161.325 462.04 161.795 462.36 162.395C462.69 162.985 462.855 163.655 462.855 164.405ZM461.445 164.12C461.445 163.6 461.33 163.155 461.1 162.785C460.87 162.405 460.555 162.12 460.155 161.93C459.765 161.73 459.33 161.63 458.85 161.63C458.16 161.63 457.57 161.85 457.08 162.29C456.6 162.73 456.325 163.34 456.255 164.12H461.445ZM471.971 168.935C471.281 168.935 470.661 168.815 470.111 168.575C469.571 168.325 469.146 167.985 468.836 167.555C468.526 167.115 468.366 166.61 468.356 166.04H469.811C469.861 166.53 470.061 166.945 470.411 167.285C470.771 167.615 471.291 167.78 471.971 167.78C472.621 167.78 473.131 167.62 473.501 167.3C473.881 166.97 474.071 166.55 474.071 166.04C474.071 165.64 473.961 165.315 473.741 165.065C473.521 164.815 473.246 164.625 472.916 164.495C472.586 164.365 472.141 164.225 471.581 164.075C470.891 163.895 470.336 163.715 469.916 163.535C469.506 163.355 469.151 163.075 468.851 162.695C468.561 162.305 468.416 161.785 468.416 161.135C468.416 160.565 468.561 160.06 468.851 159.62C469.141 159.18 469.546 158.84 470.066 158.6C470.596 158.36 471.201 158.24 471.881 158.24C472.861 158.24 473.661 158.485 474.281 158.975C474.911 159.465 475.266 160.115 475.346 160.925H473.846C473.796 160.525 473.586 160.175 473.216 159.875C472.846 159.565 472.356 159.41 471.746 159.41C471.176 159.41 470.711 159.56 470.351 159.86C469.991 160.15 469.811 160.56 469.811 161.09C469.811 161.47 469.916 161.78 470.126 162.02C470.346 162.26 470.611 162.445 470.921 162.575C471.241 162.695 471.686 162.835 472.256 162.995C472.946 163.185 473.501 163.375 473.921 163.565C474.341 163.745 474.701 164.03 475.001 164.42C475.301 164.8 475.451 165.32 475.451 165.98C475.451 166.49 475.316 166.97 475.046 167.42C474.776 167.87 474.376 168.235 473.846 168.515C473.316 168.795 472.691 168.935 471.971 168.935ZM476.95 164.705C476.95 163.855 477.12 163.115 477.46 162.485C477.8 161.845 478.27 161.35 478.87 161C479.48 160.65 480.175 160.475 480.955 160.475C481.965 160.475 482.795 160.72 483.445 161.21C484.105 161.7 484.54 162.38 484.75 163.25H483.28C483.14 162.75 482.865 162.355 482.455 162.065C482.055 161.775 481.555 161.63 480.955 161.63C480.175 161.63 479.545 161.9 479.065 162.44C478.585 162.97 478.345 163.725 478.345 164.705C478.345 165.695 478.585 166.46 479.065 167C479.545 167.54 480.175 167.81 480.955 167.81C481.555 167.81 482.055 167.67 482.455 167.39C482.855 167.11 483.13 166.71 483.28 166.19H484.75C484.53 167.03 484.09 167.705 483.43 168.215C482.77 168.715 481.945 168.965 480.955 168.965C480.175 168.965 479.48 168.79 478.87 168.44C478.27 168.09 477.8 167.595 477.46 166.955C477.12 166.315 476.95 165.565 476.95 164.705ZM490.156 168.965C489.386 168.965 488.686 168.79 488.056 168.44C487.436 168.09 486.946 167.595 486.586 166.955C486.236 166.305 486.061 165.555 486.061 164.705C486.061 163.865 486.241 163.125 486.601 162.485C486.971 161.835 487.471 161.34 488.101 161C488.731 160.65 489.436 160.475 490.216 160.475C490.996 160.475 491.701 160.65 492.331 161C492.961 161.34 493.456 161.83 493.816 162.47C494.186 163.11 494.371 163.855 494.371 164.705C494.371 165.555 494.181 166.305 493.801 166.955C493.431 167.595 492.926 168.09 492.286 168.44C491.646 168.79 490.936 168.965 490.156 168.965ZM490.156 167.765C490.646 167.765 491.106 167.65 491.536 167.42C491.966 167.19 492.311 166.845 492.571 166.385C492.841 165.925 492.976 165.365 492.976 164.705C492.976 164.045 492.846 163.485 492.586 163.025C492.326 162.565 491.986 162.225 491.566 162.005C491.146 161.775 490.691 161.66 490.201 161.66C489.701 161.66 489.241 161.775 488.821 162.005C488.411 162.225 488.081 162.565 487.831 163.025C487.581 163.485 487.456 164.045 487.456 164.705C487.456 165.375 487.576 165.94 487.816 166.4C488.066 166.86 488.396 167.205 488.806 167.435C489.216 167.655 489.666 167.765 490.156 167.765ZM497.531 161.945C497.771 161.475 498.111 161.11 498.551 160.85C499.001 160.59 499.546 160.46 500.186 160.46V161.87H499.826C498.296 161.87 497.531 162.7 497.531 164.36V168.83H496.166V160.61H497.531V161.945ZM509.261 164.405C509.261 164.665 509.246 164.94 509.216 165.23H502.646C502.696 166.04 502.971 166.675 503.471 167.135C503.981 167.585 504.596 167.81 505.316 167.81C505.906 167.81 506.396 167.675 506.786 167.405C507.186 167.125 507.466 166.755 507.626 166.295H509.096C508.876 167.085 508.436 167.73 507.776 168.23C507.116 168.72 506.296 168.965 505.316 168.965C504.536 168.965 503.836 168.79 503.216 168.44C502.606 168.09 502.126 167.595 501.776 166.955C501.426 166.305 501.251 165.555 501.251 164.705C501.251 163.855 501.421 163.11 501.761 162.47C502.101 161.83 502.576 161.34 503.186 161C503.806 160.65 504.516 160.475 505.316 160.475C506.096 160.475 506.786 160.645 507.386 160.985C507.986 161.325 508.446 161.795 508.766 162.395C509.096 162.985 509.261 163.655 509.261 164.405ZM507.851 164.12C507.851 163.6 507.736 163.155 507.506 162.785C507.276 162.405 506.961 162.12 506.561 161.93C506.171 161.73 505.736 161.63 505.256 161.63C504.566 161.63 503.976 161.85 503.486 162.29C503.006 162.73 502.731 163.34 502.661 164.12H507.851Z" fill="#394253"/>
<rect width="11.4286" height="11.4286" transform="translate(520.738 157.939)" fill="#394253"/>
<rect width="11.4286" height="11.4286" transform="translate(520.738 157.939)" fill="white"/>
<rect x="521.31" y="158.511" width="10.2857" height="10.2857" rx="5.14286" stroke="#52DE97" stroke-width="1.14286"/>
<path d="M526.453 162.082L526.453 166.919M526.453 161.356L526.453 160.389" stroke="#52DE97" stroke-width="1.14286"/>
<path d="M534.081 85.5365C536.034 87.4891 535.681 91.0085 533.728 92.9611C532.236 94.4533 527.656 94.9037 525.579 95.0331C525.009 95.0686 524.549 94.6085 524.585 94.039C524.714 91.9621 525.165 87.3822 526.657 85.89C528.609 83.9374 532.129 83.5838 534.081 85.5365Z" fill="#E7E7EF"/>
</g>
<defs>
<filter id="filter0_d_13_4439" x="0" y="0" width="623" height="236" filterUnits="userSpaceOnUse" color-interpolation-filters="sRGB">
<feFlood flood-opacity="0" result="BackgroundImageFix"/>
<feColorMatrix in="SourceAlpha" type="matrix" values="0 0 0 0 0 0 0 0 0 0 0 0 0 0 0 0 0 0 127 0" result="hardAlpha"/>
<feOffset dy="2"/>
<feGaussianBlur stdDeviation="3"/>
<feColorMatrix type="matrix" values="0 0 0 0 0.313854 0 0 0 0 0.402307 0 0 0 0 0.575 0 0 0 0.29 0"/>
<feBlend mode="normal" in2="BackgroundImageFix" result="effect1_dropShadow_13_4439"/>
<feBlend mode="normal" in="SourceGraphic" in2="effect1_dropShadow_13_4439" result="shape"/>
</filter>
</defs>
</svg>
