<svg width="149" height="15" viewBox="0 0 149 15" fill="none" xmlns="http://www.w3.org/2000/svg">
<path d="M7.10991 14.0007L4.12191 8.87073H2.14191V14.0007H0.503906V1.45473H4.55391C5.50191 1.45473 6.29991 1.61673 6.94791 1.94073C7.60791 2.26473 8.09991 2.70273 8.42391 3.25473C8.74791 3.80673 8.90991 4.43673 8.90991 5.14473C8.90991 6.00873 8.65791 6.77073 8.15391 7.43073C7.66191 8.09073 6.91791 8.52873 5.92191 8.74473L9.07191 14.0007H7.10991ZM2.14191 7.55673H4.55391C5.44191 7.55673 6.10791 7.34073 6.55191 6.90873C6.99591 6.46473 7.21791 5.87673 7.21791 5.14473C7.21791 4.40073 6.99591 3.82473 6.55191 3.41673C6.11991 3.00873 5.45391 2.80473 4.55391 2.80473H2.14191V7.55673Z" fill="#13115B"/>
<path d="M20.4551 8.69073C20.4551 9.00274 20.4371 9.33273 20.4011 9.68073H12.5171C12.5771 10.6527 12.9071 11.4147 13.5071 11.9667C14.1191 12.5067 14.8571 12.7767 15.7211 12.7767C16.4291 12.7767 17.0171 12.6147 17.4851 12.2907C17.9651 11.9547 18.3011 11.5107 18.4931 10.9587H20.2571C19.9931 11.9067 19.4651 12.6807 18.6731 13.2807C17.8811 13.8687 16.8971 14.1627 15.7211 14.1627C14.7851 14.1627 13.9451 13.9527 13.2011 13.5327C12.4691 13.1127 11.8931 12.5187 11.4731 11.7507C11.0531 10.9707 10.8431 10.0707 10.8431 9.05073C10.8431 8.03073 11.0471 7.13673 11.4551 6.36873C11.8631 5.60073 12.4331 5.01273 13.1651 4.60473C13.9091 4.18473 14.7611 3.97473 15.7211 3.97473C16.6571 3.97473 17.4851 4.17873 18.2051 4.58673C18.9251 4.99473 19.4771 5.55873 19.8611 6.27873C20.2571 6.98673 20.4551 7.79074 20.4551 8.69073ZM18.7631 8.34873C18.7631 7.72473 18.6251 7.19073 18.3491 6.74673C18.0731 6.29073 17.6951 5.94873 17.2151 5.72073C16.7471 5.48073 16.2251 5.36073 15.6491 5.36073C14.8211 5.36073 14.1131 5.62473 13.5251 6.15273C12.9491 6.68073 12.6191 7.41273 12.5351 8.34873H18.7631Z" fill="#13115B"/>
<path d="M34.4792 3.95673C35.2472 3.95673 35.9312 4.11873 36.5312 4.44273C37.1312 4.75473 37.6052 5.22873 37.9532 5.86473C38.3012 6.50073 38.4752 7.27473 38.4752 8.18673V14.0007H36.8552V8.42073C36.8552 7.43673 36.6092 6.68673 36.1172 6.17073C35.6372 5.64273 34.9832 5.37873 34.1552 5.37873C33.3032 5.37873 32.6252 5.65473 32.1212 6.20673C31.6172 6.74673 31.3652 7.53273 31.3652 8.56473V14.0007H29.7452V8.42073C29.7452 7.43673 29.4992 6.68673 29.0072 6.17073C28.5272 5.64273 27.8732 5.37873 27.0452 5.37873C26.1932 5.37873 25.5152 5.65473 25.0112 6.20673C24.5072 6.74673 24.2552 7.53273 24.2552 8.56473V14.0007H22.6172V4.13673H24.2552V5.55873C24.5792 5.04273 25.0112 4.64673 25.5512 4.37073C26.1032 4.09473 26.7092 3.95673 27.3692 3.95673C28.1972 3.95673 28.9292 4.14273 29.5652 4.51473C30.2012 4.88673 30.6752 5.43273 30.9872 6.15273C31.2632 5.45673 31.7192 4.91673 32.3552 4.53273C32.9912 4.14873 33.6992 3.95673 34.4792 3.95673Z" fill="#13115B"/>
<path d="M42.0081 2.53473C41.6961 2.53473 41.4321 2.42673 41.2161 2.21073C41.0001 1.99473 40.8921 1.73073 40.8921 1.41873C40.8921 1.10673 41.0001 0.842734 41.2161 0.626734C41.4321 0.410734 41.6961 0.302734 42.0081 0.302734C42.3081 0.302734 42.5601 0.410734 42.7641 0.626734C42.9801 0.842734 43.0881 1.10673 43.0881 1.41873C43.0881 1.73073 42.9801 1.99473 42.7641 2.21073C42.5601 2.42673 42.3081 2.53473 42.0081 2.53473ZM42.8001 4.13673V14.0007H41.1621V4.13673H42.8001Z" fill="#13115B"/>
<path d="M50.3978 3.95673C51.5978 3.95673 52.5698 4.32273 53.3138 5.05473C54.0578 5.77473 54.4298 6.81873 54.4298 8.18673V14.0007H52.8098V8.42073C52.8098 7.43673 52.5638 6.68673 52.0718 6.17073C51.5798 5.64273 50.9078 5.37873 50.0558 5.37873C49.1918 5.37873 48.5018 5.64873 47.9858 6.18873C47.4818 6.72873 47.2298 7.51473 47.2298 8.54673V14.0007H45.5918V4.13673H47.2298V5.54073C47.5538 5.03673 47.9918 4.64673 48.5438 4.37073C49.1078 4.09473 49.7258 3.95673 50.3978 3.95673Z" fill="#13115B"/>
<path d="M56.4935 9.03273C56.4935 8.02473 56.6975 7.14273 57.1055 6.38673C57.5135 5.61873 58.0715 5.02473 58.7795 4.60473C59.4995 4.18473 60.3035 3.97473 61.1915 3.97473C61.9595 3.97473 62.6735 4.15473 63.3335 4.51473C63.9935 4.86273 64.4975 5.32473 64.8455 5.90073V0.680735H66.5015V14.0007H64.8455V12.1467C64.5215 12.7347 64.0415 13.2207 63.4055 13.6047C62.7695 13.9767 62.0255 14.1627 61.1735 14.1627C60.2975 14.1627 59.4995 13.9467 58.7795 13.5147C58.0715 13.0827 57.5135 12.4767 57.1055 11.6967C56.6975 10.9167 56.4935 10.0287 56.4935 9.03273ZM64.8455 9.05073C64.8455 8.30673 64.6955 7.65873 64.3955 7.10673C64.0955 6.55473 63.6875 6.13474 63.1715 5.84674C62.6675 5.54673 62.1095 5.39673 61.4975 5.39673C60.8855 5.39673 60.3275 5.54073 59.8235 5.82873C59.3195 6.11673 58.9175 6.53673 58.6175 7.08873C58.3175 7.64073 58.1675 8.28873 58.1675 9.03273C58.1675 9.78873 58.3175 10.4487 58.6175 11.0127C58.9175 11.5647 59.3195 11.9907 59.8235 12.2907C60.3275 12.5787 60.8855 12.7227 61.4975 12.7227C62.1095 12.7227 62.6675 12.5787 63.1715 12.2907C63.6875 11.9907 64.0955 11.5647 64.3955 11.0127C64.6955 10.4487 64.8455 9.79473 64.8455 9.05073Z" fill="#13115B"/>
<path d="M86.7944 1.54473V14.0007H85.1564V4.71273L81.0164 14.0007H79.8644L75.7064 4.69473V14.0007H74.0684V1.54473H75.8324L80.4404 11.8407L85.0484 1.54473H86.7944Z" fill="#13115B"/>
<path d="M98.5723 8.69073C98.5723 9.00274 98.5543 9.33273 98.5183 9.68073H90.6343C90.6943 10.6527 91.0243 11.4147 91.6243 11.9667C92.2363 12.5067 92.9743 12.7767 93.8383 12.7767C94.5463 12.7767 95.1343 12.6147 95.6023 12.2907C96.0823 11.9547 96.4183 11.5107 96.6103 10.9587H98.3743C98.1103 11.9067 97.5823 12.6807 96.7903 13.2807C95.9983 13.8687 95.0143 14.1627 93.8383 14.1627C92.9023 14.1627 92.0623 13.9527 91.3183 13.5327C90.5863 13.1127 90.0103 12.5187 89.5903 11.7507C89.1703 10.9707 88.9603 10.0707 88.9603 9.05073C88.9603 8.03073 89.1643 7.13673 89.5723 6.36873C89.9803 5.60073 90.5503 5.01273 91.2823 4.60473C92.0263 4.18473 92.8783 3.97473 93.8383 3.97473C94.7743 3.97473 95.6023 4.17873 96.3223 4.58673C97.0423 4.99473 97.5943 5.55873 97.9783 6.27873C98.3743 6.98673 98.5723 7.79074 98.5723 8.69073ZM96.8803 8.34873C96.8803 7.72473 96.7423 7.19073 96.4663 6.74673C96.1903 6.29073 95.8123 5.94873 95.3323 5.72073C94.8643 5.48073 94.3423 5.36073 93.7663 5.36073C92.9383 5.36073 92.2303 5.62473 91.6423 6.15273C91.0663 6.68073 90.7363 7.41273 90.6523 8.34873H96.8803Z" fill="#13115B"/>
<path d="M107.171 12.6687H111.563V14.0007H105.533V1.45473H107.171V12.6687Z" fill="#13115B"/>
<path d="M112.691 9.03273C112.691 8.02473 112.895 7.14273 113.303 6.38673C113.711 5.61873 114.269 5.02473 114.977 4.60473C115.697 4.18473 116.495 3.97473 117.371 3.97473C118.235 3.97473 118.985 4.16073 119.621 4.53273C120.257 4.90473 120.731 5.37273 121.043 5.93673V4.13673H122.699V14.0007H121.043V12.1647C120.719 12.7407 120.233 13.2207 119.585 13.6047C118.949 13.9767 118.205 14.1627 117.353 14.1627C116.477 14.1627 115.685 13.9467 114.977 13.5147C114.269 13.0827 113.711 12.4767 113.303 11.6967C112.895 10.9167 112.691 10.0287 112.691 9.03273ZM121.043 9.05073C121.043 8.30673 120.893 7.65873 120.593 7.10673C120.293 6.55473 119.885 6.13474 119.369 5.84674C118.865 5.54673 118.307 5.39673 117.695 5.39673C117.083 5.39673 116.525 5.54073 116.021 5.82873C115.517 6.11673 115.115 6.53673 114.815 7.08873C114.515 7.64073 114.365 8.28873 114.365 9.03273C114.365 9.78873 114.515 10.4487 114.815 11.0127C115.115 11.5647 115.517 11.9907 116.021 12.2907C116.525 12.5787 117.083 12.7227 117.695 12.7227C118.307 12.7227 118.865 12.5787 119.369 12.2907C119.885 11.9907 120.293 11.5647 120.593 11.0127C120.893 10.4487 121.043 9.79473 121.043 9.05073Z" fill="#13115B"/>
<path d="M127.465 5.48673V11.3007C127.465 11.7807 127.567 12.1227 127.771 12.3267C127.975 12.5187 128.329 12.6147 128.833 12.6147H130.039V14.0007H128.563C127.651 14.0007 126.967 13.7907 126.511 13.3707C126.055 12.9507 125.827 12.2607 125.827 11.3007V5.48673H124.549V4.13673H125.827V1.65273H127.465V4.13673H130.039V5.48673H127.465Z" fill="#13115B"/>
<path d="M141.023 8.69073C141.023 9.00274 141.005 9.33273 140.969 9.68073H133.085C133.145 10.6527 133.475 11.4147 134.075 11.9667C134.687 12.5067 135.425 12.7767 136.289 12.7767C136.997 12.7767 137.585 12.6147 138.053 12.2907C138.533 11.9547 138.869 11.5107 139.061 10.9587H140.825C140.561 11.9067 140.033 12.6807 139.241 13.2807C138.449 13.8687 137.465 14.1627 136.289 14.1627C135.353 14.1627 134.513 13.9527 133.769 13.5327C133.037 13.1127 132.461 12.5187 132.041 11.7507C131.621 10.9707 131.411 10.0707 131.411 9.05073C131.411 8.03073 131.615 7.13673 132.023 6.36873C132.431 5.60073 133.001 5.01273 133.733 4.60473C134.477 4.18473 135.329 3.97473 136.289 3.97473C137.225 3.97473 138.053 4.17873 138.773 4.58673C139.493 4.99473 140.045 5.55873 140.429 6.27873C140.825 6.98673 141.023 7.79074 141.023 8.69073ZM139.331 8.34873C139.331 7.72473 139.193 7.19073 138.917 6.74673C138.641 6.29073 138.263 5.94873 137.783 5.72073C137.315 5.48073 136.793 5.36073 136.217 5.36073C135.389 5.36073 134.681 5.62473 134.093 6.15273C133.517 6.68073 133.187 7.41273 133.103 8.34873H139.331Z" fill="#13115B"/>
<path d="M144.824 5.73873C145.112 5.17473 145.52 4.73673 146.048 4.42473C146.588 4.11273 147.242 3.95673 148.01 3.95673V5.64873H147.578C145.742 5.64873 144.824 6.64473 144.824 8.63673V14.0007H143.186V4.13673H144.824V5.73873Z" fill="#13115B"/>
</svg>
