<svg width="219" height="36" viewBox="0 0 219 36" fill="none" xmlns="http://www.w3.org/2000/svg">
<path d="M28.819 24L25.997 19.155H24.127V24H22.58V12.151H26.405C27.3003 12.151 28.054 12.304 28.666 12.61C29.2893 12.916 29.754 13.3297 30.06 13.851C30.366 14.3723 30.519 14.9673 30.519 15.636C30.519 16.452 30.281 17.1717 29.805 17.795C29.3403 18.4183 28.6377 18.832 27.697 19.036L30.672 24H28.819ZM24.127 17.914H26.405C27.2437 17.914 27.8727 17.71 28.292 17.302C28.7113 16.8827 28.921 16.3273 28.921 15.636C28.921 14.9333 28.7113 14.3893 28.292 14.004C27.884 13.6187 27.255 13.426 26.405 13.426H24.127V17.914ZM41.4228 18.985C41.4228 19.2797 41.4058 19.5913 41.3718 19.92H33.9258C33.9824 20.838 34.2941 21.5577 34.8608 22.079C35.4388 22.589 36.1358 22.844 36.9518 22.844C37.6204 22.844 38.1758 22.691 38.6178 22.385C39.0711 22.0677 39.3884 21.6483 39.5698 21.127H41.2358C40.9864 22.0223 40.4878 22.7533 39.7398 23.32C38.9918 23.8753 38.0624 24.153 36.9518 24.153C36.0678 24.153 35.2744 23.9547 34.5718 23.558C33.8804 23.1613 33.3364 22.6003 32.9398 21.875C32.5431 21.1383 32.3448 20.2883 32.3448 19.325C32.3448 18.3617 32.5374 17.5173 32.9228 16.792C33.3081 16.0667 33.8464 15.5113 34.5378 15.126C35.2404 14.7293 36.0451 14.531 36.9518 14.531C37.8358 14.531 38.6178 14.7237 39.2978 15.109C39.9778 15.4943 40.4991 16.027 40.8618 16.707C41.2358 17.3757 41.4228 18.135 41.4228 18.985ZM39.8248 18.662C39.8248 18.0727 39.6944 17.5683 39.4338 17.149C39.1731 16.7183 38.8161 16.3953 38.3628 16.18C37.9208 15.9533 37.4278 15.84 36.8838 15.84C36.1018 15.84 35.4331 16.0893 34.8778 16.588C34.3338 17.0867 34.0221 17.778 33.9428 18.662H39.8248ZM46.9328 22.572L49.8228 14.684H51.4718L47.8168 24H46.0148L42.3598 14.684H44.0258L46.9328 22.572ZM53.7931 13.171C53.4984 13.171 53.2491 13.069 53.0451 12.865C52.8411 12.661 52.7391 12.4117 52.7391 12.117C52.7391 11.8223 52.8411 11.573 53.0451 11.369C53.2491 11.165 53.4984 11.063 53.7931 11.063C54.0764 11.063 54.3144 11.165 54.5071 11.369C54.7111 11.573 54.8131 11.8223 54.8131 12.117C54.8131 12.4117 54.7111 12.661 54.5071 12.865C54.3144 13.069 54.0764 13.171 53.7931 13.171ZM54.5411 14.684V24H52.9941V14.684H54.5411ZM65.6777 18.985C65.6777 19.2797 65.6607 19.5913 65.6267 19.92H58.1807C58.2373 20.838 58.549 21.5577 59.1157 22.079C59.6937 22.589 60.3907 22.844 61.2067 22.844C61.8753 22.844 62.4307 22.691 62.8727 22.385C63.326 22.0677 63.6433 21.6483 63.8247 21.127H65.4907C65.2413 22.0223 64.7427 22.7533 63.9947 23.32C63.2467 23.8753 62.3173 24.153 61.2067 24.153C60.3227 24.153 59.5293 23.9547 58.8267 23.558C58.1353 23.1613 57.5913 22.6003 57.1947 21.875C56.798 21.1383 56.5997 20.2883 56.5997 19.325C56.5997 18.3617 56.7923 17.5173 57.1777 16.792C57.563 16.0667 58.1013 15.5113 58.7927 15.126C59.4953 14.7293 60.3 14.531 61.2067 14.531C62.0907 14.531 62.8727 14.7237 63.5527 15.109C64.2327 15.4943 64.754 16.027 65.1167 16.707C65.4907 17.3757 65.6777 18.135 65.6777 18.985ZM64.0797 18.662C64.0797 18.0727 63.9493 17.5683 63.6887 17.149C63.428 16.7183 63.071 16.3953 62.6177 16.18C62.1757 15.9533 61.6827 15.84 61.1387 15.84C60.3567 15.84 59.688 16.0893 59.1327 16.588C58.5887 17.0867 58.277 17.778 58.1977 18.662H64.0797ZM80.1296 14.684L77.2226 24H75.6246L73.3806 16.605L71.1366 24H69.5386L66.6146 14.684H68.1956L70.3376 22.504L72.6496 14.684H74.2306L76.4916 22.521L78.5996 14.684H80.1296ZM90.2602 24.153C89.3875 24.153 88.5942 23.9547 87.8802 23.558C87.1775 23.1613 86.6222 22.6003 86.2142 21.875C85.8175 21.1383 85.6192 20.2883 85.6192 19.325C85.6192 18.373 85.8232 17.5343 86.2312 16.809C86.6505 16.0723 87.2172 15.5113 87.9312 15.126C88.6452 14.7293 89.4442 14.531 90.3282 14.531C91.2122 14.531 92.0112 14.7293 92.7252 15.126C93.4392 15.5113 94.0002 16.0667 94.4082 16.792C94.8275 17.5173 95.0372 18.3617 95.0372 19.325C95.0372 20.2883 94.8219 21.1383 94.3912 21.875C93.9719 22.6003 93.3995 23.1613 92.6742 23.558C91.9489 23.9547 91.1442 24.153 90.2602 24.153ZM90.2602 22.793C90.8155 22.793 91.3369 22.6627 91.8242 22.402C92.3115 22.1413 92.7025 21.7503 92.9972 21.229C93.3032 20.7077 93.4562 20.073 93.4562 19.325C93.4562 18.577 93.3089 17.9423 93.0142 17.421C92.7195 16.8997 92.3342 16.5143 91.8582 16.265C91.3822 16.0043 90.8665 15.874 90.3112 15.874C89.7445 15.874 89.2232 16.0043 88.7472 16.265C88.2825 16.5143 87.9085 16.8997 87.6252 17.421C87.3419 17.9423 87.2002 18.577 87.2002 19.325C87.2002 20.0843 87.3362 20.7247 87.6082 21.246C87.8915 21.7673 88.2655 22.1583 88.7302 22.419C89.1949 22.6683 89.7049 22.793 90.2602 22.793ZM98.9582 15.959V21.45C98.9582 21.9033 99.0545 22.2263 99.2472 22.419C99.4399 22.6003 99.7742 22.691 100.25 22.691H101.389V24H99.9952C99.1339 24 98.4879 23.8017 98.0572 23.405C97.6265 23.0083 97.4112 22.3567 97.4112 21.45V15.959H96.2042V14.684H97.4112V12.338H98.9582V14.684H101.389V15.959H98.9582ZM107.888 14.514C108.59 14.514 109.225 14.667 109.792 14.973C110.358 15.2677 110.8 15.7153 111.118 16.316C111.446 16.9167 111.611 17.6477 111.611 18.509V24H110.081V18.73C110.081 17.8007 109.848 17.0923 109.384 16.605C108.919 16.1063 108.284 15.857 107.48 15.857C106.664 15.857 106.012 16.112 105.525 16.622C105.049 17.132 104.811 17.8743 104.811 18.849V24H103.264V11.42H104.811V16.01C105.117 15.534 105.536 15.1657 106.069 14.905C106.613 14.6443 107.219 14.514 107.888 14.514ZM122.638 18.985C122.638 19.2797 122.621 19.5913 122.587 19.92H115.141C115.197 20.838 115.509 21.5577 116.076 22.079C116.654 22.589 117.351 22.844 118.167 22.844C118.835 22.844 119.391 22.691 119.833 22.385C120.286 22.0677 120.603 21.6483 120.785 21.127H122.451C122.201 22.0223 121.703 22.7533 120.955 23.32C120.207 23.8753 119.277 24.153 118.167 24.153C117.283 24.153 116.489 23.9547 115.787 23.558C115.095 23.1613 114.551 22.6003 114.155 21.875C113.758 21.1383 113.56 20.2883 113.56 19.325C113.56 18.3617 113.752 17.5173 114.138 16.792C114.523 16.0667 115.061 15.5113 115.753 15.126C116.455 14.7293 117.26 14.531 118.167 14.531C119.051 14.531 119.833 14.7237 120.513 15.109C121.193 15.4943 121.714 16.027 122.077 16.707C122.451 17.3757 122.638 18.135 122.638 18.985ZM121.04 18.662C121.04 18.0727 120.909 17.5683 120.649 17.149C120.388 16.7183 120.031 16.3953 119.578 16.18C119.136 15.9533 118.643 15.84 118.099 15.84C117.317 15.84 116.648 16.0893 116.093 16.588C115.549 17.0867 115.237 17.778 115.158 18.662H121.04ZM126.227 16.197C126.499 15.6643 126.884 15.2507 127.383 14.956C127.893 14.6613 128.51 14.514 129.236 14.514V16.112H128.828C127.094 16.112 126.227 17.0527 126.227 18.934V24H124.68V14.684H126.227V16.197ZM146.757 14.514C147.482 14.514 148.128 14.667 148.695 14.973C149.261 15.2677 149.709 15.7153 150.038 16.316C150.366 16.9167 150.531 17.6477 150.531 18.509V24H149.001V18.73C149.001 17.8007 148.768 17.0923 148.304 16.605C147.85 16.1063 147.233 15.857 146.451 15.857C145.646 15.857 145.006 16.1177 144.53 16.639C144.054 17.149 143.816 17.8913 143.816 18.866V24H142.286V18.73C142.286 17.8007 142.053 17.0923 141.589 16.605C141.135 16.1063 140.518 15.857 139.736 15.857C138.931 15.857 138.291 16.1177 137.815 16.639C137.339 17.149 137.101 17.8913 137.101 18.866V24H135.554V14.684H137.101V16.027C137.407 15.5397 137.815 15.1657 138.325 14.905C138.846 14.6443 139.418 14.514 140.042 14.514C140.824 14.514 141.515 14.6897 142.116 15.041C142.716 15.3923 143.164 15.908 143.459 16.588C143.719 15.9307 144.15 15.4207 144.751 15.058C145.351 14.6953 146.02 14.514 146.757 14.514ZM157.131 24.153C156.259 24.153 155.465 23.9547 154.751 23.558C154.049 23.1613 153.493 22.6003 153.085 21.875C152.689 21.1383 152.49 20.2883 152.49 19.325C152.49 18.373 152.694 17.5343 153.102 16.809C153.522 16.0723 154.088 15.5113 154.802 15.126C155.516 14.7293 156.315 14.531 157.199 14.531C158.083 14.531 158.882 14.7293 159.596 15.126C160.31 15.5113 160.871 16.0667 161.279 16.792C161.699 17.5173 161.908 18.3617 161.908 19.325C161.908 20.2883 161.693 21.1383 161.262 21.875C160.843 22.6003 160.271 23.1613 159.545 23.558C158.82 23.9547 158.015 24.153 157.131 24.153ZM157.131 22.793C157.687 22.793 158.208 22.6627 158.695 22.402C159.183 22.1413 159.574 21.7503 159.868 21.229C160.174 20.7077 160.327 20.073 160.327 19.325C160.327 18.577 160.18 17.9423 159.885 17.421C159.591 16.8997 159.205 16.5143 158.729 16.265C158.253 16.0043 157.738 15.874 157.182 15.874C156.616 15.874 156.094 16.0043 155.618 16.265C155.154 16.5143 154.78 16.8997 154.496 17.421C154.213 17.9423 154.071 18.577 154.071 19.325C154.071 20.0843 154.207 20.7247 154.479 21.246C154.763 21.7673 155.137 22.1583 155.601 22.419C156.066 22.6683 156.576 22.793 157.131 22.793ZM163.364 19.308C163.364 18.356 163.557 17.523 163.942 16.809C164.328 16.0837 164.855 15.5227 165.523 15.126C166.203 14.7293 166.963 14.531 167.801 14.531C168.527 14.531 169.201 14.701 169.824 15.041C170.448 15.3697 170.924 15.806 171.252 16.35V11.42H172.816V24H171.252V22.249C170.946 22.8043 170.493 23.2633 169.892 23.626C169.292 23.9773 168.589 24.153 167.784 24.153C166.957 24.153 166.203 23.949 165.523 23.541C164.855 23.133 164.328 22.5607 163.942 21.824C163.557 21.0873 163.364 20.2487 163.364 19.308ZM171.252 19.325C171.252 18.6223 171.111 18.0103 170.827 17.489C170.544 16.9677 170.159 16.571 169.671 16.299C169.195 16.0157 168.668 15.874 168.09 15.874C167.512 15.874 166.985 16.01 166.509 16.282C166.033 16.554 165.654 16.9507 165.37 17.472C165.087 17.9933 164.945 18.6053 164.945 19.308C164.945 20.022 165.087 20.6453 165.37 21.178C165.654 21.6993 166.033 22.1017 166.509 22.385C166.985 22.657 167.512 22.793 168.09 22.793C168.668 22.793 169.195 22.657 169.671 22.385C170.159 22.1017 170.544 21.6993 170.827 21.178C171.111 20.6453 171.252 20.0277 171.252 19.325ZM183.931 18.985C183.931 19.2797 183.914 19.5913 183.88 19.92H176.434C176.49 20.838 176.802 21.5577 177.369 22.079C177.947 22.589 178.644 22.844 179.46 22.844C180.128 22.844 180.684 22.691 181.126 22.385C181.579 22.0677 181.896 21.6483 182.078 21.127H183.744C183.494 22.0223 182.996 22.7533 182.248 23.32C181.5 23.8753 180.57 24.153 179.46 24.153C178.576 24.153 177.782 23.9547 177.08 23.558C176.388 23.1613 175.844 22.6003 175.448 21.875C175.051 21.1383 174.853 20.2883 174.853 19.325C174.853 18.3617 175.045 17.5173 175.431 16.792C175.816 16.0667 176.354 15.5113 177.046 15.126C177.748 14.7293 178.553 14.531 179.46 14.531C180.344 14.531 181.126 14.7237 181.806 15.109C182.486 15.4943 183.007 16.027 183.37 16.707C183.744 17.3757 183.931 18.135 183.931 18.985ZM182.333 18.662C182.333 18.0727 182.202 17.5683 181.942 17.149C181.681 16.7183 181.324 16.3953 180.871 16.18C180.429 15.9533 179.936 15.84 179.392 15.84C178.61 15.84 177.941 16.0893 177.386 16.588C176.842 17.0867 176.53 17.778 176.451 18.662H182.333ZM187.52 11.42V24H185.973V11.42H187.52ZM193.454 24.153C192.74 24.153 192.1 24.034 191.533 23.796C190.967 23.5467 190.519 23.2067 190.19 22.776C189.862 22.334 189.68 21.8297 189.646 21.263H191.244C191.29 21.7277 191.505 22.1073 191.89 22.402C192.287 22.6967 192.803 22.844 193.437 22.844C194.027 22.844 194.491 22.7137 194.831 22.453C195.171 22.1923 195.341 21.8637 195.341 21.467C195.341 21.059 195.16 20.7587 194.797 20.566C194.435 20.362 193.874 20.1637 193.114 19.971C192.423 19.7897 191.856 19.6083 191.414 19.427C190.984 19.2343 190.61 18.9567 190.292 18.594C189.986 18.22 189.833 17.7327 189.833 17.132C189.833 16.656 189.975 16.2197 190.258 15.823C190.542 15.4263 190.944 15.1147 191.465 14.888C191.987 14.65 192.582 14.531 193.25 14.531C194.282 14.531 195.115 14.7917 195.749 15.313C196.384 15.8343 196.724 16.5483 196.769 17.455H195.222C195.188 16.9677 194.99 16.5767 194.627 16.282C194.276 15.9873 193.8 15.84 193.199 15.84C192.644 15.84 192.202 15.959 191.873 16.197C191.545 16.435 191.38 16.7467 191.38 17.132C191.38 17.438 191.477 17.693 191.669 17.897C191.873 18.0897 192.123 18.2483 192.417 18.373C192.723 18.4863 193.143 18.6167 193.675 18.764C194.344 18.9453 194.888 19.1267 195.307 19.308C195.727 19.478 196.084 19.7387 196.378 20.09C196.684 20.4413 196.843 20.9003 196.854 21.467C196.854 21.977 196.713 22.436 196.429 22.844C196.146 23.252 195.744 23.575 195.222 23.813C194.712 24.0397 194.123 24.153 193.454 24.153Z" fill="#13115B"/>
<path d="M7 2H212V0H7V2ZM217 7V29H219V7H217ZM212 34H7V36H212V34ZM2 29V7H0V29H2ZM7 34C4.23857 34 2 31.7614 2 29H0C0 32.866 3.134 36 7 36V34ZM217 29C217 31.7614 214.761 34 212 34V36C215.866 36 219 32.866 219 29H217ZM212 2C214.761 2 217 4.23858 217 7H219C219 3.13401 215.866 0 212 0V2ZM7 0C3.13401 0 0 3.13401 0 7H2C2 4.23858 4.23858 2 7 2V0Z" fill="url(#paint0_linear_146_19154)"/>
<defs>
<linearGradient id="paint0_linear_146_19154" x1="-30" y1="18" x2="249" y2="18" gradientUnits="userSpaceOnUse">
<stop offset="0.03125" stop-color="#52DE97"/>
<stop offset="1" stop-color="#00818A"/>
</linearGradient>
</defs>
</svg>
