<svg width="200" height="34" viewBox="0 0 200 34" fill="none" xmlns="http://www.w3.org/2000/svg">
<rect width="200" height="34" rx="6" fill="#DDDEDF"/>
<path d="M68.6713 17.114C68.6713 16.162 68.886 15.308 69.3153 14.552C69.7447 13.7867 70.328 13.1893 71.0653 12.76C71.812 12.3307 72.638 12.116 73.5433 12.116C74.6073 12.116 75.536 12.3727 76.3293 12.886C77.1227 13.3993 77.7013 14.1273 78.0653 15.07H76.5393C76.2687 14.482 75.8767 14.0293 75.3633 13.712C74.8593 13.3947 74.2527 13.236 73.5433 13.236C72.862 13.236 72.2507 13.3947 71.7093 13.712C71.168 14.0293 70.7433 14.482 70.4353 15.07C70.1273 15.6487 69.9733 16.33 69.9733 17.114C69.9733 17.8887 70.1273 18.57 70.4353 19.158C70.7433 19.7367 71.168 20.1847 71.7093 20.502C72.2507 20.8193 72.862 20.978 73.5433 20.978C74.2527 20.978 74.8593 20.824 75.3633 20.516C75.8767 20.1987 76.2687 19.746 76.5393 19.158H78.0653C77.7013 20.0913 77.1227 20.8147 76.3293 21.328C75.536 21.832 74.6073 22.084 73.5433 22.084C72.638 22.084 71.812 21.874 71.0653 21.454C70.328 21.0247 69.7447 20.432 69.3153 19.676C68.886 18.92 68.6713 18.066 68.6713 17.114ZM83.3078 22.126C82.5891 22.126 81.9358 21.9627 81.3478 21.636C80.7691 21.3093 80.3118 20.8473 79.9758 20.25C79.6491 19.6433 79.4858 18.9433 79.4858 18.15C79.4858 17.366 79.6538 16.6753 79.9898 16.078C80.3351 15.4713 80.8018 15.0093 81.3898 14.692C81.9778 14.3653 82.6358 14.202 83.3638 14.202C84.0918 14.202 84.7498 14.3653 85.3378 14.692C85.9258 15.0093 86.3878 15.4667 86.7238 16.064C87.0691 16.6613 87.2418 17.3567 87.2418 18.15C87.2418 18.9433 87.0645 19.6433 86.7098 20.25C86.3645 20.8473 85.8931 21.3093 85.2958 21.636C84.6985 21.9627 84.0358 22.126 83.3078 22.126ZM83.3078 21.006C83.7651 21.006 84.1945 20.8987 84.5958 20.684C84.9971 20.4693 85.3191 20.1473 85.5618 19.718C85.8138 19.2887 85.9398 18.766 85.9398 18.15C85.9398 17.534 85.8185 17.0113 85.5758 16.582C85.3331 16.1527 85.0158 15.8353 84.6238 15.63C84.2318 15.4153 83.8071 15.308 83.3498 15.308C82.8831 15.308 82.4538 15.4153 82.0618 15.63C81.6791 15.8353 81.3711 16.1527 81.1378 16.582C80.9045 17.0113 80.7878 17.534 80.7878 18.15C80.7878 18.7753 80.8998 19.3027 81.1238 19.732C81.3571 20.1613 81.6651 20.4833 82.0478 20.698C82.4305 20.9033 82.8505 21.006 83.3078 21.006ZM92.6549 14.188C93.5882 14.188 94.3442 14.4727 94.9229 15.042C95.5015 15.602 95.7909 16.414 95.7909 17.478V22H94.5309V17.66C94.5309 16.8947 94.3395 16.3113 93.9569 15.91C93.5742 15.4993 93.0515 15.294 92.3889 15.294C91.7169 15.294 91.1802 15.504 90.7789 15.924C90.3869 16.344 90.1909 16.9553 90.1909 17.758V22H88.9169V14.328H90.1909V15.42C90.4429 15.028 90.7835 14.7247 91.2129 14.51C91.6515 14.2953 92.1322 14.188 92.6549 14.188ZM99.4259 15.378V19.9C99.4259 20.2733 99.5053 20.5393 99.6639 20.698C99.8226 20.8473 100.098 20.922 100.49 20.922H101.428V22H100.28C99.5706 22 99.0386 21.8367 98.6839 21.51C98.3293 21.1833 98.1519 20.6467 98.1519 19.9V15.378H97.1579V14.328H98.1519V12.396H99.4259V14.328H101.428V15.378H99.4259ZM103.63 13.082C103.387 13.082 103.182 12.998 103.014 12.83C102.846 12.662 102.762 12.4567 102.762 12.214C102.762 11.9713 102.846 11.766 103.014 11.598C103.182 11.43 103.387 11.346 103.63 11.346C103.863 11.346 104.059 11.43 104.218 11.598C104.386 11.766 104.47 11.9713 104.47 12.214C104.47 12.4567 104.386 12.662 104.218 12.83C104.059 12.998 103.863 13.082 103.63 13.082ZM104.246 14.328V22H102.972V14.328H104.246ZM110.155 14.188C111.088 14.188 111.844 14.4727 112.423 15.042C113.002 15.602 113.291 16.414 113.291 17.478V22H112.031V17.66C112.031 16.8947 111.84 16.3113 111.457 15.91C111.074 15.4993 110.552 15.294 109.889 15.294C109.217 15.294 108.68 15.504 108.279 15.924C107.887 16.344 107.691 16.9553 107.691 17.758V22H106.417V14.328H107.691V15.42C107.943 15.028 108.284 14.7247 108.713 14.51C109.152 14.2953 109.632 14.188 110.155 14.188ZM122.176 14.328V22H120.902V20.866C120.659 21.258 120.319 21.566 119.88 21.79C119.451 22.0047 118.975 22.112 118.452 22.112C117.855 22.112 117.318 21.9907 116.842 21.748C116.366 21.496 115.988 21.1227 115.708 20.628C115.437 20.1333 115.302 19.5313 115.302 18.822V14.328H116.562V18.654C116.562 19.41 116.753 19.9933 117.136 20.404C117.519 20.8053 118.041 21.006 118.704 21.006C119.385 21.006 119.922 20.796 120.314 20.376C120.706 19.956 120.902 19.3447 120.902 18.542V14.328H122.176ZM131.327 17.87C131.327 18.1127 131.313 18.3693 131.285 18.64H125.153C125.2 19.396 125.456 19.9887 125.923 20.418C126.399 20.838 126.973 21.048 127.645 21.048C128.196 21.048 128.653 20.922 129.017 20.67C129.39 20.4087 129.652 20.0633 129.801 19.634H131.173C130.968 20.3713 130.557 20.9733 129.941 21.44C129.325 21.8973 128.56 22.126 127.645 22.126C126.917 22.126 126.264 21.9627 125.685 21.636C125.116 21.3093 124.668 20.8473 124.341 20.25C124.014 19.6433 123.851 18.9433 123.851 18.15C123.851 17.3567 124.01 16.6613 124.327 16.064C124.644 15.4667 125.088 15.0093 125.657 14.692C126.236 14.3653 126.898 14.202 127.645 14.202C128.373 14.202 129.017 14.3607 129.577 14.678C130.137 14.9953 130.566 15.434 130.865 15.994C131.173 16.5447 131.327 17.17 131.327 17.87ZM130.011 17.604C130.011 17.1187 129.904 16.7033 129.689 16.358C129.474 16.0033 129.18 15.7373 128.807 15.56C128.443 15.3733 128.037 15.28 127.589 15.28C126.945 15.28 126.394 15.4853 125.937 15.896C125.489 16.3067 125.232 16.876 125.167 17.604H130.011Z" fill="#616875"/>
</svg>
