<svg width="250" height="34" viewBox="0 0 250 34" fill="none" xmlns="http://www.w3.org/2000/svg">
<rect width="250" height="34" rx="6" fill="#52DE97"/>
<path d="M37.4936 17.114C37.4936 16.162 37.7083 15.308 38.1376 14.552C38.5669 13.7867 39.1503 13.1893 39.8876 12.76C40.6343 12.3307 41.4603 12.116 42.3656 12.116C43.4296 12.116 44.3583 12.3727 45.1516 12.886C45.9449 13.3993 46.5236 14.1273 46.8876 15.07H45.3616C45.0909 14.482 44.6989 14.0293 44.1856 13.712C43.6816 13.3947 43.0749 13.236 42.3656 13.236C41.6843 13.236 41.0729 13.3947 40.5316 13.712C39.9903 14.0293 39.5656 14.482 39.2576 15.07C38.9496 15.6487 38.7956 16.33 38.7956 17.114C38.7956 17.8887 38.9496 18.57 39.2576 19.158C39.5656 19.7367 39.9903 20.1847 40.5316 20.502C41.0729 20.8193 41.6843 20.978 42.3656 20.978C43.0749 20.978 43.6816 20.824 44.1856 20.516C44.6989 20.1987 45.0909 19.746 45.3616 19.158H46.8876C46.5236 20.0913 45.9449 20.8147 45.1516 21.328C44.3583 21.832 43.4296 22.084 42.3656 22.084C41.4603 22.084 40.6343 21.874 39.8876 21.454C39.1503 21.0247 38.5669 20.432 38.1376 19.676C37.7083 18.92 37.4936 18.066 37.4936 17.114ZM52.1301 22.126C51.4114 22.126 50.7581 21.9627 50.1701 21.636C49.5914 21.3093 49.1341 20.8473 48.7981 20.25C48.4714 19.6433 48.3081 18.9433 48.3081 18.15C48.3081 17.366 48.4761 16.6753 48.8121 16.078C49.1574 15.4713 49.6241 15.0093 50.2121 14.692C50.8001 14.3653 51.4581 14.202 52.1861 14.202C52.9141 14.202 53.5721 14.3653 54.1601 14.692C54.7481 15.0093 55.2101 15.4667 55.5461 16.064C55.8914 16.6613 56.0641 17.3567 56.0641 18.15C56.0641 18.9433 55.8867 19.6433 55.5321 20.25C55.1867 20.8473 54.7154 21.3093 54.1181 21.636C53.5207 21.9627 52.8581 22.126 52.1301 22.126ZM52.1301 21.006C52.5874 21.006 53.0167 20.8987 53.4181 20.684C53.8194 20.4693 54.1414 20.1473 54.3841 19.718C54.6361 19.2887 54.7621 18.766 54.7621 18.15C54.7621 17.534 54.6407 17.0113 54.3981 16.582C54.1554 16.1527 53.8381 15.8353 53.4461 15.63C53.0541 15.4153 52.6294 15.308 52.1721 15.308C51.7054 15.308 51.2761 15.4153 50.8841 15.63C50.5014 15.8353 50.1934 16.1527 49.9601 16.582C49.7267 17.0113 49.6101 17.534 49.6101 18.15C49.6101 18.7753 49.7221 19.3027 49.9461 19.732C50.1794 20.1613 50.4874 20.4833 50.8701 20.698C51.2527 20.9033 51.6727 21.006 52.1301 21.006ZM61.4771 14.188C62.4105 14.188 63.1665 14.4727 63.7451 15.042C64.3238 15.602 64.6131 16.414 64.6131 17.478V22H63.3531V17.66C63.3531 16.8947 63.1618 16.3113 62.7791 15.91C62.3965 15.4993 61.8738 15.294 61.2111 15.294C60.5391 15.294 60.0025 15.504 59.6011 15.924C59.2091 16.344 59.0131 16.9553 59.0131 17.758V22H57.7391V14.328H59.0131V15.42C59.2651 15.028 59.6058 14.7247 60.0351 14.51C60.4738 14.2953 60.9545 14.188 61.4771 14.188ZM68.2482 15.378V19.9C68.2482 20.2733 68.3275 20.5393 68.4862 20.698C68.6449 20.8473 68.9202 20.922 69.3122 20.922H70.2502V22H69.1022C68.3929 22 67.8609 21.8367 67.5062 21.51C67.1515 21.1833 66.9742 20.6467 66.9742 19.9V15.378H65.9802V14.328H66.9742V12.396H68.2482V14.328H70.2502V15.378H68.2482ZM72.4518 13.082C72.2092 13.082 72.0038 12.998 71.8358 12.83C71.6678 12.662 71.5838 12.4567 71.5838 12.214C71.5838 11.9713 71.6678 11.766 71.8358 11.598C72.0038 11.43 72.2092 11.346 72.4518 11.346C72.6852 11.346 72.8812 11.43 73.0398 11.598C73.2078 11.766 73.2918 11.9713 73.2918 12.214C73.2918 12.4567 73.2078 12.662 73.0398 12.83C72.8812 12.998 72.6852 13.082 72.4518 13.082ZM73.0678 14.328V22H71.7938V14.328H73.0678ZM78.9771 14.188C79.9105 14.188 80.6665 14.4727 81.2451 15.042C81.8238 15.602 82.1131 16.414 82.1131 17.478V22H80.8531V17.66C80.8531 16.8947 80.6618 16.3113 80.2791 15.91C79.8965 15.4993 79.3738 15.294 78.7111 15.294C78.0391 15.294 77.5025 15.504 77.1011 15.924C76.7091 16.344 76.5131 16.9553 76.5131 17.758V22H75.2391V14.328H76.5131V15.42C76.7651 15.028 77.1058 14.7247 77.5351 14.51C77.9738 14.2953 78.4545 14.188 78.9771 14.188ZM90.9982 14.328V22H89.7242V20.866C89.4815 21.258 89.1409 21.566 88.7022 21.79C88.2729 22.0047 87.7969 22.112 87.2742 22.112C86.6769 22.112 86.1402 21.9907 85.6642 21.748C85.1882 21.496 84.8102 21.1227 84.5302 20.628C84.2595 20.1333 84.1242 19.5313 84.1242 18.822V14.328H85.3842V18.654C85.3842 19.41 85.5755 19.9933 85.9582 20.404C86.3409 20.8053 86.8635 21.006 87.5262 21.006C88.2075 21.006 88.7442 20.796 89.1362 20.376C89.5282 19.956 89.7242 19.3447 89.7242 18.542V14.328H90.9982ZM100.149 17.87C100.149 18.1127 100.135 18.3693 100.107 18.64H93.9753C94.022 19.396 94.2786 19.9887 94.7453 20.418C95.2213 20.838 95.7953 21.048 96.4673 21.048C97.018 21.048 97.4753 20.922 97.8393 20.67C98.2126 20.4087 98.474 20.0633 98.6233 19.634H99.9953C99.79 20.3713 99.3793 20.9733 98.7633 21.44C98.1473 21.8973 97.382 22.126 96.4673 22.126C95.7393 22.126 95.086 21.9627 94.5073 21.636C93.938 21.3093 93.49 20.8473 93.1633 20.25C92.8366 19.6433 92.6733 18.9433 92.6733 18.15C92.6733 17.3567 92.832 16.6613 93.1493 16.064C93.4666 15.4667 93.91 15.0093 94.4793 14.692C95.058 14.3653 95.7206 14.202 96.4673 14.202C97.1953 14.202 97.8393 14.3607 98.3993 14.678C98.9593 14.9953 99.3886 15.434 99.6873 15.994C99.9953 16.5447 100.149 17.17 100.149 17.87ZM98.8333 17.604C98.8333 17.1187 98.726 16.7033 98.5113 16.358C98.2966 16.0033 98.0026 15.7373 97.6293 15.56C97.2653 15.3733 96.8593 15.28 96.4113 15.28C95.7673 15.28 95.2166 15.4853 94.7593 15.896C94.3113 16.3067 94.0546 16.876 93.9893 17.604H98.8333ZM107.117 15.378V19.9C107.117 20.2733 107.197 20.5393 107.355 20.698C107.514 20.8473 107.789 20.922 108.181 20.922H109.119V22H107.971C107.262 22 106.73 21.8367 106.375 21.51C106.021 21.1833 105.843 20.6467 105.843 19.9V15.378H104.849V14.328H105.843V12.396H107.117V14.328H109.119V15.378H107.117ZM114.009 22.126C113.29 22.126 112.637 21.9627 112.049 21.636C111.47 21.3093 111.013 20.8473 110.677 20.25C110.35 19.6433 110.187 18.9433 110.187 18.15C110.187 17.366 110.355 16.6753 110.691 16.078C111.036 15.4713 111.503 15.0093 112.091 14.692C112.679 14.3653 113.337 14.202 114.065 14.202C114.793 14.202 115.451 14.3653 116.039 14.692C116.627 15.0093 117.089 15.4667 117.425 16.064C117.77 16.6613 117.943 17.3567 117.943 18.15C117.943 18.9433 117.766 19.6433 117.411 20.25C117.066 20.8473 116.594 21.3093 115.997 21.636C115.4 21.9627 114.737 22.126 114.009 22.126ZM114.009 21.006C114.466 21.006 114.896 20.8987 115.297 20.684C115.698 20.4693 116.02 20.1473 116.263 19.718C116.515 19.2887 116.641 18.766 116.641 18.15C116.641 17.534 116.52 17.0113 116.277 16.582C116.034 16.1527 115.717 15.8353 115.325 15.63C114.933 15.4153 114.508 15.308 114.051 15.308C113.584 15.308 113.155 15.4153 112.763 15.63C112.38 15.8353 112.072 16.1527 111.839 16.582C111.606 17.0113 111.489 17.534 111.489 18.15C111.489 18.7753 111.601 19.3027 111.825 19.732C112.058 20.1613 112.366 20.4833 112.749 20.698C113.132 20.9033 113.552 21.006 114.009 21.006ZM126.066 22.126C125.478 22.126 124.951 22.028 124.484 21.832C124.018 21.6267 123.649 21.3467 123.378 20.992C123.108 20.628 122.958 20.2127 122.93 19.746H124.246C124.284 20.1287 124.461 20.4413 124.778 20.684C125.105 20.9267 125.53 21.048 126.052 21.048C126.538 21.048 126.92 20.9407 127.2 20.726C127.48 20.5113 127.62 20.2407 127.62 19.914C127.62 19.578 127.471 19.3307 127.172 19.172C126.874 19.004 126.412 18.8407 125.786 18.682C125.217 18.5327 124.75 18.3833 124.386 18.234C124.032 18.0753 123.724 17.8467 123.462 17.548C123.21 17.24 123.084 16.8387 123.084 16.344C123.084 15.952 123.201 15.5927 123.434 15.266C123.668 14.9393 123.999 14.6827 124.428 14.496C124.858 14.3 125.348 14.202 125.898 14.202C126.748 14.202 127.434 14.4167 127.956 14.846C128.479 15.2753 128.759 15.8633 128.796 16.61H127.522C127.494 16.2087 127.331 15.8867 127.032 15.644C126.743 15.4013 126.351 15.28 125.856 15.28C125.399 15.28 125.035 15.378 124.764 15.574C124.494 15.77 124.358 16.0267 124.358 16.344C124.358 16.596 124.438 16.806 124.596 16.974C124.764 17.1327 124.97 17.2633 125.212 17.366C125.464 17.4593 125.81 17.5667 126.248 17.688C126.799 17.8373 127.247 17.9867 127.592 18.136C127.938 18.276 128.232 18.4907 128.474 18.78C128.726 19.0693 128.857 19.4473 128.866 19.914C128.866 20.334 128.75 20.712 128.516 21.048C128.283 21.384 127.952 21.65 127.522 21.846C127.102 22.0327 126.617 22.126 126.066 22.126ZM132.219 15.378V19.9C132.219 20.2733 132.298 20.5393 132.457 20.698C132.616 20.8473 132.891 20.922 133.283 20.922H134.221V22H133.073C132.364 22 131.832 21.8367 131.477 21.51C131.122 21.1833 130.945 20.6467 130.945 19.9V15.378H129.951V14.328H130.945V12.396H132.219V14.328H134.221V15.378H132.219ZM135.289 18.136C135.289 17.352 135.447 16.666 135.765 16.078C136.082 15.4807 136.516 15.0187 137.067 14.692C137.627 14.3653 138.247 14.202 138.929 14.202C139.601 14.202 140.184 14.3467 140.679 14.636C141.173 14.9253 141.542 15.2893 141.785 15.728V14.328H143.073V22H141.785V20.572C141.533 21.02 141.155 21.3933 140.651 21.692C140.156 21.9813 139.577 22.126 138.915 22.126C138.233 22.126 137.617 21.958 137.067 21.622C136.516 21.286 136.082 20.8147 135.765 20.208C135.447 19.6013 135.289 18.9107 135.289 18.136ZM141.785 18.15C141.785 17.5713 141.668 17.0673 141.435 16.638C141.201 16.2087 140.884 15.882 140.483 15.658C140.091 15.4247 139.657 15.308 139.181 15.308C138.705 15.308 138.271 15.42 137.879 15.644C137.487 15.868 137.174 16.1947 136.941 16.624C136.707 17.0533 136.591 17.5573 136.591 18.136C136.591 18.724 136.707 19.2373 136.941 19.676C137.174 20.1053 137.487 20.4367 137.879 20.67C138.271 20.894 138.705 21.006 139.181 21.006C139.657 21.006 140.091 20.894 140.483 20.67C140.884 20.4367 141.201 20.1053 141.435 19.676C141.668 19.2373 141.785 18.7287 141.785 18.15ZM146.779 15.378V19.9C146.779 20.2733 146.859 20.5393 147.017 20.698C147.176 20.8473 147.451 20.922 147.843 20.922H148.781V22H147.633C146.924 22 146.392 21.8367 146.037 21.51C145.683 21.1833 145.505 20.6467 145.505 19.9V15.378H144.511V14.328H145.505V12.396H146.779V14.328H148.781V15.378H146.779ZM150.983 13.082C150.74 13.082 150.535 12.998 150.367 12.83C150.199 12.662 150.115 12.4567 150.115 12.214C150.115 11.9713 150.199 11.766 150.367 11.598C150.535 11.43 150.74 11.346 150.983 11.346C151.216 11.346 151.412 11.43 151.571 11.598C151.739 11.766 151.823 11.9713 151.823 12.214C151.823 12.4567 151.739 12.662 151.571 12.83C151.412 12.998 151.216 13.082 150.983 13.082ZM151.599 14.328V22H150.325V14.328H151.599ZM157.116 22.126C156.398 22.126 155.744 21.9627 155.156 21.636C154.578 21.3093 154.12 20.8473 153.784 20.25C153.458 19.6433 153.294 18.9433 153.294 18.15C153.294 17.366 153.462 16.6753 153.798 16.078C154.144 15.4713 154.61 15.0093 155.198 14.692C155.786 14.3653 156.444 14.202 157.172 14.202C157.9 14.202 158.558 14.3653 159.146 14.692C159.734 15.0093 160.196 15.4667 160.532 16.064C160.878 16.6613 161.05 17.3567 161.05 18.15C161.05 18.9433 160.873 19.6433 160.518 20.25C160.173 20.8473 159.702 21.3093 159.104 21.636C158.507 21.9627 157.844 22.126 157.116 22.126ZM157.116 21.006C157.574 21.006 158.003 20.8987 158.404 20.684C158.806 20.4693 159.128 20.1473 159.37 19.718C159.622 19.2887 159.748 18.766 159.748 18.15C159.748 17.534 159.627 17.0113 159.384 16.582C159.142 16.1527 158.824 15.8353 158.432 15.63C158.04 15.4153 157.616 15.308 157.158 15.308C156.692 15.308 156.262 15.4153 155.87 15.63C155.488 15.8353 155.18 16.1527 154.946 16.582C154.713 17.0113 154.596 17.534 154.596 18.15C154.596 18.7753 154.708 19.3027 154.932 19.732C155.166 20.1613 155.474 20.4833 155.856 20.698C156.239 20.9033 156.659 21.006 157.116 21.006ZM166.463 14.188C167.397 14.188 168.153 14.4727 168.731 15.042C169.31 15.602 169.599 16.414 169.599 17.478V22H168.339V17.66C168.339 16.8947 168.148 16.3113 167.765 15.91C167.383 15.4993 166.86 15.294 166.197 15.294C165.525 15.294 164.989 15.504 164.587 15.924C164.195 16.344 163.999 16.9553 163.999 17.758V22H162.725V14.328H163.999V15.42C164.251 15.028 164.592 14.7247 165.021 14.51C165.46 14.2953 165.941 14.188 166.463 14.188ZM174.397 22.126C173.809 22.126 173.281 22.028 172.815 21.832C172.348 21.6267 171.979 21.3467 171.709 20.992C171.438 20.628 171.289 20.2127 171.261 19.746H172.577C172.614 20.1287 172.791 20.4413 173.109 20.684C173.435 20.9267 173.86 21.048 174.383 21.048C174.868 21.048 175.251 20.9407 175.531 20.726C175.811 20.5113 175.951 20.2407 175.951 19.914C175.951 19.578 175.801 19.3307 175.503 19.172C175.204 19.004 174.742 18.8407 174.117 18.682C173.547 18.5327 173.081 18.3833 172.717 18.234C172.362 18.0753 172.054 17.8467 171.793 17.548C171.541 17.24 171.415 16.8387 171.415 16.344C171.415 15.952 171.531 15.5927 171.765 15.266C171.998 14.9393 172.329 14.6827 172.759 14.496C173.188 14.3 173.678 14.202 174.229 14.202C175.078 14.202 175.764 14.4167 176.287 14.846C176.809 15.2753 177.089 15.8633 177.127 16.61H175.853C175.825 16.2087 175.661 15.8867 175.363 15.644C175.073 15.4013 174.681 15.28 174.187 15.28C173.729 15.28 173.365 15.378 173.095 15.574C172.824 15.77 172.689 16.0267 172.689 16.344C172.689 16.596 172.768 16.806 172.927 16.974C173.095 17.1327 173.3 17.2633 173.543 17.366C173.795 17.4593 174.14 17.5667 174.579 17.688C175.129 17.8373 175.577 17.9867 175.923 18.136C176.268 18.276 176.562 18.4907 176.805 18.78C177.057 19.0693 177.187 19.4473 177.197 19.914C177.197 20.334 177.08 20.712 176.847 21.048C176.613 21.384 176.282 21.65 175.853 21.846C175.433 22.0327 174.947 22.126 174.397 22.126ZM185.583 20.824L187.963 14.328H189.321L186.311 22H184.827L181.817 14.328H183.189L185.583 20.824ZM191.233 13.082C190.99 13.082 190.785 12.998 190.617 12.83C190.449 12.662 190.365 12.4567 190.365 12.214C190.365 11.9713 190.449 11.766 190.617 11.598C190.785 11.43 190.99 11.346 191.233 11.346C191.466 11.346 191.662 11.43 191.821 11.598C191.989 11.766 192.073 11.9713 192.073 12.214C192.073 12.4567 191.989 12.662 191.821 12.83C191.662 12.998 191.466 13.082 191.233 13.082ZM191.849 14.328V22H190.575V14.328H191.849ZM201.02 17.87C201.02 18.1127 201.006 18.3693 200.978 18.64H194.846C194.893 19.396 195.15 19.9887 195.616 20.418C196.092 20.838 196.666 21.048 197.338 21.048C197.889 21.048 198.346 20.922 198.71 20.67C199.084 20.4087 199.345 20.0633 199.494 19.634H200.866C200.661 20.3713 200.25 20.9733 199.634 21.44C199.018 21.8973 198.253 22.126 197.338 22.126C196.61 22.126 195.957 21.9627 195.378 21.636C194.809 21.3093 194.361 20.8473 194.034 20.25C193.708 19.6433 193.544 18.9433 193.544 18.15C193.544 17.3567 193.703 16.6613 194.02 16.064C194.338 15.4667 194.781 15.0093 195.35 14.692C195.929 14.3653 196.592 14.202 197.338 14.202C198.066 14.202 198.71 14.3607 199.27 14.678C199.83 14.9953 200.26 15.434 200.558 15.994C200.866 16.5447 201.02 17.17 201.02 17.87ZM199.704 17.604C199.704 17.1187 199.597 16.7033 199.382 16.358C199.168 16.0033 198.874 15.7373 198.5 15.56C198.136 15.3733 197.73 15.28 197.282 15.28C196.638 15.28 196.088 15.4853 195.63 15.896C195.182 16.3067 194.926 16.876 194.86 17.604H199.704ZM212.922 14.328L210.528 22H209.212L207.364 15.91L205.516 22H204.2L201.792 14.328H203.094L204.858 20.768L206.762 14.328H208.064L209.926 20.782L211.662 14.328H212.922Z" fill="#13115B"/>
</svg>
