<svg width="236" height="36" viewBox="0 0 236 36" fill="none" xmlns="http://www.w3.org/2000/svg">
<rect x="0.921875" width="235" height="36" rx="6" fill="#52DE97"/>
<path d="M57.5965 12.742C58.6605 12.742 59.5798 12.9427 60.3545 13.344C61.1385 13.736 61.7358 14.3007 62.1465 15.038C62.5665 15.7753 62.7765 16.6433 62.7765 17.642C62.7765 18.6407 62.5665 19.5087 62.1465 20.246C61.7358 20.974 61.1385 21.534 60.3545 21.926C59.5798 22.3087 58.6605 22.5 57.5965 22.5H54.5585V12.742H57.5965ZM57.5965 21.45C58.8565 21.45 59.8178 21.1187 60.4805 20.456C61.1431 19.784 61.4745 18.846 61.4745 17.642C61.4745 16.4287 61.1385 15.4813 60.4665 14.8C59.8038 14.1187 58.8471 13.778 57.5965 13.778H55.8325V21.45H57.5965ZM71.4569 18.37C71.4569 18.6127 71.4429 18.8693 71.4149 19.14H65.2829C65.3296 19.896 65.5862 20.4887 66.0529 20.918C66.5289 21.338 67.1029 21.548 67.7749 21.548C68.3256 21.548 68.7829 21.422 69.1469 21.17C69.5202 20.9087 69.7816 20.5633 69.9309 20.134H71.3029C71.0976 20.8713 70.6869 21.4733 70.0709 21.94C69.4549 22.3973 68.6896 22.626 67.7749 22.626C67.0469 22.626 66.3936 22.4627 65.8149 22.136C65.2456 21.8093 64.7976 21.3473 64.4709 20.75C64.1442 20.1433 63.9809 19.4433 63.9809 18.65C63.9809 17.8567 64.1396 17.1613 64.4569 16.564C64.7742 15.9667 65.2176 15.5093 65.7869 15.192C66.3656 14.8653 67.0282 14.702 67.7749 14.702C68.5029 14.702 69.1469 14.8607 69.7069 15.178C70.2669 15.4953 70.6962 15.934 70.9949 16.494C71.3029 17.0447 71.4569 17.67 71.4569 18.37ZM70.1409 18.104C70.1409 17.6187 70.0336 17.2033 69.8189 16.858C69.6042 16.5033 69.3102 16.2373 68.9369 16.06C68.5729 15.8733 68.1669 15.78 67.7189 15.78C67.0749 15.78 66.5242 15.9853 66.0669 16.396C65.6189 16.8067 65.3622 17.376 65.2969 18.104H70.1409ZM74.4125 16.242C74.6645 15.8033 75.0379 15.4393 75.5325 15.15C76.0365 14.8513 76.6199 14.702 77.2825 14.702C77.9639 14.702 78.5799 14.8653 79.1305 15.192C79.6905 15.5187 80.1292 15.9807 80.4465 16.578C80.7639 17.166 80.9225 17.852 80.9225 18.636C80.9225 19.4107 80.7639 20.1013 80.4465 20.708C80.1292 21.3147 79.6905 21.786 79.1305 22.122C78.5799 22.458 77.9639 22.626 77.2825 22.626C76.6292 22.626 76.0505 22.4813 75.5465 22.192C75.0519 21.8933 74.6739 21.5247 74.4125 21.086V26.14H73.1385V14.828H74.4125V16.242ZM79.6205 18.636C79.6205 18.0573 79.5039 17.5533 79.2705 17.124C79.0372 16.6947 78.7199 16.368 78.3185 16.144C77.9265 15.92 77.4925 15.808 77.0165 15.808C76.5499 15.808 76.1159 15.9247 75.7145 16.158C75.3225 16.382 75.0052 16.7133 74.7625 17.152C74.5292 17.5813 74.4125 18.0807 74.4125 18.65C74.4125 19.2287 74.5292 19.7373 74.7625 20.176C75.0052 20.6053 75.3225 20.9367 75.7145 21.17C76.1159 21.394 76.5499 21.506 77.0165 21.506C77.4925 21.506 77.9265 21.394 78.3185 21.17C78.7199 20.9367 79.0372 20.6053 79.2705 20.176C79.5039 19.7373 79.6205 19.224 79.6205 18.636ZM83.8735 12.14V22.5H82.5995V12.14H83.8735ZM89.3908 22.626C88.6721 22.626 88.0188 22.4627 87.4308 22.136C86.8521 21.8093 86.3948 21.3473 86.0588 20.75C85.7321 20.1433 85.5688 19.4433 85.5688 18.65C85.5688 17.866 85.7368 17.1753 86.0728 16.578C86.4181 15.9713 86.8848 15.5093 87.4728 15.192C88.0608 14.8653 88.7188 14.702 89.4468 14.702C90.1748 14.702 90.8328 14.8653 91.4208 15.192C92.0088 15.5093 92.4708 15.9667 92.8068 16.564C93.1521 17.1613 93.3248 17.8567 93.3248 18.65C93.3248 19.4433 93.1475 20.1433 92.7928 20.75C92.4475 21.3473 91.9761 21.8093 91.3788 22.136C90.7815 22.4627 90.1188 22.626 89.3908 22.626ZM89.3908 21.506C89.8481 21.506 90.2775 21.3987 90.6788 21.184C91.0801 20.9693 91.4021 20.6473 91.6448 20.218C91.8968 19.7887 92.0228 19.266 92.0228 18.65C92.0228 18.034 91.9015 17.5113 91.6588 17.082C91.4161 16.6527 91.0988 16.3353 90.7068 16.13C90.3148 15.9153 89.8901 15.808 89.4328 15.808C88.9661 15.808 88.5368 15.9153 88.1448 16.13C87.7621 16.3353 87.4541 16.6527 87.2208 17.082C86.9875 17.5113 86.8708 18.034 86.8708 18.65C86.8708 19.2753 86.9828 19.8027 87.2068 20.232C87.4401 20.6613 87.7481 20.9833 88.1308 21.198C88.5135 21.4033 88.9335 21.506 89.3908 21.506ZM101.608 14.828L96.9879 26.112H95.6719L97.1839 22.416L94.0899 14.828H95.5039L97.9119 21.044L100.292 14.828H101.608ZM110.359 14.688C111.292 14.688 112.048 14.9727 112.627 15.542C113.206 16.102 113.495 16.914 113.495 17.978V22.5H112.235V18.16C112.235 17.3947 112.044 16.8113 111.661 16.41C111.278 15.9993 110.756 15.794 110.093 15.794C109.421 15.794 108.884 16.004 108.483 16.424C108.091 16.844 107.895 17.4553 107.895 18.258V22.5H106.621V14.828H107.895V15.92C108.147 15.528 108.488 15.2247 108.917 15.01C109.356 14.7953 109.836 14.688 110.359 14.688ZM122.576 18.37C122.576 18.6127 122.562 18.8693 122.534 19.14H116.402C116.449 19.896 116.705 20.4887 117.172 20.918C117.648 21.338 118.222 21.548 118.894 21.548C119.445 21.548 119.902 21.422 120.266 21.17C120.639 20.9087 120.901 20.5633 121.05 20.134H122.422C122.217 20.8713 121.806 21.4733 121.19 21.94C120.574 22.3973 119.809 22.626 118.894 22.626C118.166 22.626 117.513 22.4627 116.934 22.136C116.365 21.8093 115.917 21.3473 115.59 20.75C115.263 20.1433 115.1 19.4433 115.1 18.65C115.1 17.8567 115.259 17.1613 115.576 16.564C115.893 15.9667 116.337 15.5093 116.906 15.192C117.485 14.8653 118.147 14.702 118.894 14.702C119.622 14.702 120.266 14.8607 120.826 15.178C121.386 15.4953 121.815 15.934 122.114 16.494C122.422 17.0447 122.576 17.67 122.576 18.37ZM121.26 18.104C121.26 17.6187 121.153 17.2033 120.938 16.858C120.723 16.5033 120.429 16.2373 120.056 16.06C119.692 15.8733 119.286 15.78 118.838 15.78C118.194 15.78 117.643 15.9853 117.186 16.396C116.738 16.8067 116.481 17.376 116.416 18.104H121.26ZM134.478 14.828L132.084 22.5H130.768L128.92 16.41L127.072 22.5H125.756L123.348 14.828H124.65L126.414 21.268L128.318 14.828H129.62L131.482 21.282L133.218 14.828H134.478ZM148.7 14.688C149.298 14.688 149.83 14.814 150.296 15.066C150.763 15.3087 151.132 15.6773 151.402 16.172C151.673 16.6667 151.808 17.2687 151.808 17.978V22.5H150.548V18.16C150.548 17.3947 150.357 16.8113 149.974 16.41C149.601 15.9993 149.092 15.794 148.448 15.794C147.786 15.794 147.258 16.0087 146.866 16.438C146.474 16.858 146.278 17.4693 146.278 18.272V22.5H145.018V18.16C145.018 17.3947 144.827 16.8113 144.444 16.41C144.071 15.9993 143.562 15.794 142.918 15.794C142.256 15.794 141.728 16.0087 141.336 16.438C140.944 16.858 140.748 17.4693 140.748 18.272V22.5H139.474V14.828H140.748V15.934C141 15.5327 141.336 15.2247 141.756 15.01C142.186 14.7953 142.657 14.688 143.17 14.688C143.814 14.688 144.384 14.8327 144.878 15.122C145.373 15.4113 145.742 15.836 145.984 16.396C146.199 15.8547 146.554 15.4347 147.048 15.136C147.543 14.8373 148.094 14.688 148.7 14.688ZM157.244 22.626C156.526 22.626 155.872 22.4627 155.284 22.136C154.706 21.8093 154.248 21.3473 153.912 20.75C153.586 20.1433 153.422 19.4433 153.422 18.65C153.422 17.866 153.59 17.1753 153.926 16.578C154.272 15.9713 154.738 15.5093 155.326 15.192C155.914 14.8653 156.572 14.702 157.3 14.702C158.028 14.702 158.686 14.8653 159.274 15.192C159.862 15.5093 160.324 15.9667 160.66 16.564C161.006 17.1613 161.178 17.8567 161.178 18.65C161.178 19.4433 161.001 20.1433 160.646 20.75C160.301 21.3473 159.83 21.8093 159.232 22.136C158.635 22.4627 157.972 22.626 157.244 22.626ZM157.244 21.506C157.702 21.506 158.131 21.3987 158.532 21.184C158.934 20.9693 159.256 20.6473 159.498 20.218C159.75 19.7887 159.876 19.266 159.876 18.65C159.876 18.034 159.755 17.5113 159.512 17.082C159.27 16.6527 158.952 16.3353 158.56 16.13C158.168 15.9153 157.744 15.808 157.286 15.808C156.82 15.808 156.39 15.9153 155.998 16.13C155.616 16.3353 155.308 16.6527 155.074 17.082C154.841 17.5113 154.724 18.034 154.724 18.65C154.724 19.2753 154.836 19.8027 155.06 20.232C155.294 20.6613 155.602 20.9833 155.984 21.198C156.367 21.4033 156.787 21.506 157.244 21.506ZM162.377 18.636C162.377 17.852 162.536 17.166 162.853 16.578C163.171 15.9807 163.605 15.5187 164.155 15.192C164.715 14.8653 165.341 14.702 166.031 14.702C166.629 14.702 167.184 14.842 167.697 15.122C168.211 15.3927 168.603 15.752 168.873 16.2V12.14H170.161V22.5H168.873V21.058C168.621 21.5153 168.248 21.8933 167.753 22.192C167.259 22.4813 166.68 22.626 166.017 22.626C165.336 22.626 164.715 22.458 164.155 22.122C163.605 21.786 163.171 21.3147 162.853 20.708C162.536 20.1013 162.377 19.4107 162.377 18.636ZM168.873 18.65C168.873 18.0713 168.757 17.5673 168.523 17.138C168.29 16.7087 167.973 16.382 167.571 16.158C167.179 15.9247 166.745 15.808 166.269 15.808C165.793 15.808 165.359 15.92 164.967 16.144C164.575 16.368 164.263 16.6947 164.029 17.124C163.796 17.5533 163.679 18.0573 163.679 18.636C163.679 19.224 163.796 19.7373 164.029 20.176C164.263 20.6053 164.575 20.9367 164.967 21.17C165.359 21.394 165.793 21.506 166.269 21.506C166.745 21.506 167.179 21.394 167.571 21.17C167.973 20.9367 168.29 20.6053 168.523 20.176C168.757 19.7373 168.873 19.2287 168.873 18.65ZM179.314 18.37C179.314 18.6127 179.3 18.8693 179.272 19.14H173.14C173.187 19.896 173.444 20.4887 173.91 20.918C174.386 21.338 174.96 21.548 175.632 21.548C176.183 21.548 176.64 21.422 177.004 21.17C177.378 20.9087 177.639 20.5633 177.788 20.134H179.16C178.955 20.8713 178.544 21.4733 177.928 21.94C177.312 22.3973 176.547 22.626 175.632 22.626C174.904 22.626 174.251 22.4627 173.672 22.136C173.103 21.8093 172.655 21.3473 172.328 20.75C172.002 20.1433 171.838 19.4433 171.838 18.65C171.838 17.8567 171.997 17.1613 172.314 16.564C172.632 15.9667 173.075 15.5093 173.644 15.192C174.223 14.8653 174.886 14.702 175.632 14.702C176.36 14.702 177.004 14.8607 177.564 15.178C178.124 15.4953 178.554 15.934 178.852 16.494C179.16 17.0447 179.314 17.67 179.314 18.37ZM177.998 18.104C177.998 17.6187 177.891 17.2033 177.676 16.858C177.462 16.5033 177.168 16.2373 176.794 16.06C176.43 15.8733 176.024 15.78 175.576 15.78C174.932 15.78 174.382 15.9853 173.924 16.396C173.476 16.8067 173.22 17.376 173.154 18.104H177.998ZM182.27 12.14V22.5H180.996V12.14H182.27Z" fill="#13115B"/>
</svg>
