<svg width="200" height="35" viewBox="0 0 200 35" fill="none" xmlns="http://www.w3.org/2000/svg">
<rect x="-0.000244141" width="200" height="35" rx="6" fill="url(#paint0_linear_106_20309)"/>
<path d="M35.6313 8H22.9998V23.1579H35.6313V8Z" stroke="white"/>
<path d="M23.4209 13.0508H35.2104" stroke="white"/>
<path d="M25.949 10.5234H27.6332" stroke="white"/>
<path d="M23.4209 18.1055H35.2104" stroke="white"/>
<path d="M25.949 15.5781H27.6332" stroke="white"/>
<path d="M25.949 20.6328H27.6332" stroke="white"/>
<circle cx="35.9998" cy="22" r="5" fill="#52DE97"/>
<path d="M53.6012 12.545C54.7412 12.545 55.7262 12.76 56.5562 13.19C57.3962 13.61 58.0362 14.215 58.4762 15.005C58.9262 15.795 59.1512 16.725 59.1512 17.795C59.1512 18.865 58.9262 19.795 58.4762 20.585C58.0362 21.365 57.3962 21.965 56.5562 22.385C55.7262 22.795 54.7412 23 53.6012 23H50.3462V12.545H53.6012ZM53.6012 21.875C54.9512 21.875 55.9812 21.52 56.6912 20.81C57.4012 20.09 57.7562 19.085 57.7562 17.795C57.7562 16.495 57.3962 15.48 56.6762 14.75C55.9662 14.02 54.9412 13.655 53.6012 13.655H51.7112V21.875H53.6012ZM60.4416 18.86C60.4416 18.02 60.6116 17.285 60.9516 16.655C61.2916 16.015 61.7566 15.52 62.3466 15.17C62.9466 14.82 63.6116 14.645 64.3416 14.645C65.0616 14.645 65.6866 14.8 66.2166 15.11C66.7466 15.42 67.1416 15.81 67.4016 16.28V14.78H68.7816V23H67.4016V21.47C67.1316 21.95 66.7266 22.35 66.1866 22.67C65.6566 22.98 65.0366 23.135 64.3266 23.135C63.5966 23.135 62.9366 22.955 62.3466 22.595C61.7566 22.235 61.2916 21.73 60.9516 21.08C60.6116 20.43 60.4416 19.69 60.4416 18.86ZM67.4016 18.875C67.4016 18.255 67.2766 17.715 67.0266 17.255C66.7766 16.795 66.4366 16.445 66.0066 16.205C65.5866 15.955 65.1216 15.83 64.6116 15.83C64.1016 15.83 63.6366 15.95 63.2166 16.19C62.7966 16.43 62.4616 16.78 62.2116 17.24C61.9616 17.7 61.8366 18.24 61.8366 18.86C61.8366 19.49 61.9616 20.04 62.2116 20.51C62.4616 20.97 62.7966 21.325 63.2166 21.575C63.6366 21.815 64.1016 21.935 64.6116 21.935C65.1216 21.935 65.5866 21.815 66.0066 21.575C66.4366 21.325 66.7766 20.97 67.0266 20.51C67.2766 20.04 67.4016 19.495 67.4016 18.875ZM72.7533 15.905V20.75C72.7533 21.15 72.8383 21.435 73.0083 21.605C73.1783 21.765 73.4733 21.845 73.8933 21.845H74.8984V23H73.6683C72.9083 23 72.3383 22.825 71.9583 22.475C71.5783 22.125 71.3883 21.55 71.3883 20.75V15.905H70.3233V14.78H71.3883V12.71H72.7533V14.78H74.8984V15.905H72.7533ZM76.0422 18.86C76.0422 18.02 76.2122 17.285 76.5522 16.655C76.8922 16.015 77.3572 15.52 77.9472 15.17C78.5472 14.82 79.2122 14.645 79.9422 14.645C80.6622 14.645 81.2872 14.8 81.8172 15.11C82.3472 15.42 82.7422 15.81 83.0022 16.28V14.78H84.3822V23H83.0022V21.47C82.7322 21.95 82.3272 22.35 81.7872 22.67C81.2572 22.98 80.6372 23.135 79.9272 23.135C79.1972 23.135 78.5372 22.955 77.9472 22.595C77.3572 22.235 76.8922 21.73 76.5522 21.08C76.2122 20.43 76.0422 19.69 76.0422 18.86ZM83.0022 18.875C83.0022 18.255 82.8772 17.715 82.6272 17.255C82.3772 16.795 82.0372 16.445 81.6072 16.205C81.1872 15.955 80.7222 15.83 80.2122 15.83C79.7022 15.83 79.2372 15.95 78.8172 16.19C78.3972 16.43 78.0622 16.78 77.8122 17.24C77.5622 17.7 77.4372 18.24 77.4372 18.86C77.4372 19.49 77.5622 20.04 77.8122 20.51C78.0622 20.97 78.3972 21.325 78.8172 21.575C79.2372 21.815 79.7022 21.935 80.2122 21.935C80.7222 21.935 81.1872 21.815 81.6072 21.575C82.0372 21.325 82.3772 20.97 82.6272 20.51C82.8772 20.04 83.0022 19.495 83.0022 18.875ZM90.178 17.765C90.178 16.745 90.408 15.83 90.868 15.02C91.328 14.2 91.953 13.56 92.743 13.1C93.543 12.64 94.428 12.41 95.398 12.41C96.538 12.41 97.533 12.685 98.383 13.235C99.233 13.785 99.853 14.565 100.243 15.575H98.608C98.318 14.945 97.898 14.46 97.348 14.12C96.808 13.78 96.158 13.61 95.398 13.61C94.668 13.61 94.013 13.78 93.433 14.12C92.853 14.46 92.398 14.945 92.068 15.575C91.738 16.195 91.573 16.925 91.573 17.765C91.573 18.595 91.738 19.325 92.068 19.955C92.398 20.575 92.853 21.055 93.433 21.395C94.013 21.735 94.668 21.905 95.398 21.905C96.158 21.905 96.808 21.74 97.348 21.41C97.898 21.07 98.318 20.585 98.608 19.955H100.243C99.853 20.955 99.233 21.73 98.383 22.28C97.533 22.82 96.538 23.09 95.398 23.09C94.428 23.09 93.543 22.865 92.743 22.415C91.953 21.955 91.328 21.32 90.868 20.51C90.408 19.7 90.178 18.785 90.178 17.765ZM105.86 23.135C105.09 23.135 104.39 22.96 103.76 22.61C103.14 22.26 102.65 21.765 102.29 21.125C101.94 20.475 101.765 19.725 101.765 18.875C101.765 18.035 101.945 17.295 102.305 16.655C102.675 16.005 103.175 15.51 103.805 15.17C104.435 14.82 105.14 14.645 105.92 14.645C106.7 14.645 107.405 14.82 108.035 15.17C108.665 15.51 109.16 16 109.52 16.64C109.89 17.28 110.075 18.025 110.075 18.875C110.075 19.725 109.885 20.475 109.505 21.125C109.135 21.765 108.63 22.26 107.99 22.61C107.35 22.96 106.64 23.135 105.86 23.135ZM105.86 21.935C106.35 21.935 106.81 21.82 107.24 21.59C107.67 21.36 108.015 21.015 108.275 20.555C108.545 20.095 108.68 19.535 108.68 18.875C108.68 18.215 108.55 17.655 108.29 17.195C108.03 16.735 107.69 16.395 107.27 16.175C106.85 15.945 106.395 15.83 105.905 15.83C105.405 15.83 104.945 15.945 104.525 16.175C104.115 16.395 103.785 16.735 103.535 17.195C103.285 17.655 103.16 18.215 103.16 18.875C103.16 19.545 103.28 20.11 103.52 20.57C103.77 21.03 104.1 21.375 104.51 21.605C104.92 21.825 105.37 21.935 105.86 21.935ZM115.875 14.63C116.875 14.63 117.685 14.935 118.305 15.545C118.925 16.145 119.235 17.015 119.235 18.155V23H117.885V18.35C117.885 17.53 117.68 16.905 117.27 16.475C116.86 16.035 116.3 15.815 115.59 15.815C114.87 15.815 114.295 16.04 113.865 16.49C113.445 16.94 113.235 17.595 113.235 18.455V23H111.87V14.78H113.235V15.95C113.505 15.53 113.87 15.205 114.33 14.975C114.8 14.745 115.315 14.63 115.875 14.63ZM125.469 14.63C126.469 14.63 127.279 14.935 127.899 15.545C128.519 16.145 128.829 17.015 128.829 18.155V23H127.479V18.35C127.479 17.53 127.274 16.905 126.864 16.475C126.454 16.035 125.894 15.815 125.184 15.815C124.464 15.815 123.889 16.04 123.459 16.49C123.039 16.94 122.829 17.595 122.829 18.455V23H121.464V14.78H122.829V15.95C123.099 15.53 123.464 15.205 123.924 14.975C124.394 14.745 124.909 14.63 125.469 14.63ZM138.559 18.575C138.559 18.835 138.544 19.11 138.514 19.4H131.944C131.994 20.21 132.269 20.845 132.769 21.305C133.279 21.755 133.894 21.98 134.614 21.98C135.204 21.98 135.694 21.845 136.084 21.575C136.484 21.295 136.764 20.925 136.924 20.465H138.394C138.174 21.255 137.734 21.9 137.074 22.4C136.414 22.89 135.594 23.135 134.614 23.135C133.834 23.135 133.134 22.96 132.514 22.61C131.904 22.26 131.424 21.765 131.074 21.125C130.724 20.475 130.549 19.725 130.549 18.875C130.549 18.025 130.719 17.28 131.059 16.64C131.399 16 131.874 15.51 132.484 15.17C133.104 14.82 133.814 14.645 134.614 14.645C135.394 14.645 136.084 14.815 136.684 15.155C137.284 15.495 137.744 15.965 138.064 16.565C138.394 17.155 138.559 17.825 138.559 18.575ZM137.149 18.29C137.149 17.77 137.034 17.325 136.804 16.955C136.574 16.575 136.259 16.29 135.859 16.1C135.469 15.9 135.034 15.8 134.554 15.8C133.864 15.8 133.274 16.02 132.784 16.46C132.304 16.9 132.029 17.51 131.959 18.29H137.149ZM139.851 18.875C139.851 18.025 140.021 17.285 140.361 16.655C140.701 16.015 141.171 15.52 141.771 15.17C142.381 14.82 143.076 14.645 143.856 14.645C144.866 14.645 145.696 14.89 146.346 15.38C147.006 15.87 147.441 16.55 147.651 17.42H146.181C146.041 16.92 145.766 16.525 145.356 16.235C144.956 15.945 144.456 15.8 143.856 15.8C143.076 15.8 142.446 16.07 141.966 16.61C141.486 17.14 141.246 17.895 141.246 18.875C141.246 19.865 141.486 20.63 141.966 21.17C142.446 21.71 143.076 21.98 143.856 21.98C144.456 21.98 144.956 21.84 145.356 21.56C145.756 21.28 146.031 20.88 146.181 20.36H147.651C147.431 21.2 146.991 21.875 146.331 22.385C145.671 22.885 144.846 23.135 143.856 23.135C143.076 23.135 142.381 22.96 141.771 22.61C141.171 22.26 140.701 21.765 140.361 21.125C140.021 20.485 139.851 19.735 139.851 18.875ZM151.137 15.905V20.75C151.137 21.15 151.222 21.435 151.392 21.605C151.562 21.765 151.857 21.845 152.277 21.845H153.282V23H152.052C151.292 23 150.722 22.825 150.342 22.475C149.962 22.125 149.772 21.55 149.772 20.75V15.905H148.707V14.78H149.772V12.71H151.137V14.78H153.282V15.905H151.137ZM158.521 23.135C157.751 23.135 157.051 22.96 156.421 22.61C155.801 22.26 155.311 21.765 154.951 21.125C154.601 20.475 154.426 19.725 154.426 18.875C154.426 18.035 154.606 17.295 154.966 16.655C155.336 16.005 155.836 15.51 156.466 15.17C157.096 14.82 157.801 14.645 158.581 14.645C159.361 14.645 160.066 14.82 160.696 15.17C161.326 15.51 161.821 16 162.181 16.64C162.551 17.28 162.736 18.025 162.736 18.875C162.736 19.725 162.546 20.475 162.166 21.125C161.796 21.765 161.291 22.26 160.651 22.61C160.011 22.96 159.301 23.135 158.521 23.135ZM158.521 21.935C159.011 21.935 159.471 21.82 159.901 21.59C160.331 21.36 160.676 21.015 160.936 20.555C161.206 20.095 161.341 19.535 161.341 18.875C161.341 18.215 161.211 17.655 160.951 17.195C160.691 16.735 160.351 16.395 159.931 16.175C159.511 15.945 159.056 15.83 158.566 15.83C158.066 15.83 157.606 15.945 157.186 16.175C156.776 16.395 156.446 16.735 156.196 17.195C155.946 17.655 155.821 18.215 155.821 18.875C155.821 19.545 155.941 20.11 156.181 20.57C156.431 21.03 156.761 21.375 157.171 21.605C157.581 21.825 158.031 21.935 158.521 21.935ZM165.896 16.115C166.136 15.645 166.476 15.28 166.916 15.02C167.366 14.76 167.911 14.63 168.551 14.63V16.04H168.191C166.661 16.04 165.896 16.87 165.896 18.53V23H164.531V14.78H165.896V16.115ZM173.036 23.135C172.406 23.135 171.841 23.03 171.341 22.82C170.841 22.6 170.446 22.3 170.156 21.92C169.866 21.53 169.706 21.085 169.676 20.585H171.086C171.126 20.995 171.316 21.33 171.656 21.59C172.006 21.85 172.461 21.98 173.021 21.98C173.541 21.98 173.951 21.865 174.251 21.635C174.551 21.405 174.701 21.115 174.701 20.765C174.701 20.405 174.541 20.14 174.221 19.97C173.901 19.79 173.406 19.615 172.736 19.445C172.126 19.285 171.626 19.125 171.236 18.965C170.856 18.795 170.526 18.55 170.246 18.23C169.976 17.9 169.841 17.47 169.841 16.94C169.841 16.52 169.966 16.135 170.216 15.785C170.466 15.435 170.821 15.16 171.281 14.96C171.741 14.75 172.266 14.645 172.856 14.645C173.766 14.645 174.501 14.875 175.061 15.335C175.621 15.795 175.921 16.425 175.961 17.225H174.596C174.566 16.795 174.391 16.45 174.071 16.19C173.761 15.93 173.341 15.8 172.811 15.8C172.321 15.8 171.931 15.905 171.641 16.115C171.351 16.325 171.206 16.6 171.206 16.94C171.206 17.21 171.291 17.435 171.461 17.615C171.641 17.785 171.861 17.925 172.121 18.035C172.391 18.135 172.761 18.25 173.231 18.38C173.821 18.54 174.301 18.7 174.671 18.86C175.041 19.01 175.356 19.24 175.616 19.55C175.886 19.86 176.026 20.265 176.036 20.765C176.036 21.215 175.911 21.62 175.661 21.98C175.411 22.34 175.056 22.625 174.596 22.835C174.146 23.035 173.626 23.135 173.036 23.135Z" fill="white"/>
<defs>
<linearGradient id="paint0_linear_106_20309" x1="223.797" y1="17.637" x2="-30.9056" y2="17.637" gradientUnits="userSpaceOnUse">
<stop stop-color="#091733"/>
<stop offset="1" stop-color="#394253"/>
</linearGradient>
</defs>
</svg>
