<svg width="200" height="35" viewBox="0 0 200 35" fill="none" xmlns="http://www.w3.org/2000/svg">
<path d="M-0.000366211 0H194C197.313 0 200 2.68629 200 6V29C200 32.3137 197.313 35 194 35H-0.000366211V0Z" fill="url(#paint0_linear_146_17505)"/>
<path d="M41.1312 8H28.4996V23.1579H41.1312V8Z" stroke="white"/>
<path d="M28.9207 13.0527H40.7102" stroke="white"/>
<path d="M31.4489 10.5254H33.1331" stroke="white"/>
<path d="M28.9207 18.1055H40.7102" stroke="white"/>
<path d="M31.4489 15.5781H33.1331" stroke="white"/>
<path d="M31.4489 20.6309H33.1331" stroke="white"/>
<circle cx="41.4996" cy="22" r="4.5" fill="#52DE97" stroke="#394253"/>
<path d="M58.7162 12.242C59.7802 12.242 60.6996 12.4427 61.4742 12.844C62.2582 13.236 62.8556 13.8007 63.2662 14.538C63.6862 15.2753 63.8962 16.1433 63.8962 17.142C63.8962 18.1407 63.6862 19.0087 63.2662 19.746C62.8556 20.474 62.2582 21.034 61.4742 21.426C60.6996 21.8087 59.7802 22 58.7162 22H55.6782V12.242H58.7162ZM58.7162 20.95C59.9762 20.95 60.9376 20.6187 61.6002 19.956C62.2629 19.284 62.5942 18.346 62.5942 17.142C62.5942 15.9287 62.2582 14.9813 61.5862 14.3C60.9236 13.6187 59.9669 13.278 58.7162 13.278H56.9522V20.95H58.7162ZM65.1007 18.136C65.1007 17.352 65.2593 16.666 65.5767 16.078C65.894 15.4807 66.328 15.0187 66.8787 14.692C67.4387 14.3653 68.0593 14.202 68.7407 14.202C69.4127 14.202 69.996 14.3467 70.4907 14.636C70.9853 14.9253 71.354 15.2893 71.5967 15.728V14.328H72.8847V22H71.5967V20.572C71.3447 21.02 70.9667 21.3933 70.4627 21.692C69.968 21.9813 69.3893 22.126 68.7267 22.126C68.0453 22.126 67.4293 21.958 66.8787 21.622C66.328 21.286 65.894 20.8147 65.5767 20.208C65.2593 19.6013 65.1007 18.9107 65.1007 18.136ZM71.5967 18.15C71.5967 17.5713 71.48 17.0673 71.2467 16.638C71.0133 16.2087 70.696 15.882 70.2947 15.658C69.9027 15.4247 69.4687 15.308 68.9927 15.308C68.5167 15.308 68.0827 15.42 67.6907 15.644C67.2987 15.868 66.986 16.1947 66.7527 16.624C66.5193 17.0533 66.4027 17.5573 66.4027 18.136C66.4027 18.724 66.5193 19.2373 66.7527 19.676C66.986 20.1053 67.2987 20.4367 67.6907 20.67C68.0827 20.894 68.5167 21.006 68.9927 21.006C69.4687 21.006 69.9027 20.894 70.2947 20.67C70.696 20.4367 71.0133 20.1053 71.2467 19.676C71.48 19.2373 71.5967 18.7287 71.5967 18.15ZM76.5916 15.378V19.9C76.5916 20.2733 76.6709 20.5393 76.8296 20.698C76.9883 20.8473 77.2636 20.922 77.6556 20.922H78.5936V22H77.4456C76.7363 22 76.2043 21.8367 75.8496 21.51C75.4949 21.1833 75.3176 20.6467 75.3176 19.9V15.378H74.3236V14.328H75.3176V12.396H76.5916V14.328H78.5936V15.378H76.5916ZM79.6612 18.136C79.6612 17.352 79.8199 16.666 80.1372 16.078C80.4545 15.4807 80.8885 15.0187 81.4392 14.692C81.9992 14.3653 82.6199 14.202 83.3012 14.202C83.9732 14.202 84.5565 14.3467 85.0512 14.636C85.5459 14.9253 85.9145 15.2893 86.1572 15.728V14.328H87.4452V22H86.1572V20.572C85.9052 21.02 85.5272 21.3933 85.0232 21.692C84.5285 21.9813 83.9499 22.126 83.2872 22.126C82.6059 22.126 81.9899 21.958 81.4392 21.622C80.8885 21.286 80.4545 20.8147 80.1372 20.208C79.8199 19.6013 79.6612 18.9107 79.6612 18.136ZM86.1572 18.15C86.1572 17.5713 86.0405 17.0673 85.8072 16.638C85.5739 16.2087 85.2565 15.882 84.8552 15.658C84.4632 15.4247 84.0292 15.308 83.5532 15.308C83.0772 15.308 82.6432 15.42 82.2512 15.644C81.8592 15.868 81.5465 16.1947 81.3132 16.624C81.0799 17.0533 80.9632 17.5573 80.9632 18.136C80.9632 18.724 81.0799 19.2373 81.3132 19.676C81.5465 20.1053 81.8592 20.4367 82.2512 20.67C82.6432 20.894 83.0772 21.006 83.5532 21.006C84.0292 21.006 84.4632 20.894 84.8552 20.67C85.2565 20.4367 85.5739 20.1053 85.8072 19.676C86.0405 19.2373 86.1572 18.7287 86.1572 18.15ZM92.8546 18.15C92.8546 17.3567 93.0132 16.666 93.3306 16.078C93.6479 15.4807 94.0866 15.0187 94.6466 14.692C95.2159 14.3653 95.8646 14.202 96.5926 14.202C97.5352 14.202 98.3099 14.4307 98.9166 14.888C99.5326 15.3453 99.9386 15.98 100.135 16.792H98.7626C98.6319 16.3253 98.3752 15.9567 97.9926 15.686C97.6192 15.4153 97.1526 15.28 96.5926 15.28C95.8646 15.28 95.2766 15.532 94.8286 16.036C94.3806 16.5307 94.1566 17.2353 94.1566 18.15C94.1566 19.074 94.3806 19.788 94.8286 20.292C95.2766 20.796 95.8646 21.048 96.5926 21.048C97.1526 21.048 97.6192 20.9173 97.9926 20.656C98.3659 20.3947 98.6226 20.0213 98.7626 19.536H100.135C99.9292 20.32 99.5186 20.95 98.9026 21.426C98.2866 21.8927 97.5166 22.126 96.5926 22.126C95.8646 22.126 95.2159 21.9627 94.6466 21.636C94.0866 21.3093 93.6479 20.8473 93.3306 20.25C93.0132 19.6527 92.8546 18.9527 92.8546 18.15ZM105.18 22.126C104.462 22.126 103.808 21.9627 103.22 21.636C102.642 21.3093 102.184 20.8473 101.848 20.25C101.522 19.6433 101.358 18.9433 101.358 18.15C101.358 17.366 101.526 16.6753 101.862 16.078C102.208 15.4713 102.674 15.0093 103.262 14.692C103.85 14.3653 104.508 14.202 105.236 14.202C105.964 14.202 106.622 14.3653 107.21 14.692C107.798 15.0093 108.26 15.4667 108.596 16.064C108.942 16.6613 109.114 17.3567 109.114 18.15C109.114 18.9433 108.937 19.6433 108.582 20.25C108.237 20.8473 107.766 21.3093 107.168 21.636C106.571 21.9627 105.908 22.126 105.18 22.126ZM105.18 21.006C105.638 21.006 106.067 20.8987 106.468 20.684C106.87 20.4693 107.192 20.1473 107.434 19.718C107.686 19.2887 107.812 18.766 107.812 18.15C107.812 17.534 107.691 17.0113 107.448 16.582C107.206 16.1527 106.888 15.8353 106.496 15.63C106.104 15.4153 105.68 15.308 105.222 15.308C104.756 15.308 104.326 15.4153 103.934 15.63C103.552 15.8353 103.244 16.1527 103.01 16.582C102.777 17.0113 102.66 17.534 102.66 18.15C102.66 18.7753 102.772 19.3027 102.996 19.732C103.23 20.1613 103.538 20.4833 103.92 20.698C104.303 20.9033 104.723 21.006 105.18 21.006ZM114.528 14.188C115.461 14.188 116.217 14.4727 116.796 15.042C117.374 15.602 117.664 16.414 117.664 17.478V22H116.404V17.66C116.404 16.8947 116.212 16.3113 115.83 15.91C115.447 15.4993 114.924 15.294 114.262 15.294C113.59 15.294 113.053 15.504 112.652 15.924C112.26 16.344 112.064 16.9553 112.064 17.758V22H110.79V14.328H112.064V15.42C112.316 15.028 112.656 14.7247 113.086 14.51C113.524 14.2953 114.005 14.188 114.528 14.188ZM123.483 14.188C124.416 14.188 125.172 14.4727 125.751 15.042C126.329 15.602 126.619 16.414 126.619 17.478V22H125.359V17.66C125.359 16.8947 125.167 16.3113 124.785 15.91C124.402 15.4993 123.879 15.294 123.217 15.294C122.545 15.294 122.008 15.504 121.607 15.924C121.215 16.344 121.019 16.9553 121.019 17.758V22H119.745V14.328H121.019V15.42C121.271 15.028 121.611 14.7247 122.041 14.51C122.479 14.2953 122.96 14.188 123.483 14.188ZM135.7 17.87C135.7 18.1127 135.686 18.3693 135.658 18.64H129.526C129.572 19.396 129.829 19.9887 130.296 20.418C130.772 20.838 131.346 21.048 132.018 21.048C132.568 21.048 133.026 20.922 133.39 20.67C133.763 20.4087 134.024 20.0633 134.174 19.634H135.546C135.34 20.3713 134.93 20.9733 134.314 21.44C133.698 21.8973 132.932 22.126 132.018 22.126C131.29 22.126 130.636 21.9627 130.058 21.636C129.488 21.3093 129.04 20.8473 128.714 20.25C128.387 19.6433 128.224 18.9433 128.224 18.15C128.224 17.3567 128.382 16.6613 128.7 16.064C129.017 15.4667 129.46 15.0093 130.03 14.692C130.608 14.3653 131.271 14.202 132.018 14.202C132.746 14.202 133.39 14.3607 133.95 14.678C134.51 14.9953 134.939 15.434 135.238 15.994C135.546 16.5447 135.7 17.17 135.7 17.87ZM134.384 17.604C134.384 17.1187 134.276 16.7033 134.062 16.358C133.847 16.0033 133.553 15.7373 133.18 15.56C132.816 15.3733 132.41 15.28 131.962 15.28C131.318 15.28 130.767 15.4853 130.31 15.896C129.862 16.3067 129.605 16.876 129.54 17.604H134.384ZM136.905 18.15C136.905 17.3567 137.064 16.666 137.381 16.078C137.699 15.4807 138.137 15.0187 138.697 14.692C139.267 14.3653 139.915 14.202 140.643 14.202C141.586 14.202 142.361 14.4307 142.967 14.888C143.583 15.3453 143.989 15.98 144.185 16.792H142.813C142.683 16.3253 142.426 15.9567 142.043 15.686C141.67 15.4153 141.203 15.28 140.643 15.28C139.915 15.28 139.327 15.532 138.879 16.036C138.431 16.5307 138.207 17.2353 138.207 18.15C138.207 19.074 138.431 19.788 138.879 20.292C139.327 20.796 139.915 21.048 140.643 21.048C141.203 21.048 141.67 20.9173 142.043 20.656C142.417 20.3947 142.673 20.0213 142.813 19.536H144.185C143.98 20.32 143.569 20.95 142.953 21.426C142.337 21.8927 141.567 22.126 140.643 22.126C139.915 22.126 139.267 21.9627 138.697 21.636C138.137 21.3093 137.699 20.8473 137.381 20.25C137.064 19.6527 136.905 18.9527 136.905 18.15ZM147.439 15.378V19.9C147.439 20.2733 147.519 20.5393 147.677 20.698C147.836 20.8473 148.111 20.922 148.503 20.922H149.441V22H148.293C147.584 22 147.052 21.8367 146.697 21.51C146.343 21.1833 146.165 20.6467 146.165 19.9V15.378H145.171V14.328H146.165V12.396H147.439V14.328H149.441V15.378H147.439ZM154.331 22.126C153.612 22.126 152.959 21.9627 152.371 21.636C151.792 21.3093 151.335 20.8473 150.999 20.25C150.672 19.6433 150.509 18.9433 150.509 18.15C150.509 17.366 150.677 16.6753 151.013 16.078C151.358 15.4713 151.825 15.0093 152.413 14.692C153.001 14.3653 153.659 14.202 154.387 14.202C155.115 14.202 155.773 14.3653 156.361 14.692C156.949 15.0093 157.411 15.4667 157.747 16.064C158.092 16.6613 158.265 17.3567 158.265 18.15C158.265 18.9433 158.088 19.6433 157.733 20.25C157.388 20.8473 156.916 21.3093 156.319 21.636C155.722 21.9627 155.059 22.126 154.331 22.126ZM154.331 21.006C154.788 21.006 155.218 20.8987 155.619 20.684C156.02 20.4693 156.342 20.1473 156.585 19.718C156.837 19.2887 156.963 18.766 156.963 18.15C156.963 17.534 156.842 17.0113 156.599 16.582C156.356 16.1527 156.039 15.8353 155.647 15.63C155.255 15.4153 154.83 15.308 154.373 15.308C153.906 15.308 153.477 15.4153 153.085 15.63C152.702 15.8353 152.394 16.1527 152.161 16.582C151.928 17.0113 151.811 17.534 151.811 18.15C151.811 18.7753 151.923 19.3027 152.147 19.732C152.38 20.1613 152.688 20.4833 153.071 20.698C153.454 20.9033 153.874 21.006 154.331 21.006ZM161.214 15.574C161.438 15.1353 161.755 14.7947 162.166 14.552C162.586 14.3093 163.095 14.188 163.692 14.188V15.504H163.356C161.928 15.504 161.214 16.2787 161.214 17.828V22H159.94V14.328H161.214V15.574ZM167.879 22.126C167.291 22.126 166.763 22.028 166.297 21.832C165.83 21.6267 165.461 21.3467 165.191 20.992C164.92 20.628 164.771 20.2127 164.743 19.746H166.059C166.096 20.1287 166.273 20.4413 166.591 20.684C166.917 20.9267 167.342 21.048 167.865 21.048C168.35 21.048 168.733 20.9407 169.013 20.726C169.293 20.5113 169.433 20.2407 169.433 19.914C169.433 19.578 169.283 19.3307 168.985 19.172C168.686 19.004 168.224 18.8407 167.599 18.682C167.029 18.5327 166.563 18.3833 166.199 18.234C165.844 18.0753 165.536 17.8467 165.275 17.548C165.023 17.24 164.897 16.8387 164.897 16.344C164.897 15.952 165.013 15.5927 165.247 15.266C165.48 14.9393 165.811 14.6827 166.241 14.496C166.67 14.3 167.16 14.202 167.711 14.202C168.56 14.202 169.246 14.4167 169.769 14.846C170.291 15.2753 170.571 15.8633 170.609 16.61H169.335C169.307 16.2087 169.143 15.8867 168.845 15.644C168.555 15.4013 168.163 15.28 167.669 15.28C167.211 15.28 166.847 15.378 166.577 15.574C166.306 15.77 166.171 16.0267 166.171 16.344C166.171 16.596 166.25 16.806 166.409 16.974C166.577 17.1327 166.782 17.2633 167.025 17.366C167.277 17.4593 167.622 17.5667 168.061 17.688C168.611 17.8373 169.059 17.9867 169.405 18.136C169.75 18.276 170.044 18.4907 170.287 18.78C170.539 19.0693 170.669 19.4473 170.679 19.914C170.679 20.334 170.562 20.712 170.329 21.048C170.095 21.384 169.764 21.65 169.335 21.846C168.915 22.0327 168.429 22.126 167.879 22.126Z" fill="white"/>
<defs>
<linearGradient id="paint0_linear_146_17505" x1="223.797" y1="17.637" x2="-30.9057" y2="17.637" gradientUnits="userSpaceOnUse">
<stop stop-color="#091733"/>
<stop offset="1" stop-color="#394253"/>
</linearGradient>
</defs>
</svg>
