<svg width="79" height="155" viewBox="0 0 79 155" fill="none" xmlns="http://www.w3.org/2000/svg">
<path d="M1.49999 4.23887e-05C11.7019 4.19428e-05 21.8035 2.01429 31.2251 5.92724C40.6468 9.84019 49.2032 15.5748 56.4035 22.8022C63.6038 30.0296 69.3063 38.6074 73.1839 48.0437C77.0614 57.48 79.0377 67.5891 78.9994 77.7909C78.9612 87.9927 76.909 98.0867 72.9607 107.494C69.0124 116.9 63.2457 125.435 55.9914 132.608C48.737 139.782 40.1378 145.452 30.687 149.294C21.2362 153.136 11.1199 155.074 0.918236 154.998L1.03459 139.498C9.19589 139.56 17.289 138.009 24.8496 134.935C32.4103 131.861 39.2896 127.325 45.0931 121.587C50.8966 115.848 55.51 109.02 58.6686 101.495C61.8272 93.9693 63.4689 85.8942 63.4996 77.7327C63.5302 69.5712 61.9491 61.484 58.8471 53.935C55.745 46.386 51.183 39.5237 45.4228 33.7418C39.6626 27.9599 32.8174 23.3722 25.2801 20.2418C17.7428 17.1114 9.66153 15.5 1.49999 15.5L1.49999 4.23887e-05Z" fill="#C6D4ED"/>
</svg>
