<svg width="122" height="122" viewBox="0 0 122 122" fill="none" xmlns="http://www.w3.org/2000/svg">
<path d="M85.9907 37.5441C86.0333 37.8304 85.9668 38.1223 85.8045 38.3619C85.6421 38.6016 85.3957 38.7716 85.114 38.8382C85.0762 38.8422 85.038 38.8422 85.0002 38.8382C85.0002 38.8382 84.9792 38.8382 84.9455 38.8382H84.8358C84.7656 38.8427 84.6952 38.8427 84.6251 38.8382H55.7888C52.5161 38.8426 49.3784 40.143 47.0618 42.4548C44.7453 44.7667 43.4385 47.9019 43.4274 51.1747C43.4316 53.0513 43.864 54.9022 44.6917 56.5864L43.8488 56.9194C43.5116 57.0542 43.3009 57.1301 43.1913 57.1639C43.1733 57.1682 43.1546 57.1682 43.1366 57.1639H17.259C14.9889 57.168 12.7404 56.7234 10.6428 55.8554C8.54522 54.9874 6.64001 53.7132 5.03664 52.1062C1.80747 48.8563 -0.00277684 44.4595 0.00196241 39.8781C0.00670165 35.2966 1.82606 30.9038 5.06195 27.6606C6.52787 26.2164 8.22974 25.0332 10.0942 24.1623L10.3259 24.0528V23.7958C10.3188 20.4849 11.0047 17.2091 12.3395 14.1792C13.6744 11.1494 15.6287 8.43251 18.0766 6.20331C22.4373 2.22341 28.1293 0.0192284 34.033 0.0244232C37.3362 0.0274443 40.6025 0.719035 43.6235 2.05503C46.6444 3.39103 49.3538 5.34216 51.5785 7.78383L51.7471 7.96514L51.9788 7.90608C52.6731 7.74111 53.3769 7.6186 54.0861 7.53935C54.7118 7.47203 55.3408 7.43837 55.9701 7.4383C60.2314 7.43406 64.3436 9.00721 67.514 11.8547C70.6843 14.7022 72.6884 18.6225 73.1403 22.86L73.1699 23.1382L73.4395 23.2183C76.54 24.0631 79.3421 25.7593 81.5283 28.1146C83.7145 30.47 85.1975 33.3905 85.8094 36.5454C85.8895 36.8657 85.9485 37.1985 85.9907 37.5441Z" fill="#52DE97"/>
<path d="M92.9066 39.251H92.4851C92.625 39.2689 92.7666 39.2689 92.9066 39.251Z" fill="#52DE97"/>
<path d="M92.9066 39.251H92.4851C92.625 39.2689 92.7666 39.2689 92.9066 39.251Z" fill="#52DE97"/>
<path d="M107.338 99.0967C109.269 99.0945 111.182 98.7097 112.964 97.9646C114.746 97.2195 116.364 96.1289 117.722 94.7556C119.089 93.3902 120.171 91.7668 120.906 89.9797C121.64 88.1925 122.012 86.2772 122 84.3451C121.997 80.6865 120.628 77.161 118.16 74.46C115.692 71.759 112.304 70.0775 108.661 69.7454L108.294 69.7116V65.8846L108.661 65.8509C112.305 65.5086 115.689 63.8188 118.152 61.1122C120.616 58.4055 121.98 54.8772 121.979 51.2174C121.981 47.3283 120.441 43.597 117.696 40.8419C114.952 38.0868 111.226 36.5328 107.338 36.5205H55.8181C51.9215 36.5328 48.1889 38.0908 45.4399 40.8526C42.6908 43.6143 41.1499 47.3541 41.1555 51.2509C41.1554 52.4643 41.3042 53.6731 41.5982 54.8503C41.7972 55.6481 42.0667 56.4267 42.4032 57.1769C43.4585 59.5722 45.137 61.6406 47.2638 63.1662C49.3906 64.6919 51.8878 65.619 54.4949 65.8509L54.8699 65.893V69.7116L54.4949 69.7454C52.5721 69.9215 50.7031 70.4765 48.996 71.3786C47.2888 72.2807 45.7773 73.5118 44.5484 75.0011C43.3103 76.4846 42.3796 78.1995 41.8102 80.046C41.2407 81.8925 41.044 83.8339 41.2315 85.7571C41.5569 89.401 43.2345 92.7912 45.9342 95.26C48.6339 97.7289 52.1599 99.0975 55.8181 99.0967H82.9054V106.936L82.5852 107.004C81.1179 107.301 79.7704 108.023 78.7107 109.081C77.6511 110.138 76.9259 111.484 76.6257 112.951L76.5499 113.271H64.69L64.6141 112.959C64.2871 111.62 63.5196 110.43 62.4349 109.58C61.3503 108.731 60.0116 108.27 58.6336 108.272C58.135 108.27 57.6383 108.329 57.1543 108.449C56.3692 108.642 55.6299 108.988 54.9789 109.468C54.328 109.947 53.7782 110.551 53.3612 111.244C52.9425 111.937 52.6651 112.706 52.545 113.507C52.425 114.307 52.4646 115.124 52.6615 115.909C52.9885 117.248 53.756 118.438 54.8406 119.288C55.9253 120.138 57.264 120.599 58.642 120.596C59.1405 120.598 59.6372 120.538 60.1212 120.419C61.2142 120.153 62.2131 119.592 63.0085 118.797C63.8039 118.001 64.3652 117.002 64.6309 115.909L64.7069 115.598H76.5794L76.6425 115.935C76.9921 117.643 77.9192 119.178 79.2678 120.283C80.6165 121.387 82.3043 121.994 84.0475 122C84.5526 122.002 85.0568 121.954 85.5523 121.856C87.0065 121.561 88.3414 120.844 89.3907 119.794C90.44 118.745 91.1572 117.41 91.4527 115.956L91.5118 115.619H103.38L103.456 115.93C103.783 117.275 104.553 118.471 105.641 119.325C106.729 120.18 108.074 120.644 109.457 120.643C109.954 120.64 110.448 120.577 110.928 120.453C112.519 120.061 113.889 119.054 114.739 117.653C115.588 116.252 115.847 114.572 115.459 112.98C115.131 111.637 114.361 110.443 113.272 109.591C112.184 108.739 110.84 108.277 109.457 108.281C108.961 108.28 108.468 108.341 107.987 108.462C106.89 108.727 105.887 109.289 105.088 110.086C104.289 110.883 103.724 111.884 103.456 112.98L103.38 113.292H91.5159L91.4568 112.972C91.1695 111.509 90.456 110.164 89.4061 109.106C88.3562 108.048 87.0168 107.323 85.5564 107.025L85.2362 106.957V99.1179L107.338 99.0967ZM59.0256 118.249V118.282H58.6041C57.5843 118.28 56.607 117.873 55.8871 117.151C55.1672 116.428 54.7634 115.45 54.7645 114.43C54.7634 113.41 55.1672 112.432 55.8871 111.709C56.607 110.987 57.5843 110.58 58.6041 110.578C59.6258 110.578 60.6056 110.984 61.328 111.706C62.0504 112.428 62.4561 113.408 62.4561 114.43C62.4517 115.376 62.1 116.288 61.4675 116.992C60.8351 117.696 59.966 118.143 59.0256 118.249ZM109.453 110.578H109.854C110.798 110.681 111.67 111.13 112.305 111.836C112.939 112.543 113.291 113.459 113.293 114.409C113.293 115.428 112.889 116.406 112.169 117.129C111.449 117.851 110.473 118.258 109.453 118.261C108.431 118.261 107.451 117.856 106.728 117.133C106.005 116.411 105.598 115.431 105.597 114.409C105.604 113.391 106.013 112.416 106.735 111.698C107.458 110.981 108.435 110.578 109.453 110.578ZM44.7044 56.5869C43.8767 54.9026 43.4442 53.0518 43.44 51.1752C43.4512 47.9024 44.7578 44.7672 47.0743 42.4553C49.3908 40.1434 52.5286 38.8431 55.8013 38.8386H107.342C108.961 38.8363 110.565 39.1545 112.061 39.7752C113.557 40.3959 114.915 41.3067 116.057 42.4549C117.204 43.5978 118.113 44.9572 118.73 46.4542C119.347 47.9512 119.661 49.556 119.652 51.1752C119.65 54.4408 118.353 57.5722 116.045 59.8825C113.737 62.1928 110.607 63.4934 107.342 63.499H55.7972C53.4869 63.499 51.2228 62.8513 49.2621 61.6295C47.3013 60.4077 45.7224 58.6608 44.7044 56.5869ZM105.955 65.8383V69.8001H57.2006V65.8383H105.955ZM89.2779 114.43C89.2735 115.82 88.7191 117.152 87.7359 118.134C86.7527 119.117 85.4207 119.67 84.0309 119.673C82.641 119.671 81.3086 119.118 80.3258 118.135C79.343 117.152 78.7899 115.82 78.7877 114.43C78.7877 113.04 79.3401 111.706 80.3233 110.723C81.3066 109.739 82.6403 109.187 84.0309 109.187C85.4214 109.188 86.7547 109.741 87.7384 110.724C88.7221 111.706 89.2757 113.04 89.2779 114.43ZM55.8181 96.7702C54.1972 96.7751 52.5917 96.4576 51.0946 95.8361C49.5976 95.2145 48.239 94.3013 47.0982 93.1498C45.9494 92.0084 45.0389 90.6501 44.4196 89.1538C43.8003 87.6575 43.4844 86.053 43.4904 84.4336C43.4971 81.166 44.7982 78.0343 47.1087 75.7238C49.4191 73.4133 52.5507 72.1122 55.8181 72.1055H107.358C110.629 72.1133 113.764 73.4152 116.077 75.7267C118.391 78.0382 119.696 81.1714 119.707 84.442C119.696 87.7155 118.388 90.8512 116.069 93.1619C113.751 95.4727 110.611 96.7702 107.338 96.7702H55.8181Z" fill="#52DE97"/>
<path d="M107.679 44.4072C105.874 44.4106 104.145 45.1295 102.87 46.4063C101.594 47.6832 100.878 49.4137 100.876 51.2183C100.885 53.0198 101.605 54.7447 102.879 56.0186C104.152 57.2924 105.878 58.0119 107.679 58.0208C109.484 58.0208 111.216 57.3046 112.493 56.0293C113.771 54.7539 114.491 53.0236 114.494 51.2183C114.491 49.4122 113.771 47.681 112.494 46.4043C111.216 45.1276 109.485 44.4095 107.679 44.4072ZM107.679 55.6942C107.091 55.6942 106.51 55.5784 105.967 55.3534C105.424 55.1284 104.931 54.7988 104.515 54.3831C104.1 53.9674 103.771 53.4738 103.546 52.9308C103.322 52.3877 103.207 51.8059 103.207 51.2183C103.211 50.0322 103.682 48.8953 104.52 48.0554C105.357 47.2155 106.493 46.7404 107.679 46.7338C108.868 46.7349 110.009 47.2076 110.85 48.0482C111.691 48.8889 112.165 50.0289 112.167 51.2183C112.165 52.407 111.691 53.546 110.85 54.3854C110.008 55.2247 108.867 55.6953 107.679 55.6942Z" fill="#52DE97"/>
<path d="M57.7232 47.846V54.5896C57.706 54.8816 57.5816 55.1569 57.374 55.3629C57.1664 55.569 56.8901 55.6914 56.598 55.7064H56.5348C56.2342 55.7044 55.946 55.5861 55.7308 55.3763C55.5155 55.1665 55.3897 54.8816 55.3799 54.5811V47.8375C55.3924 47.545 55.5149 47.2679 55.7227 47.0617C55.9305 46.8554 56.2084 46.7351 56.501 46.7248C56.6549 46.718 56.8086 46.7416 56.9534 46.7943C57.0981 46.847 57.231 46.9277 57.3446 47.0318C57.4581 47.136 57.55 47.2615 57.615 47.4012C57.68 47.5409 57.7167 47.692 57.7232 47.846Z" fill="#52DE97"/>
<path d="M64.2686 47.8456V54.5892C64.2664 54.8974 64.1424 55.192 63.9237 55.4091C63.705 55.6262 63.4093 55.7482 63.1012 55.7482C62.7941 55.7471 62.4998 55.6246 62.2827 55.4074C62.0656 55.1903 61.9432 54.8962 61.9421 54.5892V47.8203C61.9548 47.5271 62.0777 47.2493 62.2864 47.043C62.4951 46.8366 62.7741 46.7168 63.0674 46.7075C63.2211 46.703 63.374 46.7289 63.5177 46.7837C63.6613 46.8385 63.7928 46.9212 63.9044 47.0269C64.016 47.1327 64.1057 47.2594 64.1682 47.3998C64.2307 47.5403 64.2648 47.6919 64.2686 47.8456Z" fill="#52DE97"/>
<path d="M69.6546 55.7651C69.3464 55.7639 69.0512 55.6411 68.8333 55.4232C68.6154 55.2053 68.4926 54.9101 68.4915 54.6019V47.833C68.505 47.5401 68.6283 47.2631 68.8368 47.0569C69.0453 46.8508 69.3237 46.7305 69.6167 46.7202C69.925 46.7111 70.2243 46.8245 70.4494 47.0353C70.6744 47.2462 70.8069 47.5375 70.8179 47.8457V54.5893C70.819 54.743 70.7898 54.8952 70.7319 55.0376C70.674 55.1799 70.5885 55.3095 70.4804 55.4187C70.3724 55.528 70.2437 55.6149 70.102 55.6743C69.9603 55.7337 69.8083 55.7645 69.6546 55.7651Z" fill="#52DE97"/>
<path d="M76.4741 55.7652C76.3214 55.7652 76.1701 55.7351 76.029 55.6767C75.8879 55.6182 75.7596 55.5326 75.6516 55.4246C75.5436 55.3166 75.4579 55.1883 75.3995 55.0471C75.341 54.906 75.3108 54.7548 75.3108 54.602V47.8331C75.3108 47.5253 75.4329 47.23 75.6501 47.012C75.8674 46.7939 76.162 46.671 76.4698 46.6699C76.778 46.671 77.0732 46.7938 77.2911 47.0118C77.509 47.2297 77.632 47.5249 77.6331 47.8331V54.602C77.6331 54.9098 77.5112 55.2051 77.294 55.4231C77.0768 55.6412 76.7819 55.7641 76.4741 55.7652Z" fill="#52DE97"/>
<path d="M83.0152 55.7652C82.707 55.7641 82.4117 55.6413 82.1938 55.4233C81.9759 55.2054 81.8529 54.9102 81.8518 54.602V47.8331C81.8529 47.5249 81.9759 47.2297 82.1938 47.0118C82.4117 46.7938 82.707 46.671 83.0152 46.6699C83.3229 46.671 83.6178 46.7939 83.835 47.012C84.0523 47.23 84.1742 47.5253 84.1742 47.8331V54.602C84.1742 54.9098 84.0523 55.2051 83.835 55.4231C83.6178 55.6412 83.3229 55.7641 83.0152 55.7652Z" fill="#52DE97"/>
<path d="M107.679 77.5762C105.878 77.585 104.152 78.3048 102.879 79.5786C101.605 80.8524 100.885 82.5774 100.876 84.3788C100.878 86.1834 101.594 87.914 102.87 89.1908C104.145 90.4676 105.874 91.1866 107.679 91.1899C109.485 91.1877 111.216 90.4696 112.494 89.1929C113.771 87.9161 114.491 86.1849 114.494 84.3788C114.491 82.5735 113.771 80.8433 112.493 79.5679C111.216 78.2925 109.484 77.5762 107.679 77.5762ZM107.679 88.8634C106.492 88.86 105.354 88.3861 104.516 87.5454C103.678 86.7048 103.207 85.566 103.207 84.3788C103.211 83.1935 103.683 82.0576 104.52 81.219C105.358 80.3804 106.494 79.9072 107.679 79.9027C108.867 79.9016 110.008 80.3725 110.85 81.2118C111.691 82.0511 112.165 83.1902 112.167 84.3788C112.161 85.5653 111.685 86.701 110.844 87.538C110.003 88.375 108.865 88.8454 107.679 88.8465V88.8634Z" fill="#52DE97"/>
<path d="M56.5557 88.8748C56.2533 88.8761 55.9626 88.7591 55.7453 88.5489C55.528 88.3386 55.4014 88.0518 55.3926 87.7495V81.0059C55.3937 80.6978 55.5165 80.4025 55.7344 80.1846C55.9523 79.9667 56.2475 79.8439 56.5557 79.8428C56.8635 79.8439 57.1583 79.967 57.3756 80.185C57.5928 80.4031 57.7147 80.6982 57.7147 81.0059V87.7748C57.7032 88.0677 57.5811 88.3453 57.3731 88.5517C57.1651 88.7582 56.8867 88.8782 56.5938 88.8876L56.5557 88.8748Z" fill="#52DE97"/>
<path d="M63.1053 88.8748C62.8029 88.8761 62.5122 88.7591 62.2949 88.5489C62.0775 88.3386 61.9509 88.0518 61.9421 87.7495V81.0059C61.9432 80.6978 62.0661 80.4025 62.284 80.1846C62.5019 79.9667 62.7971 79.8439 63.1053 79.8428C63.4134 79.8439 63.7087 79.9667 63.9266 80.1846C64.1445 80.4025 64.2675 80.6978 64.2686 81.0059V87.7748C64.255 88.0677 64.1318 88.3448 63.9233 88.5509C63.7148 88.7571 63.4364 88.8773 63.1433 88.8876L63.1053 88.8748Z" fill="#52DE97"/>
<path d="M69.6546 88.8748C69.3522 88.8761 69.0613 88.7591 68.844 88.5489C68.6267 88.3386 68.5002 88.0518 68.4915 87.7495V81.0059C68.4926 80.6978 68.6154 80.4025 68.8333 80.1846C69.0512 79.9667 69.3464 79.8439 69.6546 79.8428C69.9627 79.8439 70.258 79.9667 70.4759 80.1846C70.6938 80.4025 70.8168 80.6978 70.8179 81.0059V87.7748C70.8043 88.0677 70.6811 88.3448 70.4726 88.5509C70.2641 88.7571 69.9857 88.8773 69.6927 88.8876L69.6546 88.8748Z" fill="#52DE97"/>
<path d="M76.4741 88.9265C76.166 88.9254 75.8707 88.8026 75.6528 88.5847C75.4349 88.3668 75.3119 88.0715 75.3108 87.7633V80.9944C75.3119 80.6863 75.4349 80.391 75.6528 80.1731C75.8707 79.9552 76.166 79.8322 76.4741 79.8311C76.7819 79.8322 77.0768 79.9553 77.294 80.1733C77.5112 80.3913 77.6331 80.6866 77.6331 80.9944V87.7633C77.6331 88.0711 77.5112 88.3662 77.294 88.5843C77.0768 88.8023 76.7819 88.9254 76.4741 88.9265Z" fill="#52DE97"/>
<path d="M83.0152 88.9265C82.707 88.9254 82.4117 88.8026 82.1938 88.5847C81.9759 88.3668 81.8529 88.0715 81.8518 87.7633V80.9944C81.8529 80.6863 81.9759 80.391 82.1938 80.1731C82.4117 79.9552 82.707 79.8322 83.0152 79.8311C83.3233 79.8322 83.6186 79.9552 83.8365 80.1731C84.0544 80.391 84.1772 80.6863 84.1783 80.9944V87.7633C84.1772 88.0715 84.0544 88.3668 83.8365 88.5847C83.6186 88.8026 83.3233 88.9254 83.0152 88.9265Z" fill="#52DE97"/>
<path d="M57.7232 47.8457V51.0953C56.9309 51.4325 56.1511 51.7654 55.3967 52.0984V47.833C55.4093 47.5405 55.5318 47.2634 55.7396 47.0571C55.9474 46.8509 56.2253 46.7306 56.5179 46.7202C56.8265 46.7111 57.1264 46.8244 57.3522 47.0351C57.5779 47.2458 57.7111 47.5372 57.7232 47.8457Z" fill="#52DE97"/>
<path d="M64.2686 47.8466V48.268L61.9421 49.2711V47.8213C61.9548 47.528 62.0777 47.2503 62.2864 47.044C62.4951 46.8376 62.7741 46.7178 63.0674 46.7085C63.2211 46.704 63.374 46.7298 63.5177 46.7847C63.6613 46.8395 63.7928 46.9222 63.9044 47.0279C64.016 47.1336 64.1057 47.2603 64.1682 47.4008C64.2307 47.5413 64.2648 47.6929 64.2686 47.8466Z" fill="#52DE97"/>
<path d="M85.0002 38.8595H84.8442H84.9539C84.9792 38.8384 85.0002 38.8469 85.0002 38.8595Z" fill="#52DE97"/>
</svg>
