<svg width="115" height="7458" viewBox="0 0 115 7458" fill="none" xmlns="http://www.w3.org/2000/svg">
<path d="M24.2447 4407.33C24.2456 4407.45 24.2226 4407.57 24.177 4407.68C24.1313 4407.79 24.064 4407.89 23.9791 4407.97C23.8961 4408.05 23.7972 4408.12 23.6879 4408.16C23.5786 4408.21 23.4614 4408.23 23.343 4408.23C23.1028 4408.23 22.8724 4408.14 22.7019 4407.97C22.617 4407.89 22.5499 4407.79 22.5043 4407.68C22.4587 4407.57 22.4356 4407.45 22.4365 4407.33C22.4365 4407.09 22.5329 4406.86 22.7046 4406.69C22.8763 4406.52 23.1093 4406.42 23.3521 4406.42C23.4706 4406.42 23.5878 4406.45 23.6971 4406.49C23.8063 4406.54 23.9053 4406.6 23.9883 4406.69C24.1564 4406.86 24.2486 4407.09 24.2447 4407.33Z" fill="#52DE97"/>
<path d="M16.769 4407.34C16.7699 4407.45 16.7469 4407.57 16.7012 4407.68C16.6556 4407.79 16.5885 4407.89 16.5036 4407.97C16.421 4408.05 16.322 4408.12 16.2126 4408.16C16.1033 4408.21 15.9857 4408.23 15.8672 4408.23C15.6244 4408.23 15.3916 4408.14 15.2199 4407.97C15.0482 4407.79 14.9517 4407.56 14.9517 4407.32C14.9517 4407.08 15.0482 4406.85 15.2199 4406.68C15.3916 4406.51 15.6244 4406.41 15.8672 4406.41C15.9875 4406.41 16.1062 4406.44 16.2166 4406.49C16.327 4406.53 16.4268 4406.6 16.5106 4406.69C16.5943 4406.77 16.6603 4406.87 16.7046 4406.99C16.7489 4407.1 16.7708 4407.22 16.769 4407.34Z" fill="#52DE97"/>
<path d="M9.28851 4407.34C9.28943 4407.45 9.26641 4407.57 9.22078 4407.68C9.17515 4407.79 9.10782 4407.89 9.02295 4407.97C8.94026 4408.05 8.84127 4408.12 8.73191 4408.16C8.62256 4408.21 8.50527 4408.23 8.38678 4408.23C8.14395 4408.23 7.91091 4408.14 7.73921 4407.97C7.5675 4407.79 7.47119 4407.56 7.47119 4407.32C7.47119 4407.08 7.5675 4406.85 7.73921 4406.68C7.91091 4406.51 8.14395 4406.41 8.38678 4406.41C8.50702 4406.41 8.62554 4406.44 8.73594 4406.49C8.84634 4406.53 8.94636 4406.6 9.03011 4406.69C9.11385 4406.77 9.17979 4406.87 9.22413 4406.99C9.26847 4407.1 9.29033 4407.22 9.28851 4407.34Z" fill="#52DE97"/>
<path d="M82.2703 4474V4452.22C82.2703 4451.91 82.3938 4451.61 82.6136 4451.39C82.8334 4451.18 83.1316 4451.05 83.4425 4451.05H105.329C105.639 4451.05 105.936 4451.18 106.155 4451.4C106.374 4451.61 106.497 4451.91 106.497 4452.22V4474C106.497 4474.31 106.374 4474.6 106.155 4474.82C105.936 4475.04 105.639 4475.16 105.329 4475.17H83.4241C83.1165 4475.16 82.8227 4475.04 82.6069 4474.82C82.3911 4474.6 82.2702 4474.31 82.2703 4474V4474ZM84.1014 4473.37H104.73V4452.86H84.1014V4473.37Z" fill="#52DE97"/>
<path d="M89.4666 4463.79C89.6378 4463.62 89.868 4463.52 90.1077 4463.52C90.3474 4463.52 90.5776 4463.62 90.7488 4463.79L91.8839 4464.92C92.241 4465.27 92.5339 4465.64 93.1656 4464.92L99.9136 4458.21C100.085 4458.04 100.314 4457.95 100.552 4457.95C100.791 4457.95 101.02 4458.04 101.191 4458.21V4458.21C101.359 4458.38 101.452 4458.61 101.452 4458.85C101.452 4459.08 101.359 4459.31 101.191 4459.48L93.1656 4467.46C92.9945 4467.63 92.7646 4467.72 92.525 4467.72C92.2853 4467.72 92.055 4467.63 91.8839 4467.46L89.4666 4465.06C89.2989 4464.89 89.2051 4464.66 89.2051 4464.42C89.2051 4464.18 89.2989 4463.96 89.4666 4463.79V4463.79Z" fill="#52DE97"/>
<path d="M105.613 4421.31H83.1721C82.674 4421.31 82.2703 4421.71 82.2703 4422.21V4422.21C82.2703 4422.71 82.674 4423.11 83.1721 4423.11H105.613C106.111 4423.11 106.515 4422.71 106.515 4422.21V4422.21C106.515 4421.71 106.111 4421.31 105.613 4421.31Z" fill="#52DE97"/>
<path d="M105.613 4428.75H83.1721C82.674 4428.75 82.2703 4429.15 82.2703 4429.64V4429.65C82.2703 4430.14 82.674 4430.55 83.1721 4430.55H105.613C106.111 4430.55 106.515 4430.14 106.515 4429.65V4429.64C106.515 4429.15 106.111 4428.75 105.613 4428.75Z" fill="#52DE97"/>
<path d="M105.613 4436.18H83.1721C82.674 4436.18 82.2703 4436.58 82.2703 4437.08V4437.08C82.2703 4437.58 82.674 4437.98 83.1721 4437.98H105.613C106.111 4437.98 106.515 4437.58 106.515 4437.08V4437.08C106.515 4436.58 106.111 4436.18 105.613 4436.18Z" fill="#52DE97"/>
<path d="M105.613 4443.62H105.609C105.111 4443.62 104.707 4444.02 104.707 4444.52V4444.52C104.707 4445.02 105.111 4445.42 105.609 4445.42H105.613C106.111 4445.42 106.515 4445.02 106.515 4444.52V4444.52C106.515 4444.02 106.111 4443.62 105.613 4443.62Z" fill="#52DE97"/>
<path d="M98.1328 4443.62H98.1282C97.6301 4443.62 97.2263 4444.02 97.2263 4444.52V4444.52C97.2263 4445.02 97.6301 4445.42 98.1282 4445.42H98.1328C98.6308 4445.42 99.0346 4445.02 99.0346 4444.52V4444.52C99.0346 4444.02 98.6308 4443.62 98.1328 4443.62Z" fill="#52DE97"/>
<path d="M83.1767 4443.62H83.1721C82.674 4443.62 82.2703 4444.02 82.2703 4444.52V4444.52C82.2703 4445.02 82.674 4445.42 83.1721 4445.42H83.1767C83.6748 4445.42 84.0785 4445.02 84.0785 4444.52V4444.52C84.0785 4444.02 83.6748 4443.62 83.1767 4443.62Z" fill="#52DE97"/>
<path d="M90.6572 4443.62H90.6526C90.1545 4443.62 89.7507 4444.02 89.7507 4444.52V4444.52C89.7507 4445.02 90.1545 4445.42 90.6526 4445.42H90.6572C91.1552 4445.42 91.559 4445.02 91.559 4444.52V4444.52C91.559 4444.02 91.1552 4443.62 90.6572 4443.62Z" fill="#52DE97"/>
<path d="M8.38666 4421.31H8.38208C7.884 4421.31 7.48022 4421.71 7.48022 4422.21V4422.21C7.48022 4422.71 7.884 4423.11 8.38208 4423.11H8.38666C8.88474 4423.11 9.28851 4422.71 9.28851 4422.21V4422.21C9.28851 4421.71 8.88474 4421.31 8.38666 4421.31Z" fill="#52DE97"/>
<path d="M47.6518 4421.31H15.8625C15.3645 4421.31 14.9607 4421.71 14.9607 4422.21V4422.21C14.9607 4422.71 15.3645 4423.11 15.8625 4423.11H47.6518C48.1499 4423.11 48.5536 4422.71 48.5536 4422.21V4422.21C48.5536 4421.71 48.1499 4421.31 47.6518 4421.31Z" fill="#52DE97"/>
<path d="M47.6517 4428.75H8.38208C7.884 4428.75 7.48022 4429.15 7.48022 4429.64V4429.65C7.48022 4430.14 7.884 4430.55 8.38208 4430.55H47.6517C48.1498 4430.55 48.5535 4430.14 48.5535 4429.65V4429.64C48.5535 4429.15 48.1498 4428.75 47.6517 4428.75Z" fill="#52DE97"/>
<path d="M23.3428 4436.18H8.38208C7.884 4436.18 7.48022 4436.58 7.48022 4437.08V4437.08C7.48022 4437.58 7.884 4437.98 8.38208 4437.98H23.3428C23.8409 4437.98 24.2447 4437.58 24.2447 4437.08V4437.08C24.2447 4436.58 23.8409 4436.18 23.3428 4436.18Z" fill="#52DE97"/>
<path d="M23.3428 4443.62H8.38208C7.884 4443.62 7.48022 4444.02 7.48022 4444.52V4444.52C7.48022 4445.02 7.884 4445.42 8.38208 4445.42H23.3428C23.8409 4445.42 24.2447 4445.02 24.2447 4444.52V4444.52C24.2447 4444.02 23.8409 4443.62 23.3428 4443.62Z" fill="#52DE97"/>
<path d="M49.9362 0.106934V7457.81V0.106934ZM64.6864 4447.68C62.2535 4445.22 59.2321 4443.42 55.9058 4442.44C55.5801 4442.35 55.2329 4442.39 54.9352 4442.55C54.6445 4442.71 54.4285 4442.98 54.331 4443.3C54.2967 4443.44 54.2768 4443.57 54.2716 4443.71C54.2737 4443.98 54.3603 4444.23 54.519 4444.45C54.6778 4444.66 54.9004 4444.82 55.155 4444.9C58.966 4446.02 62.3082 4448.35 64.6822 4451.52C67.0561 4454.69 68.3343 4458.54 68.3257 4462.49C68.3247 4464.91 67.8431 4467.3 66.909 4469.53C65.9748 4471.76 64.6064 4473.78 62.8825 4475.48C61.1629 4477.19 59.1204 4478.55 56.8726 4479.47C54.6248 4480.39 52.216 4480.86 49.7851 4480.85C44.8837 4480.82 40.1911 4478.87 36.7343 4475.42C33.2775 4471.96 31.338 4467.28 31.3405 4462.41C31.3534 4458.63 32.5359 4454.94 34.7275 4451.85C36.919 4448.77 40.0137 4446.42 43.5912 4445.14C43.8361 4445.05 44.0476 4444.89 44.1974 4444.68C44.3472 4444.46 44.4281 4444.21 44.429 4443.95C44.4325 4443.8 44.4027 4443.64 44.3418 4443.5C44.229 4443.18 43.9968 4442.93 43.6958 4442.79C43.3948 4442.65 43.0496 4442.63 42.7351 4442.74C39.7916 4443.78 37.1182 4445.47 34.9067 4447.67C32.9493 4449.61 31.3978 4451.92 30.3417 4454.46C29.2857 4457 28.7462 4459.72 28.754 4462.47C28.7471 4465.23 29.2899 4467.95 30.3507 4470.5C31.4115 4473.05 32.9694 4475.36 34.9342 4477.3C38.8943 4481.22 44.2563 4483.42 49.8447 4483.42C55.4331 4483.41 60.7919 4481.2 64.7459 4477.28C66.698 4475.34 68.245 4473.04 69.2972 4470.51C70.3494 4467.98 70.8859 4465.26 70.8758 4462.52C70.8775 4459.76 70.3296 4457.03 69.2641 4454.48C68.1987 4451.94 66.6367 4449.62 64.6681 4447.68H64.6864ZM60.8638 4462.57C60.7811 4462.49 60.6821 4462.42 60.5727 4462.37C60.4634 4462.33 60.3459 4462.31 60.2274 4462.31C59.9845 4462.31 59.7517 4462.4 59.58 4462.57C59.4083 4462.74 59.3118 4462.97 59.3118 4463.22C59.3128 4463.46 59.4082 4463.68 59.5773 4463.85C59.66 4463.94 59.759 4464 59.8684 4464.05C59.9777 4464.1 60.0952 4464.12 60.2137 4464.12C60.3322 4464.12 60.4495 4464.1 60.5589 4464.05C60.6682 4464 60.7672 4463.94 60.8499 4463.85C61.0191 4463.68 61.1145 4463.46 61.1155 4463.22C61.1097 4462.98 61.013 4462.76 60.8454 4462.59L60.8638 4462.57ZM52.7516 4462.31C52.5087 4462.31 52.2759 4462.4 52.1042 4462.57C51.9325 4462.74 51.836 4462.97 51.836 4463.22C51.836 4463.46 51.9325 4463.69 52.1042 4463.86C52.2759 4464.03 52.5087 4464.13 52.7516 4464.13C52.87 4464.13 52.9874 4464.1 53.0967 4464.06C53.206 4464.01 53.3049 4463.95 53.3879 4463.86C53.5571 4463.69 53.6525 4463.46 53.6535 4463.23C53.6547 4463.1 53.6318 4462.98 53.586 4462.87C53.5402 4462.76 53.4725 4462.66 53.3868 4462.57C53.3012 4462.49 53.1995 4462.42 53.0873 4462.37C52.9751 4462.33 52.8546 4462.31 52.7332 4462.31H52.7516ZM45.9077 4462.57C45.8246 4462.49 45.7255 4462.42 45.6162 4462.37C45.5069 4462.33 45.3897 4462.31 45.2713 4462.31C45.0284 4462.31 44.7956 4462.4 44.6239 4462.57C44.4522 4462.74 44.3557 4462.97 44.3557 4463.22C44.3567 4463.46 44.4521 4463.68 44.6212 4463.85C44.7918 4464.02 45.0219 4464.12 45.2621 4464.12C45.3805 4464.12 45.4977 4464.09 45.607 4464.05C45.7163 4464 45.8155 4463.94 45.8985 4463.85C46.0676 4463.68 46.1628 4463.46 46.1638 4463.22C46.1568 4462.98 46.0586 4462.76 45.8893 4462.59L45.9077 4462.57ZM38.4318 4462.57C38.2613 4462.4 38.0312 4462.31 37.791 4462.31C37.5481 4462.31 37.3151 4462.4 37.1434 4462.57C36.9717 4462.74 36.8754 4462.97 36.8754 4463.22C36.8764 4463.46 36.9716 4463.68 37.1407 4463.85C37.3112 4464.02 37.5416 4464.12 37.7818 4464.12C38.022 4464.12 38.2521 4464.02 38.4227 4463.85C38.5918 4463.68 38.6872 4463.46 38.6882 4463.22C38.6812 4462.98 38.5827 4462.76 38.4135 4462.59L38.4318 4462.57ZM22.7293 4482.41L22.5371 4482.6H22.766L22.853 4482.53L22.7293 4482.41ZM38.4318 4462.57C38.2613 4462.4 38.0312 4462.31 37.791 4462.31C37.5481 4462.31 37.3151 4462.4 37.1434 4462.57C36.9717 4462.74 36.8754 4462.97 36.8754 4463.22C36.8764 4463.46 36.9716 4463.68 37.1407 4463.85C37.3112 4464.02 37.5416 4464.12 37.7818 4464.12C38.022 4464.12 38.2521 4464.02 38.4227 4463.85C38.5918 4463.68 38.6872 4463.46 38.6882 4463.22C38.6812 4462.98 38.5827 4462.76 38.4135 4462.59L38.4318 4462.57ZM45.9077 4462.57C45.8246 4462.49 45.7255 4462.42 45.6162 4462.37C45.5069 4462.33 45.3897 4462.31 45.2713 4462.31C45.0284 4462.31 44.7956 4462.4 44.6239 4462.57C44.4522 4462.74 44.3557 4462.97 44.3557 4463.22C44.3567 4463.46 44.4521 4463.68 44.6212 4463.85C44.7918 4464.02 45.0219 4464.12 45.2621 4464.12C45.3805 4464.12 45.4977 4464.09 45.607 4464.05C45.7163 4464 45.8155 4463.94 45.8985 4463.85C46.0676 4463.68 46.1628 4463.46 46.1638 4463.22C46.1568 4462.98 46.0586 4462.76 45.8893 4462.59L45.9077 4462.57ZM52.7516 4462.31C52.5087 4462.31 52.2759 4462.4 52.1042 4462.57C51.9325 4462.74 51.836 4462.97 51.836 4463.22C51.836 4463.46 51.9325 4463.69 52.1042 4463.86C52.2759 4464.03 52.5087 4464.13 52.7516 4464.13C52.87 4464.13 52.9874 4464.1 53.0967 4464.06C53.206 4464.01 53.3049 4463.95 53.3879 4463.86C53.5571 4463.69 53.6525 4463.46 53.6535 4463.23C53.6547 4463.1 53.6318 4462.98 53.586 4462.87C53.5402 4462.76 53.4725 4462.66 53.3868 4462.57C53.3012 4462.49 53.1995 4462.42 53.0873 4462.37C52.9751 4462.33 52.8546 4462.31 52.7332 4462.31H52.7516ZM60.8638 4462.57C60.7811 4462.49 60.6821 4462.42 60.5727 4462.37C60.4634 4462.33 60.3459 4462.31 60.2274 4462.31C59.9845 4462.31 59.7517 4462.4 59.58 4462.57C59.4083 4462.74 59.3118 4462.97 59.3118 4463.22C59.3128 4463.46 59.4082 4463.68 59.5773 4463.85C59.66 4463.94 59.759 4464 59.8684 4464.05C59.9777 4464.1 60.0952 4464.12 60.2137 4464.12C60.3322 4464.12 60.4495 4464.1 60.5589 4464.05C60.6682 4464 60.7672 4463.94 60.8499 4463.85C61.0191 4463.68 61.1145 4463.46 61.1155 4463.22C61.1097 4462.98 61.013 4462.76 60.8454 4462.59L60.8638 4462.57ZM64.6864 4447.68C62.2535 4445.22 59.2321 4443.42 55.9058 4442.44C55.5801 4442.35 55.2329 4442.39 54.9352 4442.55C54.6445 4442.71 54.4285 4442.98 54.331 4443.3C54.2967 4443.44 54.2768 4443.57 54.2716 4443.71C54.2737 4443.98 54.3603 4444.23 54.519 4444.45C54.6778 4444.66 54.9004 4444.82 55.155 4444.9C58.966 4446.02 62.3082 4448.35 64.6822 4451.52C67.0561 4454.69 68.3343 4458.54 68.3257 4462.49C68.3247 4464.91 67.8431 4467.3 66.909 4469.53C65.9748 4471.76 64.6064 4473.78 62.8825 4475.48C61.1629 4477.19 59.1204 4478.55 56.8726 4479.47C54.6248 4480.39 52.216 4480.86 49.7851 4480.85C44.8837 4480.82 40.1911 4478.87 36.7343 4475.42C33.2775 4471.96 31.338 4467.28 31.3405 4462.41C31.3534 4458.63 32.5359 4454.94 34.7275 4451.85C36.919 4448.77 40.0137 4446.42 43.5912 4445.14C43.8361 4445.05 44.0476 4444.89 44.1974 4444.68C44.3472 4444.46 44.4281 4444.21 44.429 4443.95C44.4325 4443.8 44.4027 4443.64 44.3418 4443.5C44.229 4443.18 43.9968 4442.93 43.6958 4442.79C43.3948 4442.65 43.0496 4442.63 42.7351 4442.74C39.7916 4443.78 37.1182 4445.47 34.9067 4447.67C32.9493 4449.61 31.3978 4451.92 30.3417 4454.46C29.2857 4457 28.7462 4459.72 28.754 4462.47C28.7471 4465.23 29.2899 4467.95 30.3507 4470.5C31.4115 4473.05 32.9694 4475.36 34.9342 4477.3C38.8943 4481.22 44.2563 4483.42 49.8447 4483.42C55.4331 4483.41 60.7919 4481.2 64.7459 4477.28C66.698 4475.34 68.245 4473.04 69.2972 4470.51C70.3494 4467.98 70.8859 4465.26 70.8758 4462.52C70.8775 4459.76 70.3296 4457.03 69.2641 4454.48C68.1987 4451.94 66.6367 4449.62 64.6681 4447.68H64.6864ZM64.6864 4447.68C62.2535 4445.22 59.2321 4443.42 55.9058 4442.44C55.5801 4442.35 55.2329 4442.39 54.9352 4442.55C54.6445 4442.71 54.4285 4442.98 54.331 4443.3C54.2967 4443.44 54.2768 4443.57 54.2716 4443.71C54.2737 4443.98 54.3603 4444.23 54.519 4444.45C54.6778 4444.66 54.9004 4444.82 55.155 4444.9C58.966 4446.02 62.3082 4448.35 64.6822 4451.52C67.0561 4454.69 68.3343 4458.54 68.3257 4462.49C68.3247 4464.91 67.8431 4467.3 66.909 4469.53C65.9748 4471.76 64.6064 4473.78 62.8825 4475.48C61.1629 4477.19 59.1204 4478.55 56.8726 4479.47C54.6248 4480.39 52.216 4480.86 49.7851 4480.85C44.8837 4480.82 40.1911 4478.87 36.7343 4475.42C33.2775 4471.96 31.338 4467.28 31.3405 4462.41C31.3534 4458.63 32.5359 4454.94 34.7275 4451.85C36.919 4448.77 40.0137 4446.42 43.5912 4445.14C43.8361 4445.05 44.0476 4444.89 44.1974 4444.68C44.3472 4444.46 44.4281 4444.21 44.429 4443.95C44.4325 4443.8 44.4027 4443.64 44.3418 4443.5C44.229 4443.18 43.9968 4442.93 43.6958 4442.79C43.3948 4442.65 43.0496 4442.63 42.7351 4442.74C39.7916 4443.78 37.1182 4445.47 34.9067 4447.67C32.9493 4449.61 31.3978 4451.92 30.3417 4454.46C29.2857 4457 28.7462 4459.72 28.754 4462.47C28.7471 4465.23 29.2899 4467.95 30.3507 4470.5C31.4115 4473.05 32.9694 4475.36 34.9342 4477.3C38.8943 4481.22 44.2563 4483.42 49.8447 4483.42C55.4331 4483.41 60.7919 4481.2 64.7459 4477.28C66.698 4475.34 68.245 4473.04 69.2972 4470.51C70.3494 4467.98 70.8859 4465.26 70.8758 4462.52C70.8775 4459.76 70.3296 4457.03 69.2641 4454.48C68.1987 4451.94 66.6367 4449.62 64.6681 4447.68H64.6864ZM60.8638 4462.57C60.7811 4462.49 60.6821 4462.42 60.5727 4462.37C60.4634 4462.33 60.3459 4462.31 60.2274 4462.31C59.9845 4462.31 59.7517 4462.4 59.58 4462.57C59.4083 4462.74 59.3118 4462.97 59.3118 4463.22C59.3128 4463.46 59.4082 4463.68 59.5773 4463.85C59.66 4463.94 59.759 4464 59.8684 4464.05C59.9777 4464.1 60.0952 4464.12 60.2137 4464.12C60.3322 4464.12 60.4495 4464.1 60.5589 4464.05C60.6682 4464 60.7672 4463.94 60.8499 4463.85C61.0191 4463.68 61.1145 4463.46 61.1155 4463.22C61.1097 4462.98 61.013 4462.76 60.8454 4462.59L60.8638 4462.57ZM52.7516 4462.31C52.5087 4462.31 52.2759 4462.4 52.1042 4462.57C51.9325 4462.74 51.836 4462.97 51.836 4463.22C51.836 4463.46 51.9325 4463.69 52.1042 4463.86C52.2759 4464.03 52.5087 4464.13 52.7516 4464.13C52.87 4464.13 52.9874 4464.1 53.0967 4464.06C53.206 4464.01 53.3049 4463.95 53.3879 4463.86C53.5571 4463.69 53.6525 4463.46 53.6535 4463.23C53.6547 4463.1 53.6318 4462.98 53.586 4462.87C53.5402 4462.76 53.4725 4462.66 53.3868 4462.57C53.3012 4462.49 53.1995 4462.42 53.0873 4462.37C52.9751 4462.33 52.8546 4462.31 52.7332 4462.31H52.7516ZM45.9077 4462.57C45.8246 4462.49 45.7255 4462.42 45.6162 4462.37C45.5069 4462.33 45.3897 4462.31 45.2713 4462.31C45.0284 4462.31 44.7956 4462.4 44.6239 4462.57C44.4522 4462.74 44.3557 4462.97 44.3557 4463.22C44.3567 4463.46 44.4521 4463.68 44.6212 4463.85C44.7918 4464.02 45.0219 4464.12 45.2621 4464.12C45.3805 4464.12 45.4977 4464.09 45.607 4464.05C45.7163 4464 45.8155 4463.94 45.8985 4463.85C46.0676 4463.68 46.1628 4463.46 46.1638 4463.22C46.1568 4462.98 46.0586 4462.76 45.8893 4462.59L45.9077 4462.57ZM38.4318 4462.57C38.2613 4462.4 38.0312 4462.31 37.791 4462.31C37.5481 4462.31 37.3151 4462.4 37.1434 4462.57C36.9717 4462.74 36.8754 4462.97 36.8754 4463.22C36.8764 4463.46 36.9716 4463.68 37.1407 4463.85C37.3112 4464.02 37.5416 4464.12 37.7818 4464.12C38.022 4464.12 38.2521 4464.02 38.4227 4463.85C38.5918 4463.68 38.6872 4463.46 38.6882 4463.22C38.6812 4462.98 38.5827 4462.76 38.4135 4462.59L38.4318 4462.57ZM64.6864 4447.68C62.2535 4445.22 59.2321 4443.42 55.9058 4442.44C55.5801 4442.35 55.2329 4442.39 54.9352 4442.55C54.6445 4442.71 54.4285 4442.98 54.331 4443.3C54.2967 4443.44 54.2768 4443.57 54.2716 4443.71C54.2737 4443.98 54.3603 4444.23 54.519 4444.45C54.6778 4444.66 54.9004 4444.82 55.155 4444.9C58.966 4446.02 62.3082 4448.35 64.6822 4451.52C67.0561 4454.69 68.3343 4458.54 68.3257 4462.49C68.3247 4464.91 67.8431 4467.3 66.909 4469.53C65.9748 4471.76 64.6064 4473.78 62.8825 4475.48C61.1629 4477.19 59.1204 4478.55 56.8726 4479.47C54.6248 4480.39 52.216 4480.86 49.7851 4480.85C44.8837 4480.82 40.1911 4478.87 36.7343 4475.42C33.2775 4471.96 31.338 4467.28 31.3405 4462.41C31.3534 4458.63 32.5359 4454.94 34.7275 4451.85C36.919 4448.77 40.0137 4446.42 43.5912 4445.14C43.8361 4445.05 44.0476 4444.89 44.1974 4444.68C44.3472 4444.46 44.4281 4444.21 44.429 4443.95C44.4325 4443.8 44.4027 4443.64 44.3418 4443.5C44.229 4443.18 43.9968 4442.93 43.6958 4442.79C43.3948 4442.65 43.0496 4442.63 42.7351 4442.74C39.7916 4443.78 37.1182 4445.47 34.9067 4447.67C32.9493 4449.61 31.3978 4451.92 30.3417 4454.46C29.2857 4457 28.7462 4459.72 28.754 4462.47C28.7471 4465.23 29.2899 4467.95 30.3507 4470.5C31.4115 4473.05 32.9694 4475.36 34.9342 4477.3C38.8943 4481.22 44.2563 4483.42 49.8447 4483.42C55.4331 4483.41 60.7919 4481.2 64.7459 4477.28C66.698 4475.34 68.245 4473.04 69.2972 4470.51C70.3494 4467.98 70.8859 4465.26 70.8758 4462.52C70.8775 4459.76 70.3296 4457.03 69.2641 4454.48C68.1987 4451.94 66.6367 4449.62 64.6681 4447.68H64.6864ZM60.8638 4462.57C60.7811 4462.49 60.6821 4462.42 60.5727 4462.37C60.4634 4462.33 60.3459 4462.31 60.2274 4462.31C59.9845 4462.31 59.7517 4462.4 59.58 4462.57C59.4083 4462.74 59.3118 4462.97 59.3118 4463.22C59.3128 4463.46 59.4082 4463.68 59.5773 4463.85C59.66 4463.94 59.759 4464 59.8684 4464.05C59.9777 4464.1 60.0952 4464.12 60.2137 4464.12C60.3322 4464.12 60.4495 4464.1 60.5589 4464.05C60.6682 4464 60.7672 4463.94 60.8499 4463.85C61.0191 4463.68 61.1145 4463.46 61.1155 4463.22C61.1097 4462.98 61.013 4462.76 60.8454 4462.59L60.8638 4462.57ZM52.7516 4462.31C52.5087 4462.31 52.2759 4462.4 52.1042 4462.57C51.9325 4462.74 51.836 4462.97 51.836 4463.22C51.836 4463.46 51.9325 4463.69 52.1042 4463.86C52.2759 4464.03 52.5087 4464.13 52.7516 4464.13C52.87 4464.13 52.9874 4464.1 53.0967 4464.06C53.206 4464.01 53.3049 4463.95 53.3879 4463.86C53.5571 4463.69 53.6525 4463.46 53.6535 4463.23C53.6547 4463.1 53.6318 4462.98 53.586 4462.87C53.5402 4462.76 53.4725 4462.66 53.3868 4462.57C53.3012 4462.49 53.1995 4462.42 53.0873 4462.37C52.9751 4462.33 52.8546 4462.31 52.7332 4462.31H52.7516ZM45.9077 4462.57C45.8246 4462.49 45.7255 4462.42 45.6162 4462.37C45.5069 4462.33 45.3897 4462.31 45.2713 4462.31C45.0284 4462.31 44.7956 4462.4 44.6239 4462.57C44.4522 4462.74 44.3557 4462.97 44.3557 4463.22C44.3567 4463.46 44.4521 4463.68 44.6212 4463.85C44.7918 4464.02 45.0219 4464.12 45.2621 4464.12C45.3805 4464.12 45.4977 4464.09 45.607 4464.05C45.7163 4464 45.8155 4463.94 45.8985 4463.85C46.0676 4463.68 46.1628 4463.46 46.1638 4463.22C46.1568 4462.98 46.0586 4462.76 45.8893 4462.59L45.9077 4462.57ZM38.4318 4462.57C38.2613 4462.4 38.0312 4462.31 37.791 4462.31C37.5481 4462.31 37.3151 4462.4 37.1434 4462.57C36.9717 4462.74 36.8754 4462.97 36.8754 4463.22C36.8764 4463.46 36.9716 4463.68 37.1407 4463.85C37.3112 4464.02 37.5416 4464.12 37.7818 4464.12C38.022 4464.12 38.2521 4464.02 38.4227 4463.85C38.5918 4463.68 38.6872 4463.46 38.6882 4463.22C38.6812 4462.98 38.5827 4462.76 38.4135 4462.59L38.4318 4462.57ZM38.4318 4462.57C38.2613 4462.4 38.0312 4462.31 37.791 4462.31C37.5481 4462.31 37.3151 4462.4 37.1434 4462.57C36.9717 4462.74 36.8754 4462.97 36.8754 4463.22C36.8764 4463.46 36.9716 4463.68 37.1407 4463.85C37.3112 4464.02 37.5416 4464.12 37.7818 4464.12C38.022 4464.12 38.2521 4464.02 38.4227 4463.85C38.5918 4463.68 38.6872 4463.46 38.6882 4463.22C38.6812 4462.98 38.5827 4462.76 38.4135 4462.59L38.4318 4462.57ZM45.9077 4462.57C45.8246 4462.49 45.7255 4462.42 45.6162 4462.37C45.5069 4462.33 45.3897 4462.31 45.2713 4462.31C45.0284 4462.31 44.7956 4462.4 44.6239 4462.57C44.4522 4462.74 44.3557 4462.97 44.3557 4463.22C44.3567 4463.46 44.4521 4463.68 44.6212 4463.85C44.7918 4464.02 45.0219 4464.12 45.2621 4464.12C45.3805 4464.12 45.4977 4464.09 45.607 4464.05C45.7163 4464 45.8155 4463.94 45.8985 4463.85C46.0676 4463.68 46.1628 4463.46 46.1638 4463.22C46.1568 4462.98 46.0586 4462.76 45.8893 4462.59L45.9077 4462.57ZM52.7516 4462.31C52.5087 4462.31 52.2759 4462.4 52.1042 4462.57C51.9325 4462.74 51.836 4462.97 51.836 4463.22C51.836 4463.46 51.9325 4463.69 52.1042 4463.86C52.2759 4464.03 52.5087 4464.13 52.7516 4464.13C52.87 4464.13 52.9874 4464.1 53.0967 4464.06C53.206 4464.01 53.3049 4463.95 53.3879 4463.86C53.5571 4463.69 53.6525 4463.46 53.6535 4463.23C53.6547 4463.1 53.6318 4462.98 53.586 4462.87C53.5402 4462.76 53.4725 4462.66 53.3868 4462.57C53.3012 4462.49 53.1995 4462.42 53.0873 4462.37C52.9751 4462.33 52.8546 4462.31 52.7332 4462.31H52.7516ZM60.8638 4462.57C60.7811 4462.49 60.6821 4462.42 60.5727 4462.37C60.4634 4462.33 60.3459 4462.31 60.2274 4462.31C59.9845 4462.31 59.7517 4462.4 59.58 4462.57C59.4083 4462.74 59.3118 4462.97 59.3118 4463.22C59.3128 4463.46 59.4082 4463.68 59.5773 4463.85C59.66 4463.94 59.759 4464 59.8684 4464.05C59.9777 4464.1 60.0952 4464.12 60.2137 4464.12C60.3322 4464.12 60.4495 4464.1 60.5589 4464.05C60.6682 4464 60.7672 4463.94 60.8499 4463.85C61.0191 4463.68 61.1145 4463.46 61.1155 4463.22C61.1097 4462.98 61.013 4462.76 60.8454 4462.59L60.8638 4462.57ZM64.6864 4447.68C62.2535 4445.22 59.2321 4443.42 55.9058 4442.44C55.5801 4442.35 55.2329 4442.39 54.9352 4442.55C54.6445 4442.71 54.4285 4442.98 54.331 4443.3C54.2967 4443.44 54.2768 4443.57 54.2716 4443.71C54.2737 4443.98 54.3603 4444.23 54.519 4444.45C54.6778 4444.66 54.9004 4444.82 55.155 4444.9C58.966 4446.02 62.3082 4448.35 64.6822 4451.52C67.0561 4454.69 68.3343 4458.54 68.3257 4462.49C68.3247 4464.91 67.8431 4467.3 66.909 4469.53C65.9748 4471.76 64.6064 4473.78 62.8825 4475.48C61.1629 4477.19 59.1204 4478.55 56.8726 4479.47C54.6248 4480.39 52.216 4480.86 49.7851 4480.85C44.8837 4480.82 40.1911 4478.87 36.7343 4475.42C33.2775 4471.96 31.338 4467.28 31.3405 4462.41C31.3534 4458.63 32.5359 4454.94 34.7275 4451.85C36.919 4448.77 40.0137 4446.42 43.5912 4445.14C43.8361 4445.05 44.0476 4444.89 44.1974 4444.68C44.3472 4444.46 44.4281 4444.21 44.429 4443.95C44.4325 4443.8 44.4027 4443.64 44.3418 4443.5C44.229 4443.18 43.9968 4442.93 43.6958 4442.79C43.3948 4442.65 43.0496 4442.63 42.7351 4442.74C39.7916 4443.78 37.1182 4445.47 34.9067 4447.67C32.9493 4449.61 31.3978 4451.92 30.3417 4454.46C29.2857 4457 28.7462 4459.72 28.754 4462.47C28.7471 4465.23 29.2899 4467.95 30.3507 4470.5C31.4115 4473.05 32.9694 4475.36 34.9342 4477.3C38.8943 4481.22 44.2563 4483.42 49.8447 4483.42C55.4331 4483.41 60.7919 4481.2 64.7459 4477.28C66.698 4475.34 68.245 4473.04 69.2972 4470.51C70.3494 4467.98 70.8859 4465.26 70.8758 4462.52C70.8775 4459.76 70.3296 4457.03 69.2641 4454.48C68.1987 4451.94 66.6367 4449.62 64.6681 4447.68H64.6864ZM64.6864 4447.68C62.2535 4445.22 59.2321 4443.42 55.9058 4442.44C55.5801 4442.35 55.2329 4442.39 54.9352 4442.55C54.6445 4442.71 54.4285 4442.98 54.331 4443.3C54.2967 4443.44 54.2768 4443.57 54.2716 4443.71C54.2737 4443.98 54.3603 4444.23 54.519 4444.45C54.6778 4444.66 54.9004 4444.82 55.155 4444.9C58.966 4446.02 62.3082 4448.35 64.6822 4451.52C67.0561 4454.69 68.3343 4458.54 68.3257 4462.49C68.3247 4464.91 67.8431 4467.3 66.909 4469.53C65.9748 4471.76 64.6064 4473.78 62.8825 4475.48C61.1629 4477.19 59.1204 4478.55 56.8726 4479.47C54.6248 4480.39 52.216 4480.86 49.7851 4480.85C44.8837 4480.82 40.1911 4478.87 36.7343 4475.42C33.2775 4471.96 31.338 4467.28 31.3405 4462.41C31.3534 4458.63 32.5359 4454.94 34.7275 4451.85C36.919 4448.77 40.0137 4446.42 43.5912 4445.14C43.8361 4445.05 44.0476 4444.89 44.1974 4444.68C44.3472 4444.46 44.4281 4444.21 44.429 4443.95C44.4325 4443.8 44.4027 4443.64 44.3418 4443.5C44.229 4443.18 43.9968 4442.93 43.6958 4442.79C43.3948 4442.65 43.0496 4442.63 42.7351 4442.74C39.7916 4443.78 37.1182 4445.47 34.9067 4447.67C32.9493 4449.61 31.3978 4451.92 30.3417 4454.46C29.2857 4457 28.7462 4459.72 28.754 4462.47C28.7471 4465.23 29.2899 4467.95 30.3507 4470.5C31.4115 4473.05 32.9694 4475.36 34.9342 4477.3C38.8943 4481.22 44.2563 4483.42 49.8447 4483.42C55.4331 4483.41 60.7919 4481.2 64.7459 4477.28C66.698 4475.34 68.245 4473.04 69.2972 4470.51C70.3494 4467.98 70.8859 4465.26 70.8758 4462.52C70.8775 4459.76 70.3296 4457.03 69.2641 4454.48C68.1987 4451.94 66.6367 4449.62 64.6681 4447.68H64.6864ZM60.8638 4462.57C60.7811 4462.49 60.6821 4462.42 60.5727 4462.37C60.4634 4462.33 60.3459 4462.31 60.2274 4462.31C59.9845 4462.31 59.7517 4462.4 59.58 4462.57C59.4083 4462.74 59.3118 4462.97 59.3118 4463.22C59.3128 4463.46 59.4082 4463.68 59.5773 4463.85C59.66 4463.94 59.759 4464 59.8684 4464.05C59.9777 4464.1 60.0952 4464.12 60.2137 4464.12C60.3322 4464.12 60.4495 4464.1 60.5589 4464.05C60.6682 4464 60.7672 4463.94 60.8499 4463.85C61.0191 4463.68 61.1145 4463.46 61.1155 4463.22C61.1097 4462.98 61.013 4462.76 60.8454 4462.59L60.8638 4462.57ZM52.7516 4462.31C52.5087 4462.31 52.2759 4462.4 52.1042 4462.57C51.9325 4462.74 51.836 4462.97 51.836 4463.22C51.836 4463.46 51.9325 4463.69 52.1042 4463.86C52.2759 4464.03 52.5087 4464.13 52.7516 4464.13C52.87 4464.13 52.9874 4464.1 53.0967 4464.06C53.206 4464.01 53.3049 4463.95 53.3879 4463.86C53.5571 4463.69 53.6525 4463.46 53.6535 4463.23C53.6547 4463.1 53.6318 4462.98 53.586 4462.87C53.5402 4462.76 53.4725 4462.66 53.3868 4462.57C53.3012 4462.49 53.1995 4462.42 53.0873 4462.37C52.9751 4462.33 52.8546 4462.31 52.7332 4462.31H52.7516ZM45.9077 4462.57C45.8246 4462.49 45.7255 4462.42 45.6162 4462.37C45.5069 4462.33 45.3897 4462.31 45.2713 4462.31C45.0284 4462.31 44.7956 4462.4 44.6239 4462.57C44.4522 4462.74 44.3557 4462.97 44.3557 4463.22C44.3567 4463.46 44.4521 4463.68 44.6212 4463.85C44.7918 4464.02 45.0219 4464.12 45.2621 4464.12C45.3805 4464.12 45.4977 4464.09 45.607 4464.05C45.7163 4464 45.8155 4463.94 45.8985 4463.85C46.0676 4463.68 46.1628 4463.46 46.1638 4463.22C46.1568 4462.98 46.0586 4462.76 45.8893 4462.59L45.9077 4462.57ZM38.4318 4462.57C38.2613 4462.4 38.0312 4462.31 37.791 4462.31C37.5481 4462.31 37.3151 4462.4 37.1434 4462.57C36.9717 4462.74 36.8754 4462.97 36.8754 4463.22C36.8764 4463.46 36.9716 4463.68 37.1407 4463.85C37.3112 4464.02 37.5416 4464.12 37.7818 4464.12C38.022 4464.12 38.2521 4464.02 38.4227 4463.85C38.5918 4463.68 38.6872 4463.46 38.6882 4463.22C38.6812 4462.98 38.5827 4462.76 38.4135 4462.59L38.4318 4462.57ZM22.7293 4482.41L22.5371 4482.6H22.766L22.853 4482.53L22.7293 4482.41ZM45.9077 4462.57C45.8246 4462.49 45.7255 4462.42 45.6162 4462.37C45.5069 4462.33 45.3897 4462.31 45.2713 4462.31C45.0284 4462.31 44.7956 4462.4 44.6239 4462.57C44.4522 4462.74 44.3557 4462.97 44.3557 4463.22C44.3567 4463.46 44.4521 4463.68 44.6212 4463.85C44.7918 4464.02 45.0219 4464.12 45.2621 4464.12C45.3805 4464.12 45.4977 4464.09 45.607 4464.05C45.7163 4464 45.8155 4463.94 45.8985 4463.85C46.0676 4463.68 46.1628 4463.46 46.1638 4463.22C46.1568 4462.98 46.0586 4462.76 45.8893 4462.59L45.9077 4462.57ZM38.4318 4462.57C38.2613 4462.4 38.0312 4462.31 37.791 4462.31C37.5481 4462.31 37.3151 4462.4 37.1434 4462.57C36.9717 4462.74 36.8754 4462.97 36.8754 4463.22C36.8764 4463.46 36.9716 4463.68 37.1407 4463.85C37.3112 4464.02 37.5416 4464.12 37.7818 4464.12C38.022 4464.12 38.2521 4464.02 38.4227 4463.85C38.5918 4463.68 38.6872 4463.46 38.6882 4463.22C38.6812 4462.98 38.5827 4462.76 38.4135 4462.59L38.4318 4462.57ZM52.7516 4462.31C52.5087 4462.31 52.2759 4462.4 52.1042 4462.57C51.9325 4462.74 51.836 4462.97 51.836 4463.22C51.836 4463.46 51.9325 4463.69 52.1042 4463.86C52.2759 4464.03 52.5087 4464.13 52.7516 4464.13C52.87 4464.13 52.9874 4464.1 53.0967 4464.06C53.206 4464.01 53.3049 4463.95 53.3879 4463.86C53.5571 4463.69 53.6525 4463.46 53.6535 4463.23C53.6547 4463.1 53.6318 4462.98 53.586 4462.87C53.5402 4462.76 53.4725 4462.66 53.3868 4462.57C53.3012 4462.49 53.1995 4462.42 53.0873 4462.37C52.9751 4462.33 52.8546 4462.31 52.7332 4462.31H52.7516ZM60.8638 4462.57C60.7811 4462.49 60.6821 4462.42 60.5727 4462.37C60.4634 4462.33 60.3459 4462.31 60.2274 4462.31C59.9845 4462.31 59.7517 4462.4 59.58 4462.57C59.4083 4462.74 59.3118 4462.97 59.3118 4463.22C59.3128 4463.46 59.4082 4463.68 59.5773 4463.85C59.66 4463.94 59.759 4464 59.8684 4464.05C59.9777 4464.1 60.0952 4464.12 60.2137 4464.12C60.3322 4464.12 60.4495 4464.1 60.5589 4464.05C60.6682 4464 60.7672 4463.94 60.8499 4463.85C61.0191 4463.68 61.1145 4463.46 61.1155 4463.22C61.1097 4462.98 61.013 4462.76 60.8454 4462.59L60.8638 4462.57ZM64.6864 4447.68C62.2535 4445.22 59.2321 4443.42 55.9058 4442.44C55.5801 4442.35 55.2329 4442.39 54.9352 4442.55C54.6445 4442.71 54.4285 4442.98 54.331 4443.3C54.2967 4443.44 54.2768 4443.57 54.2716 4443.71C54.2737 4443.98 54.3603 4444.23 54.519 4444.45C54.6778 4444.66 54.9004 4444.82 55.155 4444.9C58.966 4446.02 62.3082 4448.35 64.6822 4451.52C67.0561 4454.69 68.3343 4458.54 68.3257 4462.49C68.3247 4464.91 67.8431 4467.3 66.909 4469.53C65.9748 4471.76 64.6064 4473.78 62.8825 4475.48C61.1629 4477.19 59.1204 4478.55 56.8726 4479.47C54.6248 4480.39 52.216 4480.86 49.7851 4480.85C44.8837 4480.82 40.1911 4478.87 36.7343 4475.42C33.2775 4471.96 31.338 4467.28 31.3405 4462.41C31.3534 4458.63 32.5359 4454.94 34.7275 4451.85C36.919 4448.77 40.0137 4446.42 43.5912 4445.14C43.8361 4445.05 44.0476 4444.89 44.1974 4444.68C44.3472 4444.46 44.4281 4444.21 44.429 4443.95C44.4325 4443.8 44.4027 4443.64 44.3418 4443.5C44.229 4443.18 43.9968 4442.93 43.6958 4442.79C43.3948 4442.65 43.0496 4442.63 42.7351 4442.74C39.7916 4443.78 37.1182 4445.47 34.9067 4447.67C32.9493 4449.61 31.3978 4451.92 30.3417 4454.46C29.2857 4457 28.7462 4459.72 28.754 4462.47C28.7471 4465.23 29.2899 4467.95 30.3507 4470.5C31.4115 4473.05 32.9694 4475.36 34.9342 4477.3C38.8943 4481.22 44.2563 4483.42 49.8447 4483.42C55.4331 4483.41 60.7919 4481.2 64.7459 4477.28C66.698 4475.34 68.245 4473.04 69.2972 4470.51C70.3494 4467.98 70.8859 4465.26 70.8758 4462.52C70.8775 4459.76 70.3296 4457.03 69.2641 4454.48C68.1987 4451.94 66.6367 4449.62 64.6681 4447.68H64.6864ZM22.7293 4482.41L22.5371 4482.6H22.766L22.853 4482.53L22.7293 4482.41Z" fill="#52DE97"/>
<path d="M109.353 4399H4.6421C3.41095 4399 2.2303 4399.49 1.35975 4400.35C0.489197 4401.22 0 4402.39 0 4403.62V4477.98C-5.97717e-07 4479.21 0.488882 4480.38 1.3593 4481.25C2.22972 4482.12 3.41053 4482.6 4.6421 4482.6H18.9115L6.2902 4495.16C5.58104 4495.85 5.01828 4496.68 4.63539 4497.59C4.25251 4498.5 4.05719 4499.48 4.06069 4500.47C4.05628 4501.46 4.25118 4502.44 4.63405 4503.36C5.01692 4504.28 5.58008 4505.11 6.2902 4505.8C7.70885 4507.21 9.6309 4508 11.6349 4508C13.6388 4508 15.5609 4507.21 16.9795 4505.8L32.5081 4490.36C32.6278 4490.24 32.7224 4490.1 32.7868 4489.94C32.8513 4489.79 32.8841 4489.62 32.8834 4489.45C32.8849 4489.28 32.8524 4489.11 32.788 4488.96C32.7235 4488.8 32.6284 4488.66 32.5081 4488.54L30.6769 4486.72L33.5106 4483.91L33.8585 4484.16C37.5119 4486.82 41.7804 4488.52 46.2699 4489.11C50.7593 4489.7 55.3252 4489.15 59.5455 4487.52C62.5468 4486.38 65.3154 4484.71 67.7169 4482.59H109.376C110.608 4482.58 111.79 4482.1 112.661 4481.23C113.532 4480.36 114.022 4479.19 114.023 4477.97V4403.6C114.02 4402.99 113.897 4402.39 113.66 4401.83C113.424 4401.27 113.079 4400.76 112.646 4400.34C112.212 4399.91 111.698 4399.57 111.133 4399.34C110.568 4399.11 109.964 4399 109.353 4399ZM24.2448 4407.33C24.2457 4407.45 24.2227 4407.57 24.177 4407.68C24.1314 4407.79 24.0641 4407.89 23.9792 4407.97C23.8962 4408.05 23.7972 4408.12 23.688 4408.16C23.5787 4408.21 23.4615 4408.23 23.343 4408.23C23.1029 4408.23 22.8725 4408.14 22.702 4407.97C22.6171 4407.89 22.55 4407.79 22.5044 4407.68C22.4587 4407.57 22.4357 4407.45 22.4366 4407.33C22.4366 4407.09 22.5329 4406.86 22.7046 4406.69C22.8763 4406.52 23.1094 4406.42 23.3522 4406.42C23.4706 4406.42 23.5878 4406.45 23.6971 4406.49C23.8064 4406.54 23.9054 4406.6 23.9884 4406.69C24.1564 4406.86 24.2486 4407.09 24.2448 4407.33V4407.33ZM16.769 4407.33C16.7699 4407.45 16.7469 4407.57 16.7012 4407.68C16.6556 4407.79 16.5885 4407.89 16.5036 4407.97C16.4209 4408.05 16.3219 4408.12 16.2126 4408.16C16.1032 4408.21 15.9857 4408.23 15.8672 4408.23V4408.23C15.6244 4408.23 15.3916 4408.14 15.2199 4407.97C15.0482 4407.79 14.9516 4407.56 14.9516 4407.32C14.9516 4407.08 15.0482 4406.85 15.2199 4406.68C15.3916 4406.51 15.6244 4406.41 15.8672 4406.41C15.9875 4406.41 16.1062 4406.44 16.2166 4406.49C16.327 4406.53 16.4268 4406.6 16.5106 4406.69C16.5943 4406.77 16.6602 4406.87 16.7046 4406.99C16.7489 4407.1 16.7708 4407.22 16.769 4407.33V4407.33ZM8.38224 4406.42C8.62507 4406.42 8.85789 4406.52 9.02959 4406.69C9.2013 4406.86 9.29783 4407.09 9.29783 4407.33C9.29875 4407.45 9.27573 4407.57 9.2301 4407.68C9.18447 4407.79 9.11714 4407.89 9.03228 4407.97C8.94958 4408.05 8.85059 4408.12 8.74124 4408.16C8.63188 4408.21 8.51437 4408.23 8.39588 4408.23V4408.23C8.15305 4408.23 7.92024 4408.14 7.74853 4407.97C7.57682 4407.79 7.48029 4407.56 7.48029 4407.32C7.48618 4407.09 7.58354 4406.86 7.75166 4406.7C7.91978 4406.53 8.14571 4406.44 8.38224 4406.43V4406.42ZM15.1758 4504.02C14.2329 4504.95 12.9596 4505.47 11.6326 4505.47C10.3056 4505.47 9.03212 4504.95 8.08919 4504.02C7.62324 4503.56 7.25419 4503.01 7.0035 4502.4C6.7528 4501.8 6.62548 4501.15 6.62886 4500.49C6.62961 4499.17 7.15442 4497.91 8.08919 4496.97L10.836 4494.24L17.8906 4501.29L15.1758 4504.02ZM19.7127 4499.5L12.626 4492.45L22.5189 4482.61L22.7111 4482.42L22.8347 4482.54L23.2925 4483L23.6175 4483.36L23.2789 4483.71C22.595 4484.39 22.2114 4485.31 22.2122 4486.28C22.2099 4486.77 22.3065 4487.25 22.4961 4487.7C22.6856 4488.15 22.9643 4488.56 23.3156 4488.9C24.0085 4489.57 24.9395 4489.95 25.909 4489.95C26.8785 4489.95 27.8094 4489.57 28.5024 4488.9L28.8549 4488.55L29.7705 4489.46L19.7127 4499.5ZM26.7032 4487.11C26.4879 4487.32 26.1998 4487.43 25.8998 4487.43C25.5998 4487.43 25.3117 4487.32 25.0964 4487.11C24.9892 4487.01 24.904 4486.88 24.8459 4486.74C24.7877 4486.6 24.7576 4486.45 24.7576 4486.3C24.7565 4486.16 24.786 4486.01 24.8443 4485.87C24.9025 4485.73 24.9884 4485.61 25.0964 4485.51L29.4728 4481.14L29.9305 4480.69L30.7181 4481.51L31.542 4482.3L26.7032 4487.11ZM67.1447 4479.71C64.8792 4481.98 62.1829 4483.78 59.2122 4485.01C56.2415 4486.23 53.0557 4486.85 49.8401 4486.84C46.6226 4486.85 43.4349 4486.23 40.4621 4485C37.4892 4483.78 34.7902 4481.98 32.5217 4479.71C30.222 4477.47 28.3972 4474.79 27.1549 4471.83C25.9127 4468.88 25.2782 4465.71 25.2887 4462.5C25.2714 4456.14 27.7937 4450.03 32.302 4445.51L32.5217 4445.28C37.1179 4440.73 43.3432 4438.17 49.8332 4438.17C56.3233 4438.17 62.5486 4440.73 67.1447 4445.28C69.4269 4447.54 71.2365 4450.22 72.4679 4453.18C73.6993 4456.13 74.328 4459.3 74.3183 4462.5C74.3271 4465.7 73.6975 4468.87 72.4661 4471.82C71.2347 4474.77 69.426 4477.45 67.1447 4479.7V4479.71ZM112.182 4477.99C112.182 4478.36 112.11 4478.73 111.967 4479.07C111.825 4479.41 111.617 4479.72 111.354 4479.98C111.091 4480.24 110.779 4480.45 110.436 4480.59C110.093 4480.73 109.725 4480.81 109.353 4480.81H69.562C70.2759 4480.05 70.9426 4479.24 71.5581 4478.4C73.1963 4476.18 74.4819 4473.73 75.3711 4471.12C75.4306 4470.95 75.4902 4470.77 75.5406 4470.59C76.3738 4467.99 76.7942 4465.28 76.7861 4462.56C76.7813 4458.34 75.7793 4454.18 73.8614 4450.41C71.9434 4446.65 69.163 4443.38 65.744 4440.88C62.892 4438.79 59.6509 4437.29 56.209 4436.45C52.7671 4435.61 49.1926 4435.47 45.6925 4436.01C42.1861 4436.54 38.8196 4437.75 35.7884 4439.58C32.7573 4441.41 30.1219 4443.82 28.0354 4446.67C27.7058 4447.1 27.4037 4447.55 27.1199 4447.99C27.0146 4448.14 26.9138 4448.29 26.8176 4448.45C24.1792 4452.67 22.788 4457.55 22.8028 4462.52C22.7875 4468.23 24.6205 4473.8 28.0307 4478.39L28.2827 4478.73L25.4534 4481.54L24.8492 4480.94L23.8328 4479.93L23.6131 4479.71C23.4952 4479.6 23.355 4479.5 23.2007 4479.44C23.0463 4479.37 22.8808 4479.34 22.7136 4479.34C22.5464 4479.34 22.3807 4479.37 22.2263 4479.44C22.0719 4479.5 21.9317 4479.6 21.8139 4479.71L20.7244 4480.79H4.6374C3.88706 4480.79 3.16758 4480.5 2.63701 4479.97C2.10644 4479.44 1.80838 4478.73 1.80838 4477.98V4415.66H112.196L112.182 4477.99Z" fill="#52DE97"/>
<path d="M9.28851 4407.34C9.28943 4407.45 9.26641 4407.57 9.22078 4407.68C9.17515 4407.79 9.10782 4407.89 9.02295 4407.97C8.94026 4408.05 8.84127 4408.12 8.73191 4408.16C8.62256 4408.21 8.50527 4408.23 8.38678 4408.23C8.14395 4408.23 7.91091 4408.14 7.73921 4407.97C7.5675 4407.79 7.47119 4407.56 7.47119 4407.32C7.47119 4407.08 7.5675 4406.85 7.73921 4406.68C7.91091 4406.51 8.14395 4406.41 8.38678 4406.41C8.50702 4406.41 8.62554 4406.44 8.73594 4406.49C8.84634 4406.53 8.94636 4406.6 9.03011 4406.69C9.11385 4406.77 9.17979 4406.87 9.22413 4406.99C9.26847 4407.1 9.29033 4407.22 9.28851 4407.34Z" fill="#52DE97"/>
<path d="M16.769 4407.34C16.7699 4407.45 16.7469 4407.57 16.7012 4407.68C16.6556 4407.79 16.5885 4407.89 16.5036 4407.97C16.421 4408.05 16.322 4408.12 16.2126 4408.16C16.1033 4408.21 15.9857 4408.23 15.8672 4408.23C15.6244 4408.23 15.3916 4408.14 15.2199 4407.97C15.0482 4407.79 14.9517 4407.56 14.9517 4407.32C14.9517 4407.08 15.0482 4406.85 15.2199 4406.68C15.3916 4406.51 15.6244 4406.41 15.8672 4406.41C15.9875 4406.41 16.1062 4406.44 16.2166 4406.49C16.327 4406.53 16.4268 4406.6 16.5106 4406.69C16.5943 4406.77 16.6603 4406.87 16.7046 4406.99C16.7489 4407.1 16.7708 4407.22 16.769 4407.34Z" fill="#52DE97"/>
<path d="M24.2447 4407.33C24.2456 4407.45 24.2226 4407.57 24.177 4407.68C24.1313 4407.79 24.064 4407.89 23.9791 4407.97C23.8961 4408.05 23.7972 4408.12 23.6879 4408.16C23.5786 4408.21 23.4614 4408.23 23.343 4408.23C23.1028 4408.23 22.8724 4408.14 22.7019 4407.97C22.617 4407.89 22.5499 4407.79 22.5043 4407.68C22.4587 4407.57 22.4356 4407.45 22.4365 4407.33C22.4365 4407.09 22.5329 4406.86 22.7046 4406.69C22.8763 4406.52 23.1093 4406.42 23.3521 4406.42C23.4706 4406.42 23.5878 4406.45 23.6971 4406.49C23.8063 4406.54 23.9053 4406.6 23.9883 4406.69C24.1564 4406.86 24.2486 4407.09 24.2447 4407.33Z" fill="#52DE97"/>
</svg>
