<svg width="110" height="27" viewBox="0 0 110 27" fill="none" xmlns="http://www.w3.org/2000/svg">
<path fill-rule="evenodd" clip-rule="evenodd" d="M57.6449 16.6558C57.6449 13.9337 55.7287 12.0873 53.1308 12.0873C50.5647 12.0873 48.6485 13.9337 48.6485 16.6558C48.6485 19.3775 50.5647 21.2243 53.1308 21.2243C55.7287 21.2243 57.6449 19.3775 57.6449 16.6558V16.6558ZM61.8351 8.55513V24.7561H57.6449V22.8442C56.4757 24.3023 54.7221 25.2097 52.3509 25.2097C48.0315 25.2097 44.4586 21.4835 44.4586 16.6558C44.4586 11.8278 48.0315 8.10156 52.3509 8.10156C54.7221 8.10156 56.4757 9.00902 57.6449 10.4671V8.55513H61.8351Z" fill="white"/>
<path fill-rule="evenodd" clip-rule="evenodd" d="M80.8025 14.8097V24.7568H76.6126V15.3279C76.6126 13.1249 75.2812 11.9907 73.3971 11.9907C71.3508 11.9907 69.8245 13.1895 69.8245 16.0085V24.7568H65.6346V8.55611H69.8245V10.3707C70.7989 8.91235 72.4878 8.10254 74.6639 8.10254C78.1067 8.10254 80.8025 10.5002 80.8025 14.8097" fill="white"/>
<path fill-rule="evenodd" clip-rule="evenodd" d="M89.9935 12.5734V19.3128C89.9935 21.0625 91.2606 21.0949 93.664 20.9655V24.7566C87.7849 25.4045 85.804 23.6869 85.804 19.3128V12.5734H82.9784V8.55556H85.804V5.28323L89.9935 4.01953V8.55556H93.664V12.5734H89.9935Z" fill="white"/>
<mask id="mask0_113_17408" style="mask-type:alpha" maskUnits="userSpaceOnUse" x="0" y="0" width="110" height="27">
<path fill-rule="evenodd" clip-rule="evenodd" d="M0 26.3049H109.838V0.318359H0V26.3049Z" fill="white"/>
</mask>
<g mask="url(#mask0_113_17408)">
<path fill-rule="evenodd" clip-rule="evenodd" d="M96.6195 24.7565H100.81V8.55552H96.6195V24.7565ZM96.1323 4.05193C96.1323 2.65846 97.3015 1.45996 98.698 1.45996C100.127 1.45996 101.297 2.65846 101.297 4.05193C101.297 5.44509 100.127 6.61146 98.698 6.61146C97.3015 6.61146 96.1323 5.44509 96.1323 4.05193V4.05193Z" fill="white"/>
<path fill-rule="evenodd" clip-rule="evenodd" d="M104.317 22.4231C104.317 20.9002 105.551 19.6689 107.078 19.6689C108.604 19.6689 109.838 20.9002 109.838 22.4231C109.838 23.9461 108.604 25.1773 107.078 25.1773C105.551 25.1773 104.317 23.9461 104.317 22.4231" fill="#52DE97"/>
<path fill-rule="evenodd" clip-rule="evenodd" d="M21.471 14.328L19.7834 11.9116C19.7569 11.8741 19.6989 11.8833 19.6855 11.9272L19.1776 13.5984C19.1508 13.6127 19.1358 13.6203 19.1091 13.6346L14.6179 12.2758C14.7843 12.1413 15.0327 11.9727 15.4025 11.773C16.3355 11.2691 16.9342 10.5691 17.32 9.86739H17.3264C17.3634 9.79996 17.3905 9.72712 17.4253 9.65841C17.46 9.58717 17.4944 9.51624 17.5254 9.44562C18.1388 8.10686 18.3343 6.54703 17.8251 4.9115C17.1367 2.7009 15.3059 0.967725 13.0396 0.472486C8.88734 -0.434338 5.13363 2.78773 5.13363 6.79449C5.13363 7.73726 5.3514 8.63104 5.72349 9.4434C5.75537 9.51624 5.79076 9.58939 5.82711 9.66287C5.86091 9.7303 5.88737 9.80155 5.9234 9.86739H5.9301C6.3159 10.5691 6.91468 11.2691 7.84729 11.773C8.21714 11.9727 8.46552 12.1413 8.63195 12.2758L4.14108 13.6346C4.1143 13.6203 4.099 13.6127 4.07221 13.5984L3.5643 11.9272C3.55091 11.8833 3.49288 11.8741 3.46642 11.9116L1.77879 14.328C1.75839 14.3576 1.75233 14.3964 1.76381 14.4305C2.02271 15.2069 2.67219 15.6681 3.51169 15.6681C3.77856 15.6681 4.06648 15.622 4.36778 15.5307L7.89001 14.4651L10.4478 13.6913C10.5507 13.6598 10.6426 13.5923 10.6926 13.4979C10.7793 13.3325 10.8406 13.1566 10.8782 12.9571C10.8817 12.9409 10.8849 12.9244 10.8878 12.9062C10.9378 12.5672 10.8919 12.2272 10.751 11.8954C10.6993 11.7745 10.6483 11.6686 10.5877 11.5773C10.5246 11.4819 10.4363 11.4037 10.3476 11.3324C10.1959 11.21 10.0572 11.1289 9.8783 11.0544C9.72462 10.9905 9.57476 10.918 9.42905 10.8378C9.13923 10.6782 8.8663 10.4879 8.61633 10.2713C8.11448 9.83685 7.70572 9.2974 7.42482 8.69656C7.13755 8.08205 6.98705 7.40742 6.98705 6.7296C6.98705 4.17008 9.08662 2.05426 11.6252 2.05426C14.1635 2.05426 16.2628 4.17008 16.2628 6.7296C16.2628 7.41251 16.11 8.09254 15.8186 8.71024C15.5352 9.31172 15.1232 9.85117 14.6185 10.2847C14.4046 10.4682 14.1744 10.633 13.9314 10.7752C13.8077 10.8477 13.6808 10.9145 13.5513 10.9749C13.3859 11.0525 13.2213 11.1082 13.0683 11.2106C12.9165 11.3124 12.7708 11.4298 12.6621 11.5773C12.5971 11.6658 12.5505 11.7745 12.4989 11.8954C12.3579 12.2272 12.312 12.5672 12.3621 12.9062C12.3649 12.9244 12.3681 12.9409 12.372 12.9571C12.4096 13.1566 12.4708 13.3328 12.5575 13.4979C12.6073 13.5927 12.6994 13.6598 12.8021 13.6913L15.3598 14.4651L18.8824 15.5307C19.1833 15.622 19.4713 15.6681 19.7381 15.6681C20.5776 15.6681 21.2271 15.2069 21.486 14.4305C21.4975 14.3964 21.4914 14.3576 21.471 14.328" fill="#52DE97"/>
<path fill-rule="evenodd" clip-rule="evenodd" d="M23.0393 18.3966C22.7734 17.9153 22.2878 17.5718 21.5959 17.3756L13.9051 15.1942C13.805 15.1656 13.6969 15.1907 13.6198 15.2607L12.8801 15.9283C12.8246 15.9786 12.7522 16.0063 12.6773 16.0063H11.9047H11.6248H11.3452H10.5723C10.4974 16.0063 10.4253 15.9786 10.3695 15.9283L9.63011 15.2607C9.55264 15.1907 9.44487 15.1656 9.34475 15.1942L1.654 17.3756C0.962113 17.5718 0.476519 17.9153 0.210606 18.3966C-0.00365493 18.7846 -0.0562636 19.2474 0.0607509 19.7067C0.0696784 19.7417 0.0958233 19.7706 0.129302 19.7843L2.85858 20.9062C2.90098 20.9233 2.94498 20.8842 2.93223 20.8403L2.45365 19.1603C2.44536 19.1313 2.46226 19.1008 2.49159 19.0925L7.55478 17.6561C7.61695 17.6386 7.65968 17.7175 7.6109 17.7598L3.75069 21.0926C3.20675 21.562 2.91214 22.0783 2.87484 22.6266C2.84487 23.0684 2.99345 23.5099 3.29443 23.877C3.31707 23.905 3.3531 23.9205 3.38913 23.9186L6.33777 23.7841C6.38368 23.7822 6.40695 23.7281 6.37666 23.6934L5.23139 22.3731C5.21162 22.3502 5.21417 22.3152 5.23713 22.2958L9.21721 18.8591C9.266 18.8167 9.33837 18.8702 9.31191 18.9293L7.22542 23.5773C6.93145 24.2322 6.88298 24.8242 7.08162 25.3366C7.24136 25.7495 7.56339 26.0876 7.99159 26.2934C8.02379 26.3089 8.06333 26.308 8.09521 26.2911L10.7103 24.926C10.7512 24.9047 10.7492 24.8458 10.7075 24.8274L9.10977 24.1136C9.08203 24.1012 9.06959 24.0688 9.08203 24.0411L11.5696 18.4875C11.591 18.4402 11.6589 18.4402 11.6799 18.4875L14.1679 24.0411C14.1803 24.0688 14.1679 24.1012 14.1401 24.1136L12.5424 24.8274C12.5006 24.8458 12.4987 24.9047 12.5395 24.926L15.1547 26.2911C15.1865 26.308 15.2258 26.3089 15.2583 26.2934C15.6865 26.0876 16.0082 25.7495 16.1683 25.3366C16.3669 24.8242 16.3184 24.2322 16.0245 23.5773L13.938 18.9293C13.9115 18.8702 13.9836 18.8167 14.0323 18.8591L18.0128 22.2958C18.0357 22.3152 18.0383 22.3502 18.0185 22.3731L16.8729 23.6934C16.8429 23.7281 16.8662 23.7822 16.9121 23.7841L19.8608 23.9186C19.8968 23.9205 19.9328 23.905 19.9554 23.877C20.2564 23.5099 20.405 23.0684 20.375 22.6266C20.3377 22.0783 20.0431 21.562 19.4992 21.0926L15.639 17.7598C15.5902 17.7175 15.6329 17.6386 15.6951 17.6561L20.7583 19.0925C20.7876 19.1008 20.8045 19.1313 20.7962 19.1603L20.3173 20.8403C20.3049 20.8842 20.3489 20.9233 20.3913 20.9062L23.1206 19.7843C23.1541 19.7706 23.1799 19.7417 23.1888 19.7067C23.3058 19.2474 23.2535 18.7846 23.0393 18.3966" fill="#52DE97"/>
</g>
</svg>
