<svg width="19" height="19" viewBox="0 0 19 19" fill="none" xmlns="http://www.w3.org/2000/svg">
<path d="M8.96814 2.07227C10.1699 2.07227 11.3545 2.35612 12.4253 2.90062C13.496 3.44511 14.4224 4.2348 15.1288 5.2051C15.8351 6.1754 16.3014 7.29877 16.4893 8.48336C16.6773 9.66795 16.5817 10.8801 16.2104 12.0208C15.839 13.1615 15.2025 14.1982 14.3527 15.0463C13.503 15.8943 12.4642 16.5297 11.3213 16.9003C10.1784 17.2709 8.96383 17.3663 7.7769 17.1787C6.58998 16.9911 5.4644 16.5258 4.49219 15.8208L5.0293 15.083C5.88485 15.7033 6.87536 16.1128 7.91985 16.2779C8.96435 16.443 10.0332 16.3591 11.0389 16.0329C12.0447 15.7068 12.9588 15.1477 13.7066 14.4014C14.4544 13.6551 15.0145 12.7427 15.3413 11.739C15.6681 10.7352 15.7522 9.66847 15.5868 8.62603C15.4214 7.58359 15.0111 6.59502 14.3895 5.74116C13.7679 4.88729 12.9527 4.19237 12.0104 3.71321C11.0682 3.23406 10.0257 2.98427 8.96814 2.98427V2.07227Z" fill="#46C793"/>
<path d="M8.96814 2.07227C10.1699 2.07227 11.3545 2.35612 12.4253 2.90062C13.496 3.44511 14.4224 4.2348 15.1288 5.2051C15.8351 6.1754 16.3014 7.29877 16.4893 8.48336C16.6773 9.66795 16.5817 10.8801 16.2104 12.0208C15.839 13.1615 15.2025 14.1982 14.3527 15.0463C13.503 15.8943 12.4642 16.5297 11.3213 16.9003C10.1784 17.2709 8.96383 17.3663 7.7769 17.1787C6.58998 16.9911 5.4644 16.5258 4.49219 15.8208L5.0293 15.083C5.88485 15.7033 6.87536 16.1128 7.91985 16.2779C8.96435 16.443 10.0332 16.3591 11.0389 16.0329C12.0447 15.7068 12.9588 15.1477 13.7066 14.4014C14.4544 13.6551 15.0145 12.7427 15.3413 11.739C15.6681 10.7352 15.7522 9.66847 15.5868 8.62603C15.4214 7.58359 15.0111 6.59502 14.3895 5.74116C13.7679 4.88729 12.9527 4.19237 12.0104 3.71321C11.0682 3.23406 10.0257 2.98427 8.96814 2.98427V2.07227Z" fill="#46C793"/>
<path d="M9.09329 0C10.8566 2.08925e-08 12.5856 0.484494 14.089 1.39992C15.5925 2.31534 16.8119 3.62604 17.6124 5.18709C18.413 6.74814 18.7634 8.49875 18.6251 10.2454C18.4867 11.992 17.865 13.6665 16.8285 15.084C15.7921 16.5014 14.3813 17.6064 12.7522 18.2769C11.1231 18.9473 9.33918 19.1571 7.59758 18.883C5.85598 18.609 4.22458 17.8617 2.88375 16.7239C1.54292 15.586 0.544892 14.1019 0 12.4357L1.27306 12.0247C1.74167 13.4577 2.59998 14.734 3.75309 15.7125C4.9062 16.6911 6.30921 17.3337 7.80698 17.5694C9.30476 17.8051 10.839 17.6247 12.24 17.0481C13.641 16.4715 14.8542 15.5212 15.7456 14.3022C16.6369 13.0832 17.1716 11.6431 17.2906 10.141C17.4096 8.63892 17.1082 7.1334 16.4197 5.7909C15.7313 4.44839 14.6826 3.32119 13.3896 2.53393C12.0966 1.74666 10.6097 1.33 9.09329 1.33V0Z" fill="#52DE97"/>
</svg>
