<svg width="19" height="19" viewBox="0 0 19 19" fill="none" xmlns="http://www.w3.org/2000/svg">
<mask id="path-1-inside-1_106_19528" fill="white">
<path d="M7.55191 0.916499C8.86505 0.914687 10.1492 1.30255 11.2418 2.03096C12.3344 2.75937 13.1863 3.79558 13.6896 5.00842C14.193 6.22126 14.3252 7.55617 14.0694 8.84417C13.8137 10.1322 13.1815 11.3153 12.253 12.2438C11.3245 13.1724 10.1413 13.8045 8.85333 14.0603C7.56533 14.316 6.23042 14.1838 5.01758 13.6805C3.80474 13.1771 2.76852 12.3252 2.04011 11.2326C1.3117 10.14 0.92385 8.8559 0.925663 7.54276C0.9305 5.78686 1.63017 4.10424 2.87179 2.86262C4.1134 1.62101 5.79601 0.921337 7.55191 0.916499ZM7.55191 5.56859e-06C6.05789 6.66879e-06 4.59745 0.443138 3.35535 1.27336C2.11324 2.10358 1.14529 3.28357 0.573978 4.66403C0.0026621 6.0445 -0.146352 7.56342 0.145784 9.02859C0.43792 10.4938 1.15808 11.8394 2.21515 12.8952C3.27222 13.951 4.6187 14.6695 6.08423 14.9598C7.54976 15.2502 9.06849 15.0993 10.4483 14.5263C11.828 13.9533 13.0068 12.984 13.8355 11.7408C14.6643 10.4977 15.1056 9.03678 15.1038 7.54276C15.1038 6.55146 14.9084 5.56989 14.5288 4.65416C14.1492 3.73843 13.5927 2.90652 12.8914 2.20599C12.19 1.50546 11.3574 0.950047 10.4412 0.571528C9.52502 0.193009 8.54321 -0.00119893 7.55191 5.56859e-06Z"/>
</mask>
<path d="M7.55191 0.916499C8.86505 0.914687 10.1492 1.30255 11.2418 2.03096C12.3344 2.75937 13.1863 3.79558 13.6896 5.00842C14.193 6.22126 14.3252 7.55617 14.0694 8.84417C13.8137 10.1322 13.1815 11.3153 12.253 12.2438C11.3245 13.1724 10.1413 13.8045 8.85333 14.0603C7.56533 14.316 6.23042 14.1838 5.01758 13.6805C3.80474 13.1771 2.76852 12.3252 2.04011 11.2326C1.3117 10.14 0.92385 8.8559 0.925663 7.54276C0.9305 5.78686 1.63017 4.10424 2.87179 2.86262C4.1134 1.62101 5.79601 0.921337 7.55191 0.916499ZM7.55191 5.56859e-06C6.05789 6.66879e-06 4.59745 0.443138 3.35535 1.27336C2.11324 2.10358 1.14529 3.28357 0.573978 4.66403C0.0026621 6.0445 -0.146352 7.56342 0.145784 9.02859C0.43792 10.4938 1.15808 11.8394 2.21515 12.8952C3.27222 13.951 4.6187 14.6695 6.08423 14.9598C7.54976 15.2502 9.06849 15.0993 10.4483 14.5263C11.828 13.9533 13.0068 12.984 13.8355 11.7408C14.6643 10.4977 15.1056 9.03678 15.1038 7.54276C15.1038 6.55146 14.9084 5.56989 14.5288 4.65416C14.1492 3.73843 13.5927 2.90652 12.8914 2.20599C12.19 1.50546 11.3574 0.950047 10.4412 0.571528C9.52502 0.193009 8.54321 -0.00119893 7.55191 5.56859e-06Z" fill="#13115B"/>
<path d="M0.925663 7.54276L-0.0743346 7.54001L-0.0743365 7.54138L0.925663 7.54276ZM15.1038 7.54276L14.1038 7.54276L14.1038 7.54397L15.1038 7.54276ZM7.55329 1.9165C8.66853 1.91496 9.75916 2.24437 10.6871 2.863L11.7965 1.19891C10.5393 0.360729 9.06157 -0.0855852 7.55053 -0.0834995L7.55329 1.9165ZM10.6871 2.863C11.615 3.48164 12.3385 4.36168 12.766 5.39174L14.6132 4.6251C14.034 3.22948 13.0538 2.0371 11.7965 1.19891L10.6871 2.863ZM12.766 5.39174C13.1935 6.42179 13.3058 7.55553 13.0886 8.64941L15.0503 9.03892C15.3446 7.55681 15.1925 6.02072 14.6132 4.6251L12.766 5.39174ZM13.0886 8.64941C12.8714 9.7433 12.3345 10.7481 11.5459 11.5367L12.9601 12.951C14.0286 11.8825 14.756 10.521 15.0503 9.03892L13.0886 8.64941ZM11.5459 11.5367C10.7573 12.3253 9.75246 12.8622 8.65858 13.0794L9.04808 15.0411C10.5302 14.7469 11.8917 14.0194 12.9601 12.951L11.5459 11.5367ZM8.65858 13.0794C7.56469 13.2966 6.43096 13.1844 5.4009 12.7569L4.63426 14.6041C6.02988 15.1833 7.56597 15.3354 9.04808 15.0411L8.65858 13.0794ZM5.4009 12.7569C4.37085 12.3294 3.49079 11.6058 2.87215 10.6779L1.20806 11.7873C2.04625 13.0446 3.23864 14.0249 4.63426 14.6041L5.4009 12.7569ZM2.87215 10.6779C2.25352 9.74998 1.92412 8.65938 1.92566 7.54414L-0.0743365 7.54138C-0.0764221 9.05242 0.369877 10.5301 1.20806 11.7873L2.87215 10.6779ZM1.92566 7.54552C1.92977 6.05387 2.52414 4.62448 3.57889 3.56973L2.16468 2.15552C0.736198 3.584 -0.0687684 5.51985 -0.0743337 7.54001L1.92566 7.54552ZM3.57889 3.56973C4.63365 2.51498 6.06302 1.9206 7.55467 1.9165L7.54916 -0.0834967C5.52899 -0.0779315 3.59316 0.727037 2.16468 2.15552L3.57889 3.56973ZM7.55191 -0.999994C5.86007 -0.999993 4.20623 -0.498185 2.79965 0.441973L3.91104 2.10474C4.98867 1.38446 6.25572 1.00001 7.55191 1.00001L7.55191 -0.999994ZM2.79965 0.441973C1.39307 1.38213 0.296951 2.71837 -0.350018 4.28163L1.49797 5.04644C1.99364 3.84877 2.83341 2.82503 3.91104 2.10474L2.79965 0.441973ZM-0.350018 4.28163C-0.996986 5.84489 -1.16573 7.56494 -0.834912 9.22413L1.12648 8.83306C0.873028 7.56189 1.00231 6.2441 1.49797 5.04644L-0.350018 4.28163ZM-0.834912 9.22413C-0.504093 10.8833 0.311432 12.4071 1.50848 13.6027L2.92183 12.1876C2.00473 11.2716 1.37993 10.1042 1.12648 8.83306L-0.834912 9.22413ZM1.50848 13.6027C2.70552 14.7983 4.23029 15.612 5.88988 15.9408L6.27857 13.9789C5.0071 13.727 3.83892 13.1036 2.92183 12.1876L1.50848 13.6027ZM5.88988 15.9408C7.54947 16.2696 9.26931 16.0987 10.8318 15.4499L10.0647 13.6028C8.86767 14.0999 7.55005 14.2308 6.27857 13.9789L5.88988 15.9408ZM10.8318 15.4499C12.3943 14.801 13.7292 13.7033 14.6676 12.2955L13.0035 11.1862C12.2845 12.2647 11.2618 13.1057 10.0647 13.6028L10.8318 15.4499ZM14.6676 12.2955C15.6061 10.8878 16.1059 9.2334 16.1038 7.54155L14.1038 7.54397C14.1054 8.84015 13.7225 10.1077 13.0035 11.1862L14.6676 12.2955ZM16.1038 7.54276C16.1038 6.42004 15.8825 5.30833 15.4526 4.2712L13.605 5.03712C13.9343 5.83144 14.1038 6.68288 14.1038 7.54276L16.1038 7.54276ZM15.4526 4.2712C15.0226 3.23407 14.3924 2.29186 13.598 1.49845L12.1847 2.91353C12.7931 3.52118 13.2757 4.2428 13.605 5.03712L15.4526 4.2712ZM13.598 1.49845C12.8037 0.705055 11.8607 0.0760044 10.8231 -0.3527L10.0594 1.49576C10.8541 1.82409 11.5763 2.30587 12.1847 2.91353L13.598 1.49845ZM10.8231 -0.3527C9.7854 -0.781403 8.67342 -1.00136 7.5507 -0.999994L7.55313 1C8.413 0.99896 9.26465 1.16742 10.0594 1.49576L10.8231 -0.3527Z" fill="#13115B" mask="url(#path-1-inside-1_106_19528)"/>
<path d="M12.3721 12.3633L17.9993 17.9997" stroke="#13115B"/>
<path d="M5 10L10 10" stroke="#13115B"/>
<path d="M5 7.5L10 7.5" stroke="#13115B"/>
<path d="M5 5L10 5" stroke="#13115B"/>
</svg>
