<svg width="271" height="272" viewBox="0 0 271 272" fill="none" xmlns="http://www.w3.org/2000/svg">
<g filter="url(#filter0_d_146_18188)">
<g filter="url(#filter1_d_146_18188)">
<path d="M20 16C20 13.7909 21.7909 12 24 12H246.063C248.272 12 250.063 13.7909 250.063 16V240C250.063 242.209 248.272 244 246.063 244H24C21.7909 244 20 242.209 20 240V16Z" fill="white"/>
</g>
<path d="M54.5291 34.848V36.032H51.4891V46H50.0331V36.032H46.9771V34.848H54.5291ZM57.7774 38.656C58.0334 38.1547 58.396 37.7653 58.8654 37.488C59.3454 37.2107 59.9267 37.072 60.6094 37.072V38.576H60.2254C58.5934 38.576 57.7774 39.4613 57.7774 41.232V46H56.3214V37.232H57.7774V38.656ZM69.8421 37.232L64.5621 50.128H63.0581L64.7861 45.904L61.2501 37.232H62.8661L65.6181 44.336L68.3381 37.232H69.8421ZM76.3234 35.808C76.046 35.808 75.8114 35.712 75.6194 35.52C75.4274 35.328 75.3314 35.0933 75.3314 34.816C75.3314 34.5387 75.4274 34.304 75.6194 34.112C75.8114 33.92 76.046 33.824 76.3234 33.824C76.59 33.824 76.814 33.92 76.9954 34.112C77.1874 34.304 77.2834 34.5387 77.2834 34.816C77.2834 35.0933 77.1874 35.328 76.9954 35.52C76.814 35.712 76.59 35.808 76.3234 35.808ZM77.0274 37.232V46H75.5714V37.232H77.0274ZM83.7809 37.072C84.8475 37.072 85.7115 37.3973 86.3729 38.048C87.0342 38.688 87.3649 39.616 87.3649 40.832V46H85.9249V41.04C85.9249 40.1653 85.7062 39.4987 85.2689 39.04C84.8315 38.5707 84.2342 38.336 83.4769 38.336C82.7089 38.336 82.0955 38.576 81.6369 39.056C81.1889 39.536 80.9649 40.2347 80.9649 41.152V46H79.5089V37.232H80.9649V38.48C81.2529 38.032 81.6422 37.6853 82.1329 37.44C82.6342 37.1947 83.1835 37.072 83.7809 37.072ZM93.4649 41.584C93.4649 40.688 93.6462 39.904 94.0089 39.232C94.3715 38.5493 94.8675 38.0213 95.4969 37.648C96.1369 37.2747 96.8462 37.088 97.6249 37.088C98.3929 37.088 99.0595 37.2533 99.6249 37.584C100.19 37.9147 100.612 38.3307 100.889 38.832V37.232H102.361V46H100.889V44.368C100.601 44.88 100.169 45.3067 99.5929 45.648C99.0275 45.9787 98.3662 46.144 97.6089 46.144C96.8302 46.144 96.1262 45.952 95.4969 45.568C94.8675 45.184 94.3715 44.6453 94.0089 43.952C93.6462 43.2587 93.4649 42.4693 93.4649 41.584ZM100.889 41.6C100.889 40.9387 100.756 40.3627 100.489 39.872C100.222 39.3813 99.8595 39.008 99.4009 38.752C98.9529 38.4853 98.4569 38.352 97.9129 38.352C97.3689 38.352 96.8729 38.48 96.4249 38.736C95.9769 38.992 95.6195 39.3653 95.3529 39.856C95.0862 40.3467 94.9529 40.9227 94.9529 41.584C94.9529 42.256 95.0862 42.8427 95.3529 43.344C95.6195 43.8347 95.9769 44.2133 96.4249 44.48C96.8729 44.736 97.3689 44.864 97.9129 44.864C98.4569 44.864 98.9529 44.736 99.4009 44.48C99.8595 44.2133 100.222 43.8347 100.489 43.344C100.756 42.8427 100.889 42.2613 100.889 41.6ZM109.093 37.072C110.16 37.072 111.024 37.3973 111.685 38.048C112.347 38.688 112.677 39.616 112.677 40.832V46H111.237V41.04C111.237 40.1653 111.019 39.4987 110.581 39.04C110.144 38.5707 109.547 38.336 108.789 38.336C108.021 38.336 107.408 38.576 106.949 39.056C106.501 39.536 106.277 40.2347 106.277 41.152V46H104.821V37.232H106.277V38.48C106.565 38.032 106.955 37.6853 107.445 37.44C107.947 37.1947 108.496 37.072 109.093 37.072ZM127.913 34.848V46H126.457V40.944H120.777V46H119.321V34.848H120.777V39.744H126.457V34.848H127.913ZM134.223 46.144C133.402 46.144 132.655 45.9573 131.983 45.584C131.322 45.2107 130.799 44.6827 130.415 44C130.042 43.3067 129.855 42.5067 129.855 41.6C129.855 40.704 130.047 39.9147 130.431 39.232C130.826 38.5387 131.359 38.0107 132.031 37.648C132.703 37.2747 133.455 37.088 134.287 37.088C135.119 37.088 135.871 37.2747 136.543 37.648C137.215 38.0107 137.743 38.5333 138.127 39.216C138.522 39.8987 138.719 40.6933 138.719 41.6C138.719 42.5067 138.517 43.3067 138.111 44C137.717 44.6827 137.178 45.2107 136.495 45.584C135.813 45.9573 135.055 46.144 134.223 46.144ZM134.223 44.864C134.746 44.864 135.237 44.7413 135.695 44.496C136.154 44.2507 136.522 43.8827 136.799 43.392C137.087 42.9013 137.231 42.304 137.231 41.6C137.231 40.896 137.093 40.2987 136.815 39.808C136.538 39.3173 136.175 38.9547 135.727 38.72C135.279 38.4747 134.794 38.352 134.271 38.352C133.738 38.352 133.247 38.4747 132.799 38.72C132.362 38.9547 132.01 39.3173 131.743 39.808C131.477 40.2987 131.343 40.896 131.343 41.6C131.343 42.3147 131.471 42.9173 131.727 43.408C131.994 43.8987 132.346 44.2667 132.783 44.512C133.221 44.7467 133.701 44.864 134.223 44.864ZM148.41 37.232V46H146.954V44.704C146.677 45.152 146.287 45.504 145.786 45.76C145.295 46.0053 144.751 46.128 144.154 46.128C143.471 46.128 142.858 45.9893 142.314 45.712C141.77 45.424 141.338 44.9973 141.018 44.432C140.709 43.8667 140.554 43.1787 140.554 42.368V37.232H141.994V42.176C141.994 43.04 142.213 43.7067 142.65 44.176C143.087 44.6347 143.685 44.864 144.442 44.864C145.221 44.864 145.834 44.624 146.282 44.144C146.73 43.664 146.954 42.9653 146.954 42.048V37.232H148.41ZM152.324 38.656C152.58 38.1547 152.943 37.7653 153.412 37.488C153.892 37.2107 154.474 37.072 155.156 37.072V38.576H154.772C153.14 38.576 152.324 39.4613 152.324 41.232V46H150.868V37.232H152.324V38.656Z" fill="#616875"/>
<path d="M54.5291 93.848V95.032H51.4891V105H50.0331V95.032H46.9771V93.848H54.5291ZM57.7774 97.656C58.0334 97.1547 58.396 96.7653 58.8654 96.488C59.3454 96.2107 59.9267 96.072 60.6094 96.072V97.576H60.2254C58.5934 97.576 57.7774 98.4613 57.7774 100.232V105H56.3214V96.232H57.7774V97.656ZM69.8421 96.232L64.5621 109.128H63.0581L64.7861 104.904L61.2501 96.232H62.8661L65.6181 103.336L68.3381 96.232H69.8421ZM82.4354 93.848V95.032H79.3954V105H77.9394V95.032H74.8834V93.848H82.4354ZM88.0516 105.144C87.2303 105.144 86.4836 104.957 85.8116 104.584C85.1503 104.211 84.6276 103.683 84.2436 103C83.8703 102.307 83.6836 101.507 83.6836 100.6C83.6836 99.704 83.8756 98.9147 84.2596 98.232C84.6543 97.5387 85.1876 97.0107 85.8596 96.648C86.5316 96.2747 87.2836 96.088 88.1156 96.088C88.9476 96.088 89.6996 96.2747 90.3716 96.648C91.0436 97.0107 91.5716 97.5333 91.9556 98.216C92.3503 98.8987 92.5476 99.6933 92.5476 100.6C92.5476 101.507 92.3449 102.307 91.9396 103C91.5449 103.683 91.0063 104.211 90.3236 104.584C89.6409 104.957 88.8836 105.144 88.0516 105.144ZM88.0516 103.864C88.5743 103.864 89.0649 103.741 89.5236 103.496C89.9823 103.251 90.3503 102.883 90.6276 102.392C90.9156 101.901 91.0596 101.304 91.0596 100.6C91.0596 99.896 90.9209 99.2987 90.6436 98.808C90.3663 98.3173 90.0036 97.9547 89.5556 97.72C89.1076 97.4747 88.6223 97.352 88.0996 97.352C87.5663 97.352 87.0756 97.4747 86.6276 97.72C86.1903 97.9547 85.8383 98.3173 85.5716 98.808C85.3049 99.2987 85.1716 99.896 85.1716 100.6C85.1716 101.315 85.2996 101.917 85.5556 102.408C85.8223 102.899 86.1743 103.267 86.6116 103.512C87.0489 103.747 87.5289 103.864 88.0516 103.864ZM105.006 96.072C105.689 96.072 106.297 96.216 106.83 96.504C107.363 96.7813 107.785 97.2027 108.094 97.768C108.403 98.3333 108.558 99.0213 108.558 99.832V105H107.118V100.04C107.118 99.1653 106.899 98.4987 106.462 98.04C106.035 97.5707 105.454 97.336 104.718 97.336C103.961 97.336 103.358 97.5813 102.91 98.072C102.462 98.552 102.238 99.2507 102.238 100.168V105H100.798V100.04C100.798 99.1653 100.579 98.4987 100.142 98.04C99.7153 97.5707 99.134 97.336 98.398 97.336C97.6406 97.336 97.038 97.5813 96.59 98.072C96.142 98.552 95.918 99.2507 95.918 100.168V105H94.462V96.232H95.918V97.496C96.206 97.0373 96.59 96.6853 97.07 96.44C97.5606 96.1947 98.0993 96.072 98.686 96.072C99.422 96.072 100.073 96.2373 100.638 96.568C101.203 96.8987 101.625 97.384 101.902 98.024C102.147 97.4053 102.553 96.9253 103.118 96.584C103.683 96.2427 104.313 96.072 105.006 96.072ZM114.77 105.144C113.949 105.144 113.202 104.957 112.53 104.584C111.869 104.211 111.346 103.683 110.962 103C110.589 102.307 110.402 101.507 110.402 100.6C110.402 99.704 110.594 98.9147 110.978 98.232C111.373 97.5387 111.906 97.0107 112.578 96.648C113.25 96.2747 114.002 96.088 114.834 96.088C115.666 96.088 116.418 96.2747 117.09 96.648C117.762 97.0107 118.29 97.5333 118.674 98.216C119.069 98.8987 119.266 99.6933 119.266 100.6C119.266 101.507 119.064 102.307 118.658 103C118.264 103.683 117.725 104.211 117.042 104.584C116.36 104.957 115.602 105.144 114.77 105.144ZM114.77 103.864C115.293 103.864 115.784 103.741 116.242 103.496C116.701 103.251 117.069 102.883 117.346 102.392C117.634 101.901 117.778 101.304 117.778 100.6C117.778 99.896 117.64 99.2987 117.362 98.808C117.085 98.3173 116.722 97.9547 116.274 97.72C115.826 97.4747 115.341 97.352 114.818 97.352C114.285 97.352 113.794 97.4747 113.346 97.72C112.909 97.9547 112.557 98.3173 112.29 98.808C112.024 99.2987 111.89 99.896 111.89 100.6C111.89 101.315 112.018 101.917 112.274 102.408C112.541 102.899 112.893 103.267 113.33 103.512C113.768 103.747 114.248 103.864 114.77 103.864ZM122.637 97.656C122.893 97.1547 123.255 96.7653 123.725 96.488C124.205 96.2107 124.786 96.072 125.469 96.072V97.576H125.085C123.453 97.576 122.637 98.4613 122.637 100.232V105H121.181V96.232H122.637V97.656ZM128.605 97.656C128.861 97.1547 129.224 96.7653 129.693 96.488C130.173 96.2107 130.755 96.072 131.437 96.072V97.576H131.053C129.421 97.576 128.605 98.4613 128.605 100.232V105H127.149V96.232H128.605V97.656ZM136.942 105.144C136.121 105.144 135.374 104.957 134.702 104.584C134.041 104.211 133.518 103.683 133.134 103C132.761 102.307 132.574 101.507 132.574 100.6C132.574 99.704 132.766 98.9147 133.15 98.232C133.545 97.5387 134.078 97.0107 134.75 96.648C135.422 96.2747 136.174 96.088 137.006 96.088C137.838 96.088 138.59 96.2747 139.262 96.648C139.934 97.0107 140.462 97.5333 140.846 98.216C141.241 98.8987 141.438 99.6933 141.438 100.6C141.438 101.507 141.236 102.307 140.83 103C140.436 103.683 139.897 104.211 139.214 104.584C138.532 104.957 137.774 105.144 136.942 105.144ZM136.942 103.864C137.465 103.864 137.956 103.741 138.414 103.496C138.873 103.251 139.241 102.883 139.518 102.392C139.806 101.901 139.95 101.304 139.95 100.6C139.95 99.896 139.812 99.2987 139.534 98.808C139.257 98.3173 138.894 97.9547 138.446 97.72C137.998 97.4747 137.513 97.352 136.99 97.352C136.457 97.352 135.966 97.4747 135.518 97.72C135.081 97.9547 134.729 98.3173 134.462 98.808C134.196 99.2987 134.062 99.896 134.062 100.6C134.062 101.315 134.19 101.917 134.446 102.408C134.713 102.899 135.065 103.267 135.502 103.512C135.94 103.747 136.42 103.864 136.942 103.864ZM155.033 96.232L152.297 105H150.793L148.681 98.04L146.569 105H145.065L142.313 96.232H143.801L145.817 103.592L147.993 96.232H149.481L151.609 103.608L153.593 96.232H155.033Z" fill="#616875"/>
<path d="M57.4659 209.848V211.032H54.4259V221H52.9699V211.032H49.9139V209.848H57.4659ZM67.0341 212.232V221H65.5781V219.704C65.3008 220.152 64.9115 220.504 64.4101 220.76C63.9195 221.005 63.3755 221.128 62.7781 221.128C62.0955 221.128 61.4821 220.989 60.9381 220.712C60.3941 220.424 59.9621 219.997 59.6421 219.432C59.3328 218.867 59.1781 218.179 59.1781 217.368V212.232H60.6181V217.176C60.6181 218.04 60.8368 218.707 61.2741 219.176C61.7115 219.635 62.3088 219.864 63.0661 219.864C63.8448 219.864 64.4581 219.624 64.9061 219.144C65.3541 218.664 65.5781 217.965 65.5781 217.048V212.232H67.0341ZM70.9485 213.656C71.2045 213.155 71.5672 212.765 72.0365 212.488C72.5165 212.211 73.0978 212.072 73.7805 212.072V213.576H73.3965C71.7645 213.576 70.9485 214.461 70.9485 216.232V221H69.4925V212.232H70.9485V213.656ZM79.7332 212.072C80.7999 212.072 81.6639 212.397 82.3252 213.048C82.9866 213.688 83.3172 214.616 83.3172 215.832V221H81.8772V216.04C81.8772 215.165 81.6586 214.499 81.2212 214.04C80.7839 213.571 80.1866 213.336 79.4292 213.336C78.6612 213.336 78.0479 213.576 77.5892 214.056C77.1412 214.536 76.9172 215.235 76.9172 216.152V221H75.4612V212.232H76.9172V213.48C77.2052 213.032 77.5946 212.685 78.0852 212.44C78.5866 212.195 79.1359 212.072 79.7332 212.072ZM93.7852 221.144C92.9639 221.144 92.2172 220.957 91.5452 220.584C90.8839 220.211 90.3612 219.683 89.9772 219C89.6039 218.307 89.4172 217.507 89.4172 216.6C89.4172 215.704 89.6092 214.915 89.9932 214.232C90.3879 213.539 90.9212 213.011 91.5932 212.648C92.2652 212.275 93.0172 212.088 93.8492 212.088C94.6812 212.088 95.4332 212.275 96.1052 212.648C96.7772 213.011 97.3052 213.533 97.6892 214.216C98.0839 214.899 98.2812 215.693 98.2812 216.6C98.2812 217.507 98.0786 218.307 97.6732 219C97.2786 219.683 96.7399 220.211 96.0572 220.584C95.3746 220.957 94.6172 221.144 93.7852 221.144ZM93.7852 219.864C94.3079 219.864 94.7986 219.741 95.2572 219.496C95.7159 219.251 96.0839 218.883 96.3612 218.392C96.6492 217.901 96.7932 217.304 96.7932 216.6C96.7932 215.896 96.6546 215.299 96.3772 214.808C96.0999 214.317 95.7372 213.955 95.2892 213.72C94.8412 213.475 94.3559 213.352 93.8332 213.352C93.2999 213.352 92.8092 213.475 92.3612 213.72C91.9239 213.955 91.5719 214.317 91.3052 214.808C91.0386 215.299 90.9052 215.896 90.9052 216.6C90.9052 217.315 91.0332 217.917 91.2892 218.408C91.5559 218.899 91.9079 219.267 92.3452 219.512C92.7826 219.747 93.2626 219.864 93.7852 219.864ZM103.764 213.432H101.924V221H100.468V213.432H99.3316V212.232H100.468V211.608C100.468 210.627 100.718 209.912 101.22 209.464C101.732 209.005 102.548 208.776 103.668 208.776V209.992C103.028 209.992 102.574 210.12 102.308 210.376C102.052 210.621 101.924 211.032 101.924 211.608V212.232H103.764V213.432ZM115.599 221L112.943 216.44H111.183V221H109.727V209.848H113.327C114.17 209.848 114.879 209.992 115.455 210.28C116.042 210.568 116.479 210.957 116.767 211.448C117.055 211.939 117.199 212.499 117.199 213.128C117.199 213.896 116.975 214.573 116.527 215.16C116.09 215.747 115.428 216.136 114.543 216.328L117.343 221H115.599ZM111.183 215.272H113.327C114.116 215.272 114.708 215.08 115.103 214.696C115.498 214.301 115.695 213.779 115.695 213.128C115.695 212.467 115.498 211.955 115.103 211.592C114.719 211.229 114.127 211.048 113.327 211.048H111.183V215.272ZM127.461 216.28C127.461 216.557 127.445 216.851 127.413 217.16H120.405C120.459 218.024 120.752 218.701 121.285 219.192C121.829 219.672 122.485 219.912 123.253 219.912C123.883 219.912 124.405 219.768 124.821 219.48C125.248 219.181 125.547 218.787 125.717 218.296H127.285C127.051 219.139 126.581 219.827 125.877 220.36C125.173 220.883 124.299 221.144 123.253 221.144C122.421 221.144 121.675 220.957 121.013 220.584C120.363 220.211 119.851 219.683 119.477 219C119.104 218.307 118.917 217.507 118.917 216.6C118.917 215.693 119.099 214.899 119.461 214.216C119.824 213.533 120.331 213.011 120.981 212.648C121.643 212.275 122.4 212.088 123.253 212.088C124.085 212.088 124.821 212.269 125.461 212.632C126.101 212.995 126.592 213.496 126.933 214.136C127.285 214.765 127.461 215.48 127.461 216.28ZM125.957 215.976C125.957 215.421 125.835 214.947 125.589 214.552C125.344 214.147 125.008 213.843 124.581 213.64C124.165 213.427 123.701 213.32 123.189 213.32C122.453 213.32 121.824 213.555 121.301 214.024C120.789 214.493 120.496 215.144 120.421 215.976H125.957ZM139.927 212.072C140.61 212.072 141.218 212.216 141.751 212.504C142.284 212.781 142.706 213.203 143.015 213.768C143.324 214.333 143.479 215.021 143.479 215.832V221H142.039V216.04C142.039 215.165 141.82 214.499 141.383 214.04C140.956 213.571 140.375 213.336 139.639 213.336C138.882 213.336 138.279 213.581 137.831 214.072C137.383 214.552 137.159 215.251 137.159 216.168V221H135.719V216.04C135.719 215.165 135.5 214.499 135.063 214.04C134.636 213.571 134.055 213.336 133.319 213.336C132.562 213.336 131.959 213.581 131.511 214.072C131.063 214.552 130.839 215.251 130.839 216.168V221H129.383V212.232H130.839V213.496C131.127 213.037 131.511 212.685 131.991 212.44C132.482 212.195 133.02 212.072 133.607 212.072C134.343 212.072 134.994 212.237 135.559 212.568C136.124 212.899 136.546 213.384 136.823 214.024C137.068 213.405 137.474 212.925 138.039 212.584C138.604 212.243 139.234 212.072 139.927 212.072ZM146.619 210.808C146.342 210.808 146.107 210.712 145.915 210.52C145.723 210.328 145.627 210.093 145.627 209.816C145.627 209.539 145.723 209.304 145.915 209.112C146.107 208.92 146.342 208.824 146.619 208.824C146.886 208.824 147.11 208.92 147.291 209.112C147.483 209.304 147.579 209.539 147.579 209.816C147.579 210.093 147.483 210.328 147.291 210.52C147.11 210.712 146.886 210.808 146.619 210.808ZM147.323 212.232V221H145.867V212.232H147.323ZM154.077 212.072C155.144 212.072 156.008 212.397 156.669 213.048C157.33 213.688 157.661 214.616 157.661 215.832V221H156.221V216.04C156.221 215.165 156.002 214.499 155.565 214.04C155.128 213.571 154.53 213.336 153.773 213.336C153.005 213.336 152.392 213.576 151.933 214.056C151.485 214.536 151.261 215.235 151.261 216.152V221H149.805V212.232H151.261V213.48C151.549 213.032 151.938 212.685 152.429 212.44C152.93 212.195 153.48 212.072 154.077 212.072ZM159.495 216.584C159.495 215.688 159.677 214.904 160.039 214.232C160.402 213.549 160.898 213.021 161.527 212.648C162.167 212.275 162.882 212.088 163.671 212.088C164.354 212.088 164.989 212.248 165.575 212.568C166.162 212.877 166.61 213.288 166.919 213.8V209.16H168.391V221H166.919V219.352C166.631 219.875 166.205 220.307 165.639 220.648C165.074 220.979 164.413 221.144 163.655 221.144C162.877 221.144 162.167 220.952 161.527 220.568C160.898 220.184 160.402 219.645 160.039 218.952C159.677 218.259 159.495 217.469 159.495 216.584ZM166.919 216.6C166.919 215.939 166.786 215.363 166.519 214.872C166.253 214.381 165.89 214.008 165.431 213.752C164.983 213.485 164.487 213.352 163.943 213.352C163.399 213.352 162.903 213.48 162.455 213.736C162.007 213.992 161.65 214.365 161.383 214.856C161.117 215.347 160.983 215.923 160.983 216.584C160.983 217.256 161.117 217.843 161.383 218.344C161.65 218.835 162.007 219.213 162.455 219.48C162.903 219.736 163.399 219.864 163.943 219.864C164.487 219.864 164.983 219.736 165.431 219.48C165.89 219.213 166.253 218.835 166.519 218.344C166.786 217.843 166.919 217.261 166.919 216.6ZM178.852 216.28C178.852 216.557 178.836 216.851 178.804 217.16H171.796C171.849 218.024 172.143 218.701 172.676 219.192C173.22 219.672 173.876 219.912 174.644 219.912C175.273 219.912 175.796 219.768 176.212 219.48C176.639 219.181 176.937 218.787 177.108 218.296H178.676C178.441 219.139 177.972 219.827 177.268 220.36C176.564 220.883 175.689 221.144 174.644 221.144C173.812 221.144 173.065 220.957 172.404 220.584C171.753 220.211 171.241 219.683 170.868 219C170.495 218.307 170.308 217.507 170.308 216.6C170.308 215.693 170.489 214.899 170.852 214.216C171.215 213.533 171.721 213.011 172.372 212.648C173.033 212.275 173.791 212.088 174.644 212.088C175.476 212.088 176.212 212.269 176.852 212.632C177.492 212.995 177.983 213.496 178.324 214.136C178.676 214.765 178.852 215.48 178.852 216.28ZM177.348 215.976C177.348 215.421 177.225 214.947 176.98 214.552C176.735 214.147 176.399 213.843 175.972 213.64C175.556 213.427 175.092 213.32 174.58 213.32C173.844 213.32 173.215 213.555 172.692 214.024C172.18 214.493 171.887 215.144 171.812 215.976H177.348ZM182.23 213.656C182.486 213.155 182.848 212.765 183.318 212.488C183.798 212.211 184.379 212.072 185.062 212.072V213.576H184.678C183.046 213.576 182.23 214.461 182.23 216.232V221H180.774V212.232H182.23V213.656ZM189.846 221.144C189.174 221.144 188.572 221.032 188.038 220.808C187.505 220.573 187.084 220.253 186.774 219.848C186.465 219.432 186.294 218.957 186.262 218.424H187.766C187.809 218.861 188.012 219.219 188.374 219.496C188.748 219.773 189.233 219.912 189.83 219.912C190.385 219.912 190.822 219.789 191.142 219.544C191.462 219.299 191.622 218.989 191.622 218.616C191.622 218.232 191.452 217.949 191.11 217.768C190.769 217.576 190.241 217.389 189.526 217.208C188.876 217.037 188.342 216.867 187.926 216.696C187.521 216.515 187.169 216.253 186.87 215.912C186.582 215.56 186.438 215.101 186.438 214.536C186.438 214.088 186.572 213.677 186.838 213.304C187.105 212.931 187.484 212.637 187.974 212.424C188.465 212.2 189.025 212.088 189.654 212.088C190.625 212.088 191.409 212.333 192.006 212.824C192.604 213.315 192.924 213.987 192.966 214.84H191.51C191.478 214.381 191.292 214.013 190.95 213.736C190.62 213.459 190.172 213.32 189.606 213.32C189.084 213.32 188.668 213.432 188.358 213.656C188.049 213.88 187.894 214.173 187.894 214.536C187.894 214.824 187.985 215.064 188.166 215.256C188.358 215.437 188.593 215.587 188.87 215.704C189.158 215.811 189.553 215.933 190.054 216.072C190.684 216.243 191.196 216.413 191.59 216.584C191.985 216.744 192.321 216.989 192.598 217.32C192.886 217.651 193.036 218.083 193.046 218.616C193.046 219.096 192.913 219.528 192.646 219.912C192.38 220.296 192.001 220.6 191.51 220.824C191.03 221.037 190.476 221.144 189.846 221.144Z" fill="#394253"/>
<path d="M20 187H250.063" stroke="#F7F9FE"/>
<path d="M53.5371 164L50.8811 159.44H49.1211V164H47.6651V152.848H51.2651C52.1078 152.848 52.8171 152.992 53.3931 153.28C53.9798 153.568 54.4171 153.957 54.7051 154.448C54.9931 154.939 55.1371 155.499 55.1371 156.128C55.1371 156.896 54.9131 157.573 54.4651 158.16C54.0278 158.747 53.3664 159.136 52.4811 159.328L55.2811 164H53.5371ZM49.1211 158.272H51.2651C52.0544 158.272 52.6464 158.08 53.0411 157.696C53.4358 157.301 53.6331 156.779 53.6331 156.128C53.6331 155.467 53.4358 154.955 53.0411 154.592C52.6571 154.229 52.0651 154.048 51.2651 154.048H49.1211V158.272ZM65.3995 159.28C65.3995 159.557 65.3835 159.851 65.3515 160.16H58.3435C58.3968 161.024 58.6901 161.701 59.2235 162.192C59.7675 162.672 60.4235 162.912 61.1915 162.912C61.8208 162.912 62.3435 162.768 62.7595 162.48C63.1861 162.181 63.4848 161.787 63.6555 161.296H65.2235C64.9888 162.139 64.5195 162.827 63.8155 163.36C63.1115 163.883 62.2368 164.144 61.1915 164.144C60.3595 164.144 59.6128 163.957 58.9515 163.584C58.3008 163.211 57.7888 162.683 57.4155 162C57.0421 161.307 56.8555 160.507 56.8555 159.6C56.8555 158.693 57.0368 157.899 57.3995 157.216C57.7621 156.533 58.2688 156.011 58.9195 155.648C59.5808 155.275 60.3381 155.088 61.1915 155.088C62.0235 155.088 62.7595 155.269 63.3995 155.632C64.0395 155.995 64.5301 156.496 64.8715 157.136C65.2235 157.765 65.3995 158.48 65.3995 159.28ZM63.8955 158.976C63.8955 158.421 63.7728 157.947 63.5275 157.552C63.2821 157.147 62.9461 156.843 62.5195 156.64C62.1035 156.427 61.6395 156.32 61.1275 156.32C60.3915 156.32 59.7621 156.555 59.2395 157.024C58.7275 157.493 58.4341 158.144 58.3595 158.976H63.8955ZM77.8654 155.072C78.548 155.072 79.156 155.216 79.6894 155.504C80.2227 155.781 80.644 156.203 80.9534 156.768C81.2627 157.333 81.4174 158.021 81.4174 158.832V164H79.9774V159.04C79.9774 158.165 79.7587 157.499 79.3214 157.04C78.8947 156.571 78.3134 156.336 77.5774 156.336C76.82 156.336 76.2174 156.581 75.7694 157.072C75.3214 157.552 75.0974 158.251 75.0974 159.168V164H73.6574V159.04C73.6574 158.165 73.4387 157.499 73.0014 157.04C72.5747 156.571 71.9934 156.336 71.2574 156.336C70.5 156.336 69.8974 156.581 69.4494 157.072C69.0014 157.552 68.7774 158.251 68.7774 159.168V164H67.3214V155.232H68.7774V156.496C69.0654 156.037 69.4494 155.685 69.9294 155.44C70.42 155.195 70.9587 155.072 71.5454 155.072C72.2814 155.072 72.932 155.237 73.4974 155.568C74.0627 155.899 74.484 156.384 74.7614 157.024C75.0067 156.405 75.412 155.925 75.9774 155.584C76.5427 155.243 77.172 155.072 77.8654 155.072ZM84.5577 153.808C84.2804 153.808 84.0457 153.712 83.8537 153.52C83.6617 153.328 83.5657 153.093 83.5657 152.816C83.5657 152.539 83.6617 152.304 83.8537 152.112C84.0457 151.92 84.2804 151.824 84.5577 151.824C84.8244 151.824 85.0484 151.92 85.2297 152.112C85.4217 152.304 85.5177 152.539 85.5177 152.816C85.5177 153.093 85.4217 153.328 85.2297 153.52C85.0484 153.712 84.8244 153.808 84.5577 153.808ZM85.2617 155.232V164H83.8057V155.232H85.2617ZM92.0152 155.072C93.0819 155.072 93.9459 155.397 94.6072 156.048C95.2686 156.688 95.5992 157.616 95.5992 158.832V164H94.1592V159.04C94.1592 158.165 93.9406 157.499 93.5032 157.04C93.0659 156.571 92.4686 156.336 91.7112 156.336C90.9432 156.336 90.3299 156.576 89.8712 157.056C89.4232 157.536 89.1992 158.235 89.1992 159.152V164H87.7432V155.232H89.1992V156.48C89.4872 156.032 89.8766 155.685 90.3672 155.44C90.8686 155.195 91.4179 155.072 92.0152 155.072ZM97.4336 159.584C97.4336 158.688 97.6149 157.904 97.9776 157.232C98.3403 156.549 98.8363 156.021 99.4656 155.648C100.106 155.275 100.82 155.088 101.61 155.088C102.292 155.088 102.927 155.248 103.514 155.568C104.1 155.877 104.548 156.288 104.858 156.8V152.16H106.33V164H104.858V162.352C104.57 162.875 104.143 163.307 103.578 163.648C103.012 163.979 102.351 164.144 101.594 164.144C100.815 164.144 100.106 163.952 99.4656 163.568C98.8363 163.184 98.3403 162.645 97.9776 161.952C97.6149 161.259 97.4336 160.469 97.4336 159.584ZM104.858 159.6C104.858 158.939 104.724 158.363 104.458 157.872C104.191 157.381 103.828 157.008 103.37 156.752C102.922 156.485 102.426 156.352 101.882 156.352C101.338 156.352 100.842 156.48 100.394 156.736C99.9456 156.992 99.5883 157.365 99.3216 157.856C99.0549 158.347 98.9216 158.923 98.9216 159.584C98.9216 160.256 99.0549 160.843 99.3216 161.344C99.5883 161.835 99.9456 162.213 100.394 162.48C100.842 162.736 101.338 162.864 101.882 162.864C102.426 162.864 102.922 162.736 103.37 162.48C103.828 162.213 104.191 161.835 104.458 161.344C104.724 160.843 104.858 160.261 104.858 159.6ZM123.6 155.072C124.282 155.072 124.89 155.216 125.424 155.504C125.957 155.781 126.378 156.203 126.688 156.768C126.997 157.333 127.152 158.021 127.152 158.832V164H125.712V159.04C125.712 158.165 125.493 157.499 125.056 157.04C124.629 156.571 124.048 156.336 123.312 156.336C122.554 156.336 121.952 156.581 121.504 157.072C121.056 157.552 120.832 158.251 120.832 159.168V164H119.392V159.04C119.392 158.165 119.173 157.499 118.736 157.04C118.309 156.571 117.728 156.336 116.992 156.336C116.234 156.336 115.632 156.581 115.184 157.072C114.736 157.552 114.512 158.251 114.512 159.168V164H113.056V155.232H114.512V156.496C114.8 156.037 115.184 155.685 115.664 155.44C116.154 155.195 116.693 155.072 117.28 155.072C118.016 155.072 118.666 155.237 119.232 155.568C119.797 155.899 120.218 156.384 120.496 157.024C120.741 156.405 121.146 155.925 121.712 155.584C122.277 155.243 122.906 155.072 123.6 155.072ZM137.54 159.28C137.54 159.557 137.524 159.851 137.492 160.16H130.484C130.537 161.024 130.831 161.701 131.364 162.192C131.908 162.672 132.564 162.912 133.332 162.912C133.961 162.912 134.484 162.768 134.9 162.48C135.327 162.181 135.625 161.787 135.796 161.296H137.364C137.129 162.139 136.66 162.827 135.956 163.36C135.252 163.883 134.377 164.144 133.332 164.144C132.5 164.144 131.753 163.957 131.092 163.584C130.441 163.211 129.929 162.683 129.556 162C129.183 161.307 128.996 160.507 128.996 159.6C128.996 158.693 129.177 157.899 129.54 157.216C129.903 156.533 130.409 156.011 131.06 155.648C131.721 155.275 132.479 155.088 133.332 155.088C134.164 155.088 134.9 155.269 135.54 155.632C136.18 155.995 136.671 156.496 137.012 157.136C137.364 157.765 137.54 158.48 137.54 159.28ZM136.036 158.976C136.036 158.421 135.913 157.947 135.668 157.552C135.423 157.147 135.087 156.843 134.66 156.64C134.244 156.427 133.78 156.32 133.268 156.32C132.532 156.32 131.903 156.555 131.38 157.024C130.868 157.493 130.575 158.144 130.5 158.976H136.036ZM144.48 153.808C144.202 153.808 143.968 153.712 143.776 153.52C143.584 153.328 143.488 153.093 143.488 152.816C143.488 152.539 143.584 152.304 143.776 152.112C143.968 151.92 144.202 151.824 144.48 151.824C144.746 151.824 144.97 151.92 145.152 152.112C145.344 152.304 145.44 152.539 145.44 152.816C145.44 153.093 145.344 153.328 145.152 153.52C144.97 153.712 144.746 153.808 144.48 153.808ZM145.184 155.232V164H143.728V155.232H145.184ZM151.937 155.072C153.004 155.072 153.868 155.397 154.529 156.048C155.19 156.688 155.521 157.616 155.521 158.832V164H154.081V159.04C154.081 158.165 153.862 157.499 153.425 157.04C152.988 156.571 152.39 156.336 151.633 156.336C150.865 156.336 150.252 156.576 149.793 157.056C149.345 157.536 149.121 158.235 149.121 159.152V164H147.665V155.232H149.121V156.48C149.409 156.032 149.798 155.685 150.289 155.44C150.79 155.195 151.34 155.072 151.937 155.072ZM161.621 159.584C161.621 158.688 161.802 157.904 162.165 157.232C162.528 156.549 163.024 156.021 163.653 155.648C164.293 155.275 165.002 155.088 165.781 155.088C166.549 155.088 167.216 155.253 167.781 155.584C168.346 155.915 168.768 156.331 169.045 156.832V155.232H170.517V164H169.045V162.368C168.757 162.88 168.325 163.307 167.749 163.648C167.184 163.979 166.522 164.144 165.765 164.144C164.986 164.144 164.282 163.952 163.653 163.568C163.024 163.184 162.528 162.645 162.165 161.952C161.802 161.259 161.621 160.469 161.621 159.584ZM169.045 159.6C169.045 158.939 168.912 158.363 168.645 157.872C168.378 157.381 168.016 157.008 167.557 156.752C167.109 156.485 166.613 156.352 166.069 156.352C165.525 156.352 165.029 156.48 164.581 156.736C164.133 156.992 163.776 157.365 163.509 157.856C163.242 158.347 163.109 158.923 163.109 159.584C163.109 160.256 163.242 160.843 163.509 161.344C163.776 161.835 164.133 162.213 164.581 162.48C165.029 162.736 165.525 162.864 166.069 162.864C166.613 162.864 167.109 162.736 167.557 162.48C168.016 162.213 168.378 161.835 168.645 161.344C168.912 160.843 169.045 160.261 169.045 159.6ZM188.923 155.232L186.187 164H184.683L182.571 157.04L180.459 164H178.955L176.203 155.232H177.691L179.707 162.592L181.883 155.232H183.371L185.499 162.608L187.483 155.232H188.923ZM198.368 159.28C198.368 159.557 198.352 159.851 198.32 160.16H191.312C191.366 161.024 191.659 161.701 192.192 162.192C192.736 162.672 193.392 162.912 194.16 162.912C194.79 162.912 195.312 162.768 195.728 162.48C196.155 162.181 196.454 161.787 196.624 161.296H198.192C197.958 162.139 197.488 162.827 196.784 163.36C196.08 163.883 195.206 164.144 194.16 164.144C193.328 164.144 192.582 163.957 191.92 163.584C191.27 163.211 190.758 162.683 190.384 162C190.011 161.307 189.824 160.507 189.824 159.6C189.824 158.693 190.006 157.899 190.368 157.216C190.731 156.533 191.238 156.011 191.888 155.648C192.55 155.275 193.307 155.088 194.16 155.088C194.992 155.088 195.728 155.269 196.368 155.632C197.008 155.995 197.499 156.496 197.84 157.136C198.192 157.765 198.368 158.48 198.368 159.28ZM196.864 158.976C196.864 158.421 196.742 157.947 196.496 157.552C196.251 157.147 195.915 156.843 195.488 156.64C195.072 156.427 194.608 156.32 194.096 156.32C193.36 156.32 192.731 156.555 192.208 157.024C191.696 157.493 191.403 158.144 191.328 158.976H196.864ZM208.29 159.28C208.29 159.557 208.274 159.851 208.242 160.16H201.234C201.287 161.024 201.581 161.701 202.114 162.192C202.658 162.672 203.314 162.912 204.082 162.912C204.711 162.912 205.234 162.768 205.65 162.48C206.077 162.181 206.375 161.787 206.546 161.296H208.114C207.879 162.139 207.41 162.827 206.706 163.36C206.002 163.883 205.127 164.144 204.082 164.144C203.25 164.144 202.503 163.957 201.842 163.584C201.191 163.211 200.679 162.683 200.306 162C199.933 161.307 199.746 160.507 199.746 159.6C199.746 158.693 199.927 157.899 200.29 157.216C200.653 156.533 201.159 156.011 201.81 155.648C202.471 155.275 203.229 155.088 204.082 155.088C204.914 155.088 205.65 155.269 206.29 155.632C206.93 155.995 207.421 156.496 207.762 157.136C208.114 157.765 208.29 158.48 208.29 159.28ZM206.786 158.976C206.786 158.421 206.663 157.947 206.418 157.552C206.173 157.147 205.837 156.843 205.41 156.64C204.994 156.427 204.53 156.32 204.018 156.32C203.282 156.32 202.653 156.555 202.13 157.024C201.618 157.493 201.325 158.144 201.25 158.976H206.786ZM215.108 164L211.668 160.128V164H210.212V152.16H211.668V159.12L215.044 155.232H217.076L212.948 159.6L217.092 164H215.108Z" fill="#616875"/>
</g>
<defs>
<filter id="filter0_d_146_18188" x="16" y="12" width="238.063" height="240" filterUnits="userSpaceOnUse" color-interpolation-filters="sRGB">
<feFlood flood-opacity="0" result="BackgroundImageFix"/>
<feColorMatrix in="SourceAlpha" type="matrix" values="0 0 0 0 0 0 0 0 0 0 0 0 0 0 0 0 0 0 127 0" result="hardAlpha"/>
<feOffset dy="4"/>
<feGaussianBlur stdDeviation="2"/>
<feComposite in2="hardAlpha" operator="out"/>
<feColorMatrix type="matrix" values="0 0 0 0 0 0 0 0 0 0 0 0 0 0 0 0 0 0 0.25 0"/>
<feBlend mode="normal" in2="BackgroundImageFix" result="effect1_dropShadow_146_18188"/>
<feBlend mode="normal" in="SourceGraphic" in2="effect1_dropShadow_146_18188" result="shape"/>
</filter>
<filter id="filter1_d_146_18188" x="0" y="0" width="270.063" height="272" filterUnits="userSpaceOnUse" color-interpolation-filters="sRGB">
<feFlood flood-opacity="0" result="BackgroundImageFix"/>
<feColorMatrix in="SourceAlpha" type="matrix" values="0 0 0 0 0 0 0 0 0 0 0 0 0 0 0 0 0 0 127 0" result="hardAlpha"/>
<feOffset dy="8"/>
<feGaussianBlur stdDeviation="10"/>
<feComposite in2="hardAlpha" operator="out"/>
<feColorMatrix type="matrix" values="0 0 0 0 0.529412 0 0 0 0 0.607843 0 0 0 0 0.764706 0 0 0 0.5 0"/>
<feBlend mode="normal" in2="BackgroundImageFix" result="effect1_dropShadow_146_18188"/>
<feBlend mode="normal" in="SourceGraphic" in2="effect1_dropShadow_146_18188" result="shape"/>
</filter>
</defs>
</svg>
