<svg width="19" height="19" viewBox="0 0 19 19" fill="none" xmlns="http://www.w3.org/2000/svg">
<mask id="path-1-inside-1_106_18682" fill="white">
<path d="M7.55191 1.4165C8.86505 1.41469 10.1492 1.80255 11.2418 2.53096C12.3344 3.25937 13.1863 4.29558 13.6896 5.50842C14.193 6.72126 14.3252 8.05617 14.0694 9.34417C13.8137 10.6322 13.1815 11.8153 12.253 12.7438C11.3245 13.6724 10.1413 14.3045 8.85333 14.5603C7.56533 14.816 6.23042 14.6838 5.01758 14.1805C3.80474 13.6771 2.76852 12.8252 2.04011 11.7326C1.3117 10.64 0.92385 9.3559 0.925663 8.04276C0.9305 6.28686 1.63017 4.60424 2.87179 3.36262C4.1134 2.12101 5.79601 1.42134 7.55191 1.4165ZM7.55191 0.500006C6.05789 0.500007 4.59745 0.943138 3.35535 1.77336C2.11324 2.60358 1.14529 3.78357 0.573978 5.16403C0.0026621 6.5445 -0.146352 8.06342 0.145784 9.52859C0.43792 10.9938 1.15808 12.3394 2.21515 13.3952C3.27222 14.451 4.6187 15.1695 6.08423 15.4598C7.54976 15.7502 9.06849 15.5993 10.4483 15.0263C11.828 14.4533 13.0068 13.484 13.8355 12.2408C14.6643 10.9977 15.1056 9.53678 15.1038 8.04276C15.1038 7.05146 14.9084 6.06989 14.5288 5.15416C14.1492 4.23843 13.5927 3.40652 12.8914 2.70599C12.19 2.00546 11.3574 1.45005 10.4412 1.07153C9.52502 0.693009 8.54321 0.498801 7.55191 0.500006Z"/>
</mask>
<path d="M7.55191 1.4165C8.86505 1.41469 10.1492 1.80255 11.2418 2.53096C12.3344 3.25937 13.1863 4.29558 13.6896 5.50842C14.193 6.72126 14.3252 8.05617 14.0694 9.34417C13.8137 10.6322 13.1815 11.8153 12.253 12.7438C11.3245 13.6724 10.1413 14.3045 8.85333 14.5603C7.56533 14.816 6.23042 14.6838 5.01758 14.1805C3.80474 13.6771 2.76852 12.8252 2.04011 11.7326C1.3117 10.64 0.92385 9.3559 0.925663 8.04276C0.9305 6.28686 1.63017 4.60424 2.87179 3.36262C4.1134 2.12101 5.79601 1.42134 7.55191 1.4165ZM7.55191 0.500006C6.05789 0.500007 4.59745 0.943138 3.35535 1.77336C2.11324 2.60358 1.14529 3.78357 0.573978 5.16403C0.0026621 6.5445 -0.146352 8.06342 0.145784 9.52859C0.43792 10.9938 1.15808 12.3394 2.21515 13.3952C3.27222 14.451 4.6187 15.1695 6.08423 15.4598C7.54976 15.7502 9.06849 15.5993 10.4483 15.0263C11.828 14.4533 13.0068 13.484 13.8355 12.2408C14.6643 10.9977 15.1056 9.53678 15.1038 8.04276C15.1038 7.05146 14.9084 6.06989 14.5288 5.15416C14.1492 4.23843 13.5927 3.40652 12.8914 2.70599C12.19 2.00546 11.3574 1.45005 10.4412 1.07153C9.52502 0.693009 8.54321 0.498801 7.55191 0.500006Z" fill="#13115B"/>
<path d="M0.925663 8.04276L-0.0743346 8.04001L-0.0743365 8.04138L0.925663 8.04276ZM15.1038 8.04276L14.1038 8.04276L14.1038 8.04397L15.1038 8.04276ZM7.55329 2.4165C8.66853 2.41496 9.75916 2.74437 10.6871 3.363L11.7965 1.69891C10.5393 0.860729 9.06157 0.414415 7.55053 0.4165L7.55329 2.4165ZM10.6871 3.363C11.615 3.98164 12.3385 4.86168 12.766 5.89174L14.6132 5.1251C14.034 3.72948 13.0538 2.5371 11.7965 1.69891L10.6871 3.363ZM12.766 5.89174C13.1935 6.92179 13.3058 8.05553 13.0886 9.14941L15.0503 9.53892C15.3446 8.05681 15.1925 6.52072 14.6132 5.1251L12.766 5.89174ZM13.0886 9.14941C12.8714 10.2433 12.3345 11.2481 11.5459 12.0367L12.9601 13.451C14.0286 12.3825 14.756 11.021 15.0503 9.53892L13.0886 9.14941ZM11.5459 12.0367C10.7573 12.8253 9.75246 13.3622 8.65858 13.5794L9.04808 15.5411C10.5302 15.2469 11.8917 14.5194 12.9601 13.451L11.5459 12.0367ZM8.65858 13.5794C7.56469 13.7966 6.43096 13.6844 5.4009 13.2569L4.63426 15.1041C6.02988 15.6833 7.56597 15.8354 9.04808 15.5411L8.65858 13.5794ZM5.4009 13.2569C4.37085 12.8294 3.49079 12.1058 2.87215 11.1779L1.20806 12.2873C2.04625 13.5446 3.23864 14.5249 4.63426 15.1041L5.4009 13.2569ZM2.87215 11.1779C2.25352 10.25 1.92412 9.15938 1.92566 8.04414L-0.0743365 8.04138C-0.0764221 9.55242 0.369877 11.0301 1.20806 12.2873L2.87215 11.1779ZM1.92566 8.04552C1.92977 6.55387 2.52414 5.12448 3.57889 4.06973L2.16468 2.65552C0.736198 4.084 -0.0687684 6.01985 -0.0743337 8.04001L1.92566 8.04552ZM3.57889 4.06973C4.63365 3.01498 6.06302 2.4206 7.55467 2.4165L7.54916 0.416503C5.52899 0.422069 3.59316 1.22704 2.16468 2.65552L3.57889 4.06973ZM7.55191 -0.499994C5.86007 -0.499993 4.20623 0.00181457 2.79965 0.941973L3.91104 2.60474C4.98867 1.88446 6.25572 1.50001 7.55191 1.50001L7.55191 -0.499994ZM2.79965 0.941973C1.39307 1.88213 0.296951 3.21837 -0.350018 4.78163L1.49797 5.54644C1.99364 4.34877 2.83341 3.32503 3.91104 2.60474L2.79965 0.941973ZM-0.350018 4.78163C-0.996986 6.34489 -1.16573 8.06494 -0.834912 9.72413L1.12648 9.33306C0.873028 8.06189 1.00231 6.7441 1.49797 5.54644L-0.350018 4.78163ZM-0.834912 9.72413C-0.504093 11.3833 0.311432 12.9071 1.50848 14.1027L2.92183 12.6876C2.00473 11.7716 1.37993 10.6042 1.12648 9.33306L-0.834912 9.72413ZM1.50848 14.1027C2.70552 15.2983 4.23029 16.112 5.88988 16.4408L6.27857 14.4789C5.0071 14.227 3.83892 13.6036 2.92183 12.6876L1.50848 14.1027ZM5.88988 16.4408C7.54947 16.7696 9.26931 16.5987 10.8318 15.9499L10.0647 14.1028C8.86767 14.5999 7.55005 14.7308 6.27857 14.4789L5.88988 16.4408ZM10.8318 15.9499C12.3943 15.301 13.7292 14.2033 14.6676 12.7955L13.0035 11.6862C12.2845 12.7647 11.2618 13.6057 10.0647 14.1028L10.8318 15.9499ZM14.6676 12.7955C15.6061 11.3878 16.1059 9.7334 16.1038 8.04155L14.1038 8.04397C14.1054 9.34015 13.7225 10.6077 13.0035 11.6862L14.6676 12.7955ZM16.1038 8.04276C16.1038 6.92004 15.8825 5.80833 15.4526 4.7712L13.605 5.53712C13.9343 6.33144 14.1038 7.18288 14.1038 8.04276L16.1038 8.04276ZM15.4526 4.7712C15.0226 3.73407 14.3924 2.79186 13.598 1.99845L12.1847 3.41353C12.7931 4.02118 13.2757 4.7428 13.605 5.53712L15.4526 4.7712ZM13.598 1.99845C12.8037 1.20506 11.8607 0.576004 10.8231 0.1473L10.0594 1.99576C10.8541 2.32409 11.5763 2.80587 12.1847 3.41353L13.598 1.99845ZM10.8231 0.1473C9.7854 -0.281403 8.67342 -0.501358 7.5507 -0.499994L7.55313 1.5C8.413 1.49896 9.26465 1.66742 10.0594 1.99576L10.8231 0.1473Z" fill="#13115B" mask="url(#path-1-inside-1_106_18682)"/>
<path d="M12.3721 12.8633L17.9993 18.4997" stroke="#13115B"/>
<path d="M4.30811 7.83203V10.5815" stroke="#13115B"/>
<path d="M7.51611 5.08203V10.581" stroke="#13115B"/>
<path d="M10.7234 6V10.5825" stroke="#13115B"/>
</svg>
