<svg width="19" height="19" viewBox="0 0 19 19" fill="none" xmlns="http://www.w3.org/2000/svg">
<path d="M8.96814 2.07422C10.1699 2.07422 11.3545 2.35807 12.4253 2.90257C13.496 3.44707 14.4224 4.23675 15.1288 5.20705C15.8351 6.17735 16.3014 7.30072 16.4893 8.48531C16.6773 9.66991 16.5817 10.8821 16.2104 12.0227C15.839 13.1634 15.2025 14.2002 14.3527 15.0482C13.503 15.8963 12.4642 16.5316 11.3213 16.9022C10.1784 17.2729 8.96383 17.3683 7.7769 17.1806C6.58998 16.993 5.4644 16.5277 4.49219 15.8227L5.0293 15.0849C5.88485 15.7053 6.87536 16.1148 7.91985 16.2799C8.96435 16.445 10.0332 16.361 11.0389 16.0349C12.0447 15.7087 12.9588 15.1497 13.7066 14.4033C14.4544 13.657 15.0145 12.7447 15.3413 11.7409C15.6681 10.7371 15.7522 9.67042 15.5868 8.62798C15.4214 7.58554 15.0111 6.59698 14.3895 5.74311C13.7679 4.88925 12.9527 4.19432 12.0104 3.71517C11.0682 3.23601 10.0257 2.98622 8.96814 2.98622V2.07422Z" fill="#46C793"/>
<path d="M8.96814 2.07031C10.1699 2.07031 11.3545 2.35417 12.4253 2.89866C13.496 3.44316 14.4224 4.23284 15.1288 5.20314C15.8351 6.17345 16.3014 7.29682 16.4893 8.48141C16.6773 9.666 16.5817 10.8782 16.2104 12.0188C15.839 13.1595 15.2025 14.1962 14.3527 15.0443C13.503 15.8924 12.4642 16.5277 11.3213 16.8983C10.1784 17.269 8.96383 17.3644 7.7769 17.1767C6.58998 16.9891 5.4644 16.5238 4.49219 15.8188L5.0293 15.081C5.88485 15.7014 6.87536 16.1109 7.91985 16.276C8.96435 16.4411 10.0332 16.3571 11.0389 16.031C12.0447 15.7048 12.9588 15.1457 13.7066 14.3994C14.4544 13.6531 15.0145 12.7408 15.3413 11.737C15.6681 10.7332 15.7522 9.66652 15.5868 8.62408C15.4214 7.58164 15.0111 6.59307 14.3895 5.7392C13.7679 4.88534 12.9527 4.19042 12.0104 3.71126C11.0682 3.2321 10.0257 2.98231 8.96814 2.98231V2.07031Z" fill="#46C793"/>
<path d="M9.09329 0C10.8566 2.08925e-08 12.5856 0.484494 14.089 1.39992C15.5925 2.31534 16.8119 3.62604 17.6124 5.18709C18.413 6.74814 18.7634 8.49875 18.6251 10.2454C18.4867 11.992 17.865 13.6665 16.8285 15.084C15.7921 16.5014 14.3813 17.6064 12.7522 18.2769C11.1231 18.9473 9.33918 19.1571 7.59758 18.883C5.85598 18.609 4.22458 17.8617 2.88375 16.7239C1.54292 15.586 0.544892 14.1019 0 12.4357L1.27306 12.0247C1.74167 13.4577 2.59998 14.734 3.75309 15.7125C4.9062 16.6911 6.30921 17.3337 7.80698 17.5694C9.30476 17.8051 10.839 17.6247 12.24 17.0481C13.641 16.4715 14.8542 15.5212 15.7456 14.3022C16.6369 13.0832 17.1716 11.6431 17.2906 10.141C17.4096 8.63892 17.1082 7.1334 16.4197 5.7909C15.7313 4.44839 14.6826 3.32119 13.3896 2.53393C12.0966 1.74666 10.6097 1.33 9.09329 1.33V0Z" fill="#52DE97"/>
</svg>
