<svg width="20" height="18" viewBox="0 0 20 18" fill="none" xmlns="http://www.w3.org/2000/svg">
<path fill-rule="evenodd" clip-rule="evenodd" d="M8.49564 14.5372C12.6515 14.5372 16.0204 11.3951 16.0204 7.51923C16.0204 3.64332 12.6515 0.501282 8.49564 0.501282C4.3398 0.501282 0.970835 3.64332 0.970835 7.51923C0.970835 11.3951 4.3398 14.5372 8.49564 14.5372ZM8.49564 15.0385C12.9483 15.0385 16.5579 11.672 16.5579 7.51923C16.5579 3.36647 12.9483 0 8.49564 0C4.04296 0 0.43335 3.36647 0.43335 7.51923C0.43335 11.672 4.04296 15.0385 8.49564 15.0385Z" fill="#394253"/>
<path fill-rule="evenodd" clip-rule="evenodd" d="M14.1077 12.4219L19.361 17.3213L19.0058 17.6526L13.7524 12.7532L14.1077 12.4219Z" fill="#394253"/>
<path opacity="0.2" d="M14.4541 7.51863C14.4541 10.5881 11.7861 13.0763 8.49497 13.0763C5.20386 13.0763 2.53589 10.5881 2.53589 7.51863C2.53589 4.4492 5.20386 1.96094 8.49497 1.96094C11.7861 1.96094 14.4541 4.4492 14.4541 7.51863ZM3.42975 7.51863C3.42975 10.1276 5.69753 12.2427 8.49497 12.2427C11.2924 12.2427 13.5602 10.1276 13.5602 7.51863C13.5602 4.90962 11.2924 2.79459 8.49497 2.79459C5.69753 2.79459 3.42975 4.90962 3.42975 7.51863Z" fill="#394253"/>
<path d="M8.14404 1.96064C8.97263 1.96064 9.79311 2.09594 10.5586 2.35881C11.3241 2.62168 12.0197 3.00697 12.6056 3.49269C13.1915 3.97842 13.6563 4.55505 13.9734 5.18968C14.2905 5.8243 14.4537 6.50449 14.4537 7.19141L13.5072 7.19141C13.5072 6.60753 13.3685 6.02937 13.099 5.48994C12.8294 4.9505 12.4344 4.46036 11.9364 4.0475C11.4384 3.63464 10.8471 3.30714 10.1964 3.0837C9.54575 2.86026 8.84834 2.74525 8.14404 2.74525L8.14404 1.96064Z" fill="#3C1EFF"/>
</svg>
