<svg width="24" height="24" viewBox="0 0 24 24" fill="none" xmlns="http://www.w3.org/2000/svg">
<mask id="path-1-inside-1_146_19871" fill="white">
<path d="M24 14L11.9999 0L0 14H4V24H20V14H24Z"/>
</mask>
<path d="M11.9999 0L12.7592 -0.650795L11.9999 -1.53659L11.2406 -0.650788L11.9999 0ZM24 14V15H26.1742L24.7593 13.3492L24 14ZM0 14L-0.759259 13.3492L-2.17421 15H0V14ZM20 14V13H19V14H20ZM20 24V25H21V24H20ZM4 24H3V25H4V24ZM4 14H5V13H4V14ZM11.2406 0.650795L23.2407 14.6508L24.7593 13.3492L12.7592 -0.650795L11.2406 0.650795ZM0.759259 14.6508L12.7592 0.650788L11.2406 -0.650788L-0.759259 13.3492L0.759259 14.6508ZM24 13H20V15H24V13ZM19 14V24H21V14H19ZM20 23H4V25H20V23ZM0 15H4V13H0V15ZM5 24V14H3V24H5Z" fill="#52DE97" mask="url(#path-1-inside-1_146_19871)"/>
</svg>
