<svg width="623" height="236" viewBox="0 0 623 236" fill="none" xmlns="http://www.w3.org/2000/svg">
<g filter="url(#filter0_d_125_17513)">
<rect x="6" y="4" width="611" height="224" rx="20" fill="#F9F9F9"/>
<path d="M66.78 40.23C67.54 40.35 68.23 40.66 68.85 41.16C69.49 41.66 69.99 42.28 70.35 43.02C70.73 43.76 70.92 44.55 70.92 45.39C70.92 46.45 70.65 47.41 70.11 48.27C69.57 49.11 68.78 49.78 67.74 50.28C66.72 50.76 65.51 51 64.11 51H56.31V30.09H63.81C65.23 30.09 66.44 30.33 67.44 30.81C68.44 31.27 69.19 31.9 69.69 32.7C70.19 33.5 70.44 34.4 70.44 35.4C70.44 36.64 70.1 37.67 69.42 38.49C68.76 39.29 67.88 39.87 66.78 40.23ZM59.04 39.12H63.63C64.91 39.12 65.9 38.82 66.6 38.22C67.3 37.62 67.65 36.79 67.65 35.73C67.65 34.67 67.3 33.84 66.6 33.24C65.9 32.64 64.89 32.34 63.57 32.34H59.04V39.12ZM63.87 48.75C65.23 48.75 66.29 48.43 67.05 47.79C67.81 47.15 68.19 46.26 68.19 45.12C68.19 43.96 67.79 43.05 66.99 42.39C66.19 41.71 65.12 41.37 63.78 41.37H59.04V48.75H63.87ZM89.7084 42.15C89.7084 42.67 89.6784 43.22 89.6184 43.8H76.4784C76.5784 45.42 77.1284 46.69 78.1284 47.61C79.1484 48.51 80.3784 48.96 81.8184 48.96C82.9984 48.96 83.9784 48.69 84.7584 48.15C85.5584 47.59 86.1184 46.85 86.4384 45.93H89.3784C88.9384 47.51 88.0584 48.8 86.7384 49.8C85.4184 50.78 83.7784 51.27 81.8184 51.27C80.2584 51.27 78.8584 50.92 77.6184 50.22C76.3984 49.52 75.4384 48.53 74.7384 47.25C74.0384 45.95 73.6884 44.45 73.6884 42.75C73.6884 41.05 74.0284 39.56 74.7084 38.28C75.3884 37 76.3384 36.02 77.5584 35.34C78.7984 34.64 80.2184 34.29 81.8184 34.29C83.3784 34.29 84.7584 34.63 85.9584 35.31C87.1584 35.99 88.0784 36.93 88.7184 38.13C89.3784 39.31 89.7084 40.65 89.7084 42.15ZM86.8884 41.58C86.8884 40.54 86.6584 39.65 86.1984 38.91C85.7384 38.15 85.1084 37.58 84.3084 37.2C83.5284 36.8 82.6584 36.6 81.6984 36.6C80.3184 36.6 79.1384 37.04 78.1584 37.92C77.1984 38.8 76.6484 40.02 76.5084 41.58H86.8884ZM101.322 34.26C103.322 34.26 104.942 34.87 106.182 36.09C107.422 37.29 108.042 39.03 108.042 41.31V51H105.342V41.7C105.342 40.06 104.932 38.81 104.112 37.95C103.292 37.07 102.172 36.63 100.752 36.63C99.312 36.63 98.162 37.08 97.302 37.98C96.462 38.88 96.042 40.19 96.042 41.91V51H93.312V34.56H96.042V36.9C96.582 36.06 97.312 35.41 98.232 34.95C99.172 34.49 100.202 34.26 101.322 34.26ZM119.329 31.8V29.31H124.969V51H122.209V31.8H119.329ZM128.939 31.8V29.31H134.579V51H131.819V31.8H128.939Z" fill="#394253"/>
<path d="M55.78 106.26C56.2333 105.9 56.44 105.733 56.4 105.76C57.7067 104.68 58.7333 103.793 59.48 103.1C60.24 102.407 60.88 101.68 61.4 100.92C61.92 100.16 62.18 99.42 62.18 98.7C62.18 98.1533 62.0533 97.7267 61.8 97.42C61.5467 97.1133 61.1667 96.96 60.66 96.96C60.1533 96.96 59.7533 97.1533 59.46 97.54C59.18 97.9133 59.04 98.4467 59.04 99.14H55.74C55.7667 98.0067 56.0067 97.06 56.46 96.3C56.9267 95.54 57.5333 94.98 58.28 94.62C59.04 94.26 59.88 94.08 60.8 94.08C62.3867 94.08 63.58 94.4867 64.38 95.3C65.1933 96.1133 65.6 97.1733 65.6 98.48C65.6 99.9067 65.1133 101.233 64.14 102.46C63.1667 103.673 61.9267 104.86 60.42 106.02H65.82V108.8H55.78V106.26ZM71.3458 105.84L69.1258 111.58H66.9458L68.1058 105.84H71.3458ZM73.068 101.5C73.068 99.2067 73.508 97.4 74.388 96.08C75.2813 94.76 76.7146 94.1 78.688 94.1C80.6613 94.1 82.088 94.76 82.968 96.08C83.8613 97.4 84.308 99.2067 84.308 101.5C84.308 103.82 83.8613 105.64 82.968 106.96C82.088 108.28 80.6613 108.94 78.688 108.94C76.7146 108.94 75.2813 108.28 74.388 106.96C73.508 105.64 73.068 103.82 73.068 101.5ZM80.948 101.5C80.948 100.153 80.8013 99.12 80.508 98.4C80.2146 97.6667 79.608 97.3 78.688 97.3C77.768 97.3 77.1613 97.6667 76.868 98.4C76.5746 99.12 76.428 100.153 76.428 101.5C76.428 102.407 76.4813 103.16 76.588 103.76C76.6946 104.347 76.908 104.827 77.228 105.2C77.5613 105.56 78.048 105.74 78.688 105.74C79.328 105.74 79.808 105.56 80.128 105.2C80.4613 104.827 80.6813 104.347 80.788 103.76C80.8946 103.16 80.948 102.407 80.948 101.5ZM86.1148 101.5C86.1148 99.2067 86.5548 97.4 87.4348 96.08C88.3282 94.76 89.7615 94.1 91.7348 94.1C93.7082 94.1 95.1348 94.76 96.0148 96.08C96.9082 97.4 97.3548 99.2067 97.3548 101.5C97.3548 103.82 96.9082 105.64 96.0148 106.96C95.1348 108.28 93.7082 108.94 91.7348 108.94C89.7615 108.94 88.3282 108.28 87.4348 106.96C86.5548 105.64 86.1148 103.82 86.1148 101.5ZM93.9948 101.5C93.9948 100.153 93.8482 99.12 93.5548 98.4C93.2615 97.6667 92.6548 97.3 91.7348 97.3C90.8148 97.3 90.2082 97.6667 89.9148 98.4C89.6215 99.12 89.4748 100.153 89.4748 101.5C89.4748 102.407 89.5282 103.16 89.6348 103.76C89.7415 104.347 89.9548 104.827 90.2748 105.2C90.6082 105.56 91.0948 105.74 91.7348 105.74C92.3748 105.74 92.8548 105.56 93.1748 105.2C93.5082 104.827 93.7282 104.347 93.8348 103.76C93.9415 103.16 93.9948 102.407 93.9948 101.5ZM108.482 96.96L103.462 109H99.9617L105.042 97.34H98.8217V94.42H108.482V96.96Z" fill="#394253"/>
<path d="M64.375 144H63.01L57.52 135.675V144H56.155V133.53H57.52L63.01 141.84V133.53H64.375V144ZM70.2869 144.135C69.5169 144.135 68.8169 143.96 68.1869 143.61C67.5669 143.26 67.0769 142.765 66.7169 142.125C66.3669 141.475 66.1919 140.725 66.1919 139.875C66.1919 139.035 66.3719 138.295 66.7319 137.655C67.1019 137.005 67.6019 136.51 68.2319 136.17C68.8619 135.82 69.5669 135.645 70.3469 135.645C71.1269 135.645 71.8319 135.82 72.4619 136.17C73.0919 136.51 73.5869 137 73.9469 137.64C74.3169 138.28 74.5019 139.025 74.5019 139.875C74.5019 140.725 74.3119 141.475 73.9319 142.125C73.5619 142.765 73.0569 143.26 72.4169 143.61C71.7769 143.96 71.0669 144.135 70.2869 144.135ZM70.2869 142.935C70.7769 142.935 71.2369 142.82 71.6669 142.59C72.0969 142.36 72.4419 142.015 72.7019 141.555C72.9719 141.095 73.1069 140.535 73.1069 139.875C73.1069 139.215 72.9769 138.655 72.7169 138.195C72.4569 137.735 72.1169 137.395 71.6969 137.175C71.2769 136.945 70.8219 136.83 70.3319 136.83C69.8319 136.83 69.3719 136.945 68.9519 137.175C68.5419 137.395 68.2119 137.735 67.9619 138.195C67.7119 138.655 67.5869 139.215 67.5869 139.875C67.5869 140.545 67.7069 141.11 67.9469 141.57C68.1969 142.03 68.5269 142.375 68.9369 142.605C69.3469 142.825 69.7969 142.935 70.2869 142.935ZM76.7316 144.09C76.4716 144.09 76.2516 144 76.0716 143.82C75.8916 143.64 75.8016 143.42 75.8016 143.16C75.8016 142.9 75.8916 142.68 76.0716 142.5C76.2516 142.32 76.4716 142.23 76.7316 142.23C76.9816 142.23 77.1916 142.32 77.3616 142.5C77.5416 142.68 77.6316 142.9 77.6316 143.16C77.6316 143.42 77.5416 143.64 77.3616 143.82C77.1916 144 76.9816 144.09 76.7316 144.09ZM87.03 144.135C86.26 144.135 85.56 143.96 84.93 143.61C84.31 143.26 83.82 142.765 83.46 142.125C83.11 141.475 82.935 140.725 82.935 139.875C82.935 139.035 83.115 138.295 83.475 137.655C83.845 137.005 84.345 136.51 84.975 136.17C85.605 135.82 86.31 135.645 87.09 135.645C87.87 135.645 88.575 135.82 89.205 136.17C89.835 136.51 90.33 137 90.69 137.64C91.06 138.28 91.245 139.025 91.245 139.875C91.245 140.725 91.055 141.475 90.675 142.125C90.305 142.765 89.8 143.26 89.16 143.61C88.52 143.96 87.81 144.135 87.03 144.135ZM87.03 142.935C87.52 142.935 87.98 142.82 88.41 142.59C88.84 142.36 89.185 142.015 89.445 141.555C89.715 141.095 89.85 140.535 89.85 139.875C89.85 139.215 89.72 138.655 89.46 138.195C89.2 137.735 88.86 137.395 88.44 137.175C88.02 136.945 87.565 136.83 87.075 136.83C86.575 136.83 86.115 136.945 85.695 137.175C85.285 137.395 84.955 137.735 84.705 138.195C84.455 138.655 84.33 139.215 84.33 139.875C84.33 140.545 84.45 141.11 84.69 141.57C84.94 142.03 85.27 142.375 85.68 142.605C86.09 142.825 86.54 142.935 87.03 142.935ZM96.3848 136.905H94.6598V144H93.2948V136.905H92.2298V135.78H93.2948V135.195C93.2948 134.275 93.5298 133.605 93.9998 133.185C94.4798 132.755 95.2448 132.54 96.2948 132.54V133.68C95.6948 133.68 95.2698 133.8 95.0198 134.04C94.7798 134.27 94.6598 134.655 94.6598 135.195V135.78H96.3848V136.905ZM101.465 139.875C101.465 139.025 101.635 138.285 101.975 137.655C102.315 137.015 102.785 136.52 103.385 136.17C103.995 135.82 104.69 135.645 105.47 135.645C106.48 135.645 107.31 135.89 107.96 136.38C108.62 136.87 109.055 137.55 109.265 138.42H107.795C107.655 137.92 107.38 137.525 106.97 137.235C106.57 136.945 106.07 136.8 105.47 136.8C104.69 136.8 104.06 137.07 103.58 137.61C103.1 138.14 102.86 138.895 102.86 139.875C102.86 140.865 103.1 141.63 103.58 142.17C104.06 142.71 104.69 142.98 105.47 142.98C106.07 142.98 106.57 142.84 106.97 142.56C107.37 142.28 107.645 141.88 107.795 141.36H109.265C109.045 142.2 108.605 142.875 107.945 143.385C107.285 143.885 106.46 144.135 105.47 144.135C104.69 144.135 103.995 143.96 103.385 143.61C102.785 143.26 102.315 142.765 101.975 142.125C101.635 141.485 101.465 140.735 101.465 139.875ZM112.452 132.9V144H111.087V132.9H112.452ZM122.068 135.78V144H120.703V142.785C120.443 143.205 120.078 143.535 119.608 143.775C119.148 144.005 118.638 144.12 118.078 144.12C117.438 144.12 116.863 143.99 116.353 143.73C115.843 143.46 115.438 143.06 115.138 142.53C114.848 142 114.703 141.355 114.703 140.595V135.78H116.053V140.415C116.053 141.225 116.258 141.85 116.668 142.29C117.078 142.72 117.638 142.935 118.348 142.935C119.078 142.935 119.653 142.71 120.073 142.26C120.493 141.81 120.703 141.155 120.703 140.295V135.78H122.068ZM127.283 144.135C126.653 144.135 126.088 144.03 125.588 143.82C125.088 143.6 124.693 143.3 124.403 142.92C124.113 142.53 123.953 142.085 123.923 141.585H125.333C125.373 141.995 125.563 142.33 125.903 142.59C126.253 142.85 126.708 142.98 127.268 142.98C127.788 142.98 128.198 142.865 128.498 142.635C128.798 142.405 128.948 142.115 128.948 141.765C128.948 141.405 128.788 141.14 128.468 140.97C128.148 140.79 127.653 140.615 126.983 140.445C126.373 140.285 125.873 140.125 125.483 139.965C125.103 139.795 124.773 139.55 124.493 139.23C124.223 138.9 124.088 138.47 124.088 137.94C124.088 137.52 124.213 137.135 124.463 136.785C124.713 136.435 125.068 136.16 125.528 135.96C125.988 135.75 126.513 135.645 127.103 135.645C128.013 135.645 128.748 135.875 129.308 136.335C129.868 136.795 130.168 137.425 130.208 138.225H128.843C128.813 137.795 128.638 137.45 128.318 137.19C128.008 136.93 127.588 136.8 127.058 136.8C126.568 136.8 126.178 136.905 125.888 137.115C125.598 137.325 125.453 137.6 125.453 137.94C125.453 138.21 125.538 138.435 125.708 138.615C125.888 138.785 126.108 138.925 126.368 139.035C126.638 139.135 127.008 139.25 127.478 139.38C128.068 139.54 128.548 139.7 128.918 139.86C129.288 140.01 129.603 140.24 129.863 140.55C130.133 140.86 130.273 141.265 130.283 141.765C130.283 142.215 130.158 142.62 129.908 142.98C129.658 143.34 129.303 143.625 128.843 143.835C128.393 144.035 127.873 144.135 127.283 144.135ZM133.875 136.905V141.75C133.875 142.15 133.96 142.435 134.13 142.605C134.3 142.765 134.595 142.845 135.015 142.845H136.02V144H134.79C134.03 144 133.46 143.825 133.08 143.475C132.7 143.125 132.51 142.55 132.51 141.75V136.905H131.445V135.78H132.51V133.71H133.875V135.78H136.02V136.905H133.875ZM145.174 139.575C145.174 139.835 145.159 140.11 145.129 140.4H138.559C138.609 141.21 138.884 141.845 139.384 142.305C139.894 142.755 140.509 142.98 141.229 142.98C141.819 142.98 142.309 142.845 142.699 142.575C143.099 142.295 143.379 141.925 143.539 141.465H145.009C144.789 142.255 144.349 142.9 143.689 143.4C143.029 143.89 142.209 144.135 141.229 144.135C140.449 144.135 139.749 143.96 139.129 143.61C138.519 143.26 138.039 142.765 137.689 142.125C137.339 141.475 137.164 140.725 137.164 139.875C137.164 139.025 137.334 138.28 137.674 137.64C138.014 137 138.489 136.51 139.099 136.17C139.719 135.82 140.429 135.645 141.229 135.645C142.009 135.645 142.699 135.815 143.299 136.155C143.899 136.495 144.359 136.965 144.679 137.565C145.009 138.155 145.174 138.825 145.174 139.575ZM143.764 139.29C143.764 138.77 143.649 138.325 143.419 137.955C143.189 137.575 142.874 137.29 142.474 137.1C142.084 136.9 141.649 136.8 141.169 136.8C140.479 136.8 139.889 137.02 139.399 137.46C138.919 137.9 138.644 138.51 138.574 139.29H143.764ZM148.34 137.115C148.58 136.645 148.92 136.28 149.36 136.02C149.81 135.76 150.355 135.63 150.995 135.63V137.04H150.635C149.105 137.04 148.34 137.87 148.34 139.53V144H146.975V135.78H148.34V137.115ZM155.481 144.135C154.851 144.135 154.286 144.03 153.786 143.82C153.286 143.6 152.891 143.3 152.601 142.92C152.311 142.53 152.151 142.085 152.121 141.585H153.531C153.571 141.995 153.761 142.33 154.101 142.59C154.451 142.85 154.906 142.98 155.466 142.98C155.986 142.98 156.396 142.865 156.696 142.635C156.996 142.405 157.146 142.115 157.146 141.765C157.146 141.405 156.986 141.14 156.666 140.97C156.346 140.79 155.851 140.615 155.181 140.445C154.571 140.285 154.071 140.125 153.681 139.965C153.301 139.795 152.971 139.55 152.691 139.23C152.421 138.9 152.286 138.47 152.286 137.94C152.286 137.52 152.411 137.135 152.661 136.785C152.911 136.435 153.266 136.16 153.726 135.96C154.186 135.75 154.711 135.645 155.301 135.645C156.211 135.645 156.946 135.875 157.506 136.335C158.066 136.795 158.366 137.425 158.406 138.225H157.041C157.011 137.795 156.836 137.45 156.516 137.19C156.206 136.93 155.786 136.8 155.256 136.8C154.766 136.8 154.376 136.905 154.086 137.115C153.796 137.325 153.651 137.6 153.651 137.94C153.651 138.21 153.736 138.435 153.906 138.615C154.086 138.785 154.306 138.925 154.566 139.035C154.836 139.135 155.206 139.25 155.676 139.38C156.266 139.54 156.746 139.7 157.116 139.86C157.486 140.01 157.801 140.24 158.061 140.55C158.331 140.86 158.471 141.265 158.481 141.765C158.481 142.215 158.356 142.62 158.106 142.98C157.856 143.34 157.501 143.625 157.041 143.835C156.591 144.035 156.071 144.135 155.481 144.135Z" fill="#394253" fill-opacity="0.8"/>
<path d="M66.18 157.38H59.94V160.14C60.2067 159.847 60.58 159.607 61.06 159.42C61.54 159.233 62.06 159.14 62.62 159.14C63.62 159.14 64.4467 159.367 65.1 159.82C65.7667 160.273 66.2533 160.86 66.56 161.58C66.8667 162.3 67.02 163.08 67.02 163.92C67.02 165.48 66.58 166.72 65.7 167.64C64.82 168.547 63.58 169 61.98 169C60.9133 169 59.9867 168.82 59.2 168.46C58.4133 168.087 57.8067 167.573 57.38 166.92C56.9533 166.267 56.72 165.513 56.68 164.66H60.02C60.1 165.073 60.2933 165.42 60.6 165.7C60.9067 165.967 61.3267 166.1 61.86 166.1C62.4867 166.1 62.9533 165.9 63.26 165.5C63.5667 165.1 63.72 164.567 63.72 163.9C63.72 163.247 63.56 162.747 63.24 162.4C62.92 162.053 62.4533 161.88 61.84 161.88C61.3867 161.88 61.0133 161.993 60.72 162.22C60.4267 162.433 60.2333 162.72 60.14 163.08H56.84V154.38H66.18V157.38Z" fill="#394253"/>
<path d="M64.375 85H63.01L57.52 76.675V85H56.155V74.53H57.52L63.01 82.84V74.53H64.375V85ZM70.2869 85.135C69.5169 85.135 68.8169 84.96 68.1869 84.61C67.5669 84.26 67.0769 83.765 66.7169 83.125C66.3669 82.475 66.1919 81.725 66.1919 80.875C66.1919 80.035 66.3719 79.295 66.7319 78.655C67.1019 78.005 67.6019 77.51 68.2319 77.17C68.8619 76.82 69.5669 76.645 70.3469 76.645C71.1269 76.645 71.8319 76.82 72.4619 77.17C73.0919 77.51 73.5869 78 73.9469 78.64C74.3169 79.28 74.5019 80.025 74.5019 80.875C74.5019 81.725 74.3119 82.475 73.9319 83.125C73.5619 83.765 73.0569 84.26 72.4169 84.61C71.7769 84.96 71.0669 85.135 70.2869 85.135ZM70.2869 83.935C70.7769 83.935 71.2369 83.82 71.6669 83.59C72.0969 83.36 72.4419 83.015 72.7019 82.555C72.9719 82.095 73.1069 81.535 73.1069 80.875C73.1069 80.215 72.9769 79.655 72.7169 79.195C72.4569 78.735 72.1169 78.395 71.6969 78.175C71.2769 77.945 70.8219 77.83 70.3319 77.83C69.8319 77.83 69.3719 77.945 68.9519 78.175C68.5419 78.395 68.2119 78.735 67.9619 79.195C67.7119 79.655 67.5869 80.215 67.5869 80.875C67.5869 81.545 67.7069 82.11 67.9469 82.57C68.1969 83.03 68.5269 83.375 68.9369 83.605C69.3469 83.825 69.7969 83.935 70.2869 83.935ZM76.7316 85.09C76.4716 85.09 76.2516 85 76.0716 84.82C75.8916 84.64 75.8016 84.42 75.8016 84.16C75.8016 83.9 75.8916 83.68 76.0716 83.5C76.2516 83.32 76.4716 83.23 76.7316 83.23C76.9816 83.23 77.1916 83.32 77.3616 83.5C77.5416 83.68 77.6316 83.9 77.6316 84.16C77.6316 84.42 77.5416 84.64 77.3616 84.82C77.1916 85 76.9816 85.09 76.7316 85.09ZM87.03 85.135C86.26 85.135 85.56 84.96 84.93 84.61C84.31 84.26 83.82 83.765 83.46 83.125C83.11 82.475 82.935 81.725 82.935 80.875C82.935 80.035 83.115 79.295 83.475 78.655C83.845 78.005 84.345 77.51 84.975 77.17C85.605 76.82 86.31 76.645 87.09 76.645C87.87 76.645 88.575 76.82 89.205 77.17C89.835 77.51 90.33 78 90.69 78.64C91.06 79.28 91.245 80.025 91.245 80.875C91.245 81.725 91.055 82.475 90.675 83.125C90.305 83.765 89.8 84.26 89.16 84.61C88.52 84.96 87.81 85.135 87.03 85.135ZM87.03 83.935C87.52 83.935 87.98 83.82 88.41 83.59C88.84 83.36 89.185 83.015 89.445 82.555C89.715 82.095 89.85 81.535 89.85 80.875C89.85 80.215 89.72 79.655 89.46 79.195C89.2 78.735 88.86 78.395 88.44 78.175C88.02 77.945 87.565 77.83 87.075 77.83C86.575 77.83 86.115 77.945 85.695 78.175C85.285 78.395 84.955 78.735 84.705 79.195C84.455 79.655 84.33 80.215 84.33 80.875C84.33 81.545 84.45 82.11 84.69 82.57C84.94 83.03 85.27 83.375 85.68 83.605C86.09 83.825 86.54 83.935 87.03 83.935ZM96.3848 77.905H94.6598V85H93.2948V77.905H92.2298V76.78H93.2948V76.195C93.2948 75.275 93.5298 74.605 93.9998 74.185C94.4798 73.755 95.2448 73.54 96.2948 73.54V74.68C95.6948 74.68 95.2698 74.8 95.0198 75.04C94.7798 75.27 94.6598 75.655 94.6598 76.195V76.78H96.3848V77.905ZM101.465 80.875C101.465 80.025 101.635 79.285 101.975 78.655C102.315 78.015 102.785 77.52 103.385 77.17C103.995 76.82 104.69 76.645 105.47 76.645C106.48 76.645 107.31 76.89 107.96 77.38C108.62 77.87 109.055 78.55 109.265 79.42H107.795C107.655 78.92 107.38 78.525 106.97 78.235C106.57 77.945 106.07 77.8 105.47 77.8C104.69 77.8 104.06 78.07 103.58 78.61C103.1 79.14 102.86 79.895 102.86 80.875C102.86 81.865 103.1 82.63 103.58 83.17C104.06 83.71 104.69 83.98 105.47 83.98C106.07 83.98 106.57 83.84 106.97 83.56C107.37 83.28 107.645 82.88 107.795 82.36H109.265C109.045 83.2 108.605 83.875 107.945 84.385C107.285 84.885 106.46 85.135 105.47 85.135C104.69 85.135 103.995 84.96 103.385 84.61C102.785 84.26 102.315 83.765 101.975 83.125C101.635 82.485 101.465 81.735 101.465 80.875ZM112.452 73.9V85H111.087V73.9H112.452ZM122.068 76.78V85H120.703V83.785C120.443 84.205 120.078 84.535 119.608 84.775C119.148 85.005 118.638 85.12 118.078 85.12C117.438 85.12 116.863 84.99 116.353 84.73C115.843 84.46 115.438 84.06 115.138 83.53C114.848 83 114.703 82.355 114.703 81.595V76.78H116.053V81.415C116.053 82.225 116.258 82.85 116.668 83.29C117.078 83.72 117.638 83.935 118.348 83.935C119.078 83.935 119.653 83.71 120.073 83.26C120.493 82.81 120.703 82.155 120.703 81.295V76.78H122.068ZM127.283 85.135C126.653 85.135 126.088 85.03 125.588 84.82C125.088 84.6 124.693 84.3 124.403 83.92C124.113 83.53 123.953 83.085 123.923 82.585H125.333C125.373 82.995 125.563 83.33 125.903 83.59C126.253 83.85 126.708 83.98 127.268 83.98C127.788 83.98 128.198 83.865 128.498 83.635C128.798 83.405 128.948 83.115 128.948 82.765C128.948 82.405 128.788 82.14 128.468 81.97C128.148 81.79 127.653 81.615 126.983 81.445C126.373 81.285 125.873 81.125 125.483 80.965C125.103 80.795 124.773 80.55 124.493 80.23C124.223 79.9 124.088 79.47 124.088 78.94C124.088 78.52 124.213 78.135 124.463 77.785C124.713 77.435 125.068 77.16 125.528 76.96C125.988 76.75 126.513 76.645 127.103 76.645C128.013 76.645 128.748 76.875 129.308 77.335C129.868 77.795 130.168 78.425 130.208 79.225H128.843C128.813 78.795 128.638 78.45 128.318 78.19C128.008 77.93 127.588 77.8 127.058 77.8C126.568 77.8 126.178 77.905 125.888 78.115C125.598 78.325 125.453 78.6 125.453 78.94C125.453 79.21 125.538 79.435 125.708 79.615C125.888 79.785 126.108 79.925 126.368 80.035C126.638 80.135 127.008 80.25 127.478 80.38C128.068 80.54 128.548 80.7 128.918 80.86C129.288 81.01 129.603 81.24 129.863 81.55C130.133 81.86 130.273 82.265 130.283 82.765C130.283 83.215 130.158 83.62 129.908 83.98C129.658 84.34 129.303 84.625 128.843 84.835C128.393 85.035 127.873 85.135 127.283 85.135ZM133.875 77.905V82.75C133.875 83.15 133.96 83.435 134.13 83.605C134.3 83.765 134.595 83.845 135.015 83.845H136.02V85H134.79C134.03 85 133.46 84.825 133.08 84.475C132.7 84.125 132.51 83.55 132.51 82.75V77.905H131.445V76.78H132.51V74.71H133.875V76.78H136.02V77.905H133.875ZM145.174 80.575C145.174 80.835 145.159 81.11 145.129 81.4H138.559C138.609 82.21 138.884 82.845 139.384 83.305C139.894 83.755 140.509 83.98 141.229 83.98C141.819 83.98 142.309 83.845 142.699 83.575C143.099 83.295 143.379 82.925 143.539 82.465H145.009C144.789 83.255 144.349 83.9 143.689 84.4C143.029 84.89 142.209 85.135 141.229 85.135C140.449 85.135 139.749 84.96 139.129 84.61C138.519 84.26 138.039 83.765 137.689 83.125C137.339 82.475 137.164 81.725 137.164 80.875C137.164 80.025 137.334 79.28 137.674 78.64C138.014 78 138.489 77.51 139.099 77.17C139.719 76.82 140.429 76.645 141.229 76.645C142.009 76.645 142.699 76.815 143.299 77.155C143.899 77.495 144.359 77.965 144.679 78.565C145.009 79.155 145.174 79.825 145.174 80.575ZM143.764 80.29C143.764 79.77 143.649 79.325 143.419 78.955C143.189 78.575 142.874 78.29 142.474 78.1C142.084 77.9 141.649 77.8 141.169 77.8C140.479 77.8 139.889 78.02 139.399 78.46C138.919 78.9 138.644 79.51 138.574 80.29H143.764ZM148.34 78.115C148.58 77.645 148.92 77.28 149.36 77.02C149.81 76.76 150.355 76.63 150.995 76.63V78.04H150.635C149.105 78.04 148.34 78.87 148.34 80.53V85H146.975V76.78H148.34V78.115ZM155.481 85.135C154.851 85.135 154.286 85.03 153.786 84.82C153.286 84.6 152.891 84.3 152.601 83.92C152.311 83.53 152.151 83.085 152.121 82.585H153.531C153.571 82.995 153.761 83.33 154.101 83.59C154.451 83.85 154.906 83.98 155.466 83.98C155.986 83.98 156.396 83.865 156.696 83.635C156.996 83.405 157.146 83.115 157.146 82.765C157.146 82.405 156.986 82.14 156.666 81.97C156.346 81.79 155.851 81.615 155.181 81.445C154.571 81.285 154.071 81.125 153.681 80.965C153.301 80.795 152.971 80.55 152.691 80.23C152.421 79.9 152.286 79.47 152.286 78.94C152.286 78.52 152.411 78.135 152.661 77.785C152.911 77.435 153.266 77.16 153.726 76.96C154.186 76.75 154.711 76.645 155.301 76.645C156.211 76.645 156.946 76.875 157.506 77.335C158.066 77.795 158.366 78.425 158.406 79.225H157.041C157.011 78.795 156.836 78.45 156.516 78.19C156.206 77.93 155.786 77.8 155.256 77.8C154.766 77.8 154.376 77.905 154.086 78.115C153.796 78.325 153.651 78.6 153.651 78.94C153.651 79.21 153.736 79.435 153.906 79.615C154.086 79.785 154.306 79.925 154.566 80.035C154.836 80.135 155.206 80.25 155.676 80.38C156.266 80.54 156.746 80.7 157.116 80.86C157.486 81.01 157.801 81.24 158.061 81.55C158.331 81.86 158.471 82.265 158.481 82.765C158.481 83.215 158.356 83.62 158.106 83.98C157.856 84.34 157.501 84.625 157.041 84.835C156.591 85.035 156.071 85.135 155.481 85.135Z" fill="#394253" fill-opacity="0.8"/>
<path d="M60.772 203L58.614 199.295H57.184V203H56.001V193.939H58.926C59.6107 193.939 60.187 194.056 60.655 194.29C61.1317 194.524 61.487 194.84 61.721 195.239C61.955 195.638 62.072 196.093 62.072 196.604C62.072 197.228 61.89 197.778 61.526 198.255C61.1707 198.732 60.6333 199.048 59.914 199.204L62.189 203H60.772ZM57.184 198.346H58.926C59.5673 198.346 60.0483 198.19 60.369 197.878C60.6897 197.557 60.85 197.133 60.85 196.604C60.85 196.067 60.6897 195.651 60.369 195.356C60.057 195.061 59.576 194.914 58.926 194.914H57.184V198.346ZM70.4102 199.165C70.4102 199.39 70.3972 199.629 70.3712 199.88H64.6772C64.7205 200.582 64.9588 201.132 65.3922 201.531C65.8342 201.921 66.3672 202.116 66.9912 202.116C67.5025 202.116 67.9272 201.999 68.2652 201.765C68.6118 201.522 68.8545 201.202 68.9932 200.803H70.2672C70.0765 201.488 69.6952 202.047 69.1232 202.48C68.5512 202.905 67.8405 203.117 66.9912 203.117C66.3152 203.117 65.7085 202.965 65.1712 202.662C64.6425 202.359 64.2265 201.93 63.9232 201.375C63.6198 200.812 63.4682 200.162 63.4682 199.425C63.4682 198.688 63.6155 198.043 63.9102 197.488C64.2048 196.933 64.6165 196.509 65.1452 196.214C65.6825 195.911 66.2978 195.759 66.9912 195.759C67.6672 195.759 68.2652 195.906 68.7852 196.201C69.3052 196.496 69.7038 196.903 69.9812 197.423C70.2672 197.934 70.4102 198.515 70.4102 199.165ZM69.1882 198.918C69.1882 198.467 69.0885 198.082 68.8892 197.761C68.6898 197.432 68.4168 197.185 68.0702 197.02C67.7322 196.847 67.3552 196.76 66.9392 196.76C66.3412 196.76 65.8298 196.951 65.4052 197.332C64.9892 197.713 64.7508 198.242 64.6902 198.918H69.1882ZM71.5297 199.425C71.5297 198.688 71.677 198.047 71.9717 197.501C72.2664 196.946 72.6737 196.517 73.1937 196.214C73.7224 195.911 74.3247 195.759 75.0007 195.759C75.876 195.759 76.5954 195.971 77.1587 196.396C77.7307 196.821 78.1077 197.41 78.2897 198.164H77.0157C76.8944 197.731 76.656 197.388 76.3007 197.137C75.954 196.886 75.5207 196.76 75.0007 196.76C74.3247 196.76 73.7787 196.994 73.3627 197.462C72.9467 197.921 72.7387 198.576 72.7387 199.425C72.7387 200.283 72.9467 200.946 73.3627 201.414C73.7787 201.882 74.3247 202.116 75.0007 202.116C75.5207 202.116 75.954 201.995 76.3007 201.752C76.6474 201.509 76.8857 201.163 77.0157 200.712H78.2897C78.099 201.44 77.7177 202.025 77.1457 202.467C76.5737 202.9 75.8587 203.117 75.0007 203.117C74.3247 203.117 73.7224 202.965 73.1937 202.662C72.6737 202.359 72.2664 201.93 71.9717 201.375C71.677 200.82 71.5297 200.17 71.5297 199.425ZM82.9752 203.117C82.3079 203.117 81.7012 202.965 81.1552 202.662C80.6179 202.359 80.1932 201.93 79.8812 201.375C79.5779 200.812 79.4262 200.162 79.4262 199.425C79.4262 198.697 79.5822 198.056 79.8942 197.501C80.2149 196.938 80.6482 196.509 81.1942 196.214C81.7402 195.911 82.3512 195.759 83.0272 195.759C83.7032 195.759 84.3142 195.911 84.8602 196.214C85.4062 196.509 85.8352 196.933 86.1472 197.488C86.4679 198.043 86.6282 198.688 86.6282 199.425C86.6282 200.162 86.4635 200.812 86.1342 201.375C85.8135 201.93 85.3759 202.359 84.8212 202.662C84.2665 202.965 83.6512 203.117 82.9752 203.117ZM82.9752 202.077C83.3999 202.077 83.7985 201.977 84.1712 201.778C84.5439 201.579 84.8429 201.28 85.0682 200.881C85.3022 200.482 85.4192 199.997 85.4192 199.425C85.4192 198.853 85.3065 198.368 85.0812 197.969C84.8559 197.57 84.5612 197.276 84.1972 197.085C83.8332 196.886 83.4389 196.786 83.0142 196.786C82.5809 196.786 82.1822 196.886 81.8182 197.085C81.4629 197.276 81.1769 197.57 80.9602 197.969C80.7435 198.368 80.6352 198.853 80.6352 199.425C80.6352 200.006 80.7392 200.495 80.9472 200.894C81.1639 201.293 81.4499 201.592 81.8052 201.791C82.1605 201.982 82.5505 202.077 82.9752 202.077ZM96.7506 195.746C97.3053 195.746 97.7993 195.863 98.2326 196.097C98.666 196.322 99.0083 196.665 99.2596 197.124C99.511 197.583 99.6366 198.142 99.6366 198.801V203H98.4666V198.97C98.4666 198.259 98.289 197.718 97.9336 197.345C97.587 196.964 97.1146 196.773 96.5166 196.773C95.9013 196.773 95.4116 196.972 95.0476 197.371C94.6836 197.761 94.5016 198.329 94.5016 199.074V203H93.3316V198.97C93.3316 198.259 93.154 197.718 92.7986 197.345C92.452 196.964 91.9796 196.773 91.3816 196.773C90.7663 196.773 90.2766 196.972 89.9126 197.371C89.5486 197.761 89.3666 198.329 89.3666 199.074V203H88.1836V195.876H89.3666V196.903C89.6006 196.53 89.9126 196.244 90.3026 196.045C90.7013 195.846 91.139 195.746 91.6156 195.746C92.2136 195.746 92.7423 195.88 93.2016 196.149C93.661 196.418 94.0033 196.812 94.2286 197.332C94.428 196.829 94.7573 196.439 95.2166 196.162C95.676 195.885 96.1873 195.746 96.7506 195.746ZM110.144 195.746C110.699 195.746 111.193 195.863 111.626 196.097C112.06 196.322 112.402 196.665 112.653 197.124C112.905 197.583 113.03 198.142 113.03 198.801V203H111.86V198.97C111.86 198.259 111.683 197.718 111.327 197.345C110.981 196.964 110.508 196.773 109.91 196.773C109.295 196.773 108.805 196.972 108.441 197.371C108.077 197.761 107.895 198.329 107.895 199.074V203H106.725V198.97C106.725 198.259 106.548 197.718 106.192 197.345C105.846 196.964 105.373 196.773 104.775 196.773C104.16 196.773 103.67 196.972 103.306 197.371C102.942 197.761 102.76 198.329 102.76 199.074V203H101.577V195.876H102.76V196.903C102.994 196.53 103.306 196.244 103.696 196.045C104.095 195.846 104.533 195.746 105.009 195.746C105.607 195.746 106.136 195.88 106.595 196.149C107.055 196.418 107.397 196.812 107.622 197.332C107.822 196.829 108.151 196.439 108.61 196.162C109.07 195.885 109.581 195.746 110.144 195.746ZM121.471 199.165C121.471 199.39 121.458 199.629 121.432 199.88H115.738C115.781 200.582 116.019 201.132 116.453 201.531C116.895 201.921 117.428 202.116 118.052 202.116C118.563 202.116 118.988 201.999 119.326 201.765C119.672 201.522 119.915 201.202 120.054 200.803H121.328C121.137 201.488 120.756 202.047 120.184 202.48C119.612 202.905 118.901 203.117 118.052 203.117C117.376 203.117 116.769 202.965 116.232 202.662C115.703 202.359 115.287 201.93 114.984 201.375C114.68 200.812 114.529 200.162 114.529 199.425C114.529 198.688 114.676 198.043 114.971 197.488C115.265 196.933 115.677 196.509 116.206 196.214C116.743 195.911 117.358 195.759 118.052 195.759C118.728 195.759 119.326 195.906 119.846 196.201C120.366 196.496 120.764 196.903 121.042 197.423C121.328 197.934 121.471 198.515 121.471 199.165ZM120.249 198.918C120.249 198.467 120.149 198.082 119.95 197.761C119.75 197.432 119.477 197.185 119.131 197.02C118.793 196.847 118.416 196.76 118 196.76C117.402 196.76 116.89 196.951 116.466 197.332C116.05 197.713 115.811 198.242 115.751 198.918H120.249ZM126.503 195.746C127.37 195.746 128.072 196.01 128.609 196.539C129.147 197.059 129.415 197.813 129.415 198.801V203H128.245V198.97C128.245 198.259 128.068 197.718 127.712 197.345C127.357 196.964 126.872 196.773 126.256 196.773C125.632 196.773 125.134 196.968 124.761 197.358C124.397 197.748 124.215 198.316 124.215 199.061V203H123.032V195.876H124.215V196.89C124.449 196.526 124.766 196.244 125.164 196.045C125.572 195.846 126.018 195.746 126.503 195.746ZM130.906 199.412C130.906 198.684 131.053 198.047 131.348 197.501C131.642 196.946 132.045 196.517 132.557 196.214C133.077 195.911 133.657 195.759 134.299 195.759C134.853 195.759 135.369 195.889 135.846 196.149C136.322 196.4 136.686 196.734 136.938 197.15V193.38H138.134V203H136.938V201.661C136.704 202.086 136.357 202.437 135.898 202.714C135.438 202.983 134.901 203.117 134.286 203.117C133.653 203.117 133.077 202.961 132.557 202.649C132.045 202.337 131.642 201.899 131.348 201.336C131.053 200.773 130.906 200.131 130.906 199.412ZM136.938 199.425C136.938 198.888 136.829 198.42 136.613 198.021C136.396 197.622 136.101 197.319 135.729 197.111C135.365 196.894 134.962 196.786 134.52 196.786C134.078 196.786 133.675 196.89 133.311 197.098C132.947 197.306 132.656 197.609 132.44 198.008C132.223 198.407 132.115 198.875 132.115 199.412C132.115 199.958 132.223 200.435 132.44 200.842C132.656 201.241 132.947 201.548 133.311 201.765C133.675 201.973 134.078 202.077 134.52 202.077C134.962 202.077 135.365 201.973 135.729 201.765C136.101 201.548 136.396 201.241 136.613 200.842C136.829 200.435 136.938 199.962 136.938 199.425ZM146.633 199.165C146.633 199.39 146.62 199.629 146.594 199.88H140.9C140.943 200.582 141.182 201.132 141.615 201.531C142.057 201.921 142.59 202.116 143.214 202.116C143.725 202.116 144.15 201.999 144.488 201.765C144.835 201.522 145.077 201.202 145.216 200.803H146.49C146.299 201.488 145.918 202.047 145.346 202.48C144.774 202.905 144.063 203.117 143.214 203.117C142.538 203.117 141.931 202.965 141.394 202.662C140.865 202.359 140.449 201.93 140.146 201.375C139.843 200.812 139.691 200.162 139.691 199.425C139.691 198.688 139.838 198.043 140.133 197.488C140.428 196.933 140.839 196.509 141.368 196.214C141.905 195.911 142.521 195.759 143.214 195.759C143.89 195.759 144.488 195.906 145.008 196.201C145.528 196.496 145.927 196.903 146.204 197.423C146.49 197.934 146.633 198.515 146.633 199.165ZM145.411 198.918C145.411 198.467 145.311 198.082 145.112 197.761C144.913 197.432 144.64 197.185 144.293 197.02C143.955 196.847 143.578 196.76 143.162 196.76C142.564 196.76 142.053 196.951 141.628 197.332C141.212 197.713 140.974 198.242 140.913 198.918H145.411ZM147.752 199.412C147.752 198.684 147.9 198.047 148.194 197.501C148.489 196.946 148.892 196.517 149.403 196.214C149.923 195.911 150.504 195.759 151.145 195.759C151.7 195.759 152.216 195.889 152.692 196.149C153.169 196.4 153.533 196.734 153.784 197.15V193.38H154.98V203H153.784V201.661C153.55 202.086 153.204 202.437 152.744 202.714C152.285 202.983 151.748 203.117 151.132 203.117C150.5 203.117 149.923 202.961 149.403 202.649C148.892 202.337 148.489 201.899 148.194 201.336C147.9 200.773 147.752 200.131 147.752 199.412ZM153.784 199.425C153.784 198.888 153.676 198.42 153.459 198.021C153.243 197.622 152.948 197.319 152.575 197.111C152.211 196.894 151.808 196.786 151.366 196.786C150.924 196.786 150.521 196.89 150.157 197.098C149.793 197.306 149.503 197.609 149.286 198.008C149.07 198.407 148.961 198.875 148.961 199.412C148.961 199.958 149.07 200.435 149.286 200.842C149.503 201.241 149.793 201.548 150.157 201.765C150.521 201.973 150.924 202.077 151.366 202.077C151.808 202.077 152.211 201.973 152.575 201.765C152.948 201.548 153.243 201.241 153.459 200.842C153.676 200.435 153.784 199.962 153.784 199.425Z" fill="#394253" fill-opacity="0.8"/>
<path d="M181.874 203.091C181.276 203.091 180.739 202.987 180.262 202.779C179.794 202.562 179.426 202.268 179.157 201.895C178.888 201.514 178.75 201.076 178.741 200.582H180.002C180.045 201.007 180.219 201.366 180.522 201.661C180.834 201.947 181.285 202.09 181.874 202.09C182.437 202.09 182.879 201.951 183.2 201.674C183.529 201.388 183.694 201.024 183.694 200.582C183.694 200.235 183.599 199.954 183.408 199.737C183.217 199.52 182.979 199.356 182.693 199.243C182.407 199.13 182.021 199.009 181.536 198.879C180.938 198.723 180.457 198.567 180.093 198.411C179.738 198.255 179.43 198.012 179.17 197.683C178.919 197.345 178.793 196.894 178.793 196.331C178.793 195.837 178.919 195.399 179.17 195.018C179.421 194.637 179.772 194.342 180.223 194.134C180.682 193.926 181.207 193.822 181.796 193.822C182.645 193.822 183.339 194.034 183.876 194.459C184.422 194.884 184.73 195.447 184.799 196.149H183.499C183.456 195.802 183.274 195.499 182.953 195.239C182.632 194.97 182.208 194.836 181.679 194.836C181.185 194.836 180.782 194.966 180.47 195.226C180.158 195.477 180.002 195.833 180.002 196.292C180.002 196.621 180.093 196.89 180.275 197.098C180.466 197.306 180.695 197.466 180.964 197.579C181.241 197.683 181.627 197.804 182.121 197.943C182.719 198.108 183.2 198.272 183.564 198.437C183.928 198.593 184.24 198.84 184.5 199.178C184.76 199.507 184.89 199.958 184.89 200.53C184.89 200.972 184.773 201.388 184.539 201.778C184.305 202.168 183.958 202.484 183.499 202.727C183.04 202.97 182.498 203.091 181.874 203.091ZM192.949 195.876V203H191.766V201.947C191.541 202.311 191.224 202.597 190.817 202.805C190.418 203.004 189.976 203.104 189.491 203.104C188.936 203.104 188.438 202.991 187.996 202.766C187.554 202.532 187.203 202.185 186.943 201.726C186.692 201.267 186.566 200.708 186.566 200.049V195.876H187.736V199.893C187.736 200.595 187.914 201.137 188.269 201.518C188.624 201.891 189.11 202.077 189.725 202.077C190.358 202.077 190.856 201.882 191.22 201.492C191.584 201.102 191.766 200.534 191.766 199.789V195.876H192.949ZM196.129 197.189C196.363 196.782 196.71 196.444 197.169 196.175C197.637 195.898 198.179 195.759 198.794 195.759C199.427 195.759 199.999 195.911 200.51 196.214C201.03 196.517 201.438 196.946 201.732 197.501C202.027 198.047 202.174 198.684 202.174 199.412C202.174 200.131 202.027 200.773 201.732 201.336C201.438 201.899 201.03 202.337 200.51 202.649C199.999 202.961 199.427 203.117 198.794 203.117C198.188 203.117 197.65 202.983 197.182 202.714C196.723 202.437 196.372 202.094 196.129 201.687V206.38H194.946V195.876H196.129V197.189ZM200.965 199.412C200.965 198.875 200.857 198.407 200.64 198.008C200.424 197.609 200.129 197.306 199.756 197.098C199.392 196.89 198.989 196.786 198.547 196.786C198.114 196.786 197.711 196.894 197.338 197.111C196.974 197.319 196.68 197.627 196.454 198.034C196.238 198.433 196.129 198.896 196.129 199.425C196.129 199.962 196.238 200.435 196.454 200.842C196.68 201.241 196.974 201.548 197.338 201.765C197.711 201.973 198.114 202.077 198.547 202.077C198.989 202.077 199.392 201.973 199.756 201.765C200.129 201.548 200.424 201.241 200.64 200.842C200.857 200.435 200.965 199.958 200.965 199.412ZM210.231 199.165C210.231 199.39 210.218 199.629 210.192 199.88H204.498C204.542 200.582 204.78 201.132 205.213 201.531C205.655 201.921 206.188 202.116 206.812 202.116C207.324 202.116 207.748 201.999 208.086 201.765C208.433 201.522 208.676 201.202 208.814 200.803H210.088C209.898 201.488 209.516 202.047 208.944 202.48C208.372 202.905 207.662 203.117 206.812 203.117C206.136 203.117 205.53 202.965 204.992 202.662C204.464 202.359 204.048 201.93 203.744 201.375C203.441 200.812 203.289 200.162 203.289 199.425C203.289 198.688 203.437 198.043 203.731 197.488C204.026 196.933 204.438 196.509 204.966 196.214C205.504 195.911 206.119 195.759 206.812 195.759C207.488 195.759 208.086 195.906 208.606 196.201C209.126 196.496 209.525 196.903 209.802 197.423C210.088 197.934 210.231 198.515 210.231 199.165ZM209.009 198.918C209.009 198.467 208.91 198.082 208.71 197.761C208.511 197.432 208.238 197.185 207.891 197.02C207.553 196.847 207.176 196.76 206.76 196.76C206.162 196.76 205.651 196.951 205.226 197.332C204.81 197.713 204.572 198.242 204.511 198.918H209.009ZM212.976 197.033C213.184 196.626 213.479 196.309 213.86 196.084C214.25 195.859 214.722 195.746 215.277 195.746V196.968H214.965C213.639 196.968 212.976 197.687 212.976 199.126V203H211.793V195.876H212.976V197.033ZM219.295 201.908L221.505 195.876H222.766L219.971 203H218.593L215.798 195.876H217.072L219.295 201.908ZM224.541 194.719C224.315 194.719 224.125 194.641 223.969 194.485C223.813 194.329 223.735 194.138 223.735 193.913C223.735 193.688 223.813 193.497 223.969 193.341C224.125 193.185 224.315 193.107 224.541 193.107C224.757 193.107 224.939 193.185 225.087 193.341C225.243 193.497 225.321 193.688 225.321 193.913C225.321 194.138 225.243 194.329 225.087 194.485C224.939 194.641 224.757 194.719 224.541 194.719ZM225.113 195.876V203H223.93V195.876H225.113ZM229.651 203.117C229.105 203.117 228.615 203.026 228.182 202.844C227.749 202.653 227.406 202.393 227.155 202.064C226.904 201.726 226.765 201.34 226.739 200.907H227.961C227.996 201.262 228.16 201.553 228.455 201.778C228.758 202.003 229.153 202.116 229.638 202.116C230.089 202.116 230.444 202.016 230.704 201.817C230.964 201.618 231.094 201.366 231.094 201.063C231.094 200.751 230.955 200.521 230.678 200.374C230.401 200.218 229.972 200.066 229.391 199.919C228.862 199.78 228.429 199.642 228.091 199.503C227.762 199.356 227.476 199.143 227.233 198.866C226.999 198.58 226.882 198.207 226.882 197.748C226.882 197.384 226.99 197.05 227.207 196.747C227.424 196.444 227.731 196.205 228.13 196.032C228.529 195.85 228.984 195.759 229.495 195.759C230.284 195.759 230.921 195.958 231.406 196.357C231.891 196.756 232.151 197.302 232.186 197.995H231.003C230.977 197.622 230.825 197.323 230.548 197.098C230.279 196.873 229.915 196.76 229.456 196.76C229.031 196.76 228.693 196.851 228.442 197.033C228.191 197.215 228.065 197.453 228.065 197.748C228.065 197.982 228.139 198.177 228.286 198.333C228.442 198.48 228.633 198.602 228.858 198.697C229.092 198.784 229.413 198.883 229.82 198.996C230.331 199.135 230.747 199.273 231.068 199.412C231.389 199.542 231.662 199.741 231.887 200.01C232.121 200.279 232.242 200.63 232.251 201.063C232.251 201.453 232.143 201.804 231.926 202.116C231.709 202.428 231.402 202.675 231.003 202.857C230.613 203.03 230.162 203.117 229.651 203.117ZM240.421 199.165C240.421 199.39 240.408 199.629 240.382 199.88H234.688C234.731 200.582 234.97 201.132 235.403 201.531C235.845 201.921 236.378 202.116 237.002 202.116C237.513 202.116 237.938 201.999 238.276 201.765C238.623 201.522 238.865 201.202 239.004 200.803H240.278C240.087 201.488 239.706 202.047 239.134 202.48C238.562 202.905 237.851 203.117 237.002 203.117C236.326 203.117 235.719 202.965 235.182 202.662C234.653 202.359 234.237 201.93 233.934 201.375C233.631 200.812 233.479 200.162 233.479 199.425C233.479 198.688 233.626 198.043 233.921 197.488C234.216 196.933 234.627 196.509 235.156 196.214C235.693 195.911 236.309 195.759 237.002 195.759C237.678 195.759 238.276 195.906 238.796 196.201C239.316 196.496 239.715 196.903 239.992 197.423C240.278 197.934 240.421 198.515 240.421 199.165ZM239.199 198.918C239.199 198.467 239.099 198.082 238.9 197.761C238.701 197.432 238.428 197.185 238.081 197.02C237.743 196.847 237.366 196.76 236.95 196.76C236.352 196.76 235.841 196.951 235.416 197.332C235 197.713 234.762 198.242 234.701 198.918H239.199ZM241.54 199.412C241.54 198.684 241.688 198.047 241.982 197.501C242.277 196.946 242.68 196.517 243.191 196.214C243.711 195.911 244.292 195.759 244.933 195.759C245.488 195.759 246.004 195.889 246.48 196.149C246.957 196.4 247.321 196.734 247.572 197.15V193.38H248.768V203H247.572V201.661C247.338 202.086 246.992 202.437 246.532 202.714C246.073 202.983 245.536 203.117 244.92 203.117C244.288 203.117 243.711 202.961 243.191 202.649C242.68 202.337 242.277 201.899 241.982 201.336C241.688 200.773 241.54 200.131 241.54 199.412ZM247.572 199.425C247.572 198.888 247.464 198.42 247.247 198.021C247.031 197.622 246.736 197.319 246.363 197.111C245.999 196.894 245.596 196.786 245.154 196.786C244.712 196.786 244.309 196.89 243.945 197.098C243.581 197.306 243.291 197.609 243.074 198.008C242.858 198.407 242.749 198.875 242.749 199.412C242.749 199.958 242.858 200.435 243.074 200.842C243.291 201.241 243.581 201.548 243.945 201.765C244.309 201.973 244.712 202.077 245.154 202.077C245.596 202.077 245.999 201.973 246.363 201.765C246.736 201.548 247.031 201.241 247.247 200.842C247.464 200.435 247.572 199.962 247.572 199.425ZM255.708 197.735V198.736H250.521V197.735H255.708ZM264.428 199.165C264.428 199.39 264.415 199.629 264.389 199.88H258.695C258.738 200.582 258.976 201.132 259.41 201.531C259.852 201.921 260.385 202.116 261.009 202.116C261.52 202.116 261.945 201.999 262.283 201.765C262.629 201.522 262.872 201.202 263.011 200.803H264.285C264.094 201.488 263.713 202.047 263.141 202.48C262.569 202.905 261.858 203.117 261.009 203.117C260.333 203.117 259.726 202.965 259.189 202.662C258.66 202.359 258.244 201.93 257.941 201.375C257.637 200.812 257.486 200.162 257.486 199.425C257.486 198.688 257.633 198.043 257.928 197.488C258.222 196.933 258.634 196.509 259.163 196.214C259.7 195.911 260.315 195.759 261.009 195.759C261.685 195.759 262.283 195.906 262.803 196.201C263.323 196.496 263.721 196.903 263.999 197.423C264.285 197.934 264.428 198.515 264.428 199.165ZM263.206 198.918C263.206 198.467 263.106 198.082 262.907 197.761C262.707 197.432 262.434 197.185 262.088 197.02C261.75 196.847 261.373 196.76 260.957 196.76C260.359 196.76 259.847 196.951 259.423 197.332C259.007 197.713 258.768 198.242 258.708 198.918H263.206ZM268.888 196.851H267.393V203H266.21V196.851H265.287V195.876H266.21V195.369C266.21 194.572 266.414 193.991 266.821 193.627C267.237 193.254 267.9 193.068 268.81 193.068V194.056C268.29 194.056 267.922 194.16 267.705 194.368C267.497 194.567 267.393 194.901 267.393 195.369V195.876H268.888V196.851ZM269.826 199.412C269.826 198.684 269.973 198.047 270.268 197.501C270.562 196.946 270.965 196.517 271.477 196.214C271.997 195.911 272.577 195.759 273.219 195.759C273.773 195.759 274.289 195.889 274.766 196.149C275.242 196.4 275.606 196.734 275.858 197.15V193.38H277.054V203H275.858V201.661C275.624 202.086 275.277 202.437 274.818 202.714C274.358 202.983 273.821 203.117 273.206 203.117C272.573 203.117 271.997 202.961 271.477 202.649C270.965 202.337 270.562 201.899 270.268 201.336C269.973 200.773 269.826 200.131 269.826 199.412ZM275.858 199.425C275.858 198.888 275.749 198.42 275.533 198.021C275.316 197.622 275.021 197.319 274.649 197.111C274.285 196.894 273.882 196.786 273.44 196.786C272.998 196.786 272.595 196.89 272.231 197.098C271.867 197.306 271.576 197.609 271.36 198.008C271.143 198.407 271.035 198.875 271.035 199.412C271.035 199.958 271.143 200.435 271.36 200.842C271.576 201.241 271.867 201.548 272.231 201.765C272.595 201.973 272.998 202.077 273.44 202.077C273.882 202.077 274.285 201.973 274.649 201.765C275.021 201.548 275.316 201.241 275.533 200.842C275.749 200.435 275.858 199.962 275.858 199.425ZM283.993 197.735V198.736H278.806V197.735H283.993ZM285.771 199.412C285.771 198.684 285.918 198.047 286.213 197.501C286.508 196.946 286.911 196.517 287.422 196.214C287.942 195.911 288.523 195.759 289.164 195.759C289.719 195.759 290.234 195.889 290.711 196.149C291.188 196.4 291.552 196.734 291.803 197.15V193.38H292.999V203H291.803V201.661C291.569 202.086 291.222 202.437 290.763 202.714C290.304 202.983 289.766 203.117 289.151 203.117C288.518 203.117 287.942 202.961 287.422 202.649C286.911 202.337 286.508 201.899 286.213 201.336C285.918 200.773 285.771 200.131 285.771 199.412ZM291.803 199.425C291.803 198.888 291.695 198.42 291.478 198.021C291.261 197.622 290.967 197.319 290.594 197.111C290.23 196.894 289.827 196.786 289.385 196.786C288.943 196.786 288.54 196.89 288.176 197.098C287.812 197.306 287.522 197.609 287.305 198.008C287.088 198.407 286.98 198.875 286.98 199.412C286.98 199.958 287.088 200.435 287.305 200.842C287.522 201.241 287.812 201.548 288.176 201.765C288.54 201.973 288.943 202.077 289.385 202.077C289.827 202.077 290.23 201.973 290.594 201.765C290.967 201.548 291.261 201.241 291.478 200.842C291.695 200.435 291.803 199.962 291.803 199.425ZM294.556 199.412C294.556 198.684 294.703 198.047 294.998 197.501C295.293 196.946 295.696 196.517 296.207 196.214C296.727 195.911 297.303 195.759 297.936 195.759C298.56 195.759 299.102 195.893 299.561 196.162C300.02 196.431 300.363 196.769 300.588 197.176V195.876H301.784V203H300.588V201.674C300.354 202.09 300.003 202.437 299.535 202.714C299.076 202.983 298.538 203.117 297.923 203.117C297.29 203.117 296.718 202.961 296.207 202.649C295.696 202.337 295.293 201.899 294.998 201.336C294.703 200.773 294.556 200.131 294.556 199.412ZM300.588 199.425C300.588 198.888 300.48 198.42 300.263 198.021C300.046 197.622 299.752 197.319 299.379 197.111C299.015 196.894 298.612 196.786 298.17 196.786C297.728 196.786 297.325 196.89 296.961 197.098C296.597 197.306 296.307 197.609 296.09 198.008C295.873 198.407 295.765 198.875 295.765 199.412C295.765 199.958 295.873 200.435 296.09 200.842C296.307 201.241 296.597 201.548 296.961 201.765C297.325 201.973 297.728 202.077 298.17 202.077C298.612 202.077 299.015 201.973 299.379 201.765C299.752 201.548 300.046 201.241 300.263 200.842C300.48 200.435 300.588 199.962 300.588 199.425ZM305.226 196.851V201.05C305.226 201.397 305.3 201.644 305.447 201.791C305.595 201.93 305.85 201.999 306.214 201.999H307.085V203H306.019C305.361 203 304.867 202.848 304.537 202.545C304.208 202.242 304.043 201.743 304.043 201.05V196.851H303.12V195.876H304.043V194.082H305.226V195.876H307.085V196.851H305.226ZM308.077 199.412C308.077 198.684 308.224 198.047 308.519 197.501C308.813 196.946 309.216 196.517 309.728 196.214C310.248 195.911 310.824 195.759 311.457 195.759C312.081 195.759 312.622 195.893 313.082 196.162C313.541 196.431 313.883 196.769 314.109 197.176V195.876H315.305V203H314.109V201.674C313.875 202.09 313.524 202.437 313.056 202.714C312.596 202.983 312.059 203.117 311.444 203.117C310.811 203.117 310.239 202.961 309.728 202.649C309.216 202.337 308.813 201.899 308.519 201.336C308.224 200.773 308.077 200.131 308.077 199.412ZM314.109 199.425C314.109 198.888 314 198.42 313.784 198.021C313.567 197.622 313.272 197.319 312.9 197.111C312.536 196.894 312.133 196.786 311.691 196.786C311.249 196.786 310.846 196.89 310.482 197.098C310.118 197.306 309.827 197.609 309.611 198.008C309.394 198.407 309.286 198.875 309.286 199.412C309.286 199.958 309.394 200.435 309.611 200.842C309.827 201.241 310.118 201.548 310.482 201.765C310.846 201.973 311.249 202.077 311.691 202.077C312.133 202.077 312.536 201.973 312.9 201.765C313.272 201.548 313.567 201.241 313.784 200.842C314 200.435 314.109 199.962 314.109 199.425ZM322.244 197.735V198.736H317.057V197.735H322.244ZM328.442 203L325.647 199.854V203H324.464V193.38H325.647V199.035L328.39 195.876H330.041L326.687 199.425L330.054 203H328.442ZM332.337 197.189C332.571 196.782 332.918 196.444 333.377 196.175C333.845 195.898 334.387 195.759 335.002 195.759C335.635 195.759 336.207 195.911 336.718 196.214C337.238 196.517 337.646 196.946 337.94 197.501C338.235 198.047 338.382 198.684 338.382 199.412C338.382 200.131 338.235 200.773 337.94 201.336C337.646 201.899 337.238 202.337 336.718 202.649C336.207 202.961 335.635 203.117 335.002 203.117C334.396 203.117 333.858 202.983 333.39 202.714C332.931 202.437 332.58 202.094 332.337 201.687V206.38H331.154V195.876H332.337V197.189ZM337.173 199.412C337.173 198.875 337.065 198.407 336.848 198.008C336.632 197.609 336.337 197.306 335.964 197.098C335.6 196.89 335.197 196.786 334.755 196.786C334.322 196.786 333.919 196.894 333.546 197.111C333.182 197.319 332.888 197.627 332.662 198.034C332.446 198.433 332.337 198.896 332.337 199.425C332.337 199.962 332.446 200.435 332.662 200.842C332.888 201.241 333.182 201.548 333.546 201.765C333.919 201.973 334.322 202.077 334.755 202.077C335.197 202.077 335.6 201.973 335.964 201.765C336.337 201.548 336.632 201.241 336.848 200.842C337.065 200.435 337.173 199.958 337.173 199.412ZM340.55 194.719C340.325 194.719 340.134 194.641 339.978 194.485C339.822 194.329 339.744 194.138 339.744 193.913C339.744 193.688 339.822 193.497 339.978 193.341C340.134 193.185 340.325 193.107 340.55 193.107C340.767 193.107 340.949 193.185 341.096 193.341C341.252 193.497 341.33 193.688 341.33 193.913C341.33 194.138 341.252 194.329 341.096 194.485C340.949 194.641 340.767 194.719 340.55 194.719ZM341.122 195.876V203H339.939V195.876H341.122ZM348.079 197.735V198.736H342.892V197.735H348.079ZM349.961 202.051C351.062 201.167 351.924 200.443 352.548 199.88C353.172 199.308 353.696 198.714 354.121 198.099C354.554 197.475 354.771 196.864 354.771 196.266C354.771 195.703 354.632 195.261 354.355 194.94C354.086 194.611 353.649 194.446 353.042 194.446C352.453 194.446 351.993 194.632 351.664 195.005C351.343 195.369 351.17 195.859 351.144 196.474H350C350.035 195.503 350.329 194.754 350.884 194.225C351.439 193.696 352.154 193.432 353.029 193.432C353.922 193.432 354.628 193.679 355.148 194.173C355.677 194.667 355.941 195.347 355.941 196.214C355.941 196.933 355.724 197.635 355.291 198.32C354.866 198.996 354.381 199.594 353.835 200.114C353.289 200.625 352.591 201.223 351.742 201.908H356.214V202.896H349.961V202.051ZM357.295 200.907V200.01L361.858 193.692H363.275V199.88H364.575V200.907H363.275V203H362.105V200.907H357.295ZM362.157 194.927L358.66 199.88H362.157V194.927ZM365.757 198.203C365.757 196.712 366 195.551 366.485 194.719C366.971 193.878 367.82 193.458 369.033 193.458C370.238 193.458 371.083 193.878 371.568 194.719C372.054 195.551 372.296 196.712 372.296 198.203C372.296 199.72 372.054 200.898 371.568 201.739C371.083 202.58 370.238 203 369.033 203C367.82 203 366.971 202.58 366.485 201.739C366 200.898 365.757 199.72 365.757 198.203ZM371.126 198.203C371.126 197.449 371.074 196.812 370.97 196.292C370.875 195.763 370.671 195.339 370.359 195.018C370.056 194.697 369.614 194.537 369.033 194.537C368.444 194.537 367.993 194.697 367.681 195.018C367.378 195.339 367.174 195.763 367.07 196.292C366.975 196.812 366.927 197.449 366.927 198.203C366.927 198.983 366.975 199.637 367.07 200.166C367.174 200.695 367.378 201.119 367.681 201.44C367.993 201.761 368.444 201.921 369.033 201.921C369.614 201.921 370.056 201.761 370.359 201.44C370.671 201.119 370.875 200.695 370.97 200.166C371.074 199.637 371.126 198.983 371.126 198.203ZM379.055 197.735V198.736H373.868V197.735H379.055ZM380.768 194.68V193.601H383.212V203H382.016V194.68H380.768ZM385.101 202.051C386.202 201.167 387.064 200.443 387.688 199.88C388.312 199.308 388.837 198.714 389.261 198.099C389.695 197.475 389.911 196.864 389.911 196.266C389.911 195.703 389.773 195.261 389.495 194.94C389.227 194.611 388.789 194.446 388.182 194.446C387.593 194.446 387.134 194.632 386.804 195.005C386.484 195.369 386.31 195.859 386.284 196.474H385.14C385.175 195.503 385.47 194.754 386.024 194.225C386.579 193.696 387.294 193.432 388.169 193.432C389.062 193.432 389.768 193.679 390.288 194.173C390.817 194.667 391.081 195.347 391.081 196.214C391.081 196.933 390.865 197.635 390.431 198.32C390.007 198.996 389.521 199.594 388.975 200.114C388.429 200.625 387.732 201.223 386.882 201.908H391.354V202.896H385.101V202.051ZM392.696 195.967C392.757 195.17 393.064 194.546 393.619 194.095C394.174 193.644 394.893 193.419 395.777 193.419C396.366 193.419 396.873 193.527 397.298 193.744C397.731 193.952 398.056 194.238 398.273 194.602C398.498 194.966 398.611 195.378 398.611 195.837C398.611 196.374 398.455 196.838 398.143 197.228C397.84 197.618 397.441 197.869 396.947 197.982V198.047C397.51 198.186 397.957 198.459 398.286 198.866C398.615 199.273 398.78 199.806 398.78 200.465C398.78 200.959 398.667 201.405 398.442 201.804C398.217 202.194 397.879 202.502 397.428 202.727C396.977 202.952 396.436 203.065 395.803 203.065C394.884 203.065 394.13 202.827 393.541 202.35C392.952 201.865 392.622 201.18 392.553 200.296H393.697C393.758 200.816 393.97 201.241 394.334 201.57C394.698 201.899 395.183 202.064 395.79 202.064C396.397 202.064 396.856 201.908 397.168 201.596C397.489 201.275 397.649 200.864 397.649 200.361C397.649 199.711 397.432 199.243 396.999 198.957C396.566 198.671 395.911 198.528 395.036 198.528H394.737V197.54H395.049C395.846 197.531 396.449 197.401 396.856 197.15C397.263 196.89 397.467 196.491 397.467 195.954C397.467 195.495 397.315 195.126 397.012 194.849C396.717 194.572 396.293 194.433 395.738 194.433C395.201 194.433 394.767 194.572 394.438 194.849C394.109 195.126 393.914 195.499 393.853 195.967H392.696ZM400.065 194.68V193.601H402.509V203H401.313V194.68H400.065ZM404.398 202.051C405.499 201.167 406.361 200.443 406.985 199.88C407.609 199.308 408.134 198.714 408.558 198.099C408.992 197.475 409.208 196.864 409.208 196.266C409.208 195.703 409.07 195.261 408.792 194.94C408.524 194.611 408.086 194.446 407.479 194.446C406.89 194.446 406.431 194.632 406.101 195.005C405.781 195.369 405.607 195.859 405.581 196.474H404.437C404.472 195.503 404.767 194.754 405.321 194.225C405.876 193.696 406.591 193.432 407.466 193.432C408.359 193.432 409.065 193.679 409.585 194.173C410.114 194.667 410.378 195.347 410.378 196.214C410.378 196.933 410.162 197.635 409.728 198.32C409.304 198.996 408.818 199.594 408.272 200.114C407.726 200.625 407.029 201.223 406.179 201.908H410.651V202.896H404.398V202.051ZM411.993 195.967C412.054 195.17 412.361 194.546 412.916 194.095C413.471 193.644 414.19 193.419 415.074 193.419C415.663 193.419 416.17 193.527 416.595 193.744C417.028 193.952 417.353 194.238 417.57 194.602C417.795 194.966 417.908 195.378 417.908 195.837C417.908 196.374 417.752 196.838 417.44 197.228C417.137 197.618 416.738 197.869 416.244 197.982V198.047C416.807 198.186 417.254 198.459 417.583 198.866C417.912 199.273 418.077 199.806 418.077 200.465C418.077 200.959 417.964 201.405 417.739 201.804C417.514 202.194 417.176 202.502 416.725 202.727C416.274 202.952 415.733 203.065 415.1 203.065C414.181 203.065 413.427 202.827 412.838 202.35C412.249 201.865 411.919 201.18 411.85 200.296H412.994C413.055 200.816 413.267 201.241 413.631 201.57C413.995 201.899 414.48 202.064 415.087 202.064C415.694 202.064 416.153 201.908 416.465 201.596C416.786 201.275 416.946 200.864 416.946 200.361C416.946 199.711 416.729 199.243 416.296 198.957C415.863 198.671 415.208 198.528 414.333 198.528H414.034V197.54H414.346C415.143 197.531 415.746 197.401 416.153 197.15C416.56 196.89 416.764 196.491 416.764 195.954C416.764 195.495 416.612 195.126 416.309 194.849C416.014 194.572 415.59 194.433 415.035 194.433C414.498 194.433 414.064 194.572 413.735 194.849C413.406 195.126 413.211 195.499 413.15 195.967H411.993ZM424.913 195.837C424.722 194.875 424.129 194.394 423.132 194.394C422.361 194.394 421.784 194.693 421.403 195.291C421.022 195.88 420.835 196.855 420.844 198.216C421.043 197.765 421.373 197.414 421.832 197.163C422.3 196.903 422.82 196.773 423.392 196.773C424.285 196.773 424.995 197.05 425.524 197.605C426.061 198.16 426.33 198.927 426.33 199.906C426.33 200.495 426.213 201.024 425.979 201.492C425.754 201.96 425.407 202.333 424.939 202.61C424.48 202.887 423.921 203.026 423.262 203.026C422.369 203.026 421.672 202.827 421.169 202.428C420.666 202.029 420.315 201.479 420.116 200.777C419.917 200.075 419.817 199.208 419.817 198.177C419.817 194.996 420.926 193.406 423.145 193.406C423.994 193.406 424.662 193.636 425.147 194.095C425.632 194.554 425.918 195.135 426.005 195.837H424.913ZM423.145 197.774C422.772 197.774 422.421 197.852 422.092 198.008C421.763 198.155 421.494 198.385 421.286 198.697C421.087 199 420.987 199.373 420.987 199.815C420.987 200.474 421.178 201.011 421.559 201.427C421.94 201.834 422.486 202.038 423.197 202.038C423.804 202.038 424.285 201.852 424.64 201.479C425.004 201.098 425.186 200.586 425.186 199.945C425.186 199.269 425.013 198.74 424.666 198.359C424.319 197.969 423.812 197.774 423.145 197.774ZM427.9 195.967C427.961 195.17 428.268 194.546 428.823 194.095C429.378 193.644 430.097 193.419 430.981 193.419C431.57 193.419 432.077 193.527 432.502 193.744C432.935 193.952 433.26 194.238 433.477 194.602C433.702 194.966 433.815 195.378 433.815 195.837C433.815 196.374 433.659 196.838 433.347 197.228C433.044 197.618 432.645 197.869 432.151 197.982V198.047C432.714 198.186 433.161 198.459 433.49 198.866C433.819 199.273 433.984 199.806 433.984 200.465C433.984 200.959 433.871 201.405 433.646 201.804C433.421 202.194 433.083 202.502 432.632 202.727C432.181 202.952 431.64 203.065 431.007 203.065C430.088 203.065 429.334 202.827 428.745 202.35C428.156 201.865 427.826 201.18 427.757 200.296H428.901C428.962 200.816 429.174 201.241 429.538 201.57C429.902 201.899 430.387 202.064 430.994 202.064C431.601 202.064 432.06 201.908 432.372 201.596C432.693 201.275 432.853 200.864 432.853 200.361C432.853 199.711 432.636 199.243 432.203 198.957C431.77 198.671 431.115 198.528 430.24 198.528H429.941V197.54H430.253C431.05 197.531 431.653 197.401 432.06 197.15C432.467 196.89 432.671 196.491 432.671 195.954C432.671 195.495 432.519 195.126 432.216 194.849C431.921 194.572 431.497 194.433 430.942 194.433C430.405 194.433 429.971 194.572 429.642 194.849C429.313 195.126 429.118 195.499 429.057 195.967H427.9ZM441.574 194.628H437.011V197.592C437.211 197.315 437.505 197.089 437.895 196.916C438.285 196.734 438.706 196.643 439.156 196.643C439.876 196.643 440.461 196.795 440.911 197.098C441.362 197.393 441.683 197.778 441.873 198.255C442.073 198.723 442.172 199.221 442.172 199.75C442.172 200.374 442.055 200.933 441.821 201.427C441.587 201.921 441.228 202.311 440.742 202.597C440.266 202.883 439.672 203.026 438.961 203.026C438.051 203.026 437.315 202.792 436.751 202.324C436.188 201.856 435.846 201.232 435.724 200.452H436.881C436.994 200.946 437.232 201.332 437.596 201.609C437.96 201.886 438.42 202.025 438.974 202.025C439.659 202.025 440.175 201.821 440.521 201.414C440.868 200.998 441.041 200.452 441.041 199.776C441.041 199.1 440.868 198.58 440.521 198.216C440.175 197.843 439.663 197.657 438.987 197.657C438.528 197.657 438.125 197.77 437.778 197.995C437.44 198.212 437.193 198.511 437.037 198.892H435.919V193.588H441.574V194.628ZM448.983 195.837C448.793 194.875 448.199 194.394 447.202 194.394C446.431 194.394 445.855 194.693 445.473 195.291C445.092 195.88 444.906 196.855 444.914 198.216C445.114 197.765 445.443 197.414 445.902 197.163C446.37 196.903 446.89 196.773 447.462 196.773C448.355 196.773 449.066 197.05 449.594 197.605C450.132 198.16 450.4 198.927 450.4 199.906C450.4 200.495 450.283 201.024 450.049 201.492C449.824 201.96 449.477 202.333 449.009 202.61C448.55 202.887 447.991 203.026 447.332 203.026C446.44 203.026 445.742 202.827 445.239 202.428C444.737 202.029 444.386 201.479 444.186 200.777C443.987 200.075 443.887 199.208 443.887 198.177C443.887 194.996 444.997 193.406 447.215 193.406C448.065 193.406 448.732 193.636 449.217 194.095C449.703 194.554 449.989 195.135 450.075 195.837H448.983ZM447.215 197.774C446.843 197.774 446.492 197.852 446.162 198.008C445.833 198.155 445.564 198.385 445.356 198.697C445.157 199 445.057 199.373 445.057 199.815C445.057 200.474 445.248 201.011 445.629 201.427C446.011 201.834 446.557 202.038 447.267 202.038C447.874 202.038 448.355 201.852 448.71 201.479C449.074 201.098 449.256 200.586 449.256 199.945C449.256 199.269 449.083 198.74 448.736 198.359C448.39 197.969 447.883 197.774 447.215 197.774ZM451.97 195.967C452.031 195.17 452.339 194.546 452.893 194.095C453.448 193.644 454.167 193.419 455.051 193.419C455.641 193.419 456.148 193.527 456.572 193.744C457.006 193.952 457.331 194.238 457.547 194.602C457.773 194.966 457.885 195.378 457.885 195.837C457.885 196.374 457.729 196.838 457.417 197.228C457.114 197.618 456.715 197.869 456.221 197.982V198.047C456.785 198.186 457.231 198.459 457.56 198.866C457.89 199.273 458.054 199.806 458.054 200.465C458.054 200.959 457.942 201.405 457.716 201.804C457.491 202.194 457.153 202.502 456.702 202.727C456.252 202.952 455.71 203.065 455.077 203.065C454.159 203.065 453.405 202.827 452.815 202.35C452.226 201.865 451.897 201.18 451.827 200.296H452.971C453.032 200.816 453.244 201.241 453.608 201.57C453.972 201.899 454.458 202.064 455.064 202.064C455.671 202.064 456.13 201.908 456.442 201.596C456.763 201.275 456.923 200.864 456.923 200.361C456.923 199.711 456.707 199.243 456.273 198.957C455.84 198.671 455.186 198.528 454.31 198.528H454.011V197.54H454.323C455.121 197.531 455.723 197.401 456.13 197.15C456.538 196.89 456.741 196.491 456.741 195.954C456.741 195.495 456.59 195.126 456.286 194.849C455.992 194.572 455.567 194.433 455.012 194.433C454.475 194.433 454.042 194.572 453.712 194.849C453.383 195.126 453.188 195.499 453.127 195.967H451.97ZM464.891 195.837C464.7 194.875 464.106 194.394 463.11 194.394C462.338 194.394 461.762 194.693 461.381 195.291C460.999 195.88 460.813 196.855 460.822 198.216C461.021 197.765 461.35 197.414 461.81 197.163C462.278 196.903 462.798 196.773 463.37 196.773C464.262 196.773 464.973 197.05 465.502 197.605C466.039 198.16 466.308 198.927 466.308 199.906C466.308 200.495 466.191 201.024 465.957 201.492C465.731 201.96 465.385 202.333 464.917 202.61C464.457 202.887 463.898 203.026 463.24 203.026C462.347 203.026 461.649 202.827 461.147 202.428C460.644 202.029 460.293 201.479 460.094 200.777C459.894 200.075 459.795 199.208 459.795 198.177C459.795 194.996 460.904 193.406 463.123 193.406C463.972 193.406 464.639 193.636 465.125 194.095C465.61 194.554 465.896 195.135 465.983 195.837H464.891ZM463.123 197.774C462.75 197.774 462.399 197.852 462.07 198.008C461.74 198.155 461.472 198.385 461.264 198.697C461.064 199 460.965 199.373 460.965 199.815C460.965 200.474 461.155 201.011 461.537 201.427C461.918 201.834 462.464 202.038 463.175 202.038C463.781 202.038 464.262 201.852 464.618 201.479C464.982 201.098 465.164 200.586 465.164 199.945C465.164 199.269 464.99 198.74 464.644 198.359C464.297 197.969 463.79 197.774 463.123 197.774ZM473.897 194.628H469.334V197.592C469.533 197.315 469.828 197.089 470.218 196.916C470.608 196.734 471.028 196.643 471.479 196.643C472.198 196.643 472.783 196.795 473.234 197.098C473.684 197.393 474.005 197.778 474.196 198.255C474.395 198.723 474.495 199.221 474.495 199.75C474.495 200.374 474.378 200.933 474.144 201.427C473.91 201.921 473.55 202.311 473.065 202.597C472.588 202.883 471.994 203.026 471.284 203.026C470.374 203.026 469.637 202.792 469.074 202.324C468.51 201.856 468.168 201.232 468.047 200.452H469.204C469.316 200.946 469.555 201.332 469.919 201.609C470.283 201.886 470.742 202.025 471.297 202.025C471.981 202.025 472.497 201.821 472.844 201.414C473.19 200.998 473.364 200.452 473.364 199.776C473.364 199.1 473.19 198.58 472.844 198.216C472.497 197.843 471.986 197.657 471.31 197.657C470.85 197.657 470.447 197.77 470.101 197.995C469.763 198.212 469.516 198.511 469.36 198.892H468.242V193.588H473.897V194.628ZM476.041 195.967C476.101 195.17 476.409 194.546 476.964 194.095C477.518 193.644 478.238 193.419 479.122 193.419C479.711 193.419 480.218 193.527 480.643 193.744C481.076 193.952 481.401 194.238 481.618 194.602C481.843 194.966 481.956 195.378 481.956 195.837C481.956 196.374 481.8 196.838 481.488 197.228C481.184 197.618 480.786 197.869 480.292 197.982V198.047C480.855 198.186 481.301 198.459 481.631 198.866C481.96 199.273 482.125 199.806 482.125 200.465C482.125 200.959 482.012 201.405 481.787 201.804C481.561 202.194 481.223 202.502 480.773 202.727C480.322 202.952 479.78 203.065 479.148 203.065C478.229 203.065 477.475 202.827 476.886 202.35C476.296 201.865 475.967 201.18 475.898 200.296H477.042C477.102 200.816 477.315 201.241 477.679 201.57C478.043 201.899 478.528 202.064 479.135 202.064C479.741 202.064 480.201 201.908 480.513 201.596C480.833 201.275 480.994 200.864 480.994 200.361C480.994 199.711 480.777 199.243 480.344 198.957C479.91 198.671 479.256 198.528 478.381 198.528H478.082V197.54H478.394C479.191 197.531 479.793 197.401 480.201 197.15C480.608 196.89 480.812 196.491 480.812 195.954C480.812 195.495 480.66 195.126 480.357 194.849C480.062 194.572 479.637 194.433 479.083 194.433C478.545 194.433 478.112 194.572 477.783 194.849C477.453 195.126 477.258 195.499 477.198 195.967H476.041ZM488.961 195.837C488.77 194.875 488.177 194.394 487.18 194.394C486.409 194.394 485.832 194.693 485.451 195.291C485.07 195.88 484.883 196.855 484.892 198.216C485.091 197.765 485.421 197.414 485.88 197.163C486.348 196.903 486.868 196.773 487.44 196.773C488.333 196.773 489.043 197.05 489.572 197.605C490.109 198.16 490.378 198.927 490.378 199.906C490.378 200.495 490.261 201.024 490.027 201.492C489.802 201.96 489.455 202.333 488.987 202.61C488.528 202.887 487.969 203.026 487.31 203.026C486.417 203.026 485.72 202.827 485.217 202.428C484.714 202.029 484.363 201.479 484.164 200.777C483.965 200.075 483.865 199.208 483.865 198.177C483.865 194.996 484.974 193.406 487.193 193.406C488.042 193.406 488.71 193.636 489.195 194.095C489.68 194.554 489.966 195.135 490.053 195.837H488.961ZM487.193 197.774C486.82 197.774 486.469 197.852 486.14 198.008C485.811 198.155 485.542 198.385 485.334 198.697C485.135 199 485.035 199.373 485.035 199.815C485.035 200.474 485.226 201.011 485.607 201.427C485.988 201.834 486.534 202.038 487.245 202.038C487.852 202.038 488.333 201.852 488.688 201.479C489.052 201.098 489.234 200.586 489.234 199.945C489.234 199.269 489.061 198.74 488.714 198.359C488.367 197.969 487.86 197.774 487.193 197.774ZM491.662 194.68V193.601H494.106V203H492.91V194.68H491.662ZM497.854 198.112C497.369 197.921 496.996 197.644 496.736 197.28C496.476 196.916 496.346 196.474 496.346 195.954C496.346 195.486 496.463 195.066 496.697 194.693C496.931 194.312 497.278 194.013 497.737 193.796C498.205 193.571 498.768 193.458 499.427 193.458C500.086 193.458 500.645 193.571 501.104 193.796C501.572 194.013 501.923 194.312 502.157 194.693C502.4 195.066 502.521 195.486 502.521 195.954C502.521 196.457 502.387 196.899 502.118 197.28C501.849 197.653 501.481 197.93 501.013 198.112C501.55 198.277 501.975 198.567 502.287 198.983C502.608 199.39 502.768 199.884 502.768 200.465C502.768 201.028 502.629 201.522 502.352 201.947C502.075 202.363 501.68 202.688 501.169 202.922C500.666 203.147 500.086 203.26 499.427 203.26C498.768 203.26 498.188 203.147 497.685 202.922C497.191 202.688 496.805 202.363 496.528 201.947C496.251 201.522 496.112 201.028 496.112 200.465C496.112 199.884 496.268 199.386 496.58 198.97C496.892 198.554 497.317 198.268 497.854 198.112ZM501.377 196.097C501.377 195.568 501.204 195.161 500.857 194.875C500.51 194.589 500.034 194.446 499.427 194.446C498.829 194.446 498.357 194.589 498.01 194.875C497.663 195.161 497.49 195.573 497.49 196.11C497.49 196.595 497.668 196.985 498.023 197.28C498.387 197.575 498.855 197.722 499.427 197.722C500.008 197.722 500.476 197.575 500.831 197.28C501.195 196.977 501.377 196.582 501.377 196.097ZM499.427 198.632C498.786 198.632 498.261 198.784 497.854 199.087C497.447 199.382 497.243 199.828 497.243 200.426C497.243 200.981 497.438 201.427 497.828 201.765C498.227 202.103 498.76 202.272 499.427 202.272C500.094 202.272 500.623 202.103 501.013 201.765C501.403 201.427 501.598 200.981 501.598 200.426C501.598 199.845 501.399 199.403 501 199.1C500.601 198.788 500.077 198.632 499.427 198.632ZM504.196 202.051C505.297 201.167 506.159 200.443 506.783 199.88C507.407 199.308 507.932 198.714 508.356 198.099C508.79 197.475 509.006 196.864 509.006 196.266C509.006 195.703 508.868 195.261 508.59 194.94C508.322 194.611 507.884 194.446 507.277 194.446C506.688 194.446 506.229 194.632 505.899 195.005C505.579 195.369 505.405 195.859 505.379 196.474H504.235C504.27 195.503 504.565 194.754 505.119 194.225C505.674 193.696 506.389 193.432 507.264 193.432C508.157 193.432 508.863 193.679 509.383 194.173C509.912 194.667 510.176 195.347 510.176 196.214C510.176 196.933 509.96 197.635 509.526 198.32C509.102 198.996 508.616 199.594 508.07 200.114C507.524 200.625 506.827 201.223 505.977 201.908H510.449V202.896H504.196V202.051ZM511.791 195.967C511.851 195.17 512.159 194.546 512.714 194.095C513.268 193.644 513.988 193.419 514.872 193.419C515.461 193.419 515.968 193.527 516.393 193.744C516.826 193.952 517.151 194.238 517.368 194.602C517.593 194.966 517.706 195.378 517.706 195.837C517.706 196.374 517.55 196.838 517.238 197.228C516.934 197.618 516.536 197.869 516.042 197.982V198.047C516.605 198.186 517.051 198.459 517.381 198.866C517.71 199.273 517.875 199.806 517.875 200.465C517.875 200.959 517.762 201.405 517.537 201.804C517.311 202.194 516.973 202.502 516.523 202.727C516.072 202.952 515.53 203.065 514.898 203.065C513.979 203.065 513.225 202.827 512.636 202.35C512.046 201.865 511.717 201.18 511.648 200.296H512.792C512.852 200.816 513.065 201.241 513.429 201.57C513.793 201.899 514.278 202.064 514.885 202.064C515.491 202.064 515.951 201.908 516.263 201.596C516.583 201.275 516.744 200.864 516.744 200.361C516.744 199.711 516.527 199.243 516.094 198.957C515.66 198.671 515.006 198.528 514.131 198.528H513.832V197.54H514.144C514.941 197.531 515.543 197.401 515.951 197.15C516.358 196.89 516.562 196.491 516.562 195.954C516.562 195.495 516.41 195.126 516.107 194.849C515.812 194.572 515.387 194.433 514.833 194.433C514.295 194.433 513.862 194.572 513.533 194.849C513.203 195.126 513.008 195.499 512.948 195.967H511.791ZM519.16 194.68V193.601H521.604V203H520.408V194.68H519.16ZM523.493 202.051C524.594 201.167 525.456 200.443 526.08 199.88C526.704 199.308 527.228 198.714 527.653 198.099C528.086 197.475 528.303 196.864 528.303 196.266C528.303 195.703 528.164 195.261 527.887 194.94C527.618 194.611 527.181 194.446 526.574 194.446C525.985 194.446 525.525 194.632 525.196 195.005C524.875 195.369 524.702 195.859 524.676 196.474H523.532C523.567 195.503 523.861 194.754 524.416 194.225C524.971 193.696 525.686 193.432 526.561 193.432C527.454 193.432 528.16 193.679 528.68 194.173C529.209 194.667 529.473 195.347 529.473 196.214C529.473 196.933 529.256 197.635 528.823 198.32C528.398 198.996 527.913 199.594 527.367 200.114C526.821 200.625 526.123 201.223 525.274 201.908H529.746V202.896H523.493V202.051ZM531.088 195.967C531.148 195.17 531.456 194.546 532.011 194.095C532.565 193.644 533.285 193.419 534.169 193.419C534.758 193.419 535.265 193.527 535.69 193.744C536.123 193.952 536.448 194.238 536.665 194.602C536.89 194.966 537.003 195.378 537.003 195.837C537.003 196.374 536.847 196.838 536.535 197.228C536.231 197.618 535.833 197.869 535.339 197.982V198.047C535.902 198.186 536.348 198.459 536.678 198.866C537.007 199.273 537.172 199.806 537.172 200.465C537.172 200.959 537.059 201.405 536.834 201.804C536.608 202.194 536.27 202.502 535.82 202.727C535.369 202.952 534.827 203.065 534.195 203.065C533.276 203.065 532.522 202.827 531.933 202.35C531.343 201.865 531.014 201.18 530.945 200.296H532.089C532.149 200.816 532.362 201.241 532.726 201.57C533.09 201.899 533.575 202.064 534.182 202.064C534.788 202.064 535.248 201.908 535.56 201.596C535.88 201.275 536.041 200.864 536.041 200.361C536.041 199.711 535.824 199.243 535.391 198.957C534.957 198.671 534.303 198.528 533.428 198.528H533.129V197.54H533.441C534.238 197.531 534.84 197.401 535.248 197.15C535.655 196.89 535.859 196.491 535.859 195.954C535.859 195.495 535.707 195.126 535.404 194.849C535.109 194.572 534.684 194.433 534.13 194.433C533.592 194.433 533.159 194.572 532.83 194.849C532.5 195.126 532.305 195.499 532.245 195.967H531.088ZM539.341 203.078C539.116 203.078 538.925 203 538.769 202.844C538.613 202.688 538.535 202.497 538.535 202.272C538.535 202.047 538.613 201.856 538.769 201.7C538.925 201.544 539.116 201.466 539.341 201.466C539.558 201.466 539.74 201.544 539.887 201.7C540.043 201.856 540.121 202.047 540.121 202.272C540.121 202.497 540.043 202.688 539.887 202.844C539.74 203 539.558 203.078 539.341 203.078ZM541.251 199.425C541.251 198.688 541.399 198.047 541.693 197.501C541.988 196.946 542.395 196.517 542.915 196.214C543.444 195.911 544.046 195.759 544.722 195.759C545.598 195.759 546.317 195.971 546.88 196.396C547.452 196.821 547.829 197.41 548.011 198.164H546.737C546.616 197.731 546.378 197.388 546.022 197.137C545.676 196.886 545.242 196.76 544.722 196.76C544.046 196.76 543.5 196.994 543.084 197.462C542.668 197.921 542.46 198.576 542.46 199.425C542.46 200.283 542.668 200.946 543.084 201.414C543.5 201.882 544.046 202.116 544.722 202.116C545.242 202.116 545.676 201.995 546.022 201.752C546.369 201.509 546.607 201.163 546.737 200.712H548.011C547.821 201.44 547.439 202.025 546.867 202.467C546.295 202.9 545.58 203.117 544.722 203.117C544.046 203.117 543.444 202.965 542.915 202.662C542.395 202.359 541.988 201.93 541.693 201.375C541.399 200.82 541.251 200.17 541.251 199.425ZM552.112 203.117C551.566 203.117 551.076 203.026 550.643 202.844C550.21 202.653 549.867 202.393 549.616 202.064C549.365 201.726 549.226 201.34 549.2 200.907H550.422C550.457 201.262 550.621 201.553 550.916 201.778C551.219 202.003 551.614 202.116 552.099 202.116C552.55 202.116 552.905 202.016 553.165 201.817C553.425 201.618 553.555 201.366 553.555 201.063C553.555 200.751 553.416 200.521 553.139 200.374C552.862 200.218 552.433 200.066 551.852 199.919C551.323 199.78 550.89 199.642 550.552 199.503C550.223 199.356 549.937 199.143 549.694 198.866C549.46 198.58 549.343 198.207 549.343 197.748C549.343 197.384 549.451 197.05 549.668 196.747C549.885 196.444 550.192 196.205 550.591 196.032C550.99 195.85 551.445 195.759 551.956 195.759C552.745 195.759 553.382 195.958 553.867 196.357C554.352 196.756 554.612 197.302 554.647 197.995H553.464C553.438 197.622 553.286 197.323 553.009 197.098C552.74 196.873 552.376 196.76 551.917 196.76C551.492 196.76 551.154 196.851 550.903 197.033C550.652 197.215 550.526 197.453 550.526 197.748C550.526 197.982 550.6 198.177 550.747 198.333C550.903 198.48 551.094 198.602 551.319 198.697C551.553 198.784 551.874 198.883 552.281 198.996C552.792 199.135 553.208 199.273 553.529 199.412C553.85 199.542 554.123 199.741 554.348 200.01C554.582 200.279 554.703 200.63 554.712 201.063C554.712 201.453 554.604 201.804 554.387 202.116C554.17 202.428 553.863 202.675 553.464 202.857C553.074 203.03 552.623 203.117 552.112 203.117ZM559.034 201.908L561.244 195.876H562.505L559.71 203H558.332L555.537 195.876H556.811L559.034 201.908Z" fill="#ADB3C0"/>
<path d="M153.996 52L152.502 49.435H151.512V52H150.693V45.727H152.718C153.192 45.727 153.591 45.808 153.915 45.97C154.245 46.132 154.491 46.351 154.653 46.627C154.815 46.903 154.896 47.218 154.896 47.572C154.896 48.004 154.77 48.385 154.518 48.715C154.272 49.045 153.9 49.264 153.402 49.372L154.977 52H153.996ZM151.512 48.778H152.718C153.162 48.778 153.495 48.67 153.717 48.454C153.939 48.232 154.05 47.938 154.05 47.572C154.05 47.2 153.939 46.912 153.717 46.708C153.501 46.504 153.168 46.402 152.718 46.402H151.512V48.778ZM161.169 49.345C161.169 49.501 161.16 49.666 161.142 49.84H157.2C157.23 50.326 157.395 50.707 157.695 50.983C158.001 51.253 158.37 51.388 158.802 51.388C159.156 51.388 159.45 51.307 159.684 51.145C159.924 50.977 160.092 50.755 160.188 50.479H161.07C160.938 50.953 160.674 51.34 160.278 51.64C159.882 51.934 159.39 52.081 158.802 52.081C158.334 52.081 157.914 51.976 157.542 51.766C157.176 51.556 156.888 51.259 156.678 50.875C156.468 50.485 156.363 50.035 156.363 49.525C156.363 49.015 156.465 48.568 156.669 48.184C156.873 47.8 157.158 47.506 157.524 47.302C157.896 47.092 158.322 46.987 158.802 46.987C159.27 46.987 159.684 47.089 160.044 47.293C160.404 47.497 160.68 47.779 160.872 48.139C161.07 48.493 161.169 48.895 161.169 49.345ZM160.323 49.174C160.323 48.862 160.254 48.595 160.116 48.373C159.978 48.145 159.789 47.974 159.549 47.86C159.315 47.74 159.054 47.68 158.766 47.68C158.352 47.68 157.998 47.812 157.704 48.076C157.416 48.34 157.251 48.706 157.209 49.174H160.323ZM162.444 49.516C162.444 49.012 162.546 48.571 162.75 48.193C162.954 47.809 163.233 47.512 163.587 47.302C163.947 47.092 164.346 46.987 164.784 46.987C165.216 46.987 165.591 47.08 165.909 47.266C166.227 47.452 166.464 47.686 166.62 47.968V47.068H167.448V52H166.62V51.082C166.458 51.37 166.215 51.61 165.891 51.802C165.573 51.988 165.201 52.081 164.775 52.081C164.337 52.081 163.941 51.973 163.587 51.757C163.233 51.541 162.954 51.238 162.75 50.848C162.546 50.458 162.444 50.014 162.444 49.516ZM166.62 49.525C166.62 49.153 166.545 48.829 166.395 48.553C166.245 48.277 166.041 48.067 165.783 47.923C165.531 47.773 165.252 47.698 164.946 47.698C164.64 47.698 164.361 47.77 164.109 47.914C163.857 48.058 163.656 48.268 163.506 48.544C163.356 48.82 163.281 49.144 163.281 49.516C163.281 49.894 163.356 50.224 163.506 50.506C163.656 50.782 163.857 50.995 164.109 51.145C164.361 51.289 164.64 51.361 164.946 51.361C165.252 51.361 165.531 51.289 165.783 51.145C166.041 50.995 166.245 50.782 166.395 50.506C166.545 50.224 166.62 49.897 166.62 49.525ZM169.026 49.516C169.026 49.012 169.128 48.571 169.332 48.193C169.536 47.809 169.815 47.512 170.169 47.302C170.529 47.092 170.931 46.987 171.375 46.987C171.759 46.987 172.116 47.077 172.446 47.257C172.776 47.431 173.028 47.662 173.202 47.95V45.34H174.03V52H173.202V51.073C173.04 51.367 172.8 51.61 172.482 51.802C172.164 51.988 171.792 52.081 171.366 52.081C170.928 52.081 170.529 51.973 170.169 51.757C169.815 51.541 169.536 51.238 169.332 50.848C169.128 50.458 169.026 50.014 169.026 49.516ZM173.202 49.525C173.202 49.153 173.127 48.829 172.977 48.553C172.827 48.277 172.623 48.067 172.365 47.923C172.113 47.773 171.834 47.698 171.528 47.698C171.222 47.698 170.943 47.77 170.691 47.914C170.439 48.058 170.238 48.268 170.088 48.544C169.938 48.82 169.863 49.144 169.863 49.516C169.863 49.894 169.938 50.224 170.088 50.506C170.238 50.782 170.439 50.995 170.691 51.145C170.943 51.289 171.222 51.361 171.528 51.361C171.834 51.361 172.113 51.289 172.365 51.145C172.623 50.995 172.827 50.782 172.977 50.506C173.127 50.224 173.202 49.897 173.202 49.525ZM180.162 47.068L177.192 54.322H176.346L177.318 51.946L175.329 47.068H176.238L177.786 51.064L179.316 47.068H180.162Z" fill="#394253"/>
<rect x="151" y="30" width="10" height="10" fill="#3C1EFF"/>
<path d="M353.64 168.82C353.64 156.058 356.153 143.421 361.037 131.631C365.921 119.84 373.079 109.127 382.103 100.103C391.127 91.0792 401.84 83.921 413.631 79.0372C425.421 74.1534 438.058 71.6398 450.82 71.6398C463.582 71.6398 476.219 74.1534 488.009 79.0372C499.8 83.921 510.513 91.0792 519.537 100.103C528.561 109.127 535.719 119.84 540.603 131.631C545.486 143.421 548 156.058 548 168.82L450.82 168.82L353.64 168.82Z" fill="#ADB3C0"/>
<path opacity="0.8" d="M510.457 92.0916C496.079 80.9161 478.849 74.0054 460.734 72.1476C442.618 70.2899 424.345 73.5597 407.997 81.5843C391.65 89.609 377.886 102.065 368.275 117.534C358.664 133.002 353.593 150.859 353.64 169.07L450.82 168.821L510.457 92.0916Z" fill="#52DE97"/>
<path d="M358.288 169.603C358.185 157.379 360.505 145.255 365.115 133.933C369.724 122.61 376.531 112.313 385.143 103.636C393.755 94.9597 404.001 88.0756 415.289 83.3816C426.577 78.6876 438.683 76.2767 450.908 76.2883C463.133 76.3 475.234 78.7338 486.513 83.4493C497.792 88.1648 508.025 95.0684 516.62 103.761C525.216 112.454 532.004 122.764 536.592 134.096C541.18 145.427 543.477 157.555 543.351 169.779L450.82 168.824L358.288 169.603Z" fill="#F9F9F9"/>
<path d="M342.907 165.679C342.907 164.647 343.075 163.843 343.411 163.267C343.747 162.685 344.335 162.394 345.175 162.394C346.009 162.394 346.594 162.685 346.93 163.267C347.266 163.843 347.434 164.647 347.434 165.679C347.434 166.729 347.266 167.545 346.93 168.127C346.594 168.709 346.009 169 345.175 169C344.335 169 343.747 168.709 343.411 168.127C343.075 167.545 342.907 166.729 342.907 165.679ZM346.624 165.679C346.624 165.157 346.588 164.716 346.516 164.356C346.45 163.99 346.309 163.696 346.093 163.474C345.883 163.252 345.577 163.141 345.175 163.141C344.767 163.141 344.455 163.252 344.239 163.474C344.029 163.696 343.888 163.99 343.816 164.356C343.75 164.716 343.717 165.157 343.717 165.679C343.717 166.219 343.75 166.672 343.816 167.038C343.888 167.404 344.029 167.698 344.239 167.92C344.455 168.142 344.767 168.253 345.175 168.253C345.577 168.253 345.883 168.142 346.093 167.92C346.309 167.698 346.45 167.404 346.516 167.038C346.588 166.672 346.624 166.219 346.624 165.679Z" fill="#ADB3C0"/>
<path d="M553.342 163.24V162.493H555.034V169H554.206V163.24H553.342ZM556.441 165.679C556.441 164.647 556.609 163.843 556.945 163.267C557.281 162.685 557.869 162.394 558.709 162.394C559.543 162.394 560.128 162.685 560.464 163.267C560.8 163.843 560.968 164.647 560.968 165.679C560.968 166.729 560.8 167.545 560.464 168.127C560.128 168.709 559.543 169 558.709 169C557.869 169 557.281 168.709 556.945 168.127C556.609 167.545 556.441 166.729 556.441 165.679ZM560.158 165.679C560.158 165.157 560.122 164.716 560.05 164.356C559.984 163.99 559.843 163.696 559.627 163.474C559.417 163.252 559.111 163.141 558.709 163.141C558.301 163.141 557.989 163.252 557.773 163.474C557.563 163.696 557.422 163.99 557.35 164.356C557.284 164.716 557.251 165.157 557.251 165.679C557.251 166.219 557.284 166.672 557.35 167.038C557.422 167.404 557.563 167.698 557.773 167.92C557.989 168.142 558.301 168.253 558.709 168.253C559.111 168.253 559.417 168.142 559.627 167.92C559.843 167.698 559.984 167.404 560.05 167.038C560.122 166.672 560.158 166.219 560.158 165.679ZM562.092 165.679C562.092 164.647 562.26 163.843 562.596 163.267C562.932 162.685 563.52 162.394 564.36 162.394C565.194 162.394 565.779 162.685 566.115 163.267C566.451 163.843 566.619 164.647 566.619 165.679C566.619 166.729 566.451 167.545 566.115 168.127C565.779 168.709 565.194 169 564.36 169C563.52 169 562.932 168.709 562.596 168.127C562.26 167.545 562.092 166.729 562.092 165.679ZM565.809 165.679C565.809 165.157 565.773 164.716 565.701 164.356C565.635 163.99 565.494 163.696 565.278 163.474C565.068 163.252 564.762 163.141 564.36 163.141C563.952 163.141 563.64 163.252 563.424 163.474C563.214 163.696 563.073 163.99 563.001 164.356C562.935 164.716 562.902 165.157 562.902 165.679C562.902 166.219 562.935 166.672 563.001 167.038C563.073 167.404 563.214 167.698 563.424 167.92C563.64 168.142 563.952 168.253 564.36 168.253C564.762 168.253 565.068 168.142 565.278 167.92C565.494 167.698 565.635 167.404 565.701 167.038C565.773 166.672 565.809 166.219 565.809 165.679Z" fill="#ADB3C0"/>
<path d="M404.62 125.328C404.62 121.2 405.412 117.948 406.996 115.572C408.604 113.196 411.184 112.008 414.736 112.008C418.288 112.008 420.856 113.196 422.44 115.572C424.048 117.948 424.852 121.2 424.852 125.328C424.852 129.504 424.048 132.78 422.44 135.156C420.856 137.532 418.288 138.72 414.736 138.72C411.184 138.72 408.604 137.532 406.996 135.156C405.412 132.78 404.62 129.504 404.62 125.328ZM418.804 125.328C418.804 122.904 418.54 121.044 418.012 119.748C417.484 118.428 416.392 117.768 414.736 117.768C413.08 117.768 411.988 118.428 411.46 119.748C410.932 121.044 410.668 122.904 410.668 125.328C410.668 126.96 410.764 128.316 410.956 129.396C411.148 130.452 411.532 131.316 412.108 131.988C412.708 132.636 413.584 132.96 414.736 132.96C415.888 132.96 416.752 132.636 417.328 131.988C417.928 131.316 418.324 130.452 418.516 129.396C418.708 128.316 418.804 126.96 418.804 125.328ZM431.596 139.116C430.516 139.116 429.628 138.804 428.932 138.18C428.26 137.532 427.924 136.74 427.924 135.804C427.924 134.844 428.26 134.04 428.932 133.392C429.628 132.744 430.516 132.42 431.596 132.42C432.652 132.42 433.516 132.744 434.188 133.392C434.884 134.04 435.232 134.844 435.232 135.804C435.232 136.74 434.884 137.532 434.188 138.18C433.516 138.804 432.652 139.116 431.596 139.116ZM442.585 124.716C440.329 123.516 439.201 121.632 439.201 119.064C439.201 117.768 439.537 116.592 440.209 115.536C440.881 114.456 441.901 113.604 443.269 112.98C444.637 112.332 446.317 112.008 448.309 112.008C450.301 112.008 451.969 112.332 453.313 112.98C454.681 113.604 455.701 114.456 456.373 115.536C457.045 116.592 457.381 117.768 457.381 119.064C457.381 120.36 457.069 121.488 456.445 122.448C455.845 123.408 455.029 124.164 453.997 124.716C455.293 125.34 456.289 126.204 456.985 127.308C457.681 128.388 458.029 129.66 458.029 131.124C458.029 132.828 457.597 134.304 456.733 135.552C455.869 136.776 454.693 137.712 453.205 138.36C451.741 139.008 450.109 139.332 448.309 139.332C446.509 139.332 444.865 139.008 443.377 138.36C441.913 137.712 440.749 136.776 439.885 135.552C439.021 134.304 438.589 132.828 438.589 131.124C438.589 129.636 438.937 128.352 439.633 127.272C440.329 126.168 441.313 125.316 442.585 124.716ZM451.405 120C451.405 119.016 451.117 118.26 450.541 117.732C449.989 117.18 449.245 116.904 448.309 116.904C447.373 116.904 446.617 117.18 446.041 117.732C445.489 118.284 445.213 119.052 445.213 120.036C445.213 120.972 445.501 121.716 446.077 122.268C446.653 122.796 447.397 123.06 448.309 123.06C449.221 123.06 449.965 122.784 450.541 122.232C451.117 121.68 451.405 120.936 451.405 120ZM448.309 127.38C447.181 127.38 446.269 127.692 445.573 128.316C444.877 128.916 444.529 129.756 444.529 130.836C444.529 131.844 444.865 132.672 445.537 133.32C446.233 133.968 447.157 134.292 448.309 134.292C449.461 134.292 450.361 133.968 451.009 133.32C451.681 132.672 452.017 131.844 452.017 130.836C452.017 129.78 451.669 128.94 450.973 128.316C450.301 127.692 449.413 127.38 448.309 127.38ZM460.96 118.272V112.548H470.932V138.828H464.524V118.272H460.96ZM474.495 118.272V112.548H484.467V138.828H478.059V118.272H474.495Z" fill="#394253"/>
<path d="M393.47 168.933C392.78 168.933 392.16 168.813 391.61 168.573C391.07 168.323 390.645 167.983 390.335 167.553C390.025 167.113 389.865 166.608 389.855 166.038H391.31C391.36 166.528 391.56 166.943 391.91 167.283C392.27 167.613 392.79 167.778 393.47 167.778C394.12 167.778 394.63 167.618 395 167.298C395.38 166.968 395.57 166.548 395.57 166.038C395.57 165.638 395.46 165.313 395.24 165.063C395.02 164.813 394.745 164.623 394.415 164.493C394.085 164.363 393.64 164.223 393.08 164.073C392.39 163.893 391.835 163.713 391.415 163.533C391.005 163.353 390.65 163.073 390.35 162.693C390.06 162.303 389.915 161.783 389.915 161.133C389.915 160.563 390.06 160.058 390.35 159.618C390.64 159.178 391.045 158.838 391.565 158.598C392.095 158.358 392.7 158.238 393.38 158.238C394.36 158.238 395.16 158.483 395.78 158.973C396.41 159.463 396.765 160.113 396.845 160.923H395.345C395.295 160.523 395.085 160.173 394.715 159.873C394.345 159.563 393.855 159.408 393.245 159.408C392.675 159.408 392.21 159.558 391.85 159.858C391.49 160.148 391.31 160.558 391.31 161.088C391.31 161.468 391.415 161.778 391.625 162.018C391.845 162.258 392.11 162.443 392.42 162.573C392.74 162.693 393.185 162.833 393.755 162.993C394.445 163.183 395 163.373 395.42 163.563C395.84 163.743 396.2 164.028 396.5 164.418C396.8 164.798 396.95 165.318 396.95 165.978C396.95 166.488 396.815 166.968 396.545 167.418C396.275 167.868 395.875 168.233 395.345 168.513C394.815 168.793 394.19 168.933 393.47 168.933ZM399.664 159.273C399.404 159.273 399.184 159.183 399.004 159.003C398.824 158.823 398.734 158.603 398.734 158.343C398.734 158.083 398.824 157.863 399.004 157.683C399.184 157.503 399.404 157.413 399.664 157.413C399.914 157.413 400.124 157.503 400.294 157.683C400.474 157.863 400.564 158.083 400.564 158.343C400.564 158.603 400.474 158.823 400.294 159.003C400.124 159.183 399.914 159.273 399.664 159.273ZM400.324 160.608V168.828H398.959V160.608H400.324ZM404.015 157.728V168.828H402.65V157.728H404.015ZM410.422 160.458C411.042 160.458 411.602 160.593 412.102 160.863C412.602 161.123 412.992 161.518 413.272 162.048C413.562 162.578 413.707 163.223 413.707 163.983V168.828H412.357V164.178C412.357 163.358 412.152 162.733 411.742 162.303C411.332 161.863 410.772 161.643 410.062 161.643C409.342 161.643 408.767 161.868 408.337 162.318C407.917 162.768 407.707 163.423 407.707 164.283V168.828H406.342V157.728H407.707V161.778C407.977 161.358 408.347 161.033 408.817 160.803C409.297 160.573 409.832 160.458 410.422 160.458ZM419.521 168.963C418.751 168.963 418.051 168.788 417.421 168.438C416.801 168.088 416.311 167.593 415.951 166.953C415.601 166.303 415.426 165.553 415.426 164.703C415.426 163.863 415.606 163.123 415.966 162.483C416.336 161.833 416.836 161.338 417.466 160.998C418.096 160.648 418.801 160.473 419.581 160.473C420.361 160.473 421.066 160.648 421.696 160.998C422.326 161.338 422.821 161.828 423.181 162.468C423.551 163.108 423.736 163.853 423.736 164.703C423.736 165.553 423.546 166.303 423.166 166.953C422.796 167.593 422.291 168.088 421.651 168.438C421.011 168.788 420.301 168.963 419.521 168.963ZM419.521 167.763C420.011 167.763 420.471 167.648 420.901 167.418C421.331 167.188 421.676 166.843 421.936 166.383C422.206 165.923 422.341 165.363 422.341 164.703C422.341 164.043 422.211 163.483 421.951 163.023C421.691 162.563 421.351 162.223 420.931 162.003C420.511 161.773 420.056 161.658 419.566 161.658C419.066 161.658 418.606 161.773 418.186 162.003C417.776 162.223 417.446 162.563 417.196 163.023C416.946 163.483 416.821 164.043 416.821 164.703C416.821 165.373 416.941 165.938 417.181 166.398C417.431 166.858 417.761 167.203 418.171 167.433C418.581 167.653 419.031 167.763 419.521 167.763ZM432.821 160.608V168.828H431.456V167.613C431.196 168.033 430.831 168.363 430.361 168.603C429.901 168.833 429.391 168.948 428.831 168.948C428.191 168.948 427.616 168.818 427.106 168.558C426.596 168.288 426.191 167.888 425.891 167.358C425.601 166.828 425.456 166.183 425.456 165.423V160.608H426.806V165.243C426.806 166.053 427.011 166.678 427.421 167.118C427.831 167.548 428.391 167.763 429.101 167.763C429.831 167.763 430.406 167.538 430.826 167.088C431.246 166.638 431.456 165.983 431.456 165.123V160.608H432.821ZM442.626 164.403C442.626 164.663 442.611 164.938 442.581 165.228H436.011C436.061 166.038 436.336 166.673 436.836 167.133C437.346 167.583 437.961 167.808 438.681 167.808C439.271 167.808 439.761 167.673 440.151 167.403C440.551 167.123 440.831 166.753 440.991 166.293H442.461C442.241 167.083 441.801 167.728 441.141 168.228C440.481 168.718 439.661 168.963 438.681 168.963C437.901 168.963 437.201 168.788 436.581 168.438C435.971 168.088 435.491 167.593 435.141 166.953C434.791 166.303 434.616 165.553 434.616 164.703C434.616 163.853 434.786 163.108 435.126 162.468C435.466 161.828 435.941 161.338 436.551 160.998C437.171 160.648 437.881 160.473 438.681 160.473C439.461 160.473 440.151 160.643 440.751 160.983C441.351 161.323 441.811 161.793 442.131 162.393C442.461 162.983 442.626 163.653 442.626 164.403ZM441.216 164.118C441.216 163.598 441.101 163.153 440.871 162.783C440.641 162.403 440.326 162.118 439.926 161.928C439.536 161.728 439.101 161.628 438.621 161.628C437.931 161.628 437.341 161.848 436.851 162.288C436.371 162.728 436.096 163.338 436.026 164.118H441.216ZM446.092 161.733V166.578C446.092 166.978 446.177 167.263 446.347 167.433C446.517 167.593 446.812 167.673 447.232 167.673H448.237V168.828H447.007C446.247 168.828 445.677 168.653 445.297 168.303C444.917 167.953 444.727 167.378 444.727 166.578V161.733H443.662V160.608H444.727V158.538H446.092V160.608H448.237V161.733H446.092ZM451.556 161.733V166.578C451.556 166.978 451.641 167.263 451.811 167.433C451.981 167.593 452.276 167.673 452.696 167.673H453.701V168.828H452.471C451.711 168.828 451.141 168.653 450.761 168.303C450.381 167.953 450.191 167.378 450.191 166.578V161.733H449.126V160.608H450.191V158.538H451.556V160.608H453.701V161.733H451.556ZM462.855 164.403C462.855 164.663 462.84 164.938 462.81 165.228H456.24C456.29 166.038 456.565 166.673 457.065 167.133C457.575 167.583 458.19 167.808 458.91 167.808C459.5 167.808 459.99 167.673 460.38 167.403C460.78 167.123 461.06 166.753 461.22 166.293H462.69C462.47 167.083 462.03 167.728 461.37 168.228C460.71 168.718 459.89 168.963 458.91 168.963C458.13 168.963 457.43 168.788 456.81 168.438C456.2 168.088 455.72 167.593 455.37 166.953C455.02 166.303 454.845 165.553 454.845 164.703C454.845 163.853 455.015 163.108 455.355 162.468C455.695 161.828 456.17 161.338 456.78 160.998C457.4 160.648 458.11 160.473 458.91 160.473C459.69 160.473 460.38 160.643 460.98 160.983C461.58 161.323 462.04 161.793 462.36 162.393C462.69 162.983 462.855 163.653 462.855 164.403ZM461.445 164.118C461.445 163.598 461.33 163.153 461.1 162.783C460.87 162.403 460.555 162.118 460.155 161.928C459.765 161.728 459.33 161.628 458.85 161.628C458.16 161.628 457.57 161.848 457.08 162.288C456.6 162.728 456.325 163.338 456.255 164.118H461.445ZM471.566 168.963C470.936 168.963 470.371 168.858 469.871 168.648C469.371 168.428 468.976 168.128 468.686 167.748C468.396 167.358 468.236 166.913 468.206 166.413H469.616C469.656 166.823 469.846 167.158 470.186 167.418C470.536 167.678 470.991 167.808 471.551 167.808C472.071 167.808 472.481 167.693 472.781 167.463C473.081 167.233 473.231 166.943 473.231 166.593C473.231 166.233 473.071 165.968 472.751 165.798C472.431 165.618 471.936 165.443 471.266 165.273C470.656 165.113 470.156 164.953 469.766 164.793C469.386 164.623 469.056 164.378 468.776 164.058C468.506 163.728 468.371 163.298 468.371 162.768C468.371 162.348 468.496 161.963 468.746 161.613C468.996 161.263 469.351 160.988 469.811 160.788C470.271 160.578 470.796 160.473 471.386 160.473C472.296 160.473 473.031 160.703 473.591 161.163C474.151 161.623 474.451 162.253 474.491 163.053H473.126C473.096 162.623 472.921 162.278 472.601 162.018C472.291 161.758 471.871 161.628 471.341 161.628C470.851 161.628 470.461 161.733 470.171 161.943C469.881 162.153 469.736 162.428 469.736 162.768C469.736 163.038 469.821 163.263 469.991 163.443C470.171 163.613 470.391 163.753 470.651 163.863C470.921 163.963 471.291 164.078 471.761 164.208C472.351 164.368 472.831 164.528 473.201 164.688C473.571 164.838 473.886 165.068 474.146 165.378C474.416 165.688 474.556 166.093 474.566 166.593C474.566 167.043 474.441 167.448 474.191 167.808C473.941 168.168 473.586 168.453 473.126 168.663C472.676 168.863 472.156 168.963 471.566 168.963ZM475.983 164.703C475.983 163.853 476.153 163.113 476.493 162.483C476.833 161.843 477.303 161.348 477.903 160.998C478.513 160.648 479.208 160.473 479.988 160.473C480.998 160.473 481.828 160.718 482.478 161.208C483.138 161.698 483.573 162.378 483.783 163.248H482.313C482.173 162.748 481.898 162.353 481.488 162.063C481.088 161.773 480.588 161.628 479.988 161.628C479.208 161.628 478.578 161.898 478.098 162.438C477.618 162.968 477.378 163.723 477.378 164.703C477.378 165.693 477.618 166.458 478.098 166.998C478.578 167.538 479.208 167.808 479.988 167.808C480.588 167.808 481.088 167.668 481.488 167.388C481.888 167.108 482.163 166.708 482.313 166.188H483.783C483.563 167.028 483.123 167.703 482.463 168.213C481.803 168.713 480.978 168.963 479.988 168.963C479.208 168.963 478.513 168.788 477.903 168.438C477.303 168.088 476.833 167.593 476.493 166.953C476.153 166.313 475.983 165.563 475.983 164.703ZM489.189 168.963C488.419 168.963 487.719 168.788 487.089 168.438C486.469 168.088 485.979 167.593 485.619 166.953C485.269 166.303 485.094 165.553 485.094 164.703C485.094 163.863 485.274 163.123 485.634 162.483C486.004 161.833 486.504 161.338 487.134 160.998C487.764 160.648 488.469 160.473 489.249 160.473C490.029 160.473 490.734 160.648 491.364 160.998C491.994 161.338 492.489 161.828 492.849 162.468C493.219 163.108 493.404 163.853 493.404 164.703C493.404 165.553 493.214 166.303 492.834 166.953C492.464 167.593 491.959 168.088 491.319 168.438C490.679 168.788 489.969 168.963 489.189 168.963ZM489.189 167.763C489.679 167.763 490.139 167.648 490.569 167.418C490.999 167.188 491.344 166.843 491.604 166.383C491.874 165.923 492.009 165.363 492.009 164.703C492.009 164.043 491.879 163.483 491.619 163.023C491.359 162.563 491.019 162.223 490.599 162.003C490.179 161.773 489.724 161.658 489.234 161.658C488.734 161.658 488.274 161.773 487.854 162.003C487.444 162.223 487.114 162.563 486.864 163.023C486.614 163.483 486.489 164.043 486.489 164.703C486.489 165.373 486.609 165.938 486.849 166.398C487.099 166.858 487.429 167.203 487.839 167.433C488.249 167.653 488.699 167.763 489.189 167.763ZM496.564 161.943C496.804 161.473 497.144 161.108 497.584 160.848C498.034 160.588 498.579 160.458 499.219 160.458V161.868H498.859C497.329 161.868 496.564 162.698 496.564 164.358V168.828H495.199V160.608H496.564V161.943ZM508.295 164.403C508.295 164.663 508.28 164.938 508.25 165.228H501.68C501.73 166.038 502.005 166.673 502.505 167.133C503.015 167.583 503.63 167.808 504.35 167.808C504.94 167.808 505.43 167.673 505.82 167.403C506.22 167.123 506.5 166.753 506.66 166.293H508.13C507.91 167.083 507.47 167.728 506.81 168.228C506.15 168.718 505.33 168.963 504.35 168.963C503.57 168.963 502.87 168.788 502.25 168.438C501.64 168.088 501.16 167.593 500.81 166.953C500.46 166.303 500.285 165.553 500.285 164.703C500.285 163.853 500.455 163.108 500.795 162.468C501.135 161.828 501.61 161.338 502.22 160.998C502.84 160.648 503.55 160.473 504.35 160.473C505.13 160.473 505.82 160.643 506.42 160.983C507.02 161.323 507.48 161.793 507.8 162.393C508.13 162.983 508.295 163.653 508.295 164.403ZM506.885 164.118C506.885 163.598 506.77 163.153 506.54 162.783C506.31 162.403 505.995 162.118 505.595 161.928C505.205 161.728 504.77 161.628 504.29 161.628C503.6 161.628 503.01 161.848 502.52 162.288C502.04 162.728 501.765 163.338 501.695 164.118H506.885Z" fill="#394253" fill-opacity="0.8"/>
<rect width="11.4286" height="11.4286" transform="translate(520.738 157.938)" fill="#394253"/>
<rect width="11.4286" height="11.4286" transform="translate(520.738 157.938)" fill="white"/>
<rect x="521.309" y="158.509" width="10.2857" height="10.2857" rx="5.14286" stroke="#52DE97" stroke-width="1.14286"/>
<path d="M526.452 162.08L526.452 166.917M526.452 161.354L526.452 160.387" stroke="#52DE97" stroke-width="1.14286"/>
<path d="M521.828 79.292C523.879 81.1408 523.708 84.6738 521.859 86.725C520.447 88.2926 515.896 88.9798 513.829 89.2168C513.262 89.2817 512.779 88.8461 512.785 88.2756C512.806 86.1948 513.018 81.5977 514.431 80.0301C516.28 77.9789 519.776 77.4433 521.828 79.292Z" fill="#E7E7EF"/>
</g>
<defs>
<filter id="filter0_d_125_17513" x="0" y="0" width="623" height="236" filterUnits="userSpaceOnUse" color-interpolation-filters="sRGB">
<feFlood flood-opacity="0" result="BackgroundImageFix"/>
<feColorMatrix in="SourceAlpha" type="matrix" values="0 0 0 0 0 0 0 0 0 0 0 0 0 0 0 0 0 0 127 0" result="hardAlpha"/>
<feOffset dy="2"/>
<feGaussianBlur stdDeviation="3"/>
<feColorMatrix type="matrix" values="0 0 0 0 0.313854 0 0 0 0 0.402307 0 0 0 0 0.575 0 0 0 0.29 0"/>
<feBlend mode="normal" in2="BackgroundImageFix" result="effect1_dropShadow_125_17513"/>
<feBlend mode="normal" in="SourceGraphic" in2="effect1_dropShadow_125_17513" result="shape"/>
</filter>
</defs>
</svg>
