<svg width="206" height="206" viewBox="0 0 206 206" fill="none" xmlns="http://www.w3.org/2000/svg">
<path d="M165.312 109.475L154.629 94.1717C154.592 94.118 154.54 94.076 154.48 94.0504C154.42 94.0249 154.354 94.0169 154.289 94.0274C154.224 94.0378 154.164 94.0663 154.115 94.1095C154.066 94.1528 154.03 94.209 154.011 94.2718L150.798 104.866L150.362 105.096L121.94 96.4789C123.496 95.2661 125.159 94.1965 126.908 93.283C132.048 90.5268 136.268 86.3236 139.044 81.1937H139.085C139.321 80.7699 139.491 80.305 139.709 79.8694C139.927 79.4339 140.145 78.9689 140.345 78.5216C144.558 69.5097 145.234 59.2448 142.24 49.7581C137.885 35.7324 126.296 24.7379 111.952 21.5949C85.6724 15.8387 61.9236 36.3092 61.9236 61.7002C61.9431 67.5048 63.2159 73.2367 65.6551 78.5039C65.8611 78.9689 66.0848 79.4339 66.3143 79.8988C66.5438 80.3638 66.6969 80.7758 66.9029 81.1937H66.9441C69.7202 86.3236 73.9398 90.5268 79.0804 93.283C80.8291 94.1965 82.4917 95.2661 84.048 96.4789L55.6376 105.049L55.2021 104.819L51.9885 94.2247C51.9688 94.1621 51.9321 94.1062 51.8825 94.0633C51.8328 94.0204 51.7722 93.9921 51.7075 93.9818C51.6427 93.9714 51.5763 93.9792 51.5157 94.0045C51.4552 94.0297 51.4028 94.0713 51.3646 94.1246L40.6879 109.475C40.6224 109.569 40.5798 109.677 40.5634 109.79C40.5471 109.903 40.5575 110.019 40.5937 110.128C42.23 115.054 46.3382 117.979 51.653 117.979C53.5001 117.948 55.3326 117.644 57.0914 117.079L79.3806 110.316L95.5663 105.408C95.8931 105.316 96.1983 105.16 96.4641 104.948C96.7299 104.737 96.9509 104.475 97.1142 104.177C97.6774 103.102 98.0743 101.947 98.2914 100.752C98.2914 100.646 98.3326 100.546 98.3502 100.428C98.6671 98.2509 98.3673 96.0284 97.485 94.0128C97.2028 93.3104 96.8581 92.6347 96.455 91.994C96.0306 91.4038 95.5185 90.8818 94.9365 90.446C94.0401 89.7115 93.0381 89.1163 91.9642 88.6803C85.1115 85.7926 79.5774 80.4599 76.4377 73.7188C74.6152 69.8114 73.6691 65.5527 73.6656 61.2411C73.6656 45.0083 86.9555 31.583 103.018 31.583C119.08 31.583 132.37 45.0083 132.37 61.2411C132.367 65.5857 131.407 69.8762 129.556 73.8071C126.985 79.277 122.823 83.8434 117.614 86.9087C116.829 87.3678 116.027 87.7896 115.207 88.1742C114.153 88.5949 113.131 89.0947 112.152 89.6691C110.459 90.6258 109.177 92.1719 108.55 94.0128C107.668 96.0284 107.368 98.2509 107.685 100.428C107.685 100.546 107.72 100.646 107.744 100.752C107.961 101.949 108.358 103.105 108.921 104.183C109.085 104.479 109.307 104.74 109.573 104.95C109.838 105.16 110.143 105.316 110.469 105.408L126.655 110.316L148.909 117.079C150.661 117.633 152.486 117.926 154.323 117.95C159.621 117.95 163.741 115.007 165.383 110.098C165.418 109.996 165.429 109.886 165.417 109.779C165.405 109.671 165.369 109.567 165.312 109.475V109.475Z" fill="#52DE97"/>
<path d="M175.241 135.266C173.558 132.211 170.48 130.033 166.101 128.791L117.432 114.948C117.119 114.861 116.79 114.854 116.474 114.928C116.158 115.002 115.866 115.155 115.625 115.372L110.946 119.61C110.594 119.927 110.137 120.103 109.663 120.104H96.3374C95.8634 120.103 95.4066 119.927 95.0543 119.61L90.3752 115.372C90.1341 115.155 89.8421 115.002 89.5262 114.928C89.2103 114.854 88.8808 114.861 88.5683 114.948L39.8993 128.785C35.5203 130.033 32.4421 132.211 30.7588 135.26C29.3959 137.808 29.059 140.781 29.8171 143.57C29.8447 143.68 29.8981 143.782 29.9729 143.867C30.0476 143.951 30.1415 144.017 30.2467 144.059L47.5213 151.175C47.5817 151.199 47.6478 151.207 47.7121 151.195C47.7764 151.184 47.8363 151.155 47.8848 151.112C47.9333 151.068 47.9686 151.011 47.9865 150.949C48.0045 150.886 48.0044 150.819 47.9863 150.757L44.9551 140.104C44.9426 140.06 44.9389 140.013 44.9443 139.968C44.9496 139.923 44.9639 139.879 44.9864 139.839C45.0088 139.799 45.0389 139.764 45.075 139.735C45.111 139.707 45.1523 139.686 45.1964 139.674L77.2383 130.557C77.3228 130.531 77.4139 130.534 77.4961 130.567C77.5782 130.601 77.6463 130.661 77.6886 130.739C77.731 130.817 77.7451 130.907 77.7284 130.994C77.7118 131.081 77.6654 131.16 77.5973 131.216L53.1657 152.364C49.7226 155.342 47.8686 158.62 47.6214 162.099C47.4634 164.985 48.4128 167.822 50.2758 170.033C50.3487 170.117 50.4391 170.184 50.5408 170.23C50.6425 170.276 50.7529 170.299 50.8644 170.297L69.528 169.444C69.5948 169.441 69.6594 169.419 69.7142 169.381C69.7691 169.343 69.812 169.29 69.8379 169.228C69.8638 169.166 69.8716 169.098 69.8605 169.033C69.8494 168.967 69.8198 168.905 69.7752 168.855L62.524 160.48C62.4652 160.409 62.4361 160.318 62.4426 160.226C62.4492 160.134 62.491 160.048 62.5593 159.986L87.7502 138.208C87.8167 138.157 87.8985 138.129 87.9828 138.128C88.0671 138.128 88.1491 138.155 88.2162 138.206C88.2833 138.257 88.3317 138.329 88.3539 138.41C88.376 138.491 88.3707 138.578 88.3387 138.656L75.1312 168.137C73.2713 172.293 72.9652 176.054 74.2248 179.32C75.2994 182.003 77.3586 184.174 79.981 185.388C80.0835 185.439 80.1963 185.466 80.3106 185.466C80.425 185.466 80.5378 185.439 80.6402 185.388L97.1908 176.725C97.2492 176.696 97.2984 176.652 97.3329 176.596C97.3673 176.541 97.3855 176.478 97.3855 176.413C97.3855 176.348 97.3673 176.284 97.3329 176.229C97.2984 176.174 97.2492 176.129 97.1908 176.101L87.1086 171.527C87.0663 171.51 87.028 171.483 86.9961 171.45C86.9641 171.417 86.9392 171.378 86.9227 171.336C86.9062 171.293 86.8985 171.247 86.9001 171.201C86.9017 171.155 86.9126 171.11 86.932 171.068L102.676 135.842C102.705 135.774 102.753 135.716 102.815 135.675C102.877 135.634 102.949 135.612 103.024 135.612C103.098 135.612 103.17 135.634 103.232 135.675C103.294 135.716 103.342 135.774 103.371 135.842L119.115 171.068C119.135 171.11 119.145 171.155 119.147 171.201C119.149 171.247 119.141 171.293 119.124 171.336C119.108 171.378 119.083 171.417 119.051 171.45C119.019 171.483 118.981 171.51 118.939 171.527L108.833 176.059C108.774 176.088 108.725 176.132 108.691 176.188C108.656 176.243 108.638 176.306 108.638 176.371C108.638 176.436 108.656 176.5 108.691 176.555C108.725 176.61 108.774 176.655 108.833 176.683L125.366 185.347C125.468 185.398 125.581 185.424 125.695 185.424C125.81 185.424 125.923 185.398 126.025 185.347C128.647 184.133 130.707 181.962 131.781 179.279C133.041 176.03 132.735 172.269 130.875 168.096L117.667 138.615C117.635 138.537 117.63 138.45 117.652 138.369C117.674 138.288 117.723 138.216 117.79 138.165C117.857 138.114 117.939 138.086 118.023 138.087C118.107 138.087 118.189 138.116 118.256 138.167L143.447 159.944C143.515 160.006 143.557 160.092 143.563 160.185C143.57 160.277 143.541 160.368 143.482 160.439L136.231 168.814C136.186 168.864 136.157 168.925 136.145 168.991C136.134 169.057 136.142 169.125 136.168 169.187C136.194 169.248 136.237 169.301 136.292 169.34C136.347 169.378 136.411 169.4 136.478 169.403L155.142 170.256C155.253 170.258 155.363 170.235 155.465 170.189C155.567 170.143 155.657 170.076 155.73 169.991C157.593 167.781 158.543 164.944 158.385 162.057C158.149 158.579 156.283 155.301 152.84 152.322L128.403 131.252C128.335 131.195 128.288 131.116 128.272 131.029C128.255 130.942 128.269 130.852 128.311 130.774C128.354 130.697 128.422 130.636 128.504 130.603C128.586 130.57 128.677 130.566 128.762 130.592L160.804 139.709C160.848 139.722 160.889 139.742 160.925 139.771C160.961 139.799 160.991 139.834 161.014 139.874C161.036 139.914 161.05 139.958 161.056 140.003C161.061 140.049 161.057 140.095 161.045 140.139L158.014 150.792C157.996 150.855 157.996 150.921 158.014 150.984C158.031 151.047 158.067 151.103 158.115 151.147C158.164 151.19 158.224 151.219 158.288 151.231C158.352 151.242 158.418 151.235 158.479 151.21L175.753 144.094C175.859 144.053 175.953 143.987 176.027 143.902C176.102 143.817 176.155 143.715 176.183 143.606C176.949 140.808 176.612 137.822 175.241 135.266Z" fill="#52DE97"/>
</svg>
