<svg width="269" height="814" viewBox="0 0 269 814" fill="none" xmlns="http://www.w3.org/2000/svg">
<path fill-rule="evenodd" clip-rule="evenodd" d="M20.542 42.5C20.542 39.7352 22.7774 37.5 25.5423 37.5C28.3072 37.5 30.542 39.7352 30.542 42.5C30.542 45.2648 28.3072 47.5 25.5423 47.5C22.7774 47.5 20.542 45.2648 20.542 42.5" fill="#52DE97"/>
<path d="M48.842 53.21C47.382 53.21 46.062 52.96 44.882 52.46C43.722 51.96 42.802 51.24 42.122 50.3C41.442 49.36 41.092 48.25 41.072 46.97H45.572C45.632 47.83 45.932 48.51 46.472 49.01C47.032 49.51 47.792 49.76 48.752 49.76C49.732 49.76 50.502 49.53 51.062 49.07C51.622 48.59 51.902 47.97 51.902 47.21C51.902 46.59 51.712 46.08 51.332 45.68C50.952 45.28 50.472 44.97 49.892 44.75C49.332 44.51 48.552 44.25 47.552 43.97C46.192 43.57 45.082 43.18 44.222 42.8C43.382 42.4 42.652 41.81 42.032 41.03C41.432 40.23 41.132 39.17 41.132 37.85C41.132 36.61 41.442 35.53 42.062 34.61C42.682 33.69 43.552 32.99 44.672 32.51C45.792 32.01 47.072 31.76 48.512 31.76C50.672 31.76 52.422 32.29 53.762 33.35C55.122 34.39 55.872 35.85 56.012 37.73H51.392C51.352 37.01 51.042 36.42 50.462 35.96C49.902 35.48 49.152 35.24 48.212 35.24C47.392 35.24 46.732 35.45 46.232 35.87C45.752 36.29 45.512 36.9 45.512 37.7C45.512 38.26 45.692 38.73 46.052 39.11C46.432 39.47 46.892 39.77 47.432 40.01C47.992 40.23 48.772 40.49 49.772 40.79C51.132 41.19 52.242 41.59 53.102 41.99C53.962 42.39 54.702 42.99 55.322 43.79C55.942 44.59 56.252 45.64 56.252 46.94C56.252 48.06 55.962 49.1 55.382 50.06C54.802 51.02 53.952 51.79 52.832 52.37C51.712 52.93 50.382 53.21 48.842 53.21ZM67.2132 32.06C69.4132 32.06 71.3432 32.49 73.0032 33.35C74.6832 34.21 75.9732 35.44 76.8732 37.04C77.7932 38.62 78.2532 40.46 78.2532 42.56C78.2532 44.66 77.7932 46.5 76.8732 48.08C75.9732 49.64 74.6832 50.85 73.0032 51.71C71.3432 52.57 69.4132 53 67.2132 53H59.8932V32.06H67.2132ZM67.0632 49.43C69.2632 49.43 70.9632 48.83 72.1632 47.63C73.3632 46.43 73.9632 44.74 73.9632 42.56C73.9632 40.38 73.3632 38.68 72.1632 37.46C70.9632 36.22 69.2632 35.6 67.0632 35.6H64.0932V49.43H67.0632ZM100.147 54.2V58.19H82.5371V54.2H100.147ZM127.928 32.06V53H123.728V39.38L118.118 53H114.938L109.298 39.38V53H105.098V32.06H109.868L116.528 47.63L123.188 32.06H127.928ZM131.061 42.5C131.061 40.44 131.521 38.6 132.441 36.98C133.381 35.34 134.651 34.07 136.251 33.17C137.871 32.25 139.681 31.79 141.681 31.79C144.021 31.79 146.071 32.39 147.831 33.59C149.591 34.79 150.821 36.45 151.521 38.57H146.691C146.211 37.57 145.531 36.82 144.651 36.32C143.791 35.82 142.791 35.57 141.651 35.57C140.431 35.57 139.341 35.86 138.381 36.44C137.441 37 136.701 37.8 136.161 38.84C135.641 39.88 135.381 41.1 135.381 42.5C135.381 43.88 135.641 45.1 136.161 46.16C136.701 47.2 137.441 48.01 138.381 48.59C139.341 49.15 140.431 49.43 141.651 49.43C142.791 49.43 143.791 49.18 144.651 48.68C145.531 48.16 146.211 47.4 146.691 46.4H151.521C150.821 48.54 149.591 50.21 147.831 51.41C146.091 52.59 144.041 53.18 141.681 53.18C139.681 53.18 137.871 52.73 136.251 51.83C134.651 50.91 133.381 49.64 132.441 48.02C131.521 46.4 131.061 44.56 131.061 42.5ZM162.338 53.21C160.878 53.21 159.558 52.96 158.378 52.46C157.218 51.96 156.298 51.24 155.618 50.3C154.938 49.36 154.588 48.25 154.568 46.97H159.068C159.128 47.83 159.428 48.51 159.968 49.01C160.528 49.51 161.288 49.76 162.248 49.76C163.228 49.76 163.998 49.53 164.558 49.07C165.118 48.59 165.398 47.97 165.398 47.21C165.398 46.59 165.208 46.08 164.828 45.68C164.448 45.28 163.968 44.97 163.388 44.75C162.828 44.51 162.048 44.25 161.048 43.97C159.688 43.57 158.578 43.18 157.718 42.8C156.878 42.4 156.148 41.81 155.528 41.03C154.928 40.23 154.628 39.17 154.628 37.85C154.628 36.61 154.938 35.53 155.558 34.61C156.178 33.69 157.048 32.99 158.168 32.51C159.288 32.01 160.568 31.76 162.008 31.76C164.168 31.76 165.918 32.29 167.258 33.35C168.618 34.39 169.368 35.85 169.508 37.73H164.888C164.848 37.01 164.538 36.42 163.958 35.96C163.398 35.48 162.648 35.24 161.708 35.24C160.888 35.24 160.228 35.45 159.728 35.87C159.248 36.29 159.008 36.9 159.008 37.7C159.008 38.26 159.188 38.73 159.548 39.11C159.928 39.47 160.388 39.77 160.928 40.01C161.488 40.23 162.268 40.49 163.268 40.79C164.628 41.19 165.738 41.59 166.598 41.99C167.458 42.39 168.198 42.99 168.818 43.79C169.438 44.59 169.748 45.64 169.748 46.94C169.748 48.06 169.458 49.1 168.878 50.06C168.298 51.02 167.448 51.79 166.328 52.37C165.208 52.93 163.878 53.21 162.338 53.21Z" fill="#616875"/>
<path fill-rule="evenodd" clip-rule="evenodd" d="M20.542 540.5C20.542 537.735 22.7774 535.5 25.5423 535.5C28.3072 535.5 30.542 537.735 30.542 540.5C30.542 543.265 28.3072 545.5 25.5423 545.5C22.7774 545.5 20.542 543.265 20.542 540.5" fill="#ADB3C0"/>
<path d="M48.842 551.21C47.382 551.21 46.062 550.96 44.882 550.46C43.722 549.96 42.802 549.24 42.122 548.3C41.442 547.36 41.092 546.25 41.072 544.97H45.572C45.632 545.83 45.932 546.51 46.472 547.01C47.032 547.51 47.792 547.76 48.752 547.76C49.732 547.76 50.502 547.53 51.062 547.07C51.622 546.59 51.902 545.97 51.902 545.21C51.902 544.59 51.712 544.08 51.332 543.68C50.952 543.28 50.472 542.97 49.892 542.75C49.332 542.51 48.552 542.25 47.552 541.97C46.192 541.57 45.082 541.18 44.222 540.8C43.382 540.4 42.652 539.81 42.032 539.03C41.432 538.23 41.132 537.17 41.132 535.85C41.132 534.61 41.442 533.53 42.062 532.61C42.682 531.69 43.552 530.99 44.672 530.51C45.792 530.01 47.072 529.76 48.512 529.76C50.672 529.76 52.422 530.29 53.762 531.35C55.122 532.39 55.872 533.85 56.012 535.73H51.392C51.352 535.01 51.042 534.42 50.462 533.96C49.902 533.48 49.152 533.24 48.212 533.24C47.392 533.24 46.732 533.45 46.232 533.87C45.752 534.29 45.512 534.9 45.512 535.7C45.512 536.26 45.692 536.73 46.052 537.11C46.432 537.47 46.892 537.77 47.432 538.01C47.992 538.23 48.772 538.49 49.772 538.79C51.132 539.19 52.242 539.59 53.102 539.99C53.962 540.39 54.702 540.99 55.322 541.79C55.942 542.59 56.252 543.64 56.252 544.94C56.252 546.06 55.962 547.1 55.382 548.06C54.802 549.02 53.952 549.79 52.832 550.37C51.712 550.93 50.382 551.21 48.842 551.21ZM67.2132 530.06C69.4132 530.06 71.3432 530.49 73.0032 531.35C74.6832 532.21 75.9732 533.44 76.8732 535.04C77.7932 536.62 78.2532 538.46 78.2532 540.56C78.2532 542.66 77.7932 544.5 76.8732 546.08C75.9732 547.64 74.6832 548.85 73.0032 549.71C71.3432 550.57 69.4132 551 67.2132 551H59.8932V530.06H67.2132ZM67.0632 547.43C69.2632 547.43 70.9632 546.83 72.1632 545.63C73.3632 544.43 73.9632 542.74 73.9632 540.56C73.9632 538.38 73.3632 536.68 72.1632 535.46C70.9632 534.22 69.2632 533.6 67.0632 533.6H64.0932V547.43H67.0632ZM100.147 552.2V556.19H82.5371V552.2H100.147ZM127.928 530.06V551H123.728V537.38L118.118 551H114.938L109.298 537.38V551H105.098V530.06H109.868L116.528 545.63L123.188 530.06H127.928ZM139.311 551.21C137.851 551.21 136.531 550.96 135.351 550.46C134.191 549.96 133.271 549.24 132.591 548.3C131.911 547.36 131.561 546.25 131.541 544.97H136.041C136.101 545.83 136.401 546.51 136.941 547.01C137.501 547.51 138.261 547.76 139.221 547.76C140.201 547.76 140.971 547.53 141.531 547.07C142.091 546.59 142.371 545.97 142.371 545.21C142.371 544.59 142.181 544.08 141.801 543.68C141.421 543.28 140.941 542.97 140.361 542.75C139.801 542.51 139.021 542.25 138.021 541.97C136.661 541.57 135.551 541.18 134.691 540.8C133.851 540.4 133.121 539.81 132.501 539.03C131.901 538.23 131.601 537.17 131.601 535.85C131.601 534.61 131.911 533.53 132.531 532.61C133.151 531.69 134.021 530.99 135.141 530.51C136.261 530.01 137.541 529.76 138.981 529.76C141.141 529.76 142.891 530.29 144.231 531.35C145.591 532.39 146.341 533.85 146.481 535.73H141.861C141.821 535.01 141.511 534.42 140.931 533.96C140.371 533.48 139.621 533.24 138.681 533.24C137.861 533.24 137.201 533.45 136.701 533.87C136.221 534.29 135.981 534.9 135.981 535.7C135.981 536.26 136.161 536.73 136.521 537.11C136.901 537.47 137.361 537.77 137.901 538.01C138.461 538.23 139.241 538.49 140.241 538.79C141.601 539.19 142.711 539.59 143.571 539.99C144.431 540.39 145.171 540.99 145.791 541.79C146.411 542.59 146.721 543.64 146.721 544.94C146.721 546.06 146.431 547.1 145.851 548.06C145.271 549.02 144.421 549.79 143.301 550.37C142.181 550.93 140.851 551.21 139.311 551.21ZM155.252 537.83V545.87C155.252 546.43 155.382 546.84 155.642 547.1C155.922 547.34 156.382 547.46 157.022 547.46H158.972V551H156.332C152.792 551 151.022 549.28 151.022 545.84V537.83H149.042V534.38H151.022V530.27H155.252V534.38H158.972V537.83H155.252ZM168.503 534.11C169.743 534.11 170.833 534.36 171.773 534.86C172.713 535.34 173.453 535.97 173.993 536.75V534.38H178.223V551.12C178.223 552.66 177.913 554.03 177.293 555.23C176.673 556.45 175.743 557.41 174.503 558.11C173.263 558.83 171.763 559.19 170.003 559.19C167.643 559.19 165.703 558.64 164.183 557.54C162.683 556.44 161.833 554.94 161.633 553.04H165.803C166.023 553.8 166.493 554.4 167.213 554.84C167.953 555.3 168.843 555.53 169.883 555.53C171.103 555.53 172.093 555.16 172.853 554.42C173.613 553.7 173.993 552.6 173.993 551.12V548.54C173.453 549.32 172.703 549.97 171.743 550.49C170.803 551.01 169.723 551.27 168.503 551.27C167.103 551.27 165.823 550.91 164.663 550.19C163.503 549.47 162.583 548.46 161.903 547.16C161.243 545.84 160.913 544.33 160.913 542.63C160.913 540.95 161.243 539.46 161.903 538.16C162.583 536.86 163.493 535.86 164.633 535.16C165.793 534.46 167.083 534.11 168.503 534.11ZM173.993 542.69C173.993 541.67 173.793 540.8 173.393 540.08C172.993 539.34 172.453 538.78 171.773 538.4C171.093 538 170.363 537.8 169.583 537.8C168.803 537.8 168.083 537.99 167.423 538.37C166.763 538.75 166.223 539.31 165.803 540.05C165.403 540.77 165.203 541.63 165.203 542.63C165.203 543.63 165.403 544.51 165.803 545.27C166.223 546.01 166.763 546.58 167.423 546.98C168.103 547.38 168.823 547.58 169.583 547.58C170.363 547.58 171.093 547.39 171.773 547.01C172.453 546.61 172.993 546.05 173.393 545.33C173.793 544.59 173.993 543.71 173.993 542.69ZM197.775 542.33C197.775 542.93 197.735 543.47 197.655 543.95H185.505C185.605 545.15 186.025 546.09 186.765 546.77C187.505 547.45 188.415 547.79 189.495 547.79C191.055 547.79 192.165 547.12 192.825 545.78H197.355C196.875 547.38 195.955 548.7 194.595 549.74C193.235 550.76 191.565 551.27 189.585 551.27C187.985 551.27 186.545 550.92 185.265 550.22C184.005 549.5 183.015 548.49 182.295 547.19C181.595 545.89 181.245 544.39 181.245 542.69C181.245 540.97 181.595 539.46 182.295 538.16C182.995 536.86 183.975 535.86 185.235 535.16C186.495 534.46 187.945 534.11 189.585 534.11C191.165 534.11 192.575 534.45 193.815 535.13C195.075 535.81 196.045 536.78 196.725 538.04C197.425 539.28 197.775 540.71 197.775 542.33ZM193.425 541.13C193.405 540.05 193.015 539.19 192.255 538.55C191.495 537.89 190.565 537.56 189.465 537.56C188.425 537.56 187.545 537.88 186.825 538.52C186.125 539.14 185.695 540.01 185.535 541.13H193.425ZM202.971 532.4C202.211 532.4 201.581 532.17 201.081 531.71C200.601 531.23 200.361 530.64 200.361 529.94C200.361 529.24 200.601 528.66 201.081 528.2C201.581 527.72 202.211 527.48 202.971 527.48C203.711 527.48 204.321 527.72 204.801 528.2C205.281 528.66 205.521 529.24 205.521 529.94C205.521 530.64 205.281 531.23 204.801 531.71C204.321 532.17 203.711 532.4 202.971 532.4ZM205.041 553.73C205.041 555.57 204.581 556.89 203.661 557.69C202.761 558.51 201.461 558.92 199.761 558.92H197.901V555.35H199.101C199.741 555.35 200.191 555.22 200.451 554.96C200.711 554.72 200.841 554.32 200.841 553.76V534.38H205.041V553.73ZM213.39 536.96C213.93 536.08 214.63 535.39 215.49 534.89C216.37 534.39 217.37 534.14 218.49 534.14V538.55H217.38C216.06 538.55 215.06 538.86 214.38 539.48C213.72 540.1 213.39 541.18 213.39 542.72V551H209.19V534.38H213.39V536.96ZM228.699 551.27C227.099 551.27 225.659 550.92 224.379 550.22C223.099 549.5 222.089 548.49 221.349 547.19C220.629 545.89 220.269 544.39 220.269 542.69C220.269 540.99 220.639 539.49 221.379 538.19C222.139 536.89 223.169 535.89 224.469 535.19C225.769 534.47 227.219 534.11 228.819 534.11C230.419 534.11 231.869 534.47 233.169 535.19C234.469 535.89 235.489 536.89 236.229 538.19C236.989 539.49 237.369 540.99 237.369 542.69C237.369 544.39 236.979 545.89 236.199 547.19C235.439 548.49 234.399 549.5 233.079 550.22C231.779 550.92 230.319 551.27 228.699 551.27ZM228.699 547.61C229.459 547.61 230.169 547.43 230.829 547.07C231.509 546.69 232.049 546.13 232.449 545.39C232.849 544.65 233.049 543.75 233.049 542.69C233.049 541.11 232.629 539.9 231.789 539.06C230.969 538.2 229.959 537.77 228.759 537.77C227.559 537.77 226.549 538.2 225.729 539.06C224.929 539.9 224.529 541.11 224.529 542.69C224.529 544.27 224.919 545.49 225.699 546.35C226.499 547.19 227.499 547.61 228.699 547.61Z" fill="#616875"/>
<path fill-rule="evenodd" clip-rule="evenodd" d="M20.542 623.5C20.542 620.735 22.7774 618.5 25.5423 618.5C28.3072 618.5 30.542 620.735 30.542 623.5C30.542 626.265 28.3072 628.5 25.5423 628.5C22.7774 628.5 20.542 626.265 20.542 623.5" fill="#ADB3C0"/>
<path d="M48.842 634.21C47.382 634.21 46.062 633.96 44.882 633.46C43.722 632.96 42.802 632.24 42.122 631.3C41.442 630.36 41.092 629.25 41.072 627.97H45.572C45.632 628.83 45.932 629.51 46.472 630.01C47.032 630.51 47.792 630.76 48.752 630.76C49.732 630.76 50.502 630.53 51.062 630.07C51.622 629.59 51.902 628.97 51.902 628.21C51.902 627.59 51.712 627.08 51.332 626.68C50.952 626.28 50.472 625.97 49.892 625.75C49.332 625.51 48.552 625.25 47.552 624.97C46.192 624.57 45.082 624.18 44.222 623.8C43.382 623.4 42.652 622.81 42.032 622.03C41.432 621.23 41.132 620.17 41.132 618.85C41.132 617.61 41.442 616.53 42.062 615.61C42.682 614.69 43.552 613.99 44.672 613.51C45.792 613.01 47.072 612.76 48.512 612.76C50.672 612.76 52.422 613.29 53.762 614.35C55.122 615.39 55.872 616.85 56.012 618.73H51.392C51.352 618.01 51.042 617.42 50.462 616.96C49.902 616.48 49.152 616.24 48.212 616.24C47.392 616.24 46.732 616.45 46.232 616.87C45.752 617.29 45.512 617.9 45.512 618.7C45.512 619.26 45.692 619.73 46.052 620.11C46.432 620.47 46.892 620.77 47.432 621.01C47.992 621.23 48.772 621.49 49.772 621.79C51.132 622.19 52.242 622.59 53.102 622.99C53.962 623.39 54.702 623.99 55.322 624.79C55.942 625.59 56.252 626.64 56.252 627.94C56.252 629.06 55.962 630.1 55.382 631.06C54.802 632.02 53.952 632.79 52.832 633.37C51.712 633.93 50.382 634.21 48.842 634.21ZM67.2132 613.06C69.4132 613.06 71.3432 613.49 73.0032 614.35C74.6832 615.21 75.9732 616.44 76.8732 618.04C77.7932 619.62 78.2532 621.46 78.2532 623.56C78.2532 625.66 77.7932 627.5 76.8732 629.08C75.9732 630.64 74.6832 631.85 73.0032 632.71C71.3432 633.57 69.4132 634 67.2132 634H59.8932V613.06H67.2132ZM67.0632 630.43C69.2632 630.43 70.9632 629.83 72.1632 628.63C73.3632 627.43 73.9632 625.74 73.9632 623.56C73.9632 621.38 73.3632 619.68 72.1632 618.46C70.9632 617.22 69.2632 616.6 67.0632 616.6H64.0932V630.43H67.0632ZM100.147 635.2V639.19H82.5371V635.2H100.147ZM104.018 625.63C104.018 623.95 104.348 622.46 105.008 621.16C105.688 619.86 106.608 618.86 107.768 618.16C108.928 617.46 110.218 617.11 111.638 617.11C112.718 617.11 113.748 617.35 114.728 617.83C115.708 618.29 116.488 618.91 117.068 619.69V611.8H121.328V634H117.068V631.54C116.548 632.36 115.818 633.02 114.878 633.52C113.938 634.02 112.848 634.27 111.608 634.27C110.208 634.27 108.928 633.91 107.768 633.19C106.608 632.47 105.688 631.46 105.008 630.16C104.348 628.84 104.018 627.33 104.018 625.63ZM117.098 625.69C117.098 624.67 116.898 623.8 116.498 623.08C116.098 622.34 115.558 621.78 114.878 621.4C114.198 621 113.468 620.8 112.688 620.8C111.908 620.8 111.188 620.99 110.528 621.37C109.868 621.75 109.328 622.31 108.908 623.05C108.508 623.77 108.308 624.63 108.308 625.63C108.308 626.63 108.508 627.51 108.908 628.27C109.328 629.01 109.868 629.58 110.528 629.98C111.208 630.38 111.928 630.58 112.688 630.58C113.468 630.58 114.198 630.39 114.878 630.01C115.558 629.61 116.098 629.05 116.498 628.33C116.898 627.59 117.098 626.71 117.098 625.69ZM124.35 625.63C124.35 623.95 124.68 622.46 125.34 621.16C126.02 619.86 126.94 618.86 128.1 618.16C129.26 617.46 130.55 617.11 131.97 617.11C133.05 617.11 134.08 617.35 135.06 617.83C136.04 618.29 136.82 618.91 137.4 619.69V611.8H141.66V634H137.4V631.54C136.88 632.36 136.15 633.02 135.21 633.52C134.27 634.02 133.18 634.27 131.94 634.27C130.54 634.27 129.26 633.91 128.1 633.19C126.94 632.47 126.02 631.46 125.34 630.16C124.68 628.84 124.35 627.33 124.35 625.63ZM137.43 625.69C137.43 624.67 137.23 623.8 136.83 623.08C136.43 622.34 135.89 621.78 135.21 621.4C134.53 621 133.8 620.8 133.02 620.8C132.24 620.8 131.52 620.99 130.86 621.37C130.2 621.75 129.66 622.31 129.24 623.05C128.84 623.77 128.64 624.63 128.64 625.63C128.64 626.63 128.84 627.51 129.24 628.27C129.66 629.01 130.2 629.58 130.86 629.98C131.54 630.38 132.26 630.58 133.02 630.58C133.8 630.58 134.53 630.39 135.21 630.01C135.89 629.61 136.43 629.05 136.83 628.33C137.23 627.59 137.43 626.71 137.43 625.69ZM147.892 615.4C147.132 615.4 146.502 615.17 146.002 614.71C145.522 614.23 145.282 613.64 145.282 612.94C145.282 612.24 145.522 611.66 146.002 611.2C146.502 610.72 147.132 610.48 147.892 610.48C148.632 610.48 149.242 610.72 149.722 611.2C150.202 611.66 150.442 612.24 150.442 612.94C150.442 613.64 150.202 614.23 149.722 614.71C149.242 615.17 148.632 615.4 147.892 615.4ZM149.962 636.73C149.962 638.57 149.502 639.89 148.582 640.69C147.682 641.51 146.382 641.92 144.682 641.92H142.822V638.35H144.022C144.662 638.35 145.112 638.22 145.372 637.96C145.632 637.72 145.762 637.32 145.762 636.76V617.38H149.962V636.73ZM158.312 619.96C158.852 619.08 159.552 618.39 160.412 617.89C161.292 617.39 162.292 617.14 163.412 617.14V621.55H162.302C160.982 621.55 159.982 621.86 159.302 622.48C158.642 623.1 158.312 624.18 158.312 625.72V634H154.112V617.38H158.312V619.96ZM173.621 634.27C172.021 634.27 170.581 633.92 169.301 633.22C168.021 632.5 167.011 631.49 166.271 630.19C165.551 628.89 165.191 627.39 165.191 625.69C165.191 623.99 165.561 622.49 166.301 621.19C167.061 619.89 168.091 618.89 169.391 618.19C170.691 617.47 172.141 617.11 173.741 617.11C175.341 617.11 176.791 617.47 178.091 618.19C179.391 618.89 180.411 619.89 181.151 621.19C181.911 622.49 182.291 623.99 182.291 625.69C182.291 627.39 181.901 628.89 181.121 630.19C180.361 631.49 179.321 632.5 178.001 633.22C176.701 633.92 175.241 634.27 173.621 634.27ZM173.621 630.61C174.381 630.61 175.091 630.43 175.751 630.07C176.431 629.69 176.971 629.13 177.371 628.39C177.771 627.65 177.971 626.75 177.971 625.69C177.971 624.11 177.551 622.9 176.711 622.06C175.891 621.2 174.881 620.77 173.681 620.77C172.481 620.77 171.471 621.2 170.651 622.06C169.851 622.9 169.451 624.11 169.451 625.69C169.451 627.27 169.841 628.49 170.621 629.35C171.421 630.19 172.421 630.61 173.621 630.61Z" fill="#616875"/>
<path fill-rule="evenodd" clip-rule="evenodd" d="M20.542 706.5C20.542 703.735 22.7774 701.5 25.5423 701.5C28.3072 701.5 30.542 703.735 30.542 706.5C30.542 709.265 28.3072 711.5 25.5423 711.5C22.7774 711.5 20.542 709.265 20.542 706.5" fill="#ADB3C0"/>
<path d="M48.842 717.21C47.382 717.21 46.062 716.96 44.882 716.46C43.722 715.96 42.802 715.24 42.122 714.3C41.442 713.36 41.092 712.25 41.072 710.97H45.572C45.632 711.83 45.932 712.51 46.472 713.01C47.032 713.51 47.792 713.76 48.752 713.76C49.732 713.76 50.502 713.53 51.062 713.07C51.622 712.59 51.902 711.97 51.902 711.21C51.902 710.59 51.712 710.08 51.332 709.68C50.952 709.28 50.472 708.97 49.892 708.75C49.332 708.51 48.552 708.25 47.552 707.97C46.192 707.57 45.082 707.18 44.222 706.8C43.382 706.4 42.652 705.81 42.032 705.03C41.432 704.23 41.132 703.17 41.132 701.85C41.132 700.61 41.442 699.53 42.062 698.61C42.682 697.69 43.552 696.99 44.672 696.51C45.792 696.01 47.072 695.76 48.512 695.76C50.672 695.76 52.422 696.29 53.762 697.35C55.122 698.39 55.872 699.85 56.012 701.73H51.392C51.352 701.01 51.042 700.42 50.462 699.96C49.902 699.48 49.152 699.24 48.212 699.24C47.392 699.24 46.732 699.45 46.232 699.87C45.752 700.29 45.512 700.9 45.512 701.7C45.512 702.26 45.692 702.73 46.052 703.11C46.432 703.47 46.892 703.77 47.432 704.01C47.992 704.23 48.772 704.49 49.772 704.79C51.132 705.19 52.242 705.59 53.102 705.99C53.962 706.39 54.702 706.99 55.322 707.79C55.942 708.59 56.252 709.64 56.252 710.94C56.252 712.06 55.962 713.1 55.382 714.06C54.802 715.02 53.952 715.79 52.832 716.37C51.712 716.93 50.382 717.21 48.842 717.21ZM58.8132 708.63C58.8132 706.95 59.1432 705.46 59.8032 704.16C60.4832 702.86 61.4032 701.86 62.5632 701.16C63.7232 700.46 65.0132 700.11 66.4332 700.11C67.5132 700.11 68.5432 700.35 69.5232 700.83C70.5032 701.29 71.2832 701.91 71.8632 702.69V694.8H76.1232V717H71.8632V714.54C71.3432 715.36 70.6132 716.02 69.6732 716.52C68.7332 717.02 67.6432 717.27 66.4032 717.27C65.0032 717.27 63.7232 716.91 62.5632 716.19C61.4032 715.47 60.4832 714.46 59.8032 713.16C59.1432 711.84 58.8132 710.33 58.8132 708.63ZM71.8932 708.69C71.8932 707.67 71.6932 706.8 71.2932 706.08C70.8932 705.34 70.3532 704.78 69.6732 704.4C68.9932 704 68.2632 703.8 67.4832 703.8C66.7032 703.8 65.9832 703.99 65.3232 704.37C64.6632 704.75 64.1232 705.31 63.7032 706.05C63.3032 706.77 63.1032 707.63 63.1032 708.63C63.1032 709.63 63.3032 710.51 63.7032 711.27C64.1232 712.01 64.6632 712.58 65.3232 712.98C66.0032 713.38 66.7232 713.58 67.4832 713.58C68.2632 713.58 68.9932 713.39 69.6732 713.01C70.3532 712.61 70.8932 712.05 71.2932 711.33C71.6932 710.59 71.8932 709.71 71.8932 708.69ZM79.1453 708.63C79.1453 706.95 79.4753 705.46 80.1353 704.16C80.8153 702.86 81.7353 701.86 82.8953 701.16C84.0553 700.46 85.3453 700.11 86.7653 700.11C87.8453 700.11 88.8753 700.35 89.8553 700.83C90.8353 701.29 91.6153 701.91 92.1953 702.69V694.8H96.4553V717H92.1953V714.54C91.6753 715.36 90.9453 716.02 90.0053 716.52C89.0653 717.02 87.9753 717.27 86.7353 717.27C85.3353 717.27 84.0553 716.91 82.8953 716.19C81.7353 715.47 80.8153 714.46 80.1353 713.16C79.4753 711.84 79.1453 710.33 79.1453 708.63ZM92.2253 708.69C92.2253 707.67 92.0253 706.8 91.6253 706.08C91.2253 705.34 90.6853 704.78 90.0053 704.4C89.3253 704 88.5953 703.8 87.8153 703.8C87.0353 703.8 86.3153 703.99 85.6553 704.37C84.9953 704.75 84.4553 705.31 84.0353 706.05C83.6353 706.77 83.4353 707.63 83.4353 708.63C83.4353 709.63 83.6353 710.51 84.0353 711.27C84.4553 712.01 84.9953 712.58 85.6553 712.98C86.3353 713.38 87.0553 713.58 87.8153 713.58C88.5953 713.58 89.3253 713.39 90.0053 713.01C90.6853 712.61 91.2253 712.05 91.6253 711.33C92.0253 710.59 92.2253 709.71 92.2253 708.69ZM99.4773 708.63C99.4773 706.95 99.8073 705.46 100.467 704.16C101.147 702.86 102.067 701.86 103.227 701.16C104.387 700.46 105.677 700.11 107.097 700.11C108.177 700.11 109.207 700.35 110.187 700.83C111.167 701.29 111.947 701.91 112.527 702.69V694.8H116.787V717H112.527V714.54C112.007 715.36 111.277 716.02 110.337 716.52C109.397 717.02 108.307 717.27 107.067 717.27C105.667 717.27 104.387 716.91 103.227 716.19C102.067 715.47 101.147 714.46 100.467 713.16C99.8073 711.84 99.4773 710.33 99.4773 708.63ZM112.557 708.69C112.557 707.67 112.357 706.8 111.957 706.08C111.557 705.34 111.017 704.78 110.337 704.4C109.657 704 108.927 703.8 108.147 703.8C107.367 703.8 106.647 703.99 105.987 704.37C105.327 704.75 104.787 705.31 104.367 706.05C103.967 706.77 103.767 707.63 103.767 708.63C103.767 709.63 103.967 710.51 104.367 711.27C104.787 712.01 105.327 712.58 105.987 712.98C106.667 713.38 107.387 713.58 108.147 713.58C108.927 713.58 109.657 713.39 110.337 713.01C111.017 712.61 111.557 712.05 111.957 711.33C112.357 710.59 112.557 709.71 112.557 708.69ZM119.809 708.63C119.809 706.95 120.139 705.46 120.799 704.16C121.479 702.86 122.399 701.86 123.559 701.16C124.719 700.46 126.009 700.11 127.429 700.11C128.509 700.11 129.539 700.35 130.519 700.83C131.499 701.29 132.279 701.91 132.859 702.69V694.8H137.119V717H132.859V714.54C132.339 715.36 131.609 716.02 130.669 716.52C129.729 717.02 128.639 717.27 127.399 717.27C125.999 717.27 124.719 716.91 123.559 716.19C122.399 715.47 121.479 714.46 120.799 713.16C120.139 711.84 119.809 710.33 119.809 708.63ZM132.889 708.69C132.889 707.67 132.689 706.8 132.289 706.08C131.889 705.34 131.349 704.78 130.669 704.4C129.989 704 129.259 703.8 128.479 703.8C127.699 703.8 126.979 703.99 126.319 704.37C125.659 704.75 125.119 705.31 124.699 706.05C124.299 706.77 124.099 707.63 124.099 708.63C124.099 709.63 124.299 710.51 124.699 711.27C125.119 712.01 125.659 712.58 126.319 712.98C126.999 713.38 127.719 713.58 128.479 713.58C129.259 713.58 129.989 713.39 130.669 713.01C131.349 712.61 131.889 712.05 132.289 711.33C132.689 710.59 132.889 709.71 132.889 708.69Z" fill="#616875"/>
<path fill-rule="evenodd" clip-rule="evenodd" d="M20.542 125.5C20.542 122.735 22.7774 120.5 25.5423 120.5C28.3072 120.5 30.542 122.735 30.542 125.5C30.542 128.265 28.3072 130.5 25.5423 130.5C22.7774 130.5 20.542 128.265 20.542 125.5" fill="#52DE97"/>
<path d="M48.122 119.11C49.362 119.11 50.452 119.36 51.392 119.86C52.332 120.34 53.072 120.97 53.612 121.75V119.38H57.842V136.12C57.842 137.66 57.532 139.03 56.912 140.23C56.292 141.45 55.362 142.41 54.122 143.11C52.882 143.83 51.382 144.19 49.622 144.19C47.262 144.19 45.322 143.64 43.802 142.54C42.302 141.44 41.452 139.94 41.252 138.04H45.422C45.642 138.8 46.112 139.4 46.832 139.84C47.572 140.3 48.462 140.53 49.502 140.53C50.722 140.53 51.712 140.16 52.472 139.42C53.232 138.7 53.612 137.6 53.612 136.12V133.54C53.072 134.32 52.322 134.97 51.362 135.49C50.422 136.01 49.342 136.27 48.122 136.27C46.722 136.27 45.442 135.91 44.282 135.19C43.122 134.47 42.202 133.46 41.522 132.16C40.862 130.84 40.532 129.33 40.532 127.63C40.532 125.95 40.862 124.46 41.522 123.16C42.202 121.86 43.112 120.86 44.252 120.16C45.412 119.46 46.702 119.11 48.122 119.11ZM53.612 127.69C53.612 126.67 53.412 125.8 53.012 125.08C52.612 124.34 52.072 123.78 51.392 123.4C50.712 123 49.982 122.8 49.202 122.8C48.422 122.8 47.702 122.99 47.042 123.37C46.382 123.75 45.842 124.31 45.422 125.05C45.022 125.77 44.822 126.63 44.822 127.63C44.822 128.63 45.022 129.51 45.422 130.27C45.842 131.01 46.382 131.58 47.042 131.98C47.722 132.38 48.442 132.58 49.202 132.58C49.982 132.58 50.712 132.39 51.392 132.01C52.072 131.61 52.612 131.05 53.012 130.33C53.412 129.59 53.612 128.71 53.612 127.69ZM69.324 136.27C67.724 136.27 66.284 135.92 65.004 135.22C63.724 134.5 62.714 133.49 61.974 132.19C61.254 130.89 60.894 129.39 60.894 127.69C60.894 125.99 61.264 124.49 62.004 123.19C62.764 121.89 63.794 120.89 65.094 120.19C66.394 119.47 67.844 119.11 69.444 119.11C71.044 119.11 72.494 119.47 73.794 120.19C75.094 120.89 76.114 121.89 76.854 123.19C77.614 124.49 77.994 125.99 77.994 127.69C77.994 129.39 77.604 130.89 76.824 132.19C76.064 133.49 75.024 134.5 73.704 135.22C72.404 135.92 70.944 136.27 69.324 136.27ZM69.324 132.61C70.084 132.61 70.794 132.43 71.454 132.07C72.134 131.69 72.674 131.13 73.074 130.39C73.474 129.65 73.674 128.75 73.674 127.69C73.674 126.11 73.254 124.9 72.414 124.06C71.594 123.2 70.584 122.77 69.384 122.77C68.184 122.77 67.174 123.2 66.354 124.06C65.554 124.9 65.154 126.11 65.154 127.69C65.154 129.27 65.544 130.49 66.324 131.35C67.124 132.19 68.124 132.61 69.324 132.61ZM88.4549 136.27C86.8549 136.27 85.4149 135.92 84.1349 135.22C82.8549 134.5 81.8449 133.49 81.1049 132.19C80.3849 130.89 80.0249 129.39 80.0249 127.69C80.0249 125.99 80.3949 124.49 81.1349 123.19C81.8949 121.89 82.9249 120.89 84.2249 120.19C85.5249 119.47 86.9749 119.11 88.5749 119.11C90.1749 119.11 91.6249 119.47 92.9249 120.19C94.2249 120.89 95.2449 121.89 95.9849 123.19C96.7449 124.49 97.1249 125.99 97.1249 127.69C97.1249 129.39 96.7349 130.89 95.9549 132.19C95.1949 133.49 94.1549 134.5 92.8349 135.22C91.5349 135.92 90.0749 136.27 88.4549 136.27ZM88.4549 132.61C89.2149 132.61 89.9249 132.43 90.5849 132.07C91.2649 131.69 91.8049 131.13 92.2049 130.39C92.6049 129.65 92.8049 128.75 92.8049 127.69C92.8049 126.11 92.3849 124.9 91.5449 124.06C90.7249 123.2 89.7149 122.77 88.5149 122.77C87.3149 122.77 86.3049 123.2 85.4849 124.06C84.6849 124.9 84.2849 126.11 84.2849 127.69C84.2849 129.27 84.6749 130.49 85.4549 131.35C86.2549 132.19 87.2549 132.61 88.4549 132.61ZM99.1257 127.63C99.1257 125.95 99.4557 124.46 100.116 123.16C100.796 121.86 101.716 120.86 102.876 120.16C104.036 119.46 105.326 119.11 106.746 119.11C107.826 119.11 108.856 119.35 109.836 119.83C110.816 120.29 111.596 120.91 112.176 121.69V113.8H116.436V136H112.176V133.54C111.656 134.36 110.926 135.02 109.986 135.52C109.046 136.02 107.956 136.27 106.716 136.27C105.316 136.27 104.036 135.91 102.876 135.19C101.716 134.47 100.796 133.46 100.116 132.16C99.4557 130.84 99.1257 129.33 99.1257 127.63ZM112.206 127.69C112.206 126.67 112.006 125.8 111.606 125.08C111.206 124.34 110.666 123.78 109.986 123.4C109.306 123 108.576 122.8 107.796 122.8C107.016 122.8 106.296 122.99 105.636 123.37C104.976 123.75 104.436 124.31 104.016 125.05C103.616 125.77 103.416 126.63 103.416 127.63C103.416 128.63 103.616 129.51 104.016 130.27C104.436 131.01 104.976 131.58 105.636 131.98C106.316 132.38 107.036 132.58 107.796 132.58C108.576 132.58 109.306 132.39 109.986 132.01C110.666 131.61 111.206 131.05 111.606 130.33C112.006 129.59 112.206 128.71 112.206 127.69ZM135.066 136.27C133.466 136.27 132.026 135.92 130.746 135.22C129.466 134.5 128.456 133.49 127.716 132.19C126.996 130.89 126.636 129.39 126.636 127.69C126.636 125.99 127.006 124.49 127.746 123.19C128.506 121.89 129.536 120.89 130.836 120.19C132.136 119.47 133.586 119.11 135.186 119.11C136.786 119.11 138.236 119.47 139.536 120.19C140.836 120.89 141.856 121.89 142.596 123.19C143.356 124.49 143.736 125.99 143.736 127.69C143.736 129.39 143.346 130.89 142.566 132.19C141.806 133.49 140.766 134.5 139.446 135.22C138.146 135.92 136.686 136.27 135.066 136.27ZM135.066 132.61C135.826 132.61 136.536 132.43 137.196 132.07C137.876 131.69 138.416 131.13 138.816 130.39C139.216 129.65 139.416 128.75 139.416 127.69C139.416 126.11 138.996 124.9 138.156 124.06C137.336 123.2 136.326 122.77 135.126 122.77C133.926 122.77 132.916 123.2 132.096 124.06C131.296 124.9 130.896 126.11 130.896 127.69C130.896 129.27 131.286 130.49 132.066 131.35C132.866 132.19 133.866 132.61 135.066 132.61ZM156.027 119.14C158.007 119.14 159.607 119.77 160.827 121.03C162.047 122.27 162.657 124.01 162.657 126.25V136H158.457V126.82C158.457 125.5 158.127 124.49 157.467 123.79C156.807 123.07 155.907 122.71 154.767 122.71C153.607 122.71 152.687 123.07 152.007 123.79C151.347 124.49 151.017 125.5 151.017 126.82V136H146.817V119.38H151.017V121.45C151.577 120.73 152.287 120.17 153.147 119.77C154.027 119.35 154.987 119.14 156.027 119.14ZM182.101 127.33C182.101 127.93 182.061 128.47 181.981 128.95H169.831C169.931 130.15 170.351 131.09 171.091 131.77C171.831 132.45 172.741 132.79 173.821 132.79C175.381 132.79 176.491 132.12 177.151 130.78H181.681C181.201 132.38 180.281 133.7 178.921 134.74C177.561 135.76 175.891 136.27 173.911 136.27C172.311 136.27 170.871 135.92 169.591 135.22C168.331 134.5 167.341 133.49 166.621 132.19C165.921 130.89 165.571 129.39 165.571 127.69C165.571 125.97 165.921 124.46 166.621 123.16C167.321 121.86 168.301 120.86 169.561 120.16C170.821 119.46 172.271 119.11 173.911 119.11C175.491 119.11 176.901 119.45 178.141 120.13C179.401 120.81 180.371 121.78 181.051 123.04C181.751 124.28 182.101 125.71 182.101 127.33ZM177.751 126.13C177.731 125.05 177.341 124.19 176.581 123.55C175.821 122.89 174.891 122.56 173.791 122.56C172.751 122.56 171.871 122.88 171.151 123.52C170.451 124.14 170.021 125.01 169.861 126.13H177.751Z" fill="#616875"/>
<path fill-rule="evenodd" clip-rule="evenodd" d="M20.542 208.5C20.542 205.735 22.7774 203.5 25.5423 203.5C28.3072 203.5 30.542 205.735 30.542 208.5C30.542 211.265 28.3072 213.5 25.5423 213.5C22.7774 213.5 20.542 211.265 20.542 208.5" fill="#52DE97"/>
<path d="M40.532 210.69C40.532 208.97 40.882 207.47 41.582 206.19C42.282 204.89 43.252 203.89 44.492 203.19C45.732 202.47 47.152 202.11 48.752 202.11C50.812 202.11 52.512 202.63 53.852 203.67C55.212 204.69 56.122 206.13 56.582 207.99H52.052C51.812 207.27 51.402 206.71 50.822 206.31C50.262 205.89 49.562 205.68 48.722 205.68C47.522 205.68 46.572 206.12 45.872 207C45.172 207.86 44.822 209.09 44.822 210.69C44.822 212.27 45.172 213.5 45.872 214.38C46.572 215.24 47.522 215.67 48.722 215.67C50.422 215.67 51.532 214.91 52.052 213.39H56.582C56.122 215.19 55.212 216.62 53.852 217.68C52.492 218.74 50.792 219.27 48.752 219.27C47.152 219.27 45.732 218.92 44.492 218.22C43.252 217.5 42.282 216.5 41.582 215.22C40.882 213.92 40.532 212.41 40.532 210.69ZM68.8689 202.14C70.8489 202.14 72.4489 202.77 73.6689 204.03C74.8889 205.27 75.4989 207.01 75.4989 209.25V219H71.2989V209.82C71.2989 208.5 70.9689 207.49 70.3089 206.79C69.6489 206.07 68.7489 205.71 67.6089 205.71C66.4489 205.71 65.5289 206.07 64.8489 206.79C64.1889 207.49 63.8589 208.5 63.8589 209.82V219H59.6589V202.38H63.8589V204.45C64.4189 203.73 65.1289 203.17 65.9889 202.77C66.8689 202.35 67.8289 202.14 68.8689 202.14ZM85.8529 219.27C84.4929 219.27 83.2729 219.03 82.1929 218.55C81.1129 218.05 80.2529 217.38 79.6129 216.54C78.9929 215.7 78.6529 214.77 78.5929 213.75H82.8229C82.9029 214.39 83.2129 214.92 83.7529 215.34C84.3129 215.76 85.0029 215.97 85.8229 215.97C86.6229 215.97 87.2429 215.81 87.6829 215.49C88.1429 215.17 88.3729 214.76 88.3729 214.26C88.3729 213.72 88.0929 213.32 87.5329 213.06C86.9929 212.78 86.1229 212.48 84.9229 212.16C83.6829 211.86 82.6629 211.55 81.8629 211.23C81.0829 210.91 80.4029 210.42 79.8229 209.76C79.2629 209.1 78.9829 208.21 78.9829 207.09C78.9829 206.17 79.2429 205.33 79.7629 204.57C80.3029 203.81 81.0629 203.21 82.0429 202.77C83.0429 202.33 84.2129 202.11 85.5529 202.11C87.5329 202.11 89.1129 202.61 90.2929 203.61C91.4729 204.59 92.1229 205.92 92.2429 207.6H88.2229C88.1629 206.94 87.8829 206.42 87.3829 206.04C86.9029 205.64 86.2529 205.44 85.4329 205.44C84.6729 205.44 84.0829 205.58 83.6629 205.86C83.2629 206.14 83.0629 206.53 83.0629 207.03C83.0629 207.59 83.3429 208.02 83.9029 208.32C84.4629 208.6 85.3329 208.89 86.5129 209.19C87.7129 209.49 88.7029 209.8 89.4829 210.12C90.2629 210.44 90.9329 210.94 91.4929 211.62C92.0729 212.28 92.3729 213.16 92.3929 214.26C92.3929 215.22 92.1229 216.08 91.5829 216.84C91.0629 217.6 90.3029 218.2 89.3029 218.64C88.3229 219.06 87.1729 219.27 85.8529 219.27ZM94.7605 210.63C94.7605 208.95 95.0905 207.46 95.7505 206.16C96.4305 204.86 97.3405 203.86 98.4805 203.16C99.6405 202.46 100.931 202.11 102.351 202.11C103.591 202.11 104.671 202.36 105.591 202.86C106.531 203.36 107.281 203.99 107.841 204.75V202.38H112.071V219H107.841V216.57C107.301 217.35 106.551 218 105.591 218.52C104.651 219.02 103.561 219.27 102.321 219.27C100.921 219.27 99.6405 218.91 98.4805 218.19C97.3405 217.47 96.4305 216.46 95.7505 215.16C95.0905 213.84 94.7605 212.33 94.7605 210.63ZM107.841 210.69C107.841 209.67 107.641 208.8 107.241 208.08C106.841 207.34 106.301 206.78 105.621 206.4C104.941 206 104.211 205.8 103.431 205.8C102.651 205.8 101.931 205.99 101.271 206.37C100.611 206.75 100.071 207.31 99.6505 208.05C99.2505 208.77 99.0505 209.63 99.0505 210.63C99.0505 211.63 99.2505 212.51 99.6505 213.27C100.071 214.01 100.611 214.58 101.271 214.98C101.951 215.38 102.671 215.58 103.431 215.58C104.211 215.58 104.941 215.39 105.621 215.01C106.301 214.61 106.841 214.05 107.241 213.33C107.641 212.59 107.841 211.71 107.841 210.69ZM126.013 219L120.373 211.92V219H116.173V196.8H120.373V209.43L125.953 202.38H131.413L124.093 210.72L131.473 219H126.013Z" fill="#616875"/>
<path fill-rule="evenodd" clip-rule="evenodd" d="M20.542 291.5C20.542 288.735 22.7774 286.5 25.5423 286.5C28.3072 286.5 30.542 288.735 30.542 291.5C30.542 294.265 28.3072 296.5 25.5423 296.5C22.7774 296.5 20.542 294.265 20.542 291.5" fill="#52DE97"/>
<path d="M40.622 284V280.13H47.852V302H43.532V284H40.622ZM53.3211 297.26C55.2411 295.66 56.7711 294.33 57.9111 293.27C59.0511 292.19 60.0011 291.07 60.7611 289.91C61.5211 288.75 61.9011 287.61 61.9011 286.49C61.9011 285.47 61.6611 284.67 61.1811 284.09C60.7011 283.51 59.9611 283.22 58.9611 283.22C57.9611 283.22 57.1911 283.56 56.6511 284.24C56.1111 284.9 55.8311 285.81 55.8111 286.97H51.7311C51.8111 284.57 52.5211 282.75 53.8611 281.51C55.2211 280.27 56.9411 279.65 59.0211 279.65C61.3011 279.65 63.0511 280.26 64.2711 281.48C65.4911 282.68 66.1011 284.27 66.1011 286.25C66.1011 287.81 65.6811 289.3 64.8411 290.72C64.0011 292.14 63.0411 293.38 61.9611 294.44C60.8811 295.48 59.4711 296.74 57.7311 298.22H66.5811V301.7H51.7611V298.58L53.3211 297.26ZM71.5677 302.21C70.8077 302.21 70.1777 301.98 69.6777 301.52C69.1977 301.04 68.9577 300.45 68.9577 299.75C68.9577 299.05 69.1977 298.47 69.6777 298.01C70.1777 297.53 70.8077 297.29 71.5677 297.29C72.3077 297.29 72.9177 297.53 73.3977 298.01C73.8777 298.47 74.1177 299.05 74.1177 299.75C74.1177 300.45 73.8777 301.04 73.3977 301.52C72.9177 301.98 72.3077 302.21 71.5677 302.21ZM77.0807 285.89C77.1807 283.89 77.8807 282.35 79.1807 281.27C80.5007 280.17 82.2307 279.62 84.3707 279.62C85.8307 279.62 87.0807 279.88 88.1207 280.4C89.1607 280.9 89.9407 281.59 90.4607 282.47C91.0007 283.33 91.2707 284.31 91.2707 285.41C91.2707 286.67 90.9407 287.74 90.2807 288.62C89.6407 289.48 88.8707 290.06 87.9707 290.36V290.48C89.1307 290.84 90.0307 291.48 90.6707 292.4C91.3307 293.32 91.6607 294.5 91.6607 295.94C91.6607 297.14 91.3807 298.21 90.8207 299.15C90.2807 300.09 89.4707 300.83 88.3907 301.37C87.3307 301.89 86.0507 302.15 84.5507 302.15C82.2907 302.15 80.4507 301.58 79.0307 300.44C77.6107 299.3 76.8607 297.62 76.7807 295.4H80.8607C80.9007 296.38 81.2307 297.17 81.8507 297.77C82.4907 298.35 83.3607 298.64 84.4607 298.64C85.4807 298.64 86.2607 298.36 86.8007 297.8C87.3607 297.22 87.6407 296.48 87.6407 295.58C87.6407 294.38 87.2607 293.52 86.5007 293C85.7407 292.48 84.5607 292.22 82.9607 292.22H82.0907V288.77H82.9607C85.8007 288.77 87.2207 287.82 87.2207 285.92C87.2207 285.06 86.9607 284.39 86.4407 283.91C85.9407 283.43 85.2107 283.19 84.2507 283.19C83.3107 283.19 82.5807 283.45 82.0607 283.97C81.5607 284.47 81.2707 285.11 81.1907 285.89H77.0807Z" fill="#616875"/>
<path fill-rule="evenodd" clip-rule="evenodd" d="M20.542 374.5C20.542 371.735 22.7774 369.5 25.5423 369.5C28.3072 369.5 30.542 371.735 30.542 374.5C30.542 377.265 28.3072 379.5 25.5423 379.5C22.7774 379.5 20.542 377.265 20.542 374.5" fill="#ADB3C0"/>
<path d="M49.232 371.83H46.322V385H42.062V371.83H40.172V368.38H42.062V367.54C42.062 365.5 42.642 364 43.802 363.04C44.962 362.08 46.712 361.63 49.052 361.69V365.23C48.032 365.21 47.322 365.38 46.922 365.74C46.522 366.1 46.322 366.75 46.322 367.69V368.38H49.232V371.83ZM67.4038 376.33C67.4038 376.93 67.3638 377.47 67.2838 377.95H55.1338C55.2338 379.15 55.6538 380.09 56.3938 380.77C57.1338 381.45 58.0438 381.79 59.1238 381.79C60.6838 381.79 61.7938 381.12 62.4538 379.78H66.9838C66.5038 381.38 65.5838 382.7 64.2238 383.74C62.8638 384.76 61.1938 385.27 59.2138 385.27C57.6138 385.27 56.1738 384.92 54.8938 384.22C53.6338 383.5 52.6438 382.49 51.9238 381.19C51.2238 379.89 50.8738 378.39 50.8738 376.69C50.8738 374.97 51.2238 373.46 51.9238 372.16C52.6238 370.86 53.6038 369.86 54.8638 369.16C56.1238 368.46 57.5738 368.11 59.2138 368.11C60.7938 368.11 62.2038 368.45 63.4438 369.13C64.7038 369.81 65.6738 370.78 66.3538 372.04C67.0538 373.28 67.4038 374.71 67.4038 376.33ZM63.0538 375.13C63.0338 374.05 62.6438 373.19 61.8838 372.55C61.1238 371.89 60.1938 371.56 59.0938 371.56C58.0538 371.56 57.1738 371.88 56.4538 372.52C55.7538 373.14 55.3238 374.01 55.1638 375.13H63.0538ZM69.3894 376.69C69.3894 374.97 69.7394 373.47 70.4394 372.19C71.1394 370.89 72.1094 369.89 73.3494 369.19C74.5894 368.47 76.0094 368.11 77.6094 368.11C79.6694 368.11 81.3694 368.63 82.7094 369.67C84.0694 370.69 84.9794 372.13 85.4394 373.99H80.9094C80.6694 373.27 80.2594 372.71 79.6794 372.31C79.1194 371.89 78.4194 371.68 77.5794 371.68C76.3794 371.68 75.4294 372.12 74.7294 373C74.0294 373.86 73.6794 375.09 73.6794 376.69C73.6794 378.27 74.0294 379.5 74.7294 380.38C75.4294 381.24 76.3794 381.67 77.5794 381.67C79.2794 381.67 80.3894 380.91 80.9094 379.39H85.4394C84.9794 381.19 84.0694 382.62 82.7094 383.68C81.3494 384.74 79.6494 385.27 77.6094 385.27C76.0094 385.27 74.5894 384.92 73.3494 384.22C72.1094 383.5 71.1394 382.5 70.4394 381.22C69.7394 379.92 69.3894 378.41 69.3894 376.69ZM87.4363 376.63C87.4363 374.95 87.7663 373.46 88.4263 372.16C89.1063 370.86 90.0263 369.86 91.1863 369.16C92.3463 368.46 93.6363 368.11 95.0563 368.11C96.1363 368.11 97.1663 368.35 98.1463 368.83C99.1263 369.29 99.9063 369.91 100.486 370.69V362.8H104.746V385H100.486V382.54C99.9663 383.36 99.2363 384.02 98.2963 384.52C97.3563 385.02 96.2663 385.27 95.0263 385.27C93.6263 385.27 92.3463 384.91 91.1863 384.19C90.0263 383.47 89.1063 382.46 88.4263 381.16C87.7663 379.84 87.4363 378.33 87.4363 376.63ZM100.516 376.69C100.516 375.67 100.316 374.8 99.9163 374.08C99.5163 373.34 98.9763 372.78 98.2963 372.4C97.6163 372 96.8863 371.8 96.1063 371.8C95.3263 371.8 94.6063 371.99 93.9463 372.37C93.2863 372.75 92.7463 373.31 92.3263 374.05C91.9263 374.77 91.7263 375.63 91.7263 376.63C91.7263 377.63 91.9263 378.51 92.3263 379.27C92.7463 380.01 93.2863 380.58 93.9463 380.98C94.6263 381.38 95.3463 381.58 96.1063 381.58C96.8863 381.58 97.6163 381.39 98.2963 381.01C98.9763 380.61 99.5163 380.05 99.9163 379.33C100.316 378.59 100.516 377.71 100.516 376.69Z" fill="#616875"/>
<path fill-rule="evenodd" clip-rule="evenodd" d="M20.542 457.5C20.542 454.735 22.7774 452.5 25.5423 452.5C28.3072 452.5 30.542 454.735 30.542 457.5C30.542 460.265 28.3072 462.5 25.5423 462.5C22.7774 462.5 20.542 460.265 20.542 457.5" fill="#ADB3C0"/>
<path d="M54.452 464.01H46.112L44.732 468H40.322L47.852 447.03H52.742L60.272 468H55.832L54.452 464.01ZM53.312 460.65L50.282 451.89L47.252 460.65H53.312ZM67.2866 445.8V468H63.0866V445.8H67.2866ZM78.8162 468.27C77.2162 468.27 75.7762 467.92 74.4962 467.22C73.2162 466.5 72.2062 465.49 71.4662 464.19C70.7462 462.89 70.3862 461.39 70.3862 459.69C70.3862 457.99 70.7562 456.49 71.4962 455.19C72.2562 453.89 73.2862 452.89 74.5862 452.19C75.8862 451.47 77.3362 451.11 78.9362 451.11C80.5362 451.11 81.9862 451.47 83.2862 452.19C84.5862 452.89 85.6062 453.89 86.3462 455.19C87.1062 456.49 87.4862 457.99 87.4862 459.69C87.4862 461.39 87.0962 462.89 86.3162 464.19C85.5562 465.49 84.5162 466.5 83.1962 467.22C81.8962 467.92 80.4362 468.27 78.8162 468.27ZM78.8162 464.61C79.5762 464.61 80.2862 464.43 80.9462 464.07C81.6262 463.69 82.1662 463.13 82.5662 462.39C82.9662 461.65 83.1662 460.75 83.1662 459.69C83.1662 458.11 82.7462 456.9 81.9062 456.06C81.0862 455.2 80.0762 454.77 78.8762 454.77C77.6762 454.77 76.6662 455.2 75.8462 456.06C75.0462 456.9 74.6462 458.11 74.6462 459.69C74.6462 461.27 75.0362 462.49 75.8162 463.35C76.6162 464.19 77.6162 464.61 78.8162 464.61ZM99.7771 451.14C101.757 451.14 103.357 451.77 104.577 453.03C105.797 454.27 106.407 456.01 106.407 458.25V468H102.207V458.82C102.207 457.5 101.877 456.49 101.217 455.79C100.557 455.07 99.6571 454.71 98.5171 454.71C97.3571 454.71 96.4371 455.07 95.7571 455.79C95.0971 456.49 94.7671 457.5 94.7671 458.82V468H90.5671V451.38H94.7671V453.45C95.3271 452.73 96.0371 452.17 96.8971 451.77C97.7771 451.35 98.7371 451.14 99.7771 451.14ZM129.151 469.2V473.19H111.541V469.2H129.151ZM134.942 463.26C136.862 461.66 138.392 460.33 139.532 459.27C140.672 458.19 141.622 457.07 142.382 455.91C143.142 454.75 143.522 453.61 143.522 452.49C143.522 451.47 143.282 450.67 142.802 450.09C142.322 449.51 141.582 449.22 140.582 449.22C139.582 449.22 138.812 449.56 138.272 450.24C137.732 450.9 137.452 451.81 137.432 452.97H133.352C133.432 450.57 134.142 448.75 135.482 447.51C136.842 446.27 138.562 445.65 140.642 445.65C142.922 445.65 144.672 446.26 145.892 447.48C147.112 448.68 147.722 450.27 147.722 452.25C147.722 453.81 147.302 455.3 146.462 456.72C145.622 458.14 144.662 459.38 143.582 460.44C142.502 461.48 141.092 462.74 139.352 464.22H148.202V467.7H133.382V464.58L134.942 463.26Z" fill="#616875"/>
</svg>
