<svg width="269" height="814" viewBox="0 0 269 814" fill="none" xmlns="http://www.w3.org/2000/svg">
<path fill-rule="evenodd" clip-rule="evenodd" d="M20.542 42.5C20.542 39.7352 22.7774 37.5 25.5423 37.5C28.3072 37.5 30.542 39.7352 30.542 42.5C30.542 45.2648 28.3072 47.5 25.5423 47.5C22.7774 47.5 20.542 45.2648 20.542 42.5" fill="#52DE97"/>
<path d="M45.812 35.45V40.7H52.862V44.03H45.812V49.58H53.762V53H41.612V32.03H53.762V35.45H45.812ZM67.2988 53.21C65.3388 53.21 63.5388 52.75 61.8988 51.83C60.2588 50.91 58.9588 49.64 57.9988 48.02C57.0388 46.38 56.5588 44.53 56.5588 42.47C56.5588 40.43 57.0388 38.6 57.9988 36.98C58.9588 35.34 60.2588 34.06 61.8988 33.14C63.5388 32.22 65.3388 31.76 67.2988 31.76C69.2788 31.76 71.0788 32.22 72.6988 33.14C74.3388 34.06 75.6288 35.34 76.5688 36.98C77.5288 38.6 78.0088 40.43 78.0088 42.47C78.0088 44.53 77.5288 46.38 76.5688 48.02C75.6288 49.64 74.3388 50.91 72.6988 51.83C71.0588 52.75 69.2588 53.21 67.2988 53.21ZM67.2988 49.46C68.5588 49.46 69.6688 49.18 70.6288 48.62C71.5888 48.04 72.3388 47.22 72.8788 46.16C73.4188 45.1 73.6888 43.87 73.6888 42.47C73.6888 41.07 73.4188 39.85 72.8788 38.81C72.3388 37.75 71.5888 36.94 70.6288 36.38C69.6688 35.82 68.5588 35.54 67.2988 35.54C66.0388 35.54 64.9188 35.82 63.9388 36.38C62.9788 36.94 62.2288 37.75 61.6888 38.81C61.1488 39.85 60.8788 41.07 60.8788 42.47C60.8788 43.87 61.1488 45.1 61.6888 46.16C62.2288 47.22 62.9788 48.04 63.9388 48.62C64.9188 49.18 66.0388 49.46 67.2988 49.46ZM85.3335 49.67H92.2335V53H81.1335V32.06H85.3335V49.67Z" fill="#616875"/>
<path fill-rule="evenodd" clip-rule="evenodd" d="M20.542 540.5C20.542 537.735 22.7774 535.5 25.5423 535.5C28.3072 535.5 30.542 537.735 30.542 540.5C30.542 543.265 28.3072 545.5 25.5423 545.5C22.7774 545.5 20.542 543.265 20.542 540.5" fill="#ADB3C0"/>
<path d="M64.442 530.06V551H60.242V537.38L54.632 551H51.452L45.812 537.38V551H41.612V530.06H46.382L53.042 545.63L59.702 530.06H64.442ZM84.0444 542.33C84.0444 542.93 84.0044 543.47 83.9244 543.95H71.7744C71.8744 545.15 72.2944 546.09 73.0344 546.77C73.7744 547.45 74.6844 547.79 75.7644 547.79C77.3244 547.79 78.4344 547.12 79.0944 545.78H83.6244C83.1444 547.38 82.2244 548.7 80.8644 549.74C79.5044 550.76 77.8344 551.27 75.8544 551.27C74.2544 551.27 72.8144 550.92 71.5344 550.22C70.2744 549.5 69.2844 548.49 68.5644 547.19C67.8644 545.89 67.5144 544.39 67.5144 542.69C67.5144 540.97 67.8644 539.46 68.5644 538.16C69.2644 536.86 70.2444 535.86 71.5044 535.16C72.7644 534.46 74.2144 534.11 75.8544 534.11C77.4344 534.11 78.8444 534.45 80.0844 535.13C81.3444 535.81 82.3144 536.78 82.9944 538.04C83.6944 539.28 84.0444 540.71 84.0444 542.33ZM79.6944 541.13C79.6744 540.05 79.2844 539.19 78.5244 538.55C77.7644 537.89 76.8344 537.56 75.7344 537.56C74.6944 537.56 73.8144 537.88 73.0944 538.52C72.3944 539.14 71.9644 540.01 71.8044 541.13H79.6944ZM92 537.83V545.87C92 546.43 92.13 546.84 92.39 547.1C92.67 547.34 93.13 547.46 93.77 547.46H95.72V551H93.08C89.54 551 87.77 549.28 87.77 545.84V537.83H85.79V534.38H87.77V530.27H92V534.38H95.72V537.83H92ZM102.941 536.96C103.481 536.08 104.181 535.39 105.041 534.89C105.921 534.39 106.921 534.14 108.041 534.14V538.55H106.931C105.611 538.55 104.611 538.86 103.931 539.48C103.271 540.1 102.941 541.18 102.941 542.72V551H98.7409V534.38H102.941V536.96ZM118.25 551.27C116.65 551.27 115.21 550.92 113.93 550.22C112.65 549.5 111.64 548.49 110.9 547.19C110.18 545.89 109.82 544.39 109.82 542.69C109.82 540.99 110.19 539.49 110.93 538.19C111.69 536.89 112.72 535.89 114.02 535.19C115.32 534.47 116.77 534.11 118.37 534.11C119.97 534.11 121.42 534.47 122.72 535.19C124.02 535.89 125.04 536.89 125.78 538.19C126.54 539.49 126.92 540.99 126.92 542.69C126.92 544.39 126.53 545.89 125.75 547.19C124.99 548.49 123.95 549.5 122.63 550.22C121.33 550.92 119.87 551.27 118.25 551.27ZM118.25 547.61C119.01 547.61 119.72 547.43 120.38 547.07C121.06 546.69 121.6 546.13 122 545.39C122.4 544.65 122.6 543.75 122.6 542.69C122.6 541.11 122.18 539.9 121.34 539.06C120.52 538.2 119.51 537.77 118.31 537.77C117.11 537.77 116.1 538.2 115.28 539.06C114.48 539.9 114.08 541.11 114.08 542.69C114.08 544.27 114.47 545.49 115.25 546.35C116.05 547.19 117.05 547.61 118.25 547.61ZM134.201 528.8V551H130.001V528.8H134.201ZM145.73 551.27C144.13 551.27 142.69 550.92 141.41 550.22C140.13 549.5 139.12 548.49 138.38 547.19C137.66 545.89 137.3 544.39 137.3 542.69C137.3 540.99 137.67 539.49 138.41 538.19C139.17 536.89 140.2 535.89 141.5 535.19C142.8 534.47 144.25 534.11 145.85 534.11C147.45 534.11 148.9 534.47 150.2 535.19C151.5 535.89 152.52 536.89 153.26 538.19C154.02 539.49 154.4 540.99 154.4 542.69C154.4 544.39 154.01 545.89 153.23 547.19C152.47 548.49 151.43 549.5 150.11 550.22C148.81 550.92 147.35 551.27 145.73 551.27ZM145.73 547.61C146.49 547.61 147.2 547.43 147.86 547.07C148.54 546.69 149.08 546.13 149.48 545.39C149.88 544.65 150.08 543.75 150.08 542.69C150.08 541.11 149.66 539.9 148.82 539.06C148 538.2 146.99 537.77 145.79 537.77C144.59 537.77 143.58 538.2 142.76 539.06C141.96 539.9 141.56 541.11 141.56 542.69C141.56 544.27 141.95 545.49 142.73 546.35C143.53 547.19 144.53 547.61 145.73 547.61ZM163.991 534.11C165.231 534.11 166.321 534.36 167.261 534.86C168.201 535.34 168.941 535.97 169.481 536.75V534.38H173.711V551.12C173.711 552.66 173.401 554.03 172.781 555.23C172.161 556.45 171.231 557.41 169.991 558.11C168.751 558.83 167.251 559.19 165.491 559.19C163.131 559.19 161.191 558.64 159.671 557.54C158.171 556.44 157.321 554.94 157.121 553.04H161.291C161.511 553.8 161.981 554.4 162.701 554.84C163.441 555.3 164.331 555.53 165.371 555.53C166.591 555.53 167.581 555.16 168.341 554.42C169.101 553.7 169.481 552.6 169.481 551.12V548.54C168.941 549.32 168.191 549.97 167.231 550.49C166.291 551.01 165.211 551.27 163.991 551.27C162.591 551.27 161.311 550.91 160.151 550.19C158.991 549.47 158.071 548.46 157.391 547.16C156.731 545.84 156.401 544.33 156.401 542.63C156.401 540.95 156.731 539.46 157.391 538.16C158.071 536.86 158.981 535.86 160.121 535.16C161.281 534.46 162.571 534.11 163.991 534.11ZM169.481 542.69C169.481 541.67 169.281 540.8 168.881 540.08C168.481 539.34 167.941 538.78 167.261 538.4C166.581 538 165.851 537.8 165.071 537.8C164.291 537.8 163.571 537.99 162.911 538.37C162.251 538.75 161.711 539.31 161.291 540.05C160.891 540.77 160.691 541.63 160.691 542.63C160.691 543.63 160.891 544.51 161.291 545.27C161.711 546.01 162.251 546.58 162.911 546.98C163.591 547.38 164.311 547.58 165.071 547.58C165.851 547.58 166.581 547.39 167.261 547.01C167.941 546.61 168.481 546.05 168.881 545.33C169.281 544.59 169.481 543.71 169.481 542.69ZM193.713 534.38L183.423 558.86H178.953L182.553 550.58L175.893 534.38H180.603L184.893 545.99L189.243 534.38H193.713ZM214.727 552.2V556.19H197.117V552.2H214.727ZM218.688 533V529.13H225.918V551H221.598V533H218.688ZM229.558 533V529.13H236.788V551H232.468V533H229.558Z" fill="#616875"/>
<path fill-rule="evenodd" clip-rule="evenodd" d="M20.542 623.5C20.542 620.735 22.7774 618.5 25.5423 618.5C28.3072 618.5 30.542 620.735 30.542 623.5C30.542 626.265 28.3072 628.5 25.5423 628.5C22.7774 628.5 20.542 626.265 20.542 623.5" fill="#ADB3C0"/>
<path d="M40.592 623.5C40.592 621.44 41.052 619.6 41.972 617.98C42.912 616.34 44.182 615.07 45.782 614.17C47.402 613.25 49.212 612.79 51.212 612.79C53.552 612.79 55.602 613.39 57.362 614.59C59.122 615.79 60.352 617.45 61.052 619.57H56.222C55.742 618.57 55.062 617.82 54.182 617.32C53.322 616.82 52.322 616.57 51.182 616.57C49.962 616.57 48.872 616.86 47.912 617.44C46.972 618 46.232 618.8 45.692 619.84C45.172 620.88 44.912 622.1 44.912 623.5C44.912 624.88 45.172 626.1 45.692 627.16C46.232 628.2 46.972 629.01 47.912 629.59C48.872 630.15 49.962 630.43 51.182 630.43C52.322 630.43 53.322 630.18 54.182 629.68C55.062 629.16 55.742 628.4 56.222 627.4H61.052C60.352 629.54 59.122 631.21 57.362 632.41C55.622 633.59 53.572 634.18 51.212 634.18C49.212 634.18 47.402 633.73 45.782 632.83C44.182 631.91 42.912 630.64 41.972 629.02C41.052 627.4 40.592 625.56 40.592 623.5ZM63.5593 625.63C63.5593 623.95 63.8893 622.46 64.5493 621.16C65.2293 619.86 66.1393 618.86 67.2793 618.16C68.4393 617.46 69.7293 617.11 71.1493 617.11C72.3893 617.11 73.4693 617.36 74.3893 617.86C75.3293 618.36 76.0793 618.99 76.6393 619.75V617.38H80.8693V634H76.6393V631.57C76.0993 632.35 75.3493 633 74.3893 633.52C73.4493 634.02 72.3593 634.27 71.1193 634.27C69.7193 634.27 68.4393 633.91 67.2793 633.19C66.1393 632.47 65.2293 631.46 64.5493 630.16C63.8893 628.84 63.5593 627.33 63.5593 625.63ZM76.6393 625.69C76.6393 624.67 76.4393 623.8 76.0393 623.08C75.6393 622.34 75.0993 621.78 74.4193 621.4C73.7393 621 73.0093 620.8 72.2293 620.8C71.4493 620.8 70.7293 620.99 70.0693 621.37C69.4093 621.75 68.8693 622.31 68.4493 623.05C68.0493 623.77 67.8493 624.63 67.8493 625.63C67.8493 626.63 68.0493 627.51 68.4493 628.27C68.8693 629.01 69.4093 629.58 70.0693 629.98C70.7493 630.38 71.4693 630.58 72.2293 630.58C73.0093 630.58 73.7393 630.39 74.4193 630.01C75.0993 629.61 75.6393 629.05 76.0393 628.33C76.4393 627.59 76.6393 626.71 76.6393 625.69ZM89.1714 611.8V634H84.9714V611.8H89.1714ZM95.451 615.4C94.711 615.4 94.091 615.17 93.591 614.71C93.111 614.23 92.871 613.64 92.871 612.94C92.871 612.24 93.111 611.66 93.591 611.2C94.091 610.72 94.711 610.48 95.451 610.48C96.191 610.48 96.801 610.72 97.281 611.2C97.781 611.66 98.031 612.24 98.031 612.94C98.031 613.64 97.781 614.23 97.281 614.71C96.801 615.17 96.191 615.4 95.451 615.4ZM97.521 617.38V634H93.321V617.38H97.521ZM105.871 619.81C106.411 619.01 107.151 618.36 108.091 617.86C109.051 617.36 110.141 617.11 111.361 617.11C112.781 617.11 114.061 617.46 115.201 618.16C116.361 618.86 117.271 619.86 117.931 621.16C118.611 622.44 118.951 623.93 118.951 625.63C118.951 627.33 118.611 628.84 117.931 630.16C117.271 631.46 116.361 632.47 115.201 633.19C114.061 633.91 112.781 634.27 111.361 634.27C110.121 634.27 109.031 634.03 108.091 633.55C107.171 633.05 106.431 632.41 105.871 631.63V634H101.671V611.8H105.871V619.81ZM114.661 625.63C114.661 624.63 114.451 623.77 114.031 623.05C113.631 622.31 113.091 621.75 112.411 621.37C111.751 620.99 111.031 620.8 110.251 620.8C109.491 620.8 108.771 621 108.091 621.4C107.431 621.78 106.891 622.34 106.471 623.08C106.071 623.82 105.871 624.69 105.871 625.69C105.871 626.69 106.071 627.56 106.471 628.3C106.891 629.04 107.431 629.61 108.091 630.01C108.771 630.39 109.491 630.58 110.251 630.58C111.031 630.58 111.751 630.38 112.411 629.98C113.091 629.58 113.631 629.01 114.031 628.27C114.451 627.53 114.661 626.65 114.661 625.63ZM126.203 619.96C126.743 619.08 127.443 618.39 128.303 617.89C129.183 617.39 130.183 617.14 131.303 617.14V621.55H130.193C128.873 621.55 127.873 621.86 127.193 622.48C126.533 623.1 126.203 624.18 126.203 625.72V634H122.003V617.38H126.203V619.96ZM133.052 625.63C133.052 623.95 133.382 622.46 134.042 621.16C134.722 619.86 135.632 618.86 136.772 618.16C137.932 617.46 139.222 617.11 140.642 617.11C141.882 617.11 142.962 617.36 143.882 617.86C144.822 618.36 145.572 618.99 146.132 619.75V617.38H150.362V634H146.132V631.57C145.592 632.35 144.842 633 143.882 633.52C142.942 634.02 141.852 634.27 140.612 634.27C139.212 634.27 137.932 633.91 136.772 633.19C135.632 632.47 134.722 631.46 134.042 630.16C133.382 628.84 133.052 627.33 133.052 625.63ZM146.132 625.69C146.132 624.67 145.932 623.8 145.532 623.08C145.132 622.34 144.592 621.78 143.912 621.4C143.232 621 142.502 620.8 141.722 620.8C140.942 620.8 140.222 620.99 139.562 621.37C138.902 621.75 138.362 622.31 137.942 623.05C137.542 623.77 137.342 624.63 137.342 625.63C137.342 626.63 137.542 627.51 137.942 628.27C138.362 629.01 138.902 629.58 139.562 629.98C140.242 630.38 140.962 630.58 141.722 630.58C142.502 630.58 143.232 630.39 143.912 630.01C144.592 629.61 145.132 629.05 145.532 628.33C145.932 627.59 146.132 626.71 146.132 625.69ZM159.354 620.83V628.87C159.354 629.43 159.484 629.84 159.744 630.1C160.024 630.34 160.484 630.46 161.124 630.46H163.074V634H160.434C156.894 634 155.124 632.28 155.124 628.84V620.83H153.144V617.38H155.124V613.27H159.354V617.38H163.074V620.83H159.354ZM168.224 615.4C167.484 615.4 166.864 615.17 166.364 614.71C165.884 614.23 165.644 613.64 165.644 612.94C165.644 612.24 165.884 611.66 166.364 611.2C166.864 610.72 167.484 610.48 168.224 610.48C168.964 610.48 169.574 610.72 170.054 611.2C170.554 611.66 170.804 612.24 170.804 612.94C170.804 613.64 170.554 614.23 170.054 614.71C169.574 615.17 168.964 615.4 168.224 615.4ZM170.294 617.38V634H166.094V617.38H170.294ZM181.824 634.27C180.224 634.27 178.784 633.92 177.504 633.22C176.224 632.5 175.214 631.49 174.474 630.19C173.754 628.89 173.394 627.39 173.394 625.69C173.394 623.99 173.764 622.49 174.504 621.19C175.264 619.89 176.294 618.89 177.594 618.19C178.894 617.47 180.344 617.11 181.944 617.11C183.544 617.11 184.994 617.47 186.294 618.19C187.594 618.89 188.614 619.89 189.354 621.19C190.114 622.49 190.494 623.99 190.494 625.69C190.494 627.39 190.104 628.89 189.324 630.19C188.564 631.49 187.524 632.5 186.204 633.22C184.904 633.92 183.444 634.27 181.824 634.27ZM181.824 630.61C182.584 630.61 183.294 630.43 183.954 630.07C184.634 629.69 185.174 629.13 185.574 628.39C185.974 627.65 186.174 626.75 186.174 625.69C186.174 624.11 185.754 622.9 184.914 622.06C184.094 621.2 183.084 620.77 181.884 620.77C180.684 620.77 179.674 621.2 178.854 622.06C178.054 622.9 177.654 624.11 177.654 625.69C177.654 627.27 178.044 628.49 178.824 629.35C179.624 630.19 180.624 630.61 181.824 630.61ZM202.785 617.14C204.765 617.14 206.365 617.77 207.585 619.03C208.805 620.27 209.415 622.01 209.415 624.25V634H205.215V624.82C205.215 623.5 204.885 622.49 204.225 621.79C203.565 621.07 202.665 620.71 201.525 620.71C200.365 620.71 199.445 621.07 198.765 621.79C198.105 622.49 197.775 623.5 197.775 624.82V634H193.575V617.38H197.775V619.45C198.335 618.73 199.045 618.17 199.905 617.77C200.785 617.35 201.745 617.14 202.785 617.14ZM219.897 629.74V626.44L229.707 612.4H234.597V626.08H237.237V629.74H234.597V634H230.397V629.74H219.897ZM230.667 616.9L224.517 626.08H230.667V616.9Z" fill="#616875"/>
<path fill-rule="evenodd" clip-rule="evenodd" d="M20.542 706.5C20.542 703.735 22.7774 701.5 25.5423 701.5C28.3072 701.5 30.542 703.735 30.542 706.5C30.542 709.265 28.3072 711.5 25.5423 711.5C22.7774 711.5 20.542 709.265 20.542 706.5" fill="#ADB3C0"/>
<path d="M54.152 717L49.622 709.95L45.512 717H40.772L47.372 706.44L40.682 696.06H45.512L50.042 703.08L54.122 696.06H58.862L52.292 706.59L58.982 717H54.152ZM74.9584 704.52V708.06H62.2384V704.52H74.9584ZM83.8686 702.96C84.4086 702.08 85.1086 701.39 85.9686 700.89C86.8486 700.39 87.8486 700.14 88.9686 700.14V704.55H87.8586C86.5386 704.55 85.5386 704.86 84.8586 705.48C84.1986 706.1 83.8686 707.18 83.8686 708.72V717H79.6686V700.38H83.8686V702.96ZM90.7175 708.63C90.7175 706.95 91.0475 705.46 91.7075 704.16C92.3875 702.86 93.2975 701.86 94.4375 701.16C95.5975 700.46 96.8875 700.11 98.3075 700.11C99.5475 700.11 100.628 700.36 101.548 700.86C102.488 701.36 103.238 701.99 103.798 702.75V700.38H108.028V717H103.798V714.57C103.258 715.35 102.508 716 101.548 716.52C100.608 717.02 99.5175 717.27 98.2775 717.27C96.8775 717.27 95.5975 716.91 94.4375 716.19C93.2975 715.47 92.3875 714.46 91.7075 713.16C91.0475 711.84 90.7175 710.33 90.7175 708.63ZM103.798 708.69C103.798 707.67 103.598 706.8 103.198 706.08C102.798 705.34 102.258 704.78 101.578 704.4C100.898 704 100.168 703.8 99.3875 703.8C98.6075 703.8 97.8875 703.99 97.2275 704.37C96.5675 704.75 96.0275 705.31 95.6075 706.05C95.2075 706.77 95.0075 707.63 95.0075 708.63C95.0075 709.63 95.2075 710.51 95.6075 711.27C96.0275 712.01 96.5675 712.58 97.2275 712.98C97.9075 713.38 98.6275 713.58 99.3875 713.58C100.168 713.58 100.898 713.39 101.578 713.01C102.258 712.61 102.798 712.05 103.198 711.33C103.598 710.59 103.798 709.71 103.798 708.69ZM128.03 700.38L117.74 724.86H113.27L116.87 716.58L110.21 700.38H114.92L119.21 711.99L123.56 700.38H128.03ZM136.452 699V695.13H143.682V717H139.362V699H136.452ZM149.151 712.26C151.071 710.66 152.601 709.33 153.741 708.27C154.881 707.19 155.831 706.07 156.591 704.91C157.351 703.75 157.731 702.61 157.731 701.49C157.731 700.47 157.491 699.67 157.011 699.09C156.531 698.51 155.791 698.22 154.791 698.22C153.791 698.22 153.021 698.56 152.481 699.24C151.941 699.9 151.661 700.81 151.641 701.97H147.561C147.641 699.57 148.351 697.75 149.691 696.51C151.051 695.27 152.771 694.65 154.851 694.65C157.131 694.65 158.881 695.26 160.101 696.48C161.321 697.68 161.931 699.27 161.931 701.25C161.931 702.81 161.511 704.3 160.671 705.72C159.831 707.14 158.871 708.38 157.791 709.44C156.711 710.48 155.301 711.74 153.561 713.22H162.411V716.7H147.591V713.58L149.151 712.26Z" fill="#616875"/>
<path fill-rule="evenodd" clip-rule="evenodd" d="M20.542 125.5C20.542 122.735 22.7774 120.5 25.5423 120.5C28.3072 120.5 30.542 122.735 30.542 125.5C30.542 128.265 28.3072 130.5 25.5423 130.5C22.7774 130.5 20.542 128.265 20.542 125.5" fill="#52DE97"/>
<path d="M54.152 136L49.622 128.95L45.512 136H40.772L47.372 125.44L40.682 115.06H45.512L50.042 122.08L54.122 115.06H58.862L52.292 125.59L58.982 136H54.152ZM74.9584 123.52V127.06H62.2384V123.52H74.9584ZM83.8686 121.96C84.4086 121.08 85.1086 120.39 85.9686 119.89C86.8486 119.39 87.8486 119.14 88.9686 119.14V123.55H87.8586C86.5386 123.55 85.5386 123.86 84.8586 124.48C84.1986 125.1 83.8686 126.18 83.8686 127.72V136H79.6686V119.38H83.8686V121.96ZM90.7175 127.63C90.7175 125.95 91.0475 124.46 91.7075 123.16C92.3875 121.86 93.2975 120.86 94.4375 120.16C95.5975 119.46 96.8875 119.11 98.3075 119.11C99.5475 119.11 100.628 119.36 101.548 119.86C102.488 120.36 103.238 120.99 103.798 121.75V119.38H108.028V136H103.798V133.57C103.258 134.35 102.508 135 101.548 135.52C100.608 136.02 99.5175 136.27 98.2775 136.27C96.8775 136.27 95.5975 135.91 94.4375 135.19C93.2975 134.47 92.3875 133.46 91.7075 132.16C91.0475 130.84 90.7175 129.33 90.7175 127.63ZM103.798 127.69C103.798 126.67 103.598 125.8 103.198 125.08C102.798 124.34 102.258 123.78 101.578 123.4C100.898 123 100.168 122.8 99.3875 122.8C98.6075 122.8 97.8875 122.99 97.2275 123.37C96.5675 123.75 96.0275 124.31 95.6075 125.05C95.2075 125.77 95.0075 126.63 95.0075 127.63C95.0075 128.63 95.2075 129.51 95.6075 130.27C96.0275 131.01 96.5675 131.58 97.2275 131.98C97.9075 132.38 98.6275 132.58 99.3875 132.58C100.168 132.58 100.898 132.39 101.578 132.01C102.258 131.61 102.798 131.05 103.198 130.33C103.598 129.59 103.798 128.71 103.798 127.69ZM128.03 119.38L117.74 143.86H113.27L116.87 135.58L110.21 119.38H114.92L119.21 130.99L123.56 119.38H128.03ZM137.022 119.89C137.122 117.89 137.822 116.35 139.122 115.27C140.442 114.17 142.172 113.62 144.312 113.62C145.772 113.62 147.022 113.88 148.062 114.4C149.102 114.9 149.882 115.59 150.402 116.47C150.942 117.33 151.212 118.31 151.212 119.41C151.212 120.67 150.882 121.74 150.222 122.62C149.582 123.48 148.812 124.06 147.912 124.36V124.48C149.072 124.84 149.972 125.48 150.612 126.4C151.272 127.32 151.602 128.5 151.602 129.94C151.602 131.14 151.322 132.21 150.762 133.15C150.222 134.09 149.412 134.83 148.332 135.37C147.272 135.89 145.992 136.15 144.492 136.15C142.232 136.15 140.392 135.58 138.972 134.44C137.552 133.3 136.802 131.62 136.722 129.4H140.802C140.842 130.38 141.172 131.17 141.792 131.77C142.432 132.35 143.302 132.64 144.402 132.64C145.422 132.64 146.202 132.36 146.742 131.8C147.302 131.22 147.582 130.48 147.582 129.58C147.582 128.38 147.202 127.52 146.442 127C145.682 126.48 144.502 126.22 142.902 126.22H142.032V122.77H142.902C145.742 122.77 147.162 121.82 147.162 119.92C147.162 119.06 146.902 118.39 146.382 117.91C145.882 117.43 145.152 117.19 144.192 117.19C143.252 117.19 142.522 117.45 142.002 117.97C141.502 118.47 141.212 119.11 141.132 119.89H137.022Z" fill="#616875"/>
<path fill-rule="evenodd" clip-rule="evenodd" d="M20.542 208.5C20.542 205.735 22.7774 203.5 25.5423 203.5C28.3072 203.5 30.542 205.735 30.542 208.5C30.542 211.265 28.3072 213.5 25.5423 213.5C22.7774 213.5 20.542 211.265 20.542 208.5" fill="#52DE97"/>
<path d="M54.452 215.01H46.112L44.732 219H40.322L47.852 198.03H52.742L60.272 219H55.832L54.452 215.01ZM53.312 211.65L50.282 202.89L47.252 211.65H53.312ZM77.3366 198.06V201.45H71.7566V219H67.5566V201.45H61.9766V198.06H77.3366ZM84.6011 201.45V206.7H91.6511V210.03H84.6011V215.58H92.5511V219H80.4011V198.03H92.5511V201.45H84.6011ZM115.118 220.2V224.19H97.5079V220.2H115.118ZM119.079 201V197.13H126.309V219H121.989V201H119.079ZM129.948 201V197.13H137.178V219H132.858V201H129.948Z" fill="#616875"/>
<path fill-rule="evenodd" clip-rule="evenodd" d="M20.542 291.5C20.542 288.735 22.7774 286.5 25.5423 286.5C28.3072 286.5 30.542 288.735 30.542 291.5C30.542 294.265 28.3072 296.5 25.5423 296.5C22.7774 296.5 20.542 294.265 20.542 291.5" fill="#52DE97"/>
<path d="M64.442 281.06V302H60.242V288.38L54.632 302H51.452L45.812 288.38V302H41.612V281.06H46.382L53.042 296.63L59.702 281.06H64.442ZM84.0444 293.33C84.0444 293.93 84.0044 294.47 83.9244 294.95H71.7744C71.8744 296.15 72.2944 297.09 73.0344 297.77C73.7744 298.45 74.6844 298.79 75.7644 298.79C77.3244 298.79 78.4344 298.12 79.0944 296.78H83.6244C83.1444 298.38 82.2244 299.7 80.8644 300.74C79.5044 301.76 77.8344 302.27 75.8544 302.27C74.2544 302.27 72.8144 301.92 71.5344 301.22C70.2744 300.5 69.2844 299.49 68.5644 298.19C67.8644 296.89 67.5144 295.39 67.5144 293.69C67.5144 291.97 67.8644 290.46 68.5644 289.16C69.2644 287.86 70.2444 286.86 71.5044 286.16C72.7644 285.46 74.2144 285.11 75.8544 285.11C77.4344 285.11 78.8444 285.45 80.0844 286.13C81.3444 286.81 82.3144 287.78 82.9944 289.04C83.6944 290.28 84.0444 291.71 84.0444 293.33ZM79.6944 292.13C79.6744 291.05 79.2844 290.19 78.5244 289.55C77.7644 288.89 76.8344 288.56 75.7344 288.56C74.6944 288.56 73.8144 288.88 73.0944 289.52C72.3944 290.14 71.9644 291.01 71.8044 292.13H79.6944ZM92 288.83V296.87C92 297.43 92.13 297.84 92.39 298.1C92.67 298.34 93.13 298.46 93.77 298.46H95.72V302H93.08C89.54 302 87.77 300.28 87.77 296.84V288.83H85.79V285.38H87.77V281.27H92V285.38H95.72V288.83H92ZM102.941 287.96C103.481 287.08 104.181 286.39 105.041 285.89C105.921 285.39 106.921 285.14 108.041 285.14V289.55H106.931C105.611 289.55 104.611 289.86 103.931 290.48C103.271 291.1 102.941 292.18 102.941 293.72V302H98.7409V285.38H102.941V287.96ZM118.25 302.27C116.65 302.27 115.21 301.92 113.93 301.22C112.65 300.5 111.64 299.49 110.9 298.19C110.18 296.89 109.82 295.39 109.82 293.69C109.82 291.99 110.19 290.49 110.93 289.19C111.69 287.89 112.72 286.89 114.02 286.19C115.32 285.47 116.77 285.11 118.37 285.11C119.97 285.11 121.42 285.47 122.72 286.19C124.02 286.89 125.04 287.89 125.78 289.19C126.54 290.49 126.92 291.99 126.92 293.69C126.92 295.39 126.53 296.89 125.75 298.19C124.99 299.49 123.95 300.5 122.63 301.22C121.33 301.92 119.87 302.27 118.25 302.27ZM118.25 298.61C119.01 298.61 119.72 298.43 120.38 298.07C121.06 297.69 121.6 297.13 122 296.39C122.4 295.65 122.6 294.75 122.6 293.69C122.6 292.11 122.18 290.9 121.34 290.06C120.52 289.2 119.51 288.77 118.31 288.77C117.11 288.77 116.1 289.2 115.28 290.06C114.48 290.9 114.08 292.11 114.08 293.69C114.08 295.27 114.47 296.49 115.25 297.35C116.05 298.19 117.05 298.61 118.25 298.61ZM134.201 279.8V302H130.001V279.8H134.201ZM145.73 302.27C144.13 302.27 142.69 301.92 141.41 301.22C140.13 300.5 139.12 299.49 138.38 298.19C137.66 296.89 137.3 295.39 137.3 293.69C137.3 291.99 137.67 290.49 138.41 289.19C139.17 287.89 140.2 286.89 141.5 286.19C142.8 285.47 144.25 285.11 145.85 285.11C147.45 285.11 148.9 285.47 150.2 286.19C151.5 286.89 152.52 287.89 153.26 289.19C154.02 290.49 154.4 291.99 154.4 293.69C154.4 295.39 154.01 296.89 153.23 298.19C152.47 299.49 151.43 300.5 150.11 301.22C148.81 301.92 147.35 302.27 145.73 302.27ZM145.73 298.61C146.49 298.61 147.2 298.43 147.86 298.07C148.54 297.69 149.08 297.13 149.48 296.39C149.88 295.65 150.08 294.75 150.08 293.69C150.08 292.11 149.66 290.9 148.82 290.06C148 289.2 146.99 288.77 145.79 288.77C144.59 288.77 143.58 289.2 142.76 290.06C141.96 290.9 141.56 292.11 141.56 293.69C141.56 295.27 141.95 296.49 142.73 297.35C143.53 298.19 144.53 298.61 145.73 298.61ZM163.991 285.11C165.231 285.11 166.321 285.36 167.261 285.86C168.201 286.34 168.941 286.97 169.481 287.75V285.38H173.711V302.12C173.711 303.66 173.401 305.03 172.781 306.23C172.161 307.45 171.231 308.41 169.991 309.11C168.751 309.83 167.251 310.19 165.491 310.19C163.131 310.19 161.191 309.64 159.671 308.54C158.171 307.44 157.321 305.94 157.121 304.04H161.291C161.511 304.8 161.981 305.4 162.701 305.84C163.441 306.3 164.331 306.53 165.371 306.53C166.591 306.53 167.581 306.16 168.341 305.42C169.101 304.7 169.481 303.6 169.481 302.12V299.54C168.941 300.32 168.191 300.97 167.231 301.49C166.291 302.01 165.211 302.27 163.991 302.27C162.591 302.27 161.311 301.91 160.151 301.19C158.991 300.47 158.071 299.46 157.391 298.16C156.731 296.84 156.401 295.33 156.401 293.63C156.401 291.95 156.731 290.46 157.391 289.16C158.071 287.86 158.981 286.86 160.121 286.16C161.281 285.46 162.571 285.11 163.991 285.11ZM169.481 293.69C169.481 292.67 169.281 291.8 168.881 291.08C168.481 290.34 167.941 289.78 167.261 289.4C166.581 289 165.851 288.8 165.071 288.8C164.291 288.8 163.571 288.99 162.911 289.37C162.251 289.75 161.711 290.31 161.291 291.05C160.891 291.77 160.691 292.63 160.691 293.63C160.691 294.63 160.891 295.51 161.291 296.27C161.711 297.01 162.251 297.58 162.911 297.98C163.591 298.38 164.311 298.58 165.071 298.58C165.851 298.58 166.581 298.39 167.261 298.01C167.941 297.61 168.481 297.05 168.881 296.33C169.281 295.59 169.481 294.71 169.481 293.69ZM193.713 285.38L183.423 309.86H178.953L182.553 301.58L175.893 285.38H180.603L184.893 296.99L189.243 285.38H193.713ZM202.136 284V280.13H209.366V302H205.046V284H202.136Z" fill="#616875"/>
<path fill-rule="evenodd" clip-rule="evenodd" d="M20.542 374.5C20.542 371.735 22.7774 369.5 25.5423 369.5C28.3072 369.5 30.542 371.735 30.542 374.5C30.542 377.265 28.3072 379.5 25.5423 379.5C22.7774 379.5 20.542 377.265 20.542 374.5" fill="#ADB3C0"/>
<path d="M64.442 364.06V385H60.242V371.38L54.632 385H51.452L45.812 371.38V385H41.612V364.06H46.382L53.042 379.63L59.702 364.06H64.442ZM84.0444 376.33C84.0444 376.93 84.0044 377.47 83.9244 377.95H71.7744C71.8744 379.15 72.2944 380.09 73.0344 380.77C73.7744 381.45 74.6844 381.79 75.7644 381.79C77.3244 381.79 78.4344 381.12 79.0944 379.78H83.6244C83.1444 381.38 82.2244 382.7 80.8644 383.74C79.5044 384.76 77.8344 385.27 75.8544 385.27C74.2544 385.27 72.8144 384.92 71.5344 384.22C70.2744 383.5 69.2844 382.49 68.5644 381.19C67.8644 379.89 67.5144 378.39 67.5144 376.69C67.5144 374.97 67.8644 373.46 68.5644 372.16C69.2644 370.86 70.2444 369.86 71.5044 369.16C72.7644 368.46 74.2144 368.11 75.8544 368.11C77.4344 368.11 78.8444 368.45 80.0844 369.13C81.3444 369.81 82.3144 370.78 82.9944 372.04C83.6944 373.28 84.0444 374.71 84.0444 376.33ZM79.6944 375.13C79.6744 374.05 79.2844 373.19 78.5244 372.55C77.7644 371.89 76.8344 371.56 75.7344 371.56C74.6944 371.56 73.8144 371.88 73.0944 372.52C72.3944 373.14 71.9644 374.01 71.8044 375.13H79.6944ZM92 371.83V379.87C92 380.43 92.13 380.84 92.39 381.1C92.67 381.34 93.13 381.46 93.77 381.46H95.72V385H93.08C89.54 385 87.77 383.28 87.77 379.84V371.83H85.79V368.38H87.77V364.27H92V368.38H95.72V371.83H92ZM102.941 370.96C103.481 370.08 104.181 369.39 105.041 368.89C105.921 368.39 106.921 368.14 108.041 368.14V372.55H106.931C105.611 372.55 104.611 372.86 103.931 373.48C103.271 374.1 102.941 375.18 102.941 376.72V385H98.7409V368.38H102.941V370.96ZM118.25 385.27C116.65 385.27 115.21 384.92 113.93 384.22C112.65 383.5 111.64 382.49 110.9 381.19C110.18 379.89 109.82 378.39 109.82 376.69C109.82 374.99 110.19 373.49 110.93 372.19C111.69 370.89 112.72 369.89 114.02 369.19C115.32 368.47 116.77 368.11 118.37 368.11C119.97 368.11 121.42 368.47 122.72 369.19C124.02 369.89 125.04 370.89 125.78 372.19C126.54 373.49 126.92 374.99 126.92 376.69C126.92 378.39 126.53 379.89 125.75 381.19C124.99 382.49 123.95 383.5 122.63 384.22C121.33 384.92 119.87 385.27 118.25 385.27ZM118.25 381.61C119.01 381.61 119.72 381.43 120.38 381.07C121.06 380.69 121.6 380.13 122 379.39C122.4 378.65 122.6 377.75 122.6 376.69C122.6 375.11 122.18 373.9 121.34 373.06C120.52 372.2 119.51 371.77 118.31 371.77C117.11 371.77 116.1 372.2 115.28 373.06C114.48 373.9 114.08 375.11 114.08 376.69C114.08 378.27 114.47 379.49 115.25 380.35C116.05 381.19 117.05 381.61 118.25 381.61ZM134.201 362.8V385H130.001V362.8H134.201ZM145.73 385.27C144.13 385.27 142.69 384.92 141.41 384.22C140.13 383.5 139.12 382.49 138.38 381.19C137.66 379.89 137.3 378.39 137.3 376.69C137.3 374.99 137.67 373.49 138.41 372.19C139.17 370.89 140.2 369.89 141.5 369.19C142.8 368.47 144.25 368.11 145.85 368.11C147.45 368.11 148.9 368.47 150.2 369.19C151.5 369.89 152.52 370.89 153.26 372.19C154.02 373.49 154.4 374.99 154.4 376.69C154.4 378.39 154.01 379.89 153.23 381.19C152.47 382.49 151.43 383.5 150.11 384.22C148.81 384.92 147.35 385.27 145.73 385.27ZM145.73 381.61C146.49 381.61 147.2 381.43 147.86 381.07C148.54 380.69 149.08 380.13 149.48 379.39C149.88 378.65 150.08 377.75 150.08 376.69C150.08 375.11 149.66 373.9 148.82 373.06C148 372.2 146.99 371.77 145.79 371.77C144.59 371.77 143.58 372.2 142.76 373.06C141.96 373.9 141.56 375.11 141.56 376.69C141.56 378.27 141.95 379.49 142.73 380.35C143.53 381.19 144.53 381.61 145.73 381.61ZM163.991 368.11C165.231 368.11 166.321 368.36 167.261 368.86C168.201 369.34 168.941 369.97 169.481 370.75V368.38H173.711V385.12C173.711 386.66 173.401 388.03 172.781 389.23C172.161 390.45 171.231 391.41 169.991 392.11C168.751 392.83 167.251 393.19 165.491 393.19C163.131 393.19 161.191 392.64 159.671 391.54C158.171 390.44 157.321 388.94 157.121 387.04H161.291C161.511 387.8 161.981 388.4 162.701 388.84C163.441 389.3 164.331 389.53 165.371 389.53C166.591 389.53 167.581 389.16 168.341 388.42C169.101 387.7 169.481 386.6 169.481 385.12V382.54C168.941 383.32 168.191 383.97 167.231 384.49C166.291 385.01 165.211 385.27 163.991 385.27C162.591 385.27 161.311 384.91 160.151 384.19C158.991 383.47 158.071 382.46 157.391 381.16C156.731 379.84 156.401 378.33 156.401 376.63C156.401 374.95 156.731 373.46 157.391 372.16C158.071 370.86 158.981 369.86 160.121 369.16C161.281 368.46 162.571 368.11 163.991 368.11ZM169.481 376.69C169.481 375.67 169.281 374.8 168.881 374.08C168.481 373.34 167.941 372.78 167.261 372.4C166.581 372 165.851 371.8 165.071 371.8C164.291 371.8 163.571 371.99 162.911 372.37C162.251 372.75 161.711 373.31 161.291 374.05C160.891 374.77 160.691 375.63 160.691 376.63C160.691 377.63 160.891 378.51 161.291 379.27C161.711 380.01 162.251 380.58 162.911 380.98C163.591 381.38 164.311 381.58 165.071 381.58C165.851 381.58 166.581 381.39 167.261 381.01C167.941 380.61 168.481 380.05 168.881 379.33C169.281 378.59 169.481 377.71 169.481 376.69ZM193.713 368.38L183.423 392.86H178.953L182.553 384.58L175.893 368.38H180.603L184.893 379.99L189.243 368.38H193.713ZM203.966 380.26C205.886 378.66 207.416 377.33 208.556 376.27C209.696 375.19 210.646 374.07 211.406 372.91C212.166 371.75 212.546 370.61 212.546 369.49C212.546 368.47 212.306 367.67 211.826 367.09C211.346 366.51 210.606 366.22 209.606 366.22C208.606 366.22 207.836 366.56 207.296 367.24C206.756 367.9 206.476 368.81 206.456 369.97H202.376C202.456 367.57 203.166 365.75 204.506 364.51C205.866 363.27 207.586 362.65 209.666 362.65C211.946 362.65 213.696 363.26 214.916 364.48C216.136 365.68 216.746 367.27 216.746 369.25C216.746 370.81 216.326 372.3 215.486 373.72C214.646 375.14 213.686 376.38 212.606 377.44C211.526 378.48 210.116 379.74 208.376 381.22H217.226V384.7H202.406V381.58L203.966 380.26Z" fill="#616875"/>
<path fill-rule="evenodd" clip-rule="evenodd" d="M20.542 457.5C20.542 454.735 22.7774 452.5 25.5423 452.5C28.3072 452.5 30.542 454.735 30.542 457.5C30.542 460.265 28.3072 462.5 25.5423 462.5C22.7774 462.5 20.542 460.265 20.542 457.5" fill="#ADB3C0"/>
<path d="M54.452 464.01H46.112L44.732 468H40.322L47.852 447.03H52.742L60.272 468H55.832L54.452 464.01ZM53.312 460.65L50.282 451.89L47.252 460.65H53.312ZM77.3366 447.06V450.45H71.7566V468H67.5566V450.45H61.9766V447.06H77.3366ZM84.6011 450.45V455.7H91.6511V459.03H84.6011V464.58H92.5511V468H80.4011V447.03H92.5511V450.45H84.6011ZM115.118 469.2V473.19H97.5079V469.2H115.118ZM120.909 463.26C122.829 461.66 124.359 460.33 125.499 459.27C126.639 458.19 127.589 457.07 128.349 455.91C129.109 454.75 129.489 453.61 129.489 452.49C129.489 451.47 129.249 450.67 128.769 450.09C128.289 449.51 127.549 449.22 126.549 449.22C125.549 449.22 124.779 449.56 124.239 450.24C123.699 450.9 123.419 451.81 123.399 452.97H119.319C119.399 450.57 120.109 448.75 121.449 447.51C122.809 446.27 124.529 445.65 126.609 445.65C128.889 445.65 130.639 446.26 131.859 447.48C133.079 448.68 133.689 450.27 133.689 452.25C133.689 453.81 133.269 455.3 132.429 456.72C131.589 458.14 130.629 459.38 129.549 460.44C128.469 461.48 127.059 462.74 125.319 464.22H134.169V467.7H119.349V464.58L120.909 463.26Z" fill="#616875"/>
</svg>
