<svg width="91" height="54" viewBox="0 0 91 54" fill="none" xmlns="http://www.w3.org/2000/svg">
<path fill-rule="evenodd" clip-rule="evenodd" d="M76.4209 0.564453H89.3087C89.6895 0.575119 90.0516 0.730996 90.3201 0.999872C90.5885 1.26875 90.7425 1.6299 90.7505 2.0087V8.96876H88.3036V12.057C87.8458 12.4442 87.3879 12.8679 86.9564 13.297C82.4566 17.7803 79.8263 23.7889 79.5921 30.1189C79.3579 36.449 81.5371 42.6332 85.6935 47.4332H82.5148V47.4592H2.63122V51.206H88.9086V53.8226H1.32075C0.97043 53.8226 0.634428 53.6843 0.386717 53.438C0.139005 53.1917 0 52.8575 0 52.5091V46.0095C0.00514775 45.8449 0.0437962 45.683 0.113831 45.5338C0.183866 45.3845 0.283713 45.2512 0.407273 45.1415C0.530833 45.0319 0.675492 44.9482 0.832533 44.896C0.989574 44.8437 1.1557 44.8236 1.32075 44.8372H3.35197V18.8597C3.38627 18.5003 3.55527 18.1666 3.82528 17.9253C4.0953 17.6839 4.44663 17.5523 4.80968 17.5565H17.7132C18.0706 17.5509 18.4158 17.6857 18.6739 17.9316C18.932 18.1776 19.0823 18.5149 19.092 18.8702V44.8372H27.433V2.21286C27.4252 2.04318 27.4514 1.87359 27.5101 1.71407C27.5688 1.55455 27.6587 1.40815 27.7747 1.28351C27.8908 1.15886 28.0307 1.05833 28.1861 0.987863C28.3415 0.917397 28.5095 0.878502 28.6802 0.873131H41.5837C41.9291 0.883546 42.2569 1.02588 42.4993 1.27073C42.6225 1.39457 42.7197 1.5418 42.7847 1.7036C42.8498 1.86539 42.8817 2.03863 42.8783 2.21286V44.8372H51.219V9.36125C51.2245 9.03921 51.3576 8.73231 51.589 8.50702C51.8205 8.28173 52.1319 8.15629 52.4557 8.15771H65.454C65.6114 8.15269 65.768 8.17967 65.9145 8.23693C66.061 8.29419 66.1943 8.38046 66.3061 8.49067C66.4179 8.60088 66.506 8.7326 66.5648 8.87779C66.6237 9.02299 66.6523 9.17867 66.6486 9.33519V44.8216H74.9896V1.97727C75.0089 1.60694 75.1662 1.25702 75.4308 0.995784C75.6955 0.734544 76.0483 0.580873 76.4209 0.564453ZM10.2145 48.3699H10.2198C10.7923 48.3699 11.2565 48.8315 11.2565 49.4008V49.4061C11.2565 49.9754 10.7923 50.437 10.2198 50.437H10.2145C9.64195 50.437 9.1778 49.9754 9.1778 49.4061V49.4008C9.1778 48.8315 9.64195 48.3699 10.2145 48.3699ZM18.8079 48.3699H18.8132C19.3858 48.3699 19.8499 48.8315 19.8499 49.4008V49.4061C19.8499 49.9754 19.3858 50.437 18.8132 50.437H18.8079C18.2354 50.437 17.7712 49.9754 17.7712 49.4061V49.4008C17.7712 48.8315 18.2354 48.3699 18.8079 48.3699ZM27.4119 48.3699H27.4066C26.8341 48.3699 26.3699 48.8315 26.3699 49.4008V49.4061C26.3699 49.9754 26.8341 50.437 27.4066 50.437H27.4119C27.9844 50.437 28.4486 49.9754 28.4486 49.4061V49.4008C28.4486 48.8315 27.9844 48.3699 27.4119 48.3699ZM44.5992 48.3699H44.6044C45.177 48.3699 45.6411 48.8315 45.6411 49.4008V49.4061C45.6411 49.9754 45.177 50.437 44.6044 50.437H44.5992C44.0266 50.437 43.5625 49.9754 43.5625 49.4061V49.4008C43.5625 48.8315 44.0266 48.3699 44.5992 48.3699ZM36.0108 48.3699H36.0055C35.433 48.3699 34.9688 48.8315 34.9688 49.4008V49.4061C34.9688 49.9754 35.433 50.437 36.0055 50.437H36.0108C36.5833 50.437 37.0475 49.9754 37.0475 49.4061V49.4008C37.0475 48.8315 36.5833 48.3699 36.0108 48.3699ZM53.1979 48.3699H53.2031C53.7757 48.3699 54.2398 48.8315 54.2398 49.4008V49.4061C54.2398 49.9754 53.7757 50.437 53.2031 50.437H53.1979C52.6253 50.437 52.1612 49.9754 52.1612 49.4061V49.4008C52.1612 48.8315 52.6253 48.3699 53.1979 48.3699ZM70.4007 48.3699H70.3954C69.8229 48.3699 69.3587 48.8315 69.3587 49.4008V49.4061C69.3587 49.9754 69.8229 50.437 70.3954 50.437H70.4007C70.9732 50.437 71.4374 49.9754 71.4374 49.4061V49.4008C71.4374 48.8315 70.9732 48.3699 70.4007 48.3699ZM61.7968 48.3699H61.802C62.3746 48.3699 62.8387 48.8315 62.8387 49.4008V49.4061C62.8387 49.9754 62.3746 50.437 61.802 50.437H61.7968C61.2242 50.437 60.7601 49.9754 60.7601 49.4061V49.4008C60.7601 48.8315 61.2242 48.3699 61.7968 48.3699ZM78.9944 48.3699H78.9891C78.4165 48.3699 77.9524 48.8315 77.9524 49.4008V49.4061C77.9524 49.9754 78.4165 50.437 78.9891 50.437H78.9944C79.5669 50.437 80.0311 49.9754 80.0311 49.4061V49.4008C80.0311 48.8315 79.5669 48.3699 78.9944 48.3699Z" fill="#52DE97"/>
</svg>
