<svg width="44" height="44" viewBox="0 0 44 44" fill="none" xmlns="http://www.w3.org/2000/svg">
<path d="M37.1884 37.3553C35.1724 39.3733 32.7738 40.9733 30.1316 42.0629C27.4895 43.1526 24.6562 43.7101 21.7958 43.7032C18.9445 43.7119 16.12 43.1576 13.4859 42.0724C10.8517 40.9872 8.46043 39.3927 6.4507 37.3814C6.04549 36.9837 5.65597 36.5546 5.29286 36.1255C3.56676 34.133 2.22517 31.8409 1.3355 29.3642C1.22187 29.04 1.24102 28.6841 1.38869 28.3738C1.53636 28.0634 1.80072 27.8233 2.12487 27.7051C2.26812 27.6538 2.4201 27.6307 2.57223 27.6371C2.83981 27.6378 3.10069 27.7206 3.31919 27.8742C3.5377 28.0278 3.7031 28.2448 3.79302 28.4954C4.19371 29.5862 4.69586 30.6373 5.29286 31.6353C6.97236 34.4873 9.36937 36.8554 12.2481 38.507C15.1269 40.1586 18.3883 41.0368 21.7118 41.0551C26.7677 41.0552 31.6179 39.0634 35.2009 35.516C38.7838 31.9686 40.8077 27.1545 40.83 22.1266C40.8434 19.6379 40.3618 17.171 39.4126 14.8681C38.4634 12.5653 37.0654 10.472 35.2993 8.70863C33.5317 6.9404 31.4303 5.53678 29.1156 4.57853C26.801 3.62029 24.3189 3.12634 21.8117 3.12483C18.4627 3.11856 15.1716 3.99395 12.273 5.66223C9.37445 7.3305 6.97144 9.73216 5.30854 12.6231C4.57694 13.8941 3.99437 15.2443 3.57204 16.6474C3.48561 16.9066 3.32012 17.1328 3.09847 17.2941C2.87682 17.4554 2.60997 17.5441 2.33531 17.5476C2.19553 17.5383 2.05657 17.5189 1.91956 17.4898C1.74957 17.4446 1.59109 17.3645 1.45422 17.2545C1.31734 17.1445 1.20522 17.0073 1.12506 16.8515C0.960918 16.5523 0.921265 16.2009 1.01457 15.8729C1.86319 13.0006 3.32808 10.3456 5.30854 8.09102C5.66112 7.66189 6.05075 7.25901 6.4507 6.85605C8.47233 4.83874 10.8756 3.23965 13.5221 2.15102C16.1685 1.06239 19.0056 0.505725 21.8695 0.513341C24.7118 0.502508 27.5282 1.05193 30.1558 2.12981C32.7834 3.20769 35.1699 4.79266 37.1779 6.79319C41.2463 10.849 43.5322 16.3432 43.5342 22.072C43.5361 27.8007 41.254 33.2968 37.1884 37.3553V37.3553Z" fill="#52DE97"/>
</svg>
