<svg width="18" height="15" viewBox="0 0 18 15" fill="none" xmlns="http://www.w3.org/2000/svg">
<path d="M0.812704 9.07808C0.931033 8.95988 1.07178 8.86611 1.22666 8.80211C1.38154 8.73811 1.54767 8.70526 1.71538 8.70526C1.8831 8.70526 2.04898 8.73811 2.20385 8.80211C2.35873 8.86611 2.49948 8.95988 2.61781 9.07808L4.19653 10.648C4.69647 11.1452 5.11216 11.6633 5.99624 10.648L15.5002 1.2022C15.7397 0.966352 16.063 0.833984 16.4001 0.833984C16.7371 0.833984 17.0605 0.966352 17.2999 1.2022C17.4188 1.31987 17.5131 1.45958 17.5774 1.6136C17.6418 1.76762 17.6751 1.93283 17.6751 2.09961C17.6751 2.2664 17.6418 2.43161 17.5774 2.58563C17.5131 2.73965 17.4188 2.87936 17.2999 2.99703L6.03838 14.2538C5.9205 14.3718 5.78041 14.4656 5.62597 14.5295C5.47153 14.5934 5.30581 14.6261 5.13853 14.6261C4.97124 14.6261 4.80553 14.5934 4.65109 14.5295C4.49665 14.4656 4.35655 14.3718 4.23868 14.2538L0.833775 10.8678C0.593788 10.6324 0.45691 10.3124 0.452968 9.97728C0.449027 9.64212 0.578319 9.31895 0.812704 9.07808Z" fill="#52DE97" stroke="#52DE97" stroke-width="0.5" stroke-miterlimit="10"/>
</svg>
