<svg width="39" height="25" viewBox="0 0 39 25" fill="none" xmlns="http://www.w3.org/2000/svg">
<path d="M8.10203 9.59635C8.2788 6.61828 9.36408 4.25767 11.2551 2.74553C12.7957 1.57047 14.6773 0.956747 16.5993 1.00237C20.3196 1.00237 22.4121 4.18206 23.2671 5.89162C24.2256 5.32689 25.3056 5.01263 26.4114 4.97672C27.5172 4.94082 28.6146 5.18438 29.6062 5.6858C32.7551 7.18534 33.0963 10.2684 33.0963 11.81C34.5535 12.1286 35.8568 12.9556 36.7824 14.1489C37.7081 15.3423 38.1983 16.8276 38.1692 18.35C38.1892 19.1251 38.0474 19.8958 37.7533 20.6106C37.4591 21.3255 37.0193 21.9681 36.4631 22.4957C35.3871 23.4825 33.9871 24.0194 32.5413 23.9995H7.40729C5.24906 23.9449 1.17105 22.3697 1.17105 16.7958C1.15872 12.2174 4.64888 10.0962 8.10203 9.59635Z" stroke="#13115B" stroke-miterlimit="10"/>
</svg>
