<svg width="85" height="38" viewBox="0 0 85 38" fill="none" xmlns="http://www.w3.org/2000/svg">
<path d="M1.68284 37.7885C1.49705 37.7875 1.31349 37.7479 1.14401 37.6722C0.974529 37.5965 0.823072 37.4862 0.698966 37.3487C0.582784 37.2209 0.493563 37.0714 0.436615 36.9087C0.379667 36.746 0.355955 36.5736 0.367238 36.4017C0.376028 36.2303 0.41942 36.0624 0.49443 35.9078C0.56944 35.7532 0.674594 35.615 0.80406 35.5015L27.3742 11.9521C27.6161 11.7373 27.9287 11.6181 28.253 11.6171C28.4676 11.617 28.6789 11.6691 28.8686 11.7689L52.8759 24.3758L80.5509 3.78821L73.7414 2.6161C73.405 2.55113 73.107 2.35851 72.9107 2.07924C72.7143 1.79997 72.6348 1.45573 72.6889 1.11922C72.7378 0.812765 72.8951 0.53391 73.1324 0.332452C73.3697 0.130994 73.6714 0.0203615 73.9834 0.0204527C74.057 0.0153179 74.1308 0.0153179 74.2044 0.0204527L83.8821 1.68445C84.2243 1.74079 84.5306 1.92877 84.7347 2.20777C84.9351 2.49229 85.0145 2.84402 84.9557 3.18644L83.2821 12.8155C83.2322 13.1229 83.0741 13.4028 82.836 13.6051C82.598 13.8073 82.2955 13.9189 81.9824 13.9199C81.9019 13.9274 81.8209 13.9274 81.7404 13.9199C81.3993 13.8538 81.0977 13.6571 80.9009 13.3723C80.7041 13.0875 80.6277 12.7373 80.6879 12.3969L81.7771 6.14852L53.7968 26.961C53.5695 27.1315 53.2922 27.2234 53.0075 27.2227C52.7929 27.2228 52.5815 27.1706 52.3918 27.0709L28.4583 14.5112L2.56703 37.4744C2.3217 37.6845 2.0065 37.7965 1.68284 37.7885Z" fill="#52DE97"/>
</svg>
