<svg width="76" height="75" viewBox="0 0 76 75" fill="none" xmlns="http://www.w3.org/2000/svg">
<path d="M72.7161 61.7542L56.7024 45.8297C56.5812 45.7064 56.4362 45.6085 56.2762 45.542C56.1162 45.4755 55.9444 45.4415 55.771 45.4423C55.5976 45.4418 55.4258 45.4757 55.2658 45.5422C55.1059 45.6087 54.961 45.7066 54.8395 45.8297L52.945 47.7083L50.0296 44.8038L50.2927 44.4585C54.6396 38.5316 56.4484 31.1337 55.3231 23.8837C54.1978 16.6338 50.2301 10.1224 44.2885 5.77473C39.5363 2.28068 33.7796 0.399989 27.8696 0.41069C22.8959 0.417816 18.0142 1.7455 13.7294 4.25689C12.8469 4.77219 11.9932 5.33483 11.1719 5.9421C10.4888 6.44561 9.8336 6.98533 9.20903 7.55908C9.08685 7.65276 8.97075 7.75418 8.86163 7.86264C8.06594 8.5878 7.31883 9.36394 6.6251 10.1862C6.19358 10.7095 5.7778 11.1962 5.38838 11.7561C3.08903 14.876 1.47537 18.442 0.65219 22.2225C0.557467 22.6203 0.489209 23.0232 0.415535 23.421C-0.0852139 26.3637 -0.108249 29.3673 0.347186 32.3174C0.347186 32.443 0.389223 32.5633 0.415535 32.6889C0.473422 33.1024 0.557467 33.5211 0.65219 33.9188C1.24189 36.6923 2.2648 39.3568 3.68348 41.8156C4.18673 42.7258 4.75304 43.6001 5.3781 44.4322C6.37046 45.7834 7.48914 47.0381 8.71953 48.1793C9.56717 48.9888 10.4673 49.7423 11.414 50.4348C11.5824 50.5552 11.7455 50.6809 11.9402 50.7908C16.6041 54.0509 22.1688 55.795 27.8696 55.7833C33.7931 55.7974 39.564 53.9168 44.3303 50.4192L44.6777 50.1678L47.5986 53.0619L45.6935 54.951C45.4523 55.1997 45.3176 55.5318 45.3176 55.8773C45.3176 56.2228 45.4523 56.5549 45.6935 56.8036L61.7228 72.7334C62.4445 73.4537 63.3024 74.0249 64.2471 74.4138C65.1919 74.8027 66.2048 75.0017 67.2273 74.9995C68.2524 75.0035 69.2681 74.8053 70.2157 74.4164C71.1633 74.0274 72.0237 73.4554 72.7475 72.7334C74.2067 71.273 75.0233 69.2961 75.0174 67.2373C75.0115 65.1785 74.1838 63.2063 72.7161 61.7542V61.7542ZM27.7958 53.2398C21.1995 53.2537 14.8664 50.6684 10.1826 46.0495L9.94572 45.8139C9.50368 45.3743 9.07221 44.9032 8.68279 44.4322C4.52642 39.6322 2.3472 33.448 2.58141 27.1179C2.81561 20.7879 5.44589 14.7793 9.94572 10.296C10.3772 9.86691 10.8351 9.44321 11.2929 9.05596C15.8677 5.09765 21.7319 2.92554 27.7958 2.94348C31.1128 2.93051 34.3995 3.57124 37.4661 4.82876C40.5326 6.08629 43.3182 7.93568 45.6619 10.27C48.0169 12.602 49.8835 15.3753 51.1535 18.4295C52.4235 21.4836 53.0718 24.7579 53.0609 28.0629C53.0689 31.3612 52.4189 34.6284 51.1489 37.6753C49.8789 40.7222 48.014 43.4884 45.6619 45.8139C43.3324 48.1739 40.5518 50.0467 37.4835 51.322C34.4153 52.5973 31.1213 53.2493 27.7958 53.2398V53.2398ZM46.6776 48.467L47.5248 47.6664L48.3298 46.824L53.324 51.785C53.5441 52.0056 53.6676 52.3037 53.6676 52.6145C53.6676 52.9252 53.5441 53.2234 53.324 53.4439C53.0983 53.6577 52.7988 53.7776 52.4871 53.7789C52.1807 53.7746 51.8875 53.6549 51.6664 53.4439L46.6776 48.467ZM48.4719 55.8773L49.0665 55.286L49.4299 54.9405L49.8035 55.286C50.154 55.6353 50.5707 55.9119 51.0297 56.0996C51.4886 56.2874 51.9806 56.3825 52.4768 56.3797C52.982 56.3804 53.4821 56.2804 53.9476 56.0853C54.4132 55.8902 54.8346 55.6042 55.1869 55.2441C55.8842 54.5318 56.2744 53.5771 56.2744 52.583C56.2744 51.589 55.8842 50.6343 55.1869 49.922L54.8239 49.5609L55.7867 48.6083L66.1959 58.9493L58.8863 66.2183L48.4719 55.8773ZM70.8532 70.8809C70.3741 71.3602 69.8041 71.7403 69.1763 71.9991C68.5485 72.2578 67.8753 72.3901 67.1957 72.3882C66.5187 72.3886 65.8484 72.2554 65.2233 71.9968C64.5983 71.7381 64.031 71.3588 63.5541 70.8809L60.7336 68.0708L68.0323 60.8018L70.8532 63.6068C71.8218 64.5721 72.3656 65.8803 72.3656 67.2439C72.3656 68.6076 71.8218 69.9155 70.8532 70.8809V70.8809Z" fill="#52DE97"/>
</svg>
